<svg xmlns="http://www.w3.org/2000/svg" width="399.999" height="358.587" viewBox="0 0 399.999 358.587">
  <g id="Ethnic_friendship-bro" data-name="Ethnic friendship-bro" transform="translate(-0.788 0.085)">
    <g id="freepik--background-simple--inject-4" transform="translate(0 26.307)">
      <path id="Path" d="M289.6,318.087s-62.312,30.533-129.542.789S53.342,219.42,19.872,163.79-3.8,46.612,41.846,13.843s82.725,3.692,150.9-2.052S278.22-5.817,338.567,26.54s79.84,122.764,42.222,195.493S289.6,318.087,289.6,318.087Z" transform="translate(0.788 0.301)" fill="#ffb76f"/>
      <path id="Path-2" data-name="Path" d="M289.6,318.087s-62.312,30.533-129.542.789S53.342,219.42,19.872,163.79-3.8,46.612,41.846,13.843s82.725,3.692,150.9-2.052S278.22-5.817,338.567,26.54s79.84,122.764,42.222,195.493S289.6,318.087,289.6,318.087Z" transform="translate(0.788 0.301)" fill="#f9fbff"/>
    </g>
    <g id="freepik--Clouds--inject-4" transform="translate(17.538)">
      <path id="Path-3" data-name="Path" d="M159.269,27.759S159.935,3.987,136.54.479,108.392,13.72,101.956,18.394s-7.6-9.356-22.22-4.086S70.966,31.267,63.951,35.353s-9.523-6.761-20.467-5.261S34.8,43.341,30.033,45.875s-10.1-.2-19.379-.973S0,54.846,0,54.846H186.172s4.674-16.564-4.683-22.413S161.61,31.267,159.269,27.759Z" transform="translate(156.34 0.398)" fill="none" stroke="#263238" stroke-linecap="round" stroke-linejoin="round" stroke-miterlimit="10" stroke-width="0.978"/>
      <path id="Path-4" data-name="Path" d="M121.773,21.414S117.3,3.078,99.413.369,82.866,10.655,77.946,14.232s-5.8-7.155-16.985-3.13-6.708,13-12.11,16.117S41.573,22.054,33.2,23.194,26.6,33.357,22.957,35.278s-7.725-.158-14.819-.754S0,42.126,0,42.126H142.336s3.578-12.662-3.578-17.134S123.562,24.1,121.773,21.414Z" transform="translate(0.254 148.158)" fill="none" stroke="#263238" stroke-linecap="round" stroke-linejoin="round" stroke-miterlimit="10" stroke-width="0.978"/>
      <path id="Path-5" data-name="Path" d="M71.01,12.256S74.912,1.733,64.477.208,48.316,6,45.449,8.1s-3.394-4.174-9.918-1.824-3.911,7.568-7.015,9.391-4.244-3.016-9.128-2.35-3.867,5.91-6,7.015-4.5-.088-8.637-.438S0,24.331,0,24.331H83.032s2.061-7.357-2.113-9.988S72.054,13.826,71.01,12.256Z" transform="translate(297.019 76.853)" fill="none" stroke="#263238" stroke-linecap="round" stroke-linejoin="round" stroke-miterlimit="10" stroke-width="0.978"/>
    </g>
    <g id="freepik--characters-2--inject-4" transform="translate(141.179 32.445)">
      <path id="Path-6" data-name="Path" d="M0,5.612s6.857,33.5,8.629,39.337a48.229,48.229,0,0,1,2.034,8.883s1.271,12.18,2.788,22.334S22.334,113,22.589,115.5s-1.517,7.611-3.551,10.663-9.9,8.883-9.9,10.654,8.374,1.754,12.943,1.754,11.4-.763,13.2-1.526,2.289-2.026,2.289-4.569-4.06-26.14-4.314-33.751,3.3-20.054,1.526-30.2S29.7,47.212,29.7,38.329,29.446,0,29.446,0,7.62,6.884,0,5.612Z" transform="translate(134.979 167.801)" fill="#fff" stroke="#263238" stroke-linecap="round" stroke-linejoin="round" stroke-miterlimit="10" stroke-width="0.978"/>
      <path id="Path-7" data-name="Path" d="M19.037,1.068c-3.043-2.788-6.094.763-6.094.763h0A25.579,25.579,0,0,1,9.9,8.689C7.874,11.731,0,17.571,0,19.343S8.374,21.1,12.943,21.1s11.4-.763,13.2-1.526S28.429,17.545,28.429,15c0-1.008-.64-5.349-1.429-10.689L23.86,5.356S22.08,3.866,19.037,1.068Z" transform="translate(144.116 285.279)" fill="#fff" stroke="#263238" stroke-linecap="round" stroke-linejoin="round" stroke-miterlimit="10" stroke-width="0.978"/>
      <path id="Path-8" data-name="Path" d="M17.543,0s-3.8,14.609-7.3,27.183S7.608,51.736,7.02,58.164,3.8,77.745,6.433,90.9s7.313,33.62,7.313,35.374a11.4,11.4,0,0,1-3.508,7.892C7.309,137.084,0,143.511,0,146.729a5.314,5.314,0,0,0,7.015,5.261c4.384-1.166,9.058-5.849,10.812-9.935s7.015-5.559,7.313-9.646-1.175-7.892-1.754-11.987-2.341-21.335,0-32.445,1.166-27.183,1.166-27.183,5.261-14.618,8.181-21.335,8.479-22.51,8.479-22.51Z" transform="translate(85.053 150.535)" fill="#fff" stroke="#263238" stroke-linecap="round" stroke-linejoin="round" stroke-miterlimit="10" stroke-width="0.978"/>
      <path id="Path-9" data-name="Path" d="M25.145,7.1A24.851,24.851,0,0,0,24.356,0a20.7,20.7,0,0,1-5.647,8.269,13.153,13.153,0,0,0-2.92-4.1c-1.21-1.008-2.289-.061-2.832.623a12.189,12.189,0,0,1-2.718,4.06C7.309,11.777,0,18.2,0,21.422A5.314,5.314,0,0,0,7.02,26.684c4.384-1.166,9.058-5.849,10.812-9.935S24.847,11.189,25.145,7.1Z" transform="translate(85.053 275.842)" fill="#fff" stroke="#263238" stroke-linecap="round" stroke-linejoin="round" stroke-miterlimit="10" stroke-width="0.978"/>
      <path id="Path-10" data-name="Path" d="M13.335,0A62.066,62.066,0,0,0,5.443,13.2C2.646,20.046-.651,29.691.112,30.735s7.611,10.917,12.18,13.96,12.689,5.84,12.689,5.84l2.8-2.8,1.008,8.12s4.823,1.271,15.486,1.754,25.123-5.84,25.123-5.84S66.2,30.393,62.9,22.781s-9.488-15.17-9.488-15.17S32.092,9.9,22.955,6.6,13.335,0,13.335,0Z" transform="translate(101.344 119.862)" fill="#263238" stroke="#263238" stroke-linecap="round" stroke-linejoin="round" stroke-miterlimit="10" stroke-width="0.978"/>
      <path id="Path-11" data-name="Path" d="M40.161,0C36.61,1.754,28.078,5.621,19.537,6.208A49.2,49.2,0,0,1,0,3.665l.5,4.06S5.323,9,15.986,9.479s25.123-5.84,25.123-5.84S40.749,2.254,40.161,0Z" transform="translate(129.656 167.968)" fill="#999" stroke="#263238" stroke-linecap="round" stroke-linejoin="round" stroke-miterlimit="10" stroke-width="0.978"/>
      <path id="Path-12" data-name="Path" d="M24.981,22.466l.754-.754a85.777,85.777,0,0,1-10.9-6.866C9.329,10.865,3.121,3.446.332,0,.008,1.4-.106,2.376.113,2.631c.763,1.017,7.611,10.917,12.18,13.96S24.981,22.466,24.981,22.466Z" transform="translate(101.369 147.904)" fill="#999" stroke="#263238" stroke-linecap="round" stroke-linejoin="round" stroke-miterlimit="10" stroke-width="0.978"/>
      <path id="Path-13" data-name="Path" d="M0,15.232S8.883,4.314,15.232,0" transform="translate(130.919 146.002)" fill="none" stroke="#6b6b6b" stroke-linecap="round" stroke-linejoin="round" stroke-miterlimit="10" stroke-width="0.978"/>
      <path id="Path-14" data-name="Path" d="M72.121,0s.588,8.181-2.92,9.935-20.756,0-26.894.588S2.269,33.611.515,35.075s1.166,9.935,5.84,11.689,30.691-11.1,30.691-11.1S45.525,57,46.692,58.751s-5.551,18.415-9.935,25.43S27.7,107.568,27.4,117.792s5.261,31.866,8.479,38.294,2.631,8.769,1.464,16.661-2.219,20.168-.149,27.622c2.192,7.892,9.795,37.855,9.795,37.855s-8.19,7.594-12.575,11.1-9.348,4.384-8.471,6.436,28.35,0,30.1,0a4.384,4.384,0,0,0,4.1-4.1c0-2.341-.588-13.153-.588-15.784s.588-35.663.588-45.887V164.267s1.166-19.581,1.166-23.965,2.341-16.073,2.341-16.073h4.384s15.2,27.473,18.415,33.024,6.428,11.4,6.428,11.4-.289,25.43,4.674,34.5,14.907,28.639,16.371,31.568,2.631,18.7,4.384,20.458,32.155,2.631,33.032,2.341,1.754-4.1-.877-6.138-14.03-6.726-16.959-9.067-5.314-2.631-7.015-9.058c-.4-1.526-4.674-27.771-5.261-37.119s-6.717-31.866-6.717-31.866-4.683-33.322-7.015-43.546S94.631,82.427,94.342,80.674s-4.1-11.987-4.1-11.987,1.464-4.963,3.218-7.3,5.551-11.4,5.551-15.2a27.639,27.639,0,0,1,.588-6.138s2.043-3.806,4.384-5.559,13.153-10.812,13.153-10.812-.877-3.8-6.726-6.726-20.756-3.8-21.633-4.086S87.326,6.726,87.905,3.8,72.121,0,72.121,0Z" transform="translate(4.457 49.983)" fill="#fff" stroke="#263238" stroke-linecap="round" stroke-linejoin="round" stroke-miterlimit="10" stroke-width="0.978"/>
      <path id="Path-15" data-name="Path" d="M50.386,47.264c-2.631-2.052-14.03-6.726-16.959-9.067s-5.314-2.631-7.015-9.058C26.1,27.946,23.4,11.531,21.966,0A132.41,132.41,0,0,1,0,3.709C5.261,13.574,12.6,28.1,13.846,30.595c1.464,2.92,2.631,18.7,4.384,20.458s32.155,2.631,33.032,2.341S53.017,49.307,50.386,47.264Z" transform="translate(104.534 254.095)" fill="#999" stroke="#263238" stroke-linecap="round" stroke-linejoin="round" stroke-miterlimit="10" stroke-width="0.978"/>
      <path id="Path-16" data-name="Path" d="M13.088,0c3.06,11.654,8.059,31.357,8.059,31.357s-8.19,7.594-12.575,11.1S-.775,46.843.1,48.9s28.35,0,30.1,0a4.384,4.384,0,0,0,4.1-4.1c0-2.341-.588-13.153-.588-15.784,0-1.64.228-15.1.395-27.482C25.523,1.131,18.139.5,13.088,0Z" transform="translate(30.3 256.849)" fill="#999" stroke="#263238" stroke-linecap="round" stroke-linejoin="round" stroke-miterlimit="10" stroke-width="0.978"/>
      <path id="Path-17" data-name="Path" d="M93.838,118.388c-.579-9.356-6.717-31.866-6.717-31.866S82.439,53.2,80.106,42.976C78,33.786,69.3,10.224,67.339,4.244,56.816,6.165,34.219,8.629,12.814,0A68.879,68.879,0,0,1,9.368,6.436C4.983,13.451.31,29.823.012,40.047S5.273,71.913,8.491,78.341,11.122,87.11,9.955,95s-2.219,20.168-.149,27.622c.7,2.534,1.964,7.34,3.35,12.7a73.913,73.913,0,0,0,19.335.8c.132-9.313.263-19.09.263-23.869V86.522s1.166-19.581,1.166-23.965,2.341-16.073,2.341-16.073h4.384s15.2,27.473,18.415,33.024,6.428,11.4,6.428,11.4-.289,25.43,4.674,34.5c1.482,2.7,3.411,6.349,5.428,10.207a88.223,88.223,0,0,0,19.949-2.289C94.733,127.447,94.058,121.791,93.838,118.388Z" transform="translate(31.846 127.727)" fill="#263238" stroke="#263238" stroke-linecap="round" stroke-linejoin="round" stroke-miterlimit="10" stroke-width="0.978"/>
      <path id="Path-18" data-name="Path" d="M26.7,2.346C25.382-1.161,21.147.3,21.147.3S12.957,7.9,8.572,11.4-.775,15.789.1,17.841s28.35,0,30.1,0a4.384,4.384,0,0,0,4.1-4.1c0-1.184-.149-4.534-.3-7.892H28.013Z" transform="translate(30.3 287.903)" fill="#fb7d00" stroke="#263238" stroke-linecap="round" stroke-linejoin="round" stroke-miterlimit="10" stroke-width="0.978"/>
      <path id="Path-19" data-name="Path" d="M34.672,11.6c-2.631-2.052-14.03-6.726-16.959-9.067C16.459,1.535,15.3.9,14.258,0a3.744,3.744,0,0,0-2.069.938C10.5,2.42,10.277,6.2,10.277,6.2S4.007,5.06,0,4.183C.763,9.2,1.552,14.434,2.517,15.4c1.754,1.754,32.155,2.631,33.032,2.341S37.3,13.644,34.672,11.6Z" transform="translate(120.247 289.758)" fill="#fb7d00" stroke="#263238" stroke-linecap="round" stroke-linejoin="round" stroke-miterlimit="10" stroke-width="0.978"/>
      <path id="Path-20" data-name="Path" d="M5.354,1.414S-.477,9.788.031,13.34s3.806,6.349,4.06,9.9S-.223,34.639.584,38.463,7.178,47.6,7.178,47.6s-1.754,5.84.763,10.409,13.2,11.671,23.851,9.9,15.74-6.857,16.5-8.629,5.586-14.469,7.357-22.589.254-15.232-4.569-19.8S33.318,6.491,25.452,3.185,6.117-1.094,5.354,1.414Z" transform="translate(107.291 71.245)" fill="#fb7d00" stroke="#263238" stroke-linecap="round" stroke-linejoin="round" stroke-miterlimit="10" stroke-width="0.978"/>
      <path id="Path-21" data-name="Path" d="M0,5.612s4.569,3.806,12.434,2.28A19.625,19.625,0,0,0,24.36,0" transform="translate(133.462 119.327)" fill="none" stroke="#263238" stroke-linecap="round" stroke-linejoin="round" stroke-miterlimit="10" stroke-width="0.978"/>
      <path id="Path-22" data-name="Path" d="M.061,15.819C-.333,22.939,1.122,29.437,6.2,31.366a127.376,127.376,0,0,0,3.744-12.75C11.575,11.163,10.417,4.586,6.489,0,4.235,3.192.421,9.444.061,15.819Z" transform="translate(152.938 89.32)" fill="#fff" stroke="#263238" stroke-linecap="round" stroke-linejoin="round" stroke-miterlimit="10" stroke-width="0.978"/>
      <path id="Path-23" data-name="Path" d="M27.368,21.457A73.071,73.071,0,0,0,32.1,10.707c-5.384-2.867-11.61-5.621-16.152-7.524A43.055,43.055,0,0,0,0,0,2.508,2.508,0,0,0,.465.649C2.5,2.675,3.516,6.489,3.516,6.489s2.534,2.534.509,7.611S1.482,30.086,7.831,33.129,23.053,29.832,27.368,21.457Z" transform="translate(116.749 71.247)" fill="#fff" stroke="#263238" stroke-linecap="round" stroke-linejoin="round" stroke-miterlimit="10" stroke-width="0.978"/>
      <path id="Path-24" data-name="Path" d="M.851,19.926,28.192,43.6a68.038,68.038,0,0,0-3.1,13.811c-.57,6.489-5.358,26.219-5.928,27.35S8.743,90.4,5.919,92.093.281,100.266.57,101.678s1.4-.57,2.254-1.973a13.688,13.688,0,0,1,2.534-2.824l2.254-1.412S4.8,101.108,4.8,102.8s-.877,5.638.281,5.638,1.412-2.534,1.692-3.385S9.3,97.732,9.3,97.732L7.331,109.289s-.561,2.254,1.131,1.122,2.254-7.331,2.534-8.173,3.946-5.358,3.946-5.358-1.692,5.638-1.692,7.331-.877,4.788.281,3.665,2.543-5.638,2.543-5.638l2.534-6.2a20.054,20.054,0,0,0,4.516-5.358A17.538,17.538,0,0,0,24.807,85.6S37.5,57.693,39.188,52.344a74.474,74.474,0,0,0,2.815-11c0-.877-6.48-9.023-12.96-17.485S13.82,5.545,9.3,1.879,0,.748,0,2.441" transform="translate(156.48 90.115)" fill="#fff" stroke="#263238" stroke-linecap="round" stroke-linejoin="round" stroke-miterlimit="10" stroke-width="0.978"/>
      <path id="Path-25" data-name="Path" d="M0,2.279S3.166-.9,4.1.253,3.516,7.269,2.534,8.2s-1.061.061-1.052-1.7a8.146,8.146,0,0,0-.552-3.06S.877,3.963,0,2.279Z" transform="translate(165.582 89.189)" fill="#999" stroke="#263238" stroke-linecap="round" stroke-linejoin="round" stroke-miterlimit="10" stroke-width="0.978"/>
      <path id="Path-26" data-name="Path" d="M1.084.03s2.867-.4,2.99,1.754S1.443,8.2.488,8.8.207,4.888.61,2.818,1.084.03,1.084.03Z" transform="translate(169.164 90.71)" fill="#999" stroke="#263238" stroke-linecap="round" stroke-linejoin="round" stroke-miterlimit="10" stroke-width="0.978"/>
      <path id="Path-27" data-name="Path" d="M1.08.028S3.939-.366,4.062,1.782,1.431,8.2.484,8.8.2,4.886.6,2.808,1.08.028,1.08.028Z" transform="translate(172.026 93.658)" fill="#999" stroke="#263238" stroke-linecap="round" stroke-linejoin="round" stroke-miterlimit="10" stroke-width="0.978"/>
      <path id="Path-28" data-name="Path" d="M.9.025S3.309-.309,3.405,1.48s-2.21,5.393-3,5.9S.161,4.093.5,2.357.9.025.9.025Z" transform="translate(174.962 97.055)" fill="#999" stroke="#263238" stroke-linecap="round" stroke-linejoin="round" stroke-miterlimit="10" stroke-width="0.978"/>
      <path id="Path-29" data-name="Path" d="M16.564,0,0,38.636S13.443,51.122,29.288,51.122,51.859,45.6,51.859,45.6L50.658,10.3Z" transform="translate(55.63 24.553)" fill="#263238" stroke="#263238" stroke-linecap="round" stroke-linejoin="round" stroke-miterlimit="10" stroke-width="0.978"/>
      <path id="Path-30" data-name="Path" d="M14.653,0,0,42.5" transform="translate(60.426 25.491)" fill="none" stroke="#6b6b6b" stroke-linecap="round" stroke-linejoin="round" stroke-miterlimit="10" stroke-width="0.978"/>
      <path id="Path-31" data-name="Path" d="M12.724,0,0,43.7" transform="translate(66.915 26.692)" fill="none" stroke="#6b6b6b" stroke-linecap="round" stroke-linejoin="round" stroke-miterlimit="10" stroke-width="0.978"/>
      <path id="Path-32" data-name="Path" d="M.075,0,.8,38.425" transform="translate(103.091 33.409)" fill="none" stroke="#6b6b6b" stroke-linecap="round" stroke-linejoin="round" stroke-miterlimit="10" stroke-width="0.978"/>
      <path id="Path-33" data-name="Path" d="M.316,0,.561,41.538" transform="translate(98.29 32.217)" fill="none" stroke="#6b6b6b" stroke-linecap="round" stroke-linejoin="round" stroke-miterlimit="10" stroke-width="0.978"/>
      <path id="Path-34" data-name="Path" d="M96.823,88.031c-1.412-3.99-2.394-6.84-2.482-7.357-.3-1.754-4.1-11.987-4.1-11.987s1.464-4.963,3.218-7.3,5.551-11.4,5.551-15.2a27.639,27.639,0,0,1,.588-6.138s2.043-3.806,4.384-5.559,13.153-10.812,13.153-10.812-.877-3.8-6.726-6.726-20.756-3.8-21.633-4.086S87.326,6.726,87.905,3.8,72.121,0,72.121,0s.588,8.181-2.92,9.935-20.756,0-26.894.588S2.269,33.611.515,35.075s1.166,9.935,5.84,11.689,30.691-11.1,30.691-11.1S45.525,57,46.692,58.751s-4.77,16.477-9.128,24.071C44.6,88.758,62.87,99.2,96.823,88.031Z" transform="translate(4.457 49.983)" fill="#fff" stroke="#263238" stroke-linecap="round" stroke-linejoin="round" stroke-miterlimit="10" stroke-width="0.978"/>
      <path id="Path-35" data-name="Path" d="M2.376,0C1.587.465.8.947,0,1.429c1.412,5.516,3.779,12.9,7.34,18.415L9.733,18.73C6.138,13.3,3.736,5.516,2.376,0Z" transform="translate(27.911 68.757)" fill="#263238"/>
      <path id="Path-36" data-name="Path" d="M9.8,17.582l2.473-1.1A108.015,108.015,0,0,1,2.245,0C1.491.474.737.938,0,1.412a109.225,109.225,0,0,0,9.8,16.17Z" transform="translate(21.203 72.939)" fill="#263238"/>
      <path id="Path-37" data-name="Path" d="M6.594,25.982A190.179,190.179,0,0,1,2.517,0C1.71.421.868.877,0,1.368a193.1,193.1,0,0,0,3.192,21.37l1.754-.877Z" transform="translate(36.549 63.758)" fill="#263238"/>
      <path id="Path-38" data-name="Path" d="M.947,0C.658.807.333,1.64,0,2.49a60.628,60.628,0,0,0,23.159,4.27A81.8,81.8,0,0,0,46.931,3.069l-.5-1.368s.167-.552.447-1.377C24.009,7.41,7.506,2.666.947,0Z" transform="translate(48.273 116.968)" fill="#263238"/>
      <path id="Path-39" data-name="Path" d="M1.271.037A1.324,1.324,0,0,0,0,.414C.307,1.15.614,1.9.921,2.659a176.877,176.877,0,0,0,38,4.577A97.159,97.159,0,0,0,57.576,5.579a20.089,20.089,0,0,0,.605-2.8C33.769,7.99,1.622.124,1.271.037Z" transform="translate(45.203 94.483)" fill="#263238"/>
      <path id="Path-40" data-name="Path" d="M0,1.238A1.315,1.315,0,0,0,1.238,2.624l78.63,4.735a12.276,12.276,0,0,0-2.631-2.8L1.4,0A1.324,1.324,0,0,0,0,1.238Z" transform="translate(40.764 64.344)" fill="#263238"/>
      <path id="Path-41" data-name="Path" d="M0,0A22.124,22.124,0,0,0,1.122,2.341a1.6,1.6,0,0,1,.132.877,81.007,81.007,0,0,0,24.4,3.613,93.02,93.02,0,0,0,22.9-2.911A35.075,35.075,0,0,0,50.132.763C25.737,7.6,6.647,2.341,0,0Z" transform="translate(50.026 106.393)" fill="#263238"/>
      <path id="Path-42" data-name="Path" d="M1.387,0a1.317,1.317,0,1,0-.14,2.631l71.738,3.85,2.99-2.455Z" transform="translate(40.387 74.016)" fill="#263238"/>
      <path id="Path-43" data-name="Path" d="M54.455,4.656V4.577a21.826,21.826,0,0,0-.719-2.464A75.465,75.465,0,0,1,1.122,0C.754.816.377,1.6,0,2.376a78.1,78.1,0,0,0,54.5,2.28Z" transform="translate(44.353 126.079)" fill="#263238"/>
      <path id="Path-44" data-name="Path" d="M37.8,3.349C22.456,3.349,1.744.052,1.543.017a1.332,1.332,0,0,0-.421,2.631c.21,0,21.124,3.367,36.68,3.367,9.383,0,18.415-.272,24.141-.482a24.938,24.938,0,0,1,1.885-2.71C58.435,3.007,48.325,3.349,37.8,3.349Z" transform="translate(42.609 83.691)" fill="#263238"/>
      <path id="Path-45" data-name="Path" d="M12.888,0C6.346,4.2,1.172,7.717.515,8.26-1.239,9.725,1.681,18.2,6.355,19.949c2.42.877,10.523-2.078,17.792-5.191Z" transform="translate(4.457 76.798)" fill="#999" stroke="#263238" stroke-linecap="round" stroke-linejoin="round" stroke-miterlimit="10" stroke-width="0.978"/>
      <path id="Path-46" data-name="Path" d="M.533,3.807S-.51.457.323.037,2.208,2.965,2.208,2.965L4.716,5.684S5.768,7.569,3.462,7.569.533,3.807.533,3.807Z" transform="translate(30.158 131.979)" fill="#999" stroke="#263238" stroke-linecap="round" stroke-linejoin="round" stroke-miterlimit="10" stroke-width="0.978"/>
      <path id="Path-47" data-name="Path" d="M1.646,5.3S-.651.494.182.038s2.929,3.35,2.929,3.35L6.46,6.106Z" transform="translate(27.536 132.372)" fill="#999" stroke="#263238" stroke-linecap="round" stroke-linejoin="round" stroke-miterlimit="10" stroke-width="0.978"/>
      <path id="Path-48" data-name="Path" d="M4.384,0S0,3.8,0,6.726,35.365,42.888,35.365,42.888a6.138,6.138,0,0,0-2.052,4.086c0,2.341-.289,5.261-.289,5.261l-3.8-.579s-2.341-2.341-3.508-2.341,2.92,5.261,3.508,6.138,7.3.289,7.3.289,6.726-8.769,6.726-12.855S19.414,5.4,18.537,3.648" transform="translate(0.588 85.058)" fill="#999" stroke="#263238" stroke-linecap="round" stroke-linejoin="round" stroke-miterlimit="10" stroke-width="0.978"/>
      <path id="Path-49" data-name="Path" d="M37.355,13.951c-4.665-.64-8.769-.938-9.2-1.087-.877-.3-1.456-6.138-.877-9.067S11.5,0,11.5,0s.588,8.181-2.92,9.935c-1.333.666-4.647.824-8.576.807,1.114,6.84,2.455,19.02,14.425,20.537C29.621,33.208,36.189,20.94,37.355,13.951Z" transform="translate(65.082 49.983)" fill="#999" stroke="#263238" stroke-linecap="round" stroke-linejoin="round" stroke-miterlimit="10" stroke-width="0.978"/>
      <path id="Path-50" data-name="Path" d="M5.3,2.807S1.714-2.455.329,1.43,2.267,11.383,4.2,11.953,5.3,2.807,5.3,2.807Z" transform="translate(67.832 22)" fill="#999" stroke="#263238" stroke-linecap="round" stroke-linejoin="round" stroke-miterlimit="10" stroke-width="0.978"/>
      <path id="Path-51" data-name="Path" d="M2.29,1.7S7.3-2.233,7.454,1.871,2.605,10.78.6,10.718,2.29,1.7,2.29,1.7Z" transform="translate(103.551 29.127)" fill="#999" stroke="#263238" stroke-linecap="round" stroke-linejoin="round" stroke-miterlimit="10" stroke-width="0.978"/>
      <path id="Path-52" data-name="Path" d="M1.377,19.8S0,33.9,0,38.321,6.077,52.693,9.12,55.455s7.462,3.043,14.644-1.938c2.569-1.754,8.015-9.391,9.12-13.82s4.148-14.644,4.148-23.492S32.883,1.3,23.211.185,3.867,2.667,1.377,19.8Z" transform="translate(71.756 0.587)" fill="#999" stroke="#263238" stroke-linecap="round" stroke-linejoin="round" stroke-miterlimit="10" stroke-width="0.978"/>
      <path id="Shape" d="M32.243,15.934C20.168,20.853,5.954,21.616,0,21.73.114,20.546.185,19.8.185,19.8,2.675,2.667,12.373-.929,22.019.185,31.691,1.29,35.838,7.367,35.838,16.205a67.55,67.55,0,0,1-1.753,13.837C32.042,26.518,32.243,15.934,32.243,15.934Z" transform="translate(72.948 0.587)" fill="#263238" stroke="#263238" stroke-linecap="round" stroke-linejoin="round" stroke-miterlimit="10" stroke-width="0.978"/>
      <path id="Path-53" data-name="Path" d="M0,6.805S10.794-2.647,29.016.729" transform="translate(76.149 11.355)" fill="none" stroke="#6b6b6b" stroke-linecap="round" stroke-linejoin="round" stroke-miterlimit="10" stroke-width="0.978"/>
      <path id="Path-54" data-name="Path" d="M0,3.745s15.854-8.427,26.307,0" transform="translate(78.85 6.313)" fill="none" stroke="#6b6b6b" stroke-linecap="round" stroke-linejoin="round" stroke-miterlimit="10" stroke-width="0.978"/>
      <path id="Path-55" data-name="Path" d="M0,.276s4.7-1.1,6.357,1.1" transform="translate(78.385 30.616)" fill="none" stroke="#263238" stroke-linecap="round" stroke-linejoin="round" stroke-miterlimit="10" stroke-width="1.955"/>
      <path id="Path-56" data-name="Path" d="M0,.244S4.139-.861,6.077,1.63" transform="translate(94.142 33.954)" fill="none" stroke="#263238" stroke-linecap="round" stroke-linejoin="round" stroke-miterlimit="10" stroke-width="1.955"/>
      <path id="Path-57" data-name="Path" d="M0,1.776S3.315-1.548,7.19.9" transform="translate(78.385 24.698)" fill="none" stroke="#263238" stroke-linecap="round" stroke-linejoin="round" stroke-miterlimit="10" stroke-width="0.978"/>
      <path id="Path-58" data-name="Path" d="M0,.691S4.428-2.072,6.357,3.453" transform="translate(96.072 27.992)" fill="none" stroke="#263238" stroke-linecap="round" stroke-linejoin="round" stroke-miterlimit="10" stroke-width="0.978"/>
      <path id="Path-59" data-name="Path" d="M0,0S1.657,4.384,6.629,1.929" transform="translate(84.742 36.145)" fill="none" stroke="#263238" stroke-linecap="round" stroke-linejoin="round" stroke-miterlimit="10" stroke-width="0.978"/>
      <path id="Path-60" data-name="Path" d="M0,0S.132,4.428,3.166,5.367C7.155,6.6,9.488,2.613,9.488,2.613S6.051,2.894,0,0Z" transform="translate(81.691 43.388)" fill="#787878" stroke="#263238" stroke-linecap="round" stroke-linejoin="round" stroke-miterlimit="10" stroke-width="0.978"/>
      <path id="Path-61" data-name="Path" d="M0,0A21.37,21.37,0,0,0,5.358,3.025a15.618,15.618,0,0,0,6.594.281,11.487,11.487,0,0,1-3.569-.965A3.753,3.753,0,0,0,5.91,1.929S4.674.552,3.569.552A24.649,24.649,0,0,1,0,0Z" transform="translate(80.735 42.564)" fill="#595959" stroke="#263238" stroke-linecap="round" stroke-linejoin="round" stroke-miterlimit="10" stroke-width="0.978"/>
      <path id="Path-62" data-name="Path" d="M10.612,0s0,2.052-6.585,8.453S.6,22.878,1.966,24.307A10.2,10.2,0,0,0,5.3,26.473l.368-3.28s.754,2.385,4.761,3.1,4.937-.71,2.753-4.025-1.8-8.909-.219-11.54A21.852,21.852,0,0,1,16.54,6.34Z" transform="translate(101.138 69.949)" fill="#ffb76f" stroke="#263238" stroke-linecap="round" stroke-linejoin="round" stroke-miterlimit="10" stroke-width="0.978"/>
      <path id="Path-63" data-name="Path" d="M8.3,2.581S5.075,7.93,4.838,9.947s1.114,3.7.973,4.963-1.578,2.631-3.016,4S-.827,21.539.322,22.714a22.641,22.641,0,0,0,3.043,2.394s.289,2.876.728,5.814c.474,3.139,2.341,9.856,3.858,10.032s9.277-.728,12.846-2.876,7.98-4.718,10.084-10.119S35.266,16.453,27.6,7.4,11.1-1.286,8.3,2.581Z" transform="translate(107.14 37.808)" fill="#fff" stroke="#263238" stroke-linecap="round" stroke-linejoin="round" stroke-miterlimit="10" stroke-width="0.978"/>
      <path id="Path-64" data-name="Path" d="M0,1.017A9.5,9.5,0,0,0,6.761,0S4.2,3.551,2.6,3.551,0,1.017,0,1.017Z" transform="translate(112.399 64.749)" fill="#fff" stroke="#263238" stroke-linecap="round" stroke-linejoin="round" stroke-miterlimit="10" stroke-width="0.978"/>
      <path id="Path-65" data-name="Path" d="M2.29,1.9c-.114.982-.71,1.754-1.342,1.64S-.1,2.662.019,1.645.729-.065,1.352,0,2.4.926,2.29,1.9Z" transform="translate(117.44 51.845)" fill="#263238"/>
      <path id="Path-66" data-name="Path" d="M0,1.443S2.113-1.381,6.2.873" transform="translate(116.152 47.812)" fill="none" stroke="#263238" stroke-linecap="round" stroke-linejoin="round" stroke-miterlimit="10" stroke-width="0.978"/>
      <path id="Path-67" data-name="Path" d="M8.137,0S6.716,19.248,3.384,28.323s-4.534,15.065-2.1,16.108,3.85-2.376,3.85-2.376,2.245,9.453,9.83,12.364,7.568-1.438,7.568-1.438,2.771,2.631,10.172.395S42.66,42.24,43.081,38.969a52.841,52.841,0,0,0,.105-7.655s-1.263,2.157-5.051,1.754S28.34,27.1,28.34,27.1s4.1,0,4.8.552-4.814-6.217-4.814-6.217S12.39.482,8.137,0Z" transform="translate(122.651 46.326)" fill="#ffb76f" stroke="#263238" stroke-linecap="round" stroke-linejoin="round" stroke-miterlimit="10" stroke-width="0.978"/>
      <path id="Path-68" data-name="Path" d="M2.518,0S-2.121,17.538,1.194,26.166" transform="translate(132.452 54.367)" fill="none" stroke="#263238" stroke-linecap="round" stroke-linejoin="round" stroke-miterlimit="10" stroke-width="0.978"/>
      <path id="Path-69" data-name="Path" d="M1.43,0S-2.542,19.221,2.754,29.814s16.564,6.954,17.538,6.62" transform="translate(137.846 57.708)" fill="none" stroke="#263238" stroke-linecap="round" stroke-linejoin="round" stroke-miterlimit="10" stroke-width="0.978"/>
      <path id="Path-70" data-name="Path" d="M.751,0A13.653,13.653,0,0,0,6.574,16.135" transform="translate(145.294 64.434)" fill="none" stroke="#263238" stroke-linecap="round" stroke-linejoin="round" stroke-miterlimit="10" stroke-width="0.978"/>
      <path id="Path-71" data-name="Path" d="M.158,6.691S6.41,1.921,9.242,1.105,23.676.693,25.561.228s7.594-.5,9.514,2.683.167,12.583.36,14.907S35.558,26.745,34.3,29.8s-2.447,5.437-2.447,5.437S25.938,24.965,17.091,18.467A117.818,117.818,0,0,0,0,8.076Z" transform="translate(120.852 27.245)" fill="#263238" stroke="#263238" stroke-linecap="round" stroke-linejoin="round" stroke-miterlimit="10" stroke-width="0.978"/>
      <path id="Path-72" data-name="Path" d="M.08,7.423s4.665-.877,9.207,3.332,18.5,18.1,21.4,20.712a16.354,16.354,0,0,0,4.884,3.3s2.762-4.253,2.946-5.831S29.683,14.219,22.879,7.739,7.34-.206,5.262.022-.6,5.292.08,7.423Z" transform="translate(115.362 32.966)" fill="#263238" stroke="#263238" stroke-linecap="round" stroke-linejoin="round" stroke-miterlimit="10" stroke-width="0.978"/>
    </g>
    <g id="freepik--character-1--inject-4" transform="translate(80.674 22.799)">
      <path id="Path-73" data-name="Path" d="M.455.011S4.077-.269,4.077,1.975.744,5.027.192,3.642.455.011.455.011Z" transform="translate(75.72 125.173)" fill="#999" stroke="#263238" stroke-miterlimit="10" stroke-width="0.978"/>
      <path id="Path-74" data-name="Path" d="M.47.011s3.6-.272,3.6,1.947S.742,5.009.189,3.623.47.011.47.011Z" transform="translate(76.003 122.14)" fill="#fff" stroke="#263238" stroke-miterlimit="10" stroke-width="0.978"/>
      <path id="Path-75" data-name="Path" d="M.47.011s3.6-.281,3.6,1.947S.742,5.01.189,3.624.47.011.47.011Z" transform="translate(76.696 119.017)" fill="#999" stroke="#263238" stroke-miterlimit="10" stroke-width="0.978"/>
      <path id="Path-76" data-name="Path" d="M.474.011s3.6-.272,3.6,1.947S.754,5.009.193,3.623.474.011.474.011Z" transform="translate(76.096 117.063)" fill="#999" stroke="#263238" stroke-miterlimit="10" stroke-width="0.978"/>
      <path id="Path-77" data-name="Path" d="M.272,9.866S0,13.417,0,15.057A19.441,19.441,0,0,0,.544,18.88H51.6s.272-3.008-2.736-6.007S36.312,7.41,33.857,7.41,23.483.86,22.115.045.272,9.866.272,9.866Z" transform="translate(1.561 298.044)" fill="#ffb76f" stroke="#263238" stroke-linecap="round" stroke-linejoin="round" stroke-miterlimit="10" stroke-width="0.978"/>
      <path id="Path-78" data-name="Path" d="M0,8.234c.158,1.017.36,1.833.36,1.833H51.421s.272-3.008-2.736-6.007C47.08,2.455,43.6,1.008,40.328,0a24.553,24.553,0,0,1-1.447,8.234Z" transform="translate(1.754 306.857)" fill="#fff" stroke="#263238" stroke-linecap="round" stroke-linejoin="round" stroke-miterlimit="10" stroke-width="0.978"/>
      <path id="Path-79" data-name="Path" d="M19.505,21.076S13.5,58.2,11.613,63.938,2.844,81.405,1.511,89.052-.672,101.328.7,104.888s.544,32.217.544,32.217S.143,145.3.424,147.75s.816,5.735.816,5.735a7.3,7.3,0,0,0,4.911.816c2.736-.544,7.646-4.1,7.646-4.1s7.892-4.1,9.286-6.007-.272-16.108-.272-22.659,2.727-35.759,4.639-39.854,7.646-19.66,11.47-38.5,6.62-27.508.816-39.048S20.321,7.422,19.505,21.076Z" transform="translate(0.076 155.521)" fill="#263238" stroke="#263238" stroke-linecap="round" stroke-linejoin="round" stroke-miterlimit="10" stroke-width="0.978"/>
      <path id="Path-80" data-name="Path" d="M21.827,0S32.99,5.437,36.3,6.559,46.126,8.743,48.038,11.2s1.1,6.279,1.1,6.279H1.08A16.328,16.328,0,0,1,.265,8.707C1.08,3.551,21.827,0,21.827,0Z" transform="translate(10.854 299.72)" fill="#ffb76f" stroke="#263238" stroke-linecap="round" stroke-linejoin="round" stroke-miterlimit="10" stroke-width="0.978"/>
      <path id="Path-81" data-name="Path" d="M.605,10.435H48.658s.816-3.823-1.1-6.279c-1.631-2.1-6.629-3.2-10.1-4.156V8.523H0a11.4,11.4,0,0,0,.605,1.912Z" transform="translate(11.329 306.761)" fill="#fff" stroke="#263238" stroke-linecap="round" stroke-linejoin="round" stroke-miterlimit="10" stroke-width="0.978"/>
      <path id="Path-82" data-name="Path" d="M4.527,1.438S1.9,12.7,3.5,18.844,8.385,32.4,9.849,34.4s1.228,26.21,1.026,34.2S4.737,90.1,1.458,98.9s0,22.527,0,30.507-.21,12.9,0,17.617.614,9.646.614,9.646a27.867,27.867,0,0,0-.614,3.893A3.493,3.493,0,0,0,3.5,163.837a21.448,21.448,0,0,1,.21,3.28,5.831,5.831,0,0,0,1.228,3.508s12.276-4.919,15.556-6.761,7.173-3.885,7.173-3.885a36.3,36.3,0,0,1,.2-6.349c.412-1.841-2.631-5.323-2.631-5.323s.21-11.058.412-15.363S34.016,99.921,36.445,83.55,44.022,46.484,45.214,34.2s.614-30.691.614-31.331S16.549,2.052,13.883,1.64,5.281,0,5.281,0Z" transform="translate(6.522 140.346)" fill="#263238" stroke="#263238" stroke-linecap="round" stroke-linejoin="round" stroke-miterlimit="10" stroke-width="0.978"/>
      <path id="Path-83" data-name="Path" d="M0,0,15.363,1.841l.2,8.8-14.328.614L0,0Z" transform="translate(52.201 116.801)" fill="#999" stroke="#263238" stroke-miterlimit="10" stroke-width="0.978"/>
      <path id="Path-84" data-name="Path" d="M17.833,0s-3.683,1.841-4.3,4.507S3.295,17.406,1.26,24.57.033,45.87,1.05,52.008,3.68,70.423,3.3,75.351.848,87.434,2.076,89.89s14.749,4.1,24.369,3.893,18.415,1.429,20.274-2.052.816-12.487.2-19.449-5.77-35.628-7.173-43.239-4.709-12.9-7.576-17.406S21.525.412,17.833,0Z" transform="translate(7.956 52.508)" fill="#fb7d00" stroke="#263238" stroke-linecap="round" stroke-linejoin="round" stroke-miterlimit="10" stroke-width="0.978"/>
      <path id="Path-85" data-name="Path" d="M36.86,8.24s4.6,4.025,6.138,8.234.193,8.05,1.535,9.97,3.639,3.253,4.025,5.367-2.683,3.06-2.683,3.06v2.49s1.149.386,1.149,1.157a4.279,4.279,0,0,1-.956,1.912,3.06,3.06,0,0,1,.193,2.3,2.631,2.631,0,0,1-1.535,1.754,10.777,10.777,0,0,1-1.342,4.384c-1.149,1.754-4.595,2.683-7.278,2.683S29.012,49.8,29.012,49.8s-2.49,5.559-2.49,9.006.193,10.347.193,10.347-8.629-7.471-10.733-9.769a34.751,34.751,0,0,0-4.788-4.218s1.754-6.322.763-11.119S3.529,35.993,1.03,28.522.46,10.7,8.124,5.53,25.565-.415,30.353.163,41.647,5.556,36.86,8.24Z" transform="translate(14.315 0.029)" fill="#999" stroke="#263238" stroke-linecap="round" stroke-linejoin="round" stroke-miterlimit="10" stroke-width="0.978"/>
      <path id="Path-86" data-name="Path" d="M36.865,8.21C41.652,5.527,35.111.73,30.349.16S15.784.353,8.12,5.527-1.464,21.048,1.026,28.519c2.2,6.594,8.26,9.9,10.33,13.881,3.1-.623,3.253-2.964,2.894-5.638-.377-2.876,1.342-5.945,3.262-6.322s4.218-1.754,3.832-3.455-1.149-4.025.763-5.744,4.025-3.648,3.455-6.9-3.455-3.832.377-5.559S36.865,8.21,36.865,8.21Z" transform="translate(14.31 0.059)" fill="#263238" stroke="#263238" stroke-linecap="round" stroke-linejoin="round" stroke-miterlimit="10" stroke-width="0.978"/>
      <path id="Path-87" data-name="Path" d="M12.076.666S6.9-1.255,0,1.428c0,0-.193,7.892,4.6,8.05S13.225,8.558,12.076.666Z" transform="translate(45.615 22.133)" fill="none" stroke="#263238" stroke-linecap="round" stroke-linejoin="round" stroke-miterlimit="10" stroke-width="0.978"/>
      <path id="Path-88" data-name="Path" d="M0,0S3.446,0,3.832.57s.772,3.446-.386,4.6" transform="translate(57.69 22.799)" fill="none" stroke="#263238" stroke-linecap="round" stroke-linejoin="round" stroke-miterlimit="10" stroke-width="0.978"/>
      <path id="Path-89" data-name="Path" d="M16.477,0,0,5.752l.193.763L9.2,3.446l1.535.386,5.779-1.28L16.477,0Z" transform="translate(29.139 23.597)" fill="#263238" stroke="#263238" stroke-linecap="round" stroke-linejoin="round" stroke-miterlimit="10" stroke-width="0.978"/>
      <path id="Path-90" data-name="Path" d="M8.515,4.026A5.454,5.454,0,0,0,3.149,0C-1.236,0-.113,5.946,1.035,8.437S5.253,13.8,8.322,11.506" transform="translate(24.806 28.191)" fill="#999" stroke="#263238" stroke-linecap="round" stroke-linejoin="round" stroke-miterlimit="10" stroke-width="0.978"/>
      <path id="Path-91" data-name="Path" d="M0,1.663A8.646,8.646,0,0,1,5.735.023" transform="translate(48.518 19.926)" fill="none" stroke="#263238" stroke-linecap="round" stroke-linejoin="round" stroke-miterlimit="10" stroke-width="0.978"/>
      <path id="Path-92" data-name="Path" d="M4.469,2.052S2.435,4.1.962,2.455.146,0,.146,0" transform="translate(55.711 32.848)" fill="none" stroke="#263238" stroke-linecap="round" stroke-linejoin="round" stroke-miterlimit="10" stroke-width="0.978"/>
      <path id="Path-93" data-name="Path" d="M0,.368A5.1,5.1,0,0,0,2.859,4.051C5.489,5.489,8.322,3.6,8.357,2.3A10.128,10.128,0,0,0,8.164,0,15.381,15.381,0,0,1,0,.368Z" transform="translate(52.21 40.468)" fill="#787878" stroke="#263238" stroke-linecap="round" stroke-linejoin="round" stroke-miterlimit="10" stroke-width="0.978"/>
      <path id="Path-94" data-name="Path" d="M10.356,1.157C10.356.386,9.207,0,9.207,0A40.337,40.337,0,0,1,5.331,2.008,11.4,11.4,0,0,1,0,2.622,27.324,27.324,0,0,0,4.507,4.06,6.594,6.594,0,0,0,9.4,3.069a4.279,4.279,0,0,0,.956-1.912Z" transform="translate(50.973 37.425)" fill="#595959" stroke="#263238" stroke-linecap="round" stroke-linejoin="round" stroke-miterlimit="10" stroke-width="0.978"/>
      <path id="Path-95" data-name="Path" d="M0,.745A11.68,11.68,0,0,1,3.692.132" transform="translate(50.36 25.351)" fill="none" stroke="#263238" stroke-linecap="round" stroke-linejoin="round" stroke-miterlimit="10" stroke-width="1.955"/>
      <path id="Path-96" data-name="Path" d="M0,9.014s12.276,14.74,14.749,17.608a43.844,43.844,0,0,1,4.3,6.138L21.1,35.83l4.3-8.593a53.49,53.49,0,0,1-2.631-6.962C21.335,15.766,15.4,0,15.4,0S9.216,9.014,0,9.014Z" transform="translate(11.25 127.859)" fill="#999" stroke="#263238" stroke-linecap="round" stroke-linejoin="round" stroke-miterlimit="10" stroke-width="0.978"/>
      <path id="Path-97" data-name="Path" d="M24.429.453a8.392,8.392,0,0,0-9.216,2.631A23.187,23.187,0,0,0,9.074,16.193C8.46,20.7.472,44.446.06,49.356A13.21,13.21,0,0,0,1.5,57.143a3.244,3.244,0,0,0,.412,4.1c1.841,2.254,2.631,2.455,2.631,2.455a3.806,3.806,0,0,0,1.666,2.262c1.228.614,7.576-.614,12.083-3.069s5.323-4.919,5.323-6.962A7.892,7.892,0,0,0,23,52.645a6.261,6.261,0,0,1,0-2.254c.2-1.429-1.438-4.5-1.438-4.5S32.829,23.164,32.619,15.377" transform="translate(4.842 71.715)" fill="#fb7d00" stroke="#263238" stroke-linecap="round" stroke-linejoin="round" stroke-miterlimit="10" stroke-width="0.978"/>
      <path id="Path-98" data-name="Path" d="M7.755,14.13a.816.816,0,0,1-.816-.754l-.535-6.34L.267,1.424a.819.819,0,1,1,1.1-1.21L7.755,6.046a.807.807,0,0,1,.263.535l.561,6.664a.877.877,0,0,1-.754.877Z" transform="translate(63.395 98.365)" fill="#fff" stroke="#263238" stroke-miterlimit="10" stroke-width="0.978"/>
      <path id="Path-99" data-name="Path" d="M12.917,22.755H2.034L0,0H14.96L12.917,22.755Z" transform="translate(63.601 111.952)" fill="#fb7d00" stroke="#263238" stroke-linecap="round" stroke-linejoin="round" stroke-miterlimit="10" stroke-width="0.978"/>
      <rect id="Rectangle" width="16.652" height="4.165" transform="translate(62.75 110.567)" fill="#fff" stroke="#263238" stroke-linecap="round" stroke-linejoin="round" stroke-miterlimit="10" stroke-width="0.978"/>
      <path id="Path-100" data-name="Path" d="M3.332.014S0-.267,0,1.68.552,8.616,2.771,8.9,4.165,3.9,3.332.014Z" transform="translate(60.602 116.936)" fill="#999" stroke="#263238" stroke-miterlimit="10" stroke-width="0.978"/>
    </g>
    <g id="freepik--Floor--inject-4" transform="translate(27.183 339.355)">
      <path id="Path-101" data-name="Path" d="M0,.489H348.124" transform="translate(0 0.225)" fill="none" stroke="#263238" stroke-linecap="round" stroke-linejoin="round" stroke-miterlimit="10" stroke-width="0.978"/>
    </g>
  </g>
</svg>
