<svg xmlns="http://www.w3.org/2000/svg" width="460.871" height="398.992" viewBox="0 0 460.871 398.992">
  <g id="Messaging_fun-bro" data-name="Messaging fun-bro" transform="translate(-0.498 -0.011)">
    <g id="freepik--background-simple--inject-60">
      <path id="Path" d="M366.67,23.085C336.148,5.37,298.394-3.67,262.631,1.4c-21.277,3.013-41.08,12.807-57.8,26.066-39.713,31.48-66.63,74.529-113.683,97.109-27.347,13.119-55.964,19.932-73.517,46.6-35,53.08-14.389,127,31.211,167.021,48.969,42.942,119.591,56.061,182.734,46.956,103.577-14.938,181.3-109.776,192.269-211.577,4.165-38.744,3.229-83.182-19.372-116.588C395.395,43.544,382.189,32.1,366.67,23.085Z" transform="translate(0.498 0.011)" fill="#f9fbff"/>
    </g>
    <g id="freepik--Shadow--inject-60" transform="translate(27.803 332.556)">
      <ellipse id="Oval" cx="193.162" cy="33.083" rx="193.162" ry="33.083" transform="translate(0.05 0.28)" fill="#ffb76f" opacity="0.201"/>
    </g>
    <g id="freepik--Floor--inject-60" transform="translate(10.762 135.426)">
      <path id="Path-2" data-name="Path" d="M0,.538H420.893" transform="translate(0.161 197.851)" fill="none" stroke="#263238" stroke-linecap="round" stroke-linejoin="round" stroke-miterlimit="10" stroke-width="1.076"/>
      <path id="Path-3" data-name="Path" d="M0,.538H142.493" transform="translate(14.981 139.831)" fill="none" stroke="#263238" stroke-linecap="round" stroke-linejoin="round" stroke-miterlimit="10" stroke-width="1.076"/>
      <rect id="Rectangle" width="121.991" height="23.365" transform="translate(30.813 144.341)" fill="none" stroke="#263238" stroke-linecap="round" stroke-linejoin="round" stroke-miterlimit="10" stroke-width="1.076"/>
      <rect id="Rectangle-2" data-name="Rectangle" width="121.991" height="23.365" transform="translate(30.813 171.677)" fill="none" stroke="#263238" stroke-linecap="round" stroke-linejoin="round" stroke-miterlimit="10" stroke-width="1.076"/>
      <path id="Path-4" data-name="Path" d="M5.36,2.691a2.68,2.68,0,1,1-.781-1.9A2.68,2.68,0,0,1,5.36,2.691Z" transform="translate(89.134 153.338)" fill="none" stroke="#263238" stroke-linecap="round" stroke-linejoin="round" stroke-miterlimit="10" stroke-width="1.076"/>
      <path id="Path-5" data-name="Path" d="M5.36,2.68A2.68,2.68,0,1,1,4.575.785,2.68,2.68,0,0,1,5.36,2.68Z" transform="translate(89.134 180.674)" fill="none" stroke="#263238" stroke-linecap="round" stroke-linejoin="round" stroke-miterlimit="10" stroke-width="1.076"/>
      <rect id="Rectangle-3" data-name="Rectangle" width="13.733" height="58.676" transform="translate(13.959 139.81)" fill="#263238"/>
      <path id="Path-6" data-name="Path" d="M.538,58.127V0" transform="translate(156.936 140.37)" fill="none" stroke="#263238" stroke-linecap="round" stroke-linejoin="round" stroke-miterlimit="10" stroke-width="1.076"/>
      <path id="Path-7" data-name="Path" d="M0,.538H142.945" transform="translate(14.529 197.959)" fill="none" stroke="#263238" stroke-linecap="round" stroke-linejoin="round" stroke-miterlimit="10" stroke-width="1.076"/>
      <g id="freepik--Plant--inject-226--inject-60" transform="translate(314.26)">
        <path id="Path-8" data-name="Path" d="M17.874,21.159s0-4.6-6.457-11.042S.87,0,.87,0-2.359,10.547,3.625,16.994a111.014,111.014,0,0,0,14.26,12.42Z" transform="translate(37.562 0.136)" fill="#dee8fb"/>
        <path id="Path-9" data-name="Path" d="M17.874,21.148s0-4.6-6.457-11.031S.87,0,.87,0-2.359,10.547,3.625,16.994A111.455,111.455,0,0,0,17.9,29.435Z" transform="translate(28.221 28.861)" fill="#dee8fb"/>
        <path id="Path-10" data-name="Path" d="M.883,19.254S1.356,14.68,8.416,8.965,20.029,0,20.029,0s2.088,10.859-4.542,16.628A114.49,114.49,0,0,1,0,27.5Z" transform="translate(54.156 9.865)" fill="#dee8fb"/>
        <path id="Path-11" data-name="Path" d="M1.776,17.123s.958-4.5,8.61-9.449S22.848,0,22.848,0s.936,11.021-6.264,16.057A112.725,112.725,0,0,1,0,25.216Z" transform="translate(41.973 45.919)" fill="#dee8fb"/>
        <path id="Path-12" data-name="Path" d="M0,21.159s0-4.6,6.457-11.042S17.037,0,17.037,0s3.229,10.547-2.766,16.994A112.628,112.628,0,0,1,.011,29.446Z" transform="translate(45.869 78.863)" fill="#dee8fb"/>
        <path id="Path-13" data-name="Path" d="M15.832,23.354s.657-4.552-4.811-11.839S1.991,0,1.991,0-2.69,10.009,2.3,17.22A113.457,113.457,0,0,0,14.658,31.544Z" transform="translate(29.93 85.686)" fill="#dee8fb"/>
        <path id="Path-14" data-name="Path" d="M0,21.159s0-4.606,6.457-11.042S17,0,17,0s3.229,10.558-2.755,17A112.553,112.553,0,0,1,.011,29.424Z" transform="translate(39.412 114.626)" fill="#dee8fb"/>
        <path id="Path-15" data-name="Path" d="M.131,24.775s-1.162-4.445,3.444-12.3S11.237,0,11.237,0s5.79,9.417,1.636,17.155A112.047,112.047,0,0,1,2.229,32.8Z" transform="translate(43.575 135.268)" fill="#dee8fb"/>
        <path id="Path-16" data-name="Path" d="M16.909,0a130,130,0,0,1-1.754,14.282C12.6,27.422,6.243,35.914,3.7,47.785S8.46,74.96,6.5,90.221-1.4,113.984.3,124.133s10.6,37.743,10.6,37.743" transform="translate(39.109 20.111)" fill="none" stroke="#dee8fb" stroke-linecap="round" stroke-linejoin="round" stroke-miterlimit="10" stroke-width="1.076"/>
        <path id="Path-17" data-name="Path" d="M.026,15.153s-.5-2.884,2.841-7.62S8.4,0,8.4,0s3.164,6.274.108,10.967A72.721,72.721,0,0,1,.9,20.3Z" transform="translate(13.255 67.573)" fill="#dee8fb"/>
        <path id="Path-18" data-name="Path" d="M.027,15.153s-.506-2.884,2.841-7.62S8.4,0,8.4,0s3.164,6.285.118,10.967A71.9,71.9,0,0,1,.9,20.3Z" transform="translate(22.229 84.567)" fill="#dee8fb"/>
        <path id="Path-19" data-name="Path" d="M14.067,9.934S13.27,7.125,8.212,4.3,0,0,0,0-.129,7.028,4.66,9.923a71.15,71.15,0,0,0,10.881,5.123Z" transform="translate(0.312 77.657)" fill="#dee8fb"/>
        <path id="Path-20" data-name="Path" d="M15.067,8.459S13.991,5.736,8.61,3.465,0,0,0,0,.581,7.039,5.661,9.385a72.183,72.183,0,0,0,11.376,3.939Z" transform="translate(10.074 99.182)" fill="#dee8fb"/>
        <path id="Path-21" data-name="Path" d="M13.038,11.419S12.532,8.535,7.8,5.2.069,0,.069,0-.8,6.985,3.642,10.375a73.593,73.593,0,0,0,10.289,6.242Z" transform="translate(14.794 119.63)" fill="#dee8fb"/>
        <path id="Path-22" data-name="Path" d="M.147,16.154s-.893-2.777,1.722-7.943S6.282,0,6.282,0s4.025,5.769,1.679,10.838A71.117,71.117,0,0,1,1.772,21.17Z" transform="translate(28.728 120.545)" fill="#dee8fb"/>
        <path id="Path-23" data-name="Path" d="M.6,12.1S.936,9.17,5.467,5.639,12.893,0,12.893,0s1.27,6.92-2.981,10.558A72.56,72.56,0,0,1,0,17.37Z" transform="translate(36.355 147.86)" fill="#dee8fb"/>
        <path id="Path-24" data-name="Path" d="M13.027,11.419S12.532,8.535,7.8,5.2.069,0,.069,0-.8,6.974,3.642,10.364a71.591,71.591,0,0,0,10.289,6.242Z" transform="translate(22.725 141.37)" fill="#dee8fb"/>
        <path id="Path-25" data-name="Path" d="M10.6,14.325s.248-2.927-3.519-7.351S.946,0,.946,0s-2.6,6.522.829,10.935a72.269,72.269,0,0,0,8.384,8.61Z" transform="translate(25.099 154.135)" fill="#dee8fb"/>
        <path id="Path-26" data-name="Path" d="M0,0A83.5,83.5,0,0,0,2.658,8.793c3.024,7.964,7.932,12.6,10.762,19.77s0,17.575,2.841,26.906S23.8,69.46,23.8,76.068s-2.561,24.818-2.561,24.818" transform="translate(12.786 82.048)" fill="none" stroke="#dee8fb" stroke-linecap="round" stroke-linejoin="round" stroke-miterlimit="10" stroke-width="1.076"/>
        <path id="Path-27" data-name="Path" d="M0,0H42.145V15.519a2.056,2.056,0,0,1-2.056,2.056h-38A2.056,2.056,0,0,1,.032,15.519V0Z" transform="translate(20.943 179.727)" fill="#dee8fb" stroke="#dee8fb" stroke-linecap="round" stroke-linejoin="round" stroke-miterlimit="10" stroke-width="1.076"/>
        <path id="Path-28" data-name="Path" d="M45.051,6.576H3.3A3.3,3.3,0,0,1,0,3.283H0A3.3,3.3,0,0,1,3.3,0H45.051a3.293,3.293,0,0,1,3.293,3.293h0a3.293,3.293,0,0,1-3.293,3.283Z" transform="translate(17.672 178.64)" fill="#dee8fb" stroke="#dee8fb" stroke-linecap="round" stroke-linejoin="round" stroke-miterlimit="10" stroke-width="1.076"/>
        <path id="Path-29" data-name="Path" d="M0,.538H30.307" transform="translate(22.633 184.818)" fill="none" stroke="#dee8fb" stroke-linecap="round" stroke-linejoin="round" stroke-miterlimit="10" stroke-width="1.076"/>
        <path id="Path-30" data-name="Path" d="M0,.538H4.994" transform="translate(55.792 184.818)" fill="none" stroke="#dee8fb" stroke-linecap="round" stroke-linejoin="round" stroke-miterlimit="10" stroke-width="1.076"/>
        <path id="Path-31" data-name="Path" d="M17.874,21.159s0-4.6-6.457-11.042S.87,0,.87,0-2.359,10.547,3.625,16.994a111.014,111.014,0,0,0,14.26,12.42Z" transform="translate(37.562 0.136)" fill="#dee8fb"/>
        <path id="Path-32" data-name="Path" d="M17.874,21.148s0-4.6-6.457-11.031S.87,0,.87,0-2.359,10.547,3.625,16.994A111.455,111.455,0,0,0,17.9,29.435Z" transform="translate(28.221 28.861)" fill="#dee8fb"/>
        <path id="Path-33" data-name="Path" d="M.883,19.254S1.356,14.68,8.416,8.965,20.029,0,20.029,0s2.088,10.859-4.542,16.628A114.49,114.49,0,0,1,0,27.5Z" transform="translate(54.156 9.865)" fill="#dee8fb"/>
        <path id="Path-34" data-name="Path" d="M1.776,17.123s.958-4.5,8.61-9.449S22.848,0,22.848,0s.936,11.021-6.264,16.057A112.725,112.725,0,0,1,0,25.216Z" transform="translate(41.973 45.919)" fill="#dee8fb"/>
        <path id="Path-35" data-name="Path" d="M0,21.159s0-4.6,6.457-11.042S17.037,0,17.037,0s3.229,10.547-2.766,16.994A112.628,112.628,0,0,1,.011,29.446Z" transform="translate(45.869 78.863)" fill="#dee8fb"/>
        <path id="Path-36" data-name="Path" d="M0,21.159s0-4.606,6.457-11.042S17,0,17,0s3.229,10.558-2.755,17A112.553,112.553,0,0,1,.011,29.424Z" transform="translate(39.412 114.626)" fill="#dee8fb"/>
        <path id="Path-37" data-name="Path" d="M.026,15.153s-.5-2.884,2.841-7.62S8.4,0,8.4,0s3.164,6.274.108,10.967A72.721,72.721,0,0,1,.9,20.3Z" transform="translate(13.255 67.573)" fill="#dee8fb"/>
        <path id="Path-38" data-name="Path" d="M18.726,12.592C13.269,5.306,9.7,1.076,9.7,1.076s-.194.43-.452,1.141A14.518,14.518,0,0,0,8.4,0S6.252,2.755,2.873,7.534.031,15.153.031,15.153L.9,20.341a72.108,72.108,0,0,0,6.9-8.33,13.141,13.141,0,0,0,2.206,6.339A113.456,113.456,0,0,0,22.363,32.674l1.173-8.2S24.193,19.878,18.726,12.592Z" transform="translate(22.225 84.61)" fill="#dee8fb"/>
        <path id="Path-39" data-name="Path" d="M14.067,9.934S13.27,7.125,8.212,4.3,0,0,0,0-.129,7.028,4.66,9.923a71.15,71.15,0,0,0,10.881,5.123Z" transform="translate(0.312 77.657)" fill="#dee8fb"/>
        <path id="Path-40" data-name="Path" d="M15.067,8.459S13.991,5.736,8.61,3.465,0,0,0,0,.581,7.039,5.661,9.385a72.183,72.183,0,0,0,11.376,3.939Z" transform="translate(10.074 99.182)" fill="#dee8fb"/>
        <path id="Path-41" data-name="Path" d="M13.038,11.419S12.532,8.535,7.8,5.2.069,0,.069,0-.8,6.985,3.642,10.375a73.593,73.593,0,0,0,10.289,6.242Z" transform="translate(14.794 119.63)" fill="#dee8fb"/>
        <path id="Path-42" data-name="Path" d="M.147,16.154s-.893-2.777,1.722-7.943S6.282,0,6.282,0s4.025,5.769,1.679,10.838A71.117,71.117,0,0,1,1.772,21.17Z" transform="translate(28.728 120.545)" fill="#dee8fb"/>
        <path id="Path-43" data-name="Path" d="M18.457,0S15.4,4.606,10.795,12.474a23,23,0,0,0-1.431,2.7q-1.647,1.238-3.9,3.013C.936,21.761.6,24.646.6,24.646L0,29.876A72.312,72.312,0,0,0,7.426,25l2.023,7.738A112.047,112.047,0,0,0,20.093,17.112C24.248,9.417,18.457,0,18.457,0Z" transform="translate(36.355 135.268)" fill="#dee8fb"/>
        <path id="Path-44" data-name="Path" d="M13.027,11.419S12.532,8.535,7.8,5.2.069,0,.069,0-.8,6.974,3.642,10.364a71.591,71.591,0,0,0,10.289,6.242Z" transform="translate(22.725 141.37)" fill="#dee8fb"/>
        <path id="Path-45" data-name="Path" d="M10.6,14.325s.248-2.927-3.519-7.351S.946,0,.946,0s-2.6,6.522.829,10.935a72.269,72.269,0,0,0,8.384,8.61Z" transform="translate(25.099 154.135)" fill="#dee8fb"/>
      </g>
    </g>
    <g id="freepik--Chat--inject-60" transform="translate(30.135 60.269)">
      <path id="Path-46" data-name="Path" d="M160.994,134.109l-14.206-5.769v39.465a10.224,10.224,0,0,1-10.235,10.224H10.224A10.224,10.224,0,0,1,0,167.806V10.235A10.224,10.224,0,0,1,10.224,0H136.552a10.235,10.235,0,0,1,10.235,10.235V111.229Z" transform="translate(0.829 0.527)" fill="#fff" stroke="#263238" stroke-linecap="round" stroke-linejoin="round" stroke-miterlimit="10" stroke-width="1.076"/>
      <path id="Path-47" data-name="Path" d="M0,30.673l5.317-7.437V0H90.2V42.694H5.317V31.071L0,30.673Z" transform="translate(13.754 13.152)" fill="#dee8fb" stroke="#263238" stroke-miterlimit="10" stroke-width="1.076"/>
      <circle id="Oval-2" data-name="Oval" cx="14.228" cy="14.228" r="14.228" transform="translate(47.978 20.276)" fill="#fff"/>
      <path id="Path-48" data-name="Path" d="M0,16.176V0L10.235,8.083,0,16.176Z" transform="translate(59.602 26.335)" fill="#f97d00" stroke="#263238" stroke-linecap="round" stroke-linejoin="round" stroke-miterlimit="10" stroke-width="1.076"/>
      <path id="Path-49" data-name="Path" d="M90.2,19.039l-5.327-4.617V0H0V26.508H84.872V19.3l5.327-.258Z" transform="translate(46.881 135.186)" fill="#f97d00" stroke="#263238" stroke-linecap="round" stroke-linejoin="round" stroke-miterlimit="10" stroke-width="1.076"/>
      <path id="Path-50" data-name="Path" d="M8.631,0V9.686h-1.8V5.521H1.8V9.686H0V0H1.8V4.014H6.834V0Z" transform="translate(69.503 143.322)" fill="#fff"/>
      <path id="Shape" d="M2.766,7.6C1.066,7.6,0,6.665,0,5.374S.829,3.168,3.078,3.168H4.962V3.06c0-1.012-.6-1.615-1.84-1.615a3.685,3.685,0,0,0-2.249.732L.194.918A5.172,5.172,0,0,1,3.326,0C5.5.047,6.737,1.058,6.737,3.2v4.3H5.09V6.6A2.612,2.612,0,0,1,3.025,7.614Q2.9,7.614,2.766,7.6Z" transform="translate(80.061 145.503)" fill="#fff"/>
      <path id="Path-51" data-name="Path" d="M7.3,6.059V10.31H5.564V6.274c0-1.313-.646-1.948-1.765-1.948A1.959,1.959,0,0,0,1.733,6.554V10.31H0V0H1.733V3.756a3.3,3.3,0,0,1,2.475-.947A2.9,2.9,0,0,1,7.3,6.059Z" transform="translate(89.026 142.741)" fill="#fff"/>
      <path id="Shape-2" data-name="Shape" d="M2.766,7.6C1.066,7.6,0,6.665,0,5.374S.84,3.168,3.089,3.168H5V3.06c0-1.012-.614-1.615-1.851-1.615A3.732,3.732,0,0,0,.9,2.177L.226.918A5.172,5.172,0,0,1,3.358,0C5.5.047,6.737,1.058,6.737,3.2v4.3H5.1V6.6A2.646,2.646,0,0,1,3.019,7.614Q2.893,7.614,2.766,7.6Z" transform="translate(98.013 145.503)" fill="#fff"/>
      <path id="Path-52" data-name="Path" d="M7.308,6.059V10.31H5.564V6.274c0-1.313-.646-1.948-1.765-1.948A1.97,1.97,0,0,0,1.733,6.554V10.31H0V0H1.722V3.756A3.3,3.3,0,0,1,4.2,2.809a2.9,2.9,0,0,1,3.11,3.25Z" transform="translate(106.978 142.741)" fill="#fff"/>
      <path id="Path-53" data-name="Path" d="M90.2,19.039l-5.327-4.617V0H0V26.5H84.872V19.286l5.327-.248Z" transform="translate(46.881 100.499)" fill="#f97d00" stroke="#263238" stroke-linecap="round" stroke-linejoin="round" stroke-miterlimit="10" stroke-width="1.076"/>
      <circle id="Oval-3" data-name="Oval" cx="9.396" cy="9.396" r="9.396" transform="translate(82.579 104.352)" fill="#fff" stroke="#263238" stroke-linecap="round" stroke-linejoin="round" stroke-miterlimit="10" stroke-width="1.076"/>
      <circle id="Oval-4" data-name="Oval" cx="9.396" cy="9.396" r="9.396" transform="translate(56.674 104.352)" fill="#fff" stroke="#263238" stroke-linecap="round" stroke-linejoin="round" stroke-miterlimit="10" stroke-width="1.076"/>
      <circle id="Oval-5" data-name="Oval" cx="9.396" cy="9.396" r="9.396" transform="translate(107.365 104.352)" fill="#fff" stroke="#263238" stroke-linecap="round" stroke-linejoin="round" stroke-miterlimit="10" stroke-width="1.076"/>
      <path id="Path-54" data-name="Path" d="M1.033,0,3.605,3.2H0" transform="translate(59.903 108.517)" fill="none" stroke="#263238" stroke-linecap="round" stroke-linejoin="round" stroke-miterlimit="10" stroke-width="1.076"/>
      <path id="Path-55" data-name="Path" d="M2.583,0,0,3.2H3.616" transform="translate(67.77 108.517)" fill="none" stroke="#263238" stroke-linecap="round" stroke-linejoin="round" stroke-miterlimit="10" stroke-width="1.076"/>
      <path id="Path-56" data-name="Path" d="M0,0H13.1S11.623,6.6,6.791,6.6C1.3,6.6,0,0,0,0Z" transform="translate(59.279 114.296)" fill="#f97d00" stroke="#263238" stroke-linecap="round" stroke-linejoin="round" stroke-miterlimit="10" stroke-width="1.076"/>
      <path id="Path-57" data-name="Path" d="M1.033,0,3.616,3.2H0" transform="translate(86.045 108.517)" fill="none" stroke="#263238" stroke-linecap="round" stroke-linejoin="round" stroke-miterlimit="10" stroke-width="1.076"/>
      <path id="Path-58" data-name="Path" d="M2.583,0,0,3.2H3.616" transform="translate(93.923 108.517)" fill="none" stroke="#263238" stroke-linecap="round" stroke-linejoin="round" stroke-miterlimit="10" stroke-width="1.076"/>
      <path id="Path-59" data-name="Path" d="M0,0H13.1S11.613,6.6,6.791,6.6C1.291,6.6,0,0,0,0Z" transform="translate(85.431 114.296)" fill="#f97d00" stroke="#263238" stroke-linecap="round" stroke-linejoin="round" stroke-miterlimit="10" stroke-width="1.076"/>
      <path id="Path-60" data-name="Path" d="M1.033,0,3.616,3.2H0" transform="translate(110.83 108.517)" fill="none" stroke="#263238" stroke-linecap="round" stroke-linejoin="round" stroke-miterlimit="10" stroke-width="1.076"/>
      <path id="Path-61" data-name="Path" d="M2.572,0,0,3.2H3.605" transform="translate(118.709 108.517)" fill="none" stroke="#263238" stroke-linecap="round" stroke-linejoin="round" stroke-miterlimit="10" stroke-width="1.076"/>
      <path id="Path-62" data-name="Path" d="M0,0H13.1S11.613,6.6,6.78,6.6C1.291,6.6,0,0,0,0Z" transform="translate(110.217 114.296)" fill="#f97d00" stroke="#263238" stroke-linecap="round" stroke-linejoin="round" stroke-miterlimit="10" stroke-width="1.076"/>
      <path id="Path-63" data-name="Path" d="M0,19.039l5.317-4.617V0H90.2V26.508H5.317V19.3L0,19.039Z" transform="translate(13.754 65.187)" fill="#dee8fb" stroke="#263238" stroke-linecap="round" stroke-linejoin="round" stroke-miterlimit="10" stroke-width="1.076"/>
      <path id="Path-64" data-name="Path" d="M0,0H1.808V8.19h5.08V9.718H0Z" transform="translate(57.439 73.248)" fill="#263238"/>
      <path id="Shape-3" data-name="Shape" d="M1.139,6.855A3.738,3.738,0,0,1,0,4.09,3.95,3.95,0,1,1,3.941,7.9q-.1.006-.207.006A3.735,3.735,0,0,1,1.139,6.855Z" transform="translate(64.916 75.164)" fill="#263238"/>
      <path id="Shape-4" data-name="Shape" d="M1.144,6.881A3.737,3.737,0,0,1,0,4.111a3.961,3.961,0,1,1,3.95,3.81q-.108.006-.216.006A3.734,3.734,0,0,1,1.144,6.881Z" transform="translate(73.87 75.143)" fill="#263238"/>
      <path id="Path-65" data-name="Path" d="M3.024,7.125,1.733,8.352V10.31H0V0H1.733V6.231L5.338,2.9H7.415l-3.1,3.11,3.39,4.3H5.553Z" transform="translate(83.451 72.657)" fill="#263238"/>
      <path id="Shape-5" data-name="Shape" d="M0,8.728A1.076,1.076,0,1,1,1.076,9.8,1.076,1.076,0,0,1,0,8.728ZM.43,6.457.1,0H2.153L1.8,6.457Z" transform="translate(91.975 73.248)" fill="#263238"/>
      <circle id="Oval-6" data-name="Oval" cx="9.396" cy="9.396" r="9.396" transform="translate(30.619 69.449)" fill="#fff" stroke="#263238" stroke-linecap="round" stroke-linejoin="round" stroke-miterlimit="10" stroke-width="1.076"/>
      <path id="Path-66" data-name="Path" d="M.969,0,3.412,3.024H0" transform="translate(34.407 73.7)" fill="none" stroke="#263238" stroke-linecap="round" stroke-linejoin="round" stroke-miterlimit="10" stroke-width="1.076"/>
      <path id="Path-67" data-name="Path" d="M2.443,0,0,3.024H3.422" transform="translate(41.855 73.7)" fill="none" stroke="#263238" stroke-linecap="round" stroke-linejoin="round" stroke-miterlimit="10" stroke-width="1.076"/>
      <path id="Path-68" data-name="Path" d="M0,0H12.4S11,6.253,6.425,6.253C1.227,6.253,0,0,0,0Z" transform="translate(33.815 79.168)" fill="#f97d00" stroke="#263238" stroke-linecap="round" stroke-linejoin="round" stroke-miterlimit="10" stroke-width="1.076"/>
    </g>
    <g id="freepik--Window--inject-60" transform="translate(187.265 10.762)">
      <path id="Path-69" data-name="Path" d="M.538,0V165.675" transform="translate(18.361 0.839)" fill="none" stroke="#263238" stroke-linecap="round" stroke-linejoin="round" stroke-miterlimit="10" stroke-width="1.076"/>
      <path id="Path-70" data-name="Path" d="M0,.538H190.945" transform="translate(0.398 80.319)" fill="none" stroke="#263238" stroke-linecap="round" stroke-linejoin="round" stroke-miterlimit="10" stroke-width="1.076"/>
      <path id="Path-71" data-name="Path" d="M.538,0V130.978" transform="translate(151.996 0.839)" fill="none" stroke="#263238" stroke-linecap="round" stroke-linejoin="round" stroke-miterlimit="10" stroke-width="1.076"/>
      <path id="Path-72" data-name="Path" d="M0,15.175,15.175,0" transform="translate(100.37 10.622)" fill="none" stroke="#263238" stroke-linecap="round" stroke-linejoin="round" stroke-miterlimit="10" stroke-width="1.076"/>
      <path id="Path-73" data-name="Path" d="M0,15.175,15.175,0" transform="translate(104.707 34.687)" fill="none" stroke="#263238" stroke-linecap="round" stroke-linejoin="round" stroke-miterlimit="10" stroke-width="1.076"/>
      <path id="Path-74" data-name="Path" d="M0,34.881,34.881,0" transform="translate(95.871 2.927)" fill="none" stroke="#263238" stroke-linecap="round" stroke-linejoin="round" stroke-miterlimit="10" stroke-width="1.076"/>
      <path id="Path-75" data-name="Path" d="M0,15.175,15.175,0" transform="translate(178.407 97.324)" fill="none" stroke="#263238" stroke-linecap="round" stroke-linejoin="round" stroke-miterlimit="10" stroke-width="1.076"/>
      <path id="Path-76" data-name="Path" d="M0,34.881,34.881,0" transform="translate(173.909 89.629)" fill="none" stroke="#263238" stroke-linecap="round" stroke-linejoin="round" stroke-miterlimit="10" stroke-width="1.076"/>
    </g>
    <g id="freepik--Expressions--inject-60" transform="translate(191.57 42.87)">
      <circle id="Oval-7" data-name="Oval" cx="17.887" cy="17.887" r="17.887" transform="translate(0.387 70.382)" fill="#fff" stroke="#263238" stroke-linecap="round" stroke-linejoin="round" stroke-miterlimit="10" stroke-width="1.076"/>
      <path id="Path-77" data-name="Path" d="M18.135,21.256l-6.92-3.616L4.3,21.288l1.3-7.7L0,8.158,7.727,7.006,11.161,0l3.476,7,7.727,1.1-5.575,5.467,1.345,7.7Z" transform="translate(7.082 77.625)" fill="#f97d00"/>
      <circle id="Oval-8" data-name="Oval" cx="17.887" cy="17.887" r="17.887" transform="translate(116.954 39.806)" fill="#fff" stroke="#263238" stroke-linecap="round" stroke-linejoin="round" stroke-miterlimit="10" stroke-width="1.076"/>
      <path id="Path-78" data-name="Path" d="M1.98,0,6.9,6.1H0" transform="translate(123.509 47.813)" fill="none" stroke="#263238" stroke-linecap="round" stroke-linejoin="round" stroke-miterlimit="10" stroke-width="1.076"/>
      <path id="Path-79" data-name="Path" d="M4.918,0,0,6.1H6.888" transform="translate(138.565 47.813)" fill="none" stroke="#263238" stroke-linecap="round" stroke-linejoin="round" stroke-miterlimit="10" stroke-width="1.076"/>
      <path id="Path-80" data-name="Path" d="M0,0H25.022s-2.83,12.613-12.054,12.613C2.508,12.613,0,0,0,0Z" transform="translate(122.335 58.845)" fill="#f97d00" stroke="#263238" stroke-linecap="round" stroke-linejoin="round" stroke-miterlimit="10" stroke-width="1.076"/>
      <circle id="Oval-9" data-name="Oval" cx="17.887" cy="17.887" r="17.887" transform="translate(43.211 0.018)" fill="#fff" stroke="#263238" stroke-linecap="round" stroke-linejoin="round" stroke-miterlimit="10" stroke-width="1.076"/>
      <path id="Path-81" data-name="Path" d="M1.6,2.411c0,1.345-.355,2.422-.8,2.422S0,3.756,0,2.411.355,0,.807,0,1.6,1.076,1.6,2.411Z" transform="translate(55.512 10.167)" fill="#263238"/>
      <path id="Path-82" data-name="Path" d="M1.614,2.411c0,1.345-.366,2.422-.807,2.422S0,3.756,0,2.411.355,0,.807,0,1.614,1.076,1.614,2.411Z" transform="translate(66.188 10.167)" fill="#263238"/>
      <path id="Path-83" data-name="Path" d="M0,0S2.658,9.008,11.3,9.288,21.987,0,21.987,0" transform="translate(49.797 17.905)" fill="#fff" stroke="#263238" stroke-linecap="round" stroke-linejoin="round" stroke-miterlimit="10" stroke-width="1.076"/>
    </g>
    <g id="freepik--Character--inject-60" transform="translate(30.135 108.7)">
      <path id="Path-84" data-name="Path" d="M57.531,0s-23.957,6.113-44.6,34.439c0,0-10.956-2.551-12.743,1.012s9.686,4.6,9.686,4.6S23.866,69.1,48.619,71.9c0,0,1.539,9.686,3.831,9.934s5.091-9.428,5.091-9.428,29.876-5.995,39.821-23C97.319,49.378,81.488,1.776,57.531,0Z" transform="translate(56.948 168.732)" fill="#fff"/>
      <path id="Path-85" data-name="Path" d="M0,.02S12.172-1.12,31.889,13.688" transform="translate(84.57 204.959)" fill="none" stroke="#263238" stroke-linecap="round" stroke-linejoin="round" stroke-miterlimit="10" stroke-width="1.076"/>
      <path id="Path-86" data-name="Path" d="M0,0S9.514.678,14.239,8.072" transform="translate(89.973 198.027)" fill="none" stroke="#263238" stroke-linecap="round" stroke-linejoin="round" stroke-miterlimit="10" stroke-width="1.076"/>
      <path id="Path-87" data-name="Path" d="M57.531,0s-23.957,6.113-44.6,34.439c0,0-10.956-2.551-12.743,1.012s9.686,4.6,9.686,4.6S23.866,69.1,48.619,71.9c0,0,1.539,9.686,3.831,9.934s5.091-9.428,5.091-9.428,29.876-5.995,39.821-23C97.319,49.378,81.488,1.776,57.531,0Z" transform="translate(56.948 168.732)" fill="none" stroke="#263238" stroke-linecap="round" stroke-linejoin="round" stroke-miterlimit="10" stroke-width="1.076"/>
      <path id="Path-88" data-name="Path" d="M124.61,227.741c11.731-.839,23.107-3.509,33.266-9.03,24.075-13.076,37.1-39.681,41.241-65.909,4.068-25.83,7.243-55.738,14.314-75.982,9.073-25.98,4-52.94-22.321-67.458-17.9-9.869-39.681-11.645-59.516-6.694C112.137,7.533,88.729,19.888,76.868,36.43,62.877,56.049,54.268,78.026,37.4,96,19.2,115.371-2.859,132.473.305,162.144,4,196.874,39.932,215.31,70.433,222.134,87.286,225.9,106.39,229,124.61,227.741Z" transform="translate(104.81 44.363)" fill="#ffb76f"/>
      <path id="Path-89" data-name="Path" d="M124.61,227.741c11.742-.839,23.107-3.509,33.266-9.03,24.075-13.076,37.1-39.681,41.241-65.909,4.068-25.83,7.243-55.738,14.314-75.993,9.073-25.97,4-52.929-22.321-67.448-17.9-9.869-39.681-11.645-59.516-6.694C112.137,7.533,88.729,19.888,76.868,36.43,62.877,56.049,54.268,78.026,37.4,96,19.2,115.371-2.859,132.473.305,162.144,4,196.874,39.932,215.31,70.433,222.134,87.286,225.9,106.411,229.032,124.61,227.741Z" transform="translate(104.531 45.03)" fill="none" stroke="#263238" stroke-linecap="round" stroke-linejoin="round" stroke-miterlimit="10" stroke-width="1.076"/>
      <path id="Path-90" data-name="Path" d="M0,10.364A79.2,79.2,0,0,1,12.915,0" transform="translate(283.329 94.45)" fill="none" stroke="#263238" stroke-linecap="round" stroke-linejoin="round" stroke-miterlimit="10" stroke-width="1.076"/>
      <path id="Path-91" data-name="Path" d="M0,20.448S2.5,7.146,11.01,0" transform="translate(265.291 74.002)" fill="none" stroke="#263238" stroke-linecap="round" stroke-linejoin="round" stroke-miterlimit="10" stroke-width="1.076"/>
      <path id="Path-92" data-name="Path" d="M110.528,16.434C117.975,8.136,130.7-4.015,139.586,1.3c3.724,8.814-7.092,17.962-5.6,27.412.5,3.1,2.271,5.822,3.842,8.535a77.833,77.833,0,0,1,6.651,62.282c-2.034,6.285-4.9,12.344-5.887,18.866-1.313,8.664,0,16.94-4.187,24.958-4.057,7.76-10.655,13.991-17.5,19.275-23.117,17.995-49.98,27.11-78.834,29.9a72.936,72.936,0,0,1-29.962-3.4c-2.411-.807-4.908-1.819-6.457-3.8-2.949-3.659-1.668-9.406,1.55-12.829s7.824-5.1,12.258-6.662c10.827-3.8,21.88-7.706,31.824-13.485s19.06-13.776,24.334-24.075c5.683-11.107,6.576-23.968,7.071-36.43.775-19.232.861-38.691-3.39-57.449-1.528-6.791-1.335-19.372,5.381-24.14C87.852,5.09,104.006,12.742,110.528,16.434Z" transform="translate(145.616 61.819)" opacity="0.1"/>
      <path id="Path-93" data-name="Path" d="M50.869,10.15S52.268-.4,54.884.012,59.727,10.15,59.727,10.15s25.83,28.628,19.028,55.91c0,0,5.575,7.211,4.854,8.147-1.937,2.518-9.062,0-9.062,0S47.189,95.925,22.995,98.186c0,0-3.7,7.534-6.07,7.125s0-12.3,0-12.3S.007,67.76,4.817,42.76c0,0-6.307-4.133-4.488-6.726s8.5-1.227,8.5-1.227S24.6,14.982,50.869,10.15Z" transform="translate(231.222 131.913)" fill="#fff"/>
      <path id="Path-94" data-name="Path" d="M0,.112S13.421-2.471,28.886,17.128" transform="translate(258.468 176.82)" fill="none" stroke="#263238" stroke-linecap="round" stroke-linejoin="round" stroke-miterlimit="10" stroke-width="1.076"/>
      <path id="Path-95" data-name="Path" d="M0,0C6.005.861,14.239,3.961,22.407,13.141" transform="translate(276.775 175.426)" fill="none" stroke="#263238" stroke-linecap="round" stroke-linejoin="round" stroke-miterlimit="10" stroke-width="1.076"/>
      <path id="Path-96" data-name="Path" d="M50.869,10.15S52.268-.4,54.884.012,59.727,10.15,59.727,10.15s25.83,28.628,19.028,55.91c0,0,5.575,7.211,4.854,8.147-1.937,2.518-9.062,0-9.062,0S47.189,95.925,22.995,98.186c0,0-3.7,7.534-6.07,7.125s0-12.3,0-12.3S.007,67.76,4.817,42.76c0,0-6.307-4.133-4.488-6.726s8.5-1.227,8.5-1.227S24.6,14.982,50.869,10.15Z" transform="translate(231.222 131.913)" fill="none" stroke="#263238" stroke-linecap="round" stroke-linejoin="round" stroke-miterlimit="10" stroke-width="1.076"/>
      <path id="Path-97" data-name="Path" d="M57.458,115.022A417.364,417.364,0,0,0,77.486,59.941C86.548,28.364,88.044,18.8,88.044,18.8S70.19,6.42,57.533,2.416,10.125.4,4.066,1.232.514,7.033.514,7.033L7.757,33.4,9.63,38.7l.237,56.545S20.08,119.586,57.458,115.022Z" transform="translate(187.73 75.374)" fill="#f97d00"/>
      <path id="Path-98" data-name="Path" d="M58.231,22.844a98,98,0,0,1-19.469,5.489,33.137,33.137,0,0,1-18.3-1.281A32.459,32.459,0,0,1,7.7,17.13C4.473,13.18,1.567,9.37.265,4.333A4.617,4.617,0,0,1,.19,1.481C2.256-3.9,16.6,7,19.3,8.477A48.861,48.861,0,0,0,52.495,13.33C53.27,16.581,56.66,19.906,58.231,22.844Z" transform="translate(0.854 242.695)" fill="#fff"/>
      <path id="Path-99" data-name="Path" d="M58.231,22.844a98,98,0,0,1-19.469,5.489,33.137,33.137,0,0,1-18.3-1.281A32.459,32.459,0,0,1,7.7,17.13C4.473,13.18,1.567,9.37.265,4.333A4.617,4.617,0,0,1,.19,1.481C2.256-3.9,16.6,7,19.3,8.477A48.861,48.861,0,0,0,52.495,13.33C53.27,16.581,56.66,19.906,58.231,22.844Z" transform="translate(0.854 242.695)" fill="none" stroke="#263238" stroke-linecap="round" stroke-linejoin="round" stroke-miterlimit="10" stroke-width="1.076"/>
      <path id="Path-100" data-name="Path" d="M8.71,56.395s2.152,8.115,10.978,7.275c8.61,1.076,12.355-4.413,12.355-4.413s-1.076-6.167-.054-10.343a87.357,87.357,0,0,1,3.767-10.762s4.208.161,6.587-1.356,5.274-7.749,4.918-15.39-8.879-18.63-8.879-18.63L27.2,0,11.9.474,8.914,2.938,3.662,11.946a10.213,10.213,0,0,0-.678,2.874,15.6,15.6,0,0,1-.248,4.509C2.284,20.567.487,23.494.057,26.4S1.789,40.94,1.789,40.94s.872,5.187,3.928,5.639a12.441,12.441,0,0,0,4.4,1.335,2.755,2.755,0,0,1,.7,2.787A32.147,32.147,0,0,1,8.71,56.395Z" transform="translate(213.457 19.663)" fill="#fff"/>
      <path id="Path-101" data-name="Path" d="M19.857,34S18.113,7.039,11.462,0L0,20.857,10.278,36.721Z" transform="translate(177.439 77.79)" fill="#f97d00"/>
      <path id="Path-102" data-name="Path" d="M0,1.675S5.446-2.813,8.987,2.9C8.987,2.9,4.24.588,0,1.675Z" transform="translate(233.607 39.663)" fill="#263238"/>
      <path id="Path-103" data-name="Path" d="M0,0A8.319,8.319,0,0,0,5.973,6.834" transform="translate(237.514 30.468)" fill="none" stroke="#263238" stroke-linecap="round" stroke-linejoin="round" stroke-miterlimit="10" stroke-width="1.076"/>
      <path id="Path-104" data-name="Path" d="M8.264,0A9.8,9.8,0,0,1,6,2.917,6.145,6.145,0,0,1,3.851,4.23c-1.076.355-2.368.258-3.444.721a.624.624,0,0,0-.28.194.732.732,0,0,0-.118.409,4.983,4.983,0,0,0,2.013,4.3" transform="translate(220.382 37.668)" fill="none" stroke="#263238" stroke-linecap="round" stroke-linejoin="round" stroke-miterlimit="10" stroke-width="1.076"/>
      <path id="Path-105" data-name="Path" d="M5.026,5.08S6.414-1.378,0,.269A8.438,8.438,0,0,1,5.026,5.08Z" transform="translate(219.218 33.891)" fill="#263238"/>
      <path id="Path-106" data-name="Path" d="M0,2.152S4.865,2.088,6.673,0" transform="translate(221.037 28.316)" fill="none" stroke="#263238" stroke-linecap="round" stroke-linejoin="round" stroke-miterlimit="10" stroke-width="1.076"/>
      <path id="Path-107" data-name="Path" d="M0,1.84S3.713,4.875,7.469,3.67A51.239,51.239,0,0,0,15.595,0S10.332,9.46,6.188,8.9,0,1.84,0,1.84Z" transform="translate(219.218 48.936)" fill="#263238"/>
      <path id="Path-108" data-name="Path" d="M31.67,4.822,15.182,0,8.961,1.937,3.58,10.945A6.522,6.522,0,0,0,2.9,13.819v2.874a6.673,6.673,0,0,1-.678,2.874L.685,22.687a6.608,6.608,0,0,0-.678,3.229,79.706,79.706,0,0,0,1.883,14.5C2.525,42.8,5.851,46.5,8.283,46.87c3.928.689,11.3-1.076,11.3-1.076a6.07,6.07,0,0,0,4.477-1.98l5.015-5.5" transform="translate(213.518 20.664)" fill="none" stroke="#263238" stroke-linecap="round" stroke-linejoin="round" stroke-miterlimit="10" stroke-width="1.076"/>
      <path id="Path-109" data-name="Path" d="M1.076,5.053S8.233-1.889,11.7.5,10.827,11.338,6.382,12.63A5.381,5.381,0,0,1,0,10.036" transform="translate(247.351 44.96)" fill="none" stroke="#263238" stroke-linecap="round" stroke-linejoin="round" stroke-miterlimit="10" stroke-width="1.076"/>
      <path id="Path-110" data-name="Path" d="M36.082,47.145a6.36,6.36,0,0,1-2.432-.151,2.152,2.152,0,0,1-1.593-1.679,3.552,3.552,0,0,1,.657-2.077,20.847,20.847,0,0,0,2.239-6.587.883.883,0,0,0,0-.624,1.076,1.076,0,0,0-.56-.355,3.907,3.907,0,0,1-2.1-2.529,11.839,11.839,0,0,1-.355-3.369c0-1.539,0-3.067,1.076-4.057L13.137,19.69l-5.08,2.056s-6.3,0-7.813-6.285S4.8,9.24,4.8,9.24,4.01,2.5,9.951.318s7.286,7.534,16.143,9.589S51.053,10.983,54.873,24.07c4.3,14.755.43,26.96-10.762,28.52,0,0,3.67-5.887.517-7.964S36.082,47.145,36.082,47.145Z" transform="translate(214.314 0.855)" fill="#263238"/>
      <path id="Path-111" data-name="Path" d="M4.053,9.637S-.628,6.15.071,2.845,4.785-.975,7.25,1.769s3.681,7.706,10.483,9.858S7.487,14.318,7.487,14.318Z" transform="translate(230.974 0.792)" fill="#263238"/>
      <path id="Path-112" data-name="Path" d="M2.572,0A29.769,29.769,0,0,1,0,6.694" transform="translate(260.717 36.893)" fill="none" stroke="#fff" stroke-linecap="round" stroke-linejoin="round" stroke-miterlimit="10" stroke-width="1.076" opacity="0.31"/>
      <path id="Path-113" data-name="Path" d="M0,0A9.987,9.987,0,0,0,4.143,6.587a24.958,24.958,0,0,0,7.2,3.39c2.841.947,5.736,1.765,8.61,2.454A22.87,22.87,0,0,1,27.143,14.9c3.7,2.335,5.575,6.9,5.543,11.279a10.891,10.891,0,0,1-.054,1.324" transform="translate(231.1 6.382)" fill="none" stroke="#fff" stroke-linecap="round" stroke-linejoin="round" stroke-miterlimit="10" stroke-width="1.076" opacity="0.31"/>
      <path id="Path-114" data-name="Path" d="M.282,0A12.538,12.538,0,0,0,4.824,12.527" transform="translate(221.852 6.124)" fill="none" stroke="#fff" stroke-linecap="round" stroke-linejoin="round" stroke-miterlimit="10" stroke-width="1.076" opacity="0.31"/>
      <path id="Path-115" data-name="Path" d="M4.01,2.636c.28,1.625-.387,3.1-1.474,3.283S.329,4.928.06,3.3.448.214,1.535.021,3.741,1.011,4.01,2.636Z" transform="translate(182.706 99.466)" fill="none" stroke="#263238" stroke-linecap="round" stroke-linejoin="round" stroke-miterlimit="10" stroke-width="1.076"/>
      <path id="Path-116" data-name="Path" d="M0,0,20.481,2.551,25.69,43.738,5.22,39.326,0,0Z" transform="translate(169.517 93.578)" fill="#fff"/>
      <path id="Path-117" data-name="Path" d="M0,0,20.481,2.551,25.69,43.738,5.22,39.326,0,0Z" transform="translate(169.517 93.578)" fill="none" stroke="#263238" stroke-linecap="round" stroke-linejoin="round" stroke-miterlimit="10" stroke-width="1.076"/>
      <path id="Path-118" data-name="Path" d="M0,1.937,3.153,0,23.709,2.282l4.5,41.392-1.873,2.755-5.489-41.6L0,1.937Z" transform="translate(169.152 91.297)" fill="#263238"/>
      <path id="Path-119" data-name="Path" d="M0,0,.3,28.143S6.92,51.821,47.892,47.925l2.572-3.5" transform="translate(197.295 142.472)" fill="none" stroke="#263238" stroke-linecap="round" stroke-linejoin="round" stroke-miterlimit="10" stroke-width="1.076"/>
      <path id="Path-120" data-name="Path" d="M0,.915,3.616,0V6.361" transform="translate(193.679 111.788)" fill="none" stroke="#263238" stroke-linecap="round" stroke-linejoin="round" stroke-miterlimit="10" stroke-width="1.076"/>
      <path id="Path-121" data-name="Path" d="M12.653,3.691S7.411,3.562,5.119,5.5s-5.381,7.7-5.1,11.935S.76,23.8,3.537,25.959s22.439.344,25.679-7.62a45.094,45.094,0,0,0-13.367,1.84c-6.167,2.056,3.8-4.509,3.8-4.509s6.985-3.605,8.427-4.951,1.13-5.844,1.13-5.844,1.754-2.3.366-3.573A6.328,6.328,0,0,0,25.9,0L13.471,5.941Z" transform="translate(157.554 98.648)" fill="#fff"/>
      <path id="Path-122" data-name="Path" d="M13.2.2a11.031,11.031,0,0,0-6.77.829C2.741,2.668.491,11.063.491,11.063a15.433,15.433,0,0,0,0,7.727s2.314,7.48,13.991,3.928" transform="translate(157.5 102.232)" fill="none" stroke="#263238" stroke-linecap="round" stroke-linejoin="round" stroke-miterlimit="10" stroke-width="1.076"/>
      <path id="Path-123" data-name="Path" d="M0,9.116,19.071,0s3.67.6,4.3,1.991S11.2,11.677,5.2,13.141" transform="translate(164.341 98.648)" fill="none" stroke="#263238" stroke-linecap="round" stroke-linejoin="round" stroke-miterlimit="10" stroke-width="1.076"/>
      <path id="Path-124" data-name="Path" d="M12.517,0s.161,4.843-.872,6.9S0,13.356,0,13.356" transform="translate(174.199 102.102)" fill="none" stroke="#263238" stroke-linecap="round" stroke-linejoin="round" stroke-miterlimit="10" stroke-width="1.076"/>
      <path id="Path-125" data-name="Path" d="M0,1.513S7.91-.877,9.288.35,3.024,4.386,3.024,4.386" transform="translate(177.439 116.636)" fill="none" stroke="#263238" stroke-linecap="round" stroke-linejoin="round" stroke-miterlimit="10" stroke-width="1.076"/>
      <path id="Path-126" data-name="Path" d="M191.849,69.8s6.016,17.639-5.822,30.7-119.139,42.35-182.465,46.7L0,134.938,139.1,77.1l-3.121-3.11L96.7,52.241,95.139,99.046,78.3,105.406S55.77,35.817,54.619,20.3,67.534-3.627,81.008,1.507s52.639,22.827,65.586,39.153l.3,8.933S151.394,70.763,191.849,69.8Z" transform="translate(50.744 121.033)" fill="#263238"/>
      <path id="Path-127" data-name="Path" d="M0,6.834,15.756,0" transform="translate(189.417 191.214)" fill="none" stroke="#fff" stroke-linecap="round" stroke-linejoin="round" stroke-miterlimit="10" stroke-width="1.076"/>
      <path id="Path-128" data-name="Path" d="M0,10.676A37.044,37.044,0,0,1,1.476,0" transform="translate(186.768 182.68)" fill="none" stroke="#fff" stroke-linecap="round" stroke-linejoin="round" stroke-miterlimit="10" stroke-width="1.076"/>
      <path id="Path-129" data-name="Path" d="M0,0S14.615,10.773,15.691,27.756" transform="translate(131.752 145.517)" fill="none" stroke="#fff" stroke-linecap="round" stroke-linejoin="round" stroke-miterlimit="10" stroke-width="1.076"/>
      <path id="Path-130" data-name="Path" d="M44.513,0a13.873,13.873,0,0,1-1.335,7.706S14.465,6.167,9.17,10.052L0,25.894" transform="translate(179.731 67.738)" fill="none" stroke="#263238" stroke-linecap="round" stroke-linejoin="round" stroke-miterlimit="10" stroke-width="1.076"/>
      <path id="Path-131" data-name="Path" d="M15.153,7.8C6.888,5.769,6.1.4,6.1.4L0,0S2.712,12.4,14.26,14.411,36.7,5.9,36.7,5.9c-3.982-1.862-6.716-3.046-6.716-3.046S23.419,9.815,15.153,7.8Z" transform="translate(215.946 75.207)" fill="#f97d00"/>
      <path id="Path-132" data-name="Path" d="M31.857,51.013S10.515,57.869,0,42.49L2.228,23.279C5.338,16.649,13.9,1.948,29.08,0,36.474,5.435,32.847,41.833,31.857,51.013Z" transform="translate(245.5 92.879)" fill="#f97d00"/>
      <path id="Path-133" data-name="Path" d="M103.544,30.673s-3.874,30.188-17.1,43.049c0,0-15.928-.678-28.23-8.545s-19.092-24.538-28.757-36c0,0-12.215,1.205-15.724-1A110.411,110.411,0,0,1,3.541,19.857l1.141-4.025L2.465,11.645V5.08l-1.593-2L0,0,3.541.657,24.2,18.533l1.528,1.345,1.873-1.711-1.873-16S36.2,10.181,37.173,12.506s2.034,5.661,2.034,5.661,8.405,9.923,14.378,14.292,16.961,11.354,20.5,14.949A190.428,190.428,0,0,0,81.761,26.96S90.328,32.029,103.544,30.673Z" transform="translate(169.517 114.274)" fill="#fff"/>
      <path id="Path-134" data-name="Path" d="M11.925,16.983.872,3.078,0,0,4.682,1.076l21.008,18.7,1.873-1.711-1.873-16s8.9,7.243,10.418,8.771,3.057,7.232,3.057,7.232A116.567,116.567,0,0,0,55,33.535C63.659,40.294,73.9,43.76,80.825,56.244" transform="translate(169.517 114.317)" fill="none" stroke="#263238" stroke-linecap="round" stroke-linejoin="round" stroke-miterlimit="10" stroke-width="1.076"/>
      <path id="Path-135" data-name="Path" d="M0,0V6.565l5.457,8.19" transform="translate(171.982 119.397)" fill="none" stroke="#263238" stroke-linecap="round" stroke-linejoin="round" stroke-miterlimit="10" stroke-width="1.076"/>
      <path id="Path-136" data-name="Path" d="M1.216,0,0,4.735s7.749,8.007,11.688,9.148,13.83,0,13.83,0c.7-.075,3.283,3.519,3.681,3.993,5.467,6.317,8.943,13.84,13.647,20.653C52.273,52.187,66.414,57.03,82.9,58.6c.549.054,13.485-15.261,17.1-43.049" transform="translate(173.058 129.417)" fill="none" stroke="#263238" stroke-linecap="round" stroke-linejoin="round" stroke-miterlimit="10" stroke-width="1.076"/>
      <path id="Path-137" data-name="Path" d="M0,20.448A91.566,91.566,0,0,0,7.168,0" transform="translate(244.068 141.234)" fill="none" stroke="#263238" stroke-linecap="round" stroke-linejoin="round" stroke-miterlimit="10" stroke-width="1.076"/>
      <path id="Path-138" data-name="Path" d="M4.176,0C.872,7.049-.6,12.635.226,20.448c0,0,27.519,10.7,30.511,16.38s4.8,32.545,1.313,48.807" transform="translate(245.036 57.363)" fill="none" stroke="#263238" stroke-linecap="round" stroke-linejoin="round" stroke-miterlimit="10" stroke-width="1.076"/>
      <path id="Path-139" data-name="Path" d="M0,11.236S11.462,14.981,14.744,0L11.462,1.862,1.776,3.379Z" transform="translate(222.834 64.531)" fill="#263238"/>
    </g>
    <g id="gifts" transform="translate(342 309)">
      <g id="Group_5" data-name="Group 5" transform="translate(119 20.644)">
        <rect id="Rectangle-4" data-name="Rectangle" width="12.947" height="8.552" transform="translate(-38.538 5.242)" fill="#fff" stroke="#263238" stroke-linecap="round" stroke-linejoin="round" stroke-miterlimit="10" stroke-width="0.737"/>
        <path id="Path-140" data-name="Path" d="M-11.244,2.986l7.137,5.19L0,2.6-3.561,0l-7.682,2.986Z" transform="translate(-19.98 0.369)" fill="#fff" stroke="#263238" stroke-linecap="round" stroke-linejoin="round" stroke-miterlimit="10" stroke-width="0.737"/>
        <path id="Path-141" data-name="Path" d="M-7.137,8.176,0,2.986-7.675,0l-3.568,2.6,4.107,5.581Z" transform="translate(-33.701 0.951)" fill="#fff" stroke="#263238" stroke-linecap="round" stroke-linejoin="round" stroke-miterlimit="10" stroke-width="0.737"/>
        <path id="Path-142" data-name="Path" d="M-10.086,6.06H0L-2.521,0H-7.564l-2.521,6.06Z" transform="translate(-27.147 0)" fill="#fff" stroke="#263238" stroke-linecap="round" stroke-linejoin="round" stroke-miterlimit="10" stroke-width="0.737"/>
        <path id="Path-143" data-name="Path" d="M-8.331,0V7.336L0,5.5V1.836L-8.331,0Z" transform="translate(-19.029 5.64)" fill="#fff" stroke="#263238" stroke-linecap="round" stroke-linejoin="round" stroke-miterlimit="10" stroke-width="0.737"/>
        <path id="Path-144" data-name="Path" d="M0,0V7.336L-8.331,5.5V1.836L0,0Z" transform="translate(-36.783 5.64)" fill="#fff" stroke="#263238" stroke-linecap="round" stroke-linejoin="round" stroke-miterlimit="10" stroke-width="0.737"/>
        <rect id="Rectangle-5" data-name="Rectangle" width="66.267" height="33.782" transform="translate(-66.267 10.89)" fill="#ffb76f" stroke="#263238" stroke-linecap="round" stroke-linejoin="round" stroke-miterlimit="10" stroke-width="0.737"/>
        <rect id="Rectangle-6" data-name="Rectangle" width="7.815" height="33.782" transform="translate(-25.09 10.89)" fill="#fff" stroke="#263238" stroke-linecap="round" stroke-linejoin="round" stroke-miterlimit="10" stroke-width="0.737"/>
        <rect id="Rectangle-7" data-name="Rectangle" width="22.834" height="33.782" transform="translate(-66.274 10.89)" fill="#ffb76f" stroke="#263238" stroke-linecap="round" stroke-linejoin="round" stroke-miterlimit="10" stroke-width="0.737"/>
        <rect id="Rectangle-8" data-name="Rectangle" width="7.815" height="33.782" transform="translate(-57.537 10.89)" fill="#fff" stroke="#263238" stroke-linecap="round" stroke-linejoin="round" stroke-miterlimit="10" stroke-width="0.737"/>
      </g>
      <g id="Group_7" data-name="Group 7" transform="translate(62.967)">
        <path id="Path-145" data-name="Path" d="M-20.2,15.139S-13.56-.712-6.556.025,2.291,9.61-3.238,12.19-20.2,15.139-20.2,15.139Z" transform="translate(-12.731)" fill="none" stroke="#263238" stroke-linecap="round" stroke-linejoin="round" stroke-miterlimit="10" stroke-width="2.212"/>
        <path id="Path-146" data-name="Path" d="M0,14.8S-4.055-1.051-12.165.055s-5.426,13.64-1.371,14.377S0,14.8,0,14.8Z" transform="translate(-32.927 0.338)" fill="none" stroke="#263238" stroke-linecap="round" stroke-linejoin="round" stroke-miterlimit="10" stroke-width="2.212"/>
        <rect id="Rectangle-9" data-name="Rectangle" width="60.936" height="50.356" transform="translate(-61.688 14.771)" fill="#fbfcfe"/>
        <rect id="Rectangle-10" data-name="Rectangle" width="7.188" height="50.356" transform="translate(-23.822 14.771)" fill="#ffb76f" stroke="#263238" stroke-linecap="round" stroke-linejoin="round" stroke-miterlimit="10" stroke-width="0.737"/>
        <rect id="Rectangle-11" data-name="Rectangle" width="20.998" height="50.356" transform="translate(-61.688 14.771)" fill="none" stroke="#263238" stroke-linecap="round" stroke-linejoin="round" stroke-miterlimit="10" stroke-width="0.737"/>
        <rect id="Rectangle-12" data-name="Rectangle" width="61.194" height="50.356" transform="translate(-61.688 14.771)" fill="none" stroke="#263238" stroke-linecap="round" stroke-linejoin="round" stroke-miterlimit="10" stroke-width="0.737"/>
        <rect id="Rectangle-13" data-name="Rectangle" width="7.188" height="50.356" transform="translate(-53.652 14.771)" fill="#ffb76f" stroke="#35558f" stroke-linecap="round" stroke-linejoin="round" stroke-miterlimit="10" stroke-width="0.737"/>
        <path id="Path-147" data-name="Path" d="M0,31.73V9.612C0,2.239-2.949.027-2.949.027S-5.331-.54-6.636,3.493s0,19.84,0,19.84" transform="translate(-30 15.112)" fill="none" stroke="#263238" stroke-linecap="round" stroke-linejoin="round" stroke-miterlimit="10" stroke-width="2.212"/>
      </g>
    </g>
  </g>
</svg>
