<svg xmlns="http://www.w3.org/2000/svg" width="379.348" height="359.739" viewBox="0 0 379.348 359.739">
  <g id="True_friends-bro" data-name="True friends-bro" transform="translate(-0.152 -0.127)">
    <g id="freepik--background-simple--inject-81" transform="translate(28.732 10.986)">
      <path id="Path" d="M57.314,294.515c16.673,21.972,63.744,19.715,85.158,9.3,69.515-33.8,190.986-89.535,206.907-187.682C356.14,74.408,321.551,48.346,306.8,40.2,271.371,20.62,231.154,11.518,191.148,5.366c-41.78-6.456-86.975-9.9-127.023,6.456C48.914,18.017,34.362,26.5,23.63,39.076A99.171,99.171,0,0,0,2.292,84.118c-5.231,26.5-.955,54.085,7.251,79.851s20.282,50.054,31.023,74.823C47.647,254.924,43.261,276.025,57.314,294.515Z" transform="translate(0.522 0.55)" fill="#f9fbff"/>
    </g>
    <g id="freepik--Window--inject-81">
      <path id="Path-2" data-name="Path" d="M144.3,0V141.752H0" transform="translate(0.575 0.549)" fill="none" stroke="#263238" stroke-linecap="round" stroke-linejoin="round" stroke-miterlimit="10" stroke-width="0.845"/>
      <path id="Path-3" data-name="Path" d="M32.856.507Q16.428.439,0,.338" transform="translate(6.27 132.051)" fill="none" stroke="#263238" stroke-linecap="round" stroke-linejoin="round" stroke-miterlimit="10" stroke-width="0.845"/>
      <path id="Path-4" data-name="Path" d="M83.907,0l-.169,123.245h0L0,123.169" transform="translate(51.473 9.431)" fill="none" stroke="#263238" stroke-linecap="round" stroke-linejoin="round" stroke-miterlimit="10" stroke-width="0.845"/>
      <path id="Path-5" data-name="Path" d="M.423,0V5.713" transform="translate(134.958 0.549)" fill="none" stroke="#263238" stroke-linecap="round" stroke-linejoin="round" stroke-miterlimit="10" stroke-width="0.845"/>
      <path id="Path-6" data-name="Path" d="M4.344.423H0" transform="translate(21.051 56.18)" fill="none" stroke="#263238" stroke-linecap="round" stroke-linejoin="round" stroke-miterlimit="10" stroke-width="0.845"/>
      <path id="Path-7" data-name="Path" d="M64.014.427,0,.418" transform="translate(32.941 56.185)" fill="none" stroke="#263238" stroke-linecap="round" stroke-linejoin="round" stroke-miterlimit="10" stroke-width="0.845"/>
      <path id="Path-8" data-name="Path" d="M32,.423H0" transform="translate(103.377 56.197)" fill="none" stroke="#263238" stroke-linecap="round" stroke-linejoin="round" stroke-miterlimit="10" stroke-width="0.845"/>
      <path id="Path-9" data-name="Path" d="M.389,0s.152,44.882,0,67.783" transform="translate(75.515 63.287)" fill="none" stroke="#263238" stroke-linecap="round" stroke-linejoin="round" stroke-miterlimit="10" stroke-width="0.845"/>
      <path id="Path-10" data-name="Path" d="M.423,0V39.718" transform="translate(75.482 15.811)" fill="none" stroke="#263238" stroke-linecap="round" stroke-linejoin="round" stroke-miterlimit="10" stroke-width="0.845"/>
    </g>
    <g id="freepik--Pictures--inject-81" transform="translate(180 46.479)">
      <path id="Path-11" data-name="Path" d="M25.454,38.062H0V0" transform="translate(0.507 3.524)" fill="none" stroke="#263238" stroke-linecap="round" stroke-linejoin="round" stroke-miterlimit="10" stroke-width="0.845"/>
      <path id="Path-12" data-name="Path" d="M21.9,0V18.837H0" transform="translate(29.518 22.749)" fill="none" stroke="#263238" stroke-linecap="round" stroke-linejoin="round" stroke-miterlimit="10" stroke-width="0.845"/>
      <path id="Path-13" data-name="Path" d="M0,0H50.907V19.817" transform="translate(0.507 0.008)" fill="none" stroke="#263238" stroke-linecap="round" stroke-linejoin="round" stroke-miterlimit="10" stroke-width="0.845"/>
      <path id="Path-14" data-name="Path" d="M5.273,30.828H0V0H11.882" transform="translate(6.423 5.383)" fill="none" stroke="#263238" stroke-linecap="round" stroke-linejoin="round" stroke-miterlimit="10" stroke-width="0.845"/>
      <path id="Path-15" data-name="Path" d="M29.687,0V28.758H0" transform="translate(15.811 7.454)" fill="none" stroke="#263238" stroke-linecap="round" stroke-linejoin="round" stroke-miterlimit="10" stroke-width="0.845"/>
      <path id="Path-16" data-name="Path" d="M0,.423H24.558" transform="translate(20.941 4.961)" fill="none" stroke="#263238" stroke-linecap="round" stroke-linejoin="round" stroke-miterlimit="10" stroke-width="0.845"/>
      <path id="Path-17" data-name="Path" d="M5.273,17.873H0V0" transform="translate(59.907 41.079)" fill="none" stroke="#263238" stroke-linecap="round" stroke-linejoin="round" stroke-miterlimit="10" stroke-width="0.845"/>
      <path id="Path-18" data-name="Path" d="M20.73,0h11.2V32.3H0" transform="translate(67.521 26.654)" fill="none" stroke="#263238" stroke-linecap="round" stroke-linejoin="round" stroke-miterlimit="10" stroke-width="0.845"/>
      <path id="Path-19" data-name="Path" d="M0,9.558V0H26.113" transform="translate(59.907 26.654)" fill="none" stroke="#263238" stroke-linecap="round" stroke-linejoin="round" stroke-miterlimit="10" stroke-width="0.845"/>
      <path id="Path-20" data-name="Path" d="M0,0H27.338V4.6" transform="translate(67.521 30.828)" fill="none" stroke="#263238" stroke-linecap="round" stroke-linejoin="round" stroke-miterlimit="10" stroke-width="0.845"/>
      <path id="Path-21" data-name="Path" d="M8.814,23.949H0V0" transform="translate(64.504 30.828)" fill="none" stroke="#263238" stroke-linecap="round" stroke-linejoin="round" stroke-miterlimit="10" stroke-width="0.845"/>
      <path id="Path-22" data-name="Path" d="M13.6.423H0" transform="translate(75.769 54.355)" fill="none" stroke="#263238" stroke-linecap="round" stroke-linejoin="round" stroke-miterlimit="10" stroke-width="0.845"/>
      <path id="Path-23" data-name="Path" d="M.423,0V15.972" transform="translate(94.437 38.806)" fill="none" stroke="#263238" stroke-linecap="round" stroke-linejoin="round" stroke-miterlimit="10" stroke-width="0.845"/>
      <path id="Path-24" data-name="Path" d="M27.541,0V30.854H0V23.13" transform="translate(25.099 52.208)" fill="none" stroke="#263238" stroke-linecap="round" stroke-linejoin="round" stroke-miterlimit="10" stroke-width="0.845"/>
      <path id="Path-25" data-name="Path" d="M0,21.3V0H27.541" transform="translate(25.099 49.344)" fill="none" stroke="#263238" stroke-linecap="round" stroke-linejoin="round" stroke-miterlimit="10" stroke-width="0.845"/>
      <path id="Path-26" data-name="Path" d="M11,21.879H0V0" transform="translate(28.656 57.27)" fill="none" stroke="#263238" stroke-linecap="round" stroke-linejoin="round" stroke-miterlimit="10" stroke-width="0.845"/>
      <path id="Path-27" data-name="Path" d="M7.411,0V7.614H0" transform="translate(41.67 71.535)" fill="none" stroke="#263238" stroke-linecap="round" stroke-linejoin="round" stroke-miterlimit="10" stroke-width="0.845"/>
      <path id="Path-28" data-name="Path" d="M0,0H14.882V12.262" transform="translate(34.2 53.256)" fill="none" stroke="#263238" stroke-linecap="round" stroke-linejoin="round" stroke-miterlimit="10" stroke-width="0.845"/>
      <path id="Path-29" data-name="Path" d="M0,.423H3.321" transform="translate(28.656 52.834)" fill="none" stroke="#263238" stroke-linecap="round" stroke-linejoin="round" stroke-miterlimit="10" stroke-width="0.845"/>
    </g>
    <g id="freepik--Plant--inject-81" transform="translate(326.197 248.451)">
      <path id="Path-30" data-name="Path" d="M47.8,45.321c-3.989-4.563-16.5,7.014-16.5,7.014C35.053,41.8,44.771,36.38,47.281,26.662S42.574,12.245,39.76,23.1c-.406,1.555-.921,3.144-1.5,4.732-1.293-2.2-3.93-1.977-5.7-.085h0C34.174,13.58,33.5,0,29.179,0,25.943,0,24.81,2.932,24.81,8.332V8.273C23.568,4.2,21.912,2.932,19.064,3.7c-3.507.938-.845,13.521.761,25.208A12.279,12.279,0,0,0,17.737,24.8c-3.5-3.71-9.338-2.535-2.8,12.3a61.842,61.842,0,0,1,3.845,12.313h0S11.374,37.656,8.56,26.806s-10.031-6.152-7.521,3.558S13.258,45.5,17.019,56.037c0,0-12.507-11.569-16.5-7.014-2.248,2.535,3.448,4.42,5.915,5.6a24.938,24.938,0,0,1,9.668,8.13H29.948A26.772,26.772,0,0,1,41.889,50.924C44.357,49.741,50.053,47.89,47.8,45.321Z" transform="translate(0.542 0.372)" fill="#ffb76f"/>
      <path id="Path-31" data-name="Path" d="M47.8,45.321c-3.989-4.563-16.5,7.014-16.5,7.014C35.053,41.8,44.771,36.38,47.281,26.662S42.574,12.245,39.76,23.1c-.406,1.555-.921,3.144-1.5,4.732-1.293-2.2-3.93-1.977-5.7-.085h0C34.174,13.58,33.5,0,29.179,0,25.943,0,24.81,2.932,24.81,8.332V8.273C23.568,4.2,21.912,2.932,19.064,3.7c-3.507.938-.845,13.521.761,25.208A12.279,12.279,0,0,0,17.737,24.8c-3.5-3.71-9.338-2.535-2.8,12.3a61.842,61.842,0,0,1,3.845,12.313h0S11.374,37.656,8.56,26.806s-10.031-6.152-7.521,3.558S13.258,45.5,17.019,56.037c0,0-12.507-11.569-16.5-7.014-2.248,2.535,3.448,4.42,5.915,5.6a24.938,24.938,0,0,1,9.668,8.13H29.948A26.772,26.772,0,0,1,41.889,50.924C44.357,49.741,50.053,47.89,47.8,45.321Z" transform="translate(0.542 0.372)" fill="#fff" opacity="0.6"/>
      <path id="Path-32" data-name="Path" d="M47.8,45.321c-3.989-4.563-16.5,7.014-16.5,7.014C35.053,41.8,44.771,36.38,47.281,26.662S42.574,12.245,39.76,23.1c-.406,1.555-.921,3.144-1.5,4.732-1.293-2.2-3.93-1.977-5.7-.085h0C34.174,13.58,33.5,0,29.179,0,25.943,0,24.81,2.932,24.81,8.332V8.273C23.568,4.2,21.912,2.932,19.064,3.7c-3.507.938-.845,13.521.761,25.208A12.279,12.279,0,0,0,17.737,24.8c-3.5-3.71-9.338-2.535-2.8,12.3a61.842,61.842,0,0,1,3.845,12.313h0S11.374,37.656,8.56,26.806s-10.031-6.152-7.521,3.558S13.258,45.5,17.019,56.037c0,0-12.507-11.569-16.5-7.014-2.248,2.535,3.448,4.42,5.915,5.6a24.938,24.938,0,0,1,9.668,8.13H29.948A26.772,26.772,0,0,1,41.889,50.924C44.357,49.741,50.053,47.89,47.8,45.321Z" transform="translate(0.542 0.372)" fill="none" stroke="#263238" stroke-linecap="round" stroke-linejoin="round" stroke-miterlimit="10" stroke-width="0.845"/>
      <path id="Path-33" data-name="Path" d="M35.759,45.3c-3.989-4.563-16.5,7.014-16.5,7.014,3.752-10.538,13.47-15.955,15.98-25.673s-4.707-14.417-7.521-3.558S16.905,46.631,16.905,46.631C21.976,29.155,23.446,0,17.176,0c-4.9,0-5,6.71-3.6,18.592s-1.648,29.18-1.648,29.18S9.266,28.546,5.759,24.828s-9.338-2.535-2.8,12.3c4,9.076,5.18,19.039,5.493,25.623h9.482A26.772,26.772,0,0,1,29.877,50.915C32.319,49.715,38.015,47.865,35.759,45.3Z" transform="translate(12.579 0.397)" fill="none" stroke="#263238" stroke-linecap="round" stroke-linejoin="round" stroke-miterlimit="10" stroke-width="0.845"/>
      <path id="Path-34" data-name="Path" d="M0,47.172C2.113,31.91,5.485,15.828,4.513,0" transform="translate(25.639 15.946)" fill="none" stroke="#263238" stroke-linecap="round" stroke-linejoin="round" stroke-miterlimit="10" stroke-width="0.845"/>
      <path id="Path-35" data-name="Path" d="M0,0C3.549,8.037,4.91,17.662,5.594,26.366" transform="translate(18.82 36.752)" fill="none" stroke="#263238" stroke-linecap="round" stroke-linejoin="round" stroke-miterlimit="10" stroke-width="0.845"/>
      <path id="Path-36" data-name="Path" d="M15.617,0S7.437,17.18,0,23.78" transform="translate(27.211 29.577)" fill="none" stroke="#263238" stroke-linecap="round" stroke-linejoin="round" stroke-miterlimit="10" stroke-width="0.845"/>
      <path id="Path-37" data-name="Path" d="M17.163,0S3.38,9.592,0,15.025" transform="translate(25.665 48.093)" fill="none" stroke="#263238" stroke-linecap="round" stroke-linejoin="round" stroke-miterlimit="10" stroke-width="0.845"/>
      <path id="Path-38" data-name="Path" d="M38.383,0H0L3.82,41.375H34.563L38.383,0Z" transform="translate(5.341 63.118)" fill="none" stroke="#263238" stroke-linecap="round" stroke-linejoin="round" stroke-miterlimit="10" stroke-width="0.845"/>
      <path id="Path-39" data-name="Path" d="M5.7,1.576C4.411-.621,1.783-.4,0,1.492" transform="translate(33.101 26.632)" fill="none" stroke="#263238" stroke-linecap="round" stroke-linejoin="round" stroke-miterlimit="10" stroke-width="0.845"/>
      <path id="Path-40" data-name="Path" d="M18.785,28.838S11.374,17.083,8.56,6.232-1.471.08,1.039,9.79s12.22,15.135,15.98,25.673c0,0-12.507-11.569-16.5-7.014-2.248,2.535,3.448,4.42,5.915,5.6a24.938,24.938,0,0,1,9.668,8.13H29.619" transform="translate(0.533 20.937)" fill="none" stroke="#263238" stroke-linecap="round" stroke-linejoin="round" stroke-miterlimit="10" stroke-width="0.845"/>
      <path id="Path-41" data-name="Path" d="M7.71,4.785C6.468.711,4.812-.556,1.964.213-1.9,1.244.882,11.748,2.319,24.323" transform="translate(17.642 3.886)" fill="none" stroke="#263238" stroke-linecap="round" stroke-linejoin="round" stroke-miterlimit="10" stroke-width="0.845"/>
    </g>
    <g id="freepik--Floor--inject-81" transform="translate(26.197 352.394)">
      <path id="Path-42" data-name="Path" d="M0,.423H347.02" transform="translate(0.575 0.127)" fill="none" stroke="#263238" stroke-linecap="round" stroke-linejoin="round" stroke-miterlimit="10" stroke-width="0.845"/>
    </g>
    <g id="freepik--character-1--inject-81" transform="translate(10.141 145.352)">
      <g id="freepik--Sofa--inject-81" transform="translate(0 28.732)">
        <path id="Path-43" data-name="Path" d="M164.992,70.563V22.479h0a7.327,7.327,0,0,0,7.327-7.327V7.327A7.327,7.327,0,0,0,164.992,0H0" transform="translate(16.631 108.296)" fill="none" stroke="#263238" stroke-linecap="round" stroke-linejoin="round" stroke-miterlimit="10" stroke-width="0.845"/>
        <path id="Path-44" data-name="Path" d="M118.47.423H0" transform="translate(63.152 130.352)" fill="none" stroke="#263238" stroke-linecap="round" stroke-linejoin="round" stroke-miterlimit="10" stroke-width="0.845"/>
        <path id="Path-45" data-name="Path" d="M5.425.423H0" transform="translate(53.4 130.352)" fill="none" stroke="#263238" stroke-linecap="round" stroke-linejoin="round" stroke-miterlimit="10" stroke-width="0.845"/>
        <path id="Path-46" data-name="Path" d="M11.028.423H0" transform="translate(26.654 130.352)" fill="none" stroke="#263238" stroke-linecap="round" stroke-linejoin="round" stroke-miterlimit="10" stroke-width="0.845"/>
        <path id="Path-47" data-name="Path" d="M111.346,107.738,94.614,25.724A32.18,32.18,0,0,0,63.076,0H0" transform="translate(0.575 0)" fill="none" stroke="#263238" stroke-linecap="round" stroke-linejoin="round" stroke-miterlimit="10" stroke-width="0.845"/>
        <path id="Path-48" data-name="Path" d="M0,0C3.262,5.434,3.169,16.141,3.169,16.141s5.349,8.451,3.482,17.746" transform="translate(48.11 17.746)" fill="none" stroke="#263238" stroke-linecap="round" stroke-linejoin="round" stroke-miterlimit="10" stroke-width="0.845"/>
        <path id="Path-49" data-name="Path" d="M0,1.127c5.358-1.885,15.313,0,15.313,0s8.73-2.535,15.49,0" transform="translate(35.966 32.752)" fill="none" stroke="#263238" stroke-linecap="round" stroke-linejoin="round" stroke-miterlimit="10" stroke-width="0.845"/>
        <path id="Path-50" data-name="Path" d="M0,0C3.254,5.434,3.169,16.141,3.169,16.141s5.349,8.451,3.482,17.746" transform="translate(19.808 61.225)" fill="none" stroke="#263238" stroke-linecap="round" stroke-linejoin="round" stroke-miterlimit="10" stroke-width="0.845"/>
        <path id="Path-51" data-name="Path" d="M0,1.127c5.358-1.885,15.313,0,15.313,0s8.73-2.535,15.49,0" transform="translate(7.665 76.239)" fill="none" stroke="#263238" stroke-linecap="round" stroke-linejoin="round" stroke-miterlimit="10" stroke-width="0.845"/>
      </g>
      <path id="Path-52" data-name="Path" d="M128.721,116.37s-7.192,14.637-7.825,15.3-1.47,10-1.47,10l-.9,1.614-7.673,13.859-4.225,7.335H46.166l-3.693-14.442c-2.315-1.5-8.746-33.642-8.746-33.642.076-3.051-3.237-6.287-3.237-6.287C10.842,109.576,0,93.917,0,93.917L2.485,93.8l9.085-.439C8.831,86.674,10.09,61.491,5.256,49.238,2.569,42.477,1.572,31.086,1.935,21.2c.287-7.91,4.394-11.29,6.27-14.248C12.431.308,28.175-1.357,39.11,1.035,45.583,2.472,52.868,8.953,57.7,14.007l15.27,79.318h-2.13l.515.541h66.811C141.786,105.689,128.721,116.37,128.721,116.37Z" transform="translate(37.039 43.137)" fill="#79a5f8" opacity="0.2"/>
      <path id="Path-53" data-name="Path" d="M0,31.225s28.808,16.9,34.648,17.746S52.741,34.132,69.177,7.42L67.58,0,61.056,4.614c-1.6,5.07-12.9,12.346-19.893,18.592A45.186,45.186,0,0,0,34.952,29.9C31.132,28.58,22.1,21.313,22.1,21.313" transform="translate(121.065 40.699)" fill="#fff" stroke="#263238" stroke-linecap="round" stroke-linejoin="round" stroke-miterlimit="10" stroke-width="0.845"/>
      <path id="Path-54" data-name="Path" d="M6.313.875S-.278,20.041.009,26.058c0,0,10.732,2.679,16.208,2.011s16.4.211,22.192.1,6.465-1.445,6.465-1.445.448-2.451-3.38-4.682-19.166-3.38-20.5-14.493S6.313.875,6.313.875Z" transform="translate(126.118 180.621)" fill="#757575" stroke="#263238" stroke-linecap="round" stroke-linejoin="round" stroke-miterlimit="10" stroke-width="0.845"/>
      <path id="Path-55" data-name="Path" d="M3.565.008S-2.257,15.769.979,25.741s26.4,17.375,31.546,17.375,46.3-10.293,46.3-10.293l2.062,2.256L87.227,32.5l-9.98,46.006s-4.825,2.577,0,4.183,23.163,1.606,23.485,0a16.733,16.733,0,0,0,0-4.183l2.721-5.146s-.5-9.008,0-10.293S124.537,18.989,115.85,8.7s-60-1.935-60-1.935L49.292,0Z" transform="translate(50.739 109.251)" fill="#ffb76f"/>
      <g id="Group" transform="translate(50.704 109.014)">
        <path id="Path-56" data-name="Path" d="M85.563,30.465l-5.07,2.062L78.431,30.27S37.276,40.563,32.13,40.563,3.794,33.169.583,23.189A17.8,17.8,0,0,1,0,20.831c3.541,3.5,10.4,9.5,17.611,11.561,0,0-2.1-2.206,3.49-3.38S43.859.592,43.859.592L51.38,0l4.073,4.225s7.918-1.293,18.059-2.231a271.269,271.269,0,0,0,12.051,28.47Z" transform="translate(0.431 2.789)" opacity="0.2"/>
        <path id="Path-57" data-name="Path" d="M28.35,28.445c-.5,1.285,0,10.293,0,10.293l-2.721,5.146a16.732,16.732,0,0,1,0,4.183c-.321,1.606-18.659,1.606-23.485,0s0-4.183,0-4.183L11.669,0c5.07,9.963,11.239,19.808,17.873,25.808C28.857,27.33,28.418,28.268,28.35,28.445Z" transform="translate(75.137 34.859)" opacity="0.2"/>
        <path id="Path-58" data-name="Path" d="M1.781,9.059S-1.126,3.794.488,0" transform="translate(85.481 23.679)" fill="#ffb76f" stroke="#263238" stroke-linecap="round" stroke-linejoin="round" stroke-miterlimit="10" stroke-width="0.845"/>
        <path id="Path-59" data-name="Path" d="M.541,0a28.732,28.732,0,0,0-.22,4.665" transform="translate(88.048 24.752)" fill="none" stroke="#263238" stroke-linecap="round" stroke-linejoin="round" stroke-miterlimit="10" stroke-width="0.845"/>
        <path id="Path-60" data-name="Path" d="M.9,0A29.966,29.966,0,0,0,0,3.423" transform="translate(89.011 18.71)" fill="none" stroke="#263238" stroke-linecap="round" stroke-linejoin="round" stroke-miterlimit="10" stroke-width="0.845"/>
        <path id="Path-61" data-name="Path" d="M0,0S.27,15.33,8.6,23.223" transform="translate(94.885 40.082)" fill="none" stroke="#263238" stroke-linecap="round" stroke-linejoin="round" stroke-miterlimit="10" stroke-width="0.845"/>
        <path id="Path-62" data-name="Path" d="M0,0C2.256,3.38,5.02,7.513,8.856,9.3" transform="translate(91.91 69.456)" fill="none" stroke="#263238" stroke-linecap="round" stroke-linejoin="round" stroke-miterlimit="10" stroke-width="0.845"/>
        <path id="Path-63" data-name="Path" d="M0,0C.431.794.887,1.572,1.352,2.349" transform="translate(89.13 64.851)" fill="none" stroke="#263238" stroke-linecap="round" stroke-linejoin="round" stroke-miterlimit="10" stroke-width="0.845"/>
        <path id="Path-64" data-name="Path" d="M0,8.992A68.451,68.451,0,0,1,2.476,0h2l9.456,5.493S15.651,9.634,0,8.992Z" transform="translate(1.124 0.245)" opacity="0.2"/>
      </g>
      <path id="Path-65" data-name="Path" d="M3.565.008S-2.257,15.769.979,25.741s26.4,17.375,31.546,17.375,46.3-10.293,46.3-10.293l2.062,2.256L87.227,32.5l-9.98,46.006s-4.825,2.577,0,4.183,23.163,1.606,23.485,0a16.733,16.733,0,0,0,0-4.183l2.721-5.146s-.5-9.008,0-10.293S124.537,18.989,115.85,8.7s-60-1.935-60-1.935L49.292,0Z" transform="translate(50.739 109.251)" fill="none" stroke="#263238" stroke-linecap="round" stroke-linejoin="round" stroke-miterlimit="10" stroke-width="0.845"/>
      <path id="Path-66" data-name="Path" d="M19.462,3.406,16.208,16.53l-1.014,4.082-.363,1.437-.169.71L1.792,19h0L0,18.482s.769-1.056,1.47-1.952l-.287-2.265,2.138-1.158-.727-1.361-.735-1.369,1.648.406-.245-1.8h0a8.577,8.577,0,0,1-.33-2.358h0L5.3,5.485h0L4.369,3.9h0l-.363-.608H8.231L7.868,0Z" transform="translate(126.98 187.715)" fill="#ffb76f"/>
      <path id="Path-67" data-name="Path" d="M16.208,4.783,15.194,8.865,14.831,10.3l-.169.71L1.792,7.251h0L0,6.735S.769,5.679,1.47,4.783L1.183,2.518,3.321,1.361,2.594,0,4.039.135h0l.338.042L5.662.3h0a.9.9,0,0,0,.211,0h0l.7.085h0C7.563.5,8.544.625,9.423.744h0l.541.085h0c.431.068.845.127,1.141.2s.507.1.693.152c.448.118.845.186,1.166.245h0c1.4.237,2.037.27,2.941,2.628a6.186,6.186,0,0,1,.3.727Z" transform="translate(126.98 199.462)" opacity="0.5"/>
      <path id="Path-68" data-name="Path" d="M15.194,6.541l-.532,2.146L1.792,4.927,0,4.4S.769,3.347,1.47,2.451l.575-.693h0A11.231,11.231,0,0,1,2.89.913,6.761,6.761,0,0,1,3.439.431,2.138,2.138,0,0,1,4.192.026,4.6,4.6,0,0,1,6.321.3,24.82,24.82,0,0,1,9.127,1.352s.794-.169,1.775-.279h.051a7.648,7.648,0,0,1,2.535.068C14.476,1.386,14.992,4.555,15.194,6.541Z" transform="translate(126.98 201.786)" fill="#fff" opacity="0.2"/>
      <path id="Path-69" data-name="Path" d="M11.4,5.206a7.707,7.707,0,0,0-2.535-.068h0c-1,.11-1.817.287-1.817.287A24.1,24.1,0,0,0,4.242,4.378,4.572,4.572,0,0,0,2.113,4.1,5.5,5.5,0,0,0,0,5.849,12.761,12.761,0,0,1,1.276,3.128C3.38-.312,11.417-1.1,10.969,1.691A8.637,8.637,0,0,0,11.4,5.206Z" transform="translate(129.017 197.686)" fill="#263238"/>
      <path id="Path-70" data-name="Path" d="M.558,1.224s1.082,2.138.845,3.27A1.876,1.876,0,0,1,0,5.872S2.07,7.478,3.913,6.9s1.9-.777,1.9-.777S4.4,6.008,4.479,4.689A20.814,20.814,0,0,1,5.763.4a4.961,4.961,0,0,0-5.206.828Z" transform="translate(132.313 196.742)" fill="#ffb76f"/>
      <path id="Path-71" data-name="Path" d="M.558,1.224s1.082,2.138.845,3.27A1.876,1.876,0,0,1,0,5.872S2.07,7.478,3.913,6.9s1.9-.777,1.9-.777S4.4,6.008,4.479,4.689A20.814,20.814,0,0,1,5.763.4a4.961,4.961,0,0,0-5.206.828Z" transform="translate(132.313 196.742)" fill="#fff" opacity="0.4"/>
      <path id="Path-72" data-name="Path" d="M6.123,4.655v.118a3.194,3.194,0,0,1-.186,1.276A4.851,4.851,0,0,1,5.21,7.308a1.989,1.989,0,0,1-2.273.845,2.113,2.113,0,0,1-.439-.3A4.53,4.53,0,0,1,1.652,6.9h0c-.076-.11-.118-.186-.118-.186h0a3.575,3.575,0,0,1-.423-.608C.19,4.528-.824,1.274,1.069.277h0A2.451,2.451,0,0,1,1.678.066c2.265-.49,3.938,1.851,4.361,3.955a4.884,4.884,0,0,1,.085.685Z" transform="translate(131.235 192.914)" fill="#fff"/>
      <path id="Path-73" data-name="Path" d="M10.1,9.93a1.479,1.479,0,0,1,.1.761h0c-.059.22-.245.355-.668.254A2.045,2.045,0,0,1,8.214,9.516a4.952,4.952,0,0,1-.228-1.039,3.38,3.38,0,0,0-.237-1.293h0a3.093,3.093,0,0,0-.237-.473l-.076-.127A3.135,3.135,0,0,0,6.7,5.789,2.975,2.975,0,0,0,5.442,5.24a5.282,5.282,0,0,1-2.78-2.028c-1.327,1.259-.617,3.575-.135,4.724a6.98,6.98,0,0,0,.3.668h0a1,1,0,0,1-.093.161h0A3.437,3.437,0,0,1,.389,9.82a1.039,1.039,0,0,0,.676-.845h0a1.293,1.293,0,0,0,.051-.38A4.817,4.817,0,0,0,.685,6.735,10.014,10.014,0,0,1,.33,5.7h0A8.577,8.577,0,0,1,0,3.338H0L2.366,2.2h0L1.437.609h0A2.315,2.315,0,0,1,2.476.549,4.31,4.31,0,0,1,4.623,0c1.369,0,3.22.625,5.02,3.194a5.73,5.73,0,0,1,.423,5.273h0a5.434,5.434,0,0,1-.3.71,4.808,4.808,0,0,1,.3.668q.023.041.042.085Z" transform="translate(129.921 190.986)" fill="#263238"/>
      <path id="Path-74" data-name="Path" d="M19.462,3.406,16.208,16.53l-1.014,4.082-.363,1.437-.169.71L1.792,19h0L0,18.482s.769-1.056,1.47-1.952l-.287-2.265,2.138-1.158-.727-1.361-.735-1.369,1.648.406-.245-1.8h0a8.577,8.577,0,0,1-.33-2.358h0L5.3,5.485h0L4.369,3.9h0l-.363-.608H8.231L7.868,0Z" transform="translate(126.98 187.715)" fill="none" stroke="#263238" stroke-miterlimit="10" stroke-width="0.845"/>
      <path id="Path-75" data-name="Path" d="M.4,2.189S-.5,7.732.4,8.738s2.67,12.82,2.67,12.82,23.324,3.617,30.27,3.118c9.3-.668,11.468-3.338,11.468-3.338s.161-3.566-8.586-6.363C25.429,11.527,17.114,0,17.114,0Z" transform="translate(91.715 189.355)" fill="#757575" stroke="#263238" stroke-linecap="round" stroke-linejoin="round" stroke-miterlimit="10" stroke-width="0.845"/>
      <path id="Path-76" data-name="Path" d="M22.842,11.814l-1.969,2.3H17.231l-2.062,2.282-.008.008-1.479-.127L11.518,16.1l-.659.659-1.082,1.09L8.662,17.18,7.293,19.107,5.18,22.09,4.115,18.963,0,6.837,3.177,5.687,18.93,0l3.913,11.814Z" transform="translate(107.806 132.693)" fill="#ffb76f"/>
      <path id="Path-77" data-name="Path" d="M10.361,10.665l.5.845L9.777,12.6l-1.115-.668L7.293,13.859,5.18,16.842,4.115,13.715,0,1.589,3.177.439,5.713,0A15.887,15.887,0,0,1,8.248,3.566a10.555,10.555,0,0,1,.845,2.248C9.3,6.7,9.5,7.5,9.668,8.121h0C10.107,9.794,10.361,10.665,10.361,10.665Z" transform="translate(107.806 137.915)" opacity="0.5"/>
      <path id="Path-78" data-name="Path" d="M3.177.144,1.065,3.127,0,0S1.961.042,3.177.144Z" transform="translate(111.921 151.656)" fill="#fff" opacity="0.2"/>
      <path id="Path-79" data-name="Path" d="M5.445,0A4.732,4.732,0,0,1,.467.431S-.378,4.293.205,5.315a3.777,3.777,0,0,0,1.572,1.5S1.329,5.552,2.445,5.3s1.69.152,3.515-.152S5.445,0,5.445,0Z" transform="translate(114.919 140.789)" fill="#ffb76f"/>
      <path id="Path-80" data-name="Path" d="M5.445,0A4.732,4.732,0,0,1,.467.431S-.378,4.293.205,5.315a3.777,3.777,0,0,0,1.572,1.5S1.329,5.552,2.445,5.3s1.69.152,3.515-.152S5.445,0,5.445,0Z" transform="translate(114.919 140.789)" fill="#fff" opacity="0.4"/>
      <path id="Path-81" data-name="Path" d="M9.308,2.153c1.589,2.932-.963,6.093-6.076,6.22s-3-5.425-1.47-6.955S7.559-1.075,9.308,2.153Z" transform="translate(118.898 138.433)" fill="#fff"/>
      <path id="Path-82" data-name="Path" d="M7.842,6.774S4.513,5.49,3.685,2.549L2.67,2.862s.769-.515.346-1.031S.313,2.6.9,3.411L0,3.622S.5,1.087,4.715.124,10.977,4.07,9.287,6.31c0,0,.11,2.256-3.744,2.248C5.544,8.574,7.538,7.729,7.842,6.774Z" transform="translate(119.324 137.834)" fill="#263238"/>
      <path id="Path-83" data-name="Path" d="M3.541.341,1.479,2.623h0L0,2.5C1.437.7,3.575-.656,4.918.333Z" transform="translate(121.53 146.464)" fill="#263238"/>
      <path id="Path-84" data-name="Path" d="M22.842,11.814l-1.969,2.3H17.231l-2.062,2.282-.008.008-1.479-.127L11.518,16.1l-.659.659-1.082,1.09L8.662,17.18,7.293,19.107,5.18,22.09,4.115,18.963,0,6.837,3.177,5.687,18.93,0l3.913,11.814Z" transform="translate(107.806 132.693)" fill="none" stroke="#263238" stroke-miterlimit="10" stroke-width="0.845"/>
      <path id="Path-85" data-name="Path" d="M5.834,0s8.561,1.606,13.91,10.986,7.014,7.563,9.5,9.1S19.338,34.454,14.774,36.7l-2.831-3.017S4.743,33.017.958,27,5.834,0,5.834,0Z" transform="translate(122.617 46.749)" fill="#fb7d00"/>
      <path id="Path-86" data-name="Path" d="M83.142,26.73c-7.868,13.631-28.082,34.9-28.082,34.9s1.259,1.927-1.538,5.468A5.485,5.485,0,0,1,55.06,70.31c.161,1.935-16.47,11.586-32.239,9.008S.3,72.246,0,69.026,15.934,22.758,26.852,9.6A51.887,51.887,0,0,1,56.649,0C69.274-.059,79.119,4.108,83.59,10.3" transform="translate(51.74 42.312)" fill="#fb7d00"/>
      <path id="Path-87" data-name="Path" d="M22.538,6.357c-1.732.338-3.22,2.087-4.225,3.625a18.051,18.051,0,0,0-1.377,2.493s2.535,8.358-5.839,6.761S0,9.1,0,9.1A10.249,10.249,0,0,0,4.5.45C9.845-1.417,20.028,2.986,22.454,5.208,23.113,5.808,23.206,6.248,22.538,6.357Z" transform="translate(106.572 36.741)" fill="#fff" stroke="#263238" stroke-linecap="round" stroke-linejoin="round" stroke-miterlimit="10" stroke-width="0.845"/>
      <path id="Path-88" data-name="Path" d="M7.977,2.417C6.245,2.755,4.758,4.5,3.752,6.042A8.964,8.964,0,0,1,0,0L7.893,1.259C8.552,1.868,8.645,2.307,7.977,2.417Z" transform="translate(121.132 40.682)" fill="#263238"/>
      <path id="Path-89" data-name="Path" d="M0,1.01a19.732,19.732,0,0,1,12.465,0c6.837,2.256,7.808,12.87,7.808,12.87l-.727-.955s1.023,3.752-4.318,4.724S0,1.01,0,1.01Z" transform="translate(116.4 2.539)" fill="#263238"/>
      <path id="Path-90" data-name="Path" d="M7.644,35.093s-3.8-4.715-4.851-8.028C-1.694,12.868-2.48,3.758,13.611.268,24.977-2.2,30.816,13.045,30.554,18.555c-.152,3.11,1.377,6.144,2.146,8.611.845,2.755-.777,13.521-4.3,14.442-4.5,1.124-11.941-.431-13.1-2.924" transform="translate(105.046 2.935)" fill="#fff" stroke="#263238" stroke-linecap="round" stroke-linejoin="round" stroke-miterlimit="10" stroke-width="0.845"/>
      <path id="Path-91" data-name="Path" d="M1.93,1.115c.2.744-.042,1.462-.558,1.6s-1.1-.338-1.3-1.082S.113.169.629.025,1.727.371,1.93,1.115Z" transform="translate(124.239 24.372)" fill="#263238"/>
      <path id="Path-92" data-name="Path" d="M1.936,1.115c.2.744-.042,1.462-.558,1.606s-1.1-.346-1.3-1.09S.077.169.635.025,1.733.371,1.936,1.115Z" transform="translate(132.008 21.795)" fill="#263238"/>
      <path id="Path-93" data-name="Path" d="M3.38,0A10.766,10.766,0,0,1,0,2.941" transform="translate(121.859 21.127)" fill="none" stroke="#263238" stroke-linecap="round" stroke-linejoin="round" stroke-miterlimit="10" stroke-width="0.845"/>
      <path id="Path-94" data-name="Path" d="M0,0A24.025,24.025,0,0,1,2.9.845" transform="translate(131.628 18.406)" fill="none" stroke="#263238" stroke-linecap="round" stroke-linejoin="round" stroke-miterlimit="10" stroke-width="0.845"/>
      <path id="Path-95" data-name="Path" d="M0,0S4.023,3.541,4.183,4.225,1.935,6.854,1.935,6.854" transform="translate(131.146 24.837)" fill="none" stroke="#263238" stroke-linecap="round" stroke-linejoin="round" stroke-miterlimit="10" stroke-width="0.845"/>
      <path id="Path-96" data-name="Path" d="M25.971,18.535l.845-4.589s-5.307,7.09-9.972,9.777a30.017,30.017,0,0,0,.8,6.71s-6.3-3.532-6.11,0,3.456,6.515,2.315,8.366c-.389.634-2.958.161-2.958.161S-1.333,33.94.12,18.957,13.962-.4,19.557.027C34.447,1.16,31.878,15.754,25.971,18.535Z" transform="translate(100.08 0.302)" fill="#263238"/>
      <path id="Path-97" data-name="Path" d="M4.861,1.6S.585-2,.035,1.6,5.5,10.291,6.948,8.525s0-2.1,0-2.1" transform="translate(110.069 28.329)" fill="#fff" stroke="#263238" stroke-linecap="round" stroke-linejoin="round" stroke-miterlimit="10" stroke-width="0.845"/>
      <path id="Path-98" data-name="Path" d="M6.541,0A8.966,8.966,0,0,1,0,.8" transform="translate(127.986 34.437)" fill="none" stroke="#263238" stroke-linecap="round" stroke-linejoin="round" stroke-miterlimit="10" stroke-width="0.845"/>
      <path id="Path-99" data-name="Path" d="M4.479,1.452S-1.1,25.578.194,31.375,34.682,45.209,39.423,47.888c0,0,.769,5.687,2.163,7.183a23.9,23.9,0,0,0,3,2.679v2.73a1.783,1.783,0,0,0-1.741-.752c-1.259.11.456,2.535,1.741,2.789s2.687-1.935,2.687-1.935a12.837,12.837,0,0,0,2.468.11c.845-.11,1.606-2.037,1.606-2.037s2.679,2.113,3.321,1.47-.1-7.8,0-8.873-8.358-8.146-9.862-9.3S17.349,24.911,17.349,24.911s4.614-14.054,5.687-21.025S4.479,1.452,4.479,1.452Z" transform="translate(70.31 78.957)" fill="#fff" stroke="#263238" stroke-linecap="round" stroke-linejoin="round" stroke-miterlimit="10" stroke-width="0.845"/>
      <path id="Path-100" data-name="Path" d="M0,4.994,1.31,0" transform="translate(121.656 132.575)" fill="none" stroke="#263238" stroke-linecap="round" stroke-linejoin="round" stroke-miterlimit="10" stroke-width="0.845"/>
      <path id="Path-101" data-name="Path" d="M0,3.025,1.141,0" transform="translate(117.583 136.47)" fill="none" stroke="#263238" stroke-linecap="round" stroke-linejoin="round" stroke-miterlimit="10" stroke-width="0.845"/>
      <path id="Path-102" data-name="Path" d="M0,0,1.1,1.961" transform="translate(122.307 135.068)" fill="none" stroke="#263238" stroke-linecap="round" stroke-linejoin="round" stroke-miterlimit="10" stroke-width="0.845"/>
      <path id="Path-103" data-name="Path" d="M0,4.428C1.115,3.634,1.893,0,1.893,0" transform="translate(119.155 135.068)" fill="none" stroke="#263238" stroke-linecap="round" stroke-linejoin="round" stroke-miterlimit="10" stroke-width="0.845"/>
      <path id="Path-104" data-name="Path" d="M12.515,0S3.507,8.358,3.828,14.476,0,32.13,0,32.13L1.935,34.1s12.87.642,18.98,4.225c0,0,2.687,1.69,1.927-4.5a12.676,12.676,0,0,1,4.082-8.8c2.256-1.994,2.037-13.4,2.037-13.4" transform="translate(72.676 50.062)" fill="#fb7d00"/>
      <path id="Path-105" data-name="Path" d="M9.355,24.389c1.285,6.118,6.11,14.67,8.045,18.211s9.972,31.546,9.972,31.546-.321,5.146,7.073,6.431,21.423-3.541,17.687-5.789-7.741-28.166-7.741-28.166,1.969-3.532-1.631-8.746S38.873,2.966,31.885.938C19.656-2.6,5.375,5.02,5.375,5.02S1.335,6.287,0,9.964" transform="translate(60.397 114.786)" fill="#ffb76f" stroke="#263238" stroke-linecap="round" stroke-linejoin="round" stroke-miterlimit="10" stroke-width="0.845"/>
      <path id="Path-106" data-name="Path" d="M.407,25.994c-1.5-3,1.563-4.411,2.273-7.352S1.835,9.1,5.6,0" transform="translate(72.269 56.197)" fill="none" stroke="#fff" stroke-linecap="round" stroke-linejoin="round" stroke-miterlimit="10" stroke-width="0.845"/>
      <path id="Path-107" data-name="Path" d="M0,17.349S7.8,8.78,7.107,0" transform="translate(129.566 59.696)" fill="none" stroke="#fff" stroke-linecap="round" stroke-linejoin="round" stroke-miterlimit="10" stroke-width="0.845"/>
      <path id="Path-108" data-name="Path" d="M0,20.89s2.223.076,2.087-1.842-.245-4.276.845-6.321S7.682,7.014,8.087,0" transform="translate(93.532 66.718)" fill="none" stroke="#fff" stroke-linecap="round" stroke-linejoin="round" stroke-miterlimit="10" stroke-width="0.845"/>
      <path id="Path-109" data-name="Path" d="M0,5.915S5.721,4,7.555,0" transform="translate(95.958 74.755)" fill="none" stroke="#fff" stroke-linecap="round" stroke-linejoin="round" stroke-miterlimit="10" stroke-width="0.845"/>
      <path id="Path-110" data-name="Path" d="M6.372,0A12.2,12.2,0,0,1,0,4.454" transform="translate(131.146 70.623)" fill="none" stroke="#fff" stroke-linecap="round" stroke-linejoin="round" stroke-miterlimit="10" stroke-width="0.845"/>
      <path id="Path-111" data-name="Path" d="M1.014,0A13.42,13.42,0,0,1,0,2.882" transform="translate(138.946 65.375)" fill="none" stroke="#fff" stroke-linecap="round" stroke-linejoin="round" stroke-miterlimit="10" stroke-width="0.845"/>
      <path id="Path-112" data-name="Path" d="M2.4,0A24.2,24.2,0,0,1,0,1.386" transform="translate(136.673 77.527)" fill="none" stroke="#fff" stroke-linecap="round" stroke-linejoin="round" stroke-miterlimit="10" stroke-width="0.845"/>
      <path id="Path-113" data-name="Path" d="M6.169,0A24.355,24.355,0,0,1,0,7.606" transform="translate(141.144 68.366)" fill="none" stroke="#fff" stroke-linecap="round" stroke-linejoin="round" stroke-miterlimit="10" stroke-width="0.845"/>
      <path id="Path-114" data-name="Path" d="M0,0C2.425.406,5.138,1.073,6.98,2.823" transform="translate(83.501 79.369)" fill="none" stroke="#fff" stroke-linecap="round" stroke-linejoin="round" stroke-miterlimit="10" stroke-width="0.845"/>
      <path id="Path-115" data-name="Path" d="M0,.363c.955,0,1.91.042,2.865.118" transform="translate(77.831 78.549)" fill="none" stroke="#fff" stroke-linecap="round" stroke-linejoin="round" stroke-miterlimit="10" stroke-width="0.845"/>
      <path id="Path-116" data-name="Path" d="M15.161,5.02S7.208,9.38,0,0" transform="translate(107.806 52.335)" fill="none" stroke="#fff" stroke-linecap="round" stroke-linejoin="round" stroke-miterlimit="10" stroke-width="0.845"/>
      <path id="Path-117" data-name="Path" d="M11.518,0C7.9,1.47,3.913,2.873,0,2.89" transform="translate(91.817 100.428)" fill="none" stroke="#fff" stroke-linecap="round" stroke-linejoin="round" stroke-miterlimit="10" stroke-width="0.845"/>
      <path id="Path-118" data-name="Path" d="M2.941,0C1.977.5,1,.972,0,1.428" transform="translate(106.073 97.808)" fill="none" stroke="#fff" stroke-linecap="round" stroke-linejoin="round" stroke-miterlimit="10" stroke-width="0.845"/>
      <path id="Path-119" data-name="Path" d="M0,0A17.746,17.746,0,0,0,11.2,1" transform="translate(57.549 106.166)" fill="none" stroke="#fff" stroke-linecap="round" stroke-linejoin="round" stroke-miterlimit="10" stroke-width="0.845"/>
      <path id="Path-120" data-name="Path" d="M0,9.6C2.214,5.054,5.915.989,11.045,0" transform="translate(72.456 116.865)" fill="none" stroke="#263238" stroke-linecap="round" stroke-linejoin="round" stroke-miterlimit="10" stroke-width="0.845"/>
      <path id="Path-121" data-name="Path" d="M0,3.558A26.054,26.054,0,0,1,1.056,0" transform="translate(70.31 129.017)" fill="none" stroke="#263238" stroke-linecap="round" stroke-linejoin="round" stroke-miterlimit="10" stroke-width="0.845"/>
      <path id="Path-122" data-name="Path" d="M0,1.5S4.9-.706,9.718.232" transform="translate(56.045 119.54)" fill="none" stroke="#263238" stroke-linecap="round" stroke-linejoin="round" stroke-miterlimit="10" stroke-width="0.845"/>
      <path id="Path-123" data-name="Path" d="M0,.37a10.141,10.141,0,0,0,2.915,0" transform="translate(101.873 161.039)" fill="none" stroke="#263238" stroke-linecap="round" stroke-linejoin="round" stroke-miterlimit="10" stroke-width="0.845"/>
      <path id="Path-124" data-name="Path" d="M0,0C4.834,5.831,11.163,12.051,18.49,14.451" transform="translate(80.696 146.358)" fill="none" stroke="#263238" stroke-linecap="round" stroke-linejoin="round" stroke-miterlimit="10" stroke-width="0.845"/>
      <path id="Path-125" data-name="Path" d="M.473,10.91s7-2.713,8.518-3.955S11.527-1.5,14.527.279c.8.465.372,3.693.372,3.693a4.656,4.656,0,0,1,2.13,1.006c.845.794-.524,3.211-.524,3.211A5.915,5.915,0,0,1,17.535,12c-.042,1.369-2.882,4.648-6.685,7.352C7.724,21.575,4.039,23.806,0,20.9" transform="translate(185.383 30.329)" fill="#fff" stroke="#263238" stroke-linecap="round" stroke-linejoin="round" stroke-miterlimit="10" stroke-width="0.845"/>
      <path id="Path-126" data-name="Path" d="M1.068,15.515a10.006,10.006,0,0,1-.845-6.6C1.127,5.6,6.8,3.507,8.285,0c0,0,.9.127.955,1.927s-3.025,5.29-3.025,5.29a8.146,8.146,0,0,1,.245,6.82" transform="translate(181.687 32.518)" fill="#fff" stroke="#263238" stroke-linecap="round" stroke-linejoin="round" stroke-miterlimit="10" stroke-width="0.845"/>
      <path id="Path-127" data-name="Path" d="M4.6.307C3-.454,2.493.214,2.189,2.166L0,3.771" transform="translate(198.22 40.358)" fill="none" stroke="#263238" stroke-linecap="round" stroke-linejoin="round" stroke-miterlimit="10" stroke-width="0.845"/>
      <path id="Path-128" data-name="Path" d="M4.192,1.295A1.69,1.69,0,0,0,2.958.01c-1.014-.2-1.183,2.738-1.183,2.738L0,3.661" transform="translate(197.696 37.224)" fill="none" stroke="#263238" stroke-linecap="round" stroke-linejoin="round" stroke-miterlimit="10" stroke-width="0.845"/>
      <path id="Path-129" data-name="Path" d="M3.752,0,1.639.152s-.507.98.685,2.054c0,0-.321.845-2.324,2.121" transform="translate(196.53 34.301)" fill="none" stroke="#263238" stroke-linecap="round" stroke-linejoin="round" stroke-miterlimit="10" stroke-width="0.845"/>
    </g>
    <g id="freepik--character-2--inject-81" transform="translate(190.141 45.634)">
      <path id="Path-130" data-name="Path" d="M.748,0C-1.3,0,.968,20.823,6.1,19.006s7.69-13.859,7.69-13.859Z" transform="translate(37.069 119.586)" fill="#263238" stroke="#263238" stroke-linecap="round" stroke-linejoin="round" stroke-miterlimit="10" stroke-width="0.845"/>
      <path id="Path-131" data-name="Path" d="M25.459,16.179s-6.161,3.693-9.406,5.172c-3.423,1.563-8.121-.228-8.121-.228-1.944.735-7.766-3.38-7.927-3.9-.254-.752,8.451-13.31,8.451-13.31A1.69,1.69,0,0,1,6.884,1.923,17.13,17.13,0,0,0,13.3.233c3.3-1.6,10.276,5.552,10.276,5.552l8.713-3.558,1.377,12.008Z" transform="translate(12.949 118.288)" fill="#bfbfbf" stroke="#263238" stroke-linecap="round" stroke-linejoin="round" stroke-miterlimit="10" stroke-width="0.845"/>
      <path id="Path-132" data-name="Path" d="M48.38,0C45.1,5.3,40.935,45.042,40.935,45.042l-3.186,1.42-1.335,4.115S13.039,60.456,9.025,61.961A29.324,29.324,0,0,1,0,63.423s5.349,3.845,6.017,8.451S5.349,82.42,5.349,82.42s40.242-14.265,44.392-15.7,11.9-23.806,11.9-23.806Z" transform="translate(37.817 56.163)" fill="#ffb76f"/>
      <g id="Group-2" data-name="Group" transform="translate(85.183 54.085)">
        <path id="Path-133" data-name="Path" d="M10.047,31.352c-2.611,6.439-6.194,14.2-8.586,15.025l-.3.1C-2.621,25.411,4.03,0,4.03,0Z" transform="translate(0.914 22.428)" opacity="0.2"/>
        <path id="Path-134" data-name="Path" d="M20.256,0c5.679,8.687,17.383,44.7,18.718,49.707S33.786,66.431,25.352,66.262,0,55.724,0,55.724s11.341-.558,6.575-16.665l9.473,2.358s-5.07-13.648-7.361-18.592C5.62,16.141,3.228,14.806,3.008,3.439" transform="translate(48.718 0.456)" fill="#ffb76f" stroke="#263238" stroke-linecap="round" stroke-linejoin="round" stroke-miterlimit="10" stroke-width="0.845"/>
        <path id="Path-135" data-name="Path" d="M20.256,0c5.679,8.687,17.383,44.7,18.718,49.707S33.786,66.431,25.352,66.262,0,55.724,0,55.724s11.341-.558,6.575-16.665l9.473,2.358s-5.07-13.648-7.361-18.592C5.62,16.141,3.228,14.806,3.008,3.439" transform="translate(48.718 0.456)" fill="#ffb76f" stroke="#263238" stroke-linecap="round" stroke-linejoin="round" stroke-miterlimit="10" stroke-width="0.845"/>
        <path id="Path-136" data-name="Path" d="M20.256,0c5.679,8.687,17.383,44.7,18.718,49.707S33.786,66.431,25.352,66.262,0,55.724,0,55.724s11.341-.558,6.575-16.665l9.473,2.358s-5.07-13.648-7.361-18.592C5.62,16.141,3.228,14.806,3.008,3.439" transform="translate(48.718 0.456)" fill="#ffb76f" stroke="#263238" stroke-linecap="round" stroke-linejoin="round" stroke-miterlimit="10" stroke-width="0.845"/>
        <path id="Path-137" data-name="Path" d="M20.256,0c5.679,8.687,17.383,44.7,18.718,49.707S33.786,66.431,25.352,66.262,0,55.724,0,55.724s11.341-.558,6.575-16.665l9.473,2.358s-5.07-13.648-7.361-18.592C5.62,16.141,3.228,14.806,3.008,3.439" transform="translate(48.718 0.456)" fill="#ffb76f" stroke="#263238" stroke-linecap="round" stroke-linejoin="round" stroke-miterlimit="10" stroke-width="0.845"/>
      </g>
      <path id="Path-138" data-name="Path" d="M48.38,0C45.1,5.3,40.935,45.042,40.935,45.042l-3.186,1.42-1.335,4.115S13.039,60.456,9.025,61.961A29.324,29.324,0,0,1,0,63.423s5.349,3.845,6.017,8.451S5.349,82.42,5.349,82.42s40.242-14.265,44.392-15.7,11.9-23.806,11.9-23.806Z" transform="translate(37.817 56.163)" fill="none" stroke="#263238" stroke-linecap="round" stroke-linejoin="round" stroke-miterlimit="10" stroke-width="0.845"/>
      <path id="Path-139" data-name="Path" d="M27.753,22.555s1.563-5.966-.262-8.18c-3.287-3.972.4-7.3-2.9-8.687L23.215,7.293c-.27-1.623.5-6.566-5.611-7.217C10.217-.7,10.074,4.682,9.677,6.448l.118-2.476c-3.144,0-1.513,3.144-6.287,8.29A13.6,13.6,0,0,0,.051,22.555Z" transform="translate(109.994 284.755)" fill="#263238"/>
      <path id="Path-140" data-name="Path" d="M39.427,22.784c2.975-1.327.245-12.532.245-12.532s4-2.687,0-5.468A11.13,11.13,0,0,1,28.323,6.626s-.786-7.5-5.476-6.541c0,0-1.2,4.758-3.955,7.47C11.439,14.916,1.8,15.753.191,19.3c-.482,1.065.1,3.482.1,3.482Z" transform="translate(41.978 284.526)" fill="#263238"/>
      <path id="Path-141" data-name="Path" d="M32.538,1.631,28.871,9.38a410.132,410.132,0,0,0-24.4,67.082c-.22.845-5.02,17.814-1.175,60.042L1.11,143.915l2.366,12.245s-3.6,5.206-3.473,6.9c0,0,8.89,1.69,11.831,3.254,2.307,1.242,9.228,8.079,9.228,8.079,1.961-.406,2.138-8.349,2.138-8.349s4.115-70.5,5.282-73.521,8.4-16.132,19.648-46.107c0,0,.254,41.873,3.262,52.462,2.67,9.423-.49,35.8-.49,35.8l1.8,29.358s-6.33,6.575-1.192,8.341c0,0,3.423-6.6,13.2-8.1,4.961-.761,11.155,8.054,11.155,8.054,2.172-.693-.93-11.772-.93-11.772,6.93-52.259,1.817-42.8,3.2-68.341C78.984,75.828,83.674,5.7,78.223,0Z" transform="translate(61.594 126.82)" fill="#757575"/>
      <g id="Group-3" data-name="Group" transform="translate(82.817 126.761)">
        <path id="Path-142" data-name="Path" d="M54.828,25.834C30.372,27.761,9.194,19.758,0,15.575c1.741-3.921,2.814-6.135,2.814-6.135L6.482,1.69,52.217,0C54.186,2.087,54.837,12.541,54.828,25.834Z" transform="translate(4.834 0)" opacity="0.2"/>
        <path id="Path-143" data-name="Path" d="M26.139,10.918C15.01,40.5,7.86,53.468,6.7,56.493,6.035,58.242,4.4,82.183,3.12,102.279,1.649,84,.145,64.707.01,60.921-.261,53.392,5.182,43.056,6,40.386S4.97,34.825,4.97,34.825l9.794-12.346C14.435,18.254,19.615,0,19.615,0,22.691,2.915,25.4,9.127,26.139,10.918Z" transform="translate(0.616 36.068)" opacity="0.2"/>
      </g>
      <path id="Path-144" data-name="Path" d="M32.538,1.631,28.871,9.38a410.132,410.132,0,0,0-24.4,67.082c-.22.845-5.02,17.814-1.175,60.042L1.11,143.915l2.366,12.245s-3.6,5.206-3.473,6.9c0,0,8.89,1.69,11.831,3.254,2.307,1.242,9.228,8.079,9.228,8.079,1.961-.406,2.138-8.349,2.138-8.349s4.115-70.5,5.282-73.521,8.4-16.132,19.648-46.107c0,0,.254,41.873,3.262,52.462,2.67,9.423-.49,35.8-.49,35.8l1.8,29.358s-6.33,6.575-1.192,8.341c0,0,3.423-6.6,13.2-8.1,4.961-.761,11.155,8.054,11.155,8.054,2.172-.693-.93-11.772-.93-11.772,6.93-52.259,1.817-42.8,3.2-68.341C78.984,75.828,83.674,5.7,78.223,0Z" transform="translate(61.594 126.82)" fill="none" stroke="#263238" stroke-linecap="round" stroke-linejoin="round" stroke-miterlimit="10" stroke-width="0.845"/>
      <path id="Path-145" data-name="Path" d="M10.361,13.8S4.775,3.008,0,0" transform="translate(99.414 159.439)" fill="none" stroke="#263238" stroke-linecap="round" stroke-linejoin="round" stroke-miterlimit="10" stroke-width="0.845"/>
      <path id="Path-146" data-name="Path" d="M0,0S16.986,5.172,22.868,6.169" transform="translate(97.318 155.915)" fill="none" stroke="#263238" stroke-linecap="round" stroke-linejoin="round" stroke-miterlimit="10" stroke-width="0.845"/>
      <path id="Path-147" data-name="Path" d="M2.975,0c-.735,14.138-5.721,16.538-.9,19.623,0,0-.135,6.617,2.265,10.808" transform="translate(103.039 138.592)" fill="none" stroke="#263238" stroke-linecap="round" stroke-linejoin="round" stroke-miterlimit="10" stroke-width="0.845"/>
      <path id="Path-148" data-name="Path" d="M.281,0s-2,21.727,4.682,25.808" transform="translate(135.488 133.192)" fill="none" stroke="#263238" stroke-linecap="round" stroke-linejoin="round" stroke-miterlimit="10" stroke-width="0.845"/>
      <path id="Path-149" data-name="Path" d="M3.778,0s.5,14.468,0,26.121c0,0-1.69,49.268-3.38,55.454S2.975,97.09,2.6,123.828" transform="translate(136.673 140.189)" fill="none" stroke="#263238" stroke-linecap="round" stroke-linejoin="round" stroke-miterlimit="10" stroke-width="0.845"/>
      <path id="Path-150" data-name="Path" d="M0,.19A6.913,6.913,0,0,1,4.682.815" transform="translate(124.403 284.801)" fill="none" stroke="#263238" stroke-linecap="round" stroke-linejoin="round" stroke-miterlimit="10" stroke-width="0.845"/>
      <path id="Path-151" data-name="Path" d="M0,4.935A25.623,25.623,0,0,1,7.2,0" transform="translate(114.346 285.896)" fill="none" stroke="#263238" stroke-linecap="round" stroke-linejoin="round" stroke-miterlimit="10" stroke-width="0.845"/>
      <path id="Path-152" data-name="Path" d="M0,0C3.752,4.225,9.693,12.127,15.786,12.8" transform="translate(117.144 176.62)" fill="none" stroke="#263238" stroke-linecap="round" stroke-linejoin="round" stroke-miterlimit="10" stroke-width="0.845"/>
      <path id="Path-153" data-name="Path" d="M0,0C1.158,1.462,2.341,2.89,3.549,4.3" transform="translate(111.363 169.775)" fill="none" stroke="#263238" stroke-linecap="round" stroke-linejoin="round" stroke-miterlimit="10" stroke-width="0.845"/>
      <path id="Path-154" data-name="Path" d="M0,0S8.527,11.6,13.208,12.27" transform="translate(116.713 219.017)" fill="none" stroke="#263238" stroke-linecap="round" stroke-linejoin="round" stroke-miterlimit="10" stroke-width="0.845"/>
      <path id="Path-155" data-name="Path" d="M23.865,0S8.654,42.254,3.406,46.479c0,0-.6,31.09-.769,41.958S0,113.73,0,113.73" transform="translate(82.817 171.11)" fill="none" stroke="#263238" stroke-linecap="round" stroke-linejoin="round" stroke-miterlimit="10" stroke-width="0.845"/>
      <path id="Path-156" data-name="Path" d="M0,0S5.848,2.02,8.687,3.313a7.792,7.792,0,0,1,3.845,4.124" transform="translate(66.566 284.527)" fill="none" stroke="#263238" stroke-linecap="round" stroke-linejoin="round" stroke-miterlimit="10" stroke-width="0.845"/>
      <path id="Path-157" data-name="Path" d="M0,20.527C8.155,15.406,18.9,9.017,23.231,0" transform="translate(81.363 181.808)" fill="none" stroke="#263238" stroke-linecap="round" stroke-linejoin="round" stroke-miterlimit="10" stroke-width="0.845"/>
      <path id="Path-158" data-name="Path" d="M0,2.662C1.538,1.817,3.059.913,4.563,0" transform="translate(74.256 203.89)" fill="none" stroke="#263238" stroke-linecap="round" stroke-linejoin="round" stroke-miterlimit="10" stroke-width="0.845"/>
      <path id="Path-159" data-name="Path" d="M0,3.11C4.386,3.051,9.186,2.468,12.93,0" transform="translate(99.938 141.194)" fill="none" stroke="#263238" stroke-linecap="round" stroke-linejoin="round" stroke-miterlimit="10" stroke-width="0.845"/>
      <path id="Path-160" data-name="Path" d="M0,.249C1.259.427,2.535.528,3.786.6" transform="translate(92.958 143.649)" fill="none" stroke="#263238" stroke-linecap="round" stroke-linejoin="round" stroke-miterlimit="10" stroke-width="0.845"/>
      <path id="Path-161" data-name="Path" d="M.021,23.155a11.591,11.591,0,0,0,1.6,3.676h0c.946,14.028,2.628,34.7,4.538,39.3,2.958,7.115-3.887,31.538-3.887,31.538,17.3,7.479,58.876.845,58.876.845S54.444,76.851,58.01,61.5c1.386-5.915,3.3-14.738,5.138-23.282,2.9-13.521,5.586-26.349,5.586-26.349S60.706.964,34.88.042.773,13.513.773,13.513A14.721,14.721,0,0,0,0,18.583" transform="translate(85.424 42.651)" fill="#ffb76f"/>
      <path id="Path-162" data-name="Path" d="M.021,23.155a11.591,11.591,0,0,0,1.6,3.676h0c.946,14.028,2.628,34.7,4.538,39.3,2.958,7.115-3.887,31.538-3.887,31.538,17.3,7.479,58.876.845,58.876.845S54.444,76.851,58.01,61.5c1.386-5.915,3.3-14.738,5.138-23.282,2.9-13.521,5.586-26.349,5.586-26.349S60.706.964,34.88.042.773,13.513.773,13.513A14.721,14.721,0,0,0,0,18.583" transform="translate(85.424 42.651)" fill="none" stroke="#263238" stroke-linecap="round" stroke-linejoin="round" stroke-miterlimit="10" stroke-width="0.845"/>
      <path id="Path-163" data-name="Path" d="M22.99,9.8s-2.738,8.535-11.1,10.141c-3.524.676-5.113-.414-5.78-1.9a8.147,8.147,0,0,1-.059-4.851s-.237-.541-.659-1.3c-.2-.363-.439-.769-.718-1.192C3.689,9.156,2.193,7.407.452,7.069-.207,6.942-.114,6.5.528,5.911,2.953,3.671,12.706-1.467,18.046.4A12.414,12.414,0,0,0,22.99,9.8Z" transform="translate(97.314 32.912)" fill="#bfbfbf" stroke="#263238" stroke-linecap="round" stroke-linejoin="round" stroke-miterlimit="10" stroke-width="0.845"/>
      <path id="Path-164" data-name="Path" d="M.718,11.3A8.147,8.147,0,0,1,.659,6.448S.423,5.907,0,5.146C3.38,2.442,6.98,0,6.98,0S7.4,8.358.718,11.3Z" transform="translate(102.71 39.651)" fill="#263238"/>
      <path id="Path-165" data-name="Path" d="M0,2.637S.921,12.727,7.276,17,9.27,0,9.27,0Z" transform="translate(80.856 13.69)" fill="#263238"/>
      <path id="Path-166" data-name="Path" d="M31.822,27.363S32.244,21.321,31.2,18C26.768,3.794,22.2-4.133,7.01,2.214-3.722,6.693.2,22.5,3.571,26.907c1.9,2.459,2.383,5.823,3.169,8.29.845,2.746,8.392,10.673,11.789,9.38,4.335-1.648,9.541-7.175,9.076-9.887" transform="translate(83.463 4.369)" fill="#bfbfbf" stroke="#263238" stroke-linecap="round" stroke-linejoin="round" stroke-miterlimit="10" stroke-width="0.845"/>
      <path id="Path-167" data-name="Path" d="M.121,1.67c.254.727.845,1.175,1.369,1s.7-.913.448-1.639S1.093-.138.561.039-.141.944.121,1.67Z" transform="translate(96.952 26.656)" fill="#263238"/>
      <path id="Path-168" data-name="Path" d="M.118,1.678c.254.727.845,1.175,1.369,1s.71-.913.448-1.639S1.09-.139.566.039-.144.952.118,1.678Z" transform="translate(89.105 28.989)" fill="#263238"/>
      <path id="Path-169" data-name="Path" d="M4.5.809A4.8,4.8,0,0,0,0,.421" transform="translate(94.961 22.785)" fill="none" stroke="#263238" stroke-linecap="round" stroke-linejoin="round" stroke-miterlimit="10" stroke-width="0.845"/>
      <path id="Path-170" data-name="Path" d="M1.961,0S-.456.237.077,2.358" transform="translate(86.577 25.648)" fill="none" stroke="#263238" stroke-linecap="round" stroke-linejoin="round" stroke-miterlimit="10" stroke-width="0.845"/>
      <path id="Path-171" data-name="Path" d="M.958,0S-.487,7.344.172,7.606c1.842.761,4.766-2.18,4.766-2.18" transform="translate(91.662 30.651)" fill="none" stroke="#263238" stroke-linecap="round" stroke-linejoin="round" stroke-miterlimit="10" stroke-width="0.845"/>
      <path id="Path-172" data-name="Path" d="M0,3.085A8.975,8.975,0,0,0,5.823,0s.406,3.744-1.749,4.411A2.738,2.738,0,0,1,.87,3.237" transform="translate(95.341 37.369)" fill="#fff" stroke="#263238" stroke-linecap="round" stroke-linejoin="round" stroke-miterlimit="10" stroke-width="0.845"/>
      <path id="Path-173" data-name="Path" d="M21.72,13.868S13.7,15.955,9.762,19.546c0,0-7.9,2.7-9.642-5.07C-.928,9.777,5.258,3.921,5.258,3.921l-.566,3.6S10.167,0,22.438,0c15.439,0,16.9,13.715,17.02,21.059A28.634,28.634,0,0,1,36.61,34.732l-2.535-1.808s.338-15.254-5.518-5.7c0,0,.169-4.656-3.507-5.992S21.72,13.868,21.72,13.868Z" transform="translate(78.776 0.499)" fill="#263238"/>
      <path id="Path-174" data-name="Path" d="M0,3.492S1.445-1.917,3.963.729s.482,10.259-1.69,9.634-1.2-1.69-1.2-1.69" transform="translate(108.811 22.917)" fill="#bfbfbf" stroke="#263238" stroke-linecap="round" stroke-linejoin="round" stroke-miterlimit="10" stroke-width="0.845"/>
      <path id="Path-175" data-name="Path" d="M59.527,93.152S17.949,99.786.651,92.307c0,0,6.845-24.423,3.887-31.538C2.628,56.163.946,35.493,0,21.465H0S7.606,7.487,14.155,3.338A6.541,6.541,0,0,0,20.341,8.07c5.07.245,12.8-8.07,12.8-8.07S53.375,15.752,61.53,32.873c-1.834,8.544-3.752,17.341-5.138,23.282C52.825,71.485,59.527,93.152,59.527,93.152Z" transform="translate(87.042 48.034)" fill="#fff"/>
      <path id="Path-176" data-name="Path" d="M52.107,66.93C43.006,61.352,23.932,49,19.91,41.087c0,0-13.234,1.969-15.211-1.023S0,18.245,0,18.245l28.445-1.014L45.718,30.076l1.977-9.3S43.825,4.589,47.7,0a67.546,67.546,0,0,1,7.9,12.389c-1.834,8.544-3.752,17.341-5.138,23.282C48.051,46.1,50.375,59.451,52.107,66.93Z" transform="translate(92.958 68.51)" opacity="0.2"/>
      <path id="Path-177" data-name="Path" d="M59.527,93.152S17.949,99.786.651,92.307c0,0,6.845-24.423,3.887-31.538C2.628,56.163.946,35.493,0,21.465H0S7.606,7.487,14.155,3.338A6.541,6.541,0,0,0,20.341,8.07c5.07.245,12.8-8.07,12.8-8.07S53.375,15.752,61.53,32.873c-1.834,8.544-3.752,17.341-5.138,23.282C52.825,71.485,59.527,93.152,59.527,93.152Z" transform="translate(87.042 48.034)" fill="none" stroke="#263238" stroke-linecap="round" stroke-linejoin="round" stroke-miterlimit="10" stroke-width="0.845"/>
      <path id="Path-178" data-name="Path" d="M0,.958S4.285-1.2,5.62.958" transform="translate(78.777 100.248)" fill="none" stroke="#263238" stroke-linecap="round" stroke-linejoin="round" stroke-miterlimit="10" stroke-width="0.845"/>
      <path id="Path-179" data-name="Path" d="M0,1.158A7.132,7.132,0,0,0,3.161,0" transform="translate(79.623 106.741)" fill="none" stroke="#263238" stroke-linecap="round" stroke-linejoin="round" stroke-miterlimit="10" stroke-width="0.845"/>
      <path id="Path-180" data-name="Path" d="M0,0A9.482,9.482,0,0,0,2.535.972" transform="translate(74.256 106.741)" fill="none" stroke="#263238" stroke-linecap="round" stroke-linejoin="round" stroke-miterlimit="10" stroke-width="0.845"/>
      <path id="Path-181" data-name="Path" d="M3.439.059A18.456,18.456,0,0,1,0,.786" transform="translate(99.456 131.89)" fill="none" stroke="#263238" stroke-linecap="round" stroke-linejoin="round" stroke-miterlimit="10" stroke-width="0.845"/>
      <path id="Path-182" data-name="Path" d="M21.583,0A126.929,126.929,0,0,1,0,11.654" transform="translate(106.023 119.155)" fill="none" stroke="#263238" stroke-linecap="round" stroke-linejoin="round" stroke-miterlimit="10" stroke-width="0.845"/>
      <path id="Path-183" data-name="Path" d="M0,0S4.361,7.445,9.87,7.285" transform="translate(133.876 72.828)" fill="none" stroke="#263238" stroke-linecap="round" stroke-linejoin="round" stroke-miterlimit="10" stroke-width="0.845"/>
      <path id="Path-184" data-name="Path" d="M21.532,0C17.442,8.772,10.656,21.127,0,22.665" transform="translate(98.265 67.039)" fill="none" stroke="#263238" stroke-linecap="round" stroke-linejoin="round" stroke-miterlimit="10" stroke-width="0.845"/>
      <path id="Path-185" data-name="Path" d="M1.132,0C.777.955.4,1.9,0,2.839" transform="translate(121.014 61.462)" fill="none" stroke="#263238" stroke-linecap="round" stroke-linejoin="round" stroke-miterlimit="10" stroke-width="0.845"/>
      <rect id="Rectangle" width="34.487" height="16.437" rx="2.992" transform="translate(2.723 116.719) rotate(7.37)" fill="#fb7d00" stroke="#263238" stroke-linecap="round" stroke-linejoin="round" stroke-miterlimit="10" stroke-width="0.845"/>
      <rect id="Rectangle-2" data-name="Rectangle" width="22.825" height="16.437" transform="translate(8.514 117.467) rotate(7.37)" fill="#fff"/>
      <path id="Path-186" data-name="Path" d="M.308,1.741.537,0" transform="translate(6.832 126.338)" fill="#fff" stroke="#263238" stroke-linecap="round" stroke-linejoin="round" stroke-miterlimit="10" stroke-width="0.845"/>
      <path id="Path-187" data-name="Path" d="M22.986,4.8l-.355,2.746L0,4.614.6,0" transform="translate(6.406 129.144)" fill="none" stroke="#263238" stroke-linecap="round" stroke-linejoin="round" stroke-miterlimit="10" stroke-width="0.845"/>
      <path id="Path-188" data-name="Path" d="M.668,0,.177,3.761" transform="translate(29.915 124.775)" fill="#fff" stroke="#263238" stroke-linecap="round" stroke-linejoin="round" stroke-miterlimit="10" stroke-width="0.845"/>
      <path id="Path-189" data-name="Path" d="M0,3.177.406,0,23.045,2.924,22.7,5.569" transform="translate(8.104 117.465)" fill="none" stroke="#263238" stroke-linecap="round" stroke-linejoin="round" stroke-miterlimit="10" stroke-width="0.845"/>
      <path id="Path-190" data-name="Path" d="M2.23,1.173A1.115,1.115,0,1,1,1.26.009a1.115,1.115,0,0,1,.97,1.164Z" transform="translate(31.337 131.452)" fill="#263238"/>
      <path id="Path-191" data-name="Path" d="M1.112.63A.558.558,0,1,1,.63,0,.558.558,0,0,1,1.112.63Z" transform="translate(32.902 124.212)" fill="#263238"/>
      <path id="Path-192" data-name="Path" d="M1.111.63A.558.558,0,1,1,.629,0,.566.566,0,0,1,1.111.63Z" transform="translate(32.616 126.418)" fill="#263238"/>
      <path id="Path-193" data-name="Path" d="M.479,1.1A.549.549,0,0,1,.006.479.541.541,0,0,1,.623.006.549.549,0,0,1,1.1.623.558.558,0,0,1,.479,1.1Z" transform="translate(33.864 125.462)" fill="#263238"/>
      <path id="Path-194" data-name="Path" d="M.486,1.1A.549.549,0,0,1,0,.486.558.558,0,0,1,.63,0,.549.549,0,0,1,1.1.63.541.541,0,0,1,.486,1.1Z" transform="translate(31.626 125.176)" fill="#263238"/>
      <path id="Path-195" data-name="Path" d="M.008.965A1.1,1.1,0,0,1,1.251.011a1.115,1.115,0,0,1,.963,1.242,1.1,1.1,0,0,1-1.242.955A1.115,1.115,0,0,1,.008.965Z" transform="translate(3.98 120.556)" fill="#263238"/>
      <path id="Path-196" data-name="Path" d="M0,.486a.558.558,0,1,1,.482.625A.566.566,0,0,1,0,.486Z" transform="translate(3.537 128.81)" fill="#263238"/>
      <path id="Path-197" data-name="Path" d="M0,.479A.549.549,0,0,1,.63.006.541.541,0,0,1,1.1.623.549.549,0,0,1,.486,1.1.558.558,0,0,1,0,.479Z" transform="translate(3.823 126.619)" fill="#263238"/>
      <path id="Path-198" data-name="Path" d="M.621,0A.558.558,0,0,1,1.1.63.541.541,0,0,1,.486,1.1.553.553,0,0,1,.621,0Z" transform="translate(2.582 127.601)" fill="#263238"/>
      <path id="Path-199" data-name="Path" d="M.565,0a.549.549,0,0,1,.482.617A.558.558,0,0,1,.422,1.1.558.558,0,0,1,.565,0Z" transform="translate(4.843 127.868)" fill="#263238"/>
      <rect id="Rectangle-3" data-name="Rectangle" width="20.037" height="13.496" transform="translate(9.71 119.096) rotate(7.37)" fill="#263238"/>
      <rect id="Rectangle-4" data-name="Rectangle" width="34.487" height="16.437" rx="2.992" transform="translate(90.485 84.524) rotate(-9.33)" fill="#fb7d00" stroke="#263238" stroke-linecap="round" stroke-linejoin="round" stroke-miterlimit="10" stroke-width="0.845"/>
      <rect id="Rectangle-5" data-name="Rectangle" width="22.825" height="16.437" transform="translate(96.239 83.587) rotate(-9.33)" fill="#fff"/>
      <path id="Path-200" data-name="Path" d="M.566,1.732.279,0" transform="translate(97.403 92.417)" fill="#fff" stroke="#263238" stroke-linecap="round" stroke-linejoin="round" stroke-miterlimit="10" stroke-width="0.845"/>
      <path id="Path-201" data-name="Path" d="M22.825,0l.448,2.73L.752,6.423,0,1.834" transform="translate(98.146 93.38)" fill="none" stroke="#263238" stroke-linecap="round" stroke-linejoin="round" stroke-miterlimit="10" stroke-width="0.845"/>
      <path id="Path-202" data-name="Path" d="M.114,0,.731,3.744" transform="translate(119.362 84.254)" fill="#fff" stroke="#263238" stroke-linecap="round" stroke-linejoin="round" stroke-miterlimit="10" stroke-width="0.845"/>
      <path id="Path-203" data-name="Path" d="M.515,6.87,0,3.7,22.521,0l.431,2.637" transform="translate(96.237 79.885)" fill="none" stroke="#263238" stroke-linecap="round" stroke-linejoin="round" stroke-miterlimit="10" stroke-width="0.845"/>
      <path id="Path-204" data-name="Path" d="M0,0,.693,5.594A2.848,2.848,0,0,0,2.768,2.5,2.848,2.848,0,0,0,0,0Z" transform="translate(108.566 86.485)" fill="#fb7d00"/>
      <path id="Path-205" data-name="Path" d="M2.1,0a2.848,2.848,0,0,0,.685,5.594Z" transform="translate(105.632 86.586)" fill="#fb7d00"/>
      <path id="Path-206" data-name="Path" d="M5.628,5.056C3.938,4.963,0,.459,0,.459A11.332,11.332,0,0,1,2.146,0c2.121-.1,5.223,3.38,5.223,3.38" transform="translate(15.254 134.381)" fill="#bfbfbf" stroke="#263238" stroke-linecap="round" stroke-linejoin="round" stroke-miterlimit="10" stroke-width="0.845"/>
      <path id="Path-207" data-name="Path" d="M6,4.9c-3.38.051-6-4.09-6-4.09A2.687,2.687,0,0,1,1.225.078c2.037-.583,4.563,2.3,4.563,2.3" transform="translate(20.273 135.015)" fill="#bfbfbf" stroke="#263238" stroke-linecap="round" stroke-linejoin="round" stroke-miterlimit="10" stroke-width="0.845"/>
      <path id="Path-208" data-name="Path" d="M9.09.11C5.8-1.378-4.786,12.7,2.516,16.774S18.64,4.428,9.09.11Z" transform="translate(131.36 93.49)" fill="#263238" stroke="#263238" stroke-linecap="round" stroke-linejoin="round" stroke-miterlimit="10" stroke-width="0.845"/>
      <path id="Path-209" data-name="Path" d="M2.769,0a27.169,27.169,0,0,1,6.27,4.842C11.93,7.91,21.022,9.718,21.022,9.718L17.144,22.09,7.73,17.577S3.09,19.851.377,15.346C-1.22,12.685,2.769,0,2.769,0Z" transform="translate(123.797 86.485)" fill="#bfbfbf" stroke="#263238" stroke-linecap="round" stroke-linejoin="round" stroke-miterlimit="10" stroke-width="0.845"/>
      <path id="Path-210" data-name="Path" d="M15.093,14.008c-.744,2.738-1.749,3.608-8.13,2.29-1.623-.33-.693-2.011-.693-2.011S3.9,13.687,4.276,11.7c0,0-4.276.414-4.276-.769S3.549,7.678,3.549,7.678s-6.761,2.079-.524-3.668c0,0,7.285-4.47,9.651-3.972.845.177,1.513,1.606,1.977,3.524" transform="translate(113.89 86.446)" fill="#bfbfbf" stroke="#263238" stroke-linecap="round" stroke-linejoin="round" stroke-miterlimit="10" stroke-width="0.845"/>
      <path id="Path-211" data-name="Path" d="M0,2.8A24.693,24.693,0,0,1,4.462,1.023,16.242,16.242,0,0,0,7.521,0" transform="translate(117.465 91.327)" fill="none" stroke="#263238" stroke-linecap="round" stroke-linejoin="round" stroke-miterlimit="10" stroke-width="0.845"/>
      <path id="Path-212" data-name="Path" d="M0,1.479S4,.439,6.761,0" transform="translate(118.166 96.668)" fill="none" stroke="#263238" stroke-linecap="round" stroke-linejoin="round" stroke-miterlimit="10" stroke-width="0.845"/>
      <path id="Path-213" data-name="Path" d="M0,.7S2.873.334,4.014.148" transform="translate(120.161 100.035)" fill="none" stroke="#263238" stroke-linecap="round" stroke-linejoin="round" stroke-miterlimit="10" stroke-width="0.845"/>
      <path id="Path-214" data-name="Path" d="M20.256,0c5.679,8.687,17.383,44.7,18.718,49.707S33.786,66.431,25.352,66.262,0,55.724,0,55.724s11.341-.558,6.575-16.665l9.473,2.358s-5.07-13.648-7.361-18.592C5.62,16.141,3.228,14.806,3.008,3.439" transform="translate(133.901 54.541)" fill="#ffb76f"/>
      <path id="Path-215" data-name="Path" d="M20.256,0c5.679,8.687,17.383,44.7,18.718,49.707S33.786,66.431,25.352,66.262,0,55.724,0,55.724s11.341-.558,6.575-16.665l9.473,2.358s-5.07-13.648-7.361-18.592C5.62,16.141,3.228,14.806,3.008,3.439" transform="translate(133.901 54.541)" fill="none" stroke="#263238" stroke-linecap="round" stroke-linejoin="round" stroke-miterlimit="10" stroke-width="0.845"/>
      <path id="Path-216" data-name="Path" d="M0,0S10.251,0,12.921,5.248" transform="translate(149.924 95.958)" fill="none" stroke="#263238" stroke-linecap="round" stroke-linejoin="round" stroke-miterlimit="10" stroke-width="0.845"/>
      <path id="Path-217" data-name="Path" d="M0,0A7,7,0,0,1,2.206,1.42" transform="translate(162.423 97.183)" fill="none" stroke="#263238" stroke-linecap="round" stroke-linejoin="round" stroke-miterlimit="10" stroke-width="0.845"/>
      <path id="Path-218" data-name="Path" d="M0,.529A16.259,16.259,0,0,1,4.225.394" transform="translate(155.07 96.011)" fill="none" stroke="#263238" stroke-linecap="round" stroke-linejoin="round" stroke-miterlimit="10" stroke-width="0.845"/>
    </g>
  </g>
</svg>
