<svg xmlns="http://www.w3.org/2000/svg" width="308.293" height="319.502" viewBox="0 0 308.293 319.502">
  <g id="Group_Chat-bro" data-name="Group Chat-bro" transform="translate(-0.08 -0.185)">
    <g id="freepik--background-simple--inject-2">
      <path id="Path" d="M.284,133.647s-5.907,56.986,36.195,104.235,107.216,63.077,159.742,77.3,97.341-7.643,109.682-51.808-26.362-65.606-41.268-121.68-10.645-72.658-52.81-113.773S94.262-8.27,48.662,38.516.284,133.647.284,133.647Z" transform="translate(0.08 0.185)" fill="#adc7f7"/>
      <path id="Path-2" data-name="Path" d="M.284,133.647s-5.907,56.986,36.195,104.235,107.216,63.077,159.742,77.3,97.341-7.643,109.682-51.808-26.362-65.606-41.268-121.68-10.645-72.658-52.81-113.773S94.262-8.27,48.662,38.516.284,133.647.284,133.647Z" transform="translate(0.08 0.185)" fill="#f9fbff"/>
    </g>
    <g id="freepik--Device--inject-2" transform="translate(85.499 41.315)">
      <rect id="Rectangle" width="134.726" height="262.85" rx="4.024" transform="translate(0.1 0.05)" fill="#263238"/>
      <g id="Group">
        <path id="Path-3" data-name="Path" d="M11.607,0A11.605,11.605,0,0,0,0,11.611V251.239a11.574,11.574,0,0,0,4.161,8.9L82.764,0Z" transform="translate(0.1 0.05)" fill="#fff" opacity="0.2"/>
        <path id="Path-4" data-name="Path" d="M9.163,4.58a4.567,4.567,0,1,0-1.335,3.24A4.58,4.58,0,0,0,9.163,4.58Z" transform="translate(62.87 250.719)" fill="none" stroke="#fff" stroke-linecap="round" stroke-linejoin="round" stroke-miterlimit="10" stroke-width="0.5"/>
      </g>
      <rect id="Rectangle-2" data-name="Rectangle" width="134.726" height="262.85" rx="4.024" transform="translate(0.1 0.05)" fill="none" stroke="#263238" stroke-linecap="round" stroke-linejoin="round" stroke-miterlimit="10" stroke-width="0.5"/>
      <rect id="Rectangle-3" data-name="Rectangle" width="122.742" height="229.399" transform="translate(6.085 17.901)" fill="#fff" stroke="#263238" stroke-linecap="round" stroke-linejoin="round" stroke-miterlimit="10" stroke-width="0.5"/>
      <rect id="Rectangle-4" data-name="Rectangle" width="10.174" height="5.578" transform="translate(114.477 20.28)" fill="none" stroke="#263238" stroke-linecap="round" stroke-linejoin="round" stroke-miterlimit="10" stroke-width="0.5"/>
      <rect id="Rectangle-5" data-name="Rectangle" width="7.937" height="5.578" transform="translate(114.477 20.28)" fill="#263238" stroke="#263238" stroke-linecap="round" stroke-linejoin="round" stroke-miterlimit="10" stroke-width="0.5"/>
      <rect id="Rectangle-6" data-name="Rectangle" width="1.432" height="2.458" transform="translate(124.63 21.84)" fill="#263238" stroke="#263238" stroke-linecap="round" stroke-linejoin="round" stroke-miterlimit="10" stroke-width="0.5"/>
      <rect id="Rectangle-7" data-name="Rectangle" width="1.867" height="3.198" transform="translate(8.849 22.011)" fill="#263238" stroke="#263238" stroke-linecap="round" stroke-linejoin="round" stroke-miterlimit="10" stroke-width="0.5"/>
      <rect id="Rectangle-8" data-name="Rectangle" width="1.867" height="4.324" transform="translate(11.785 20.886)" fill="#263238" stroke="#263238" stroke-linecap="round" stroke-linejoin="round" stroke-miterlimit="10" stroke-width="0.5"/>
      <rect id="Rectangle-9" data-name="Rectangle" width="1.867" height="5.649" transform="translate(14.713 19.561)" fill="#263238" stroke="#263238" stroke-linecap="round" stroke-linejoin="round" stroke-miterlimit="10" stroke-width="0.5"/>
      <rect id="Rectangle-10" data-name="Rectangle" width="117.861" height="8.861" transform="translate(8.065 28.963)" fill="#fb7d00"/>
    </g>
    <g id="freepik--text-balloons--inject-2" transform="translate(97.612 89.041)">
      <path id="Path-5" data-name="Path" d="M49.647,0H13.423A4.474,4.474,0,0,0,8.949,4.474V8.919L0,12.943l8.949,2.4v2.778A4.474,4.474,0,0,0,13.423,22.6H49.682a4.474,4.474,0,0,0,4.474-4.473V4.481A4.474,4.474,0,0,0,49.647,0Z" transform="translate(57.114 107.355)" fill="#fff" stroke="#263238" stroke-miterlimit="10" stroke-width="0.5"/>
      <path id="Path-6" data-name="Path" d="M3.776,1.888A1.881,1.881,0,1,1,3.228.553,1.888,1.888,0,0,1,3.776,1.888Z" transform="translate(78.531 117.129)" fill="#263238"/>
      <path id="Path-7" data-name="Path" d="M3.762,1.888A1.881,1.881,0,1,1,3.214.553,1.881,1.881,0,0,1,3.762,1.888Z" transform="translate(86.782 117.129)" fill="#263238"/>
      <path id="Path-8" data-name="Path" d="M3.776,1.888A1.888,1.888,0,1,1,1.888,0,1.888,1.888,0,0,1,3.776,1.888Z" transform="translate(95.011 117.129)" fill="#263238"/>
      <path id="Path-9" data-name="Path" d="M49.647,0H13.423A4.474,4.474,0,0,0,8.949,4.466V8.919L0,12.943l8.949,2.4v2.778A4.474,4.474,0,0,0,13.423,22.6H49.682a4.474,4.474,0,0,0,4.474-4.473V4.481A4.474,4.474,0,0,0,49.647,0Z" transform="translate(57.114 0.506)" fill="#fff" stroke="#263238" stroke-miterlimit="10" stroke-width="0.5"/>
      <path id="Path-10" data-name="Path" d="M3.776,1.888A1.881,1.881,0,1,1,3.228.553,1.888,1.888,0,0,1,3.776,1.888Z" transform="translate(78.531 10.279)" fill="#263238"/>
      <path id="Path-11" data-name="Path" d="M3.762,1.888A1.881,1.881,0,1,1,3.214.553,1.881,1.881,0,0,1,3.762,1.888Z" transform="translate(86.782 10.279)" fill="#263238"/>
      <path id="Path-12" data-name="Path" d="M3.776,1.888A1.888,1.888,0,1,1,1.888,0,1.888,1.888,0,0,1,3.776,1.888Z" transform="translate(95.011 10.279)" fill="#263238"/>
      <path id="Path-13" data-name="Path" d="M4.475,0H40.733a4.474,4.474,0,0,1,4.474,4.473V8.918l8.949,4.025-8.949,2.4v2.778A4.474,4.474,0,0,1,40.733,22.6H4.475A4.474,4.474,0,0,1,0,18.122V4.5A4.474,4.474,0,0,1,4.475,0Z" transform="translate(0.078 165.261)" fill="#fff" stroke="#263238" stroke-miterlimit="10" stroke-width="0.5"/>
      <path id="Path-14" data-name="Path" d="M0,1.881A1.888,1.888,0,1,0,1.881,0,1.888,1.888,0,0,0,0,1.881Z" transform="translate(29.006 175.07)" fill="#263238"/>
      <path id="Path-15" data-name="Path" d="M0,1.881A1.881,1.881,0,1,0,1.881,0,1.881,1.881,0,0,0,0,1.881Z" transform="translate(20.769 175.07)" fill="#263238"/>
      <path id="Path-16" data-name="Path" d="M0,1.881A1.888,1.888,0,1,0,1.888,0,1.888,1.888,0,0,0,0,1.881Z" transform="translate(12.526 175.07)" fill="#263238"/>
      <path id="Path-17" data-name="Path" d="M4.474,0H40.733a4.474,4.474,0,0,1,4.474,4.473V8.918l8.949,4.025-8.949,2.4v2.778A4.474,4.474,0,0,1,40.733,22.6H4.474A4.474,4.474,0,0,1,0,18.122V4.466A4.474,4.474,0,0,1,4.474,0Z" transform="translate(0.078 56.986)" fill="#fff" stroke="#263238" stroke-miterlimit="10" stroke-width="0.5"/>
      <path id="Path-18" data-name="Path" d="M0,1.888A1.881,1.881,0,1,0,.548.553,1.888,1.888,0,0,0,0,1.888Z" transform="translate(29.006 66.753)" fill="#263238"/>
      <path id="Path-19" data-name="Path" d="M0,1.888A1.881,1.881,0,1,0,.548.553,1.881,1.881,0,0,0,0,1.888Z" transform="translate(20.769 66.753)" fill="#263238"/>
      <path id="Path-20" data-name="Path" d="M0,1.888A1.888,1.888,0,1,0,1.888,0,1.888,1.888,0,0,0,0,1.888Z" transform="translate(12.526 66.753)" fill="#263238"/>
    </g>
    <g id="freepik--character-1--inject-2" transform="translate(93.337 73.37)">
      <path id="Path-21" data-name="Path" d="M61.538,34.569c-.841-3.711-4.09-17.659-6.12-20.394C53.074,11.013,39.508,3.669,37.57,2.344A15.157,15.157,0,0,0,31.756,0S24.31,2.55,16.972,4.488s-11.4,3.262-12.241,5.7C4.018,12.323.762,30.288,0,34.555Z" transform="translate(0.064 35.161)" fill="#616161" stroke="#263238" stroke-linecap="round" stroke-linejoin="round" stroke-miterlimit="10" stroke-width="0.5"/>
      <path id="Path-22" data-name="Path" d="M.9,15.956Q.442,7.971,0,0" transform="translate(16.195 52.499)" fill="none" stroke="#263238" stroke-linecap="round" stroke-linejoin="round" stroke-miterlimit="10" stroke-width="0.5"/>
      <path id="Path-23" data-name="Path" d="M11.991,16.312c3.47-.506,5.408-6.831,5.921-9.481.071-.385.142-.712.207-1.033-2.764-1.631-5.1-2.956-5.821-3.455A15.157,15.157,0,0,0,6.484,0S3.769.933,0,2.094c.506,1.154,1.8,4,3.733,7.8C6.284,14.888,8.529,16.84,11.991,16.312Z" transform="translate(25.336 35.161)" fill="#fff" stroke="#263238" stroke-linecap="round" stroke-linejoin="round" stroke-miterlimit="10" stroke-width="0.5"/>
      <path id="Path-24" data-name="Path" d="M1.124.433S.1,10.94,0,11.553,1.33,16.24,3.781,20.015s5.7,3.469,7.339.2a52.526,52.526,0,0,0,2.957-8.462,10.965,10.965,0,0,1-7.446-5.7C4.187,1.153,2.142-.991,1.124.433Z" transform="translate(28.452 25.446)" fill="#b2b2b2" stroke="#263238" stroke-linecap="round" stroke-linejoin="round" stroke-miterlimit="10" stroke-width="0.5"/>
      <path id="Path-25" data-name="Path" d="M9.932.253S3.405,2.191,1.061,7.291c-1.909,4.146-.819,10.607,0,12.744s1.119,6.325,2.65,10.1,5.607,8.548,9.077,9.26S23.092,34.6,24.9,32.059s1.225-6.938,1.425-7.65,2.85-5.813,2.551-12.11S19.829-1.478,9.932.253Z" transform="translate(26.683 0.644)" fill="#b2b2b2" stroke="#263238" stroke-linecap="round" stroke-linejoin="round" stroke-miterlimit="10" stroke-width="0.5"/>
      <path id="Path-26" data-name="Path" d="M5.1,0s.919,5.912-.513,6.525S.406,6.219,0,5.4" transform="translate(44.061 24.355)" fill="none" stroke="#263238" stroke-linecap="round" stroke-linejoin="round" stroke-miterlimit="10" stroke-width="0.5"/>
      <path id="Path-27" data-name="Path" d="M4.922,3.262A10.423,10.423,0,0,1,.939,0s-2.244,3.362.207,4.274A3.178,3.178,0,0,0,4.922,3.262Z" transform="translate(38.327 29.654)" fill="#263238" stroke="#263238" stroke-linecap="round" stroke-linejoin="round" stroke-miterlimit="10" stroke-width="0.5"/>
      <path id="Path-28" data-name="Path" d="M1.592,1.7C1.343,2.51.815,3.066.409,2.944S-.118,2.068.124,1.256.9-.1,1.3.017,1.834.893,1.592,1.7Z" transform="translate(42.846 22.464)" fill="#263238"/>
      <path id="Path-29" data-name="Path" d="M1.592,1.7C1.343,2.517.815,3.072.409,2.944S-.118,2.068.124,1.263.9-.1,1.307.016,1.834.9,1.592,1.7Z" transform="translate(49.986 23.583)" fill="#263238"/>
      <path id="Path-30" data-name="Path" d="M5.651,2.322a.656.656,0,0,1-.456-.178,3.131,3.131,0,0,0-4.125-.071A.656.656,0,1,1,.243,1.054a4.4,4.4,0,0,1,5.864.135.662.662,0,0,1,0,.933A.648.648,0,0,1,5.651,2.322Z" transform="translate(40.861 18.214)" fill="#263238"/>
      <path id="Path-31" data-name="Path" d="M4.329,2.655a.67.67,0,0,1-.556-.3,1.981,1.981,0,0,0-1.318-1.04,2.01,2.01,0,0,0-1.361.456A.656.656,0,1,1,.218.8,3.249,3.249,0,0,1,2.633.013,3.2,3.2,0,0,1,4.885,1.644a.655.655,0,0,1-.556,1.012Z" transform="translate(49.728 20.139)" fill="#263238"/>
      <path id="Path-32" data-name="Path" d="M1.268,20.592c.043.128.078.256.114.392v.085c.043.142.078.292.114.442v.043a2.844,2.844,0,0,0,.114.52l3.22-.712s2.957.613,3.37-.406S6.669,18.4,8.094,16.88s5.408-.513,5.814-2.45S15.333,5.561,23.6,7.7a23.073,23.073,0,0,1,4.816,2.208C26.4,4.265,18.6-1.263,9.932.255c0,0-6.526,1.938-8.871,7.038-1.909,4.146-.819,10.607,0,12.744.05.135.1.285.15.435Z" transform="translate(26.648 0.607)" fill="#263238" stroke="#263238" stroke-linecap="round" stroke-linejoin="round" stroke-miterlimit="10" stroke-width="0.5"/>
      <path id="Path-33" data-name="Path" d="M6.358,4.427S5.439.452,2.988.039s-3.363,2.55-2.85,5.2,3.156,5.1,5.508,4.388" transform="translate(26.588 19.315)" fill="#b2b2b2" stroke="#263238" stroke-linecap="round" stroke-linejoin="round" stroke-miterlimit="10" stroke-width="0.5"/>
      <path id="Path-34" data-name="Path" d="M14.043,24.286c1.86-2.023,6.184-6.717,6.505-7.038s1.019-.406,3.363-1.019,6.22-1.938,6.833-2.45A10.943,10.943,0,0,0,33.2,11.643a21.624,21.624,0,0,0,1.325-2.55c.306-.513,2.75-1.631,3.363-2.137S39.109,5.431,38.9,4.918s-3.769.513-7.032,1.225a35.8,35.8,0,0,1-5.308.812S28.4,4.306,29.519,3.08s.712-3.875-.1-2.849-6.013,6.325-7.125,6.732-3.669,4.181-5.408,5.919C15.461,14.307,3.876,21.808,0,24.279Z" transform="translate(26.982 45.444)" fill="#b2b2b2" stroke="#263238" stroke-linecap="round" stroke-linejoin="round" stroke-miterlimit="10" stroke-width="0.5"/>
      <path id="Path-35" data-name="Path" d="M3.47,0,0,1.225" transform="translate(58.033 54.536)" fill="none" stroke="#263238" stroke-linecap="round" stroke-linejoin="round" stroke-miterlimit="10" stroke-width="0.5"/>
      <path id="Path-36" data-name="Path" d="M116.871.356H0" transform="translate(2.073 69.374)" fill="none" stroke="#263238" stroke-linecap="round" stroke-linejoin="round" stroke-miterlimit="10" stroke-width="0.5"/>
    </g>
    <g id="freepik--character-2--inject-2" transform="translate(94.762 123.946)">
      <path id="Path-37" data-name="Path" d="M60.156,30.238C59.8,27.524,58.282,16.889,56.045,12A18.431,18.431,0,0,0,44.695,1.987C40.6.748,35.254-.3,32.582.078c0,0-8.871,3.056-12.682,3.911a17.483,17.483,0,0,0-9.391,5.82C9.084,11.846,1.617,26.94,0,30.238Z" transform="translate(57.085 40.831)" fill="#fff" stroke="#263238" stroke-linecap="round" stroke-linejoin="round" stroke-miterlimit="10" stroke-width="0.5"/>
      <path id="Path-38" data-name="Path" d="M48.958,30.238C48.6,27.524,47.084,16.889,44.847,12A18.431,18.431,0,0,0,33.5,1.987C29.4.748,24.057-.3,21.385.078c0,0-6.078,2.094-10.338,3.3C9.714,5.456,6.721,10.072,3.921,14,.359,18.991-1.066,26.2.865,30.238Z" transform="translate(68.283 40.831)" fill="#fb7d00" stroke="#263238" stroke-linecap="round" stroke-linejoin="round" stroke-miterlimit="10" stroke-width="0.5"/>
      <path id="Path-39" data-name="Path" d="M1.589,4.751a31.613,31.613,0,0,1,.955,10.208C2.159,20.779-.891,24.5.257,27.453s5.7,4.1,9.726.955,4.767-10.87,4.866-14.3S16.566,0,16.566,0,12.291,5.05,7.3,5.243,1.589,4.751,1.589,4.751Z" transform="translate(82.357 30.63)" fill="#fff" stroke="#263238" stroke-linecap="round" stroke-linejoin="round" stroke-miterlimit="10" stroke-width="0.5"/>
      <path id="Path-40" data-name="Path" d="M10.92.093S4.507,1.233,1.579,6.86c-2.85,5.392-1.5,14.46,1.318,19.831,3.562,6.781,3.349,9.1,3.384,15.094a2.963,2.963,0,0,1-.755,2.237c-1.468,1.425-1.66-.712-2.045.5s3.562,3.889,7.631.349c2.636-2.3,3.242-8.733,2-12.459s-7.438-11.44-6.1-17.445S13.022,4,13.428,1.71,10.92.093,10.92.093Z" transform="translate(74.074 8.02)" fill="#263238"/>
      <path id="Path-41" data-name="Path" d="M9.539,0S-1.548,6.646.184,16.932,13.008,30.224,11.961,40.824" transform="translate(75.726 11.604)" fill="none" stroke="#636363" stroke-linecap="round" stroke-linejoin="round" stroke-miterlimit="10" stroke-width="0.5"/>
      <path id="Path-42" data-name="Path" d="M10.92.093S4.507,1.233,1.579,6.86c-2.85,5.392-1.5,14.46,1.318,19.831,3.562,6.781,3.349,9.1,3.384,15.094a2.963,2.963,0,0,1-.755,2.237c-1.468,1.425-1.66-.712-2.045.5s3.562,3.889,7.631.349c2.636-2.3,3.242-8.733,2-12.459s-7.438-11.44-6.1-17.445S13.022,4,13.428,1.71,10.92.093,10.92.093Z" transform="translate(74.074 8.02)" fill="none" stroke="#263238" stroke-linecap="round" stroke-linejoin="round" stroke-miterlimit="10" stroke-width="0.5"/>
      <path id="Path-43" data-name="Path" d="M2.054,27.987H16.546v-.242h0v-.157h0V27h0v-.492a1.787,1.787,0,0,0,0-.192v-.876l-.043-.256h0l-.043-.256v-.057l-.043-.278h0a2.494,2.494,0,0,0-.05-.321h0c-.05-.328-.107-.67-.164-1.019h0a.64.64,0,0,0-.057-.321V22.9a1.683,1.683,0,0,0-.057-.321v-.05a1.644,1.644,0,0,0-.057-.306v-.078a.55.55,0,0,0-.05-.278v-.114l-.043-.249v-.128l-.043-.242v-.121a1.629,1.629,0,0,0-.05-.256v-.121a1.629,1.629,0,0,0-.05-.256v-.128a.449.449,0,0,0-.05-.249v-.128a.474.474,0,0,0-.05-.256v-.135a1.714,1.714,0,0,0-.05-.249V19.1a1.05,1.05,0,0,0-.057-.249v-.135a.423.423,0,0,0-.057-.256.826.826,0,0,0,0-.128,1.716,1.716,0,0,0-.05-.264v-.128l-.755-.47V17.36a1.317,1.317,0,0,0-.071-.313v-.071l-.085-.37h0c-.057-.256-.121-.513-.185-.769v-.057a1.726,1.726,0,0,0-.071-.321v-.114l-.064-.256a1.282,1.282,0,0,1-.036-.135l-.064-.242a.2.2,0,0,0-.036-.135c-.036-.043-.036-.15-.057-.228l-.043-.15a.793.793,0,0,0-.057-.214l-.043-.15-.057-.207-.043-.157a.773.773,0,0,0-.057-.2l-.043-.15a1.966,1.966,0,0,1-.057-.192.576.576,0,0,0-.05-.157c-.014-.05,0-.128-.057-.185s0-.1-.05-.157a1.716,1.716,0,0,0-.057-.178,1.225,1.225,0,0,0-.05-.15,1.837,1.837,0,0,0-.057-.185.176.176,0,0,0-.05-.142c-.05-.05-.036-.121-.057-.178s-.036-.093-.05-.142l-.064-.171a1.04,1.04,0,0,0-.05-.135,1.6,1.6,0,0,0-.057-.171.954.954,0,0,1-.05-.128l-.064-.171a.126.126,0,0,0-.05-.121l-.071-.171-.043-.114a.441.441,0,0,0-.078-.178.556.556,0,0,1-.036-.1L12.5,9.738A18.523,18.523,0,0,0,1.9,0C1.27,2.215-.326,8.413.059,13.534.4,18.407,1.527,25.046,2.054,27.987Z" transform="translate(100.695 43.082)" fill="#fff" stroke="#263238" stroke-linecap="round" stroke-linejoin="round" stroke-miterlimit="10" stroke-width="0.5"/>
      <path id="Path-44" data-name="Path" d="M6.7.389S3.074,3.153,1.934,6.209-.168,16.979.025,20.035s4.1,8.391,5.7,9.723,8.55-.192,11.827-3.241c2.266-2.137,4.2-9.438,2.672-16.59S11.375-1.328,6.7.389Z" transform="translate(79.155 8.102)" fill="#fff" stroke="#263238" stroke-linecap="round" stroke-linejoin="round" stroke-miterlimit="10" stroke-width="0.5"/>
      <path id="Path-45" data-name="Path" d="M0,1.1S2.095-1.094,5.622.715" transform="translate(89.005 21.317)" fill="none" stroke="#263238" stroke-linecap="round" stroke-linejoin="round" stroke-miterlimit="10" stroke-width="0.5"/>
      <path id="Path-46" data-name="Path" d="M2.764,2.849A3.9,3.9,0,0,0,0,0" transform="translate(81.089 18.328)" fill="none" stroke="#263238" stroke-linecap="round" stroke-linejoin="round" stroke-miterlimit="10" stroke-width="0.5"/>
      <path id="Path-47" data-name="Path" d="M2.519,0a5.321,5.321,0,0,1-.862,2.479C.987,3.149-.438,3.811.132,5.15A1.992,1.992,0,0,0,3.181,6" transform="translate(83.052 20.223)" fill="none" stroke="#263238" stroke-linecap="round" stroke-linejoin="round" stroke-miterlimit="10" stroke-width="0.5"/>
      <path id="Path-48" data-name="Path" d="M0,.89s1.624-2,4.275,0" transform="translate(81.274 15.615)" fill="none" stroke="#263238" stroke-linecap="round" stroke-linejoin="round" stroke-miterlimit="10" stroke-width="0.5"/>
      <path id="Path-49" data-name="Path" d="M0,.516S3.142-1.393,5.622,2.133" transform="translate(88.528 16.943)" fill="none" stroke="#263238" stroke-linecap="round" stroke-linejoin="round" stroke-miterlimit="10" stroke-width="0.5"/>
      <path id="Path-50" data-name="Path" d="M0,.67S1.339,2.479,4.987,2,9.469,0,9.469,0" transform="translate(82.992 27.752)" fill="none" stroke="#263238" stroke-linecap="round" stroke-linejoin="round" stroke-miterlimit="10" stroke-width="0.5"/>
      <path id="Path-51" data-name="Path" d="M1.81.9A.9.9,0,1,1,.9,0a.9.9,0,0,1,.9.9Z" transform="translate(89.86 21.463)" fill="#263238"/>
      <path id="Path-52" data-name="Path" d="M1.81.9a.9.9,0,1,1-.265-.64A.9.9,0,0,1,1.81.9Z" transform="translate(81.467 19.361)" fill="#263238"/>
      <path id="Path-53" data-name="Path" d="M0,1.168S1.525,4.317,4.2,4.018,6.676,0,6.676,0A9.727,9.727,0,0,1,0,1.168Z" transform="translate(85.093 28.493)" fill="#263238" stroke="#263238" stroke-linecap="round" stroke-linejoin="round" stroke-miterlimit="10" stroke-width="0.5"/>
      <path id="Path-54" data-name="Path" d="M12.892.1h-.214C9.259.492,4.77,1.211,2.027,3.412-1.315,6.076-.168,6.746,2.882,8.27S14.994,14.852,15.856,22.1s-2.1,18.592-3.527,23.742a10.252,10.252,0,0,0,3.242,11.155,5.943,5.943,0,0,0,4.688,1.553A9.287,9.287,0,0,0,25,56.965c.135-.107,1.7-1.752,1.425-1.973-1.368-1.161-3.014.506-3.847-1.09-1.7-3.277.94-7.2,2.729-9.894,1.461-2.2,3.89-3.562,5.372-5.7a17.186,17.186,0,0,0,2.551-7.629A38.013,38.013,0,0,0,30.776,13.3C28.133,6.247,22.661-.021,14.6,0,14.047.007,13.462.036,12.892.1Z" transform="translate(80.872 0.199)" fill="#263238"/>
      <g id="Group-2" data-name="Group" transform="translate(78.375 0.712)">
        <path id="Path-55" data-name="Path" d="M0,0A25.513,25.513,0,0,1,16.33,9.7c6.355,8.626,8.165,14.482,8.008,22.488s6.32,11.711,11.094,9.4" transform="translate(0.292 2.579)" fill="none" stroke="#636363" stroke-linecap="round" stroke-linejoin="round" stroke-miterlimit="10" stroke-width="0.5"/>
        <path id="Path-56" data-name="Path" d="M0,0S12.946,2.465,17.1,15.4s2.472,20.814,8.03,21.876" transform="translate(9.07 0.114)" fill="none" stroke="#636363" stroke-linecap="round" stroke-linejoin="round" stroke-miterlimit="10" stroke-width="0.5"/>
        <path id="Path-57" data-name="Path" d="M0,0S4.781,11.554,3.562,22.488s3.562,12.943,11.25,10.934" transform="translate(15.54 24.298)" fill="none" stroke="#636363" stroke-linecap="round" stroke-linejoin="round" stroke-miterlimit="10" stroke-width="0.5"/>
      </g>
      <path id="Path-58" data-name="Path" d="M12.892.1h-.214C9.259.492,4.77,1.211,2.027,3.412-1.315,6.076-.168,6.746,2.882,8.27S14.994,14.852,15.856,22.1s-2.1,18.592-3.527,23.742a10.252,10.252,0,0,0,3.242,11.155,5.943,5.943,0,0,0,4.688,1.553A9.287,9.287,0,0,0,25,56.965c.135-.107,1.7-1.752,1.425-1.973-1.368-1.161-3.014.506-3.847-1.09-1.7-3.277.94-7.2,2.729-9.894,1.461-2.2,3.89-3.562,5.372-5.7a17.186,17.186,0,0,0,2.551-7.629A38.013,38.013,0,0,0,30.776,13.3C28.133,6.247,22.661-.021,14.6,0,14.047.007,13.462.036,12.892.1Z" transform="translate(80.872 0.199)" fill="none" stroke="#263238" stroke-linecap="round" stroke-linejoin="round" stroke-miterlimit="10" stroke-width="0.5"/>
      <path id="Path-59" data-name="Path" d="M1.57,15.983a7.125,7.125,0,0,0,2.672,1.524A30.2,30.2,0,0,1,5.667,25.9a51.988,51.988,0,0,0,.527,7.558H17.879A74.666,74.666,0,0,1,12.436,21.9c-1.81-5.435-1.047-8.491-2.287-12.017S8.332,4.636,6.237,1.872s-4-1.909-4-.955,1.14,1.332,2,2.671A15.67,15.67,0,0,1,5.66,6.73S1.649,8.546.509,10.548A4.55,4.55,0,0,0,1.57,15.983Z" transform="translate(45.754 37.613)" fill="#fff" stroke="#263238" stroke-linecap="round" stroke-linejoin="round" stroke-miterlimit="10" stroke-width="0.5"/>
      <path id="Path-60" data-name="Path" d="M1.525,0A4.888,4.888,0,0,0,0,2.849C0,4.274,1.14,6.283,1.717,6.283s.855-1.047.57-2.094S1.525,0,1.525,0Z" transform="translate(43.035 46.636)" fill="#fff" stroke="#263238" stroke-linecap="round" stroke-linejoin="round" stroke-miterlimit="10" stroke-width="0.5"/>
      <path id="Path-61" data-name="Path" d="M2.417.036A6.2,6.2,0,0,0,.13,2.614,4.2,4.2,0,0,0,.892,6.24a2.291,2.291,0,0,0,2.764.57c.477-.477.093-1.524,0-2.137S2.609,2.194,2.7,1.339A12.99,12.99,0,0,0,2.8,0Z" transform="translate(43.952 44.592)" fill="#fff" stroke="#263238" stroke-linecap="round" stroke-linejoin="round" stroke-miterlimit="10" stroke-width="0.5"/>
      <path id="Path-62" data-name="Path" d="M5.97.845S3.483-.68,1.581.367-.236,3.516.434,5.04,2.821,7.427,3.583,6.757s-.1-1.717.093-3.141S5.97.845,5.97.845Z" transform="translate(45.458 43.498)" fill="#fff" stroke="#263238" stroke-linecap="round" stroke-linejoin="round" stroke-miterlimit="10" stroke-width="0.5"/>
      <path id="Path-63" data-name="Path" d="M8.087,2.489S6.078-.182,4.268.01-.5,3.572.072,4.4s3.983-.484,3.983-.484S3.1,7.062,5.48,7.724" transform="translate(45.82 44.525)" fill="#fff" stroke="#263238" stroke-linecap="round" stroke-linejoin="round" stroke-miterlimit="10" stroke-width="0.5"/>
      <path id="Path-64" data-name="Path" d="M116.871.356H0" transform="translate(0.648 70.713)" fill="none" stroke="#263238" stroke-linecap="round" stroke-linejoin="round" stroke-miterlimit="10" stroke-width="0.5"/>
    </g>
    <g id="freepik--character-3--inject-2" transform="translate(94.049 185.206)">
      <path id="Path-65" data-name="Path" d="M116.871.356H0" transform="translate(1.361 65.791)" fill="none" stroke="#263238" stroke-linecap="round" stroke-linejoin="round" stroke-miterlimit="10" stroke-width="0.5"/>
      <path id="Path-66" data-name="Path" d="M63.532,28.461S64.573,19.243,61,16.821,41.873,3.23,35.88,1.862,26.2-.788,23.768.594,11.342,10.98,7.2,13.829.975,19.706.4,21.893A23.915,23.915,0,0,0,.049,27.77v.919S63.768,28.225,63.532,28.461Z" transform="translate(0.685 37.459)" fill="#263238" stroke="#263238" stroke-linecap="round" stroke-linejoin="round" stroke-miterlimit="10" stroke-width="0.5"/>
      <path id="Path-67" data-name="Path" d="M2.743.6A28.051,28.051,0,0,0,0,2.62a18.374,18.374,0,0,0,1.425,6.9c2.978,7.237,9.683,11.34,14.962,9.168,4.5-1.852,6.548-7.636,5.244-13.769a30.313,30.313,0,0,0-6.8-3.049C8.849.483,5.166-.785,2.743.6Z" transform="translate(21.724 37.442)" fill="#fff" stroke="#263238" stroke-linecap="round" stroke-linejoin="round" stroke-miterlimit="10" stroke-width="0.5"/>
      <path id="Path-68" data-name="Path" d="M1.107.141A95.332,95.332,0,0,1,.3,10.164c-.577,2.992-.577,7.031,2.308,12.11s9.9,4.837,12.112,2.849,1.724-7.487,1.724-9.559a44.165,44.165,0,0,1,1.218-6.945A69.19,69.19,0,0,1,7.462,3.7C4.007,1.4,2.261-.55,1.107.141Z" transform="translate(24.743 27.07)" fill="#fff" stroke="#263238" stroke-linecap="round" stroke-linejoin="round" stroke-miterlimit="10" stroke-width="0.5"/>
      <path id="Path-69" data-name="Path" d="M17.592.425s2.764,4.723,3.456,6.1a3.9,3.9,0,0,1-.349,3.8c-.627.876,4.987,3.612,4.888,5.05s-.606,2.23-1.738,3.861c-1.24,1.781-.777,4.765-1.325,6.86-.463,1.781-1.033,2.222-2.85,2.892-3.463,1.268-9.911.8-13.138-.8S2.159,23.69,1.005,21.617-.263,15.74.428,11.708,6.534,2.263,9.99.767,17.592.425,17.592.425Z" transform="translate(26.583 8.016)" fill="#fff" stroke="#263238" stroke-linecap="round" stroke-linejoin="round" stroke-miterlimit="10" stroke-width="0.5"/>
      <path id="Path-70" data-name="Path" d="M5.643.8A7.3,7.3,0,0,1,0,0S0,3.455,1.731,3.562,5.643.8,5.643.8Z" transform="translate(41.866 28.942)" fill="#263238"/>
      <path id="Path-71" data-name="Path" d="M1.529,1.25c.178.776,0,1.482-.413,1.574S.247,2.361.069,1.584.069.1.482.01,1.33.473,1.529,1.25Z" transform="translate(42.645 19.173)" fill="#263238"/>
      <path id="Path-72" data-name="Path" d="M0,1.752A3.933,3.933,0,0,1,3.684.022" transform="translate(39.679 16.362)" fill="none" stroke="#263238" stroke-linecap="round" stroke-linejoin="round" stroke-miterlimit="10" stroke-width="0.5"/>
      <path id="Path-73" data-name="Path" d="M4.809.271S3.027,2.194,1.923,2.336-.414.962.135,0" transform="translate(45.928 25.9)" fill="none" stroke="#263238" stroke-linecap="round" stroke-linejoin="round" stroke-miterlimit="10" stroke-width="0.5"/>
      <path id="Path-74" data-name="Path" d="M11.925,26.577c.549-.178,3.228.235,2.85-1.268s-1.147-1.724-.577-2.849,6.455-3.918,5.187-6.219A23.45,23.45,0,0,0,16.393,12.1s9.676-1.845,11.749-4.723S27.914,0,25.491,0s-1.268.8-7.716,2.849S8.092,2.393,3.254,7.458s-3.342,14.959-1.5,18.086,5.529,5.642,7.374,4.951S10.543,27.04,11.925,26.577Z" transform="translate(18.42 0.634)" fill="#263238" stroke="#263238" stroke-linecap="round" stroke-linejoin="round" stroke-miterlimit="10" stroke-width="0.5"/>
      <path id="Path-75" data-name="Path" d="M8.084,4.029S3.809-1.385.959.339,2.341,7.256,4.187,7.833s4.033-.812,4.033-.812" transform="translate(23.978 24.222)" fill="#fff" stroke="#263238" stroke-linecap="round" stroke-linejoin="round" stroke-miterlimit="10" stroke-width="0.5"/>
    </g>
    <g id="freepik--character-4--inject-2" transform="translate(94.049 220.11)">
      <path id="Path-76" data-name="Path" d="M116.985.356H0" transform="translate(0.477 63.704)" fill="none" stroke="#263238" stroke-linecap="round" stroke-linejoin="round" stroke-miterlimit="10" stroke-width="0.5"/>
      <path id="Path-77" data-name="Path" d="M0,20.929s-.107-6.34.841-7.294S25.155-.1,31.71,0,47.221,9.026,52,11.4c7.609,3.8,7.609,5.912,8.244,8.028s1.161,4.545,1.161,4.545H0Z" transform="translate(56.098 40.068)" fill="#fff"/>
      <path id="Shape" d="M30.289,23.949l.113-1.5H26.369l-.113,1.5h-.563l.107-1.5H24.61l-.049,1.49H22.3l.043-1.482-5.979.05L16.3,23.927h-.57L15.8,22.5H14.442l-.057,1.425H12.119l.058-1.382L8.35,22.6l-.042,1.325H7.737l.05-1.311H6.612l-.065,1.3H4.282l.064-1.254L0,22.745v-.562L4.375,22.1l.249-4.709c-1.71.057-3.263.122-4.56.171.043-.777.107-1.56.214-2.273l4.467-.171.093-1.745L.791,13.62l.049-.064a6.119,6.119,0,0,1,.833-.562L4.866,12.8l.086-1.688c.713-.391,1.5-.812,2.337-1.261L7.139,12.7l1-.049L8.25,9.374l.578-.3L8.7,12.637l3.776-.271.142-3.632L9.056,8.84c1.852-.968,3.884-1.987,5.963-2.992v.563h1.475l.064-1.254.577-.27L17.064,6.4C18.9,6.354,20.819,6.29,22.8,6.29l.122-3.932c.784-.313,1.574-.613,2.287-.877l-.149,4.78h1.916l.413-5.5.585-.178-.427,5.7h4.039L32.055,0a10.29,10.29,0,0,1,2.237.42l-.435,5.855h1.154l.5-5.428.549.228-.477,5.2c2.522.007,5.087.022,7.659.057l.128-.869C44.93,6.547,46.4,7.686,47.78,8.683l-1.425-.035-.392,3.561c2.337.071,4.681.164,7.011.292l.085-.5c.791.419,1.489.819,2.1,1.2l-.284,1.781,1.09.042.185-1.175c.185.122.356.249.52.371l-.136.826,1.211.05a7.111,7.111,0,0,1,1.781,2.343l-3.348-.142-.813,5.086q3.046.128,5.7.314a1.707,1.707,0,0,0,.15.47c-1.832-.122-3.805-.228-5.9-.32l-.164,1.047h-.571l.171-1.076-1.119-.042-.178,1.118H51.171l.193-1.2c-2.1-.072-4.275-.129-6.5-.171l-.149,1.367h-.571l.15-1.374H43.2l-.206,1.425h-2.28l.206-1.425c-2.245-.058-4.517-.058-6.79-.058l-.136,1.49h-.57l.135-1.49h-.89l-.114,1.5Z" transform="translate(56.138 40.076)" fill="#adadad"/>
      <path id="Path-78" data-name="Path" d="M0,20.929s-.107-6.34.841-7.294S25.155-.1,31.71,0,47.221,9.026,52,11.4c7.609,3.8,7.609,5.912,8.244,8.028s1.161,4.545,1.161,4.545H0Z" transform="translate(56.098 40.068)" fill="none" stroke="#263238" stroke-linecap="round" stroke-linejoin="round" stroke-miterlimit="10" stroke-width="0.5"/>
      <path id="Path-79" data-name="Path" d="M8.22.235s-3.171.214-4.011,1.8S3.781,4.573,2.071,9.324-.572,15.457.382,15.457s3.562-2.75,4.539-3.17S8.1,15.557,8.1,15.557s4.225-2.215,5.6-2.322,4.332,5.6,4.859,4.652,1.9-4.438,3.384-7.608,1.8-5.813.527-7.928S9.281-.4,8.22.235Z" transform="translate(76.097 37.298)" fill="#263238" stroke="#263238" stroke-linecap="round" stroke-linejoin="round" stroke-miterlimit="10" stroke-width="0.5"/>
      <path id="Path-80" data-name="Path" d="M.394,0A35.815,35.815,0,0,0,.288,9.83c.712,4.751,1.8,7.5,2.643,6.867s6.028-3.8,8.671-7.081,3.064-3.7,3.8-5.492,1.582-3.8,1.582-3.8S7.163,4.018.394,0Z" transform="translate(82.02 36.478)" fill="#fff" stroke="#263238" stroke-linecap="round" stroke-linejoin="round" stroke-miterlimit="10" stroke-width="0.5"/>
      <path id="Path-81" data-name="Path" d="M3.212,1.169S1.31-1.787.256,1.7s1.475,5.385,1.8,5.172S3.212,1.169,3.212,1.169Z" transform="translate(79.309 17.872)" fill="#fff" stroke="#263238" stroke-linecap="round" stroke-linejoin="round" stroke-miterlimit="10" stroke-width="0.5"/>
      <path id="Path-82" data-name="Path" d="M4.309,11.429S.817,26.538.076,30.876s4.018,8.341,9.305,9.082,10.353-1.8,11.728-4.438,5.7-19.546,6.341-20.707S30.3,8.58,28.619,6.885s-4.439-.42-4.439-.42S22.271,1.6,19,1.478s-3.7,1.368-3.7,1.368S12.445-.637,9.8.1,7.159,2.532,7.159,2.532,2.3,1.371.5,4.855,3.675,9.4,3.675,9.4,2.613,10.9,4.309,11.429Z" transform="translate(79.167 0.217)" fill="#fff" stroke="#263238" stroke-linecap="round" stroke-linejoin="round" stroke-miterlimit="10" stroke-width="0.5"/>
      <path id="Path-83" data-name="Path" d="M.841,2.456C1.161,2.349,3.277-1.034,5.28.319s-.313,6.553-2,7.394A2.344,2.344,0,0,1,0,6.552" transform="translate(101.972 21.557)" fill="#fff" stroke="#263238" stroke-linecap="round" stroke-linejoin="round" stroke-miterlimit="10" stroke-width="0.5"/>
      <path id="Path-84" data-name="Path" d="M28.635,6.885c-1.7-1.688-4.439-.42-4.439-.42S22.287,1.6,19.017,1.478s-3.7,1.368-3.7,1.368S12.462-.637,9.818.1,7.175,2.532,7.175,2.532,2.316,1.371.52,4.855,3.691,9.4,3.691,9.4s-1.062,1.482.634,2.009c.634-.634,1.9-3.483,8.35-3.562S24.3,12.391,24.3,12.391s-2.323,2.742-1.582,3.9S24.3,17.356,24.2,18.3s-2.137,9.616-2.964,10.991a3.926,3.926,0,0,1-4.225,1.588c-1.482-.427-2.33-1.482-4.987-2.849s-4.866-1.9-6.769-1.161-2.009,1.375-3.064,1.688c-.912.278-1.2-.321-1.461-1.026C.442,28.91.214,30.085.071,30.89c-.712,4.331,4.018,8.341,9.305,9.082s10.353-1.8,11.728-4.438,5.7-19.546,6.341-20.707S30.324,8.559,28.635,6.885Z" transform="translate(79.151 0.239)" fill="#fb7d00" stroke="#263238" stroke-linecap="round" stroke-linejoin="round" stroke-miterlimit="10" stroke-width="0.5"/>
      <path id="Path-85" data-name="Path" d="M0,0S3.9,2.429,6.548.947c0,0-2.643,3.17-4.011,3.17S0,0,0,0Z" transform="translate(84.851 29.084)" fill="#263238" stroke="#263238" stroke-linecap="round" stroke-linejoin="round" stroke-miterlimit="10" stroke-width="0.5"/>
      <path id="Path-86" data-name="Path" d="M7.125,3.562A3.562,3.562,0,1,1,3.562,0,3.562,3.562,0,0,1,7.125,3.562Z" transform="translate(80.683 16.59)" fill="none" stroke="#263238" stroke-linecap="round" stroke-linejoin="round" stroke-miterlimit="10" stroke-width="0.5"/>
      <path id="Path-87" data-name="Path" d="M7.125,3.562A3.562,3.562,0,1,1,3.562,0,3.562,3.562,0,0,1,7.125,3.562Z" transform="translate(90.936 18.385)" fill="none" stroke="#263238" stroke-linecap="round" stroke-linejoin="round" stroke-miterlimit="10" stroke-width="0.5"/>
      <path id="Path-88" data-name="Path" d="M0,.178A3.208,3.208,0,0,1,3.277.89" transform="translate(87.915 19.603)" fill="none" stroke="#263238" stroke-linecap="round" stroke-linejoin="round" stroke-miterlimit="10" stroke-width="0.5"/>
      <path id="Path-89" data-name="Path" d="M0,.224,6.868.488" transform="translate(98.061 21.723)" fill="none" stroke="#263238" stroke-linecap="round" stroke-linejoin="round" stroke-miterlimit="10" stroke-width="0.5"/>
      <path id="Path-90" data-name="Path" d="M2.348,0A48.718,48.718,0,0,0,.025,5.072c-.214.947.948,1.475,2.43,1.475s2.137-.634,2.137-1.268" transform="translate(86.094 20.209)" fill="none" stroke="#263238" stroke-linecap="round" stroke-linejoin="round" stroke-miterlimit="10" stroke-width="0.5"/>
      <path id="Path-91" data-name="Path" d="M5.5,2.417A.891.891,0,0,1,5.09,2.31a3.642,3.642,0,0,0-3.755-.142A.857.857,0,1,1,.38.743,5.345,5.345,0,0,1,5.924.807.848.848,0,0,1,5.5,2.4Z" transform="translate(82.618 13.774)" fill="#fb7d00"/>
      <path id="Path-92" data-name="Path" d="M6.544,4.077a.855.855,0,0,1-.712-.356,4.432,4.432,0,0,0-4.759-1.9A.848.848,0,0,1,.566.2,6.107,6.107,0,0,1,7.213,2.737.848.848,0,0,1,6.5,4.077Z" transform="translate(91.937 15.605)" fill="#fb7d00"/>
      <ellipse id="Oval" cx="0.684" cy="1.268" rx="0.684" ry="1.268" transform="translate(84.003 19.041)" fill="#263238" stroke="#263238" stroke-linecap="round" stroke-linejoin="round" stroke-miterlimit="10" stroke-width="0.5"/>
      <path id="Path-93" data-name="Path" d="M1.425,1.268c0,.712-.306,1.268-.712,1.268S0,1.966,0,1.268.306,0,.712,0,1.425.57,1.425,1.268Z" transform="translate(93.251 20.629)" fill="#263238" stroke="#263238" stroke-linecap="round" stroke-linejoin="round" stroke-miterlimit="10" stroke-width="0.5"/>
    </g>
  </g>
</svg>
