<svg xmlns="http://www.w3.org/2000/svg" width="427.994" height="319.93" viewBox="0 0 427.994 319.93">
  <g id="Online_shopping-bro_2_" data-name="Online shopping-bro (2)" transform="translate(-0.472 -0.004)">
    <g id="freepik--background-simple--inject-2">
      <path id="Path" d="M379.02,289.019s60-69.52,44.59-158.427S328.7-4.865,275.373.4,168.954,57.915,116.85,64.37-13.8,116.779,2.08,204.213,66.2,300.2,144.288,303.413,332.879,346.663,379.02,289.019Z" transform="translate(0.472 0.004)" fill="#adc7f7"/>
      <path id="Path-2" data-name="Path" d="M379.02,289.019s60-69.52,44.59-158.427S328.7-4.865,275.373.4,168.954,57.915,116.85,64.37-13.8,116.779,2.08,204.213,66.2,300.2,144.288,303.413,332.879,346.663,379.02,289.019Z" transform="translate(0.472 0.004)" fill="#f9fbff"/>
    </g>
    <g id="freepik--Desk--inject-2" transform="translate(11.002 210.034)">
      <path id="Path-3" data-name="Path" d="M0,.8H416.964" transform="translate(0 0.8)" fill="none" stroke="#263238" stroke-linecap="round" stroke-linejoin="round" stroke-miterlimit="10" stroke-width="1"/>
    </g>
    <g id="freepik--Plant--inject-2" transform="translate(16.503 85.773)">
      <ellipse id="Oval" cx="35.425" cy="13.141" rx="35.425" ry="13.141" transform="translate(10.98 138.018)" fill="#263238"/>
      <path id="Path-4" data-name="Path" d="M0,0,4.94,40.071c0,6.422,11.992,11.634,26.789,11.634s26.789-5.212,26.789-11.634L63.458,0Z" transform="translate(25.722 109.757)" fill="#fff"/>
      <g id="Group" transform="translate(25.304 108.866)">
        <path id="Path-5" data-name="Path" d="M27.086,0H0L4.94,40.071c0,6.422,11.992,11.634,26.789,11.634q1.441,0,2.838-.066C26.129,36.685,25.986,14.735,27.086,0Z" transform="translate(0.418 0.891)" fill="#adc7f7"/>
        <path id="Path-6" data-name="Path" d="M27.086,0H0L4.94,40.071c0,6.422,11.992,11.634,26.789,11.634q1.441,0,2.838-.066C26.129,36.685,25.986,14.735,27.086,0Z" transform="translate(0.418 0.891)" fill="#fff" opacity="0.4"/>
      </g>
      <path id="Path-7" data-name="Path" d="M0,0,4.94,40.071c0,6.422,11.992,11.634,26.789,11.634s26.789-5.212,26.789-11.634L63.458,0Z" transform="translate(25.722 109.757)" fill="none" stroke="#263238" stroke-linecap="round" stroke-linejoin="round" stroke-miterlimit="10" stroke-width="1"/>
      <ellipse id="Oval-2" data-name="Oval" cx="31.729" cy="13.779" rx="31.729" ry="13.779" transform="translate(25.722 95.978)" fill="#fff" stroke="#263238" stroke-linecap="round" stroke-linejoin="round" stroke-miterlimit="10" stroke-width="1"/>
      <ellipse id="Oval-3" data-name="Oval" cx="28.351" cy="11.986" rx="28.351" ry="11.986" transform="translate(29.099 97.408)" fill="#263238" stroke="#263238" stroke-linecap="round" stroke-linejoin="round" stroke-miterlimit="10" stroke-width="1"/>
      <path id="Path-8" data-name="Path" d="M30.617,56.573s-2.53-23.335-18.3-41S.417.084.417.084" transform="translate(28.99 54.063)" fill="none" stroke="#263238" stroke-linecap="round" stroke-linejoin="round" stroke-miterlimit="10" stroke-width="1"/>
      <path id="Path-9" data-name="Path" d="M23.839,0S4.916,18.925,1.759,40.368.659,65.276.659,65.276" transform="translate(64.174 41.259)" fill="none" stroke="#263238" stroke-linecap="round" stroke-linejoin="round" stroke-miterlimit="10" stroke-width="1"/>
      <path id="Path-10" data-name="Path" d="M9.847,80.066s-3.7-13.2-7.481-39.709S.473,0,.473,0" transform="translate(52.863 29.284)" fill="none" stroke="#263238" stroke-linecap="round" stroke-linejoin="round" stroke-miterlimit="10" stroke-width="1"/>
      <path id="Path-11" data-name="Path" d="M19.3,29.845s-5.292,5.74-13.433-5.5S.432,0,.432,0s4.148,6.323,10.43,8.984S26.319,26.766,19.3,29.845Z" transform="translate(11.747 31.516)" fill="#adc7f7"/>
      <path id="Path-12" data-name="Path" d="M8.226,35.31S.657,37.2.03,23.335,8.831,0,8.831,0s0,7.566,3.785,13.2S15.806,36.575,8.226,35.31Z" transform="translate(45.066 0.275)" fill="#adc7f7"/>
      <path id="Path-13" data-name="Path" d="M3.366,29.2s-7.371-2.562-.3-14.5S23.246,0,23.246,0,19.1,6.334,19.153,13.2,9.054,34.4,3.366,29.2Z" transform="translate(81.16 19.068)" fill="#adc7f7"/>
      <path id="Path-14" data-name="Path" d="M61.2,43.513s5.05-22.708,15.776-33.419A34.443,34.443,0,0,1,100.952,0s-12.619,5.047-16.4,15.131S74.426,47.3,74.426,47.3H42.918S39.122,39.1,28.4,29.636,0,13.878,0,13.878s19.561-6.939,33.445-1.265S57.418,42.3,57.418,42.3Z" transform="translate(0.924 63.967)" fill="#adc7f7"/>
      <path id="Path-15" data-name="Path" d="M42.147,7.319S29.628-1.269,15.963.161,1.166,12.686.561,15.908A37.108,37.108,0,0,0,0,21.637s17.6-5.366,28.45-7.159S43.853,17.7,42.147,7.319Z" transform="translate(24.842 100.106)" fill="#adc7f7"/>
      <path id="Path-16" data-name="Path" d="M.219,7.319S8.1-1.269,16.722.161s9.307,12.525,9.659,15.747a56.925,56.925,0,0,1,.363,5.729s-11.1-5.366-17.9-7.159S-.859,17.7.219,7.319Z" transform="translate(62.105 100.106)" fill="#adc7f7"/>
    </g>
    <g id="freepik--Device--inject-2" transform="translate(78.112 54.983)">
      <path id="Path-17" data-name="Path" d="M8.955,0H247.1a8.953,8.953,0,0,1,8.955,8.951v166.4H0V8.94A8.953,8.953,0,0,1,8.955,0Z" transform="translate(39.023 0.132)" fill="#263238" stroke="#263238" stroke-linecap="round" stroke-linejoin="round" stroke-miterlimit="10" stroke-width="1"/>
      <path id="Path-18" data-name="Path" d="M332.856,77.515H0L38.407,0H294.449l38.407,77.515Z" transform="translate(0.616 175.483)" fill="#fff" stroke="#263238" stroke-linecap="round" stroke-linejoin="round" stroke-miterlimit="10" stroke-width="1"/>
      <rect id="Rectangle" width="225.029" height="147.585" transform="translate(54.535 14.01)" fill="#f9fbff" stroke="#263238" stroke-linecap="round" stroke-linejoin="round" stroke-miterlimit="10" stroke-width="1"/>
      <circle id="Oval-4" data-name="Oval" cx="31.798" cy="31.798" r="31.798" transform="translate(49.595 95.943) rotate(-45)" fill="#fb7d00"/>
      <circle id="Oval-5" data-name="Oval" cx="31.798" cy="31.798" r="31.798" transform="translate(123.099 95.941) rotate(-45)" fill="#fb7d00"/>
      <ellipse id="Oval-6" data-name="Oval" cx="31.805" cy="31.792" rx="31.805" ry="31.792" transform="translate(203.386 72.186) rotate(-13.12)" fill="#fb7d00"/>
      <path id="Path-19" data-name="Path" d="M0,38.268S14.016,0,22.256,0,45.008,37.817,45.008,37.817l-2.453.22S28.307,4.893,24.083,2.848,12.058,12.855,2.486,38.224Z" transform="translate(72.71 49.573)" fill="#fff" stroke="#263238" stroke-linecap="round" stroke-linejoin="round" stroke-miterlimit="10" stroke-width="1"/>
      <path id="Path-20" data-name="Path" d="M4.742,0H46.867A4.752,4.752,0,0,1,51.62,4.751V27.337a3.806,3.806,0,0,1-3.807,3.8H3.807A3.806,3.806,0,0,1,0,27.337V4.762A4.752,4.752,0,0,1,4.742,0Z" transform="translate(69.388 85.608)" fill="#fff" stroke="#263238" stroke-linecap="round" stroke-linejoin="round" stroke-miterlimit="10" stroke-width="1"/>
      <path id="Path-21" data-name="Path" d="M0,.55H46.735" transform="translate(69.817 101.751)" fill="#fff" stroke="#263238" stroke-linecap="round" stroke-linejoin="round" stroke-miterlimit="10" stroke-width="1"/>
      <path id="Path-22" data-name="Path" d="M2.227,0s-1.1,1.342-1.1,5.124S-.2,28.932.027,29.812s1.562.231,1.562.231" transform="translate(116.338 86.719)" fill="#fff" stroke="#263238" stroke-linecap="round" stroke-linejoin="round" stroke-miterlimit="10" stroke-width="1"/>
      <rect id="Rectangle-2" data-name="Rectangle" width="3.565" height="8.005" transform="translate(91.402 97.847)" fill="#fff" stroke="#263238" stroke-linecap="round" stroke-linejoin="round" stroke-miterlimit="10" stroke-width="1"/>
      <path id="Path-23" data-name="Path" d="M0,1.3S14.863,0,32.312,0,57.957,1.1,58.166,2.2,55.8,17.276,55.8,18.562s0,19.387-.429,20.465S53,40.962,52.137,41.171s-46.108.649-47.4.649a2.585,2.585,0,0,1-2.376-2.584c0-1.287.649-15.505-.429-20.674S0,1.3,0,1.3Z" transform="translate(140.239 76.052)" fill="#fff" stroke="#263238" stroke-linecap="round" stroke-linejoin="round" stroke-miterlimit="10" stroke-width="1"/>
      <path id="Path-24" data-name="Path" d="M.009,31.439S-.211,14.427,1.516,8.61A12.1,12.1,0,0,1,12.936,0a16,16,0,0,1,14.39,11.865c2.2,8.39.429,18.947.22,20.025s-2.585,4.091-3.025-1.726.44-19.376-1.287-23.258a10.266,10.266,0,0,0-11.2-5.6c-4.533,1.1-6.9,3.013-7.756,8.61s.858,18.529-.22,21.322S.394,35.31.009,31.439Z" transform="translate(156.215 53.014)" fill="#fff" stroke="#263238" stroke-linecap="round" stroke-linejoin="round" stroke-miterlimit="10" stroke-width="1"/>
      <path id="Path-25" data-name="Path" d="M1.32,0S.22,11.414.22,15.725s-.22,7.1-.22,7.1" transform="translate(143.011 77.559)" fill="#fff" stroke="#263238" stroke-linecap="round" stroke-linejoin="round" stroke-miterlimit="10" stroke-width="1"/>
      <path id="Path-26" data-name="Path" d="M.33,0S.77,11.414.77,18.089" transform="translate(194.4 77.779)" fill="none" stroke="#263238" stroke-linecap="round" stroke-linejoin="round" stroke-miterlimit="10" stroke-width="1"/>
      <path id="Path-27" data-name="Path" d="M19.591,37a1.1,1.1,0,0,1-1.1-.946c-2.123-13.273-4.786-27.909-6.15-32.66-2.013,4.487-6.436,18.771-10.1,31.758a1.141,1.141,0,0,1-2.2-.6c0-.088,2.354-8.368,4.907-16.627C10.262.7,11.263.323,12.055.07a1.31,1.31,0,0,1,1.188.176c.583.429,1.386,1.012,4.555,18.518C19.327,27.21,20.669,35.611,20.68,35.7a1.1,1.1,0,0,1-.935,1.287.726.726,0,0,1-.154.011Z" transform="translate(230.697 38.594)" fill="#fff" stroke="#263238" stroke-linecap="round" stroke-linejoin="round" stroke-miterlimit="10" stroke-width="1"/>
      <path id="Path-28" data-name="Path" d="M0,1.088S21.9-.254,29.452.043s20.958,1.1,20.9,1.968S50.036,30.6,49.255,36.1s-4.709,12.4-8.119,13.669-14.874.8-20.749.561S9.219,49.319,6.579,45.569s-4.533-19.5-4.533-19.5Z" transform="translate(214.588 70.808)" fill="#fff" stroke="#263238" stroke-linecap="round" stroke-linejoin="round" stroke-miterlimit="10" stroke-width="1"/>
      <path id="Path-29" data-name="Path" d="M4.4,2.25a2.2,2.2,0,1,0-.71,1.568A2.2,2.2,0,0,0,4.4,2.25Z" transform="translate(227.593 75.671)" fill="#fff" stroke="#263238" stroke-linecap="round" stroke-linejoin="round" stroke-miterlimit="10" stroke-width="1"/>
      <ellipse id="Oval-7" data-name="Oval" cx="2.232" cy="2.233" rx="2.232" ry="2.233" transform="translate(248.133 80.791) rotate(-80.56)" fill="#fff" stroke="#263238" stroke-linecap="round" stroke-linejoin="round" stroke-miterlimit="10" stroke-width="1"/>
      <path id="Path-30" data-name="Path" d="M0,.768S15.732-.563,44.524.889" transform="translate(218.417 107.966)" fill="#fff" stroke="#263238" stroke-linecap="round" stroke-linejoin="round" stroke-miterlimit="10" stroke-width="1"/>
      <rect id="Rectangle-3" data-name="Rectangle" width="217.294" height="17.66" transform="translate(58.023 18.364)" fill="#263238"/>
      <path id="Path-31" data-name="Path" d="M0,.55H21.541" transform="translate(163.408 27.876)" fill="none" stroke="#fff" stroke-miterlimit="10" stroke-width="2"/>
      <path id="Path-32" data-name="Path" d="M0,.55H21.541" transform="translate(209.868 27.876)" fill="none" stroke="#fff" stroke-miterlimit="10" stroke-width="2"/>
      <path id="Shape" d="M11.96,12.2a1.581,1.581,0,0,1-.749-1.48,1.612,1.612,0,0,1,.242-.847h-2.2a1.532,1.532,0,0,1,.253.847,1.584,1.584,0,1,1-3.157,0A1.624,1.624,0,0,1,6.6,9.875H6.436A.463.463,0,0,1,6,9.567L3.114.913H.451A.452.452,0,0,1,0,.451.451.451,0,0,1,.451,0H3.443a.461.461,0,0,1,.44.308l.452,1.364h11.8a.441.441,0,0,1,.363.187.461.461,0,0,1,.088.4l-1.309,4.86a.451.451,0,0,1-.44.33H6.26l.506,1.517h7.7a.45.45,0,0,1,.462.451.461.461,0,0,1-.462.462h-.352a1.624,1.624,0,0,1,.253.847A1.584,1.584,0,0,1,11.96,12.2Z" transform="translate(252.005 21.102)" fill="#fff"/>
      <path id="Path-33" data-name="Path" d="M6.711,3.409a3.356,3.356,0,1,0-3.356,3.3,3.354,3.354,0,0,0,3.356-3.3Z" transform="translate(265.35 19.266)" fill="#fff"/>
      <path id="Path-34" data-name="Path" d="M.169,4.3a.407.407,0,0,1-.154-.253.682.682,0,0,1,.176-.616l1.54-1.507a.77.77,0,0,0,.308-.561.429.429,0,0,0-.176-.352A.66.66,0,0,0,1.445.881H1.071L.917.947l-.165.1-.143.077a.275.275,0,0,1-.187,0A.33.33,0,0,1,.235,1,.759.759,0,0,1,.125.793a.33.33,0,0,1,0-.231A.374.374,0,0,1,.3.364,2.454,2.454,0,0,1,1.665,0,1.442,1.442,0,0,1,2.677.386a1.165,1.165,0,0,1,.385.88,1.429,1.429,0,0,1-.176.682,2.134,2.134,0,0,1-.55.649l-1.177.935H2.7a.231.231,0,0,1,.209.121.539.539,0,0,1,.077.275.66.66,0,0,1-.077.3.253.253,0,0,1-.209.121H.5A.4.4,0,0,1,.169,4.3Z" transform="translate(267.172 20.441)" fill="#263238"/>
      <path id="Path-35" data-name="Path" d="M84.834,10.59H5.292A5.291,5.291,0,0,1,0,5.289H0A5.291,5.291,0,0,1,5.292,0H84.834a5.291,5.291,0,0,1,5.292,5.289h0a5.291,5.291,0,0,1-5.292,5.3Z" transform="translate(60.828 21.905)" fill="#fff"/>
      <path id="Path-36" data-name="Path" d="M0,.55H32.565" transform="translate(78.233 137.083)" fill="none" stroke="#263238" stroke-linecap="round" stroke-linejoin="round" stroke-miterlimit="10" stroke-width="2"/>
      <path id="Path-37" data-name="Path" d="M0,.55H32.565" transform="translate(78.233 143.252)" fill="none" stroke="#263238" stroke-linecap="round" stroke-linejoin="round" stroke-miterlimit="10" stroke-width="2"/>
      <path id="Path-38" data-name="Path" d="M0,.55H32.576" transform="translate(151.779 137.083)" fill="none" stroke="#263238" stroke-linecap="round" stroke-linejoin="round" stroke-miterlimit="10" stroke-width="2"/>
      <path id="Path-39" data-name="Path" d="M0,.55H32.576" transform="translate(151.779 143.252)" fill="none" stroke="#263238" stroke-linecap="round" stroke-linejoin="round" stroke-miterlimit="10" stroke-width="2"/>
      <path id="Path-40" data-name="Path" d="M0,.55H32.565" transform="translate(225.337 137.083)" fill="none" stroke="#263238" stroke-linecap="round" stroke-linejoin="round" stroke-miterlimit="10" stroke-width="2"/>
      <path id="Path-41" data-name="Path" d="M0,.55H32.565" transform="translate(225.337 143.252)" fill="none" stroke="#263238" stroke-linecap="round" stroke-linejoin="round" stroke-miterlimit="10" stroke-width="2"/>
      <path id="Path-42" data-name="Path" d="M13.983,9.446,14.423,0H.9L0,9.446Z" transform="translate(142.384 190.581)" fill="#263238" stroke="#fff" stroke-linecap="round" stroke-linejoin="round" stroke-miterlimit="10" stroke-width="1"/>
      <path id="Path-43" data-name="Path" d="M13.994,9.446,13.532,0H0L.011,9.446Z" transform="translate(170.339 190.581)" fill="#263238" stroke="#fff" stroke-linecap="round" stroke-linejoin="round" stroke-miterlimit="10" stroke-width="1"/>
      <path id="Path-44" data-name="Path" d="M2.915,10.095H17.372L13.983,0H0L2.915,10.095Z" transform="translate(254.238 200.027)" fill="#263238" stroke="#fff" stroke-linecap="round" stroke-linejoin="round" stroke-miterlimit="10" stroke-width="1"/>
      <path id="Path-45" data-name="Path" d="M13.972,9.446,14.874,0H1.342L0,9.446Z" transform="translate(128.412 190.581)" fill="#263238" stroke="#fff" stroke-linecap="round" stroke-linejoin="round" stroke-miterlimit="10" stroke-width="1"/>
      <path id="Path-46" data-name="Path" d="M13.983,9.446,15.776,0H2.255L0,9.446Z" transform="translate(100.445 190.581)" fill="#263238" stroke="#fff" stroke-linecap="round" stroke-linejoin="round" stroke-miterlimit="10" stroke-width="1"/>
      <path id="Path-47" data-name="Path" d="M15.8,9.446,13.532,0H0L1.815,9.446Z" transform="translate(224.457 190.581)" fill="#263238" stroke="#fff" stroke-linecap="round" stroke-linejoin="round" stroke-miterlimit="10" stroke-width="1"/>
      <path id="Path-48" data-name="Path" d="M16.25,9.446,13.521,0H0L2.266,9.446Z" transform="translate(237.989 190.581)" fill="#263238" stroke="#fff" stroke-linecap="round" stroke-linejoin="round" stroke-miterlimit="10" stroke-width="1"/>
      <path id="Path-49" data-name="Path" d="M13.983,9.446,16.238,0H2.706L0,9.446Z" transform="translate(86.462 190.581)" fill="#263238" stroke="#fff" stroke-linecap="round" stroke-linejoin="round" stroke-miterlimit="10" stroke-width="1"/>
      <path id="Path-50" data-name="Path" d="M14.445,9.446,13.532,0H0L.462,9.446Z" transform="translate(183.871 190.581)" fill="#263238" stroke="#fff" stroke-linecap="round" stroke-linejoin="round" stroke-miterlimit="10" stroke-width="1"/>
      <path id="Path-51" data-name="Path" d="M16.712,9.446,13.532,0H0L2.728,9.446Z" transform="translate(251.51 190.581)" fill="#263238" stroke="#fff" stroke-linecap="round" stroke-linejoin="round" stroke-miterlimit="10" stroke-width="1"/>
      <path id="Path-52" data-name="Path" d="M15.347,9.446,13.532,0H0L1.364,9.446Z" transform="translate(210.924 190.581)" fill="#263238" stroke="#fff" stroke-linecap="round" stroke-linejoin="round" stroke-miterlimit="10" stroke-width="1"/>
      <path id="Path-53" data-name="Path" d="M14.885,9.446,13.521,0H0L.913,9.446Z" transform="translate(197.403 190.581)" fill="#263238" stroke="#fff" stroke-linecap="round" stroke-linejoin="round" stroke-miterlimit="10" stroke-width="1"/>
      <path id="Path-54" data-name="Path" d="M13.983,9.446,13.972,0H.44L0,9.446Z" transform="translate(156.367 190.581)" fill="#263238" stroke="#fff" stroke-linecap="round" stroke-linejoin="round" stroke-miterlimit="10" stroke-width="1"/>
      <path id="Path-55" data-name="Path" d="M17.845,0H3.862L0,10.095H14.467L17.845,0Z" transform="translate(54.634 200.027)" fill="#263238" stroke="#fff" stroke-linecap="round" stroke-linejoin="round" stroke-miterlimit="10" stroke-width="1"/>
      <path id="Path-56" data-name="Path" d="M17.141,0H3.62L0,9.446H13.983L17.141,0Z" transform="translate(58.496 190.581)" fill="#263238" stroke="#fff" stroke-linecap="round" stroke-linejoin="round" stroke-miterlimit="10" stroke-width="1"/>
      <path id="Path-57" data-name="Path" d="M13.983,9.446,16.69,0H3.157L0,9.446Z" transform="translate(72.479 190.581)" fill="#263238" stroke="#fff" stroke-linecap="round" stroke-linejoin="round" stroke-miterlimit="10" stroke-width="1"/>
      <path id="Path-58" data-name="Path" d="M4.445,0,0,11.634H15.545L19.429,0Z" transform="translate(46.053 220.943)" fill="#263238" stroke="#fff" stroke-linecap="round" stroke-linejoin="round" stroke-miterlimit="10" stroke-width="1"/>
      <path id="Path-59" data-name="Path" d="M18.6,0H4.137L0,10.821H14.984L18.6,0Z" transform="translate(50.498 210.122)" fill="#263238" stroke="#fff" stroke-linecap="round" stroke-linejoin="round" stroke-miterlimit="10" stroke-width="1"/>
      <path id="Path-60" data-name="Path" d="M3.884,0,0,11.634H15.545L18.868,0Z" transform="translate(61.598 220.943)" fill="#263238" stroke="#fff" stroke-linecap="round" stroke-linejoin="round" stroke-miterlimit="10" stroke-width="1"/>
      <path id="Path-61" data-name="Path" d="M13.983,9.446,15.325,0H1.793L0,9.446Z" transform="translate(114.429 190.581)" fill="#263238" stroke="#fff" stroke-linecap="round" stroke-linejoin="round" stroke-miterlimit="10" stroke-width="1"/>
      <path id="Path-62" data-name="Path" d="M14.456,10.095,15.908,0H1.925L0,10.095Z" transform="translate(112.503 200.027)" fill="#263238" stroke="#fff" stroke-linecap="round" stroke-linejoin="round" stroke-miterlimit="10" stroke-width="1"/>
      <path id="Path-63" data-name="Path" d="M14.467,10.095,16.393,0H2.409L0,10.095Z" transform="translate(98.036 200.027)" fill="#263238" stroke="#fff" stroke-linecap="round" stroke-linejoin="round" stroke-miterlimit="10" stroke-width="1"/>
      <path id="Path-64" data-name="Path" d="M14.467,10.095,15.424,0H1.452L0,10.095Z" transform="translate(126.96 200.027)" fill="#263238" stroke="#fff" stroke-linecap="round" stroke-linejoin="round" stroke-miterlimit="10" stroke-width="1"/>
      <path id="Path-65" data-name="Path" d="M17.361,0H3.378L0,10.095H14.467L17.361,0Z" transform="translate(69.102 200.027)" fill="#263238" stroke="#fff" stroke-linecap="round" stroke-linejoin="round" stroke-miterlimit="10" stroke-width="1"/>
      <path id="Path-66" data-name="Path" d="M3.113,10.821H18.1L14.456,0H0L3.113,10.821Z" transform="translate(257.154 210.122)" fill="#263238" stroke="#fff" stroke-linecap="round" stroke-linejoin="round" stroke-miterlimit="10" stroke-width="1"/>
      <path id="Path-67" data-name="Path" d="M14.467,10.095,16.877,0H2.893L0,10.095Z" transform="translate(83.569 200.027)" fill="#263238" stroke="#fff" stroke-linecap="round" stroke-linejoin="round" stroke-miterlimit="10" stroke-width="1"/>
      <path id="Path-68" data-name="Path" d="M3.62,0,0,10.821H14.984L18.087,0Z" transform="translate(65.482 210.122)" fill="#263238" stroke="#fff" stroke-linecap="round" stroke-linejoin="round" stroke-miterlimit="10" stroke-width="1"/>
      <path id="Path-69" data-name="Path" d="M15.93,10.095,13.983,0H0L1.463,10.095Z" transform="translate(212.289 200.027)" fill="#263238" stroke="#fff" stroke-linecap="round" stroke-linejoin="round" stroke-miterlimit="10" stroke-width="1"/>
      <path id="Path-70" data-name="Path" d="M15.435,10.095,13.972,0H0L.968,10.095Z" transform="translate(198.317 200.027)" fill="#263238" stroke="#fff" stroke-linecap="round" stroke-linejoin="round" stroke-miterlimit="10" stroke-width="1"/>
      <path id="Path-71" data-name="Path" d="M16.9,10.095,13.983,0H0L2.431,10.095Z" transform="translate(240.255 200.027)" fill="#263238" stroke="#fff" stroke-linecap="round" stroke-linejoin="round" stroke-miterlimit="10" stroke-width="1"/>
      <path id="Path-72" data-name="Path" d="M14.467,10.095,14.456,0H.473L0,10.095Z" transform="translate(155.894 200.027)" fill="#263238" stroke="#fff" stroke-linecap="round" stroke-linejoin="round" stroke-miterlimit="10" stroke-width="1"/>
      <path id="Path-73" data-name="Path" d="M14.951,10.095,13.983,0H0L.5,10.095Z" transform="translate(184.333 200.027)" fill="#263238" stroke="#fff" stroke-linecap="round" stroke-linejoin="round" stroke-miterlimit="10" stroke-width="1"/>
      <path id="Path-74" data-name="Path" d="M14.478,10.095,13.983,0H0L.011,10.095Z" transform="translate(170.35 200.027)" fill="#263238" stroke="#fff" stroke-linecap="round" stroke-linejoin="round" stroke-miterlimit="10" stroke-width="1"/>
      <path id="Path-75" data-name="Path" d="M14.467,10.095,14.94,0H.957L0,10.095Z" transform="translate(141.427 200.027)" fill="#263238" stroke="#fff" stroke-linecap="round" stroke-linejoin="round" stroke-miterlimit="10" stroke-width="1"/>
      <path id="Path-76" data-name="Path" d="M0,0,1.056,10.821H16.029L14.467,0Z" transform="translate(199.285 210.122)" fill="#263238" stroke="#fff" stroke-linecap="round" stroke-linejoin="round" stroke-miterlimit="10" stroke-width="1"/>
      <path id="Path-77" data-name="Path" d="M0,0,1.562,10.821H16.547L14.467,0Z" transform="translate(213.752 210.122)" fill="#263238" stroke="#fff" stroke-linecap="round" stroke-linejoin="round" stroke-miterlimit="10" stroke-width="1"/>
      <path id="Path-78" data-name="Path" d="M3.1,0,0,10.821H14.984L17.57,0Z" transform="translate(80.466 210.122)" fill="#263238" stroke="#fff" stroke-linecap="round" stroke-linejoin="round" stroke-miterlimit="10" stroke-width="1"/>
      <path id="Path-79" data-name="Path" d="M0,0,2.079,10.821H17.064L14.467,0Z" transform="translate(228.219 210.122)" fill="#263238" stroke="#fff" stroke-linecap="round" stroke-linejoin="round" stroke-miterlimit="10" stroke-width="1"/>
      <path id="Path-80" data-name="Path" d="M0,0,.011,10.821H15L14.467,0Z" transform="translate(170.361 210.122)" fill="#263238" stroke="#fff" stroke-linecap="round" stroke-linejoin="round" stroke-miterlimit="10" stroke-width="1"/>
      <path id="Path-81" data-name="Path" d="M0,0,2.6,10.821H17.581L14.467,0Z" transform="translate(242.686 210.122)" fill="#263238" stroke="#fff" stroke-linecap="round" stroke-linejoin="round" stroke-miterlimit="10" stroke-width="1"/>
      <path id="Path-82" data-name="Path" d="M0,0,.528,10.821H15.512L14.456,0Z" transform="translate(184.828 210.122)" fill="#263238" stroke="#fff" stroke-linecap="round" stroke-linejoin="round" stroke-miterlimit="10" stroke-width="1"/>
      <path id="Path-83" data-name="Path" d="M2.068,0,0,10.821H14.984L16.525,0Z" transform="translate(110.435 210.122)" fill="#263238" stroke="#fff" stroke-linecap="round" stroke-linejoin="round" stroke-miterlimit="10" stroke-width="1"/>
      <path id="Path-84" data-name="Path" d="M2.585,0,0,10.821H14.984L17.053,0Z" transform="translate(95.451 210.122)" fill="#263238" stroke="#fff" stroke-linecap="round" stroke-linejoin="round" stroke-miterlimit="10" stroke-width="1"/>
      <path id="Path-85" data-name="Path" d="M.506,0,0,10.821H14.984L14.973,0Z" transform="translate(155.388 210.122)" fill="#263238" stroke="#fff" stroke-linecap="round" stroke-linejoin="round" stroke-miterlimit="10" stroke-width="1"/>
      <path id="Path-86" data-name="Path" d="M1.023,0,0,10.821H14.984L15.49,0Z" transform="translate(140.404 210.122)" fill="#263238" stroke="#fff" stroke-linecap="round" stroke-linejoin="round" stroke-miterlimit="10" stroke-width="1"/>
      <path id="Path-87" data-name="Path" d="M1.54,0,0,10.821H14.984L16.007,0Z" transform="translate(125.419 210.122)" fill="#263238" stroke="#fff" stroke-linecap="round" stroke-linejoin="round" stroke-miterlimit="10" stroke-width="1"/>
      <path id="Path-88" data-name="Path" d="M16.415,10.095,13.983,0H0L1.947,10.095Z" transform="translate(226.272 200.027)" fill="#263238" stroke="#fff" stroke-linecap="round" stroke-linejoin="round" stroke-miterlimit="10" stroke-width="1"/>
      <path id="Path-89" data-name="Path" d="M13.521,9.677,16.756,0H3.686L0,9.677Z" transform="translate(62.116 180.904)" fill="#263238" stroke="#fff" stroke-linecap="round" stroke-linejoin="round" stroke-miterlimit="10" stroke-width="1"/>
      <path id="Path-90" data-name="Path" d="M16.525,0H4.027L0,9.446H12.9L16.525,0Z" transform="translate(45.591 190.581)" fill="#263238" stroke="#fff" stroke-linecap="round" stroke-linejoin="round" stroke-miterlimit="10" stroke-width="1"/>
      <path id="Path-91" data-name="Path" d="M16.183,0H4.126L0,9.677H12.5L16.183,0Z" transform="translate(49.618 180.904)" fill="#263238" stroke="#fff" stroke-linecap="round" stroke-linejoin="round" stroke-miterlimit="10" stroke-width="1"/>
      <path id="Path-92" data-name="Path" d="M17.207,0H4.3L0,10.095H13.345L17.207,0Z" transform="translate(41.289 200.027)" fill="#263238" stroke="#fff" stroke-linecap="round" stroke-linejoin="round" stroke-miterlimit="10" stroke-width="1"/>
      <path id="Path-93" data-name="Path" d="M17.966,0H4.621L0,10.821H13.829L17.966,0Z" transform="translate(36.669 210.122)" fill="#263238" stroke="#fff" stroke-linecap="round" stroke-linejoin="round" stroke-miterlimit="10" stroke-width="1"/>
      <path id="Path-94" data-name="Path" d="M18.791,0H4.962L0,11.634H14.346L18.791,0Z" transform="translate(31.707 220.943)" fill="#263238" stroke="#fff" stroke-linecap="round" stroke-linejoin="round" stroke-miterlimit="10" stroke-width="1"/>
      <path id="Path-95" data-name="Path" d="M0,0,3.884,10.095H16.679L12.377,0Z" transform="translate(282.193 200.027)" fill="#263238" stroke="#fff" stroke-linecap="round" stroke-linejoin="round" stroke-miterlimit="10" stroke-width="1"/>
      <path id="Path-96" data-name="Path" d="M4.159,10.821H17.416L12.795,0H0L4.159,10.821Z" transform="translate(286.077 210.122)" fill="#263238" stroke="#fff" stroke-linecap="round" stroke-linejoin="round" stroke-miterlimit="10" stroke-width="1"/>
      <path id="Path-97" data-name="Path" d="M4.467,11.634H18.219L13.257,0H0L4.467,11.634Z" transform="translate(290.236 220.943)" fill="#263238" stroke="#fff" stroke-linecap="round" stroke-linejoin="round" stroke-miterlimit="10" stroke-width="1"/>
      <path id="Path-98" data-name="Path" d="M13.543,9.677,13.07,0H0L.011,9.677Z" transform="translate(170.328 180.904)" fill="#263238" stroke="#fff" stroke-linecap="round" stroke-linejoin="round" stroke-miterlimit="10" stroke-width="1"/>
      <path id="Path-99" data-name="Path" d="M3.62,9.446H16L11.97,0H0L3.62,9.446Z" transform="translate(278.574 190.581)" fill="#263238" stroke="#fff" stroke-linecap="round" stroke-linejoin="round" stroke-miterlimit="10" stroke-width="1"/>
      <path id="Path-100" data-name="Path" d="M3.642,10.821H18.626L14.467,0H0L3.642,10.821Z" transform="translate(271.61 210.122)" fill="#263238" stroke="#fff" stroke-linecap="round" stroke-linejoin="round" stroke-miterlimit="10" stroke-width="1"/>
      <path id="Path-101" data-name="Path" d="M13.532,9.677,16.3,0H3.234L0,9.677Z" transform="translate(75.637 180.904)" fill="#263238" stroke="#fff" stroke-linecap="round" stroke-linejoin="round" stroke-miterlimit="10" stroke-width="1"/>
      <path id="Path-102" data-name="Path" d="M0,0,3.179,9.446H17.152L13.532,0Z" transform="translate(265.042 190.581)" fill="#263238" stroke="#fff" stroke-linecap="round" stroke-linejoin="round" stroke-miterlimit="10" stroke-width="1"/>
      <path id="Path-103" data-name="Path" d="M15.688,9.677,11.563,0H0L3.719,9.677Z" transform="translate(274.855 180.904)" fill="#263238" stroke="#fff" stroke-linecap="round" stroke-linejoin="round" stroke-miterlimit="10" stroke-width="1"/>
      <path id="Path-104" data-name="Path" d="M16.778,9.677,13.059,0H0L3.245,9.677Z" transform="translate(261.796 180.904)" fill="#263238" stroke="#fff" stroke-linecap="round" stroke-linejoin="round" stroke-miterlimit="10" stroke-width="1"/>
      <path id="Path-105" data-name="Path" d="M0,0,2.244,11.634H17.779L14.984,0Z" transform="translate(230.298 220.943)" fill="#263238" stroke="#fff" stroke-linecap="round" stroke-linejoin="round" stroke-miterlimit="10" stroke-width="1"/>
      <path id="Path-106" data-name="Path" d="M3.906,11.634H19.451L14.984,0H0L3.906,11.634Z" transform="translate(275.251 220.943)" fill="#263238" stroke="#fff" stroke-linecap="round" stroke-linejoin="round" stroke-miterlimit="10" stroke-width="1"/>
      <path id="Path-107" data-name="Path" d="M16.316,9.677,13.07,0H0L2.783,9.677Z" transform="translate(248.726 180.904)" fill="#263238" stroke="#fff" stroke-linecap="round" stroke-linejoin="round" stroke-miterlimit="10" stroke-width="1"/>
      <path id="Path-108" data-name="Path" d="M0,0,3.356,11.634H18.89L14.984,0Z" transform="translate(260.267 220.943)" fill="#263238" stroke="#fff" stroke-linecap="round" stroke-linejoin="round" stroke-miterlimit="10" stroke-width="1"/>
      <path id="Path-109" data-name="Path" d="M0,0,2.794,11.634H18.34L14.984,0Z" transform="translate(245.283 220.943)" fill="#263238" stroke="#fff" stroke-linecap="round" stroke-linejoin="round" stroke-miterlimit="10" stroke-width="1"/>
      <path id="Path-110" data-name="Path" d="M3.389,10.095H17.856L13.972,0H0L3.389,10.095Z" transform="translate(268.221 200.027)" fill="#263238" stroke="#fff" stroke-linecap="round" stroke-linejoin="round" stroke-miterlimit="10" stroke-width="1"/>
      <path id="Path-111" data-name="Path" d="M13.532,9.677,14.445,0H1.375L0,9.677Z" transform="translate(129.754 180.904)" fill="#263238" stroke="#fff" stroke-linecap="round" stroke-linejoin="round" stroke-miterlimit="10" stroke-width="1"/>
      <path id="Path-112" data-name="Path" d="M15.853,9.677,13.07,0H0L2.332,9.677Z" transform="translate(235.656 180.904)" fill="#263238" stroke="#fff" stroke-linecap="round" stroke-linejoin="round" stroke-miterlimit="10" stroke-width="1"/>
      <path id="Path-113" data-name="Path" d="M13.532,9.677,14.907,0H1.848L0,9.677Z" transform="translate(116.222 180.904)" fill="#263238" stroke="#fff" stroke-linecap="round" stroke-linejoin="round" stroke-miterlimit="10" stroke-width="1"/>
      <path id="Path-114" data-name="Path" d="M13.532,9.677,13.521,0H.462L0,9.677Z" transform="translate(156.807 180.904)" fill="#263238" stroke="#fff" stroke-linecap="round" stroke-linejoin="round" stroke-miterlimit="10" stroke-width="1"/>
      <path id="Path-115" data-name="Path" d="M13.521,9.677,15.369,0H2.3L0,9.677Z" transform="translate(102.701 180.904)" fill="#263238" stroke="#fff" stroke-linecap="round" stroke-linejoin="round" stroke-miterlimit="10" stroke-width="1"/>
      <path id="Path-116" data-name="Path" d="M13.532,9.677,15.831,0H2.772L0,9.677Z" transform="translate(89.169 180.904)" fill="#263238" stroke="#fff" stroke-linecap="round" stroke-linejoin="round" stroke-miterlimit="10" stroke-width="1"/>
      <path id="Path-117" data-name="Path" d="M13.521,9.677,13.983,0H.913L0,9.677Z" transform="translate(143.286 180.904)" fill="#263238" stroke="#fff" stroke-linecap="round" stroke-linejoin="round" stroke-miterlimit="10" stroke-width="1"/>
      <path id="Path-118" data-name="Path" d="M15.391,9.677,13.059,0H0L1.859,9.677Z" transform="translate(222.597 180.904)" fill="#263238" stroke="#fff" stroke-linecap="round" stroke-linejoin="round" stroke-miterlimit="10" stroke-width="1"/>
      <path id="Path-119" data-name="Path" d="M14.929,9.677,13.07,0H0L1.4,9.677Z" transform="translate(209.527 180.904)" fill="#263238" stroke="#fff" stroke-linecap="round" stroke-linejoin="round" stroke-miterlimit="10" stroke-width="1"/>
      <path id="Path-120" data-name="Path" d="M14.005,9.677,13.059,0H0L.473,9.677Z" transform="translate(183.398 180.904)" fill="#263238" stroke="#fff" stroke-linecap="round" stroke-linejoin="round" stroke-miterlimit="10" stroke-width="1"/>
      <path id="Path-121" data-name="Path" d="M153.155,0H3.323L0,11.634H155.4L153.155,0Z" transform="translate(77.144 220.943)" fill="#263238" stroke="#fff" stroke-linecap="round" stroke-linejoin="round" stroke-miterlimit="10" stroke-width="1"/>
      <path id="Path-122" data-name="Path" d="M14.467,9.677,13.07,0H0L.946,9.677Z" transform="translate(196.457 180.904)" fill="#263238" stroke="#fff" stroke-linecap="round" stroke-linejoin="round" stroke-miterlimit="10" stroke-width="1"/>
      <rect id="Rectangle-4" data-name="Rectangle" width="333.01" height="4.729" transform="translate(0.616 252.998)" fill="#263238" stroke="#263238" stroke-linecap="round" stroke-linejoin="round" stroke-miterlimit="10" stroke-width="1"/>
    </g>
  </g>
</svg>
