<svg xmlns="http://www.w3.org/2000/svg" width="364.121" height="358.626" viewBox="0 0 364.121 358.626">
  <g id="Savings-bro" transform="translate(-0.471 0.575)">
    <g id="freepik--background-simple--inject-2" transform="translate(0 5.719)">
      <path id="Path" d="M114.126,21.277S52.189,52.813,21.3,101.407s-28.447,111.111,9.09,157.516,109.283,40.31,169.357,69.706S326.1,351.97,354.5,289.691s-14.428-85.555-21.785-157.63S260.349-45.553,114.126,21.277Z" transform="translate(0.471 0.717)" fill="#adc7f7"/>
      <path id="Path-2" data-name="Path" d="M114.126,21.277S52.189,52.813,21.3,101.407s-28.447,111.111,9.09,157.516,109.283,40.31,169.357,69.706S326.1,351.97,354.5,289.691s-14.428-85.555-21.785-157.63S260.349-45.553,114.126,21.277Z" transform="translate(0.471 0.717)" fill="#f9fbff"/>
    </g>
    <g id="freepik--Plants--inject-2" transform="translate(268.937 153.594)">
      <path id="Path-3" data-name="Path" d="M27.975,156.517S-6.831,95.463,1.2,79.891,29.757,92.318,29.757,92.318,11.913,35.373,21.73,10.5,48.5,10.5,49.392,28.1,45.82,75.733,45.82,75.733s7.144-62.091,24.1-43.488S48.5,113,48.5,113s25.88-14.493,24.981,4.142-31.226,35.2-31.226,35.2" transform="translate(0.022 0.125)" fill="#adc7f7"/>
      <path id="Path-4" data-name="Path" d="M20.823,118.138S-11.384,88.105,4.311,74.65,28.262,89.143,28.262,89.143,10.916,3.2,39,.091s7.431,74.55,7.431,74.55,23.951-33.129,22.3-6.168-37.161,49.706-37.161,49.706" transform="translate(7.468 27.115)" fill="none" stroke="#263238" stroke-miterlimit="10" stroke-width="1"/>
      <path id="Path-5" data-name="Path" d="M21.76,23.57,0,0" transform="translate(22.349 116.217)" fill="none" stroke="#263238" stroke-miterlimit="10" stroke-width="1"/>
      <path id="Path-6" data-name="Path" d="M0,68.9,5.894,0" transform="translate(39.58 72.704)" fill="none" stroke="#263238" stroke-miterlimit="10" stroke-width="1"/>
      <path id="Path-7" data-name="Path" d="M0,25.833,19.5,0" transform="translate(38.673 110.776)" fill="none" stroke="#263238" stroke-miterlimit="10" stroke-width="1"/>
      <path id="Path-8" data-name="Path" d="M60.2,0H0L6.025,70.972H54.18L60.2,0Z" transform="translate(6.67 131.805)" fill="#263238"/>
    </g>
    <g id="freepik--piggy-bank--inject-2" transform="translate(54.768 182.189)">
      <path id="Path-9" data-name="Path" d="M50.605,11.385a183.622,183.622,0,0,0-24.213-9.8C14.442-2.1.341,1.271.03,5.249s1.815,2.157,4.6,6.471,1.529,14.4,5.518,23.587S26.082,49.089,26.082,49.089Z" transform="translate(0.607 9.522)" fill="#fb7d00" stroke="#263238" stroke-linecap="round" stroke-linejoin="round" stroke-miterlimit="10" stroke-width="1"/>
      <path id="Path-10" data-name="Path" d="M40.455,17.024S22.063,5.382,11.338,1.4,0,3.233,0,3.233a8.9,8.9,0,0,1,5.828,8.685c0,6.879,3.441,21.127,11.8,24.069S40.455,17.024,40.455,17.024Z" transform="translate(2.787 12.771)" opacity="0.3"/>
      <ellipse id="Oval" cx="9.31" cy="9.992" rx="9.31" ry="9.992" transform="translate(158.677 27.428) rotate(-20.8)" fill="#fb7d00" stroke="#263238" stroke-linecap="round" stroke-linejoin="round" stroke-miterlimit="10" stroke-width="1"/>
      <path id="Path-11" data-name="Path" d="M0,0,10.316,30.931a4.21,4.21,0,0,0,4,2.876H30.392a4.2,4.2,0,0,0,3.866-2.541l7.193-16.683" transform="translate(42.695 140.375)" fill="#fb7d00"/>
      <path id="Path-12" data-name="Path" d="M0,0,8.534,30.931a3.621,3.621,0,0,0,3.319,2.876H25.185a3.523,3.523,0,0,0,3.2-2.541l5.967-16.683" transform="translate(47.869 140.375)" opacity="0.3"/>
      <path id="Path-13" data-name="Path" d="M0,0,10.316,30.931a4.21,4.21,0,0,0,4,2.876H30.392a4.2,4.2,0,0,0,3.866-2.541l7.193-16.683" transform="translate(42.695 140.375)" fill="none" stroke="#263238" stroke-linecap="round" stroke-linejoin="round" stroke-miterlimit="10" stroke-width="1"/>
      <path id="Path-14" data-name="Path" d="M41.428,0,31.12,30.931a4.21,4.21,0,0,1-4,2.876H11.06a4.2,4.2,0,0,1-3.866-2.541L0,14.583" transform="translate(78.858 140.375)" fill="#263238" stroke="#263238" stroke-linecap="round" stroke-linejoin="round" stroke-miterlimit="10" stroke-width="1"/>
      <path id="Path-15" data-name="Path" d="M41.452,0,31.136,30.931a4.21,4.21,0,0,1-4,2.876H11.06a4.2,4.2,0,0,1-3.866-2.541L0,14.583" transform="translate(112.994 140.375)" fill="#fb7d00"/>
      <path id="Path-16" data-name="Path" d="M30.253,0,23.2,30.931c-.392,1.716-1.488,2.876-2.73,2.876H9.474c-1.144,0-2.183-1-2.64-2.541L0,14.926" transform="translate(116.885 140.375)" opacity="0.3"/>
      <path id="Path-17" data-name="Path" d="M41.452,0,31.136,30.931a4.21,4.21,0,0,1-4,2.876H11.06a4.2,4.2,0,0,1-3.866-2.541L0,14.583" transform="translate(112.994 140.375)" fill="none" stroke="#263238" stroke-linecap="round" stroke-linejoin="round" stroke-miterlimit="10" stroke-width="1"/>
      <ellipse id="Oval-2" data-name="Oval" cx="88.422" cy="80.147" rx="88.422" ry="80.147" transform="translate(10.896 0.433)" fill="#fb7d00"/>
      <path id="Path-18" data-name="Path" d="M131.828,0a73.586,73.586,0,0,1,7.888,33.137c0,44.265-39.589,80.147-88.422,80.147A94.346,94.346,0,0,1,0,98.431c15.417,20.678,41.518,34.314,71.117,34.314,47.411,0,85.831-34.812,85.831-77.761C156.9,33.488,147.3,14.069,131.828,0Z" transform="translate(28.39 25.817)" opacity="0.3"/>
      <ellipse id="Oval-3" data-name="Oval" cx="88.422" cy="80.147" rx="88.422" ry="80.147" transform="translate(10.896 0.433)" fill="none" stroke="#263238" stroke-linecap="round" stroke-linejoin="round" stroke-miterlimit="10" stroke-width="1"/>
      <path id="Path-19" data-name="Path" d="M20.591,0A73.376,73.376,0,0,1,0,42.361" transform="translate(159.711 87.769)" fill="none" stroke="#ffb76f" stroke-linecap="round" stroke-linejoin="round" stroke-miterlimit="10" stroke-width="2"/>
      <path id="Path-20" data-name="Path" d="M0,0A70.331,70.331,0,0,1,1.962,16.511" transform="translate(178.839 62.908)" fill="none" stroke="#ffb76f" stroke-linecap="round" stroke-linejoin="round" stroke-miterlimit="10" stroke-width="2"/>
      <path id="Path-21" data-name="Path" d="M0,2.549A97.2,97.2,0,0,1,22.226,0,98.211,98.211,0,0,1,36.539,1.046" transform="translate(77.395 2.884)" fill="none" stroke="#263238" stroke-linecap="round" stroke-linejoin="round" stroke-miterlimit="10" stroke-width="4"/>
      <path id="Path-22" data-name="Path" d="M42.8,53.767s8.583-5.825,8.894-16.544S37.9,10.884,26.557,4.446,6.939-.759,6.637,3.833s-4.292,9.8-5.82,18.685-2.15,22.059,9.809,26.348" transform="translate(73.865 7.613)" fill="#fb7d00" stroke="#263238" stroke-linecap="round" stroke-linejoin="round" stroke-miterlimit="10" stroke-width="1"/>
      <path id="Path-23" data-name="Path" d="M21.395,47.6l1.757.261c7.537,1.087,10.185-3.832,9.965-11.217C32.814,26.226,19.024,4.167,13.2,1.1S5.536,2.329,5.536,2.329s.817.547-2.052,10.065c-1.324,4.4-6.253,19.722-1.373,26.52C6.427,44.918,14.446,46.561,21.395,47.6Z" transform="translate(76.804 10.343)" opacity="0.3"/>
      <path id="Path-24" data-name="Path" d="M13.086,25.726h-.114a.817.817,0,0,1-.7-.923,16.331,16.331,0,0,0,.155-1.9c.163-5.719-4.5-13.93-12.18-21.5A.821.821,0,1,1,1.4.236c8.109,8.007,12.842,16.5,12.662,22.712a19.54,19.54,0,0,1-.163,2.075A.817.817,0,0,1,13.086,25.726Z" transform="translate(109.529 21.659)" opacity="0.3"/>
      <path id="Path-25" data-name="Path" d="M.82,7.349A.817.817,0,0,1,.183,6.017,20.079,20.079,0,0,0,3.371.527a.817.817,0,0,1,1.529.58,21.615,21.615,0,0,1-3.45,5.94.818.818,0,0,1-.629.3Z" transform="translate(117.398 49.889)" opacity="0.3"/>
      <ellipse id="Oval-4" data-name="Oval" cx="18.072" cy="23.909" rx="18.072" ry="23.909" transform="matrix(0.242, -0.97, 0.97, 0.242, 7.918, 102.048)" opacity="0.3"/>
      <ellipse id="Oval-5" data-name="Oval" cx="18.072" cy="23.909" rx="18.072" ry="23.909" transform="matrix(0.242, -0.97, 0.97, 0.242, 6.768, 100.29)" fill="#ffb76f" stroke="#263238" stroke-linecap="round" stroke-linejoin="round" stroke-miterlimit="10" stroke-width="1"/>
      <path id="Path-26" data-name="Path" d="M4.35,3.824C4.5,6.014,3.655,7.86,2.478,7.909S.213,6.275.025,4.086.72.042,1.905,0,4.2,1.627,4.35,3.824Z" transform="translate(22.773 81.796)" fill="none" stroke="#263238" stroke-linecap="round" stroke-linejoin="round" stroke-miterlimit="10" stroke-width="1"/>
      <path id="Path-27" data-name="Path" d="M4.35,3.833c.147,2.2-.695,4.036-1.872,4.085S.213,6.284.025,4.086.72.05,1.905,0,4.178,1.635,4.35,3.833Z" transform="translate(38.975 85.848)" fill="none" stroke="#263238" stroke-linecap="round" stroke-linejoin="round" stroke-miterlimit="10" stroke-width="1"/>
      <path id="Path-28" data-name="Path" d="M39.556,0a19.035,19.035,0,0,1-1.1,4.6C33.768,17.271,16.782,22.753,0,17.3" transform="translate(30.507 95.359)" fill="none" stroke="#263238" stroke-linecap="round" stroke-linejoin="round" stroke-miterlimit="10" stroke-width="3"/>
      <path id="Path-29" data-name="Path" d="M0,.408H5.207" transform="translate(67.324 93.75)" fill="none" stroke="#263238" stroke-linecap="round" stroke-linejoin="round" stroke-miterlimit="10" stroke-width="3"/>
      <path id="Path-30" data-name="Path" d="M4.7,4.9c-.572,2.377-2.035,4.085-3.27,3.774S-.347,6.22.234,3.818,2.269-.267,3.5.035,5.277,2.511,4.7,4.9Z" transform="translate(29.456 55.341)" fill="#263238" stroke="#263238" stroke-linecap="round" stroke-linejoin="round" stroke-miterlimit="10" stroke-width="1"/>
      <ellipse id="Oval-6" data-name="Oval" cx="4.445" cy="2.297" rx="4.445" ry="2.297" transform="translate(43.721 66.766) rotate(-76.45)" fill="#263238" stroke="#263238" stroke-linecap="round" stroke-linejoin="round" stroke-miterlimit="10" stroke-width="1"/>
      <path id="Path-31" data-name="Path" d="M0,1.291,8.992,22.614a4.218,4.218,0,0,0,3.883,2.574H29.223a4.226,4.226,0,0,0,3.866-2.533L42.9,0h-.425" transform="translate(71.738 149.035)" fill="#fb7d00"/>
      <path id="Path-32" data-name="Path" d="M16.1.9C10.913.9,4.88,1.577,0,.449L8.4,24.9a3.539,3.539,0,0,0,3.213,2.574H25.087a3.523,3.523,0,0,0,3.188-2.533L36.409,0l-3.27.449C22.766,1.577,23.035.9,16.1.9Z" transform="translate(74.64 146.707)" opacity="0.3"/>
      <path id="Path-33" data-name="Path" d="M0,1.291,8.992,22.614a4.218,4.218,0,0,0,3.883,2.574H29.223a4.226,4.226,0,0,0,3.866-2.533L42.9,0h-.425" transform="translate(71.738 149.035)" fill="none" stroke="#263238" stroke-linecap="round" stroke-linejoin="round" stroke-miterlimit="10" stroke-width="1"/>
    </g>
    <g id="freepik--Hand--inject-2" transform="translate(123.433)">
      <path id="Path-34" data-name="Path" d="M147.809.294,102.6,65.4a102.7,102.7,0,0,1-8.624,16.054c-4.757,6.838-18.1,13.676-18.1,13.676s-1.185,12.778-5.052,17.239-12.2,1.789-12.2,1.789a28.329,28.329,0,0,1-7.439,5.645c-3.866,1.781-15.76-4.755-15.76-4.755s10.7,11.593,12.188,15.457,4.169,7.132-.589,10.7-10.12-1.487-10.12-1.487,2.387,7.729-4.455,9.216-14.3-13.382-17.272-18.431S3.58,106.421,2.1,105.531s-3.564-5.645-.589-10.106,24.082-33,26.46-35.033,47.9-12.827,47.9-12.827L93.13,0" transform="translate(18.131 0.065)" fill="#fff"/>
      <path id="Path-35" data-name="Path" d="M92.371,27.533S87.466,42.238,82.153,45.1,46.594,55.719,34.741,54.085s-18.392-6.127-18.392-6.127-6.54,8.578-9.4,11.438A18.746,18.746,0,0,1,0,63.48s14.223,35.711,24.45,46.765a4.907,4.907,0,0,0,2.452.114c6.842-1.487,4.455-9.216,4.455-9.216s5.354,5.049,10.12,1.487,2.076-6.838.589-10.7S29.836,76.47,29.836,76.47,41.73,83.006,45.6,81.225a28.276,28.276,0,0,0,7.439-5.654s8.33,2.68,12.2-1.781,5.052-17.238,5.052-17.238S83.665,49.714,88.43,42.876a101.919,101.919,0,0,0,8.624-16.054L115.684,0Z" transform="translate(23.706 38.644)" opacity="0.2"/>
      <path id="Path-36" data-name="Path" d="M147.809.294,102.6,65.4a102.7,102.7,0,0,1-8.624,16.054c-4.757,6.838-18.1,13.676-18.1,13.676s-1.185,12.778-5.052,17.239-12.2,1.789-12.2,1.789a28.329,28.329,0,0,1-7.439,5.645c-3.866,1.781-15.76-4.755-15.76-4.755s10.7,11.593,12.188,15.457,4.169,7.132-.589,10.7-10.12-1.487-10.12-1.487,2.387,7.729-4.455,9.216-14.3-13.382-17.272-18.431S3.58,106.421,2.1,105.531s-3.564-5.645-.589-10.106,24.082-33,26.46-35.033,47.9-12.827,47.9-12.827L93.13,0" transform="translate(18.131 0.065)" fill="none" stroke="#263238" stroke-linecap="round" stroke-linejoin="round" stroke-miterlimit="10" stroke-width="1"/>
      <path id="Path-37" data-name="Path" d="M0,49.052l1.185,4.461,18.441-4.461L36.883,3.864,25.578,0,0,49.052Z" transform="translate(11.305 124.918)" fill="#fff" stroke="#263238" stroke-linecap="round" stroke-linejoin="round" stroke-miterlimit="10" stroke-width="1"/>
      <path id="Path-38" data-name="Path" d="M16.954,0,42.531,9.518,30.041,66,0,56.781,16.954,0Z" transform="translate(0 113.921)" fill="#fff" stroke="#263238" stroke-linecap="round" stroke-linejoin="round" stroke-miterlimit="10" stroke-width="1"/>
      <path id="Path-39" data-name="Path" d="M0,49.91l26.657,7.835L38.256,7.5,14.9,0,0,49.91Z" transform="translate(1.005 117.418)" fill="#adc7f7" stroke="#263238" stroke-linecap="round" stroke-linejoin="round" stroke-miterlimit="10" stroke-width="1"/>
      <path id="Path-40" data-name="Path" d="M10.52.28A8.432,8.432,0,0,0,6.965.117L0,23.442a8.347,8.347,0,0,0,3.6,2.067c5.46,1.5,11.444-2.933,13.357-9.9S15.973,1.775,10.52.28Z" transform="translate(5.281 129.564)" fill="#fff" stroke="#263238" stroke-linecap="round" stroke-linejoin="round" stroke-miterlimit="10" stroke-width="1"/>
      <path id="Path-41" data-name="Path" d="M8.093,2.215a.172.172,0,0,1-.1-.188L8.305.818A.359.359,0,0,0,8.011.336l-1.3-.31A.351.351,0,0,0,6.229.32L5.975,1.57a.163.163,0,0,1-.172.123,6.543,6.543,0,0,0-1.332,0L2.093,9.674c1.856,1.928,4.749,2.892,4.365,4.51A1.9,1.9,0,0,1,3.94,15.491a2.149,2.149,0,0,1-1.782-2.721l.074-.327c.041-.18-.065-.327-.319-.384l-.5-.123L0,16.66a5.87,5.87,0,0,0,1.954,1.176.172.172,0,0,1,.1.2L1.757,19.07a.343.343,0,0,0,.294.482l1.349.327a.352.352,0,0,0,.507-.229l.221-1.029a.188.188,0,0,1,.18-.131c2.877.3,4.831-1.111,5.436-3.627.474-2.01-.2-3.717-2.305-5.327-1.921-1.454-3.948-2.173-3.6-3.66.245-1.029,1.185-1.5,2.452-1.2A2.2,2.2,0,0,1,8.035,7.526l-.057.229c0,.139.082.261.335.327l2.4.572a.36.36,0,0,0,.482-.294l.18-.76C11.918,5.206,10.766,3.171,8.093,2.215Z" transform="translate(6.719 131.493)" fill="#263238"/>
      <path id="Path-42" data-name="Path" d="M9.516,4.453S13.088,9.8,13.685,14.567A17.28,17.28,0,0,1,11,26.16a37.617,37.617,0,0,0-5.052,9.216C4.464,39.542,4.17,45.482,2.086,48.448s-3.27,5.94-.3,8.619,10.708,2.377,14.877-5.351S23.5,35.662,26.175,32.688s11.305-9.8,11.305-9.8,23.493-3.268,27.956-7.426S73.767,0,73.767,0" transform="translate(28.552 79.738)" fill="#fff"/>
      <path id="Path-43" data-name="Path" d="M71.993,0s-12.67,8.17-22.48,10.621-15.94,2.451-19.619,7.353S22.538,38.4,17.633,41.258s-5.722-7.353-12.67-5.31l-.229.082c-.678,3.186-1.275,6.454-2.648,8.423-2.084,2.974-3.27,5.94-.3,8.619S12.491,55.449,16.66,47.72,23.5,31.667,26.175,28.693s11.305-9.8,11.305-9.8,23.493-3.268,27.956-7.426c2.7-2.516,5.174-7.631,6.711-11.291Z" transform="translate(28.552 83.742)" opacity="0.2"/>
      <path id="Path-44" data-name="Path" d="M9.516,4.453S13.088,9.8,13.685,14.567A17.28,17.28,0,0,1,11,26.16a37.617,37.617,0,0,0-5.052,9.216C4.464,39.542,4.17,45.482,2.086,48.448s-3.27,5.94-.3,8.619,10.708,2.377,14.877-5.351S23.5,35.662,26.175,32.688s11.305-9.8,11.305-9.8,23.493-3.268,27.956-7.426S73.767,0,73.767,0" transform="translate(28.552 79.738)" fill="none" stroke="#263238" stroke-linecap="round" stroke-linejoin="round" stroke-miterlimit="10" stroke-width="1"/>
      <path id="Path-45" data-name="Path" d="M0,.6S7.741,4.755,13.39,0" transform="translate(28.847 98.464)" fill="none" stroke="#263238" stroke-linecap="round" stroke-linejoin="round" stroke-miterlimit="10" stroke-width="1"/>
      <path id="Path-46" data-name="Path" d="M6.834,13.08,0,0" transform="translate(48.188 126.707)" fill="none" stroke="#263238" stroke-linecap="round" stroke-linejoin="round" stroke-miterlimit="10" stroke-width="1"/>
      <path id="Path-47" data-name="Path" d="M0,14.273S5.354,9.812,5.052,0" transform="translate(76.741 99.951)" fill="none" stroke="#263238" stroke-linecap="round" stroke-linejoin="round" stroke-miterlimit="10" stroke-width="1"/>
    </g>
    <g id="freepik--Floor--inject-2" transform="translate(8.992 355.391)">
      <path id="Path-48" data-name="Path" d="M0,.9H323.706" transform="translate(28.61 1.26)" fill="none" stroke="#263238" stroke-linecap="round" stroke-linejoin="round" stroke-miterlimit="10" stroke-width="1"/>
      <path id="Path-49" data-name="Path" d="M0,.9H14.714" transform="translate(0 1.26)" fill="none" stroke="#263238" stroke-linecap="round" stroke-linejoin="round" stroke-miterlimit="10" stroke-width="1"/>
    </g>
  </g>
</svg>
