<svg xmlns="http://www.w3.org/2000/svg" width="186.344" height="158.899" viewBox="0 0 186.344 158.899">
  <g id="Confirmed-bro" transform="translate(0.419 -0.086)">
    <g id="freepik--background-simple--inject-94">
      <path id="Path" d="M137.126,151.027s22.81-1.426,38.491-29.462,12.83-70.8-6.653-94.565S119.068-4.838,90.081,2.765C75.958,6.467,66.54,16.07,58.4,27.656c-7.09,10.093-15.064,19.816-25.794,26.2C21.98,60.178,11.055,65.225,5.69,77.238c-13.058,29.253-3.521,63.278,27.367,74.739C66.321,164.333,121.92,157.68,137.126,151.027Z" transform="translate(0.207 0.086)" fill="#f9fbff"/>
    </g>
    <g id="freepik--Graphics--inject-94" transform="translate(0 11.405)">
      <path id="Path-2" data-name="Path" d="M.238,0V4.215" transform="translate(13.054 69.047)" fill="none" stroke="#263238" stroke-linecap="round" stroke-linejoin="round" stroke-miterlimit="10" stroke-width="0.95"/>
      <path id="Path-3" data-name="Path" d="M4.215.238H0" transform="translate(11.186 70.919)" fill="none" stroke="#263238" stroke-linecap="round" stroke-linejoin="round" stroke-miterlimit="10" stroke-width="0.95"/>
      <path id="Path-4" data-name="Path" d="M.238,0V4.215" transform="translate(156.883 32.931)" fill="none" stroke="#263238" stroke-linecap="round" stroke-linejoin="round" stroke-miterlimit="10" stroke-width="0.95"/>
      <path id="Path-5" data-name="Path" d="M4.215.238H0" transform="translate(155.01 34.804)" fill="none" stroke="#263238" stroke-linecap="round" stroke-linejoin="round" stroke-miterlimit="10" stroke-width="0.95"/>
      <path id="Path-6" data-name="Path" d="M.238,0V4.215" transform="translate(97.007 0.304)" fill="none" stroke="#263238" stroke-linecap="round" stroke-linejoin="round" stroke-miterlimit="10" stroke-width="0.95"/>
      <path id="Path-7" data-name="Path" d="M4.215.238H0" transform="translate(95.135 2.172)" fill="none" stroke="#263238" stroke-linecap="round" stroke-linejoin="round" stroke-miterlimit="10" stroke-width="0.95"/>
      <path id="Path-8" data-name="Path" d="M.238,0V4.215" transform="translate(27.628 116.253)" fill="none" stroke="#263238" stroke-linecap="round" stroke-linejoin="round" stroke-miterlimit="10" stroke-width="0.95"/>
      <path id="Path-9" data-name="Path" d="M4.215.238H0" transform="translate(25.756 118.12)" fill="none" stroke="#263238" stroke-linecap="round" stroke-linejoin="round" stroke-miterlimit="10" stroke-width="0.95"/>
      <path id="Path-10" data-name="Path" d="M6.976,3.483A3.488,3.488,0,1,1,3.488,0,3.488,3.488,0,0,1,6.976,3.483Z" transform="translate(148.258 14.256)" fill="none" stroke="#263238" stroke-linecap="round" stroke-linejoin="round" stroke-miterlimit="10" stroke-width="0.95"/>
      <circle id="Oval" cx="3.483" cy="3.483" r="3.483" transform="translate(0.201 96.326) rotate(-22.5)" fill="none" stroke="#263238" stroke-linecap="round" stroke-linejoin="round" stroke-miterlimit="10" stroke-width="0.95"/>
      <path id="Path-11" data-name="Path" d="M1.585.732A.794.794,0,1,1,.794,0a.794.794,0,0,1,.791.732Z" transform="translate(169.487 52.647)" fill="none" stroke="#263238" stroke-linecap="round" stroke-linejoin="round" stroke-miterlimit="10" stroke-width="0.95"/>
      <path id="Path-12" data-name="Path" d="M1.587.789A.794.794,0,1,1,.794,0a.794.794,0,0,1,.794.789Z" transform="translate(48.627 41.186)" fill="none" stroke="#263238" stroke-linecap="round" stroke-linejoin="round" stroke-miterlimit="10" stroke-width="0.95"/>
    </g>
    <g id="Group_15" data-name="Group 15" transform="translate(6.336 6.336)">
      <path id="Path-13" data-name="Path" d="M5.8,9.759A1.148,1.148,0,0,0,6.16,8.737L5.083,1.324a1.156,1.156,0,0,1,1.7-1.18l6.566,3.619a1.148,1.148,0,0,0,1.077,0L21.137.413a1.156,1.156,0,0,1,1.655,1.251L21.375,9.03a1.125,1.125,0,0,0,.309,1.03L26.942,15.4a1.156,1.156,0,0,1-.681,1.964l-7.437.927a1.164,1.164,0,0,0-.887.61l-3.453,6.661a1.156,1.156,0,0,1-2.075-.048L9.241,18.724a1.148,1.148,0,0,0-.855-.649l-7.4-1.228a1.164,1.164,0,0,1-.657-1.964Z" fill="none" stroke="#0b0212" stroke-miterlimit="10" stroke-width="0.792"/>
      <path id="Path-14" data-name="Path" d="M17.221,16.2l-5.18-1.045a.792.792,0,0,0-.729.214L7.519,19.048a.792.792,0,0,1-1.378-.5L5.531,13.3a.792.792,0,0,0-.428-.626L.463,10.217A.792.792,0,0,1,.5,8.76l4.807-2.2a.792.792,0,0,0,.467-.6L6.664.713A.792.792,0,0,1,8.074.3l3.572,3.9a.792.792,0,0,0,.713.253l5.235-.737a.792.792,0,0,1,.792,1.2l-2.6,4.609a.84.84,0,0,0,0,.752l2.321,4.752a.792.792,0,0,1-.887,1.172Z" transform="translate(140.976 131.212)" fill="none" stroke="#0b0212" stroke-miterlimit="10" stroke-width="0.792"/>
      <path id="Path-15" data-name="Path" d="M8.28,7.756,5.793,7.249a.4.4,0,0,0-.348.1L3.623,9.118a.4.4,0,0,1-.665-.238L2.665,6.362a.356.356,0,0,0-.2-.3L.217,4.865a.388.388,0,0,1,0-.7L2.53,3.107a.4.4,0,0,0,.222-.285l.436-2.5a.4.4,0,0,1,.673-.2L5.635,1.99a.4.4,0,0,0,.341.127L8.494,1.76a.4.4,0,0,1,.4.578L7.638,4.556a.4.4,0,0,0,0,.364L8.755,7.193a.4.4,0,0,1-.475.562Z" transform="translate(154.812 117.216)" fill="none" stroke="#0b0212" stroke-miterlimit="10" stroke-width="0.792"/>
    </g>
    <g id="freepik--Device--inject-94" transform="translate(51.005 43.138)">
      <path id="Path-16" data-name="Path" d="M7.629,18.618A43.1,43.1,0,1,0,43.107,0a43.927,43.927,0,0,0-7.879.713" transform="translate(5.043 4.962)" fill="none" stroke="#263238" stroke-linecap="round" stroke-linejoin="round" stroke-miterlimit="10" stroke-width="0.95"/>
      <path id="Path-17" data-name="Path" d="M4.087,0A44.194,44.194,0,0,0,0,4.03" transform="translate(15.932 15.436)" fill="none" stroke="#263238" stroke-linecap="round" stroke-linejoin="round" stroke-miterlimit="10" stroke-width="0.95"/>
      <circle id="Oval-2" data-name="Oval" cx="36.571" cy="36.571" r="36.571" transform="translate(0.202 67.387) rotate(-66.93)" fill="#adc7f7"/>
      <path id="Path-18" data-name="Path" d="M0,16.385,13.876,32.152,36.571,0" transform="translate(31.29 27.886)" fill="none" stroke="#263238" stroke-linecap="round" stroke-linejoin="round" stroke-miterlimit="10" stroke-width="5.702"/>
    </g>
  </g>
</svg>
