<svg xmlns="http://www.w3.org/2000/svg" width="145.45" height="135.905" viewBox="0 0 145.45 135.905">
  <g id="Add_to_Cart-bro" data-name="Add to Cart-bro" transform="translate(-0.047 -0.248)">
    <g id="freepik--background-simple--inject-116" transform="translate(3.998)">
      <path id="Path" d="M.984,73.279s4.623,22.252,25.9,33.912,47.367,8.218,68.572,5.965S130.7,96.25,129.991,77.9s-17.632-20.827-29.877-39.727S87.49,12.434,66.9,3.082,18.921,6.451,7.581,30.593.984,73.279.984,73.279Z" transform="translate(0.106 0.248)" fill="#f9fbff"/>
    </g>
    <g id="freepik--Plants--inject-116" transform="translate(0 37.074)">
      <path id="Path-2" data-name="Path" d="M4.473,7.106S4.735,5.772,3.23,3.537.733,0,.733,0-.8,2.908.569,5.089A33.272,33.272,0,0,0,4,9.5Z" transform="translate(134.922 0.331)" fill="#adc7f7"/>
      <path id="Path-3" data-name="Path" d="M4.473,7.106S4.731,5.772,3.23,3.537.733,0,.733,0-.8,2.886.569,5.089A33.683,33.683,0,0,0,4,9.5Z" transform="translate(130.582 8.138)" fill="#adc7f7"/>
      <path id="Path-4" data-name="Path" d="M.727,4.482s.4-1.3,2.781-2.544S7.378,0,7.378,0s0,3.271-2.261,4.569A33.61,33.61,0,0,1,0,6.822Z" transform="translate(138.119 5.205)" fill="#adc7f7"/>
      <path id="Path-5" data-name="Path" d="M.967,3.776S1.5,2.526,4,1.523,8.051,0,8.051,0,7.687,3.253,5.325,4.307A33.752,33.752,0,0,1,0,6.019Z" transform="translate(132.667 15.124)" fill="#adc7f7"/>
      <path id="Path-6" data-name="Path" d="M.48,5.176S.741,3.842,2.973,2.337,6.608,0,6.608,0s.334,3.271-1.766,4.783A33.414,33.414,0,0,1,0,7.578Z" transform="translate(131.671 24.571)" fill="#adc7f7"/>
      <path id="Path-7" data-name="Path" d="M3.892,7.564s.447-1.283-.727-3.711S1.195,0,1.195,0-.732,2.639.308,5.02A33.439,33.439,0,0,0,3.081,9.875Z" transform="translate(127.717 24.785)" fill="#adc7f7"/>
      <path id="Path-8" data-name="Path" d="M.469,5.176s.262-1.334,2.5-2.839S6.6,0,6.6,0s.334,3.253-1.766,4.783A33.414,33.414,0,0,1,0,7.575Z" transform="translate(127.778 34.588)" fill="#adc7f7"/>
      <path id="Path-9" data-name="Path" d="M0,6.561S-.083,5.2,1.694,3.184,4.628,0,4.628,0s1.149,3.06-.494,5.089A33.7,33.7,0,0,1,.157,9.018Z" transform="translate(128.119 40.487)" fill="#adc7f7"/>
      <path id="Path-10" data-name="Path" d="M11.869,0a38.866,38.866,0,0,1-1.323,4.045C9.063,7.716,6.734,9.817,5.323,13.132s-.16,8.16-1.592,12.474S.1,32.051.006,35.1.943,46.666.943,46.666" transform="translate(127.761 7.128)" fill="none" stroke="#263238" stroke-linecap="round" stroke-linejoin="round" stroke-miterlimit="10" stroke-width="0.5"/>
      <path id="Path-11" data-name="Path" d="M0,1.152,2.319,0" transform="translate(138.639 9.418)" fill="none" stroke="#263238" stroke-linecap="round" stroke-linejoin="round" stroke-miterlimit="10" stroke-width="0.5"/>
      <path id="Path-12" data-name="Path" d="M.549,1.665,0,0" transform="translate(138.533 7.146)" fill="none" stroke="#263238" stroke-linecap="round" stroke-linejoin="round" stroke-miterlimit="10" stroke-width="0.5"/>
      <path id="Path-13" data-name="Path" d="M0,1.861S1.934.927,3.915,0" transform="translate(133.227 18.25)" fill="none" stroke="#263238" stroke-linecap="round" stroke-linejoin="round" stroke-miterlimit="10" stroke-width="0.5"/>
      <path id="Path-14" data-name="Path" d="M2.1,5.169A27.4,27.4,0,0,0,0,0" transform="translate(132.481 12.478)" fill="none" stroke="#263238" stroke-linecap="round" stroke-linejoin="round" stroke-miterlimit="10" stroke-width="0.5"/>
      <path id="Path-15" data-name="Path" d="M0,4.118A21.209,21.209,0,0,1,4.551,0" transform="translate(131.845 27.54)" fill="none" stroke="#263238" stroke-linecap="round" stroke-linejoin="round" stroke-miterlimit="10" stroke-width="0.5"/>
      <path id="Path-16" data-name="Path" d="M1.952,5.685A23.753,23.753,0,0,0,.8,1.861C.105.218,0,0,0,0" transform="translate(129.199 27.784)" fill="none" stroke="#263238" stroke-linecap="round" stroke-linejoin="round" stroke-miterlimit="10" stroke-width="0.5"/>
      <path id="Path-17" data-name="Path" d="M0,4.954A22.757,22.757,0,0,1,2.119,2.181,19.787,19.787,0,0,1,4.591,0" transform="translate(127.767 37.263)" fill="none" stroke="#263238" stroke-linecap="round" stroke-linejoin="round" stroke-miterlimit="10" stroke-width="0.5"/>
      <path id="Path-18" data-name="Path" d="M0,6.343A5.816,5.816,0,0,1,1.09,3.486C2.061,2.264,3.2.64,3.667,0" transform="translate(128.276 43.148)" fill="none" stroke="#263238" stroke-linecap="round" stroke-linejoin="round" stroke-miterlimit="10" stroke-width="0.5"/>
      <path id="Path-19" data-name="Path" d="M.036,3.911A3.376,3.376,0,0,1,1.29,1.861C2.526.676,3.322,0,3.322,0a3.647,3.647,0,0,1-.589,3.191A20.99,20.99,0,0,1,0,5.47Z" transform="translate(123.638 18.966)" fill="#adc7f7"/>
      <path id="Path-20" data-name="Path" d="M.033,3.911A3.373,3.373,0,0,1,1.29,1.861C2.53.676,3.322,0,3.322,0a3.647,3.647,0,0,1-.589,3.191A21.259,21.259,0,0,1,0,5.47Z" transform="translate(125.281 24.407)" fill="#adc7f7"/>
      <path id="Path-21" data-name="Path" d="M3.6,3.7A3.374,3.374,0,0,0,2.217,1.73C.9.625.076,0,.076,0A3.652,3.652,0,0,0,.861,3.148a21.332,21.332,0,0,0,2.871,2.1Z" transform="translate(120.117 20.656)" fill="#adc7f7"/>
      <path id="Path-22" data-name="Path" d="M3.907,3.311s-.164-.851-1.581-1.817S.014,0,.014,0A3.641,3.641,0,0,0,1.126,3.046,21.5,21.5,0,0,0,4.2,4.838Z" transform="translate(121.796 27.471)" fill="#adc7f7"/>
      <path id="Path-23" data-name="Path" d="M3.306,4.049a3.388,3.388,0,0,0-1.167-2.1C.954.705.191,0,.191,0A3.641,3.641,0,0,0,.642,3.213,21.081,21.081,0,0,0,3.273,5.6Z" transform="translate(121.848 33.683)" fill="#adc7f7"/>
      <path id="Path-24" data-name="Path" d="M0,4.34A3.368,3.368,0,0,1,.955,2.134C2.013.785,2.7,0,2.7,0a3.648,3.648,0,0,1-.127,3.242A21.4,21.4,0,0,1,.188,5.888Z" transform="translate(125.136 35.089)" fill="#adc7f7"/>
      <path id="Path-25" data-name="Path" d="M.469,2.828S.731,2,2.254,1.214,4.725,0,4.725,0A3.693,3.693,0,0,1,3.271,2.908,21.248,21.248,0,0,1,0,4.322Z" transform="translate(125.695 43.813)" fill="#adc7f7"/>
      <path id="Path-26" data-name="Path" d="M3.3,4.049a3.352,3.352,0,0,0-1.167-2.1C.949.712.189,0,.189,0A3.654,3.654,0,0,0,.64,3.213a21.263,21.263,0,0,0,2.632,2.4Z" transform="translate(122.918 40.44)" fill="#adc7f7"/>
      <path id="Path-27" data-name="Path" d="M2.618,4.707a3.386,3.386,0,0,0-.6-2.33C1.19.88.63,0,.63,0A3.6,3.6,0,0,0,.267,3.22,21.187,21.187,0,0,0,2.19,6.194Z" transform="translate(122.699 44.329)" fill="#adc7f7"/>
      <path id="Path-28" data-name="Path" d="M0,0A24.89,24.89,0,0,0,.273,2.693C.7,5.176,1.861,6.8,2.293,9.043s-1.007,5.089-.7,7.975,1.388,4.5,1.029,6.408S.473,30.484.473,30.484" transform="translate(123.58 22.655)" fill="none" stroke="#263238" stroke-linecap="round" stroke-linejoin="round" stroke-miterlimit="10" stroke-width="0.5"/>
      <path id="Path-29" data-name="Path" d="M1.287,1.029,0,0" transform="translate(122.431 23.898)" fill="none" stroke="#263238" stroke-linecap="round" stroke-linejoin="round" stroke-miterlimit="10" stroke-width="0.5"/>
      <path id="Path-30" data-name="Path" d="M0,.96.567,0" transform="translate(123.682 22.815)" fill="none" stroke="#263238" stroke-linecap="round" stroke-linejoin="round" stroke-miterlimit="10" stroke-width="0.5"/>
      <path id="Path-31" data-name="Path" d="M2.181,1.69S1.09.847,0,0" transform="translate(123.609 29.906)" fill="none" stroke="#263238" stroke-linecap="round" stroke-linejoin="round" stroke-miterlimit="10" stroke-width="0.5"/>
      <path id="Path-32" data-name="Path" d="M0,2.93A17.447,17.447,0,0,1,2.006,0" transform="translate(125.281 26.948)" fill="none" stroke="#263238" stroke-linecap="round" stroke-linejoin="round" stroke-miterlimit="10" stroke-width="0.5"/>
      <path id="Path-33" data-name="Path" d="M2.272,3.177A13.536,13.536,0,0,0,0,0" transform="translate(122.813 35.784)" fill="none" stroke="#263238" stroke-linecap="round" stroke-linejoin="round" stroke-miterlimit="10" stroke-width="0.5"/>
      <path id="Path-34" data-name="Path" d="M0,3.271A15.393,15.393,0,0,1,1.232,1.047C1.89.12,1.985,0,1.985,0" transform="translate(125.27 36.91)" fill="none" stroke="#263238" stroke-linecap="round" stroke-linejoin="round" stroke-miterlimit="10" stroke-width="0.5"/>
      <path id="Path-35" data-name="Path" d="M0,1.97A12.8,12.8,0,0,1,1.854.672,8.563,8.563,0,0,0,3.02,0" transform="translate(125.841 45.543)" fill="none" stroke="#263238" stroke-linecap="round" stroke-linejoin="round" stroke-miterlimit="10" stroke-width="0.5"/>
      <path id="Path-36" data-name="Path" d="M2.181,3.711A14.673,14.673,0,0,0,1.239,1.7,12.823,12.823,0,0,0,0,0" transform="translate(124.009 42.37)" fill="none" stroke="#263238" stroke-linecap="round" stroke-linejoin="round" stroke-miterlimit="10" stroke-width="0.5"/>
      <path id="Path-37" data-name="Path" d="M1.414,4.438A3.693,3.693,0,0,0,1.13,2.515C.694,1.625.2.458,0,0" transform="translate(123.475 46.084)" fill="none" stroke="#263238" stroke-linecap="round" stroke-linejoin="round" stroke-miterlimit="10" stroke-width="0.5"/>
      <path id="Path-38" data-name="Path" d="M6.862,4.191S6.4,2.911,3.955,1.763,0,0,0,0,.16,3.271,2.464,4.46A33.363,33.363,0,0,0,7.673,6.5Z" transform="translate(2.919 38.848)" fill="#adc7f7"/>
      <path id="Path-39" data-name="Path" d="M6.862,4.194S6.4,2.911,3.955,1.763,0,0,0,0,.16,3.271,2.464,4.463A33.574,33.574,0,0,0,7.673,6.5Z" transform="translate(3.18 47.782)" fill="#adc7f7"/>
      <path id="Path-40" data-name="Path" d="M.031,7.269s-.32-1.323,1.09-3.635S3.459,0,3.459,0s1.661,2.813.393,5.089A33.5,33.5,0,0,1,.616,9.65Z" transform="translate(10.419 37.994)" fill="#adc7f7"/>
      <path id="Path-41" data-name="Path" d="M.006,6.866S-.172,5.517,1.46,3.38,4.164,0,4.164,0,5.52,2.973,4.018,5.089a33.1,33.1,0,0,1-3.693,4.2Z" transform="translate(10.68 48.963)" fill="#adc7f7"/>
      <path id="Path-42" data-name="Path" d="M.09,7.586S-.368,6.306.781,3.871,2.718,0,2.718,0s1.952,2.624.927,5.012A33.4,33.4,0,0,1,.915,9.89Z" transform="translate(14.874 58.33)" fill="#adc7f7"/>
      <path id="Path-43" data-name="Path" d="M6.195,5.121S5.922,3.791,3.679,2.3.016,0,.016,0-.293,3.253,1.833,4.765A33.574,33.574,0,0,0,6.7,7.52Z" transform="translate(9.638 63.317)" fill="#adc7f7"/>
      <path id="Path-44" data-name="Path" d="M.091,7.586S-.37,6.3.782,3.871,2.719,0,2.719,0s1.952,2.624.927,5.012A33.4,33.4,0,0,1,.916,9.89Z" transform="translate(16.628 68.936)" fill="#adc7f7"/>
      <path id="Path-45" data-name="Path" d="M.439,8.007S-.328,6.884.166,4.238,1.06,0,1.06,0,3.6,2.046,3.241,4.616a33.174,33.174,0,0,1-1.407,5.412Z" transform="translate(19.916 74.839)" fill="#adc7f7"/>
      <path id="Path-46" data-name="Path" d="M0,0A38.957,38.957,0,0,1,.934,4.151c.6,3.915-.323,6.906.149,10.472s4.049,7.095,5.023,11.537.167,7.4,1.654,10.061,6.717,9.45,6.717,9.45" transform="translate(9.814 42.653)" fill="none" stroke="#263238" stroke-linecap="round" stroke-linejoin="round" stroke-miterlimit="10" stroke-width="0.5"/>
      <path id="Path-47" data-name="Path" d="M0,2.174,1.4,0" transform="translate(10.737 43.944)" fill="none" stroke="#263238" stroke-linecap="round" stroke-linejoin="round" stroke-miterlimit="10" stroke-width="0.5"/>
      <path id="Path-48" data-name="Path" d="M1.323,1.149,0,0" transform="translate(8.89 43.231)" fill="none" stroke="#263238" stroke-linecap="round" stroke-linejoin="round" stroke-miterlimit="10" stroke-width="0.5"/>
      <path id="Path-49" data-name="Path" d="M0,3.6S1.185,1.806,2.41,0" transform="translate(10.962 53.488)" fill="none" stroke="#263238" stroke-linecap="round" stroke-linejoin="round" stroke-miterlimit="10" stroke-width="0.5"/>
      <path id="Path-50" data-name="Path" d="M4.449,3.366A27.442,27.442,0,0,0,0,0" transform="translate(6.419 50.908)" fill="none" stroke="#263238" stroke-linecap="round" stroke-linejoin="round" stroke-miterlimit="10" stroke-width="0.5"/>
      <path id="Path-51" data-name="Path" d="M0,5.866A21.292,21.292,0,0,1,1.817,0" transform="translate(15.68 61.848)" fill="none" stroke="#263238" stroke-linecap="round" stroke-linejoin="round" stroke-miterlimit="10" stroke-width="0.5"/>
      <path id="Path-52" data-name="Path" d="M4.551,3.882a23.8,23.8,0,0,0-2.908-2.7C.189.131,0,0,0,0" transform="translate(11.442 65.741)" fill="none" stroke="#263238" stroke-linecap="round" stroke-linejoin="round" stroke-miterlimit="10" stroke-width="0.5"/>
      <path id="Path-53" data-name="Path" d="M0,6.612A23.011,23.011,0,0,1,.4,3.144,19.845,19.845,0,0,1,1.407,0" transform="translate(17.574 72.262)" fill="none" stroke="#263238" stroke-linecap="round" stroke-linejoin="round" stroke-miterlimit="10" stroke-width="0.5"/>
      <path id="Path-54" data-name="Path" d="M.554,7.324a5.841,5.841,0,0,1-.531-3.01C.231,2.77.387.789.456,0" transform="translate(21.174 77.543)" fill="none" stroke="#263238" stroke-linecap="round" stroke-linejoin="round" stroke-miterlimit="10" stroke-width="0.5"/>
      <path id="Path-55" data-name="Path" d="M.18,5.041A3.386,3.386,0,0,1,.212,2.635C.67.981,1,0,1,0A3.646,3.646,0,0,1,2.132,3.042,21.245,21.245,0,0,1,.947,6.4Z" transform="translate(3.986 59.293)" fill="#adc7f7"/>
      <path id="Path-56" data-name="Path" d="M.18,5.045A3.39,3.39,0,0,1,.212,2.639C.67.989,1,0,1,0A3.652,3.652,0,0,1,2.132,3.042,21.2,21.2,0,0,1,.947,6.4Z" transform="translate(8.18 63.142)" fill="#adc7f7"/>
      <path id="Path-57" data-name="Path" d="M4.91,1.374A3.361,3.361,0,0,0,2.73.393C1.05.113,0,0,0,0S.669,1.974,2.286,2.3a21.241,21.241,0,0,0,3.544.338Z" transform="translate(0.047 64.218)" fill="#adc7f7"/>
      <path id="Path-58" data-name="Path" d="M5.038.851A3.38,3.38,0,0,0,2.751.1C1.04,0,0,0,0,0A3.651,3.651,0,0,0,2.515,2.05a21.5,21.5,0,0,0,3.558-.036Z" transform="translate(4.914 69.252)" fill="#adc7f7"/>
      <path id="Path-59" data-name="Path" d="M4.747,1.886A3.378,3.378,0,0,0,2.668.676C1.014.218,0,0,0,0A3.687,3.687,0,0,0,2.028,2.544a21.179,21.179,0,0,0,3.486.727Z" transform="translate(8.287 74.468)" fill="#adc7f7"/>
      <path id="Path-60" data-name="Path" d="M.362,5.107A3.384,3.384,0,0,1,.053,2.722C.271,1.021.464,0,.464,0A3.635,3.635,0,0,1,2.008,2.85a21.238,21.238,0,0,1-.694,3.489Z" transform="translate(13.526 72.716)" fill="#adc7f7"/>
      <path id="Path-61" data-name="Path" d="M.017,4.605a3.35,3.35,0,0,1,.727-2.3C1.668.851,2.249,0,2.249,0s1.043,1.817.222,3.239A21.169,21.169,0,0,1,.392,6.124Z" transform="translate(18.44 78.888)" fill="#adc7f7"/>
      <path id="Path-62" data-name="Path" d="M4.751,1.886A3.358,3.358,0,0,0,2.672.676C1.018.222,0,0,0,0A3.692,3.692,0,0,0,2.032,2.544a21.619,21.619,0,0,0,3.486.727Z" transform="translate(12.66 79.731)" fill="#adc7f7"/>
      <path id="Path-63" data-name="Path" d="M4.115,3.028s-.222-.836-1.7-1.7S0,0,0,0A3.65,3.65,0,0,0,1.32,2.962a21.227,21.227,0,0,0,3.195,1.57Z" transform="translate(14.84 82.959)" fill="#adc7f7"/>
      <path id="Path-64" data-name="Path" d="M0,0A24.124,24.124,0,0,0,1.614,2.181C3.249,4.1,5.078,4.9,6.6,6.608s1.737,4.892,3.475,7.208,3.493,3.155,4.158,4.98S16,25.963,16,25.963" transform="translate(3.962 64.211)" fill="none" stroke="#263238" stroke-linecap="round" stroke-linejoin="round" stroke-miterlimit="10" stroke-width="0.5"/>
      <path id="Path-65" data-name="Path" d="M1.628.3,0,.067" transform="translate(3.624 65.794)" fill="none" stroke="#263238" stroke-linecap="round" stroke-linejoin="round" stroke-miterlimit="10" stroke-width="0.5"/>
      <path id="Path-66" data-name="Path" d="M.184,1.116.18,0" transform="translate(4.447 64)" fill="none" stroke="#263238" stroke-linecap="round" stroke-linejoin="round" stroke-miterlimit="10" stroke-width="0.5"/>
      <path id="Path-67" data-name="Path" d="M2.737.349S1.381.174,0,.015" transform="translate(7.706 70.408)" fill="none" stroke="#263238" stroke-linecap="round" stroke-linejoin="round" stroke-miterlimit="10" stroke-width="0.5"/>
      <path id="Path-68" data-name="Path" d="M.073,3.544A17.388,17.388,0,0,1,.3,0" transform="translate(9.053 65.999)" fill="none" stroke="#263238" stroke-linecap="round" stroke-linejoin="round" stroke-miterlimit="10" stroke-width="0.5"/>
      <path id="Path-69" data-name="Path" d="M3.577,1.57A13.481,13.481,0,0,0,0,0" transform="translate(10.028 75.878)" fill="none" stroke="#263238" stroke-linecap="round" stroke-linejoin="round" stroke-miterlimit="10" stroke-width="0.5"/>
      <path id="Path-70" data-name="Path" d="M.213,3.827A15.353,15.353,0,0,1,.136,1.283C.227.149.249,0,.249,0" transform="translate(14.174 74.573)" fill="none" stroke="#263238" stroke-linecap="round" stroke-linejoin="round" stroke-miterlimit="10" stroke-width="0.5"/>
      <path id="Path-71" data-name="Path" d="M0,3.235A12.7,12.7,0,0,1,.927,1.174,8.262,8.262,0,0,0,1.588,0" transform="translate(18.628 81.174)" fill="none" stroke="#263238" stroke-linecap="round" stroke-linejoin="round" stroke-miterlimit="10" stroke-width="0.5"/>
      <path id="Path-72" data-name="Path" d="M3.751,2.072A14.641,14.641,0,0,0,1.934.825,12.591,12.591,0,0,0,0,0" transform="translate(14.441 80.927)" fill="none" stroke="#263238" stroke-linecap="round" stroke-linejoin="round" stroke-miterlimit="10" stroke-width="0.5"/>
      <path id="Path-73" data-name="Path" d="M3.489,3.089a3.707,3.707,0,0,0-1.232-1.5C1.428,1.043.411.291,0,0" transform="translate(15.865 84.401)" fill="none" stroke="#263238" stroke-linecap="round" stroke-linejoin="round" stroke-miterlimit="10" stroke-width="0.5"/>
    </g>
    <g id="freepik--Floor--inject-116" transform="translate(2.181 131.213)">
      <path id="Path-74" data-name="Path" d="M0,.182H143.207" transform="translate(0 0.323)" fill="none" stroke="#263238" stroke-miterlimit="10" stroke-width="0.5"/>
    </g>
    <g id="freepik--Device--inject-116" transform="translate(18.174 16.72)">
      <rect id="Rectangle" width="58.791" height="114.733" rx="5.278" transform="translate(0.204 0.156)" fill="#263238"/>
      <g id="Group">
        <path id="Path-75" data-name="Path" d="M5.089,0A5.089,5.089,0,0,0,0,5.067v104.6a5.063,5.063,0,0,0,1.817,3.885L36.118,0Z" transform="translate(0.185 0.156)" fill="#fff" opacity="0.2"/>
        <path id="Path-76" data-name="Path" d="M4,2A2,2,0,1,0,2,4,2,2,0,0,0,4,2Z" transform="translate(27.602 109.586)" fill="none" stroke="#fff" stroke-linecap="round" stroke-linejoin="round" stroke-miterlimit="10" stroke-width="0.5"/>
      </g>
      <rect id="Rectangle-2" data-name="Rectangle" width="58.791" height="114.733" rx="5.278" transform="translate(0.204 0.156)" fill="none" stroke="#263238" stroke-linecap="round" stroke-linejoin="round" stroke-miterlimit="10" stroke-width="0.5"/>
      <rect id="Rectangle-3" data-name="Rectangle" width="53.565" height="100.132" transform="translate(2.821 7.945)" fill="#fff" stroke="#263238" stroke-linecap="round" stroke-linejoin="round" stroke-miterlimit="10" stroke-width="0.5"/>
      <rect id="Rectangle-4" data-name="Rectangle" width="4.442" height="2.435" transform="translate(50.119 8.985)" fill="none" stroke="#263238" stroke-linecap="round" stroke-linejoin="round" stroke-miterlimit="10" stroke-width="0.5"/>
      <rect id="Rectangle-5" data-name="Rectangle" width="3.464" height="2.435" transform="translate(50.119 8.985)" fill="#263238" stroke="#263238" stroke-linecap="round" stroke-linejoin="round" stroke-miterlimit="10" stroke-width="0.5"/>
      <rect id="Rectangle-6" data-name="Rectangle" width="0.625" height="1.072" transform="translate(54.55 9.668)" fill="#263238" stroke="#263238" stroke-linecap="round" stroke-linejoin="round" stroke-miterlimit="10" stroke-width="0.5"/>
      <rect id="Rectangle-7" data-name="Rectangle" width="0.814" height="1.396" transform="translate(4.024 9.741)" fill="#263238" stroke="#263238" stroke-linecap="round" stroke-linejoin="round" stroke-miterlimit="10" stroke-width="0.5"/>
      <rect id="Rectangle-8" data-name="Rectangle" width="0.814" height="1.886" transform="translate(5.303 9.25)" fill="#263238" stroke="#263238" stroke-linecap="round" stroke-linejoin="round" stroke-miterlimit="10" stroke-width="0.5"/>
      <rect id="Rectangle-9" data-name="Rectangle" width="0.814" height="2.464" transform="translate(6.586 8.672)" fill="#263238" stroke="#263238" stroke-linecap="round" stroke-linejoin="round" stroke-miterlimit="10" stroke-width="0.5"/>
      <rect id="Rectangle-10" data-name="Rectangle" width="45.07" height="60.093" transform="translate(7.418 20.518)" fill="#cfcfcf"/>
      <path id="Path-77" data-name="Path" d="M1.172,0S1.041.051.867.127C.405.338-.369.774.2,1.109.987,1.57,2.971.832,3.524.142" transform="translate(22.701 73.715)" fill="#a3a3a3" stroke="#263238" stroke-miterlimit="10" stroke-width="0.5"/>
      <path id="Path-78" data-name="Path" d="M20.638,16.86A47.168,47.168,0,0,0,19.3,10.866c-.214-.974-.585-1.854-.872-2.806a14.9,14.9,0,0,0-2.962-5.452A7.871,7.871,0,0,0,4.362,2,17.6,17.6,0,0,0,0,9.325C.654,7.464,2.621,5.9,4.66,4.963a10.312,10.312,0,0,1,6.724,3.4c3.511,3.853,3.595,13.354,3.34,15.92L20.8,26.768S21.75,23.195,20.638,16.86Z" transform="translate(23.706 26.572)" fill="#a3a3a3" stroke="#263238" stroke-miterlimit="10" stroke-width="0.5"/>
      <path id="Path-79" data-name="Path" d="M20.638,16.856a47.167,47.167,0,0,0-1.338-5.99c-.214-.974-.585-1.854-.869-2.806a14.993,14.993,0,0,0-2.962-5.452A7.879,7.879,0,0,0,4.362,2,17.666,17.666,0,0,0,0,9.322C.658,7.464,2.624,5.894,4.663,4.96a10.33,10.33,0,0,1,6.721,3.4c3.511,3.853,3.6,13.354,3.34,15.924L20.8,26.768S21.728,23.206,20.638,16.856Z" transform="translate(23.342 26.953)" fill="#a3a3a3" stroke="#263238" stroke-miterlimit="10" stroke-width="0.5"/>
      <path id="Path-80" data-name="Path" d="M2.352,0s.131.047.305.127c.462.211,1.236.643.665.978C2.537,1.567.552.829,0,.138" transform="translate(35.449 70.764)" fill="#a3a3a3" stroke="#263238" stroke-miterlimit="10" stroke-width="0.5"/>
      <ellipse id="Oval" cx="10.984" cy="9.639" rx="10.984" ry="9.639" transform="matrix(0.265, -0.964, 0.964, 0.265, 25.668, 68.321)" fill="#263238" stroke="#263238" stroke-miterlimit="10" stroke-width="0.5"/>
      <path id="Path-81" data-name="Path" d="M12.3.217C7.272-.938,2.016,2.624.446,8.341c-1.37,4.994.516,10.014,4.293,12.253,5.03,1.156,10.283-2.41,11.853-8.124C17.965,7.472,16.079,2.456,12.3.217Z" transform="translate(28.13 49.385)" fill="#a3a3a3" stroke="#263238" stroke-miterlimit="10" stroke-width="0.5"/>
      <ellipse id="Oval-2" data-name="Oval" cx="6.648" cy="4.845" rx="6.648" ry="4.845" transform="matrix(0.266, -0.964, 0.964, 0.266, 29.535, 64.203)" fill="#263238" stroke="#263238" stroke-miterlimit="10" stroke-width="0.5"/>
      <ellipse id="Oval-3" data-name="Oval" cx="10.515" cy="12.678" rx="10.515" ry="12.678" transform="translate(8.723 52.949) rotate(-19.08)" fill="#a3a3a3" stroke="#263238" stroke-miterlimit="10" stroke-width="0.5"/>
      <ellipse id="Oval-4" data-name="Oval" cx="8.276" cy="12.285" rx="8.276" ry="12.285" transform="translate(10.335 52.804) rotate(-19.08)" fill="#263238" stroke="#263238" stroke-miterlimit="10" stroke-width="0.5"/>
      <ellipse id="Oval-5" data-name="Oval" cx="7.469" cy="9.123" rx="7.469" ry="9.123" transform="translate(10.567 56.951) rotate(-19.08)" fill="#a3a3a3" stroke="#263238" stroke-miterlimit="10" stroke-width="0.5"/>
      <ellipse id="Oval-6" data-name="Oval" cx="7.469" cy="9.123" rx="7.469" ry="9.123" transform="translate(9.274 57.193) rotate(-19.08)" fill="#a3a3a3" stroke="#263238" stroke-miterlimit="10" stroke-width="0.5"/>
      <ellipse id="Oval-7" data-name="Oval" cx="6.146" cy="7.266" rx="6.146" ry="7.266" transform="translate(10.304 58.671) rotate(-15.29)" fill="#a3a3a3" stroke="#263238" stroke-miterlimit="10" stroke-width="0.5"/>
      <path id="Path-82" data-name="Path" d="M14.036,1C3.379,5.115,2.9,19.141,3.255,28.646v.033a3.024,3.024,0,0,1-.981,2.312C.14,32.989-.634,36.57.565,40.044,2.1,44.486,6.3,47.07,9.936,45.813s5.339-5.881,3.8-10.326a10.094,10.094,0,0,0-1.857-3.271,3.042,3.042,0,0,1-.672-1.269v-.025a33.163,33.163,0,0,1-.447-14.132,37.5,37.5,0,0,1,1.159-4.62c2.217-6.83,3.766-8.651,5.816-10.108A7.429,7.429,0,0,1,23.915.815a6.739,6.739,0,0,1,1.8.665A14.477,14.477,0,0,0,14.036,1Z" transform="translate(11.589 26.184)" fill="#a3a3a3" stroke="#263238" stroke-miterlimit="10" stroke-width="0.5"/>
      <ellipse id="Oval-8" data-name="Oval" cx="4.569" cy="6.001" rx="4.569" ry="6.001" transform="translate(11.533 59.589) rotate(-19.33)" fill="#a3a3a3" stroke="#263238" stroke-miterlimit="10" stroke-width="0.5"/>
      <path id="Path-83" data-name="Path" d="M0,.676S2.435-.894,6.513.752" transform="translate(15.993 41.123)" fill="#a3a3a3" stroke="#263238" stroke-miterlimit="10" stroke-width="0.5"/>
      <path id="Path-84" data-name="Path" d="M0,1.091S3.813-1.232,9.919.9" transform="translate(28.373 30.466)" fill="#a3a3a3" stroke="#263238" stroke-miterlimit="10" stroke-width="0.5"/>
      <path id="Path-85" data-name="Path" d="M7.106,5.089C6.688,2.711,6.321,1.061,6.037,0A21.852,21.852,0,0,1,0,.672,26.711,26.711,0,0,1,.956,5.259,25.27,25.27,0,0,0,7.109,5.19.887.887,0,0,1,7.106,5.089Z" transform="translate(36.874 38.721)" fill="#a3a3a3" stroke="#263238" stroke-miterlimit="10" stroke-width="0.5"/>
      <rect id="Rectangle-11" data-name="Rectangle" width="33.559" height="9.207" rx="1.45" transform="translate(12.82 88.149)" fill="#adc7f7" stroke="#263238" stroke-linecap="round" stroke-linejoin="round" stroke-miterlimit="10" stroke-width="0.5"/>
      <path id="Path-86" data-name="Path" d="M4.787,3.3H2.3a.363.363,0,0,1-.338-.236L1.09.727H0V0H1.334a.363.363,0,0,1,.338.236l.887,2.341h2L5.354.836l.727.055-.97,2.2A.363.363,0,0,1,4.787,3.3Z" transform="translate(14.175 90.275)" fill="#263238"/>
      <path id="Path-87" data-name="Path" d="M.894.443A.447.447,0,1,1,.451,0,.447.447,0,0,1,.894.443Z" transform="translate(16.472 93.924)" fill="#263238"/>
      <path id="Path-88" data-name="Path" d="M.887.443A.443.443,0,1,1,.443,0,.443.443,0,0,1,.887.443Z" transform="translate(16.738 91.718)" fill="#263238"/>
      <path id="Path-89" data-name="Path" d="M.887.443A.443.443,0,1,1,.757.13.443.443,0,0,1,.887.443Z" transform="translate(17.872 91.718)" fill="#263238"/>
      <path id="Path-90" data-name="Path" d="M.887.443A.443.443,0,1,1,.443,0,.443.443,0,0,1,.887.443Z" transform="translate(16.403 90.679)" fill="#263238"/>
      <path id="Path-91" data-name="Path" d="M.894.443A.447.447,0,1,1,.447,0,.447.447,0,0,1,.894.443Z" transform="translate(17.392 90.679)" fill="#263238"/>
      <path id="Path-92" data-name="Path" d="M.887.443A.443.443,0,1,1,.757.13a.443.443,0,0,1,.13.314Z" transform="translate(18.377 90.679)" fill="#263238"/>
      <path id="Path-93" data-name="Path" d="M.887.443A.443.443,0,1,1,.443,0,.443.443,0,0,1,.887.443Z" transform="translate(17.988 93.924)" fill="#263238"/>
      <path id="Shape" d="M.269,2.867A.291.291,0,0,1,.08,2.8.23.23,0,0,1,0,2.621a.35.35,0,0,1,.018-.1L.879.367A.615.615,0,0,1,1.068.073a.494.494,0,0,1,.517,0,.645.645,0,0,1,.189.294l.861,2.152a.322.322,0,0,1,.018.1.232.232,0,0,1-.084.178.275.275,0,0,1-.189.068.256.256,0,0,1-.152-.047.308.308,0,0,1-.1-.146l-.175-.469H.7l-.177.469a.279.279,0,0,1-.1.146.246.246,0,0,1-.145.047Z" transform="translate(22.63 91.376)" fill="#263238"/>
      <path id="Shape-2" data-name="Shape" d="M.849,2.854a.772.772,0,0,1-.455-.139A.82.82,0,0,1,.1,2.352,1.316,1.316,0,0,1,0,1.832a1.065,1.065,0,0,1,.236-.727A.817.817,0,0,1,.877.84a.672.672,0,0,1,.617.313V.266a.267.267,0,0,1,.069-.2A.241.241,0,0,1,1.746,0a.237.237,0,0,1,.175.069.284.284,0,0,1,.066.2V2.548a.287.287,0,0,1-.069.2.235.235,0,0,1-.178.076.254.254,0,0,1-.178-.061A.254.254,0,0,1,1.5,2.585V2.516a.683.683,0,0,1-.591.341Z" transform="translate(25.547 91.423)" fill="#263238"/>
      <path id="Shape-3" data-name="Shape" d="M.849,2.854a.772.772,0,0,1-.455-.139A.82.82,0,0,1,.1,2.352,1.316,1.316,0,0,1,0,1.832a1.052,1.052,0,0,1,.239-.727A.809.809,0,0,1,.877.84a.667.667,0,0,1,.617.313V.266a.284.284,0,0,1,.069-.2A.241.241,0,0,1,1.746,0a.231.231,0,0,1,.175.069.28.28,0,0,1,.069.2V2.548a.283.283,0,0,1-.073.2.235.235,0,0,1-.178.076.244.244,0,0,1-.175-.061A.235.235,0,0,1,1.5,2.585V2.516a.685.685,0,0,1-.592.341Z" transform="translate(27.957 91.423)" fill="#263238"/>
      <path id="Path-94" data-name="Path" d="M.514,2.538a.676.676,0,0,1-.149-.465V1.058H.176a.164.164,0,0,1-.131-.047.182.182,0,0,1,0-.24A.167.167,0,0,1,.172.727H.38L.438.244A.294.294,0,0,1,.51.07.211.211,0,0,1,.681,0,.167.167,0,0,1,.816.059.273.273,0,0,1,.863.229v.5h.316A.153.153,0,0,1,1.3.775.171.171,0,0,1,1.346.9a.16.16,0,0,1-.044.116.174.174,0,0,1-.127.044H.863v.891a.614.614,0,0,0,.047.28.171.171,0,0,0,.167.095h.142a.171.171,0,0,1,.131.058.193.193,0,0,1,.044.127.2.2,0,0,1,0,.084.105.105,0,0,1-.051.055.251.251,0,0,1-.069.036.291.291,0,0,1-.095,0H.921A.571.571,0,0,1,.514,2.538Z" transform="translate(31.362 91.55)" fill="#263238"/>
      <path id="Shape-4" data-name="Shape" d="M1.021,2.013A1.166,1.166,0,0,1,.567,1.9a.808.808,0,0,1-.32-.225,1.1,1.1,0,0,1-.185-.32A1.169,1.169,0,0,1,0,1,1.209,1.209,0,0,1,.04.69.969.969,0,0,1,.16.419.875.875,0,0,1,.651.055,1.216,1.216,0,0,1,1.014,0a1.188,1.188,0,0,1,.364.051A.937.937,0,0,1,1.665.2a.855.855,0,0,1,.2.222A.94.94,0,0,1,2,.7a1.219,1.219,0,0,1,.04.312,1.188,1.188,0,0,1-.04.3,1.01,1.01,0,0,1-.12.273.918.918,0,0,1-.2.225.948.948,0,0,1-.291.153,1.216,1.216,0,0,1-.355.054Z" transform="translate(33.014 92.267)" fill="#263238"/>
      <path id="Path-95" data-name="Path" d="M.655,2.781a1.258,1.258,0,0,1-.48-.512A1.639,1.639,0,0,1,0,1.5,1.723,1.723,0,0,1,.106.872,1.316,1.316,0,0,1,.4.4,1.279,1.279,0,0,1,.84.105,1.454,1.454,0,0,1,1.392,0a1.625,1.625,0,0,1,.727.182.222.222,0,0,1,.134.2.244.244,0,0,1-.062.16.2.2,0,0,1-.153.069.2.2,0,0,1-.076,0L1.89.585,1.8.545l-.1-.036A.8.8,0,0,0,1.56.483a.956.956,0,0,0-.149,0A.752.752,0,0,0,.8.738a1.454,1.454,0,0,0,0,1.527.767.767,0,0,0,.625.265,1.239,1.239,0,0,0,.582-.171.174.174,0,0,1,.222.044.24.24,0,0,1,.055.153.233.233,0,0,1-.109.2,1.479,1.479,0,0,1-.84.229,1.327,1.327,0,0,1-.68-.2Z" transform="translate(36.561 91.326)" fill="#263238"/>
      <path id="Shape-5" data-name="Shape" d="M.19,1.913A.491.491,0,0,1,0,1.5a.8.8,0,0,1,.022-.207.541.541,0,0,1,.069-.157.36.36,0,0,1,.123-.109A.987.987,0,0,1,.386.956,1.4,1.4,0,0,1,.615.913C.706.913.8.895.895.891h.342V.738A.367.367,0,0,0,1.149.469.365.365,0,0,0,.887.385H.673L.6.4.542.422.477.44.426.462H.372L.328.48a.11.11,0,0,1-.054,0A.155.155,0,0,1,.157.422.2.2,0,0,1,.11.291.14.14,0,0,1,.2.153,1.685,1.685,0,0,1,.923,0a1.23,1.23,0,0,1,.324.041A.806.806,0,0,1,1.5.167.573.573,0,0,1,1.669.4a.883.883,0,0,1,.058.345v1a.248.248,0,0,1-.066.182.234.234,0,0,1-.167.065.229.229,0,0,1-.163-.065.233.233,0,0,1-.069-.182V1.679a.577.577,0,0,1-.2.244.66.66,0,0,1-.364.091.8.8,0,0,1-.106.007A.782.782,0,0,1,.19,1.913Z" transform="translate(39.16 92.194)" fill="#263238"/>
      <path id="Path-96" data-name="Path" d="M.07,1.894A.269.269,0,0,1,0,1.694V.24A.218.218,0,0,1,.073.066.276.276,0,0,1,.248,0,.287.287,0,0,1,.422.062.2.2,0,0,1,.5.225v.2a.64.64,0,0,1,.2-.3A.505.505,0,0,1,1.029,0a.171.171,0,0,1,.138.062.218.218,0,0,1,.047.145.254.254,0,0,1-.044.145.134.134,0,0,1-.12.062,1.156,1.156,0,0,0-.207,0A.752.752,0,0,0,.673.48.313.313,0,0,0,.546.625.552.552,0,0,0,.5.858v.829a.28.28,0,0,1-.069.2.247.247,0,0,1-.182.069A.251.251,0,0,1,.07,1.894Z" transform="translate(41.395 92.271)" fill="#263238"/>
      <path id="Path-97" data-name="Path" d="M.5,2.538a.658.658,0,0,1-.149-.465V1.058H.175a.174.174,0,0,1-.131-.047A.171.171,0,0,1,0,.887.16.16,0,0,1,.044.771.167.167,0,0,1,.171.727h.2L.436.244A.273.273,0,0,1,.509.07.211.211,0,0,1,.676,0,.156.156,0,0,1,.811.059.251.251,0,0,1,.862.229v.5h.313A.164.164,0,0,1,1.3.775.171.171,0,0,1,1.345.9a.16.16,0,0,1-.044.116.174.174,0,0,1-.127.044H.862v.891a.68.68,0,0,0,.044.28.174.174,0,0,0,.167.095h.164a.156.156,0,0,1,.127.058.178.178,0,0,1,.047.127.2.2,0,0,1,0,.084.105.105,0,0,1-.051.055.251.251,0,0,1-.069.036.291.291,0,0,1-.095,0H.9a.56.56,0,0,1-.4-.145Z" transform="translate(42.715 91.55)" fill="#263238"/>
      <rect id="Rectangle-12" data-name="Rectangle" width="51.435" height="3.867" transform="translate(3.682 12.776)" fill="#263238"/>
      <rect id="Rectangle-13" data-name="Rectangle" width="22.546" height="1.886" transform="translate(10.203 13.194)" fill="#fff"/>
      <rect id="Rectangle-14" data-name="Rectangle" width="4.729" height="4.496" transform="translate(8.854 74.424)" fill="#fff" stroke="#263238" stroke-miterlimit="10" stroke-width="0.5"/>
      <rect id="Rectangle-15" data-name="Rectangle" width="4.729" height="4.496" transform="translate(14.964 74.424)" fill="#fff" stroke="#263238" stroke-miterlimit="10" stroke-width="0.5"/>
    </g>
    <g id="freepik--Character--inject-116" transform="translate(68.332 46.161)">
      <path id="Path-98" data-name="Path" d="M5.906,0H42.348a5.906,5.906,0,0,1,5.906,5.906V49.523a1.436,1.436,0,0,1-1.436,1.436H1.436A1.436,1.436,0,0,1,0,49.523V5.906A5.906,5.906,0,0,1,5.906,0Z" transform="translate(16.465 34.639)" fill="#263238" stroke="#263238" stroke-linecap="round" stroke-linejoin="round" stroke-miterlimit="10" stroke-width="0.5"/>
      <path id="Path-99" data-name="Path" d="M5.906,0H42.344a5.906,5.906,0,0,1,5.906,5.906V49.523a1.436,1.436,0,0,1-1.436,1.436H1.436A1.436,1.436,0,0,1,0,49.523V5.906A5.906,5.906,0,0,1,5.906,0Z" transform="translate(12.591 34.301)" fill="#c4c4c4" stroke="#263238" stroke-linecap="round" stroke-linejoin="round" stroke-miterlimit="10" stroke-width="0.5"/>
      <rect id="Rectangle-16" data-name="Rectangle" width="10.29" height="39.815" rx="1.436" transform="translate(9.621 45.772)" fill="#fff" stroke="#263238" stroke-linecap="round" stroke-linejoin="round" stroke-miterlimit="10" stroke-width="0.5"/>
      <rect id="Rectangle-17" data-name="Rectangle" width="39.644" height="9.952" transform="translate(9.196 56.909)" fill="#c4c4c4" stroke="#263238" stroke-linecap="round" stroke-linejoin="round" stroke-miterlimit="10" stroke-width="0.5"/>
      <rect id="Rectangle-18" data-name="Rectangle" width="39.644" height="9.952" transform="translate(9.196 59.606)" fill="#c4c4c4" stroke="#263238" stroke-linecap="round" stroke-linejoin="round" stroke-miterlimit="10" stroke-width="0.5"/>
      <rect id="Rectangle-19" data-name="Rectangle" width="10.29" height="39.815" rx="1.436" transform="translate(2.784 45.772)" fill="#c4c4c4" stroke="#263238" stroke-linecap="round" stroke-linejoin="round" stroke-miterlimit="10" stroke-width="0.5"/>
      <rect id="Rectangle-20" data-name="Rectangle" width="48.251" height="16.701" rx="1.436" transform="translate(13.074 68.885)" fill="#c4c4c4" stroke="#263238" stroke-linecap="round" stroke-linejoin="round" stroke-miterlimit="10" stroke-width="0.5"/>
      <path id="Path-100" data-name="Path" d="M11.538.1a6.179,6.179,0,0,0-3.5.389C6.33,1.264.409,7.029.045,8.414S1.6,12.07,2.3,14.015,3.775,17.9,3.309,20A3.892,3.892,0,0,1,1.6,22.72s-.076.08,2.333.778a6.278,6.278,0,0,0,6.688-2.566c1.556-2.177,2.021-5.906,1.788-9.716S11.538.1,11.538.1Z" transform="translate(24.209 0.375)" fill="#263238" stroke="#263238" stroke-linecap="round" stroke-linejoin="round" stroke-miterlimit="10" stroke-width="0.5"/>
      <path id="Path-101" data-name="Path" d="M32.091,7.764a35.3,35.3,0,0,1-4.743-.622C24.549,6.6,15.375,1.621,13.43,1.327A9.641,9.641,0,0,0,9.363,1.2,12.572,12.572,0,0,0,5.536,0S.811-.091.175,3s.636,16.174,1.09,21.9,2.635,13.63,2,16.265-2.181,3.635-2,4,3.18,0,4.453-.636,1.545-2.635,1.545-3.635-.273-2.272.454-3,1.545-1.272,1.09-2.635-2.726-2.544-2.726-2.544A41.152,41.152,0,0,1,6.626,21.9a55.735,55.735,0,0,0,1-11.813c0-2.635-.091-5-.091-5s3.544,6.71,6.633,8.981,9.814,1.636,9.814,1.636l-.029-.044c3.01-.091,7.938-.363,8.683-2.613A7.7,7.7,0,0,0,32.091,7.764Z" transform="translate(12.365 44.176)" fill="#adc7f7" stroke="#263238" stroke-linecap="round" stroke-linejoin="round" stroke-miterlimit="10" stroke-width="0.5"/>
      <path id="Path-102" data-name="Path" d="M4.867,9.574A40.531,40.531,0,0,1,5.209,0,9.7,9.7,0,0,1,0,1.123c.018.218.036.433.051.636.454,5.725,2.635,13.63,2,16.265s-2.181,3.635-2,4,3.18,0,4.453-.636,1.545-2.635,1.545-3.635-.273-2.272.454-3,1.545-1.272,1.09-2.635S4.867,9.574,4.867,9.574Z" transform="translate(13.579 67.3)" fill="#fff" stroke="#263238" stroke-linecap="round" stroke-linejoin="round" stroke-miterlimit="10" stroke-width="0.5"/>
      <path id="Path-103" data-name="Path" d="M4.478,13.267c1.272-.636,1.545-2.635,1.545-3.635s-.273-2.272.454-3S8.022,5.361,7.568,4,4.842,1.454,4.842,1.454,4.783.927,4.744,0A6.141,6.141,0,0,1,1.109,1.13c.662,3.74,1.283,7.189.905,8.763-.636,2.635-2.181,3.635-2,4S3.206,13.9,4.478,13.267Z" transform="translate(13.604 75.42)" fill="#adc7f7" stroke="#263238" stroke-linecap="round" stroke-linejoin="round" stroke-miterlimit="10" stroke-width="0.5"/>
      <path id="Path-104" data-name="Path" d="M10.814,2.635a6.063,6.063,0,0,1-.389,2.333C9.96,6.212,3.276,7.378,2.963,8.156a55.109,55.109,0,0,0-1.632,8.4C.866,20.285.165,24.185.165,24.185a14.959,14.959,0,0,0-.076,3.577c.236,1.323,13.6,6.906,17.646,7.309s5.365.465,5.754-.313a3.01,3.01,0,0,0,.389-1.167,2.628,2.628,0,0,0-.233-1.556c-.909-1.632-2.181-4.725-2.181-6.375s4.362-15.782,4.2-16.72-8-3.809-8-3.809S15.1,4.507,14.711,3.809,14.322,0,14.322,0Z" transform="translate(21.356 17.039)" fill="#6b6b6b" stroke="#263238" stroke-linecap="round" stroke-linejoin="round" stroke-miterlimit="10" stroke-width="0.5"/>
      <path id="Path-105" data-name="Path" d="M9.934,5.132S7.368,4.507,6.979,3.809,6.59,0,6.59,0l-3.5,2.642A6.063,6.063,0,0,1,2.7,4.976C2.519,5.467,1.356,5.95,0,6.4c.091,1.236.542,3.911,2.781,5.03,2.755,1.378,5.786-1.374,7.822-6.048Z" transform="translate(29.081 17.039)" fill="#fff" stroke="#263238" stroke-linecap="round" stroke-linejoin="round" stroke-miterlimit="10" stroke-width="0.5"/>
      <path id="Path-106" data-name="Path" d="M2.409,10.1c2.344.182,3.853-3.635,4.416-5.376a3.4,3.4,0,0,1-1.617-.92C4.818,3.108,4.818,0,4.818,0l-3.5,2.642A6.063,6.063,0,0,1,.929,4.976a1.723,1.723,0,0,1-.887.709C-.038,6.477-.27,9.9,2.409,10.1Z" transform="translate(30.853 17.032)" fill="#fff" stroke="#263238" stroke-linecap="round" stroke-linejoin="round" stroke-miterlimit="10" stroke-width="0.5"/>
      <path id="Path-107" data-name="Path" d="M5.288,0,0,3.667s.389,5.517.934,6.841,1.788,3.885,3.733,3.653,4.2-2.955,4.2-2.955S9.563,4.278,5.288,0Z" transform="translate(26.573 6.146)" fill="#fff" stroke="#263238" stroke-linecap="round" stroke-linejoin="round" stroke-miterlimit="10" stroke-width="0.5"/>
      <path id="Path-108" data-name="Path" d="M0,.063a1.043,1.043,0,0,0,1.323,0" transform="translate(27.74 12.771)" fill="#fff" stroke="#263238" stroke-linecap="round" stroke-linejoin="round" stroke-miterlimit="10" stroke-width="0.5"/>
      <path id="Path-109" data-name="Path" d="M0,.092S1.167.714,1.556.016" transform="translate(31.16 12.818)" fill="#fff" stroke="#263238" stroke-linecap="round" stroke-linejoin="round" stroke-miterlimit="10" stroke-width="0.5"/>
      <path id="Path-110" data-name="Path" d="M0,.6A1.154,1.154,0,0,1,1.865.362" transform="translate(27.431 10.527)" fill="#fff" stroke="#263238" stroke-linecap="round" stroke-linejoin="round" stroke-miterlimit="10" stroke-width="0.5"/>
      <path id="Path-111" data-name="Path" d="M0,.286A1.292,1.292,0,0,1,1.945.675" transform="translate(30.771 10.68)" fill="#fff" stroke="#263238" stroke-linecap="round" stroke-linejoin="round" stroke-miterlimit="10" stroke-width="0.5"/>
      <path id="Path-112" data-name="Path" d="M.323,0S.56,1.4.56,1.788-.374,2.955.171,3.264a1.937,1.937,0,0,0,.854.313" transform="translate(29.281 12.289)" fill="#fff" stroke="#263238" stroke-linecap="round" stroke-linejoin="round" stroke-miterlimit="10" stroke-width="0.5"/>
      <path id="Path-113" data-name="Path" d="M0,1.323A1.748,1.748,0,0,0,2.021,0" transform="translate(30.928 15.32)" fill="#fff" stroke="#263238" stroke-linecap="round" stroke-linejoin="round" stroke-miterlimit="10" stroke-width="0.5"/>
      <path id="Path-114" data-name="Path" d="M0,5.132a44.173,44.173,0,0,1,2.879,8,22.216,22.216,0,0,1,.778,7.851,1.716,1.716,0,0,1-1.323,1.4,11.384,11.384,0,0,0,4.362.7c2.181-.156,5.754-1.632,6.063-4.362S10.97,10.166,9.883,6.9,7.16.527,5.452.058,1.018,2.079.24,3.714" transform="translate(31.16 0.32)" fill="#263238" stroke="#263238" stroke-linecap="round" stroke-linejoin="round" stroke-miterlimit="10" stroke-width="0.5"/>
      <path id="Path-115" data-name="Path" d="M.055.949,3.5,7.706A.542.542,0,0,0,3.951,8l2.882.167a.538.538,0,0,0,.531-.727L4.493.339A.542.542,0,0,0,3.966,0L.516.175A.538.538,0,0,0,.055.949Z" transform="translate(13.681 35.398)" fill="#263238" stroke="#263238" stroke-linecap="round" stroke-linejoin="round" stroke-miterlimit="10" stroke-width="0.5"/>
      <path id="Path-116" data-name="Path" d="M.1,0A1.857,1.857,0,0,0,.376,1.726c.636.636,2.279,1.09,3,.454S2.012,1.09,1.466.545A2.13,2.13,0,0,0,.1,0Z" transform="translate(14.163 42.072)" fill="#fff" stroke="#263238" stroke-linecap="round" stroke-linejoin="round" stroke-miterlimit="10" stroke-width="0.5"/>
      <path id="Path-117" data-name="Path" d="M.947,0S-.416,1.09.129,1.908,3.582,3.635,3.854,3.089.947,0,.947,0Z" transform="translate(13.865 40.618)" fill="#fff" stroke="#263238" stroke-linecap="round" stroke-linejoin="round" stroke-miterlimit="10" stroke-width="0.5"/>
      <path id="Path-118" data-name="Path" d="M.84,0s-1,1.181-.818,1.908S3.21,5.394,3.115,4.242,1.022,1.09,1.022,1.09Z" transform="translate(14.517 39.164)" fill="#fff" stroke="#263238" stroke-linecap="round" stroke-linejoin="round" stroke-miterlimit="10" stroke-width="0.5"/>
      <path id="Path-119" data-name="Path" d="M.4,0A17.125,17.125,0,0,0,.054,4.278C.363,5.525,1.762,9.567,1.762,9.567" transform="translate(24.579 32.81)" fill="none" stroke="#263238" stroke-linecap="round" stroke-linejoin="round" stroke-miterlimit="10" stroke-width="0.5"/>
      <path id="Path-120" data-name="Path" d="M.274,0S.2.393.089,1" transform="translate(25.212 29.859)" fill="none" stroke="#263238" stroke-linecap="round" stroke-linejoin="round" stroke-miterlimit="10" stroke-width="0.5"/>
      <path id="Path-121" data-name="Path" d="M40.292,13.713S34.23,6.872,29.643,3.684,18.132-1.568,17.434,1.525s-1.319,14.288-2.951,20.583S8.572,37.738,7.249,39.526a47.853,47.853,0,0,1-5.816,5.906c-.84.622-1.865,1.247-1.243,1.632a6.242,6.242,0,0,0,4.587.313c1.556-.7,3.344-1.865,4.362-2.021s1.788-.389,1.941-1.945-.153-3.809.313-4.976,5.288-9.25,7.462-11.66a17.242,17.242,0,0,0,4.122-8.244,32.154,32.154,0,0,0,.622-7.851s2.566,6.063,8.865,6.906,8.084-.313,8.084-.313" transform="translate(0.198 41.898)" fill="#adc7f7" stroke="#263238" stroke-linecap="round" stroke-linejoin="round" stroke-miterlimit="10" stroke-width="0.5"/>
      <path id="Path-122" data-name="Path" d="M16.46,1.785,12.494,0A69.469,69.469,0,0,1,7.249,11.333a47.6,47.6,0,0,1-5.816,5.906c-.84.622-1.865,1.247-1.243,1.632a6.242,6.242,0,0,0,4.587.313c1.556-.7,3.344-1.865,4.362-2.021s1.788-.389,1.941-1.945-.153-3.809.313-4.976A82.384,82.384,0,0,1,16.46,1.785Z" transform="translate(0.198 70.073)" fill="#fff" stroke="#263238" stroke-linecap="round" stroke-linejoin="round" stroke-miterlimit="10" stroke-width="0.5"/>
      <path id="Path-123" data-name="Path" d="M11.506,1.09,8.645,0a19.991,19.991,0,0,1-1.4,2.468A47.6,47.6,0,0,1,1.434,8.374C.594,9-.431,9.621.191,10.006a6.242,6.242,0,0,0,4.587.313c1.556-.7,3.344-1.865,4.362-2.021s1.788-.389,1.941-1.945-.153-3.809.313-4.976A.716.716,0,0,1,11.506,1.09Z" transform="translate(0.198 78.939)" fill="#adc7f7" stroke="#263238" stroke-linecap="round" stroke-linejoin="round" stroke-miterlimit="10" stroke-width="0.5"/>
      <path id="Path-124" data-name="Path" d="M9.2,3.035A6.851,6.851,0,0,1,7.179,1.247,3.767,3.767,0,0,0,4.38,0H3.835l.389.625L.2,1.323s-.542.233.156,1.01,1.243,2.181,2.49,2.8a15.44,15.44,0,0,0,4.431.7l1.243.309Z" transform="translate(15.429 38.488)" fill="#fff" stroke="#263238" stroke-linecap="round" stroke-linejoin="round" stroke-miterlimit="10" stroke-width="0.5"/>
      <path id="Path-125" data-name="Path" d="M0,.21A34.93,34.93,0,0,0,3.809.134" transform="translate(15.767 40.611)" fill="#fff" stroke="#263238" stroke-linecap="round" stroke-linejoin="round" stroke-miterlimit="10" stroke-width="0.5"/>
      <path id="Path-126" data-name="Path" d="M0,0A8.1,8.1,0,0,0,3.809.778" transform="translate(16.389 41.523)" fill="#fff" stroke="#263238" stroke-linecap="round" stroke-linejoin="round" stroke-miterlimit="10" stroke-width="0.5"/>
      <path id="Path-127" data-name="Path" d="M0,0A8.881,8.881,0,0,0,3.42.545" transform="translate(17.167 42.766)" fill="#fff" stroke="#263238" stroke-linecap="round" stroke-linejoin="round" stroke-miterlimit="10" stroke-width="0.5"/>
      <path id="Path-128" data-name="Path" d="M18.5,3.635,14.386,17.319a65.58,65.58,0,0,1-9.021.309A24.785,24.785,0,0,1,.545,16.48L0,20.056s1.712.622,4.667,1.479,11.584,2.719,12.751,1.941,1.865-3.729,1.945-4.042S22.935,7.077,23.48,5.365,24.334,2.254,23.4,1.4A9.948,9.948,0,0,0,21.383,0" transform="translate(23.618 24.592)" fill="#6b6b6b" stroke="#263238" stroke-linecap="round" stroke-linejoin="round" stroke-miterlimit="10" stroke-width="0.5"/>
      <rect id="Rectangle-21" data-name="Rectangle" width="10.29" height="39.815" rx="1.436" transform="translate(50.864 45.772)" fill="#263238" stroke="#263238" stroke-linecap="round" stroke-linejoin="round" stroke-miterlimit="10" stroke-width="0.5"/>
      <rect id="Rectangle-22" data-name="Rectangle" width="10.29" height="39.815" rx="1.436" transform="translate(43.337 45.772)" fill="#c4c4c4" stroke="#263238" stroke-linecap="round" stroke-linejoin="round" stroke-miterlimit="10" stroke-width="0.5"/>
    </g>
  </g>
</svg>
