<svg xmlns="http://www.w3.org/2000/svg" width="146.542" height="135.89" viewBox="0 0 146.542 135.89">
  <g id="Black_Friday-bro_1_" data-name="Black Friday-bro (1)" transform="translate(-0.022 -0.332)">
    <g id="freepik--background-simple--inject-313">
      <path id="Path" d="M24.466,135.639H125.359c29.9-36.882,23.632-65.665,8.758-74.614-9.664-5.817-20.281,0-27.621-9.05s1.165-27.989-9.515-43.206S67.731.521,58.2,11.673,44.668,53.214,26.527,48.364-10.081,62.27,6.405,86.488A110.192,110.192,0,0,1,24.466,135.639Z" transform="translate(0.022 0.332)" fill="#f9fbff"/>
    </g>
    <g id="freepik--Floor--inject-313" transform="translate(2.428 135.625)">
      <path id="Path-2" data-name="Path" d="M0,.173H141.41" transform="translate(0.055 0.173)" fill="none" stroke="#263238" stroke-linecap="round" stroke-linejoin="round" stroke-miterlimit="10" stroke-width="0.5"/>
    </g>
    <g id="freepik--Banners--inject-313" transform="translate(10.059 6.937)">
      <path id="Path-3" data-name="Path" d="M0,5.328S20.781-.222,41.943.007,83.567,8.332,83.567,8.332L81.919,19.268a115.417,115.417,0,0,0-39.435-8.533,109.316,109.316,0,0,0-41.2,6.9Z" transform="translate(21.412 0.222)" fill="none" stroke="#263238" stroke-linecap="round" stroke-linejoin="round" stroke-miterlimit="10" stroke-width="0.5"/>
      <path id="Path-4" data-name="Path" d="M18.648,0s-1.006,8.228-7.614,7.406S0,14.537,0,14.537" transform="translate(4.044 17.853)" fill="none" stroke="#263238" stroke-linecap="round" stroke-linejoin="round" stroke-miterlimit="10" stroke-width="0.5"/>
      <path id="Path-5" data-name="Path" d="M15.2,4.308S11.766,6.781,9.071,2.646,0,.457,0,.457" transform="translate(6.216 1.242)" fill="none" stroke="#263238" stroke-linecap="round" stroke-linejoin="round" stroke-miterlimit="10" stroke-width="0.5"/>
      <path id="Path-6" data-name="Path" d="M0,1.776C3.947,2.029,6.559,7.045,8.273,4.4S13.916,0,13.916,0" transform="translate(104.972 6.76)" fill="none" stroke="#263238" stroke-linecap="round" stroke-linejoin="round" stroke-miterlimit="10" stroke-width="0.5"/>
      <path id="Path-7" data-name="Path" d="M0,0C3.673,4.412,3.413,3.514,4.641,7.118s4.312,2.813,6.2,4.162,1.8,4.974,1.8,4.974" transform="translate(103.324 19.473)" fill="none" stroke="#263238" stroke-linecap="round" stroke-linejoin="round" stroke-miterlimit="10" stroke-width="0.5"/>
      <path id="Path-8" data-name="Path" d="M1.05.055c.735-.2,1.145.153,1.193.943v.156l-.715.187v-.2C1.5.791,1.359.69,1.119.756s-.368.236-.347.59.194.583.715.891a1.509,1.509,0,0,1,.926,1.308A1.339,1.339,0,0,1,1.372,5.061c-.732.2-1.138-.139-1.193-.912l-.021-.3.694-.2L.876,4c.021.347.18.427.416.347A.474.474,0,0,0,1.64,3.77c-.035-.347-.191-.579-.694-.885a1.5,1.5,0,0,1-.93-1.3A1.353,1.353,0,0,1,1.05.055Z" transform="translate(27.626 6.882)" fill="#adc7f7"/>
      <path id="Shape" d="M.472.277,1.592,0Q2.12,2.39,2.647,4.735l-.767.18c-.059-.284-.122-.569-.181-.853L.77,4.29C.746,4.6.722,4.9.694,5.2L0,5.377C.156,3.695.312,1.991.472.277Z" transform="translate(30.337 6.164)" fill="#adc7f7"/>
      <path id="Path-9" data-name="Path" d="M0,.177.77,0Q.878,2.133.989,4.232l1.259-.271.031.694C1.606,4.794.933,4.943.264,5.1Q.135,2.66,0,.177Z" transform="translate(33.07 5.72)" fill="#adc7f7"/>
      <path id="Path-10" data-name="Path" d="M.857,2.38l1.065-.208c0,.236.021.472.028.694C1.6,2.931,1.256,3,.891,3.073c.021.479.042.961.066,1.439.441-.09.885-.177,1.328-.26l.031.694c-.694.132-1.387.267-2.081.413Q.118,2.91,0,.423,1.041.2,2.123,0c0,.236.017.475.028.715Q1.481.839.808.975.826,1.693.857,2.38Z" transform="translate(35.464 4.929)" fill="#adc7f7"/>
      <path id="Path-11" data-name="Path" d="M2.359,0,2.38.694Q1.87,2.938,1.37,5.154l-.777.128q.493-2.2.992-4.433c-.52.083-1.041.17-1.561.264A7.094,7.094,0,0,0,0,.4Q1.171.182,2.359,0Z" transform="translate(39.109 4.277)" fill="#adc7f7"/>
      <path id="Shape-2" data-name="Shape" d="M.087,4.028C.056,3.182.029,2.321.011,1.454A1.274,1.274,0,0,1,1.17.018c.78-.111,1.217.3,1.235,1.1q.031,1.3.062,2.588A1.245,1.245,0,0,1,1.309,5.092a1.724,1.724,0,0,1-.241.018C.454,5.11.109,4.728.087,4.028Z" transform="translate(41.96 3.954)" fill="#adc7f7"/>
      <path id="Shape-3" data-name="Shape" d="M2.754.049,3.226,0q-.964,2.619-1.9,5.2L.86,5.259Q1.8,2.671,2.754.049ZM2.57,4.308c-.007-.51-.017-1.086-.028-1.631A.777.777,0,0,1,3.295,1.8c.5-.049.77.215.778.729l.021,1.63a.771.771,0,0,1-.753.864q-.06.006-.115.006C2.806,5.029,2.577,4.777,2.57,4.308ZM.045,2.806C.035,2.3.021,1.686.007,1.138a.8.8,0,0,1,.749-.9c.5-.059.77.2.78.718s.022,1.1.031,1.644a.785.785,0,0,1-.746.9,1.149,1.149,0,0,1-.135.008C.279,3.508.055,3.261.045,2.806Z" transform="translate(44.808 3.437)" fill="#adc7f7"/>
      <path id="Shape-4" data-name="Shape" d="M.011,3.963q0-1.291-.011-2.6A1.219,1.219,0,0,1,1.211,0C2-.05,2.428.39,2.432,1.2V3.8A1.191,1.191,0,0,1,1.224,5.117q-.071.005-.139.005C.4,5.123.017,4.722.011,3.963Z" transform="translate(50.459 3.069)" fill="#adc7f7"/>
      <path id="Path-12" data-name="Path" d="M.794,2.3l1.041-.045v.715L.794,3.011v2.05L0,5.1V.1Q1.061.045,2.13,0V.725L.8.78Z" transform="translate(53.414 2.924)" fill="#adc7f7"/>
      <path id="Path-13" data-name="Path" d="M.8,2.269l1.041-.024v.718L.8,2.983V5.036L0,5.061Q0,2.581.035.052,1.1.014,2.164,0V.721C1.724.721,1.28.739.839.753.808,1.259.8,1.766.8,2.269Z" transform="translate(55.911 2.858)" fill="#adc7f7"/>
      <path id="Shape-5" data-name="Shape" d="M1.19,5.126A1.1,1.1,0,0,1,0,3.878q.022-1.3.042-2.606A1.143,1.143,0,0,1,1.287,0a1.115,1.115,0,0,1,1.2,1.287c-.021.87-.039,1.734-.059,2.6A1.126,1.126,0,0,1,1.2,5.126Z" transform="translate(59.456 2.782)" fill="#adc7f7"/>
      <path id="Path-14" data-name="Path" d="M.808,1.4h0Q.763,3.219.715,5.012H0Q.059,2.525.118,0L1.131.024c.243,1.016.486,2.033.728,3.039h0c.028-1,.055-2,.083-3.014l.721.028Q2.588,2.6,2.511,5.085l-.819-.031Q1.256,3.229.808,1.4Z" transform="translate(62.377 2.876)" fill="#adc7f7"/>
      <path id="Path-15" data-name="Path" d="M1.344,0A1.142,1.142,0,0,1,2.478,1.356v.156L1.722,1.46V1.252c0-.347-.128-.506-.382-.524S.931.84.921,1.2s.135.649.642,1.134a1.988,1.988,0,0,1,.819,1.623A1.067,1.067,0,0,1,1.146,5.123,1.129,1.129,0,0,1,0,3.809V3.5l.756.042v.347c0,.347.142.489.4.506s.416-.1.43-.458S1.448,3.3.945,2.817A1.982,1.982,0,0,1,.119,1.2C.144.4.56-.045,1.344,0Z" transform="translate(66.496 3.021)" fill="#adc7f7"/>
      <path id="Path-16" data-name="Path" d="M.905,2.216l1.1.1c0,.236-.024.475-.035.694L.874,2.914C.853,3.4.832,3.885.808,4.371c.458.038.916.076,1.387.121,0,.236-.024.472-.035.694C1.439,5.12.721,5.057,0,5Q.1,2.525.208,0C.94.055,1.668.118,2.4.187c0,.243-.024.482-.035.721L.978.787Z" transform="translate(69.297 3.17)" fill="#adc7f7"/>
      <path id="Path-17" data-name="Path" d="M.236,0c.267.028.534.052.8.083Q.93,2.244.819,4.371c.434.049.867.094,1.3.146,0,.236-.028.468-.038.694Q1.041,5.089,0,4.988.114,2.522.236,0Z" transform="translate(71.944 3.434)" fill="#adc7f7"/>
      <path id="Path-18" data-name="Path" d="M.964,2.227l1.089.139c-.017.239-.031.475-.045.715l-1.1-.142L.829,4.391c.454.055.909.118,1.36.177l-.042.694Q1.075,5.116,0,4.991.135,2.515.277,0C1,.087,1.727.177,2.452.277c0,.239-.031.482-.045.721C1.949.937,1.492.874,1.02.819,1.016,1.294.992,1.762.964,2.227Z" transform="translate(74.358 3.694)" fill="#adc7f7"/>
      <path id="Path-19" data-name="Path" d="M2.391,3.416c0,.219-.031.437-.045.656-.055.791-.482,1.176-1.252,1.041A1.2,1.2,0,0,1,0,3.7c.052-.86.108-1.734.16-2.591C.216.308.65-.1,1.43.02A1.217,1.217,0,0,1,2.523,1.467l-.031.486-.76-.1c0-.18.024-.347.035-.538C1.791.971,1.642.8,1.389.759s-.42.076-.441.434c-.059.9-.118,1.8-.173,2.692-.024.347.125.5.375.538s.416-.062.437-.416c.017-.236.031-.472.049-.694Z" transform="translate(77.006 4.121)" fill="#adc7f7"/>
      <path id="Path-20" data-name="Path" d="M.059,0Q1.283.2,2.487.423c0,.239-.038.479-.055.718L1.609.992Q1.453,3.132,1.3,5.241L.52,5.109Q.669,3,.822.853L0,.718C.024.479.042.239.059,0Z" transform="translate(79.807 4.443)" fill="#adc7f7"/>
      <path id="Path-21" data-name="Path" d="M1,2.275l1.068.212c-.021.236-.038.472-.059.694L.943,2.969c-.038.482-.076.964-.111,1.446.444.083.891.173,1.335.264-.017.236-.038.468-.059.694Q1.068,5.161,0,4.96.187,2.5.382,0C1.1.132,1.807.274,2.518.42,2.5.659,2.48.9,2.459,1.138c-.447-.094-.9-.184-1.349-.271C1.075,1.349,1.037,1.814,1,2.275Z" transform="translate(82.266 4.912)" fill="#adc7f7"/>
      <path id="Shape-6" data-name="Shape" d="M1.218,5.214,0,4.95C.131,3.316.277,1.665.419,0L1.651.267a1.244,1.244,0,0,1,1.04,1.5c-.076.8-.149,1.669-.226,2.494-.063.678-.348,1-.873,1A1.78,1.78,0,0,1,1.218,5.214Z" transform="translate(84.85 5.453)" fill="#adc7f7"/>
      <path id="Path-22" data-name="Path" d="M.465,0l.77.194Q1,2.678.76,5.116L0,4.929Q.229,2.484.465,0Z" transform="translate(88.773 6.365)" fill="#adc7f7"/>
      <path id="Path-23" data-name="Path" d="M.069,0Q1.256.3,2.432.635l-.073.694-.8-.219q-.212,2.116-.427,4.2l-.753-.2Q.59,3.028.8.905L0,.694C.024.472.045.236.069,0Z" transform="translate(90.275 6.646)" fill="#adc7f7"/>
      <path id="Path-24" data-name="Path" d="M1.051,2.3,2.092,2.6c-.028.232-.052.465-.076.694l-1.041-.3c-.052.475-.1.95-.153,1.426.43.125.86.25,1.29.382-.028.229-.052.458-.076.694Q1.023,5.189,0,4.9.25,2.473.513,0C1.207.194,1.9.4,2.574.607c-.024.236-.052.468-.076.694Q1.849,1.1,1.2.916C1.148,1.384,1.1,1.842,1.051,2.3Z" transform="translate(92.523 7.374)" fill="#adc7f7"/>
      <path id="Path-25" data-name="Path" d="M1.707,3.961h0q.447-1.644.905-3.306L3.653,1q-.295,2.449-.586,4.856L2.373,5.63c.139-1.152.274-2.31.413-3.469h0Q2.327,3.829,1.88,5.477l-.694-.222c-.049-1.2-.1-2.4-.149-3.607h0L.645,5.085,0,4.884Q.271,2.456.545,0L1.585.326C1.613,1.537,1.661,2.754,1.707,3.961Z" transform="translate(95.038 8.134)" fill="#adc7f7"/>
      <path id="Path-26" data-name="Path" d="M1.442,5.591l-.187.735c-.142.565.055.832.451.933s.694-.042.839-.6l.444-1.734c.142-.565-.052-.843-.447-.943s-.694.049-.843.614l-.059.239L.464,4.53,1.851,0,5.129.836,4.841,1.967,2.67,1.415,2.111,3.267h.024a1.207,1.207,0,0,1,1.221-.305c.916.236,1.214,1,.916,2.161L3.808,6.892A1.784,1.784,0,0,1,1.449,8.408,1.788,1.788,0,0,1,.1,5.949l.17-.656Z" transform="translate(106.458 44.791)" fill="#adc7f7"/>
      <path id="Shape-7" data-name="Shape" d="M1.481,8.174A1.817,1.817,0,0,1,.095,5.7L1.135,1.59A1.809,1.809,0,0,1,3.528.086,1.817,1.817,0,0,1,4.916,2.552L3.875,6.665A1.806,1.806,0,0,1,2.112,8.258,2.576,2.576,0,0,1,1.481,8.174Z" transform="translate(110.903 46.162)" fill="#adc7f7"/>
      <path id="Shape-8" data-name="Shape" d="M2.052,5.094a.718.718,0,0,1-.163-.737l.384-1.5A.718.718,0,1,1,3.661,3.2L3.276,4.7a.718.718,0,0,1-1.224.39ZM.131,4.659,3.11.527l.427.108L.557,4.766ZM.2,2.85A.719.719,0,0,1,.04,2.113L.425.608A.718.718,0,1,1,1.813.954L1.427,2.46A.718.718,0,0,1,.2,2.85Z" transform="translate(116.569 47.076)" fill="#adc7f7"/>
      <path id="Shape-9" data-name="Shape" d="M.185,2.606a.657.657,0,0,1-.149-.671L.383.548A.655.655,0,1,1,1.649.87L1.3,2.258a.656.656,0,0,1-1.118.348Z" transform="translate(115.123 52.405)" fill="#adc7f7"/>
      <path id="Path-27" data-name="Path" d="M.794,1.287l.538.139-.1.378L.7,1.668l-.281,1.1L0,2.657.676,0l1.1.281L1.686.663.992.486Z" transform="translate(116.526 52.706)" fill="#adc7f7"/>
      <path id="Path-28" data-name="Path" d="M.794,1.287l.538.139-.1.378L.7,1.665.42,2.761,0,2.657.676,0,1.783.281l-.1.382L.992.486Z" transform="translate(117.834 53.039)" fill="#adc7f7"/>
      <path id="Path-29" data-name="Path" d="M0,0,13.864,3.32l.652-2.289" transform="translate(107.369 58.149)" fill="none" stroke="#263238" stroke-linecap="round" stroke-linejoin="round" stroke-miterlimit="10" stroke-width="0.5"/>
      <path id="Path-30" data-name="Path" d="M2.456,0,0,12.317l4.925,1.176" transform="translate(99.703 44)" fill="none" stroke="#263238" stroke-linecap="round" stroke-linejoin="round" stroke-miterlimit="10" stroke-width="0.5"/>
      <path id="Path-31" data-name="Path" d="M19.893,17.718,23.459,5.186.52,0,0,2.622" transform="translate(102.506 39.654)" fill="none" stroke="#263238" stroke-linecap="round" stroke-linejoin="round" stroke-miterlimit="10" stroke-width="0.5"/>
      <path id="Path-32" data-name="Path" d="M.382,0,0,1.786" transform="translate(96.855 111.961)" fill="none" stroke="#263238" stroke-linecap="round" stroke-linejoin="round" stroke-miterlimit="10" stroke-width="0.5"/>
      <path id="Path-33" data-name="Path" d="M8.973,0,0,42.175" transform="translate(97.82 67.046)" fill="none" stroke="#263238" stroke-linecap="round" stroke-linejoin="round" stroke-miterlimit="10" stroke-width="0.5"/>
      <path id="Path-34" data-name="Path" d="M1.072,0,0,5.043" transform="translate(107.369 59.293)" fill="none" stroke="#263238" stroke-linecap="round" stroke-linejoin="round" stroke-miterlimit="10" stroke-width="0.5"/>
      <path id="Path-35" data-name="Path" d="M5.13,0,0,24.662" transform="translate(99.582 84.33)" fill="none" stroke="#263238" stroke-linecap="round" stroke-linejoin="round" stroke-miterlimit="10" stroke-width="0.5"/>
      <path id="Path-36" data-name="Path" d="M4.6,0,0,22.1" transform="translate(105.253 59.63)" fill="none" stroke="#263238" stroke-linecap="round" stroke-linejoin="round" stroke-miterlimit="10" stroke-width="0.5"/>
      <path id="Path-37" data-name="Path" d="M1.655,5.137l-.912.139L0,.441.912.3l.319,2.081,1.041-.16L1.953.142,2.886,0l.739,4.835-.93.142L2.38,2.9l-1.041.156Z" transform="translate(5.772 51.055)" fill="#adc7f7"/>
      <path id="Shape-10" data-name="Shape" d="M.187.2,1.526,0,3.2,4.694l-.922.142-.291-.854L.86,4.152l-.021.9L0,5.182Z" transform="translate(9.816 50.642)" fill="#adc7f7"/>
      <path id="Path-38" data-name="Path" d="M0,.139.916,0,1.55,4.162l1.5-.229.108.694L.732,5Z" transform="translate(12.692 50.296)" fill="#adc7f7"/>
      <path id="Path-39" data-name="Path" d="M1.242,2.376,2.421,2.2l.1.694-1.179.18.309,2-.916.139L0,.371,2.428,0l.108.694L1.03.926Z" transform="translate(15.508 49.654)" fill="#adc7f7"/>
      <path id="Shape-11" data-name="Shape" d="M0,.213,1.183.033c.8-.142,1.253.18,1.356.85l.084.552c.1.694-.233,1.11-1.041,1.231L1.2,2.725,1.446,4.32l-.8.125Z" transform="translate(6.688 57.019)" fill="#adc7f7"/>
      <path id="Shape-12" data-name="Shape" d="M0,.215,1.211.032C2.043-.1,2.449.17,2.55.825l.052.347a.826.826,0,0,1-.4.936c.423.076.6.372.67.815l.1.655a1.078,1.078,0,0,0,.167.5L2.327,4.2a1.193,1.193,0,0,1-.152-.509l-.1-.67c-.063-.392-.243-.514-.608-.458l-.277.041.264,1.734-.8.122Z" transform="translate(9.438 56.581)" fill="#adc7f7"/>
      <path id="Path-40" data-name="Path" d="M0,.125.8,0l.652,4.249-.8.121Z" transform="translate(12.373 56.22)" fill="#adc7f7"/>
      <path id="Path-41" data-name="Path" d="M2.679,2.553l.087.562c.1.694-.246,1.131-1.041,1.252S.47,4.162.366,3.482L.019,1.273C-.089.579.262.142,1.06.024s1.256.2,1.36.885l.062.413-.756.114L1.656.981a.421.421,0,1,0-.832.128L1.171,3.4A.421.421,0,1,0,2,3.274l-.094-.607Z" transform="translate(13.814 55.887)" fill="#adc7f7"/>
      <path id="Path-42" data-name="Path" d="M1.079,2l1.1-.17.094.607-1.1.17L1.36,3.854l1.387-.212.094.607L.652,4.6,0,.347,2.189,0l.094.607L.895.822Z" transform="translate(16.573 55.363)" fill="#adc7f7"/>
      <path id="Path-43" data-name="Path" d="M0,4.461,14.1,2.369,13.857,0" transform="translate(11.169 60.48)" fill="none" stroke="#263238" stroke-linecap="round" stroke-linejoin="round" stroke-miterlimit="10" stroke-width="0.5"/>
      <path id="Path-44" data-name="Path" d="M0,0,2.314,12.345,7.322,11.6" transform="translate(1.061 53.754)" fill="none" stroke="#263238" stroke-linecap="round" stroke-linejoin="round" stroke-miterlimit="10" stroke-width="0.5"/>
      <path id="Path-45" data-name="Path" d="M24.582,12.962,23.216,0,0,3.743.493,6.372" transform="translate(0.246 45.655)" fill="none" stroke="#263238" stroke-linecap="round" stroke-linejoin="round" stroke-miterlimit="10" stroke-width="0.5"/>
      <path id="Path-46" data-name="Path" d="M.017,0,.33,1.8" transform="translate(21.821 118.653)" fill="none" stroke="#263238" stroke-linecap="round" stroke-linejoin="round" stroke-miterlimit="10" stroke-width="0.5"/>
      <path id="Path-47" data-name="Path" d="M0,0,7.4,42.481" transform="translate(13.954 73.411)" fill="none" stroke="#263238" stroke-linecap="round" stroke-linejoin="round" stroke-miterlimit="10" stroke-width="0.5"/>
      <path id="Path-48" data-name="Path" d="M0,0,.885,5.078" transform="translate(12.591 65.603)" fill="none" stroke="#263238" stroke-linecap="round" stroke-linejoin="round" stroke-miterlimit="10" stroke-width="0.5"/>
      <path id="Path-49" data-name="Path" d="M0,0,4.44,24.8" transform="translate(18.467 90.223)" fill="none" stroke="#263238" stroke-linecap="round" stroke-linejoin="round" stroke-miterlimit="10" stroke-width="0.5"/>
      <path id="Path-50" data-name="Path" d="M0,0,3.975,22.22" transform="translate(14.024 65.388)" fill="none" stroke="#263238" stroke-linecap="round" stroke-linejoin="round" stroke-miterlimit="10" stroke-width="0.5"/>
    </g>
    <g id="freepik--character-1--inject-313" transform="translate(0.694 92.96)">
      <path id="Path-51" data-name="Path" d="M4.615,14.145A19.424,19.424,0,0,0,4.4,16.414c.069.905.274,8.224.274,8.224l-.274.288c-.274.288-.756-.454-.756-.454s0-.451-1.346-6.913c-.378-1.811-.975-3.927-1.464-5.973a27.323,27.323,0,0,1-.826-4.9A7.791,7.791,0,0,1,1.049,2.175L5.354,0s.621.829,1.041,1.342-.839,6.14-.839,6.14S4.952,11.478,4.615,14.145Z" transform="translate(15.017 14.776)" fill="#adc7f7" stroke="#263238" stroke-linecap="round" stroke-linejoin="round" stroke-miterlimit="10" stroke-width="0.5"/>
      <path id="Path-52" data-name="Path" d="M3.84,13.053l-.274.288c-.274.288-.756-.454-.756-.454s0-.451-1.346-6.913C1.086,4.162.489,2.047,0,0A13.875,13.875,0,0,0,3.781,2.56a19.424,19.424,0,0,0-.215,2.269C3.635,5.734,3.84,13.053,3.84,13.053Z" transform="translate(15.852 26.362)" fill="#263238"/>
      <path id="Path-53" data-name="Path" d="M2.428,0C1.894.135,0,6.753,0,6.753s.652,1.12.721,1.041S3.285,2.671,3.285,2.671Z" transform="translate(11.724 9.161)" fill="#fff" stroke="#263238" stroke-linecap="round" stroke-linejoin="round" stroke-miterlimit="10" stroke-width="0.5"/>
      <path id="Path-54" data-name="Path" d="M7.943,1.238a4.308,4.308,0,0,0,2.206,2.05c.586.3-.125,1.7.378,2.588s1.807.118,1.807.118S12.22,8.026,10.641,8a.728.728,0,0,0,.642.368s-3.816,2.31-7.548.663A3.771,3.771,0,0,1,1.7,3.829,3.851,3.851,0,0,0,.659,6.757S-1.2,4.148,1.321,2.941,4.124-.181,5.3.014A8.262,8.262,0,0,1,7.943,1.238Z" transform="translate(12.068 1.315)" fill="#263238"/>
      <path id="Path-55" data-name="Path" d="M3.132.079S2.654,2,3,2.618s-3,.8-3,.8a2.3,2.3,0,0,0,.756-2.4C.277-.4,3.132.079,3.132.079Z" transform="translate(15.918 5.304)" fill="#fff" stroke="#263238" stroke-linecap="round" stroke-linejoin="round" stroke-miterlimit="10" stroke-width="0.5"/>
      <path id="Path-56" data-name="Path" d="M1.174,0A14.489,14.489,0,0,1,1.5,1.883c0,.458-.045,2.38-.961,1.831S.151.052.151.052Z" transform="translate(18.51 39.196)" fill="#263238"/>
      <path id="Path-57" data-name="Path" d="M.817.182A6.911,6.911,0,0,1,1.556,2.9C1.417,3.8.047,3.817,0,1.542S.817.182.817.182Z" transform="translate(20.689 25.441)" fill="#757575" stroke="#263238" stroke-linecap="round" stroke-linejoin="round" stroke-miterlimit="10" stroke-width="0.5"/>
      <path id="Path-58" data-name="Path" d="M.017,1.757c.142-2.3,5.376-2.841,4.357,1.46S-.281,6.679.017,1.757Z" transform="translate(15.196 1.035)" fill="#fff" stroke="#263238" stroke-linecap="round" stroke-linejoin="round" stroke-miterlimit="10" stroke-width="0.5"/>
      <path id="Path-59" data-name="Path" d="M.936,1.916S6.011-.293,7.18.033s.808,7.5,0,8.3C5.522,9.977,2.546,9.974,2.546,9.974S-1.877,4.018.936,1.916Z" transform="translate(13.514 6.981)" fill="#757575" stroke="#263238" stroke-linecap="round" stroke-linejoin="round" stroke-miterlimit="10" stroke-width="0.5"/>
      <path id="Path-60" data-name="Path" d="M2.7,4.18C2.1,4,.729,5.914.729,5.914a28,28,0,0,0-.666,8.221c.565,1.283,1.422.635,2.6-.465S4.5,8.252,5.259,5.321,3.393,0,3.393,0" transform="translate(17.315 15.314)" fill="#adc7f7" stroke="#263238" stroke-linecap="round" stroke-linejoin="round" stroke-miterlimit="10" stroke-width="0.5"/>
      <path id="Path-61" data-name="Path" d="M0,0A3.256,3.256,0,0,0,1.648,1.134" transform="translate(16.396 20.097)" fill="#adc7f7" stroke="#263238" stroke-linecap="round" stroke-linejoin="round" stroke-miterlimit="10" stroke-width="0.5"/>
      <path id="Path-62" data-name="Path" d="M6.081,2.115c-.975-.5-1.967,1.19-3.75,2.289S0,4.13,0,4.13s.912.18,1.041-.229A3.617,3.617,0,0,1,3.469.575c2.539-1.065,3.625-.4,3.9,0A4.093,4.093,0,0,1,8.19,2.413c.274,1.165.874,2.508.274,2.428C6.448,4.515,6.081,2.115,6.081,2.115Z" transform="translate(12.168 0.136)" fill="#263238"/>
      <path id="Path-63" data-name="Path" d="M.714,0c.527.024,3.694,4.953,3.694,4.953L3.815,6.122.714,3.045S-.14,2.168.02,1.495A6.178,6.178,0,0,1,.714,0Z" transform="translate(19.994 7.014)" fill="#fff" stroke="#263238" stroke-linecap="round" stroke-linejoin="round" stroke-miterlimit="10" stroke-width="0.5"/>
      <path id="Path-64" data-name="Path" d="M0,2.934,1.426,8.117l.1,1.651L6.292,8.453,8.179,6.608l-.957-.867L4.759,0,.506,1.658,0,2.934Z" transform="translate(22.113 12.258)" fill="#263238"/>
      <path id="Path-65" data-name="Path" d="M.551,2.645S-.587,1.213.408.234s2.04,1.422,2.04,1.422" transform="translate(22.925 11.406)" fill="none" stroke="#263238" stroke-linecap="round" stroke-linejoin="round" stroke-miterlimit="10" stroke-width="0.5"/>
      <path id="Path-66" data-name="Path" d="M0,3.881,2.494,8.644l.447,1.592,4.384-2.3L8.772,5.73,7.655,5.085,4.027,0,.222,2.529,0,3.881Z" transform="translate(23.455 10.905)" fill="#757575" stroke="#263238" stroke-linecap="round" stroke-linejoin="round" stroke-miterlimit="10" stroke-width="0.5"/>
      <path id="Path-67" data-name="Path" d="M.879,2.674S-.539,1.515.227.35s2.3.954,2.3.954" transform="translate(23.665 10.708)" fill="none" stroke="#263238" stroke-linecap="round" stroke-linejoin="round" stroke-miterlimit="10" stroke-width="0.5"/>
      <path id="Path-68" data-name="Path" d="M5.033,0,.364,2.105,0,3.167" transform="translate(27.194 16.636)" fill="none" stroke="#263238" stroke-linecap="round" stroke-linejoin="round" stroke-miterlimit="10" stroke-width="0.5"/>
      <path id="Path-69" data-name="Path" d="M3.156,4.461,2.38,3.75,0,0" transform="translate(24.402 14.28)" fill="none" stroke="#263238" stroke-linecap="round" stroke-linejoin="round" stroke-miterlimit="10" stroke-width="0.5"/>
      <path id="Path-70" data-name="Path" d="M7.933,2.629l-1.1,5.262.007,1.655L2,8.533,0,6.809l.9-.926L3,0l4.35,1.387.586,1.242Z" transform="translate(6.198 15.325)" fill="#757575" stroke="#263238" stroke-linecap="round" stroke-linejoin="round" stroke-miterlimit="10" stroke-width="0.5"/>
      <path id="Path-71" data-name="Path" d="M1.946,2.635s1.041-1.5,0-2.428S0,1.768,0,1.768" transform="translate(10.753 14.265)" fill="none" stroke="#263238" stroke-linecap="round" stroke-linejoin="round" stroke-miterlimit="10" stroke-width="0.5"/>
      <path id="Path-72" data-name="Path" d="M0,0,5.1.947l.777,1.079" transform="translate(6.198 22.134)" fill="none" stroke="#263238" stroke-linecap="round" stroke-linejoin="round" stroke-miterlimit="10" stroke-width="0.5"/>
      <path id="Path-73" data-name="Path" d="M0,5.206.458,4.3,1.859,0" transform="translate(11.301 17.874)" fill="none" stroke="#263238" stroke-linecap="round" stroke-linejoin="round" stroke-miterlimit="10" stroke-width="0.5"/>
      <path id="Path-74" data-name="Path" d="M8.64,3.618,6.452,8.529,6.1,10.146,1.585,8.127,0,6.015,1.079,5.3,4.381,0,8.335,2.282,8.64,3.618Z" transform="translate(4.124 14.013)" fill="#adc7f7" stroke="#263238" stroke-linecap="round" stroke-linejoin="round" stroke-miterlimit="10" stroke-width="0.5"/>
      <path id="Path-75" data-name="Path" d="M1.727,2.677S3.07,1.431,2.23.315,0,1.414,0,1.414" transform="translate(9.865 13.626)" fill="none" stroke="#263238" stroke-linecap="round" stroke-linejoin="round" stroke-miterlimit="10" stroke-width="0.5"/>
      <path id="Path-76" data-name="Path" d="M0,0,4.572,1.825,5.3,3.052" transform="translate(4.124 20.028)" fill="none" stroke="#263238" stroke-linecap="round" stroke-linejoin="round" stroke-miterlimit="10" stroke-width="0.5"/>
      <path id="Path-77" data-name="Path" d="M0,4.617.732,3.75,2.834,0" transform="translate(8.696 17.236)" fill="none" stroke="#263238" stroke-linecap="round" stroke-linejoin="round" stroke-miterlimit="10" stroke-width="0.5"/>
      <path id="Path-78" data-name="Path" d="M8.342,5.463,3.621,8.033,2.362,9.109,0,4.759l.021-2.64,1.29.09L7.152,0,8.911,4.214,8.342,5.463Z" transform="translate(0.059 8.828)" fill="#bfbfbf" stroke="#263238" stroke-linecap="round" stroke-linejoin="round" stroke-miterlimit="10" stroke-width="0.5"/>
      <path id="Path-79" data-name="Path" d="M.593,2.348S2.418,2.175,2.428.777,0,.295,0,.295" transform="translate(7.683 10.17)" fill="none" stroke="#263238" stroke-linecap="round" stroke-linejoin="round" stroke-miterlimit="10" stroke-width="0.5"/>
      <path id="Path-80" data-name="Path" d="M0,0,2.525,4.225,2.359,5.647" transform="translate(0.08 10.947)" fill="none" stroke="#263238" stroke-linecap="round" stroke-linejoin="round" stroke-miterlimit="10" stroke-width="0.5"/>
      <path id="Path-81" data-name="Path" d="M0,1.946,1.11,1.7,5.057,0" transform="translate(2.605 13.226)" fill="none" stroke="#263238" stroke-linecap="round" stroke-linejoin="round" stroke-miterlimit="10" stroke-width="0.5"/>
      <path id="Path-82" data-name="Path" d="M3.011,2.081,1.065,0,0,.215S1.148,3.489,2.4,3.871,3.011,2.081,3.011,2.081Z" transform="translate(9.331 12.057)" fill="#fff" stroke="#263238" stroke-linecap="round" stroke-linejoin="round" stroke-miterlimit="10" stroke-width="0.5"/>
      <path id="Path-83" data-name="Path" d="M.2,2.7C.394,2.348,1.695,0,1.695,0l.989.125S1.695,5.03.29,4.412A1.63,1.63,0,0,1,.2,2.7Z" transform="translate(23.519 8.724)" fill="#fff" stroke="#263238" stroke-linecap="round" stroke-linejoin="round" stroke-miterlimit="10" stroke-width="0.5"/>
      <path id="Path-84" data-name="Path" d="M.847,3.027A3.789,3.789,0,0,1,.022,1C.157.793.955-.1,1.038.009l.368.468s.163-.5.347-.229.4,2.161-.08,2.4" transform="translate(8.757 9.703)" fill="#fff" stroke="#263238" stroke-linecap="round" stroke-linejoin="round" stroke-miterlimit="10" stroke-width="0.5"/>
      <path id="Path-85" data-name="Path" d="M.832,0A3.045,3.045,0,0,1,1.1,1.172c-.052.451-.715.888-1.1.982" transform="translate(9.331 10.174)" fill="none" stroke="#263238" stroke-linecap="round" stroke-linejoin="round" stroke-miterlimit="10" stroke-width="0.5"/>
      <path id="Path-86" data-name="Path" d="M.569,5.46,5.29,8.03,6.545,9.105,8.908,4.759l-.021-2.64L7.6,2.206,1.755,0,0,4.214.569,5.46Z" transform="translate(26.619 5.619)" fill="#adc7f7" stroke="#263238" stroke-linecap="round" stroke-linejoin="round" stroke-miterlimit="10" stroke-width="0.5"/>
      <path id="Path-87" data-name="Path" d="M1.835,2.343S.014,2.17,0,.775,2.428.293,2.428.293" transform="translate(25.474 6.963)" fill="none" stroke="#263238" stroke-linecap="round" stroke-linejoin="round" stroke-miterlimit="10" stroke-width="0.5"/>
      <path id="Path-88" data-name="Path" d="M2.522,0,0,4.225.163,5.644" transform="translate(32.984 7.739)" fill="none" stroke="#263238" stroke-linecap="round" stroke-linejoin="round" stroke-miterlimit="10" stroke-width="0.5"/>
      <path id="Path-89" data-name="Path" d="M5.057,1.949,3.947,1.7,0,0" transform="translate(27.926 10.014)" fill="none" stroke="#263238" stroke-linecap="round" stroke-linejoin="round" stroke-miterlimit="10" stroke-width="0.5"/>
      <path id="Path-90" data-name="Path" d="M1.118,3.03a3.723,3.723,0,0,0,.826-2.022C1.8.8,1.017-.1.93.008S.559.473.559.473.4-.026.212.248s-.4,2.158.08,2.4" transform="translate(24.863 6.488)" fill="#fff" stroke="#263238" stroke-linecap="round" stroke-linejoin="round" stroke-miterlimit="10" stroke-width="0.5"/>
      <path id="Path-91" data-name="Path" d="M.264,0A3,3,0,0,0,0,1.172c.052.454.694.888,1.1.985" transform="translate(25.158 6.962)" fill="none" stroke="#263238" stroke-linecap="round" stroke-linejoin="round" stroke-miterlimit="10" stroke-width="0.5"/>
    </g>
    <g id="freepik--character-3--inject-313" transform="translate(115.506 82.554)">
      <path id="Path-92" data-name="Path" d="M.627.131A4.9,4.9,0,0,0,.079,2.108c0,.961-.309,1.613.291,1.7s1.561.16,1.561-.114V3S2.41.415,1.932.127A1.875,1.875,0,0,0,.627.131Z" transform="translate(1.922 49.537)" fill="#fff" stroke="#263238" stroke-linecap="round" stroke-linejoin="round" stroke-miterlimit="10" stroke-width="0.5"/>
      <path id="Path-93" data-name="Path" d="M8.541,0s.409,8.828-.368,11.343-6.129,9.834-6.129,9.834-.274,1.1-1.006,1.006a1.276,1.276,0,0,1-.961-1.6c.277-.5,1.041-2.06,1.041-2.06S4.045,11.95,4.5,11.051,2.81,5.994,2.81,5.994L1.721,3.115,1.676.229Z" transform="translate(2.337 28.363)" fill="#999" stroke="#263238" stroke-linecap="round" stroke-linejoin="round" stroke-miterlimit="10" stroke-width="0.5"/>
      <path id="Path-94" data-name="Path" d="M.555,0,0,1.757a22.5,22.5,0,0,0,.777,2.13c.347.721,1.505,1.127,1.679.586A11.963,11.963,0,0,0,2.2,1.639S2.827.328,2.38.151A7.731,7.731,0,0,0,.555,0Z" transform="translate(8.727 42.632)" fill="#fff" stroke="#263238" stroke-linecap="round" stroke-linejoin="round" stroke-miterlimit="10" stroke-width="0.5"/>
      <path id="Path-95" data-name="Path" d="M2.451.019C.987.365-.324.782.071,3.987a2.735,2.735,0,0,0,.95,1.946h0a1.346,1.346,0,0,1,0,1.325c-.4.694,2.758.409,2.758.409a1.664,1.664,0,0,1,0-1.623h0a3.254,3.254,0,0,0,1.11-.694C5.7,4.459,3.915-.335,2.451.019Z" transform="translate(2.294 10.082)" fill="#fff" stroke="#263238" stroke-linecap="round" stroke-linejoin="round" stroke-miterlimit="10" stroke-width="0.5"/>
      <path id="Path-96" data-name="Path" d="M.95,2.3S.794,1.373.176,1.1s1.648.135,1.648,0A10.441,10.441,0,0,0,1.477.006S2.712-.122,3.055.78s.694-.33.961-.246.368,1.131.368,1.131l.638-.513s1.1,2.182.552,2.987A3.867,3.867,0,0,0,3.492,2.944a2.21,2.21,0,0,0-1.557.388L2.011,5.3s-.191-.916-.652-.326c-.26.347.187,1.769.187,1.769A2.094,2.094,0,0,1,.069,5.053,3.238,3.238,0,0,1,.95,2.3Z" transform="translate(1.343 8.419)" fill="#263238"/>
      <path id="Path-97" data-name="Path" d="M.443,1.218C.9.247,6.2-.169,8.4.063s3.066,14,3.066,14-.437-1.041-3.018-.829A13.465,13.465,0,0,0,3.537,14.7l-.548-4.606S.214,4.153.061,3.48A3.24,3.24,0,0,1,.443,1.218Z" transform="translate(0.279 16.864)" fill="#263238"/>
      <path id="Path-98" data-name="Path" d="M0,.635A3.249,3.249,0,0,0,2.112.721C3.091.343,2.459,0,2.459,0S.43.878,0,.635Z" transform="translate(4.006 15.297)" fill="#263238"/>
      <path id="Path-99" data-name="Path" d="M0,.8,5.29,0l7.152,1.45V2.66l-6.771.42L0,2.633l0-1.55" transform="translate(5.987 0.111)" fill="#999" stroke="#263238" stroke-linecap="round" stroke-linejoin="round" stroke-miterlimit="10" stroke-width="0.5"/>
      <path id="Path-100" data-name="Path" d="M.867,0,5.574.291l5.807,2.549-.69,2.823-5.8-.919L0,3.555.867,0Z" transform="translate(6.858 2.681)" fill="#999" stroke="#263238" stroke-linecap="round" stroke-linejoin="round" stroke-miterlimit="10" stroke-width="0.5"/>
      <path id="Path-101" data-name="Path" d="M.444,0,0,1.828" transform="translate(11.988 2.973)" fill="#757575" stroke="#263238" stroke-linecap="round" stroke-linejoin="round" stroke-miterlimit="10" stroke-width="0.5"/>
      <path id="Path-102" data-name="Path" d="M0,1.093,5.616,0,11.4.642" transform="translate(5.987 1.651)" fill="#999" stroke="#263238" stroke-linecap="round" stroke-linejoin="round" stroke-miterlimit="10" stroke-width="0.5"/>
      <path id="Path-103" data-name="Path" d="M0,.725,4.832,0l5.22,2" transform="translate(6.858 5.512)" fill="#999" stroke="#263238" stroke-linecap="round" stroke-linejoin="round" stroke-miterlimit="10" stroke-width="0.5"/>
      <path id="Path-104" data-name="Path" d="M0,3.344l3.476.347h8.855V1.724L4.575,0,0,2.008V3.344Z" transform="translate(6.022 6.112)" fill="#adc7f7" stroke="#263238" stroke-linecap="round" stroke-linejoin="round" stroke-miterlimit="10" stroke-width="0.5"/>
      <path id="Path-105" data-name="Path" d="M0,1.242l.742,4.1H10.985V.916L4.218,0,0,1.242Z" transform="translate(6.837 7.836)" fill="#adc7f7" stroke="#263238" stroke-linecap="round" stroke-linejoin="round" stroke-miterlimit="10" stroke-width="0.5"/>
      <path id="Path-106" data-name="Path" d="M0,0,.3,4.253l5.557.715" transform="translate(11.055 7.836)" fill="#adc7f7" stroke="#263238" stroke-linecap="round" stroke-linejoin="round" stroke-miterlimit="10" stroke-width="0.5"/>
      <path id="Path-107" data-name="Path" d="M.173.7V0" transform="translate(10.493 6.459)" fill="#adc7f7" stroke="#263238" stroke-linecap="round" stroke-linejoin="round" stroke-miterlimit="10" stroke-width="0.5"/>
      <path id="Path-108" data-name="Path" d="M0,.812,5.283,0l7.156,1.433V2.643L5.671,3.08,0,2.643V1.089" transform="translate(5.383 12.366)" fill="#999" stroke="#263238" stroke-linecap="round" stroke-linejoin="round" stroke-miterlimit="10" stroke-width="0.5"/>
      <path id="Path-109" data-name="Path" d="M0,.829,4.645,0l6.244,1.1V4.01l-5.855.479H0V.829Z" transform="translate(6.022 13.906)" fill="#999" stroke="#263238" stroke-linecap="round" stroke-linejoin="round" stroke-miterlimit="10" stroke-width="0.5"/>
      <path id="Path-110" data-name="Path" d="M.208,2.952,0,.982,3.684,0l7.843,1.474V2.952l-5.761.6-5.557-.6Z" transform="translate(7.371 16.611)" fill="#757575" stroke="#263238" stroke-linecap="round" stroke-linejoin="round" stroke-miterlimit="10" stroke-width="0.5"/>
      <path id="Path-111" data-name="Path" d="M.482.617,3,0l7.284,1.224V4.773S3.372,5.009,3,5.009s-3-.236-3-.236Z" transform="translate(8.058 18.394)" fill="#757575" stroke="#263238" stroke-linecap="round" stroke-linejoin="round" stroke-miterlimit="10" stroke-width="0.5"/>
      <path id="Path-112" data-name="Path" d="M0,0V3.933l6.334.246" transform="translate(11.055 18.394)" fill="#757575" stroke="#263238" stroke-linecap="round" stroke-linejoin="round" stroke-miterlimit="10" stroke-width="0.5"/>
      <path id="Path-113" data-name="Path" d="M.173,0V1.883" transform="translate(10.493 13.906)" fill="#757575" stroke="#263238" stroke-linecap="round" stroke-linejoin="round" stroke-miterlimit="10" stroke-width="0.5"/>
      <path id="Path-114" data-name="Path" d="M0,3.344l3.476.347h8.852V1.724L4.572,0,0,2.008V3.344Z" transform="translate(6.237 22.078)" fill="#adc7f7" stroke="#263238" stroke-linecap="round" stroke-linejoin="round" stroke-miterlimit="10" stroke-width="0.5"/>
      <path id="Path-115" data-name="Path" d="M0,1.242l.742,4.1H10.989V.916L4.218,0,0,1.242Z" transform="translate(7.048 23.802)" fill="#adc7f7" stroke="#263238" stroke-linecap="round" stroke-linejoin="round" stroke-miterlimit="10" stroke-width="0.5"/>
      <path id="Path-116" data-name="Path" d="M0,0,.3,4.253l5.557.715" transform="translate(11.266 23.802)" fill="#adc7f7" stroke="#263238" stroke-linecap="round" stroke-linejoin="round" stroke-miterlimit="10" stroke-width="0.5"/>
      <path id="Path-117" data-name="Path" d="M.173.7V0" transform="translate(10.704 22.425)" fill="#adc7f7" stroke="#263238" stroke-linecap="round" stroke-linejoin="round" stroke-miterlimit="10" stroke-width="0.5"/>
      <path id="Path-118" data-name="Path" d="M0,2.571S.264-.031,1.936,0l2.1,3.965L8.894.843A6.206,6.206,0,0,1,11.2.434a.95.95,0,0,1,.59.628H11.2l.982.735s-.312.763-.982.694a8.758,8.758,0,0,0-1.668.069S4.679,6.109,4.041,6.667,0,2.571,0,2.571Z" transform="translate(1.346 19.091)" fill="#fff" stroke="#263238" stroke-linecap="round" stroke-linejoin="round" stroke-miterlimit="10" stroke-width="0.5"/>
      <path id="Path-119" data-name="Path" d="M.673.123s.812-.277.86,0S1.571,2.9,1.186,2.808-.107,2.725.01,2.461.673.123.673.123Z" transform="translate(17.364 26.96)" fill="#fff" stroke="#263238" stroke-linecap="round" stroke-linejoin="round" stroke-miterlimit="10" stroke-width="0.5"/>
      <path id="Path-120" data-name="Path" d="M.044,1.383s-.323,3.594.77,4.79S6.163,5.4,6.163,5.4l-.905,7.135a2.1,2.1,0,0,0,1.942.548C7.731,12.892,11.609,1.9,10.877.475s-8.238.8-8.238.8" transform="translate(4.024 30.095)" fill="#999" stroke="#263238" stroke-linecap="round" stroke-linejoin="round" stroke-miterlimit="10" stroke-width="0.5"/>
      <path id="Path-121" data-name="Path" d="M.357,1.831A2.01,2.01,0,0,1,.167,0" transform="translate(9.83 33.667)" fill="none" stroke="#263238" stroke-linecap="round" stroke-linejoin="round" stroke-miterlimit="10" stroke-width="0.5"/>
      <path id="Path-122" data-name="Path" d="M0,0A1.9,1.9,0,0,0,1.1,1.072" transform="translate(8.727 34.583)" fill="none" stroke="#263238" stroke-linecap="round" stroke-linejoin="round" stroke-miterlimit="10" stroke-width="0.5"/>
    </g>
    <g id="freepik--character-2--inject-313" transform="translate(28.79 18.037)">
      <path id="Shape-13" data-name="Shape" d="M6.525,22.909c-.327-.732-1.5-2.56-1.5-2.56,4.468.18,3.08-2.38,3.08-2.38.066,2.011-2.352,1.921-4.051,1.647a4.184,4.184,0,0,0-2.231,0C1.544,19.066,0,18.791,0,18.791c.594-1.105,2.28-.963,3.7-.822a10.464,10.464,0,0,0,1.506.09c1.373-.09.823-2.009.732-2.376s1.117-1.228,1.117-1.228a11.194,11.194,0,0,0-2.487.4c-.642.288.822,1.328.822,1.328l-1.335.347s-1.041-.212-.677-2.081,2.105-.787,5.151-1.734,2.258-3.992,2.959-6.647S16.143,1.965,19.612.644C24.551-1.244,26.8,1.5,27.791,2.78c2.883,3.736,4.582,3.291,4.582,3.291l1.235,1.616c-.992.309-2.119-.427-2.976-1.207a6.816,6.816,0,0,1,.555,1.7c.406,2.039-.853,4.731-1.526,5.98.191.357.447.492.795.292,1.828-1.044,2.831.676,3.839,1.408S36.4,14.452,36.4,14.452l1.786,1.134s-1.974,2.47-3.343,1.831a3.8,3.8,0,0,0-2.834,0c2.012-.365,2.561.913,4.208,2.1s3.018-.913,3.018-.913l.905,2.487s-3.194,1.186-4.932-.367-9.331-1.19-5.324-.916l.392.035c3.622.35,3.732,1.886,3.732,1.886l-2.733.826H29.886c-.292,0-7.67,3.278-10.486,3.278S6.851,23.64,6.525,22.909Z" transform="translate(24.763 2.416)" fill="#263238"/>
      <path id="Path-123" data-name="Path" d="M8.6,0S5.709,6.344,10.357,6.986c0,0-3.4,2.428-5.369,2.428S0,6.986,0,6.986,2.164,6.441,2.158,4.7A13.688,13.688,0,0,0,1.19.607Z" transform="translate(39.664 15.134)" fill="#fff" stroke="#263238" stroke-linecap="round" stroke-linejoin="round" stroke-miterlimit="10" stroke-width="0.5"/>
      <path id="Path-124" data-name="Path" d="M1.637.529S.943-.186.6.046A1.488,1.488,0,0,0,.034,1.555,18.272,18.272,0,0,1,1.1,3.841c.062.617.482,1.315.943.905S1.637.529,1.637.529Z" transform="translate(36.775 10.699)" fill="#fff" stroke="#263238" stroke-linecap="round" stroke-linejoin="round" stroke-miterlimit="10" stroke-width="0.5"/>
      <path id="Path-125" data-name="Path" d="M.541.529S1.235-.186,1.582.046a1.488,1.488,0,0,1,.562,1.509A18.272,18.272,0,0,0,1.079,3.841C1.016,4.459.6,5.156.135,4.747S.541.529.541.529Z" transform="translate(50.355 10.699)" fill="#fff" stroke="#263238" stroke-linecap="round" stroke-linejoin="round" stroke-miterlimit="10" stroke-width="0.5"/>
      <path id="Path-126" data-name="Path" d="M6.37,0c-8.81,0-6.427,10.652-4.8,14.419.569,1.325,3.441,2.407,4.856,2.407,1.328,0,3.92-.975,4.457-2.216C12.53,10.822,14.771,0,6.37,0Z" transform="translate(38.431 2.116)" fill="#fff" stroke="#263238" stroke-linecap="round" stroke-linejoin="round" stroke-miterlimit="10" stroke-width="0.5"/>
      <path id="Path-127" data-name="Path" d="M3,.173S.708-.52,0,.867" transform="translate(40.306 8.498)" fill="none" stroke="#263238" stroke-linecap="round" stroke-linejoin="round" stroke-miterlimit="10" stroke-width="0.5"/>
      <ellipse id="Oval" cx="0.309" cy="0.489" rx="0.309" ry="0.489" transform="translate(41.607 10.108)" fill="#263238"/>
      <path id="Path-128" data-name="Path" d="M0,.173S2.3-.52,3,.867" transform="translate(45.998 8.498)" fill="none" stroke="#263238" stroke-linecap="round" stroke-linejoin="round" stroke-miterlimit="10" stroke-width="0.5"/>
      <path id="Path-129" data-name="Path" d="M.614.489C.614.76.479.978.309.978S0,.76,0,.489.139,0,.309,0,.614.219.614.489Z" transform="translate(47.084 10.108)" fill="#263238"/>
      <path id="Path-130" data-name="Path" d="M.579,0c-.3.51.645,2.053.3,2.31A1.707,1.707,0,0,1,0,2.567" transform="translate(44.652 10.222)" fill="#fff" stroke="#263238" stroke-linecap="round" stroke-linejoin="round" stroke-miterlimit="10" stroke-width="0.5"/>
      <path id="Path-131" data-name="Path" d="M4.093,0A6.788,6.788,0,0,1,0,0S-.021,1.415,1.141,1.734C2.622,2.171,3.923,1.772,4.093,0Z" transform="translate(42.817 13.836)" fill="#fff" stroke="#263238" stroke-linecap="round" stroke-linejoin="round" stroke-miterlimit="10" stroke-width="0.5"/>
      <path id="Path-132" data-name="Path" d="M6.6,0C-2.674,0,.538,10.753.538,10.753c0-1.578.819-3.156.614-3.868a7.7,7.7,0,0,1,.392-2.667A9.712,9.712,0,0,1,6.6,2.654,8.949,8.949,0,0,1,11.52,4.218a7.636,7.636,0,0,1,.392,2.667c-.208.708.614,2.289.617,3.868C12.529,10.763,15.88,0,6.6,0Z" transform="translate(38.051 1.592)" fill="#263238"/>
      <path id="Path-133" data-name="Path" d="M16.722,4.346a3.354,3.354,0,0,0-2.629-1.287s-.139-.083-.326-.18A2.435,2.435,0,0,0,11.832,2c-2.428-.166-2.22-1-2.314-1.224S10.011,0,10.011,0H9.247c-1.041,0-.937,1.474-.937,1.474A6.843,6.843,0,0,0,6.046.687a1.87,1.87,0,0,0-1.283.787A8.984,8.984,0,0,1,7.371,2.515a8.033,8.033,0,0,0-3.614,0C2.716,3.753,2.98,4.346,2.98,4.346a15.9,15.9,0,0,1,2.837-.413A8.942,8.942,0,0,0,0,9.247s.184,2.081.319,1.71A6.462,6.462,0,0,1,2.071,7.784,15.918,15.918,0,0,0,.6,13.961L1.235,15.2S2.393,7.548,6.112,5.571A5.231,5.231,0,0,0,5.2,7.6L6.677,7.25a3.276,3.276,0,0,1,2.775-2.4c.621-.073,1.2-.135,1.537-.17h.284a4.363,4.363,0,0,1-2.126.479l-.531.624a5.751,5.751,0,0,0,4.28-.943,4.43,4.43,0,0,1-.586.826l.916.239a1.981,1.981,0,0,0,.753-.957,4.2,4.2,0,0,1,2.744,2.543C17.572,9.941,17.583,5.841,16.722,4.346Z" transform="translate(33.299 0.118)" fill="#263238"/>
      <path id="Path-134" data-name="Path" d="M.482,3.465c.971-1.578,5.446-.694,6.181-1.929S9.688,0,10.648,0s9.133,1.578,9.133,1.578S28.106,0,28.942,0s3.594,2.4,3.594,2.4,5.078.621,5.7,1.065-.552,2.914-1.786,4.357S30.069,11.1,30.069,11.1L28.55,27.944H11.866L9.264,10.6S-2.491,8.3.482,3.465Z" transform="translate(25.082 21.069)" fill="#757575" stroke="#263238" stroke-linecap="round" stroke-linejoin="round" stroke-miterlimit="10" stroke-width="0.5"/>
      <path id="Path-135" data-name="Path" d="M1.42,2.766A2.137,2.137,0,0,1,0,.684C0-.956.986.868,2.346.868S5.3.782,5.634,1.087s1.8,2.57,2.109,2.983,1.5.961,1.36,1.328S3.279,5.388,1.42,2.766Z" transform="translate(25.91 25.136)" fill="#263238"/>
      <path id="Path-136" data-name="Path" d="M16.011,2.882S14.624,0,13.628,0H10.853S8.523,3.979,8.079,4.53s-2.522.957-3.2,1.714S0,17.132,0,17.132l4.877.957s6.528-6.7,6.528-7.933S16.011,2.882,16.011,2.882Z" transform="translate(17.045 26.358)" fill="#fff" stroke="#263238" stroke-linecap="round" stroke-linejoin="round" stroke-miterlimit="10" stroke-width="0.5"/>
      <path id="Path-137" data-name="Path" d="M.042,6.125c.569.673,3.979-.52,4.71-1.159S8.759,1.32,8.759.294s-1.328.968-2.622.968-2.9-.184-3.34.257S-.37,5.639.042,6.125Z" transform="translate(54.221 24.851)" fill="#263238"/>
      <path id="Path-138" data-name="Path" d="M0,2.882S1.387,0,2.383,0H5.158S7.489,3.979,7.933,4.53s2.518.957,3.2,1.714,4.877,10.888,4.877,10.888l-4.877.957s-6.525-6.7-6.525-7.933S0,2.882,0,2.882Z" transform="translate(55.558 26.358)" fill="#fff" stroke="#263238" stroke-linecap="round" stroke-linejoin="round" stroke-miterlimit="10" stroke-width="0.5"/>
      <path id="Path-139" data-name="Path" d="M.871,1.967c.312-.08.624-.153.94-.219l.042.579c-.312.066-.621.139-.93.219.052.593.114,1.186.18,1.779q-.347.094-.694.2C.229,3.177.094,1.818,0,.454Q.978.191,1.974,0c0,.177.017.347.024.531C1.589.607,1.183.7.777.794.808,1.186.839,1.578.871,1.967Z" transform="translate(37.912 26.844)" fill="#adc7f7"/>
      <path id="Shape-14" data-name="Shape" d="M0,.19C.378.124.756.068,1.138.02c.784-.1,1.128.163,1.134.739v.3a.842.842,0,0,1-.464.843c.374.094.5.389.513.822,0,.222,0,.445.018.663a1.258,1.258,0,0,0,.1.53c-.247.031-.486.066-.729.1a1.305,1.305,0,0,1-.09-.537L1.585,2.8c0-.385-.166-.513-.5-.464l-.253.038q.047.875.1,1.734c-.236.038-.469.08-.694.125Q.08,2.219,0,.19Z" transform="translate(40.264 26.578)" fill="#adc7f7"/>
      <path id="Path-140" data-name="Path" d="M0,.035C.253.035.506.007.76,0V4.024c-.236,0-.472.021-.694.038Q.021,2.05,0,.035Z" transform="translate(43.011 26.421)" fill="#adc7f7"/>
      <path id="Shape-15" data-name="Shape" d="M1.124,4.037c-.375,0-.75-.021-1.124,0C0,2.681.011,1.339.021,0c.4,0,.8,0,1.2.017C1.987.049,2.348.406,2.32,1,2.3,1.7,2.265,2.359,2.234,3.035a.942.942,0,0,1-1.11,1Z" transform="translate(44.312 26.41)" fill="#adc7f7"/>
      <path id="Shape-16" data-name="Shape" d="M1.755,4.194c0-.271-.031-.545-.049-.819-.292-.052-.586-.1-.881-.139l-.176.777C.43,3.985.215,3.957,0,3.937Q.437,1.96.961,0c.371.045.738.1,1.106.163q.288,2.091.382,4.176Q2.1,4.263,1.755,4.194Z" transform="translate(46.768 26.608)" fill="#adc7f7"/>
      <path id="Path-141" data-name="Path" d="M.694,2.81Q.413,1.422,0,0C.264.052.524.108.784.166q.229.937.4,1.873h0C1.415,1.505,1.655.975,1.9.447c.236.066.468.132.694.2C2.178,1.426,1.776,2.21,1.387,3c-.059.479-.121.957-.191,1.433C.968,4.364.735,4.3.5,4.239.59,3.763.638,3.288.694,2.81Z" transform="translate(49.359 26.868)" fill="#adc7f7"/>
      <path id="Path-142" data-name="Path" d="M0,.024.422,0V1.772L.006,1.8C0,1.207,0,.614,0,.024Z" transform="translate(42.919 23.84)" fill="#adc7f7"/>
      <path id="Path-143" data-name="Path" d="M0,.018C.434.018.867,0,1.3,0V.243H.86V1.769H.447V.24H.01Z" transform="translate(43.525 23.815)" fill="#adc7f7"/>
      <path id="Path-144" data-name="Path" d="M0,.257V0H.406V.229C.34.316.277.406.215.5H.045L.16.253Z" transform="translate(45.006 23.819)" fill="#adc7f7"/>
      <path id="Path-145" data-name="Path" d="M.659,0c.409.028.614.2.6.475V.53L.867.5V.436C.867.315.8.263.663.252S.455.287.451.408s.08.225.347.4c.347.229.447.388.444.593,0,.295-.229.444-.635.42s-.614-.2-.607-.5V1.217l.392.017v.128c0,.132.08.184.212.191s.215-.031.219-.163S.749,1.154.475.977C.129.752.021.606.028.408.035.127.25-.022.659,0Z" transform="translate(45.609 23.844)" fill="#adc7f7"/>
      <path id="Path-146" data-name="Path" d="M0,8.783a1.2,1.2,0,0,0,1.387-.718c.437-.975-1.1-3.9-.9-4.357A5.491,5.491,0,0,0,1,0" transform="translate(34.34 22.883)" fill="none" stroke="#263238" stroke-linecap="round" stroke-linejoin="round" stroke-miterlimit="10" stroke-width="0.5"/>
      <path id="Path-147" data-name="Path" d="M2.37,9.279C1.09,9.095.816,8.755.723,8.287s.5-4.634.274-4.818A10.028,10.028,0,0,1,.011,0" transform="translate(52.782 22.89)" fill="none" stroke="#263238" stroke-linecap="round" stroke-linejoin="round" stroke-miterlimit="10" stroke-width="0.5"/>
      <path id="Path-148" data-name="Path" d="M0,4.856C.489,4.534,6.885.694,9.976,0" transform="translate(38.433 32.893)" fill="none" stroke="#263238" stroke-linecap="round" stroke-linejoin="round" stroke-miterlimit="10" stroke-width="0.5"/>
      <path id="Path-149" data-name="Path" d="M0,.1A40.661,40.661,0,0,0,6.375.1" transform="translate(41.624 22.791)" fill="none" stroke="#263238" stroke-linecap="round" stroke-linejoin="round" stroke-miterlimit="10" stroke-width="0.5"/>
      <path id="Path-150" data-name="Path" d="M79.439,32.73c-1.918.694-3.7,8.509-3.9,13.115s-4.738,2.8-8.228,1.294-11.467,3.982-19.7,5.1-10.295-6.466-16.389-6.4-19.57.746-21.35-2,.274-6.59-.274-10.7-5.9-.961-8.512-5.109C-1.315,24.2.711,16.6,2.875,16.955a1.172,1.172,0,0,1,.548.264c2.327,1.932,9.6-2.064,9.2-5.2S31.221,0,31.221,0s26.5.392,26.948,2.473,9.06,5.3,13.025,5.644,4.544,10.905,5.272,11.793c.607.749,4.929,2.775,6.674,5.394h0a4.194,4.194,0,0,1,.694,1.651C84.382,30.379,81.364,32.047,79.439,32.73Z" transform="translate(0.021 48.516)" fill="#999" stroke="#263238" stroke-linecap="round" stroke-linejoin="round" stroke-miterlimit="10" stroke-width="0.5"/>
      <path id="Path-151" data-name="Path" d="M79.439,15.787c-1.918.694-3.7,8.509-3.9,13.115s-4.738,2.8-8.228,1.294-11.467,3.982-19.7,5.1-10.295-6.466-16.389-6.4-19.57.746-21.35-2,.274-6.59-.274-10.7-5.9-.961-8.512-5.109C-1.315,7.261.711-.342,2.875.012c.909,1.242,4.509,6.355,6.157,8.325,1.783,2.1,11.013-4.735,12.893-3.25S41.7,14.3,45.675,13.536,57.243,9.2,61.034,10.3s2.893,9.608,10.3,5.491,8.793-9.778,11.793-7.426h0a4.194,4.194,0,0,1,.694,1.651C84.382,13.436,81.364,15.1,79.439,15.787Z" transform="translate(0.021 65.459)" fill="#263238"/>
      <path id="Path-152" data-name="Path" d="M0,.968.656,13.5h3.1L6.483.982A10.541,10.541,0,0,0,3.316,0,25.6,25.6,0,0,0,0,.968Z" transform="translate(43.743 97.279)" fill="#fff" stroke="#263238" stroke-linecap="round" stroke-linejoin="round" stroke-miterlimit="10" stroke-width="0.5"/>
      <path id="Path-153" data-name="Path" d="M3.281,12.081A3.008,3.008,0,0,1,.808,10.44,12.9,12.9,0,0,0,.114,7.36c-.6-1.911,1.356-3.85,1.356-3.85a12.525,12.525,0,0,0,.274-2.081C1.745.683,3.857-.323,5.078.1A2.967,2.967,0,0,1,6.75,1.571a7.737,7.737,0,0,1,0,2.359A4.606,4.606,0,0,1,7.839,6.68c0,1.54-.427,1.755-1.176,2.827S5.324,12.171,3.281,12.081Z" transform="translate(41.947 105.233)" fill="#adc7f7" stroke="#263238" stroke-linecap="round" stroke-linejoin="round" stroke-miterlimit="10" stroke-width="0.5"/>
      <path id="Path-154" data-name="Path" d="M.514,5.56C.726,2.726-1.078,1.744,1.045.7s5.016-1.02,5.9.694S4.958,6.316,4.958,6.316a3.708,3.708,0,0,1-2.293.628A3.191,3.191,0,0,1,.514,5.56Z" transform="translate(42.431 110.051)" fill="#263238"/>
      <path id="Path-155" data-name="Path" d="M0,.694A4.052,4.052,0,0,1,2.869.084c1.4.371,1.953.4,2.428,1.041" transform="translate(43.424 108.048)" fill="none" stroke="#263238" stroke-linecap="round" stroke-linejoin="round" stroke-miterlimit="10" stroke-width="0.5"/>
      <path id="Path-156" data-name="Path" d="M0,.912A5.7,5.7,0,0,1,3.427.01,5.769,5.769,0,0,1,6,.7" transform="translate(42.866 109.371)" fill="none" stroke="#263238" stroke-linecap="round" stroke-linejoin="round" stroke-miterlimit="10" stroke-width="0.5"/>
      <path id="Path-157" data-name="Path" d="M.24,1.665S.507.246.032,0" transform="translate(44.506 105.753)" fill="none" stroke="#263238" stroke-linecap="round" stroke-linejoin="round" stroke-miterlimit="10" stroke-width="0.5"/>
      <path id="Path-158" data-name="Path" d="M0,1.679S.035-.3.607.038" transform="translate(47.59 106.058)" fill="none" stroke="#263238" stroke-linecap="round" stroke-linejoin="round" stroke-miterlimit="10" stroke-width="0.5"/>
      <path id="Path-159" data-name="Path" d="M0,.527A3.816,3.816,0,0,1,1.915,0a2.515,2.515,0,0,1,1.8.839" transform="translate(44.378 106.058)" fill="none" stroke="#263238" stroke-linecap="round" stroke-linejoin="round" stroke-miterlimit="10" stroke-width="0.5"/>
      <path id="Path-160" data-name="Path" d="M0,.253A9.518,9.518,0,0,1,2.019,0,3.531,3.531,0,0,1,3.874.624" transform="translate(44.219 106.897)" fill="none" stroke="#263238" stroke-linecap="round" stroke-linejoin="round" stroke-miterlimit="10" stroke-width="0.5"/>
      <path id="Path-161" data-name="Path" d="M0,.054A41.8,41.8,0,0,1,5.415.3" transform="translate(43.157 112.109)" fill="none" stroke="#fff" stroke-linecap="round" stroke-linejoin="round" stroke-miterlimit="10" stroke-width="0.5" opacity="0.2"/>
      <path id="Path-162" data-name="Path" d="M0,.046a31.516,31.516,0,0,1,4.88.26" transform="translate(43.317 113.505)" fill="none" stroke="#fff" stroke-linecap="round" stroke-linejoin="round" stroke-miterlimit="10" stroke-width="0.5" opacity="0.2"/>
      <path id="Path-163" data-name="Path" d="M0,.013S3.489.36,3.816.332" transform="translate(43.584 114.619)" fill="none" stroke="#fff" stroke-linecap="round" stroke-linejoin="round" stroke-miterlimit="10" stroke-width="0.5" opacity="0.2"/>
      <path id="Path-164" data-name="Path" d="M0,.055S1.814.291,2.428.291" transform="translate(43.875 115.774)" fill="none" stroke="#fff" stroke-linecap="round" stroke-linejoin="round" stroke-miterlimit="10" stroke-width="0.5" opacity="0.2"/>
      <path id="Path-165" data-name="Path" d="M0,0,3.3,9.365a8.937,8.937,0,0,1,.524,3.42c-.2,1.391-.049,4.214,1.582,4s.826-3.229,1.335-4.447a4.006,4.006,0,0,0-.524-3.42c-.423-.493-.121-4.672-.638-6.8S0,0,0,0Z" transform="translate(36.074 92.471)" fill="#263238"/>
      <path id="Path-166" data-name="Path" d="M44.5,35.495,48.62,0,0,.666.291,34.94l44.2.555Z" transform="translate(20.087 56.772)" fill="#adc7f7"/>
      <g id="Group" transform="translate(19.771 56.539)">
        <path id="Path-167" data-name="Path" d="M44.5,35.495,48.62,0,0,.666.291,34.94l44.2.555Z" transform="translate(0.316 0.232)" fill="rgba(0,0,0,0.7)" opacity="0.5"/>
        <path id="Path-168" data-name="Path" d="M.291,23.146l5.893,1.186V31.6H40.545l1.162-6.483h3.729L48.62,0,0,.666l.291,22.48Z" transform="translate(0.316 0.232)" fill="rgba(0,0,0,0.7)" opacity="0.4"/>
      </g>
      <path id="Path-169" data-name="Path" d="M44.5,35.495,48.62,0,0,.666.291,34.94l44.2.555Z" transform="translate(20.087 56.772)" fill="none" stroke="#263238" stroke-linecap="round" stroke-linejoin="round" stroke-miterlimit="10" stroke-width="0.5"/>
      <path id="Path-170" data-name="Path" d="M.007,4.855A4.505,4.505,0,0,1,3.823.162C7.985-.792,8.113,2.781,8.113,2.781" transform="translate(24.908 34.369)" fill="none" stroke="#263238" stroke-linecap="round" stroke-linejoin="round" stroke-miterlimit="10" stroke-width="0.694"/>
      <path id="Path-171" data-name="Path" d="M0,38.908l1.963-7.527L1.124,4.593,23.594,0,33.719,23.889l4.929,6.219-3.431,5.949L8.432,41.745,0,38.908Z" transform="translate(15.522 34.805)" fill="#adc7f7"/>
      <g id="Group-2" data-name="Group" transform="translate(15.262 34.687)">
        <path id="Path-172" data-name="Path" d="M38.648,30.108l-3.431,5.949L8.429,41.745,0,38.908l.038-.142,1.589-6.1.333-1.283-.028-.909L1.124,4.593,23.594,0,25.88,5.394l7.839,18.495,4.929,6.219Z" transform="translate(0.26 0.118)" fill="rgba(0,0,0,0.7)" opacity="0.3"/>
        <path id="Path-173" data-name="Path" d="M9.608.673,10.777.156l.885.926L12.921.871l.628,1.117,1.273.111.33,1.235,1.207.423.01,1.28,1.065.711-.309,1.242.853.954-.6,1.124.586,1.138-.867.94.291,1.245-1.075.694-.031,1.28-1.211.406L14.718,16l-1.273.094L12.8,17.2l-1.256-.229-.9.912-1.162-.534-1.1.659L7.4,17.2l-1.228.368-.76-1.03-1.276.052L3.649,15.4,2.4,15.13l-.173-1.266-1.145-.572.149-1.27-.964-.839L.725,9.99,0,8.939.742,7.9.3,6.7l.978-.826L1.148,4.6,2.3,4.044,2.49,2.782l1.252-.253.5-1.176,1.28.069L6.3.406,7.517.791,8.523,0,9.608.673Z" transform="translate(5.39 6.684)" fill="#263238"/>
        <path id="Path-174" data-name="Path" d="M1.688,1.3C1.587.823,1.4.729,1.133.785s-.4.232-.319.607l.073.347L.106,1.9.047,1.617A1.174,1.174,0,0,1,1,.039,1.177,1.177,0,0,1,2.507,1.1l.028.135a1.057,1.057,0,0,1-.347,1.193h0c.451.094.694.444.808.975l.087.413a1.174,1.174,0,0,1-.954,1.578A1.171,1.171,0,0,1,.623,4.333L.53,3.9l.78-.163.1.489c.076.375.274.482.534.427s.4-.215.305-.694l-.087-.409c-.1-.489-.305-.635-.694-.555L1.2,3.05,1.036,2.3l.323-.066c.309-.066.468-.239.378-.659Z" transform="translate(9.034 13.999)" fill="#fff"/>
        <path id="Shape-17" data-name="Shape" d="M.618,4.351.046,1.625A1.189,1.189,0,0,1,1.021.04,1.189,1.189,0,0,1,2.55,1.08l.572,2.73a1.189,1.189,0,0,1-.975,1.581,1.742,1.742,0,0,1-.358.04A1.174,1.174,0,0,1,.618,4.351Z" transform="translate(11.984 13.367)" fill="#fff"/>
        <path id="Shape-18" data-name="Shape" d="M2.724.1l.49-.1L2.242,5.685l-.485.1Zm1.2,5.135a.814.814,0,0,1-.545-.626L3.033,2.879a.815.815,0,1,1,1.592-.347l.347,1.735a.815.815,0,0,1-1.047.972ZM.914,3.858a.814.814,0,0,1-.548-.6L.019,1.523a.813.813,0,1,1,1.589-.347l.347,1.734a.813.813,0,0,1-1.041.948Z" transform="translate(14.896 12.383)" fill="#fff"/>
        <path id="Path-175" data-name="Path" d="M38.648,24.714l-3.431,5.949L8.429,36.352,0,33.514l.038-.142,7.371-1.544L1.627,27.271l.333-1.283-.028-.909,14.176-6.67L25.88,0l7.839,18.495,4.929,6.219Z" transform="translate(0.26 5.512)" fill="rgba(0,0,0,0.7)" opacity="0.2"/>
      </g>
      <path id="Path-176" data-name="Path" d="M0,38.908l1.963-7.527L1.124,4.593,23.594,0,33.719,23.889l4.929,6.219-3.431,5.949L8.432,41.745,0,38.908Z" transform="translate(15.522 34.805)" fill="none" stroke="#263238" stroke-linecap="round" stroke-linejoin="round" stroke-miterlimit="10" stroke-width="0.5"/>
      <path id="Path-177" data-name="Path" d="M0,8.439,37.132,0" transform="translate(15.522 65.273)" fill="#adc7f7" stroke="#263238" stroke-linecap="round" stroke-linejoin="round" stroke-miterlimit="10" stroke-width="0.5"/>
      <path id="Path-178" data-name="Path" d="M.723,7.329S-1.688,2.088,2.3.454,8.583,1.842,8.5,5.588" transform="translate(22.934 31.468)" fill="none" stroke="#263238" stroke-linecap="round" stroke-linejoin="round" stroke-miterlimit="10" stroke-width="0.694"/>
      <path id="Path-179" data-name="Path" d="M0,0,7.284.2l-2,1.825" transform="translate(18.828 73.643)" fill="none" stroke="#263238" stroke-linecap="round" stroke-linejoin="round" stroke-miterlimit="10" stroke-width="0.5"/>
      <path id="Path-180" data-name="Path" d="M0,7.062,19.761,3.032,23.407,0" transform="translate(27.697 66.498)" fill="none" stroke="#263238" stroke-linecap="round" stroke-linejoin="round" stroke-miterlimit="10" stroke-width="0.5"/>
      <path id="Path-181" data-name="Path" d="M0,0,2.352.7" transform="translate(47.458 69.533)" fill="#adc7f7" stroke="#263238" stroke-linecap="round" stroke-linejoin="round" stroke-miterlimit="10" stroke-width="0.5"/>
      <path id="Path-182" data-name="Path" d="M0,6.691,28.953,0" transform="translate(17.482 59.494)" fill="#adc7f7" stroke="#263238" stroke-linecap="round" stroke-linejoin="round" stroke-miterlimit="10" stroke-width="0.5"/>
      <path id="Path-183" data-name="Path" d="M0,2.275A4.512,4.512,0,0,1,5.73.349C9.747,1.765,7.947,4.859,7.947,4.859" transform="translate(58.919 37.199)" fill="none" stroke="#263238" stroke-linecap="round" stroke-linejoin="round" stroke-miterlimit="10" stroke-width="0.694"/>
      <path id="Path-184" data-name="Path" d="M0,28.367l5.692-5.3L19.341,0,40.771,8.169,36.515,33.76l.829,7.891L31.26,44.836,5.595,35.283,0,28.367Z" transform="translate(32.505 35.186)" fill="#adc7f7"/>
      <g id="Group-3" data-name="Group" transform="translate(32.259 35.033)">
        <path id="Path-185" data-name="Path" d="M37.684,26.736,36.515,33.76l.829,7.895L31.26,44.836,5.595,35.283.045,28.426,0,28.37l.035-.031L.291,28.1l5.4-5.033,2.66-4.5L19.341,0,40.226,7.961l.545.208L37.684,26.736Z" transform="translate(0.246 0.153)" fill="rgba(0,0,0,0.7)" opacity="0.2"/>
        <path id="Path-186" data-name="Path" d="M14.058,2.376l1.259.212.232,1.259,1.169.517-.09,1.276,1,.794-.4,1.211L18,8.665l-.69,1.075.5,1.176-.94.871.191,1.263-1.124.61-.132,1.27-1.242.312-.444,1.2-1.28-.007-.725,1.051-1.238-.326-.968.836-1.113-.624-1.145.569-.926-.881-1.252.267L4.794,16.24l-1.28-.052-.385-1.217L1.9,14.6l-.073-1.276L.739,12.664l.246-1.256L.09,10.5.642,9.345,0,8.238.822,7.26.479,6.029l1.037-.746L1.488,4.006l1.193-.465L2.969,2.3l1.273-.149.59-1.134L6.1,1.179l.853-.95L8.137.708,9.2,0l1.03.756L11.44.336l.808.989,1.273-.108.538,1.159Z" transform="translate(16.414 7.693)" fill="#263238"/>
        <path id="Path-187" data-name="Path" d="M1.052,3.6l-.184.461c-.139.347-.035.548.215.645s.458.031.6-.326l.434-1.1c.139-.347.038-.555-.212-.652s-.461-.024-.6.347l-.059.149L.5,2.841,1.781,0,3.862.815l-.281.711L2.194.989,1.673,2.14h0a.791.791,0,0,1,.822-.1c.576.225.711.749.42,1.481L2.478,4.638a1.173,1.173,0,0,1-1.665.794A1.17,1.17,0,0,1,.14,3.718L.3,3.3Z" transform="translate(19.832 12.588)" fill="#fff"/>
        <path id="Shape-19" data-name="Shape" d="M.831,5.235A1.194,1.194,0,0,1,.137,3.5L1.174.906A1.189,1.189,0,0,1,2.859.119a1.2,1.2,0,0,1,.694,1.734L2.513,4.448a1.211,1.211,0,0,1-1.12.9A1.545,1.545,0,0,1,.831,5.235Z" transform="translate(22.621 13.912)" fill="#fff"/>
        <path id="Shape-20" data-name="Shape" d="M2.1,5.873a.816.816,0,0,1-.08-.851l.645-1.641a.815.815,0,1,1,1.512.6L3.531,5.615A.815.815,0,0,1,2.1,5.873ZM0,5.109,3.934.891l.464.184L.464,5.289ZM.344,3.074a.814.814,0,0,1-.08-.851L.909.582a.815.815,0,1,1,1.512.593L1.776,2.816a.815.815,0,0,1-1.432.257Z" transform="translate(25.897 14.919)" fill="#fff"/>
        <path id="Path-188" data-name="Path" d="M36.515,25.8l.829,7.895L31.26,36.875,5.595,27.323,0,20.41l5.689-5.3,2.66-4.5L40.226,0l.545.208L36.515,25.8Z" transform="translate(0.246 8.113)" fill="rgba(0,0,0,0.7)" opacity="0.2"/>
        <path id="Path-189" data-name="Path" d="M36.508,9.459l.829,7.895-6.084,3.181L5.585,10.982.035,4.124V4.038C.014,3.819,0,3.691,0,3.691l.291.1L35.869,16.178,10.361,0,37.684,2.428Z" transform="translate(0.26 24.454)" fill="rgba(0,0,0,0.7)" opacity="0.2"/>
      </g>
      <path id="Path-190" data-name="Path" d="M0,28.367l5.692-5.3L19.341,0,40.771,8.169,36.515,33.76l.829,7.891L31.26,44.836,5.595,35.283,0,28.367Z" transform="translate(32.505 35.186)" fill="none" stroke="#263238" stroke-linecap="round" stroke-linejoin="round" stroke-miterlimit="10" stroke-width="0.5"/>
      <path id="Path-191" data-name="Path" d="M0,0,35.869,12.779" transform="translate(32.505 63.553)" fill="#adc7f7" stroke="#263238" stroke-linecap="round" stroke-linejoin="round" stroke-miterlimit="10" stroke-width="0.5"/>
      <path id="Path-192" data-name="Path" d="M0,5.026S.774-.69,5.012.07,9.567,4.62,7.5,7.725" transform="translate(58.086 33.41)" fill="none" stroke="#263238" stroke-linecap="round" stroke-linejoin="round" stroke-miterlimit="10" stroke-width="0.694"/>
      <path id="Path-193" data-name="Path" d="M0,0,6.035,4.072,3.368,4.54" transform="translate(35.335 65.27)" fill="none" stroke="#263238" stroke-linecap="round" stroke-linejoin="round" stroke-miterlimit="10" stroke-width="0.5"/>
      <path id="Path-194" data-name="Path" d="M0,0,18.842,7.191l4.7-.61" transform="translate(42.866 69.952)" fill="none" stroke="#263238" stroke-linecap="round" stroke-linejoin="round" stroke-miterlimit="10" stroke-width="0.5"/>
      <path id="Path-195" data-name="Path" d="M0,0,1.609,1.852" transform="translate(61.707 77.143)" fill="none" stroke="#263238" stroke-linecap="round" stroke-linejoin="round" stroke-miterlimit="10" stroke-width="0.5"/>
      <path id="Path-196" data-name="Path" d="M0,0,28.03,9.865" transform="translate(38.193 58.253)" fill="#adc7f7" stroke="#263238" stroke-linecap="round" stroke-linejoin="round" stroke-miterlimit="10" stroke-width="0.5"/>
      <path id="Path-197" data-name="Path" d="M0,3.975A4.509,4.509,0,0,1,4.561.01c4.253-.222,3.77,3.323,3.77,3.323" transform="translate(34.846 54.646)" fill="none" stroke="#263238" stroke-linecap="round" stroke-linejoin="round" stroke-miterlimit="10" stroke-width="0.694"/>
      <path id="Path-198" data-name="Path" d="M39.588,32.262l-4.412,5.262-27.364.957L0,34.225l.069-.149,3.167-6.923L7.055.624,29.983,0l2.279,9.882,3.548,15.4,3.764,6.951.014.028Z" transform="translate(19.615 56.716)" fill="#adc7f7"/>
      <g id="Group-4" data-name="Group" transform="translate(19.425 61.742)">
        <path id="Path-199" data-name="Path" d="M39.588.028,35.176,5.29,7.811,6.247,0,1.991l.069-.149L39.574,0l.014.028Z" transform="translate(0.191 27.208)" fill="rgba(0,0,0,0.7)" opacity="0.2"/>
        <path id="Path-200" data-name="Path" d="M11.086.864l1.242-.3.7,1.068,1.276.024.416,1.207,1.231.34.1,1.276,1.11.635-.219,1.259.916.891L17.34,8.432l.666,1.093-.8,1,.375,1.221-1.023.77.059,1.276-1.179.489-.264,1.252-1.266.18-.562,1.148-1.273-.142-.832.971-1.2-.451-1.048.732L7.95,17.239l-1.2.447-.832-.971-1.27.139-.565-1.148-1.263-.184-.26-1.252-1.183-.489.062-1.28L.42,11.734.794,10.51,0,9.511.666,8.422.142,7.256l.916-.891L.843,5.106l1.11-.635.1-1.273,1.235-.34L3.7,1.651l1.28-.021.7-1.068L6.93.86,7.877,0,9.008.6,10.139,0l.947.86Z" transform="translate(10.219 0.336)" fill="#263238"/>
        <path id="Path-201" data-name="Path" d="M2.529,0l.021.735L1.422,5.4l-.843.021L1.7.787.021.832,0,.066Z" transform="translate(13.951 6.892)" fill="#fff"/>
        <path id="Shape-21" data-name="Shape" d="M.07,4.163,0,1.389A1.2,1.2,0,0,1,1.246,0,1.189,1.189,0,0,1,2.561,1.319L2.63,4.094A1.2,1.2,0,0,1,1.385,5.482H1.319A1.186,1.186,0,0,1,.07,4.163Z" transform="translate(16.996 6.78)" fill="#fff"/>
        <path id="Shape-22" data-name="Shape" d="M.926,5.4,2.907,0h.5L1.422,5.4Zm2.247-.17a.812.812,0,0,1-.422-.694L2.709,2.775a.812.812,0,1,1,1.624-.038L4.374,4.5a.812.812,0,0,1-1.2.732ZM.045,2.653,0,.891A.812.812,0,0,1,1.624.853l.045,1.762a.812.812,0,0,1-.793.831H.856A.812.812,0,0,1,.045,2.653Z" transform="translate(20.049 6.74)" fill="#fff"/>
        <path id="Path-202" data-name="Path" d="M31.079,15.4,0,17.27,27.531,0l3.548,15.4Z" transform="translate(4.922 4.856)" fill="rgba(0,0,0,0.7)" opacity="0.2"/>
      </g>
      <path id="Path-203" data-name="Path" d="M39.588,32.262l-4.412,5.262-27.364.957L0,34.225l.069-.149,3.167-6.923L7.055.624,29.983,0l2.279,9.882,3.548,15.4,3.764,6.951.014.028Z" transform="translate(19.615 56.716)" fill="none" stroke="#263238" stroke-linecap="round" stroke-linejoin="round" stroke-miterlimit="10" stroke-width="0.5"/>
      <path id="Path-204" data-name="Path" d="M0,1.873,38.03,0" transform="translate(19.615 89.068)" fill="#adc7f7" stroke="#263238" stroke-linecap="round" stroke-linejoin="round" stroke-miterlimit="10" stroke-width="0.5"/>
      <path id="Path-205" data-name="Path" d="M.247,6.642S-1.217,1.054,2.987.149s5.945,2.47,5.2,6.129" transform="translate(33.434 51.323)" fill="none" stroke="#263238" stroke-linecap="round" stroke-linejoin="round" stroke-miterlimit="10" stroke-width="0.694"/>
      <path id="Path-206" data-name="Path" d="M0,0,7.139,1.464,4.849,2.914" transform="translate(22.883 91.448)" fill="none" stroke="#263238" stroke-linecap="round" stroke-linejoin="round" stroke-miterlimit="10" stroke-width="0.5"/>
      <path id="Path-207" data-name="Path" d="M0,2.9l20.16-.541L24.277,0" transform="translate(31.631 90.005)" fill="none" stroke="#263238" stroke-linecap="round" stroke-linejoin="round" stroke-miterlimit="10" stroke-width="0.5"/>
      <path id="Path-208" data-name="Path" d="M0,0,2.2,1.1" transform="translate(51.794 92.364)" fill="none" stroke="#263238" stroke-linecap="round" stroke-linejoin="round" stroke-miterlimit="10" stroke-width="0.5"/>
      <path id="Path-209" data-name="Path" d="M0,1.568,29.674,0" transform="translate(22.852 82.301)" fill="#adc7f7" stroke="#263238" stroke-linecap="round" stroke-linejoin="round" stroke-miterlimit="10" stroke-width="0.5"/>
      <path id="Path-210" data-name="Path" d="M56.307,47.885H5.678L0,0H61.985L56.307,47.885Z" transform="translate(13.406 44.447)" fill="none" stroke="#263238" stroke-linecap="round" stroke-linejoin="round" stroke-miterlimit="10" stroke-width="1.041"/>
      <path id="Path-211" data-name="Path" d="M4,47.885,0,0H43.67l-4,47.885" transform="translate(22.564 44.447)" fill="none" stroke="#263238" stroke-linecap="round" stroke-linejoin="round" stroke-miterlimit="10" stroke-width="1.041"/>
      <path id="Path-212" data-name="Path" d="M2.123,47.885,0,0H23.164L21.041,47.885" transform="translate(32.817 44.447)" fill="none" stroke="#263238" stroke-linecap="round" stroke-linejoin="round" stroke-miterlimit="10" stroke-width="1.041"/>
      <path id="Path-213" data-name="Path" d="M.173,0V47.885" transform="translate(44.225 44.447)" fill="none" stroke="#263238" stroke-linecap="round" stroke-linejoin="round" stroke-miterlimit="10" stroke-width="1.041"/>
      <rect id="Rectangle" width="65.714" height="3.42" rx="1.148" transform="translate(11.544 42.037)" fill="#adc7f7" stroke="#263238" stroke-linecap="round" stroke-linejoin="round" stroke-miterlimit="10" stroke-width="0.5"/>
      <path id="Path-214" data-name="Path" d="M0,.173H59.647" transform="translate(14.575 53.837)" fill="none" stroke="#263238" stroke-linecap="round" stroke-linejoin="round" stroke-miterlimit="10" stroke-width="1.041"/>
      <path id="Path-215" data-name="Path" d="M0,.173H56.976" transform="translate(15.911 63.73)" fill="none" stroke="#263238" stroke-linecap="round" stroke-linejoin="round" stroke-miterlimit="10" stroke-width="1.041"/>
      <path id="Path-216" data-name="Path" d="M0,.173H54.534" transform="translate(17.132 73.619)" fill="none" stroke="#263238" stroke-linecap="round" stroke-linejoin="round" stroke-miterlimit="10" stroke-width="1.041"/>
      <path id="Path-217" data-name="Path" d="M0,.173H52.349" transform="translate(18.224 83.511)" fill="none" stroke="#263238" stroke-linecap="round" stroke-linejoin="round" stroke-miterlimit="10" stroke-width="1.041"/>
      <path id="Path-218" data-name="Path" d="M3.854,0H1.134A1.134,1.134,0,0,0,0,1.138V6.483c0,.961.763,1.544.968.739L2.355,1.776a.912.912,0,0,1,.885-.694h.895V6.476c0,.961.763,1.544.968.739l1.276-5.04A1.318,1.318,0,0,0,5.623.635L4.384.1A1.36,1.36,0,0,0,3.854,0Z" transform="translate(14.676 106.661)" fill="#263238"/>
      <path id="Path-219" data-name="Path" d="M1.651,0C.739,0,0,1.87,0,4.162S.739,8.325,1.651,8.325H5.262V0Z" transform="translate(13.542 109.585)" fill="#757575" stroke="#263238" stroke-linecap="round" stroke-linejoin="round" stroke-miterlimit="10" stroke-width="0.5"/>
      <ellipse id="Oval-2" data-name="Oval" cx="1.648" cy="4.173" rx="1.648" ry="4.173" transform="translate(17.156 109.589)" fill="#999" stroke="#263238" stroke-linecap="round" stroke-linejoin="round" stroke-miterlimit="10" stroke-width="0.5"/>
      <path id="Path-220" data-name="Path" d="M1.651,2.081c0,1.152-.368,2.081-.826,2.081S0,3.229,0,2.081.371,0,.826,0,1.651.916,1.651,2.081Z" transform="translate(18.325 111.691)" fill="#263238"/>
      <path id="Path-221" data-name="Path" d="M2.629.642,1.391.108A1.36,1.36,0,0,0,.867,0H0V1.131a.832.832,0,0,1,.246-.042h.895V6.483c0,.961.763,1.544.968.739l1.276-5.04A1.318,1.318,0,0,0,2.629.642Z" transform="translate(17.662 106.661)" fill="#263238"/>
      <path id="Path-222" data-name="Path" d="M0,0V3.063l2.14.305L2.584.305A6.351,6.351,0,0,0,0,0Z" transform="translate(17.392 104.008)" fill="#263238"/>
      <path id="Path-223" data-name="Path" d="M2.567,0H5.287A1.134,1.134,0,0,1,6.421,1.138V6.483c0,.961-.763,1.544-.968.739L4.066,1.776a.912.912,0,0,0-.885-.694H2.286V6.476c0,.961-.763,1.544-.968.739L.042,2.175A1.318,1.318,0,0,1,.8.635L2.036.1A1.36,1.36,0,0,1,2.567,0Z" transform="translate(67.701 106.661)" fill="#263238"/>
      <path id="Path-224" data-name="Path" d="M3.611,0c.912,0,1.651,1.87,1.651,4.162S4.523,8.325,3.611,8.325H0V0Z" transform="translate(69.994 109.585)" fill="#757575" stroke="#263238" stroke-linecap="round" stroke-linejoin="round" stroke-miterlimit="10" stroke-width="0.5"/>
      <ellipse id="Oval-3" data-name="Oval" cx="1.648" cy="4.173" rx="1.648" ry="4.173" transform="translate(68.347 109.589)" fill="#999" stroke="#263238" stroke-linecap="round" stroke-linejoin="round" stroke-miterlimit="10" stroke-width="0.5"/>
      <path id="Path-225" data-name="Path" d="M0,2.081C0,3.233.368,4.162.826,4.162s.826-.933.826-2.081S1.28,0,.826,0,0,.916,0,2.081Z" transform="translate(68.822 111.691)" fill="#263238"/>
      <path id="Path-226" data-name="Path" d="M.8.642,2.036.108A1.36,1.36,0,0,1,2.56,0h.867V1.131a.832.832,0,0,0-.246-.042H2.286V6.483c0,.961-.763,1.544-.968.739L.042,2.182A1.318,1.318,0,0,1,.8.642Z" transform="translate(67.708 106.661)" fill="#263238"/>
      <path id="Path-227" data-name="Path" d="M2.584,0V3.063l-2.14.305L0,.305A6.351,6.351,0,0,1,2.584,0Z" transform="translate(68.822 104.008)" fill="#263238"/>
      <path id="Path-228" data-name="Path" d="M2.612,0H.77A.77.77,0,0,0,0,.77V4.391c0,.649.517,1.041.656.5L1.592,1.2a.621.621,0,0,1,.6-.468h.6V4.391c0,.649.517,1.041.656.5l.867-3.413A.9.9,0,0,0,3.8.437L2.959.09A.885.885,0,0,0,2.612,0Z" transform="translate(24.267 110.303)" fill="#263238"/>
      <path id="Path-229" data-name="Path" d="M1.117,0C.5,0,0,1.266,0,2.827S.489,5.654,1.117,5.654H3.545V0Z" transform="translate(23.511 112.281)" fill="#263238"/>
      <ellipse id="Oval-4" data-name="Oval" cx="1.117" cy="2.827" rx="1.117" ry="2.827" transform="translate(25.946 112.281)" fill="#263238"/>
      <path id="Path-230" data-name="Path" d="M1.117,1.412c0,.78-.25,1.412-.558,1.412S0,2.192,0,1.412.25,0,.558,0,1.117.631,1.117,1.412Z" transform="translate(26.74 113.696)" fill="#263238"/>
      <path id="Path-231" data-name="Path" d="M1.779.42.94.073A.885.885,0,0,0,.593,0H0V.767A.524.524,0,0,1,.166.735h.6V4.391c0,.649.517,1.041.656.5l.867-3.413A.9.9,0,0,0,1.779.42Z" transform="translate(26.292 110.314)" fill="#263238"/>
      <path id="Path-232" data-name="Path" d="M0,0V2.081l1.45.2L1.748.2A4.3,4.3,0,0,0,0,0Z" transform="translate(26.109 108.503)" fill="#263238"/>
      <path id="Path-233" data-name="Path" d="M1.726,0H3.568a.77.77,0,0,1,.77.77V4.391c0,.649-.517,1.041-.656.5L2.746,1.2a.621.621,0,0,0-.6-.468h-.6V4.391c0,.649-.517,1.041-.656.5L.027,1.478A.9.9,0,0,1,.54.437L1.379.09A.885.885,0,0,1,1.726,0Z" transform="translate(60.193 110.303)" fill="#263238"/>
      <path id="Path-234" data-name="Path" d="M2.428,0c.617,0,1.117,1.266,1.117,2.827S3.056,5.654,2.428,5.654H0V0Z" transform="translate(61.742 112.281)" fill="#263238"/>
      <ellipse id="Oval-5" data-name="Oval" cx="1.117" cy="2.827" rx="1.117" ry="2.827" transform="translate(60.618 112.281)" fill="#263238"/>
      <path id="Path-235" data-name="Path" d="M0,1.412c0,.78.25,1.412.558,1.412s.558-.631.558-1.412S.867,0,.558,0,0,.631,0,1.412Z" transform="translate(60.941 113.696)" fill="#263238"/>
      <path id="Path-236" data-name="Path" d="M.538.42,1.377.073A.885.885,0,0,1,1.724,0H2.31V.767A.524.524,0,0,0,2.144.735h-.59V4.391c0,.649-.517,1.041-.656.5L.031,1.478A.9.9,0,0,1,.538.42Z" transform="translate(60.188 110.314)" fill="#263238"/>
      <path id="Path-237" data-name="Path" d="M1.752,0V2.081L.3,2.286,0,.2A4.31,4.31,0,0,1,1.752,0Z" transform="translate(60.941 108.503)" fill="#263238"/>
      <path id="Path-238" data-name="Path" d="M40.243,4.058H10.316L0,0H50.563L40.243,4.058Z" transform="translate(19.085 92.332)" fill="#263238" stroke="#263238" stroke-linecap="round" stroke-linejoin="round" stroke-miterlimit="10" stroke-width="1.041"/>
      <path id="Path-239" data-name="Path" d="M0,0,10.888,4.5H47.476L57.746,0H.617" transform="translate(15.217 104.008)" fill="none" stroke="#263238" stroke-linecap="round" stroke-linejoin="round" stroke-miterlimit="10" stroke-width="1.041"/>
      <path id="Path-240" data-name="Path" d="M0,0V9.3l3.365,2.813" transform="translate(59.328 96.391)" fill="none" stroke="#263238" stroke-linecap="round" stroke-linejoin="round" stroke-miterlimit="10" stroke-width="1.041"/>
      <path id="Path-241" data-name="Path" d="M3.3,0V9.3L0,12.113" transform="translate(26.105 96.391)" fill="none" stroke="#263238" stroke-linecap="round" stroke-linejoin="round" stroke-miterlimit="10" stroke-width="1.041"/>
    </g>
  </g>
</svg>
