<svg xmlns="http://www.w3.org/2000/svg" width="343.253" height="110.75" viewBox="0 0 343.253 110.75">
  <g id="gifts" transform="translate(0.125 0.25)">
    <g id="Group_22" data-name="Group 22" transform="translate(0.25)">
      <path id="Path" d="M0,0V.728L1.335,1.7.81.09.938,0Z" transform="translate(316.74 105.135)" fill="#263238"/>
      <path id="Path-2" data-name="Path" d="M1.4,0H.4L.525.09,0,1.7,1.372.7,1.4.728h0V0Z" transform="translate(315.337 105.135)" fill="#263238"/>
      <path id="Path-3" data-name="Path" d="M0,0V.728L1.327,1.7.81.09.93,0Z" transform="translate(296.557 105.135)" fill="#263238"/>
      <path id="Path-4" data-name="Path" d="M1.4,0H.4l.12.09L0,1.7,1.365.7,1.4.728h0V0Z" transform="translate(295.155 105.135)" fill="#263238"/>
      <path id="Path-5" data-name="Path" d="M0,0V.728L1.335,1.7.817.09.938,0Z" transform="translate(256.177 105.135)" fill="#263238"/>
      <path id="Path-6" data-name="Path" d="M1.395,0H.4l.12.09L0,1.7,1.365.7l.03.023h0V0Z" transform="translate(254.783 105.135)" fill="#263238"/>
      <path id="Path-7" data-name="Path" d="M0,0V.728L1.335,1.7.81.09.938,0Z" transform="translate(235.995 105.135)" fill="#263238"/>
      <path id="Path-8" data-name="Path" d="M1.4,0H.4L.525.09,0,1.7,1.365.7,1.4.728h0V0Z" transform="translate(234.592 105.135)" fill="#263238"/>
      <path id="Path-9" data-name="Path" d="M0,0V.728L1.335,1.7.81.09.938,0Z" transform="translate(215.805 105.135)" fill="#263238"/>
      <path id="Path-10" data-name="Path" d="M1.395,0h-1L.517.09,0,1.7,1.365.7l.03.023V0Z" transform="translate(214.41 105.135)" fill="#263238"/>
      <path id="Path-11" data-name="Path" d="M.157,0V1.02l.435.315L.157,0Z" transform="translate(196.365 105.495)" fill="#263238"/>
      <rect id="Rectangle" width="61.987" height="31.597" transform="translate(0.24 78.09)" fill="#fff" stroke="#263238" stroke-linecap="round" stroke-linejoin="round" stroke-miterlimit="10" stroke-width="0.75"/>
      <g id="Group_24" data-name="Group 24" transform="translate(154.5)">
        <rect id="Rectangle-2" data-name="Rectangle" width="75.68" height="93.488" transform="translate(2.227 16.763)" fill="#fff" stroke="#263238" stroke-linecap="round" stroke-linejoin="round" stroke-miterlimit="10" stroke-width="0.5"/>
        <path id="Path-12" data-name="Path" d="M.527.257.654.165H0V.257Z" transform="translate(69.85 16.598)" fill="#263238"/>
        <path id="Path-13" data-name="Path" d="M1.536.9,1.24,0,.949.9H0l.768.557-.3.9.768-.557.772.557-.3-.9L2.485.9Z" transform="translate(74.301 21.091)" fill="#263238"/>
        <path id="Path-14" data-name="Path" d="M0,1.35H.527l.7-.506H.274L0,0H0V1.35Z" transform="translate(69.85 26.858)" fill="#263238"/>
        <path id="Path-15" data-name="Path" d="M0,0V.409L.751.953l-.3-.9L.527,0Z" transform="translate(69.85 16.855)" fill="#263238"/>
        <path id="Path-16" data-name="Path" d="M1.536.9,1.24,0,.949.9H0l.768.557-.3.907.768-.561.772.561-.3-.907L2.485.9Z" transform="translate(74.301 32.444)" fill="#263238"/>
        <path id="Path-17" data-name="Path" d="M0,1.354H.527l.7-.506H.274L0,0H0V1.354Z" transform="translate(69.85 38.211)" fill="#263238"/>
        <path id="Path-18" data-name="Path" d="M0,0V.413L.751.958.456.051.527,0Z" transform="translate(69.85 28.208)" fill="#263238"/>
        <path id="Path-19" data-name="Path" d="M1.536.9,1.24,0,.949.9H0l.768.557-.3.9.768-.557.772.557-.3-.9L2.485.9Z" transform="translate(74.301 43.8)" fill="#263238"/>
        <path id="Path-20" data-name="Path" d="M0,1.35H.527l.7-.506H.274L0,0H0V1.35Z" transform="translate(69.85 49.568)" fill="#263238"/>
        <path id="Path-21" data-name="Path" d="M0,0V.409L.751.953l-.3-.9L.527,0Z" transform="translate(69.85 39.565)" fill="#263238"/>
        <path id="Path-22" data-name="Path" d="M1.536.9,1.24,0,.949.9H0l.768.561-.3.9.768-.561.772.561-.3-.9L2.485.9Z" transform="translate(74.301 55.153)" fill="#263238"/>
        <path id="Path-23" data-name="Path" d="M0,1.354H.527l.7-.506H.274L0,0H0V1.354Z" transform="translate(69.85 60.92)" fill="#263238"/>
        <path id="Path-24" data-name="Path" d="M0,0V.413L.751.958l-.3-.9L.527,0Z" transform="translate(69.85 50.918)" fill="#263238"/>
        <path id="Path-25" data-name="Path" d="M1.536.9,1.24,0,.949.9H0l.768.557-.3.9.768-.557.772.557-.3-.9L2.485.9Z" transform="translate(74.301 66.51)" fill="#263238"/>
        <path id="Path-26" data-name="Path" d="M0,1.35H.527l.7-.506H.274L0,0H0V1.35Z" transform="translate(69.85 72.277)" fill="#263238"/>
        <path id="Path-27" data-name="Path" d="M0,0V.409L.751.953l-.3-.9L.527,0Z" transform="translate(69.85 62.274)" fill="#263238"/>
        <path id="Path-28" data-name="Path" d="M1.536.9,1.24,0,.949.9H0l.768.561-.3.9.768-.561.772.561-.3-.9L2.485.9Z" transform="translate(74.301 77.863)" fill="#263238"/>
        <path id="Path-29" data-name="Path" d="M0,1.354H.527l.7-.506H.274L0,0V1.354Z" transform="translate(69.85 83.63)" fill="#263238"/>
        <path id="Path-30" data-name="Path" d="M0,0V.413L.751.958l-.3-.9L.527,0Z" transform="translate(69.85 73.627)" fill="#263238"/>
        <path id="Path-31" data-name="Path" d="M1.536.9,1.24,0,.949.9H0l.768.557-.3.9.768-.557.772.557-.3-.9L2.485.9Z" transform="translate(74.301 89.22)" fill="#263238"/>
        <path id="Path-32" data-name="Path" d="M0,1.35H.527l.7-.506H.274L0,0H0V1.35Z" transform="translate(69.85 94.987)" fill="#263238"/>
        <path id="Path-33" data-name="Path" d="M0,0V.409L.751.953l-.3-.9L.527,0Z" transform="translate(69.85 84.984)" fill="#263238"/>
        <path id="Path-34" data-name="Path" d="M1.536.9,1.24,0,.949.9H0l.768.561-.3.9L1.24,1.81l.772.557-.3-.9L2.485.9Z" transform="translate(74.301 100.572)" fill="#263238"/>
        <path id="Path-35" data-name="Path" d="M1.223.844H.274L0,0H0V1.35H.527l.7-.506Z" transform="translate(69.85 106.343)" fill="#263238"/>
        <path id="Path-36" data-name="Path" d="M0,0V.413L.751.958l-.3-.9L.527,0Z" transform="translate(69.85 96.337)" fill="#263238"/>
        <path id="Path-37" data-name="Path" d="M0,0V.409L.751.953l-.3-.9L.527,0Z" transform="translate(69.85 107.693)" fill="#263238"/>
        <path id="Path-38" data-name="Path" d="M.688.257V.165H0L.122.257Z" transform="translate(69.162 16.598)" fill="#263238"/>
        <path id="Path-39" data-name="Path" d="M.523.257.65.165H0V.257Z" transform="translate(58.497 16.598)" fill="#263238"/>
        <path id="Path-40" data-name="Path" d="M1.54.9l-.3-.9-.3.9H0l.768.557-.291.9.768-.557.768.557-.291-.9L2.489.9Z" transform="translate(62.944 21.091)" fill="#263238"/>
        <path id="Path-41" data-name="Path" d="M0,.9l.7.506h.565V.059L1.245,0l-.3.9Z" transform="translate(68.588 26.799)" fill="#263238"/>
        <path id="Path-42" data-name="Path" d="M.789,0H.224L.3.051l-.3.9L.772.4.789.409h0V0Z" transform="translate(69.061 16.855)" fill="#263238"/>
        <path id="Path-43" data-name="Path" d="M0,1.35H.523l.7-.506H.274L0,0H0V1.35Z" transform="translate(58.497 26.858)" fill="#263238"/>
        <path id="Path-44" data-name="Path" d="M0,0V.409L.747.953.456.051.523,0Z" transform="translate(58.497 16.855)" fill="#263238"/>
        <path id="Path-45" data-name="Path" d="M1.54.9l-.3-.9-.3.9H0l.768.557-.291.907.768-.561.768.561L1.721,1.46,2.489.9Z" transform="translate(62.944 32.444)" fill="#263238"/>
        <path id="Path-46" data-name="Path" d="M0,.9l.7.506h.565V.055L1.245,0l-.3.9Z" transform="translate(68.588 38.156)" fill="#263238"/>
        <path id="Path-47" data-name="Path" d="M.789,0H.224L.3.051,0,.958.772.4.789.413h0V0Z" transform="translate(69.061 28.208)" fill="#263238"/>
        <path id="Path-48" data-name="Path" d="M0,1.354H.523l.7-.506H.274L0,0H0V1.354Z" transform="translate(58.497 38.211)" fill="#263238"/>
        <path id="Path-49" data-name="Path" d="M0,0V.413L.747.958.456.051.523,0Z" transform="translate(58.497 28.208)" fill="#263238"/>
        <path id="Path-50" data-name="Path" d="M1.54.9l-.3-.9-.3.9H0l.768.557-.291.9.768-.557.768.557-.291-.9L2.489.9Z" transform="translate(62.944 43.8)" fill="#263238"/>
        <path id="Path-51" data-name="Path" d="M0,.9l.7.506h.565V.059L1.245,0l-.3.9Z" transform="translate(68.588 49.508)" fill="#263238"/>
        <path id="Path-52" data-name="Path" d="M.789,0H.224L.3.051l-.3.9L.772.4.789.409h0V0Z" transform="translate(69.061 39.565)" fill="#263238"/>
        <path id="Path-53" data-name="Path" d="M0,1.35H.523l.7-.506H.274L0,0H0V1.35Z" transform="translate(58.497 49.568)" fill="#263238"/>
        <path id="Path-54" data-name="Path" d="M0,0V.409L.747.953.456.051.523,0Z" transform="translate(58.497 39.565)" fill="#263238"/>
        <path id="Path-55" data-name="Path" d="M1.54.9l-.3-.9-.3.9H0l.768.561-.291.9.768-.561.768.561-.291-.9L2.489.9Z" transform="translate(62.944 55.153)" fill="#263238"/>
        <path id="Path-56" data-name="Path" d="M0,.9l.7.506h.565V.055L1.245,0l-.3.9Z" transform="translate(68.588 60.865)" fill="#263238"/>
        <path id="Path-57" data-name="Path" d="M.789,0H.224L.3.055l-.3.9L.772.4.789.413h0V0Z" transform="translate(69.061 50.918)" fill="#263238"/>
        <path id="Path-58" data-name="Path" d="M0,1.354H.523l.7-.506H.274L0,0H0V1.354Z" transform="translate(58.497 60.92)" fill="#263238"/>
        <path id="Path-59" data-name="Path" d="M0,0V.413L.747.958.456.055.523,0Z" transform="translate(58.497 50.918)" fill="#263238"/>
        <path id="Path-60" data-name="Path" d="M1.54.9l-.3-.9-.3.9H0l.768.557-.291.9.768-.557.768.557-.291-.9L2.489.9Z" transform="translate(62.944 66.51)" fill="#263238"/>
        <path id="Path-61" data-name="Path" d="M0,.9l.7.506h.565V.059L1.245,0l-.3.9Z" transform="translate(68.588 72.218)" fill="#263238"/>
        <path id="Path-62" data-name="Path" d="M.789,0H.224L.3.051l-.3.9L.772.4.789.409h0V0Z" transform="translate(69.061 62.274)" fill="#263238"/>
        <path id="Path-63" data-name="Path" d="M0,1.35H.523l.7-.506H.274L0,0H0V1.35Z" transform="translate(58.497 72.277)" fill="#263238"/>
        <path id="Path-64" data-name="Path" d="M0,0V.409L.747.953.456.051.523,0Z" transform="translate(58.497 62.274)" fill="#263238"/>
        <path id="Path-65" data-name="Path" d="M1.54.9l-.3-.9-.3.9H0l.768.561-.291.9.768-.561.768.561-.291-.9L2.489.9Z" transform="translate(62.944 77.863)" fill="#263238"/>
        <path id="Path-66" data-name="Path" d="M0,.9l.7.506h.565V.059L1.245,0l-.3.9Z" transform="translate(68.588 83.575)" fill="#263238"/>
        <path id="Path-67" data-name="Path" d="M.789,0H.224L.3.055l-.3.9L.772.4.789.413h0V0Z" transform="translate(69.061 73.627)" fill="#263238"/>
        <path id="Path-68" data-name="Path" d="M0,1.354H.523l.7-.506H.274L0,0V1.354Z" transform="translate(58.497 83.63)" fill="#263238"/>
        <path id="Path-69" data-name="Path" d="M0,0V.413L.747.958.456.055.523,0Z" transform="translate(58.497 73.627)" fill="#263238"/>
        <path id="Path-70" data-name="Path" d="M1.54.9l-.3-.9-.3.9H0l.768.557-.291.9.768-.557.768.557-.291-.9L2.489.9Z" transform="translate(62.944 89.22)" fill="#263238"/>
        <path id="Path-71" data-name="Path" d="M1.261,1.409V.059L1.245,0l-.3.9H0l.7.506Z" transform="translate(68.588 94.928)" fill="#263238"/>
        <path id="Path-72" data-name="Path" d="M.789,0H.224L.3.051l-.3.9L.772.4.789.409h0V0Z" transform="translate(69.061 84.984)" fill="#263238"/>
        <path id="Path-73" data-name="Path" d="M1.223.844H.274L0,0H0V1.35H.523l.7-.506Z" transform="translate(58.497 94.987)" fill="#263238"/>
        <path id="Path-74" data-name="Path" d="M0,0V.409L.747.953.456.051.523,0Z" transform="translate(58.497 84.984)" fill="#263238"/>
        <path id="Path-75" data-name="Path" d="M1.54.9l-.3-.9-.3.9H0l.768.561-.291.9.768-.557.768.557-.291-.9L2.489.9Z" transform="translate(62.944 100.572)" fill="#263238"/>
        <path id="Path-76" data-name="Path" d="M1.261.059,1.245,0l-.3.9H0l.7.506h.565V.059Z" transform="translate(68.588 106.284)" fill="#263238"/>
        <path id="Path-77" data-name="Path" d="M.789,0H.224L.3.055l-.3.9L.772.4.789.413h0V0Z" transform="translate(69.061 96.337)" fill="#263238"/>
        <path id="Path-78" data-name="Path" d="M0,1.35H.523l.7-.506H.274L0,0H0V1.35Z" transform="translate(58.497 106.343)" fill="#263238"/>
        <path id="Path-79" data-name="Path" d="M0,0V.413L.747.958.456.055.523,0Z" transform="translate(58.497 96.337)" fill="#263238"/>
        <path id="Path-80" data-name="Path" d="M.789,0H.224L.3.051l-.3.9L.772.4.789.409h0V0Z" transform="translate(69.061 107.693)" fill="#263238"/>
        <path id="Path-81" data-name="Path" d="M0,0V.409L.747.953.456.051.523,0Z" transform="translate(58.497 107.693)" fill="#263238"/>
        <path id="Path-82" data-name="Path" d="M.692.257V.165H0L.127.257Z" transform="translate(57.805 16.598)" fill="#263238"/>
        <path id="Path-83" data-name="Path" d="M.527.257.654.165H0V.257Z" transform="translate(47.14 16.598)" fill="#263238"/>
        <path id="Path-84" data-name="Path" d="M1.536.9,1.24,0,.949.9H0l.768.557-.3.9.768-.557.772.557-.3-.9L2.485.9Z" transform="translate(51.591 21.091)" fill="#263238"/>
        <path id="Path-85" data-name="Path" d="M0,.9l.7.506h.565V.059L1.245,0,.953.9Z" transform="translate(57.232 26.799)" fill="#263238"/>
        <path id="Path-86" data-name="Path" d="M.789,0H.224L.291.051,0,.953.768.4.789.409h0V0Z" transform="translate(57.708 16.855)" fill="#263238"/>
        <path id="Path-87" data-name="Path" d="M0,1.35H.527l.7-.506H.274L0,0V1.35Z" transform="translate(47.14 26.858)" fill="#263238"/>
        <path id="Path-88" data-name="Path" d="M0,.409.751.953l-.3-.9L.527,0H0V.409Z" transform="translate(47.14 16.855)" fill="#263238"/>
        <path id="Path-89" data-name="Path" d="M1.536.9,1.24,0,.949.9H0l.768.557-.3.907.768-.561.772.561-.3-.907L2.485.9Z" transform="translate(51.591 32.444)" fill="#263238"/>
        <path id="Path-90" data-name="Path" d="M0,.9l.7.506h.565V.055L1.245,0,.953.9Z" transform="translate(57.232 38.156)" fill="#263238"/>
        <path id="Path-91" data-name="Path" d="M.789,0H.224L.291.051,0,.958.768.4.789.413h0V0Z" transform="translate(57.708 28.208)" fill="#263238"/>
        <path id="Path-92" data-name="Path" d="M0,1.354H.527l.7-.506H.274L0,0V1.354Z" transform="translate(47.14 38.211)" fill="#263238"/>
        <path id="Path-93" data-name="Path" d="M0,0V.413L.751.958.456.051.527,0Z" transform="translate(47.14 28.208)" fill="#263238"/>
        <path id="Path-94" data-name="Path" d="M1.536.9,1.24,0,.949.9H0l.768.557-.3.9.768-.557.772.557-.3-.9L2.485.9Z" transform="translate(51.591 43.8)" fill="#263238"/>
        <path id="Path-95" data-name="Path" d="M0,.9l.7.506h.565V.059L1.245,0,.953.9Z" transform="translate(57.232 49.508)" fill="#263238"/>
        <path id="Path-96" data-name="Path" d="M.789,0H.224L.291.051,0,.953.768.4.789.409h0V0Z" transform="translate(57.708 39.565)" fill="#263238"/>
        <path id="Path-97" data-name="Path" d="M1.223.844H.274L0,0V1.35H.527l.7-.506Z" transform="translate(47.14 49.568)" fill="#263238"/>
        <path id="Path-98" data-name="Path" d="M0,0V.409L.751.953l-.3-.9L.527,0Z" transform="translate(47.14 39.565)" fill="#263238"/>
        <path id="Path-99" data-name="Path" d="M1.536.9,1.24,0,.949.9H0l.768.561-.3.9.768-.561.772.561-.3-.9L2.485.9Z" transform="translate(51.591 55.153)" fill="#263238"/>
        <path id="Path-100" data-name="Path" d="M0,.9l.7.506h.565V.055L1.245,0,.953.9Z" transform="translate(57.232 60.865)" fill="#263238"/>
        <path id="Path-101" data-name="Path" d="M.789,0H.224L.291.055,0,.958.768.4.789.413h0V0Z" transform="translate(57.708 50.918)" fill="#263238"/>
        <path id="Path-102" data-name="Path" d="M1.223.848H.274L0,0V1.354H.527l.7-.506Z" transform="translate(47.14 60.92)" fill="#263238"/>
        <path id="Path-103" data-name="Path" d="M0,0V.413L.751.958l-.3-.9L.527,0Z" transform="translate(47.14 50.918)" fill="#263238"/>
        <path id="Path-104" data-name="Path" d="M1.536.9,1.24,0,.949.9H0l.768.557-.3.9.768-.557.772.557-.3-.9L2.485.9Z" transform="translate(51.591 66.51)" fill="#263238"/>
        <path id="Path-105" data-name="Path" d="M0,.9l.7.506h.565V.059L1.245,0,.953.9Z" transform="translate(57.232 72.218)" fill="#263238"/>
        <path id="Path-106" data-name="Path" d="M.789,0H.224L.291.051,0,.953.768.4.789.409h0V0Z" transform="translate(57.708 62.274)" fill="#263238"/>
        <path id="Path-107" data-name="Path" d="M1.223.844H.274L0,0V1.35H.527l.7-.506Z" transform="translate(47.14 72.277)" fill="#263238"/>
        <path id="Path-108" data-name="Path" d="M0,0V.409L.751.953l-.3-.9L.527,0Z" transform="translate(47.14 62.274)" fill="#263238"/>
        <path id="Path-109" data-name="Path" d="M1.536.9,1.24,0,.949.9H0l.768.561-.3.9.768-.561.772.561-.3-.9L2.485.9Z" transform="translate(51.591 77.863)" fill="#263238"/>
        <path id="Path-110" data-name="Path" d="M1.266,1.409V.059L1.245,0,.953.9H0l.7.506Z" transform="translate(57.232 83.575)" fill="#263238"/>
        <path id="Path-111" data-name="Path" d="M.789,0H.224L.291.055,0,.958.768.4.789.413h0V0Z" transform="translate(57.708 73.627)" fill="#263238"/>
        <path id="Path-112" data-name="Path" d="M1.223.848H.274L0,0V1.354H.527l.7-.506Z" transform="translate(47.14 83.63)" fill="#263238"/>
        <path id="Path-113" data-name="Path" d="M0,0V.413L.751.958l-.3-.9L.527,0Z" transform="translate(47.14 73.627)" fill="#263238"/>
        <path id="Path-114" data-name="Path" d="M1.536.9,1.24,0,.949.9H0l.768.557-.3.9.768-.557.772.557-.3-.9L2.485.9Z" transform="translate(51.591 89.22)" fill="#263238"/>
        <path id="Path-115" data-name="Path" d="M1.266.059,1.245,0,.953.9H0l.7.506h.565V.059Z" transform="translate(57.232 94.928)" fill="#263238"/>
        <path id="Path-116" data-name="Path" d="M.789,0H.224L.291.051,0,.953.768.4.789.409h0V0Z" transform="translate(57.708 84.984)" fill="#263238"/>
        <path id="Path-117" data-name="Path" d="M.527,1.35l.7-.506H.274L0,0V1.35Z" transform="translate(47.14 94.987)" fill="#263238"/>
        <path id="Path-118" data-name="Path" d="M0,0V.409L.751.953l-.3-.9L.527,0Z" transform="translate(47.14 84.984)" fill="#263238"/>
        <path id="Path-119" data-name="Path" d="M1.536.9,1.24,0,.949.9H0l.768.561-.3.9L1.24,1.81l.772.557-.3-.9L2.485.9Z" transform="translate(51.591 100.572)" fill="#263238"/>
        <path id="Path-120" data-name="Path" d="M1.266,1.409V.059L1.245,0,.953.9H0l.7.506Z" transform="translate(57.232 106.284)" fill="#263238"/>
        <path id="Path-121" data-name="Path" d="M.789,0H.224L.291.055,0,.958.768.4.789.413h0V0Z" transform="translate(57.708 96.337)" fill="#263238"/>
        <path id="Path-122" data-name="Path" d="M.527,1.35l.7-.506H.274L0,0V1.35Z" transform="translate(47.14 106.343)" fill="#263238"/>
        <path id="Path-123" data-name="Path" d="M0,0V.413L.751.958l-.3-.9L.527,0Z" transform="translate(47.14 96.337)" fill="#263238"/>
        <path id="Path-124" data-name="Path" d="M.789,0H.224L.291.051,0,.953.768.4.789.409h0V0Z" transform="translate(57.708 107.693)" fill="#263238"/>
        <path id="Path-125" data-name="Path" d="M0,0V.409L.751.953l-.3-.9L.527,0Z" transform="translate(47.14 107.693)" fill="#263238"/>
        <path id="Path-126" data-name="Path" d="M.692.257V.165H0L.127.257Z" transform="translate(46.448 16.598)" fill="#263238"/>
        <path id="Path-127" data-name="Path" d="M.527.257.654.165H0V.257Z" transform="translate(35.783 16.598)" fill="#263238"/>
        <path id="Path-128" data-name="Path" d="M1.536.9,1.245,0l-.3.9H0l.768.557-.291.9.768-.557.768.557-.3-.9L2.489.9Z" transform="translate(40.234 21.091)" fill="#263238"/>
        <path id="Path-129" data-name="Path" d="M0,.9l.7.506h.565V.059L1.24,0,.949.9Z" transform="translate(45.879 26.799)" fill="#263238"/>
        <path id="Path-130" data-name="Path" d="M.224,0,.3.051l-.3.9L.768.4.789.409V0Z" transform="translate(46.351 16.855)" fill="#263238"/>
        <path id="Path-131" data-name="Path" d="M0,1.35H.527l.7-.506H.278L0,0H0V1.35Z" transform="translate(35.783 26.858)" fill="#263238"/>
        <path id="Path-132" data-name="Path" d="M0,0V.409L.751.953.46.051.527,0Z" transform="translate(35.783 16.855)" fill="#263238"/>
        <path id="Path-133" data-name="Path" d="M1.536.9,1.245,0l-.3.9H0l.768.557-.291.907.768-.561.768.561-.3-.907L2.489.9Z" transform="translate(40.234 32.444)" fill="#263238"/>
        <path id="Path-134" data-name="Path" d="M0,.9l.7.506h.565V.055L1.24,0,.949.9Z" transform="translate(45.879 38.156)" fill="#263238"/>
        <path id="Path-135" data-name="Path" d="M.224,0,.3.051,0,.958.768.4.789.413V0Z" transform="translate(46.351 28.208)" fill="#263238"/>
        <path id="Path-136" data-name="Path" d="M0,1.354H.527l.7-.506H.278L0,0H0V1.354Z" transform="translate(35.783 38.211)" fill="#263238"/>
        <path id="Path-137" data-name="Path" d="M0,0V.413L.751.958.46.051.527,0Z" transform="translate(35.783 28.208)" fill="#263238"/>
        <path id="Path-138" data-name="Path" d="M1.536.9,1.245,0l-.3.9H0l.768.557-.291.9.768-.557.768.557-.3-.9L2.489.9Z" transform="translate(40.234 43.8)" fill="#263238"/>
        <path id="Path-139" data-name="Path" d="M1.261,1.409V.059L1.24,0,.949.9H0l.7.506Z" transform="translate(45.879 49.508)" fill="#263238"/>
        <path id="Path-140" data-name="Path" d="M.224,0,.3.051l-.3.9L.768.4.789.409V0Z" transform="translate(46.351 39.565)" fill="#263238"/>
        <path id="Path-141" data-name="Path" d="M0,1.35H.527l.7-.506H.278L0,0H0V1.35Z" transform="translate(35.783 49.568)" fill="#263238"/>
        <path id="Path-142" data-name="Path" d="M0,.409.751.953.46.051.527,0H0V.409Z" transform="translate(35.783 39.565)" fill="#263238"/>
        <path id="Path-143" data-name="Path" d="M1.536.9,1.245,0l-.3.9H0l.768.561-.291.9.768-.561.768.561-.3-.9L2.489.9Z" transform="translate(40.234 55.153)" fill="#263238"/>
        <path id="Path-144" data-name="Path" d="M1.261,1.409V.055L1.24,0,.949.9H0l.7.506Z" transform="translate(45.879 60.865)" fill="#263238"/>
        <path id="Path-145" data-name="Path" d="M.3.055l-.3.9L.768.4.789.413V0H.224L.3.055Z" transform="translate(46.351 50.918)" fill="#263238"/>
        <path id="Path-146" data-name="Path" d="M0,1.354H.527l.7-.506H.278L0,0H0V1.354Z" transform="translate(35.783 60.92)" fill="#263238"/>
        <path id="Path-147" data-name="Path" d="M0,.413.751.958.46.055.527,0H0V.413Z" transform="translate(35.783 50.918)" fill="#263238"/>
        <path id="Path-148" data-name="Path" d="M1.536.9,1.245,0l-.3.9H0l.768.557-.291.9.768-.557.768.557-.3-.9L2.489.9Z" transform="translate(40.234 66.51)" fill="#263238"/>
        <path id="Path-149" data-name="Path" d="M1.261,1.409V.059L1.24,0,.949.9H0l.7.506Z" transform="translate(45.879 72.218)" fill="#263238"/>
        <path id="Path-150" data-name="Path" d="M.3.051l-.3.9L.768.4.789.409V0H.224L.3.051Z" transform="translate(46.351 62.274)" fill="#263238"/>
        <path id="Path-151" data-name="Path" d="M0,1.35H.527l.7-.506H.278L0,0H0V1.35Z" transform="translate(35.783 72.277)" fill="#263238"/>
        <path id="Path-152" data-name="Path" d="M0,.409.751.953.46.051.527,0H0V.409Z" transform="translate(35.783 62.274)" fill="#263238"/>
        <path id="Path-153" data-name="Path" d="M1.536.9,1.245,0l-.3.9H0l.768.561-.291.9.768-.561.768.561-.3-.9L2.489.9Z" transform="translate(40.234 77.863)" fill="#263238"/>
        <path id="Path-154" data-name="Path" d="M1.261,1.409V.059L1.24,0,.949.9H0l.7.506Z" transform="translate(45.879 83.575)" fill="#263238"/>
        <path id="Path-155" data-name="Path" d="M.3.055l-.3.9L.768.4.789.413V0H.224L.3.055Z" transform="translate(46.351 73.627)" fill="#263238"/>
        <path id="Path-156" data-name="Path" d="M0,1.354H.527l.7-.506H.278L0,0V1.354Z" transform="translate(35.783 83.63)" fill="#263238"/>
        <path id="Path-157" data-name="Path" d="M0,.413.751.958.46.055.527,0H0V.413Z" transform="translate(35.783 73.627)" fill="#263238"/>
        <path id="Path-158" data-name="Path" d="M1.536.9,1.245,0l-.3.9H0l.768.557-.291.9.768-.557.768.557-.3-.9L2.489.9Z" transform="translate(40.234 89.22)" fill="#263238"/>
        <path id="Path-159" data-name="Path" d="M1.261,1.409V.059L1.24,0,.949.9H0l.7.506Z" transform="translate(45.879 94.928)" fill="#263238"/>
        <path id="Path-160" data-name="Path" d="M.789,0H.224L.3.051l-.3.9L.768.4.789.409V0Z" transform="translate(46.351 84.984)" fill="#263238"/>
        <path id="Path-161" data-name="Path" d="M0,1.35H.527l.7-.506H.278L0,0H0V1.35Z" transform="translate(35.783 94.987)" fill="#263238"/>
        <path id="Path-162" data-name="Path" d="M0,0V.409L.751.953.46.051.527,0Z" transform="translate(35.783 84.984)" fill="#263238"/>
        <path id="Path-163" data-name="Path" d="M1.536.9,1.245,0l-.3.9H0l.768.561-.291.9.768-.557.768.557-.3-.9L2.489.9Z" transform="translate(40.234 100.572)" fill="#263238"/>
        <path id="Path-164" data-name="Path" d="M1.261,1.409V.059L1.24,0,.949.9H0l.7.506Z" transform="translate(45.879 106.284)" fill="#263238"/>
        <path id="Path-165" data-name="Path" d="M.789,0H.224L.3.055l-.3.9L.768.4.789.413V0Z" transform="translate(46.351 96.337)" fill="#263238"/>
        <path id="Path-166" data-name="Path" d="M0,1.35H.527l.7-.506H.278L0,0H0V1.35Z" transform="translate(35.783 106.343)" fill="#263238"/>
        <path id="Path-167" data-name="Path" d="M0,0V.413L.751.958.46.055.527,0Z" transform="translate(35.783 96.337)" fill="#263238"/>
        <path id="Path-168" data-name="Path" d="M.789,0H.224L.3.051l-.3.9L.768.4.789.409V0Z" transform="translate(46.351 107.693)" fill="#263238"/>
        <path id="Path-169" data-name="Path" d="M0,0V.409L.751.953.46.051.527,0Z" transform="translate(35.783 107.693)" fill="#263238"/>
        <path id="Path-170" data-name="Path" d="M.688.257V.165H0L.127.257Z" transform="translate(35.096 16.598)" fill="#263238"/>
        <path id="Path-171" data-name="Path" d="M.527.257.65.165H0V.257Z" transform="translate(24.431 16.598)" fill="#263238"/>
        <path id="Path-172" data-name="Path" d="M1.536.9,1.24,0,.949.9H0l.768.557-.3.9.768-.557.772.557-.3-.9L2.485.9Z" transform="translate(28.882 21.091)" fill="#263238"/>
        <path id="Path-173" data-name="Path" d="M0,.9l.7.506h.561V.059L1.245,0l-.3.9Z" transform="translate(34.522 26.799)" fill="#263238"/>
        <path id="Path-174" data-name="Path" d="M.785,0H.224L.291.051,0,.953.768.4.785.409h0V0Z" transform="translate(34.999 16.855)" fill="#263238"/>
        <path id="Path-175" data-name="Path" d="M0,1.35H.527l.7-.506H.274L0,0H0V1.35Z" transform="translate(24.431 26.858)" fill="#263238"/>
        <path id="Path-176" data-name="Path" d="M0,0V.409L.751.953l-.3-.9L.527,0Z" transform="translate(24.431 16.855)" fill="#263238"/>
        <path id="Path-177" data-name="Path" d="M1.536.9,1.24,0,.949.9H0l.768.557-.3.907.768-.561.772.561-.3-.907L2.485.9Z" transform="translate(28.882 32.444)" fill="#263238"/>
        <path id="Path-178" data-name="Path" d="M0,.9l.7.506h.561V.055L1.245,0l-.3.9Z" transform="translate(34.522 38.156)" fill="#263238"/>
        <path id="Path-179" data-name="Path" d="M.785,0H.224L.291.051,0,.958.768.4.785.413h0V0Z" transform="translate(34.999 28.208)" fill="#263238"/>
        <path id="Path-180" data-name="Path" d="M0,1.354H.527l.7-.506H.274L0,0H0V1.354Z" transform="translate(24.431 38.211)" fill="#263238"/>
        <path id="Path-181" data-name="Path" d="M0,0V.413L.751.958.456.051.527,0Z" transform="translate(24.431 28.208)" fill="#263238"/>
        <path id="Path-182" data-name="Path" d="M1.536.9,1.24,0,.949.9H0l.768.557-.3.9.768-.557.772.557-.3-.9L2.485.9Z" transform="translate(28.882 43.8)" fill="#263238"/>
        <path id="Path-183" data-name="Path" d="M1.261,1.409V.059L1.245,0l-.3.9H0l.7.506Z" transform="translate(34.522 49.508)" fill="#263238"/>
        <path id="Path-184" data-name="Path" d="M.291.051,0,.953.768.4.785.409h0V0H.224L.291.051Z" transform="translate(34.999 39.565)" fill="#263238"/>
        <path id="Path-185" data-name="Path" d="M0,1.35H.527l.7-.506H.274L0,0H0V1.35Z" transform="translate(24.431 49.568)" fill="#263238"/>
        <path id="Path-186" data-name="Path" d="M0,.409.751.953l-.3-.9L.527,0H0V.409Z" transform="translate(24.431 39.565)" fill="#263238"/>
        <path id="Path-187" data-name="Path" d="M1.536.9,1.24,0,.949.9H0l.768.561-.3.9.768-.561.772.561-.3-.9L2.485.9Z" transform="translate(28.882 55.153)" fill="#263238"/>
        <path id="Path-188" data-name="Path" d="M1.261,1.409V.055L1.245,0l-.3.9H0l.7.506Z" transform="translate(34.522 60.865)" fill="#263238"/>
        <path id="Path-189" data-name="Path" d="M.291.055,0,.958.768.4.785.413h0V0H.224L.291.055Z" transform="translate(34.999 50.918)" fill="#263238"/>
        <path id="Path-190" data-name="Path" d="M0,1.354H.527l.7-.506H.274L0,0H0V1.354Z" transform="translate(24.431 60.92)" fill="#263238"/>
        <path id="Path-191" data-name="Path" d="M0,.413.751.958l-.3-.9L.527,0H0V.413Z" transform="translate(24.431 50.918)" fill="#263238"/>
        <path id="Path-192" data-name="Path" d="M1.536.9,1.24,0,.949.9H0l.768.557-.3.9.768-.557.772.557-.3-.9L2.485.9Z" transform="translate(28.882 66.51)" fill="#263238"/>
        <path id="Path-193" data-name="Path" d="M1.261,1.409V.059L1.245,0l-.3.9H0l.7.506Z" transform="translate(34.522 72.218)" fill="#263238"/>
        <path id="Path-194" data-name="Path" d="M.291.051,0,.953.768.4.785.409h0V0H.224L.291.051Z" transform="translate(34.999 62.274)" fill="#263238"/>
        <path id="Path-195" data-name="Path" d="M0,1.35H.527l.7-.506H.274L0,0H0V1.35Z" transform="translate(24.431 72.277)" fill="#263238"/>
        <path id="Path-196" data-name="Path" d="M0,.409.751.953l-.3-.9L.527,0H0V.409Z" transform="translate(24.431 62.274)" fill="#263238"/>
        <path id="Path-197" data-name="Path" d="M1.536.9,1.24,0,.949.9H0l.768.561-.3.9.768-.561.772.561-.3-.9L2.485.9Z" transform="translate(28.882 77.863)" fill="#263238"/>
        <path id="Path-198" data-name="Path" d="M1.261,1.409V.059L1.245,0l-.3.9H0l.7.506Z" transform="translate(34.522 83.575)" fill="#263238"/>
        <path id="Path-199" data-name="Path" d="M.291.055,0,.958.768.4.785.413h0V0H.224L.291.055Z" transform="translate(34.999 73.627)" fill="#263238"/>
        <path id="Path-200" data-name="Path" d="M0,1.354H.527l.7-.506H.274L0,0V1.354Z" transform="translate(24.431 83.63)" fill="#263238"/>
        <path id="Path-201" data-name="Path" d="M0,.413.751.958l-.3-.9L.527,0H0V.413Z" transform="translate(24.431 73.627)" fill="#263238"/>
        <path id="Path-202" data-name="Path" d="M1.536.9,1.24,0,.949.9H0l.768.557-.3.9.768-.557.772.557-.3-.9L2.485.9Z" transform="translate(28.882 89.22)" fill="#263238"/>
        <path id="Path-203" data-name="Path" d="M1.261,1.409V.059L1.245,0l-.3.9H0l.7.506Z" transform="translate(34.522 94.928)" fill="#263238"/>
        <path id="Path-204" data-name="Path" d="M.785,0H.224L.291.051,0,.953.768.4.785.409h0V0Z" transform="translate(34.999 84.984)" fill="#263238"/>
        <path id="Path-205" data-name="Path" d="M0,1.35H.527l.7-.506H.274L0,0H0V1.35Z" transform="translate(24.431 94.987)" fill="#263238"/>
        <path id="Path-206" data-name="Path" d="M0,.409.751.953l-.3-.9L.527,0H0V.409Z" transform="translate(24.431 84.984)" fill="#263238"/>
        <path id="Path-207" data-name="Path" d="M1.536.9,1.24,0,.949.9H0l.768.561-.3.9L1.24,1.81l.772.557-.3-.9L2.485.9Z" transform="translate(28.882 100.572)" fill="#263238"/>
        <path id="Path-208" data-name="Path" d="M1.261,1.409V.059L1.245,0l-.3.9H0l.7.506Z" transform="translate(34.522 106.284)" fill="#263238"/>
        <path id="Path-209" data-name="Path" d="M.785,0H.224L.291.055,0,.958.768.4.785.413h0V0Z" transform="translate(34.999 96.337)" fill="#263238"/>
        <path id="Path-210" data-name="Path" d="M0,1.35H.527l.7-.506H.274L0,0H0V1.35Z" transform="translate(24.431 106.343)" fill="#263238"/>
        <path id="Path-211" data-name="Path" d="M0,0V.413L.751.958l-.3-.9L.527,0Z" transform="translate(24.431 96.337)" fill="#263238"/>
        <path id="Path-212" data-name="Path" d="M.785,0H.224L.291.051,0,.953.768.4.785.409h0V0Z" transform="translate(34.999 107.693)" fill="#263238"/>
        <path id="Path-213" data-name="Path" d="M0,0V.409L.751.953l-.3-.9L.527,0Z" transform="translate(24.431 107.693)" fill="#263238"/>
        <path id="Path-214" data-name="Path" d="M.692.257V.165H0L.127.257Z" transform="translate(23.739 16.598)" fill="#263238"/>
        <path id="Path-215" data-name="Path" d="M.527.257.654.165H0V.257Z" transform="translate(13.074 16.598)" fill="#263238"/>
        <path id="Path-216" data-name="Path" d="M1.536.9,1.245,0l-.3.9H0l.768.557-.291.9.768-.557.768.557-.3-.9L2.489.9Z" transform="translate(17.525 21.091)" fill="#263238"/>
        <path id="Path-217" data-name="Path" d="M0,.9l.7.506h.565V.059L1.24,0,.949.9Z" transform="translate(23.169 26.799)" fill="#263238"/>
        <path id="Path-218" data-name="Path" d="M.789,0H.224L.3.051l-.3.9L.768.4.789.409h0V0Z" transform="translate(23.642 16.855)" fill="#263238"/>
        <path id="Path-219" data-name="Path" d="M.527,1.35l.7-.506H.274L0,0V1.35Z" transform="translate(13.074 26.858)" fill="#263238"/>
        <path id="Path-220" data-name="Path" d="M0,.409.751.953l-.3-.9L.527,0H0V.409Z" transform="translate(13.074 16.855)" fill="#263238"/>
        <path id="Path-221" data-name="Path" d="M.477,2.367l.768-.561.768.561-.3-.907L2.489.9H1.536L1.245,0l-.3.9H0l.768.557-.291.907Z" transform="translate(17.525 32.444)" fill="#263238"/>
        <path id="Path-222" data-name="Path" d="M1.261,1.409V.055L1.24,0,.949.9H0l.7.506Z" transform="translate(23.169 38.156)" fill="#263238"/>
        <path id="Path-223" data-name="Path" d="M.789,0H.224L.3.051,0,.958.768.4.789.413h0V0Z" transform="translate(23.642 28.208)" fill="#263238"/>
        <path id="Path-224" data-name="Path" d="M.527,1.354l.7-.506H.274L0,0V1.354Z" transform="translate(13.074 38.211)" fill="#263238"/>
        <path id="Path-225" data-name="Path" d="M0,.413.751.958.456.051.527,0H0V.413Z" transform="translate(13.074 28.208)" fill="#263238"/>
        <path id="Path-226" data-name="Path" d="M.477,2.362l.768-.557.768.557-.3-.9L2.489.9H1.536L1.245,0l-.3.9H0l.768.557-.291.9Z" transform="translate(17.525 43.8)" fill="#263238"/>
        <path id="Path-227" data-name="Path" d="M1.261,1.409V.059L1.24,0,.949.9H0l.7.506Z" transform="translate(23.169 49.508)" fill="#263238"/>
        <path id="Path-228" data-name="Path" d="M.3.051l-.3.9L.768.4.789.409h0V0H.224L.3.051Z" transform="translate(23.642 39.565)" fill="#263238"/>
        <path id="Path-229" data-name="Path" d="M.527,1.35l.7-.506H.274L0,0V1.35Z" transform="translate(13.074 49.568)" fill="#263238"/>
        <path id="Path-230" data-name="Path" d="M0,.409.751.953l-.3-.9L.527,0H0V.409Z" transform="translate(13.074 39.565)" fill="#263238"/>
        <path id="Path-231" data-name="Path" d="M.477,2.367l.768-.561.768.561-.3-.9L2.489.9H1.536L1.245,0l-.3.9H0l.768.561-.291.9Z" transform="translate(17.525 55.153)" fill="#263238"/>
        <path id="Path-232" data-name="Path" d="M1.261,1.409V.055L1.24,0,.949.9H0l.7.506Z" transform="translate(23.169 60.865)" fill="#263238"/>
        <path id="Path-233" data-name="Path" d="M.3.055l-.3.9L.768.4.789.413h0V0H.224L.3.055Z" transform="translate(23.642 50.918)" fill="#263238"/>
        <path id="Path-234" data-name="Path" d="M.527,1.354l.7-.506H.274L0,0V1.354Z" transform="translate(13.074 60.92)" fill="#263238"/>
        <path id="Path-235" data-name="Path" d="M0,.413.751.958l-.3-.9L.527,0H0V.413Z" transform="translate(13.074 50.918)" fill="#263238"/>
        <path id="Path-236" data-name="Path" d="M.477,2.362l.768-.557.768.557-.3-.9L2.489.9H1.536L1.245,0l-.3.9H0l.768.557-.291.9Z" transform="translate(17.525 66.51)" fill="#263238"/>
        <path id="Path-237" data-name="Path" d="M1.261,1.409V.059L1.24,0,.949.9H0l.7.506Z" transform="translate(23.169 72.218)" fill="#263238"/>
        <path id="Path-238" data-name="Path" d="M.3.051l-.3.9L.768.4.789.409h0V0H.224L.3.051Z" transform="translate(23.642 62.274)" fill="#263238"/>
        <path id="Path-239" data-name="Path" d="M.527,1.35l.7-.506H.274L0,0V1.35Z" transform="translate(13.074 72.277)" fill="#263238"/>
        <path id="Path-240" data-name="Path" d="M0,.409.751.953l-.3-.9L.527,0H0V.409Z" transform="translate(13.074 62.274)" fill="#263238"/>
        <path id="Path-241" data-name="Path" d="M.477,2.367l.768-.561.768.561-.3-.9L2.489.9H1.536L1.245,0l-.3.9H0l.768.561-.291.9Z" transform="translate(17.525 77.863)" fill="#263238"/>
        <path id="Path-242" data-name="Path" d="M1.261,1.409V.059L1.24,0,.949.9H0l.7.506Z" transform="translate(23.169 83.575)" fill="#263238"/>
        <path id="Path-243" data-name="Path" d="M.3.055l-.3.9L.768.4.789.413h0V0H.224L.3.055Z" transform="translate(23.642 73.627)" fill="#263238"/>
        <path id="Path-244" data-name="Path" d="M.527,1.354l.7-.506H.274L0,0V1.354Z" transform="translate(13.074 83.63)" fill="#263238"/>
        <path id="Path-245" data-name="Path" d="M0,.413.751.958l-.3-.9L.527,0H0V.413Z" transform="translate(13.074 73.627)" fill="#263238"/>
        <path id="Path-246" data-name="Path" d="M.477,2.362l.768-.557.768.557-.3-.9L2.489.9H1.536L1.245,0l-.3.9H0l.768.557-.291.9Z" transform="translate(17.525 89.22)" fill="#263238"/>
        <path id="Path-247" data-name="Path" d="M1.261,1.409V.059L1.24,0,.949.9H0l.7.506Z" transform="translate(23.169 94.928)" fill="#263238"/>
        <path id="Path-248" data-name="Path" d="M.3.051l-.3.9L.768.4.789.409h0V0H.224L.3.051Z" transform="translate(23.642 84.984)" fill="#263238"/>
        <path id="Path-249" data-name="Path" d="M.527,1.35l.7-.506H.274L0,0V1.35Z" transform="translate(13.074 94.987)" fill="#263238"/>
        <path id="Path-250" data-name="Path" d="M0,.409.751.953l-.3-.9L.527,0H0V.409Z" transform="translate(13.074 84.984)" fill="#263238"/>
        <path id="Path-251" data-name="Path" d="M1.536.9,1.245,0l-.3.9H0l.768.561-.291.9.768-.557.768.557-.3-.9L2.489.9Z" transform="translate(17.525 100.572)" fill="#263238"/>
        <path id="Path-252" data-name="Path" d="M1.261,1.409V.059L1.24,0,.949.9H0l.7.506Z" transform="translate(23.169 106.284)" fill="#263238"/>
        <path id="Path-253" data-name="Path" d="M.789,0H.224L.3.055l-.3.9L.768.4.789.413h0V0Z" transform="translate(23.642 96.337)" fill="#263238"/>
        <path id="Path-254" data-name="Path" d="M.527,1.35l.7-.506H.274L0,0V1.35Z" transform="translate(13.074 106.343)" fill="#263238"/>
        <path id="Path-255" data-name="Path" d="M0,0V.413L.751.958l-.3-.9L.527,0Z" transform="translate(13.074 96.337)" fill="#263238"/>
        <path id="Path-256" data-name="Path" d="M.789,0H.224L.3.051l-.3.9L.768.4.789.409h0V0Z" transform="translate(23.642 107.693)" fill="#263238"/>
        <path id="Path-257" data-name="Path" d="M0,0V.409L.751.953l-.3-.9L.527,0Z" transform="translate(13.074 107.693)" fill="#263238"/>
        <path id="Path-258" data-name="Path" d="M.688.257V.165H0L.122.257Z" transform="translate(12.386 16.598)" fill="#263238"/>
        <path id="Path-259" data-name="Path" d="M.139.165V.257H.16L.283.165Z" transform="translate(2.088 16.598)" fill="#263238"/>
        <path id="Path-260" data-name="Path" d="M.472,2.362l.768-.557.768.557-.291-.9L2.485.9H1.536L1.24,0,.949.9H0l.768.557-.3.9Z" transform="translate(6.172 21.091)" fill="#263238"/>
        <path id="Path-261" data-name="Path" d="M1.261,1.409V.059L1.245,0l-.3.9H0l.7.506Z" transform="translate(11.813 26.799)" fill="#263238"/>
        <path id="Path-262" data-name="Path" d="M.219,0,.291.051,0,.953.768.4.785.409V0Z" transform="translate(12.289 16.855)" fill="#263238"/>
        <path id="Path-263" data-name="Path" d="M.717,0H0V.506H.021L.717,0Z" transform="translate(2.227 27.702)" fill="#263238"/>
        <path id="Path-264" data-name="Path" d="M.2.219.221.2H.2V.219Z" transform="translate(2.027 16.653)" fill="#263238"/>
        <path id="Path-265" data-name="Path" d="M.333.751.089,0V.574L.333.751Z" transform="translate(2.139 17.058)" fill="#263238"/>
        <path id="Path-266" data-name="Path" d="M.472,2.367l.768-.561.768.561L1.717,1.46,2.485.9H1.536L1.24,0,.949.9H0l.768.557-.3.907Z" transform="translate(6.172 32.444)" fill="#263238"/>
        <path id="Path-267" data-name="Path" d="M1.261,1.409V.055L1.245,0l-.3.9H0l.7.506Z" transform="translate(11.813 38.156)" fill="#263238"/>
        <path id="Path-268" data-name="Path" d="M.291.051,0,.958.768.4.785.413V0H.219L.291.051Z" transform="translate(12.289 28.208)" fill="#263238"/>
        <path id="Path-269" data-name="Path" d="M.717,0H0V.506H.021L.717,0Z" transform="translate(2.227 39.059)" fill="#263238"/>
        <path id="Path-270" data-name="Path" d="M.333.755.089,0V.578L.333.755Z" transform="translate(2.139 28.41)" fill="#263238"/>
        <path id="Path-271" data-name="Path" d="M.2.219.221.2H.2V.219Z" transform="translate(2.027 28.005)" fill="#263238"/>
        <path id="Path-272" data-name="Path" d="M.472,2.362l.768-.557.768.557-.291-.9L2.485.9H1.536L1.24,0,.949.9H0l.768.557-.3.9Z" transform="translate(6.172 43.8)" fill="#263238"/>
        <path id="Path-273" data-name="Path" d="M1.261,1.409V.059L1.245,0l-.3.9H0l.7.506Z" transform="translate(11.813 49.508)" fill="#263238"/>
        <path id="Path-274" data-name="Path" d="M.291.051,0,.953.768.4.785.409V0H.219L.291.051Z" transform="translate(12.289 39.565)" fill="#263238"/>
        <path id="Path-275" data-name="Path" d="M.717,0H0V.506H.021L.717,0Z" transform="translate(2.227 50.411)" fill="#263238"/>
        <path id="Path-276" data-name="Path" d="M.2.219.221.2H.2V.219Z" transform="translate(2.027 39.362)" fill="#263238"/>
        <path id="Path-277" data-name="Path" d="M.333.751.089,0V.574L.333.751Z" transform="translate(2.139 39.767)" fill="#263238"/>
        <path id="Path-278" data-name="Path" d="M.472,2.367l.768-.561.768.561-.291-.9L2.485.9H1.536L1.24,0,.949.9H0l.768.561-.3.9Z" transform="translate(6.172 55.153)" fill="#263238"/>
        <path id="Path-279" data-name="Path" d="M1.261,1.409V.055L1.245,0l-.3.9H0l.7.506Z" transform="translate(11.813 60.865)" fill="#263238"/>
        <path id="Path-280" data-name="Path" d="M.291.055,0,.958.768.4.785.413V0H.219L.291.055Z" transform="translate(12.289 50.918)" fill="#263238"/>
        <path id="Path-281" data-name="Path" d="M.717,0H0V.506H.021L.717,0Z" transform="translate(2.227 61.768)" fill="#263238"/>
        <path id="Path-282" data-name="Path" d="M.333.755.089,0V.578L.333.755Z" transform="translate(2.139 51.12)" fill="#263238"/>
        <path id="Path-283" data-name="Path" d="M.2.219.221.2H.2V.219Z" transform="translate(2.027 50.715)" fill="#263238"/>
        <path id="Path-284" data-name="Path" d="M.472,2.362l.768-.557.768.557-.291-.9L2.485.9H1.536L1.24,0,.949.9H0l.768.557-.3.9Z" transform="translate(6.172 66.51)" fill="#263238"/>
        <path id="Path-285" data-name="Path" d="M1.261,1.409V.059L1.245,0l-.3.9H0l.7.506Z" transform="translate(11.813 72.218)" fill="#263238"/>
        <path id="Path-286" data-name="Path" d="M.291.051,0,.953.768.4.785.409V0H.219L.291.051Z" transform="translate(12.289 62.274)" fill="#263238"/>
        <path id="Path-287" data-name="Path" d="M.717,0H0V.506H.021L.717,0Z" transform="translate(2.227 73.121)" fill="#263238"/>
        <path id="Path-288" data-name="Path" d="M.333.751.089,0V.574L.333.751Z" transform="translate(2.139 62.477)" fill="#263238"/>
        <path id="Path-289" data-name="Path" d="M.2.219.221.2H.2V.219Z" transform="translate(2.027 62.072)" fill="#263238"/>
        <path id="Path-290" data-name="Path" d="M.472,2.367l.768-.561.768.561-.291-.9L2.485.9H1.536L1.24,0,.949.9H0l.768.561-.3.9Z" transform="translate(6.172 77.863)" fill="#263238"/>
        <path id="Path-291" data-name="Path" d="M1.261,1.409V.059L1.245,0l-.3.9H0l.7.506Z" transform="translate(11.813 83.575)" fill="#263238"/>
        <path id="Path-292" data-name="Path" d="M.291.055,0,.958.768.4.785.413V0H.219L.291.055Z" transform="translate(12.289 73.627)" fill="#263238"/>
        <path id="Path-293" data-name="Path" d="M.717,0H0V.506H.021L.717,0Z" transform="translate(2.227 84.478)" fill="#263238"/>
        <path id="Path-294" data-name="Path" d="M.333.755.089,0V.578L.333.755Z" transform="translate(2.139 73.83)" fill="#263238"/>
        <path id="Path-295" data-name="Path" d="M.2.219.221.2H.2V.219Z" transform="translate(2.027 73.425)" fill="#263238"/>
        <path id="Path-296" data-name="Path" d="M.472,2.362l.768-.557.768.557-.291-.9L2.485.9H1.536L1.24,0,.949.9H0l.768.557-.3.9Z" transform="translate(6.172 89.22)" fill="#263238"/>
        <path id="Path-297" data-name="Path" d="M1.261,1.409V.059L1.245,0l-.3.9H0l.7.506Z" transform="translate(11.813 94.928)" fill="#263238"/>
        <path id="Path-298" data-name="Path" d="M.291.051,0,.953.768.4.785.409V0H.219L.291.051Z" transform="translate(12.289 84.984)" fill="#263238"/>
        <path id="Path-299" data-name="Path" d="M.717,0H0V.506H.021L.717,0Z" transform="translate(2.227 95.83)" fill="#263238"/>
        <path id="Path-300" data-name="Path" d="M.2.219.221.2H.2V.219Z" transform="translate(2.027 84.781)" fill="#263238"/>
        <path id="Path-301" data-name="Path" d="M.333.751.089,0V.574L.333.751Z" transform="translate(2.139 85.186)" fill="#263238"/>
        <path id="Path-302" data-name="Path" d="M.472,2.367,1.24,1.81l.768.557-.291-.9L2.485.9H1.536L1.24,0,.949.9H0l.768.561-.3.9Z" transform="translate(6.172 100.572)" fill="#263238"/>
        <path id="Path-303" data-name="Path" d="M1.261,1.409V.059L1.245,0l-.3.9H0l.7.506Z" transform="translate(11.813 106.284)" fill="#263238"/>
        <path id="Path-304" data-name="Path" d="M.291.055,0,.958.768.4.785.413V0H.219L.291.055Z" transform="translate(12.289 96.337)" fill="#263238"/>
        <path id="Path-305" data-name="Path" d="M.717,0H0V.506H.021L.717,0Z" transform="translate(2.227 107.187)" fill="#263238"/>
        <path id="Path-306" data-name="Path" d="M.333.751.089,0V.574L.333.751Z" transform="translate(2.139 96.543)" fill="#263238"/>
        <path id="Path-307" data-name="Path" d="M.2.219.221.2H.2V.219Z" transform="translate(2.027 96.134)" fill="#263238"/>
        <path id="Path-308" data-name="Path" d="M.785,0H.219L.291.051,0,.953.768.4.785.409V0Z" transform="translate(12.289 107.693)" fill="#263238"/>
        <path id="Path-309" data-name="Path" d="M.089,0V.574L.333.751.089,0Z" transform="translate(2.139 107.896)" fill="#263238"/>
        <path id="Path-310" data-name="Path" d="M.2.2V.219L.221.2Z" transform="translate(2.027 107.491)" fill="#263238"/>
        <rect id="Rectangle-3" data-name="Rectangle" width="26.076" height="93.488" transform="translate(51.832 16.763)" fill="none" stroke="#263238" stroke-linecap="round" stroke-linejoin="round" stroke-miterlimit="10" stroke-width="0.5"/>
        <path id="Path-311" data-name="Path" d="M14.8,8.283S7.169,4.153,3.988.972.491,3.2.491,6.06s-1.59,5.088.953,5.4S14.8,10.51,14.8,10.51Z" transform="translate(24.961 0)" fill="#adc7f7" stroke="#263238" stroke-linecap="round" stroke-linejoin="round" stroke-miterlimit="10" stroke-width="0.5"/>
        <path id="Path-312" data-name="Path" d="M0,8.283S7.632,4.153,10.813.972s3.5,2.223,3.5,5.088,1.59,5.088-.953,5.4S0,10.51,0,10.51Z" transform="translate(42.377 0)" fill="#adc7f7" stroke="#263238" stroke-linecap="round" stroke-linejoin="round" stroke-miterlimit="10" stroke-width="0.5"/>
        <rect id="Rectangle-4" data-name="Rectangle" width="3.008" height="3.008" transform="translate(39.538 7.73)" fill="#adc7f7" stroke="#263238" stroke-linecap="round" stroke-linejoin="round" stroke-miterlimit="10" stroke-width="0.5"/>
        <rect id="Rectangle-5" data-name="Rectangle" width="80.131" height="7.948" transform="translate(0 10.405)" fill="#263238" stroke="#263238" stroke-linecap="round" stroke-linejoin="round" stroke-miterlimit="10" stroke-width="0.5"/>
        <rect id="Rectangle-6" data-name="Rectangle" width="9.703" height="99.837" transform="translate(17.263 10.358)" fill="#adc7f7" stroke="#263238" stroke-linecap="round" stroke-linejoin="round" stroke-miterlimit="10" stroke-width="0.5"/>
        <rect id="Rectangle-7" data-name="Rectangle" width="15.879" height="9.328" transform="translate(29.581 41.401) rotate(-12.19)" fill="#adc7f7" stroke="#263238" stroke-linecap="round" stroke-linejoin="round" stroke-miterlimit="10" stroke-width="0.5"/>
        <rect id="Rectangle-8" data-name="Rectangle" width="9.703" height="99.837" transform="translate(71.478 110.199) rotate(180)" fill="#adc7f7" stroke="#263238" stroke-linecap="round" stroke-linejoin="round" stroke-miterlimit="10" stroke-width="0.5"/>
        <path id="Path-313" data-name="Path" d="M3.8,0A14.833,14.833,0,0,0,1.371,2.738C.105,4.531.633,7.7.633,9.7S0,18.347,0,18.347l3.9-4.43s3.586,5.168,3.586,4.746V5.712a7.45,7.45,0,0,1,1.16-4.219A5.007,5.007,0,0,1,10.863.017Z" transform="translate(23.169 10.358)" fill="#adc7f7" stroke="#263238" stroke-linecap="round" stroke-linejoin="round" stroke-miterlimit="10" stroke-width="0.5"/>
        <path id="Path-314" data-name="Path" d="M3.8,0A14.833,14.833,0,0,0,1.371,2.738C.105,4.531.633,7.7.633,9.7S0,18.347,0,18.347l3.9-4.43s3.586,5.168,3.586,4.746V5.712a7.45,7.45,0,0,1,1.16-4.219A5.007,5.007,0,0,1,10.863.017Z" transform="translate(31.89 10.358)" fill="#adc7f7" stroke="#263238" stroke-linecap="round" stroke-linejoin="round" stroke-miterlimit="10" stroke-width="0.5"/>
      </g>
      <g id="Group_9" data-name="Group 9" transform="translate(0 45.75)">
        <rect id="Rectangle-9" data-name="Rectangle" width="61.987" height="31.597" transform="translate(0 32.19)" fill="#fff" stroke="#263238" stroke-linecap="round" stroke-linejoin="round" stroke-miterlimit="10" stroke-width="0.75"/>
        <rect id="Rectangle-10" data-name="Rectangle" width="7.313" height="31.597" transform="translate(16.163 32.19)" fill="#adc7f7" stroke="#263238" stroke-linecap="round" stroke-linejoin="round" stroke-miterlimit="10" stroke-width="0.75"/>
        <rect id="Rectangle-11" data-name="Rectangle" width="21.36" height="31.597" transform="translate(40.635 32.19)" fill="#fff" stroke="#263238" stroke-linecap="round" stroke-linejoin="round" stroke-miterlimit="10" stroke-width="0.75"/>
        <rect id="Rectangle-12" data-name="Rectangle" width="7.313" height="31.597" transform="translate(46.507 32.19)" fill="#fff" stroke="#263238" stroke-linecap="round" stroke-linejoin="round" stroke-miterlimit="10" stroke-width="0.75"/>
        <rect id="Rectangle-13" data-name="Rectangle" width="61.987" height="31.597" transform="translate(44.048 32.19)" fill="#fff"/>
        <path id="Path-315" data-name="Path" d="M23.3,2.805V0L0,17.333H3.773L23.3,2.805Z" transform="translate(82.732 46.447)" fill="#adc7f7"/>
        <path id="Path-316" data-name="Path" d="M0,5.782v2.8L11.542,0H7.778L0,5.782Z" transform="translate(44.048 32.19)" fill="#adc7f7"/>
        <path id="Path-317" data-name="Path" d="M26.22,0H22.448L0,16.7v2.805L26.22,0Z" transform="translate(44.048 32.19)" fill="#adc7f7"/>
        <path id="Path-318" data-name="Path" d="M40.89,0H37.125L0,27.622v2.805L40.89,0Z" transform="translate(44.048 32.19)" fill="#adc7f7"/>
        <path id="Path-319" data-name="Path" d="M0,28.253H3.765l34.2-25.448V0L0,28.253Z" transform="translate(68.063 35.528)" fill="#adc7f7"/>
        <path id="Path-320" data-name="Path" d="M0,31.59H3.773L46.222,0H42.458L0,31.59Z" transform="translate(53.385 32.19)" fill="#adc7f7"/>
        <path id="Path-321" data-name="Path" d="M8.625,2.805V0L0,6.412H3.773L8.625,2.805Z" transform="translate(97.402 57.368)" fill="#adc7f7"/>
        <rect id="Rectangle-14" data-name="Rectangle" width="7.313" height="31.597" transform="translate(60.202 32.19)" fill="#263238" stroke="#263238" stroke-linecap="round" stroke-linejoin="round" stroke-miterlimit="10" stroke-width="0.75"/>
        <rect id="Rectangle-15" data-name="Rectangle" width="21.36" height="31.597" transform="translate(84.675 32.19)" fill="none" stroke="#263238" stroke-linecap="round" stroke-linejoin="round" stroke-miterlimit="10" stroke-width="0.75"/>
        <rect id="Rectangle-16" data-name="Rectangle" width="7.313" height="31.597" transform="translate(90.548 32.19)" fill="#263238" stroke="#263238" stroke-linecap="round" stroke-linejoin="round" stroke-miterlimit="10" stroke-width="0.75"/>
        <rect id="Rectangle-17" data-name="Rectangle" width="61.987" height="31.597" transform="translate(44.048 32.19)" fill="none" stroke="#263238" stroke-linecap="round" stroke-linejoin="round" stroke-miterlimit="10" stroke-width="0.75"/>
        <rect id="Rectangle-18" data-name="Rectangle" width="61.987" height="10.073" transform="translate(86.055 53.708)" fill="#adc7f7" stroke="#263238" stroke-linecap="round" stroke-linejoin="round" stroke-miterlimit="10" stroke-width="0.75"/>
        <rect id="Rectangle-19" data-name="Rectangle" width="7.313" height="10.073" transform="translate(102.21 53.708)" fill="#fff" stroke="#263238" stroke-linecap="round" stroke-linejoin="round" stroke-miterlimit="10" stroke-width="0.75"/>
        <rect id="Rectangle-20" data-name="Rectangle" width="21.36" height="10.073" transform="translate(126.683 53.708)" fill="#adc7f7" stroke="#263238" stroke-linecap="round" stroke-linejoin="round" stroke-miterlimit="10" stroke-width="0.75"/>
        <rect id="Rectangle-21" data-name="Rectangle" width="7.313" height="10.073" transform="translate(132.563 53.708)" fill="#fff" stroke="#263238" stroke-linecap="round" stroke-linejoin="round" stroke-miterlimit="10" stroke-width="0.75"/>
        <path id="Path-322" data-name="Path" d="M12.825,9.681S8.505-1.569,1.575.186,12.825,9.681,12.825,9.681Z" transform="translate(98.317 34.959)" fill="none" stroke="#263238" stroke-linecap="round" stroke-linejoin="round" stroke-miterlimit="10" stroke-width="0.75"/>
        <path id="Path-323" data-name="Path" d="M0,10.875S5.182-3.8,12.517.945,0,10.875,0,10.875Z" transform="translate(111.143 33.765)" fill="none" stroke="#263238" stroke-linecap="round" stroke-linejoin="round" stroke-miterlimit="10" stroke-width="0.75"/>
        <rect id="Rectangle-22" data-name="Rectangle" width="61.987" height="10.073" transform="translate(83.52 43.778)" fill="#adc7f7" stroke="#263238" stroke-linecap="round" stroke-linejoin="round" stroke-miterlimit="10" stroke-width="0.75"/>
        <rect id="Rectangle-23" data-name="Rectangle" width="7.313" height="10.073" transform="translate(99.675 43.778)" fill="#fff" stroke="#263238" stroke-linecap="round" stroke-linejoin="round" stroke-miterlimit="10" stroke-width="0.75"/>
        <rect id="Rectangle-24" data-name="Rectangle" width="21.36" height="10.073" transform="translate(124.147 43.778)" fill="#adc7f7" stroke="#263238" stroke-linecap="round" stroke-linejoin="round" stroke-miterlimit="10" stroke-width="0.75"/>
        <rect id="Rectangle-25" data-name="Rectangle" width="7.313" height="10.073" transform="translate(130.027 43.778)" fill="#fff" stroke="#263238" stroke-linecap="round" stroke-linejoin="round" stroke-miterlimit="10" stroke-width="0.75"/>
        <rect id="Rectangle-26" data-name="Rectangle" width="9.225" height="6.097" transform="translate(19.163 3.743)" fill="#fff" stroke="#263238" stroke-linecap="round" stroke-linejoin="round" stroke-miterlimit="10" stroke-width="0.75"/>
        <path id="Path-324" data-name="Path" d="M8.017,3.7,2.932,0,0,3.975,2.543,5.827,8.017,3.7Z" transform="translate(15.158 7.253)" fill="#fff" stroke="#263238" stroke-linecap="round" stroke-linejoin="round" stroke-miterlimit="10" stroke-width="0.75"/>
        <path id="Path-325" data-name="Path" d="M5.085,0,0,3.7l5.475,2.13L8.017,3.983,5.085,0Z" transform="translate(24.683 6.983)" fill="#fff" stroke="#263238" stroke-linecap="round" stroke-linejoin="round" stroke-miterlimit="10" stroke-width="0.75"/>
        <path id="Path-326" data-name="Path" d="M7.193,0H0L1.8,4.327H5.4L7.193,0Z" transform="translate(20.265 8.955)" fill="#fff" stroke="#263238" stroke-linecap="round" stroke-linejoin="round" stroke-miterlimit="10" stroke-width="0.75"/>
        <path id="Path-327" data-name="Path" d="M8.017,2.13l-5.085,3.7L0,1.845,2.543,0,8.017,2.13Z" transform="translate(15.158 0.27)" fill="#fff" stroke="#263238" stroke-linecap="round" stroke-linejoin="round" stroke-miterlimit="10" stroke-width="0.75"/>
        <path id="Path-328" data-name="Path" d="M5.077,5.827,0,2.13,5.468,0,8.01,1.852,5.077,5.827Z" transform="translate(24.945 0.683)" fill="#fff" stroke="#263238" stroke-linecap="round" stroke-linejoin="round" stroke-miterlimit="10" stroke-width="0.75"/>
        <path id="Path-329" data-name="Path" d="M7.193,4.327H0L1.8,0H5.4L7.193,4.327Z" transform="translate(20.265 0)" fill="#fff" stroke="#263238" stroke-linecap="round" stroke-linejoin="round" stroke-miterlimit="10" stroke-width="0.75"/>
        <path id="Path-330" data-name="Path" d="M5.94,0V5.227L0,3.922V1.3L5.94,0Z" transform="translate(14.483 4.028)" fill="#fff" stroke="#263238" stroke-linecap="round" stroke-linejoin="round" stroke-miterlimit="10" stroke-width="0.75"/>
        <path id="Path-331" data-name="Path" d="M0,0V5.227L5.94,3.922V1.3L0,0Z" transform="translate(27.135 4.028)" fill="#fff" stroke="#263238" stroke-linecap="round" stroke-linejoin="round" stroke-miterlimit="10" stroke-width="0.75"/>
        <rect id="Rectangle-27" data-name="Rectangle" width="47.243" height="24.083" transform="translate(0.915 7.77)" fill="#adc7f7" stroke="#263238" stroke-linecap="round" stroke-linejoin="round" stroke-miterlimit="10" stroke-width="0.75"/>
        <rect id="Rectangle-28" data-name="Rectangle" width="5.573" height="24.083" transform="translate(13.23 7.77)" fill="#fff" stroke="#263238" stroke-linecap="round" stroke-linejoin="round" stroke-miterlimit="10" stroke-width="0.75"/>
        <rect id="Rectangle-29" data-name="Rectangle" width="16.275" height="24.083" transform="translate(31.882 7.77)" fill="#adc7f7" stroke="#263238" stroke-linecap="round" stroke-linejoin="round" stroke-miterlimit="10" stroke-width="0.75"/>
        <rect id="Rectangle-30" data-name="Rectangle" width="5.573" height="24.083" transform="translate(36.36 7.77)" fill="#fff" stroke="#263238" stroke-linecap="round" stroke-linejoin="round" stroke-miterlimit="10" stroke-width="0.75"/>
      </g>
      <g id="Group_5" data-name="Group 5" transform="translate(206.25 64.5)">
        <rect id="Rectangle-31" data-name="Rectangle" width="13.17" height="8.7" transform="translate(26.032 5.332)" fill="#fff" stroke="#263238" stroke-linecap="round" stroke-linejoin="round" stroke-miterlimit="10" stroke-width="0.75"/>
        <path id="Path-332" data-name="Path" d="M11.438,3.037l-7.26,5.28L0,2.64,3.622,0l7.815,3.037Z" transform="translate(20.325 0.375)" fill="#fff" stroke="#263238" stroke-linecap="round" stroke-linejoin="round" stroke-miterlimit="10" stroke-width="0.75"/>
        <path id="Path-333" data-name="Path" d="M7.26,8.318,0,3.037,7.807,0l3.63,2.64L7.26,8.318Z" transform="translate(34.283 0.967)" fill="#fff" stroke="#263238" stroke-linecap="round" stroke-linejoin="round" stroke-miterlimit="10" stroke-width="0.75"/>
        <path id="Path-334" data-name="Path" d="M10.26,6.165H0L2.565,0H7.7L10.26,6.165Z" transform="translate(27.615 0)" fill="#fff" stroke="#263238" stroke-linecap="round" stroke-linejoin="round" stroke-miterlimit="10" stroke-width="0.75"/>
        <path id="Path-335" data-name="Path" d="M8.475,0V7.463L0,5.595V1.867L8.475,0Z" transform="translate(19.358 5.738)" fill="#fff" stroke="#263238" stroke-linecap="round" stroke-linejoin="round" stroke-miterlimit="10" stroke-width="0.75"/>
        <path id="Path-336" data-name="Path" d="M0,0V7.463L8.475,5.595V1.867L0,0Z" transform="translate(37.417 5.738)" fill="#fff" stroke="#263238" stroke-linecap="round" stroke-linejoin="round" stroke-miterlimit="10" stroke-width="0.75"/>
        <rect id="Rectangle-32" data-name="Rectangle" width="67.41" height="34.365" transform="translate(0 11.078)" fill="#adc7f7" stroke="#263238" stroke-linecap="round" stroke-linejoin="round" stroke-miterlimit="10" stroke-width="0.75"/>
        <rect id="Rectangle-33" data-name="Rectangle" width="7.95" height="34.365" transform="translate(17.573 11.078)" fill="#fff" stroke="#263238" stroke-linecap="round" stroke-linejoin="round" stroke-miterlimit="10" stroke-width="0.75"/>
        <rect id="Rectangle-34" data-name="Rectangle" width="23.228" height="34.365" transform="translate(44.19 11.078)" fill="#adc7f7" stroke="#263238" stroke-linecap="round" stroke-linejoin="round" stroke-miterlimit="10" stroke-width="0.75"/>
        <rect id="Rectangle-35" data-name="Rectangle" width="7.95" height="34.365" transform="translate(50.58 11.078)" fill="#fff" stroke="#263238" stroke-linecap="round" stroke-linejoin="round" stroke-miterlimit="10" stroke-width="0.75"/>
      </g>
      <g id="Group_7" data-name="Group 7" transform="translate(280.5 43.5)">
        <path id="Path-337" data-name="Path" d="M20.544,15.4S13.794-.725,6.669.025s-9,9.75-3.375,12.375S20.544,15.4,20.544,15.4Z" transform="translate(12.201 0)" fill="none" stroke="#263238" stroke-linecap="round" stroke-linejoin="round" stroke-miterlimit="10" stroke-width="2.25"/>
        <path id="Path-338" data-name="Path" d="M0,15.056S4.125-1.069,12.375.056s5.52,13.875,1.4,14.625S0,15.056,0,15.056Z" transform="translate(32.745 0.344)" fill="none" stroke="#263238" stroke-linecap="round" stroke-linejoin="round" stroke-miterlimit="10" stroke-width="2.25"/>
        <rect id="Rectangle-36" data-name="Rectangle" width="61.987" height="51.225" transform="translate(0.015 15.025)" fill="#fff"/>
        <path id="Path-339" data-name="Path" d="M14.655,16.778a209.565,209.565,0,0,0,17.13-13.7V0A194.791,194.791,0,0,1,13.313,15C7.253,19.5,2.37,23.122,0,26.25H2.963C5.543,23.542,10.012,20.228,14.655,16.778Z" transform="translate(30.21 40.03)" fill="#adc7f7"/>
        <path id="Path-340" data-name="Path" d="M16.695,13.59C9.7,19.44,3.945,24.375,0,28.462v3.33c4.35-4.935,12-11.333,18.142-16.5,6.675-5.58,12.975-10.86,15.5-14.25A6.825,6.825,0,0,0,34.305,0h-6.75c-2.5,1.4-6,3.517-10.935,6.563C11.257,9.863,5.145,13.613.03,16.4v2.55c5.317-2.82,11.775-6.787,17.768-10.5C22.733,5.415,28.17,2.07,31.125.592,28.343,3.848,22.673,8.6,16.695,13.59Z" transform="translate(0.015 15.025)" fill="#adc7f7"/>
        <path id="Path-341" data-name="Path" d="M19.3,0c-2.865,2.513-6,5.648-9.323,8.955C6.78,12.135,3.27,15.637,0,18.472H3.4c2.617-2.392,5.37-5.137,8.16-7.92,2.475-2.467,5.175-5.152,7.74-7.5Z" transform="translate(42.697 47.77)" fill="#adc7f7"/>
        <path id="Path-342" data-name="Path" d="M0,9.69C3.053,6.69,6.63,3.375,10.4,0H7.073C5.49,1.425,3.84,2.94,2.2,4.5L0,6.593Z" transform="translate(0.015 15.025)" fill="#adc7f7"/>
        <path id="Path-343" data-name="Path" d="M54.585,2.783V0c-3.975,2.88-9,6.675-15.217,11.475C26.43,21.405,9.87,34.1,0,38.678H4.9c8.88-4.95,21.158-14.153,35.835-25.418C45.225,9.81,50.167,6.023,54.585,2.783Z" transform="translate(7.41 27.565)" fill="#adc7f7"/>
        <path id="Path-344" data-name="Path" d="M44.873,0h-3.75c-4.5,3.473-11.04,9.21-20.558,17.782C13.74,23.94,5.07,31.755,0,35.467V38.16c4.162-2.708,11.025-8.745,22.073-18.7C29.67,12.585,39.322,3.885,44.873,0Z" transform="translate(0 15.063)" fill="#adc7f7"/>
        <path id="Path-345" data-name="Path" d="M49.342,2.737A23.6,23.6,0,0,0,50.5,0H48.1c-.195.5-.45,1.087-.787,1.808C41.37,14.25,25.792,25.913,13.283,35.25,7.245,39.75,2.783,43.155,0,45.908v3.3c2.445-3.053,8.61-7.658,14.625-12.15C27.337,27.563,43.162,15.75,49.342,2.737Z" transform="translate(0.015 15.063)" fill="#adc7f7"/>
        <rect id="Rectangle-37" data-name="Rectangle" width="7.313" height="51.225" transform="translate(16.17 15.025)" fill="#263238" stroke="#263238" stroke-linecap="round" stroke-linejoin="round" stroke-miterlimit="10" stroke-width="0.75"/>
        <rect id="Rectangle-38" data-name="Rectangle" width="21.36" height="51.225" transform="translate(40.643 15.025)" fill="none" stroke="#263238" stroke-linecap="round" stroke-linejoin="round" stroke-miterlimit="10" stroke-width="0.75"/>
        <rect id="Rectangle-39" data-name="Rectangle" width="7.313" height="51.225" transform="translate(46.515 15.025)" fill="#263238" stroke="#263238" stroke-linecap="round" stroke-linejoin="round" stroke-miterlimit="10" stroke-width="0.75"/>
        <path id="Path-346" data-name="Path" d="M0,32.278V9.778c0-7.5,3-9.75,3-9.75S5.423-.55,6.75,3.553s0,20.182,0,20.182" transform="translate(29.767 15.373)" fill="none" stroke="#263238" stroke-linecap="round" stroke-linejoin="round" stroke-miterlimit="10" stroke-width="2.25"/>
      </g>
      <rect id="Rectangle-40" data-name="Rectangle" width="61.987" height="51.225" transform="translate(280.5 58.5)" fill="none" stroke="#263238" stroke-linecap="round" stroke-linejoin="round" stroke-miterlimit="10" stroke-width="0.75"/>
    </g>
  </g>
</svg>
