<svg xmlns="http://www.w3.org/2000/svg" width="152.82" height="137.123" viewBox="0 0 152.82 137.123">
  <g id="Influencer-bro" transform="translate(-0.248 0.501)">
    <g id="freepik--background-simple--inject-165" transform="translate(0 5.406)">
      <path id="Path" d="M147.265,90.273s13.537-30.117-1.656-58.84S97.264-4.753,79.032,2.7s-31.217,30.939-48.9,38.7S-10.195,73.149,5,101.323s33.148,25.97,61.048,18.784S137.319,114.86,147.265,90.273Z" transform="translate(0.248 0.301)" fill="#f9fbff"/>
    </g>
    <g id="freepik--video-app--inject-165" transform="translate(19.306 81.469)">
      <path id="Path-2" data-name="Path" d="M122.008,28.3V26.239L118.9,23.752,86.285.624A3.053,3.053,0,0,0,83.563.1L2.094,16.74H.039L0,18.439a2.331,2.331,0,0,0,.274,1.243L28.287,51.73a3.113,3.113,0,0,0,2.784.517l89.8-22.781C121.73,29.277,122.174,28.771,122.008,28.3Z" transform="translate(0.154 2.504)" fill="#fff" stroke="#263238" stroke-linecap="round" stroke-linejoin="round" stroke-miterlimit="10" stroke-width="0.503"/>
      <path id="Path-3" data-name="Path" d="M120.782,29.469l-89.8,22.781a3.079,3.079,0,0,1-2.784-.521L.188,19.681c-.483-.548,0-1.2,1.046-1.459L83.476.1A3.041,3.041,0,0,1,86.2.622l35.572,27.4C122.249,28.565,121.805,29.214,120.782,29.469Z" transform="translate(0.241 0.165)" fill="#fff" stroke="#263238" stroke-linecap="round" stroke-linejoin="round" stroke-miterlimit="10" stroke-width="0.503"/>
      <path id="Path-4" data-name="Path" d="M89.8,3.238l-3.131-2.2c-.772-.9-2.8-1.282-4.5-.865L42.841,8.8l-40.862,9C-.337,18.284-.4,19.126.663,20.1L11.339,32.316,23.215,45.9,115.11,22.736Z" transform="translate(0.337 0.384)" fill="#263238" stroke="#263238" stroke-linecap="round" stroke-linejoin="round" stroke-miterlimit="10" stroke-width="0.503"/>
      <path id="Shape" d="M1.445,11.78c-3.637-4.135-.166-9.066,7.722-11C17.032-1.15,26.341.618,29.959,4.73s.216,9.031-7.664,10.988a28.108,28.108,0,0,1-6.734.8C9.679,16.518,4.073,14.769,1.445,11.78Z" transform="translate(42.063 13.726)" fill="#adc7f7"/>
      <path id="Path-5" data-name="Path" d="M86.663,2.085,2.544,23.383a1.963,1.963,0,0,1-1.722-.324l-.707-.807c-.3-.34,0-.749.641-.911L84.89.062a1.926,1.926,0,0,1,1.687.32l.7.8C87.574,1.514,87.3,1.915,86.663,2.085Z" transform="translate(29.665 25.715)" fill="#adc7f7" stroke="#263238" stroke-linecap="round" stroke-linejoin="round" stroke-miterlimit="10" stroke-width="0.503"/>
      <path id="Path-6" data-name="Path" d="M5,.787A3.864,3.864,0,0,0,1.521.134C.2.463-.364,1.293.243,1.976a3.875,3.875,0,0,0,3.475.653C5.034,2.3,5.6,1.474,5,.787Z" transform="translate(31.781 45.855)" fill="#263238" stroke="#263238" stroke-linecap="round" stroke-linejoin="round" stroke-miterlimit="10" stroke-width="0.503"/>
    </g>
    <g id="freepik--Icons--inject-165" transform="translate(13.9 2.703)">
      <path id="Path-7" data-name="Path" d="M8.039,6.219a1.815,1.815,0,0,1,.247,0,.954.954,0,1,0,0-1.907H4.672S4.9,3.007,4.9,2.559A2.6,2.6,0,0,0,4.51.586C3.9-.271,2.533.065,2.533.065l.212,1.768a1.413,1.413,0,0,1-.154.811L.969,5.69l-.745.633L0,10.088a3.16,3.16,0,0,0,2.012,1.525H6.881a.985.985,0,0,0,1.012-.954.946.946,0,0,0-.459-.8,1.023,1.023,0,0,0,1.2-.938.938.938,0,0,0-.448-.772.973.973,0,0,0,.842-.942A.988.988,0,0,0,8.039,6.219Z" transform="translate(15.128 51.161)" fill="#fff"/>
      <path id="Shape-2" data-name="Shape" d="M7.03,11.905H2.119A3.177,3.177,0,0,1,0,10.288a.2.2,0,0,1,0-.066L.227,6.461a.163.163,0,0,1,.054-.108L1,5.739l1.61-3.023A1.194,1.194,0,0,0,2.749,2L2.54.226A.15.15,0,0,1,2.651.064c.062,0,1.487-.348,2.132.582A2.384,2.384,0,0,1,5.2,2.43V2.7a14.525,14.525,0,0,1-.2,1.6H8.49a1.135,1.135,0,0,1,1.12,1.1,1.113,1.113,0,0,1-.734,1.028,1.08,1.08,0,0,1,.482.892,1.1,1.1,0,0,1-.679,1.007,1.055,1.055,0,0,1,.29.726,1.124,1.124,0,0,1-.961,1.089,1.055,1.055,0,0,1,.22.648,1.134,1.134,0,0,1-1.134,1.106Z" transform="translate(14.978 51.004)" fill="#263238"/>
      <rect id="Rectangle" width="3.938" height="7.267" rx="0.826" transform="translate(11.854 56.087)" fill="#263238"/>
      <path id="Path-8" data-name="Path" d="M6.424,5.734c-.027,0,.081.031.166.073A.687.687,0,1,0,7.2,4.579h0L4.887,3.421A12.618,12.618,0,0,0,5.6,2.367,1.931,1.931,0,0,0,5.984.973C5.876.232,4.88,0,4.88,0L4.443,1.193a.965.965,0,0,1-.359.471L2.057,3.1l-.683.17L0,5.618a2.292,2.292,0,0,0,.8,1.633L3.9,8.8l.058.031a.707.707,0,0,0,.958-.286.68.68,0,0,0-.039-.664l.116.073a.714.714,0,0,0,.961-.29.668.668,0,0,0-.035-.653.7.7,0,0,0,.846-.336.71.71,0,0,0-.336-.938Z" transform="translate(94.98 3.17)" fill="#fff"/>
      <path id="Shape-3" data-name="Shape" d="M4.015,9.034,3.954,9,.865,7.455a.037.037,0,0,1-.02,0A2.344,2.344,0,0,1,0,5.733a.1.1,0,0,1,0-.047L1.363,3.339a.092.092,0,0,1,.066-.05l.664-.166L4.1,1.7a.865.865,0,0,0,.32-.421l.436-1.2A.108.108,0,0,1,4.988,0C5.031,0,6.054.258,6.17,1.065A1.752,1.752,0,0,1,5.9,2.343c-.039.062-.074.12-.1.17a10.841,10.841,0,0,1-.644.969L7.367,4.59l.031.023a.811.811,0,0,1,.363,1.069.8.8,0,0,1-.8.425.769.769,0,0,1,.023.734.792.792,0,0,1-.772.425.787.787,0,0,1-.05.563.817.817,0,0,1-.973.386.729.729,0,0,1-.066.487.815.815,0,0,1-1.1.332Z" transform="translate(94.876 3.063)" fill="#263238"/>
      <rect id="Rectangle-2" data-name="Rectangle" width="2.834" height="5.232" rx="0.826" transform="matrix(0.894, 0.448, -0.448, 0.894, 94.548, 4.429)" fill="#263238"/>
      <path id="Path-9" data-name="Path" d="M7.664,5.365a1.164,1.164,0,0,1,.247-.054.954.954,0,1,0-.317-1.88h0l-3.568.6a17.618,17.618,0,0,0-.066-1.765A2.633,2.633,0,0,0,3.267.38C2.537-.346,1.232.191,1.232.191l.5,1.71a1.39,1.39,0,0,1,0,.822L.629,5.99,0,6.739l.386,3.749a3.142,3.142,0,0,0,2.236,1.158l4.73-.8h.093A.985.985,0,0,0,8.282,9.74a.942.942,0,0,0-.587-.71,1.015,1.015,0,0,0,.189,0,.981.981,0,0,0,.842-1.108.938.938,0,0,0-.575-.707.973.973,0,0,0,.676-1.066.988.988,0,0,0-1.162-.784Z" transform="translate(96.671 48.247)" fill="#fff"/>
      <path id="Shape-4" data-name="Shape" d="M2.743,11.977A3.275,3.275,0,0,1,.388,10.733a.118.118,0,0,1,0-.061L0,6.923a.142.142,0,0,1,.031-.112l.614-.726L1.735,2.838a1.214,1.214,0,0,0,0-.734L1.238.393A.153.153,0,0,1,1.322.212c.058-.023,1.406-.587,2.2.224a2.4,2.4,0,0,1,.707,1.691c.005.092.016.183.031.274a14.581,14.581,0,0,1,.07,1.61l3.389-.567h.05a1.131,1.131,0,0,1,1.286.9A1.1,1.1,0,0,1,8.5,5.479a1.077,1.077,0,0,1,.12,1.907,1.061,1.061,0,0,1,.386.671A1.126,1.126,0,0,1,8.233,9.29a1.054,1.054,0,0,1,.325.6A1.135,1.135,0,0,1,7.6,11.2H7.5l-4.722.772Z" transform="translate(96.538 48.048)" fill="#263238"/>
      <rect id="Rectangle-3" data-name="Rectangle" width="3.938" height="7.267" rx="0.826" transform="translate(92.976 54.212) rotate(-9.51)" fill="#263238"/>
      <path id="Path-10" data-name="Path" d="M6.184.42a3,3,0,0,0-1.456,2.9A3.008,3.008,0,0,0,.415,7.316C1.412,9,3.427,9.532,5.223,9.783c.8.112,1.6.193,2.4.259l1.108.1.479-1.039c.328-.737.645-1.479.931-2.228.649-1.7,1.158-3.714.162-5.406A3.008,3.008,0,0,0,6.184.42Z" transform="translate(47.323 0.124)" fill="#263238"/>
      <path id="Path-11" data-name="Path" d="M9.214,2a3,3,0,0,0-3.162.753,3,3,0,0,0-5.83-.734c-.649,1.846.239,3.73,1.2,5.267.429.683.88,1.348,1.344,2.008.062.085.633.915.633.915s1-.274,1.1-.305c.772-.22,1.544-.456,2.317-.718,1.714-.595,3.591-1.5,4.247-3.348A3.008,3.008,0,0,0,9.214,2Z" transform="translate(103.19 37.336)" fill="#263238"/>
      <path id="Path-12" data-name="Path" d="M7.527.1A3,3,0,0,0,5.334,2.5,3,3,0,0,0,.1,5.171c.5,1.892,2.317,2.95,3.958,3.68.737.324,1.487.622,2.239.9l1.039.386s.676-.792.741-.873C8.6,8.65,9.1,8.021,9.581,7.376,10.662,5.92,11.7,4.117,11.2,2.225A3.008,3.008,0,0,0,7.527.1Z" transform="translate(0.38 68.07)" fill="#263238"/>
      <path id="Path-13" data-name="Path" d="M5.817,1.261a1.888,1.888,0,0,0-2,.475,1.9,1.9,0,0,0-3.68-.463A3.9,3.9,0,0,0,.914,4.6c.27.429.556.849.849,1.266l.386.575.7-.189c.487-.139.973-.29,1.456-.456A3.967,3.967,0,0,0,6.979,3.682,1.9,1.9,0,0,0,5.817,1.261Z" transform="translate(12.62 30.616)" fill="#263238"/>
      <path id="Path-14" data-name="Path" d="M5.819,1.261a1.9,1.9,0,0,0-2,.475A1.9,1.9,0,0,0,.14,1.273,3.907,3.907,0,0,0,.912,4.6c.266.429.556.849.849,1.266l.386.575.7-.189c.49-.139.977-.286,1.456-.456a3.974,3.974,0,0,0,2.68-2.112A1.9,1.9,0,0,0,5.819,1.261Z" transform="translate(29.093 78.494)" fill="#263238"/>
    </g>
    <g id="freepik--Character--inject-165" transform="translate(14.672)">
      <path id="Path-15" data-name="Path" d="M4.915.072S.545,4.621.1,6.852s.622,4.193,2.409,3.656S5.9,4.443,6.344,3.462s.981-2.054.981-2.054S5.993-.376,4.915.072Z" transform="translate(32.618 105.271)" fill="#adc7f7" stroke="#263238" stroke-linecap="round" stroke-linejoin="round" stroke-miterlimit="10" stroke-width="0.503"/>
      <path id="Path-16" data-name="Path" d="M.06.182C-.268,2.31.786,4.117,2.508,3.6A3.875,3.875,0,0,0,4.257,1.638,3.511,3.511,0,0,0,.06.182Z" transform="translate(32.621 112.176)" fill="#fff" stroke="#263238" stroke-linecap="round" stroke-linejoin="round" stroke-miterlimit="10" stroke-width="0.503"/>
      <path id="Path-17" data-name="Path" d="M4.879.409c-.973,1.336-2.228,2.772-3.17,2.521S.269.911.1,0c-.44,2.224.629,4.178,2.413,3.645C3.381,3.386,4.207,1.938,4.879.409Z" transform="translate(32.616 112.134)" fill="#fff" stroke="#263238" stroke-linecap="round" stroke-linejoin="round" stroke-miterlimit="10" stroke-width="0.503"/>
      <path id="Path-18" data-name="Path" d="M2.053.788S.092-.286,0,.073,1.876,1.409,2.146,1.409,2.59,1.321,2.053.788Z" transform="translate(36.373 107.053)" fill="#fff" stroke="#263238" stroke-linecap="round" stroke-linejoin="round" stroke-miterlimit="10" stroke-width="0.503"/>
      <path id="Path-19" data-name="Path" d="M2.053.784S.092-.285,0,.074,1.876,1.41,2.142,1.41,2.59,1.321,2.053.784Z" transform="translate(35.929 107.678)" fill="#fff" stroke="#263238" stroke-linecap="round" stroke-linejoin="round" stroke-miterlimit="10" stroke-width="0.503"/>
      <path id="Path-20" data-name="Path" d="M2.053.787S.092-.283,0,.072s1.873,1.34,2.143,1.34S2.59,1.323,2.053.787Z" transform="translate(35.481 108.301)" fill="#fff" stroke="#263238" stroke-linecap="round" stroke-linejoin="round" stroke-miterlimit="10" stroke-width="0.503"/>
      <path id="Path-21" data-name="Path" d="M2.057.787S.1-.283,0,.072s1.877,1.34,2.143,1.34S2.594,1.323,2.057.787Z" transform="translate(35.033 108.927)" fill="#fff" stroke="#263238" stroke-linecap="round" stroke-linejoin="round" stroke-miterlimit="10" stroke-width="0.503"/>
      <path id="Path-22" data-name="Path" d="M2.994,0S.678,1.784.141,3.035.674,4.641,2.1,4.907,4.867,6.691,6.828,7.224s4.463.355,3.66-.892S7.1,3.475,6.651,2.761a11.22,11.22,0,0,1-.722-1.332Z" transform="translate(67.818 102.397)" fill="#adc7f7" stroke="#263238" stroke-linecap="round" stroke-linejoin="round" stroke-miterlimit="10" stroke-width="0.503"/>
      <path id="Path-23" data-name="Path" d="M3.823,1.108A6.058,6.058,0,0,0,2.807,0,4.3,4.3,0,0,0,0,1.95L.162,2C2.127,2.533,4.626,2.355,3.823,1.108Z" transform="translate(74.485 107.625)" fill="#fff" stroke="#263238" stroke-linecap="round" stroke-linejoin="round" stroke-miterlimit="10" stroke-width="0.503"/>
      <path id="Path-24" data-name="Path" d="M1.929,0S-.387.448.057.8,2.377.448,1.929,0Z" transform="translate(72.451 104.806)" fill="#fff" stroke="#263238" stroke-linecap="round" stroke-linejoin="round" stroke-miterlimit="10" stroke-width="0.503"/>
      <path id="Path-25" data-name="Path" d="M1.929,0S-.387.444.057.8,2.377.444,1.929,0Z" transform="translate(73.166 105.254)" fill="#fff" stroke="#263238" stroke-linecap="round" stroke-linejoin="round" stroke-miterlimit="10" stroke-width="0.503"/>
      <path id="Path-26" data-name="Path" d="M1.929,0S-.387.448.057.8,2.377.448,1.929,0Z" transform="translate(73.521 105.698)" fill="#fff" stroke="#263238" stroke-linecap="round" stroke-linejoin="round" stroke-miterlimit="10" stroke-width="0.503"/>
      <path id="Path-27" data-name="Path" d="M1.929,0S-.387.444.057.8,2.377.444,1.929,0Z" transform="translate(74.235 106.323)" fill="#fff" stroke="#263238" stroke-linecap="round" stroke-linejoin="round" stroke-miterlimit="10" stroke-width="0.503"/>
      <path id="Path-28" data-name="Path" d="M10.626,3.382a6.531,6.531,0,0,1-4.869-.714A30.565,30.565,0,0,0,1.475.707,6.12,6.12,0,0,1,.043,0C-.223,1.027.784,1.351,2.1,1.6c1.429.266,2.765,1.784,4.726,2.317C8.588,4.4,10.765,4.3,10.626,3.382Z" transform="translate(67.82 105.706)" fill="#fff" stroke="#263238" stroke-linecap="round" stroke-linejoin="round" stroke-miterlimit="10" stroke-width="0.503"/>
      <path id="Path-29" data-name="Path" d="M16.771.788s-3.209,14.479-3.834,17.958-.892,5.622-.892,5.622a20.452,20.452,0,0,0-4.633,5.44C5.095,33.553.006,41.052.006,41.052a1.7,1.7,0,0,0,1.429,1.784s.8.355,1.251,0,15.7-14.452,17.483-17.4,5.444-13.205,5.444-13.205l2.317-.444L42.737,25.526,32.744,38.268s-.355.714.625,1.34a3.883,3.883,0,0,0,3.3,0c.8-.355,14.9-14.186,14.989-15.166a5.133,5.133,0,0,0-.8-2.5c-.178-.355-14.363-19.306-14.363-19.306l-.8-2.05s-9.367,1.07-13.56.266S17.13-.548,16.771.788Z" transform="translate(37.536 64.291)" fill="#fff" stroke="#263238" stroke-linecap="round" stroke-linejoin="round" stroke-miterlimit="10" stroke-width="0.503"/>
      <path id="Path-30" data-name="Path" d="M0,1.517,5.085,0" transform="translate(65.461 74.562)" fill="none" stroke="#263238" stroke-linecap="round" stroke-linejoin="round" stroke-miterlimit="10" stroke-width="0.503"/>
      <path id="Path-31" data-name="Path" d="M0,.8,6.958,0" transform="translate(65.994 75.543)" fill="none" stroke="#263238" stroke-linecap="round" stroke-linejoin="round" stroke-miterlimit="10" stroke-width="0.503"/>
      <path id="Path-32" data-name="Path" d="M0,0,3.035,2.5" transform="translate(80.269 89.817)" fill="none" stroke="#263238" stroke-linecap="round" stroke-linejoin="round" stroke-miterlimit="10" stroke-width="0.503"/>
      <path id="Path-33" data-name="Path" d="M3.058,0,0,1.019s4.807-.147,4.954.436S2.039,4.371,2.039,4.371" transform="translate(63.778 69.766)" fill="none" stroke="#263238" stroke-linecap="round" stroke-linejoin="round" stroke-miterlimit="10" stroke-width="0.503"/>
      <path id="Path-34" data-name="Path" d="M2.185,0S3.807,2.788,0,4.371" transform="translate(53.724 67.871)" fill="none" stroke="#263238" stroke-linecap="round" stroke-linejoin="round" stroke-miterlimit="10" stroke-width="0.503"/>
      <path id="Path-35" data-name="Path" d="M25.215.17S12.315-.12,11.7.058s-7.761,9.1-8.564,9.9S.191,12.278.013,13.436s1.429,5,3.212,5,5-3.568,5-3.568S3.94,29.672,4.118,30.309s3.212,2.05,9.993,2.853,9.653-2.05,9.815-2.942a7.928,7.928,0,0,0-.181-2.409l2.317-4.1s4.1,3.062,5.977,1.722,1.873-5.444,2.765-6.691,3.035-7.938,2.317-8.83S25.215.17,25.215.17Z" transform="translate(49.934 35.492)" fill="#adc7f7" stroke="#263238" stroke-linecap="round" stroke-linejoin="round" stroke-miterlimit="10" stroke-width="0.503"/>
      <path id="Path-36" data-name="Path" d="M9.22,1.213S6.721-.6,6.366.205A38.785,38.785,0,0,1,1.984,7.345C.277,9.217-.6,11,.466,12.43a18.039,18.039,0,0,0,2.587,2.676" transform="translate(72.922 44.085)" fill="none" stroke="#263238" stroke-linecap="round" stroke-linejoin="round" stroke-miterlimit="10" stroke-width="0.503"/>
      <path id="Path-37" data-name="Path" d="M0,10.707,3.212,0" transform="translate(58.145 39.654)" fill="none" stroke="#263238" stroke-linecap="round" stroke-linejoin="round" stroke-miterlimit="10" stroke-width="0.503"/>
      <path id="Path-38" data-name="Path" d="M19.9,7.462s-4.73-.537-6.78-2.587S9.993.77,6.425.241A21.487,21.487,0,0,0,0,.241L.892,4.875s4.286-1.606,6.425-.359,3.212,4.371,6.155,5.174a25.538,25.538,0,0,0,6.691.625Z" transform="translate(52.693 28.713)" fill="#263238" stroke="#263238" stroke-linecap="round" stroke-linejoin="round" stroke-miterlimit="10" stroke-width="0.503"/>
      <path id="Path-39" data-name="Path" d="M21.236.347a5.328,5.328,0,0,1,1.7,2.765c.355,1.7-1.251,3.745-2.5,4.907s-2.5,1.7-5.711,2.139S8.657,7.3,6.514,6.949,0,9,0,9L.9,5.162A10.251,10.251,0,0,1,7.317,3.826c3.749.444,6.247,3.124,7.672,3.475S19,6.853,19.541,4.8,19.36.876,20.255.254,21.236.347,21.236.347Z" transform="translate(55.287 36.631)" fill="#263238" stroke="#263238" stroke-linecap="round" stroke-linejoin="round" stroke-miterlimit="10" stroke-width="0.503"/>
      <path id="Path-40" data-name="Path" d="M7.763.115A7.427,7.427,0,0,0,4.106,2.431C3.037,4.034-.087,13.4,0,14.208s4.1,0,4.1,0S1.342,20,1.342,20.988,2.589,22.505,4.2,22.146s7.077-9.776,7.077-9.776,1.622,1.884,2.645,1.239c1.158-.741.8-2.232-.089-2.232s2.5-3.656,1.34-6.066S8.844-.688,7.763.115Z" transform="translate(68.301 20.268)" fill="#fff" stroke="#263238" stroke-linecap="round" stroke-linejoin="round" stroke-miterlimit="10" stroke-width="0.503"/>
      <path id="Path-41" data-name="Path" d="M5.282,2.655s-5,0-5.263,2.409S2.336,8.539,5.193,8.1s5.44-.266,5.792.178S7.51,9.613,8.4,10.238a2.9,2.9,0,0,0,1.784.533s-1.251.359-1.158,1.251.869,4.834,1.49,4.834,1.811-.081,1.811-.081a11.425,11.425,0,0,0,3.035-2.228,4.85,4.85,0,0,0,0-6.247c-1.7-1.784-3.035-3.506-4.371-4.931S8.4.423,5.726.068,1.617.778,5.282,2.655Z" transform="translate(69.813 14.875)" fill="#263238" stroke="#263238" stroke-linecap="round" stroke-linejoin="round" stroke-miterlimit="10" stroke-width="0.503"/>
      <path id="Path-42" data-name="Path" d="M.15,0A5.718,5.718,0,0,1,.2,1.583" transform="translate(85.362 26.738)" fill="none" stroke="#fff" stroke-linecap="round" stroke-linejoin="round" stroke-miterlimit="10" stroke-width="0.503"/>
      <path id="Path-43" data-name="Path" d="M3.873,0S-1.6.533.467,1.579,5.7.668,9.692,2.243a5.139,5.139,0,0,1,3,2.873" transform="translate(72.469 20.344)" fill="none" stroke="#fff" stroke-linecap="round" stroke-linejoin="round" stroke-miterlimit="10" stroke-width="0.503"/>
      <path id="Path-44" data-name="Path" d="M0,0S3.741,1.83,4.247,4.487" transform="translate(79.666 24.499)" fill="none" stroke="#fff" stroke-linecap="round" stroke-linejoin="round" stroke-miterlimit="10" stroke-width="0.503"/>
      <path id="Path-45" data-name="Path" d="M0,1.251S4.282.981,5.44,0" transform="translate(72.419 33.229)" fill="none" stroke="#263238" stroke-linecap="round" stroke-linejoin="round" stroke-miterlimit="10" stroke-width="0.503"/>
      <path id="Path-46" data-name="Path" d="M0,0A58.977,58.977,0,0,1,10.17.717,6.324,6.324,0,0,1,8.46,3.544a3.614,3.614,0,0,1-3.375-.151c-.448-.359-.8-2.5-.8-2.5H3.568L3.212,1.968s-.27,1.425-1.251,1.425S0,3.215,0,0Z" transform="translate(68.315 24.839)" fill="#adc7f7" stroke="#263238" stroke-linecap="round" stroke-linejoin="round" stroke-miterlimit="10" stroke-width="0.503"/>
      <path id="Path-47" data-name="Path" d="M3.317.253A5.819,5.819,0,0,0,0,.23c.255,1.877,1.066,2,1.88,2,.981,0,1.251-1.425,1.251-1.425Z" transform="translate(68.396 26.003)" fill="#263238" stroke="#263238" stroke-linecap="round" stroke-linejoin="round" stroke-miterlimit="10" stroke-width="0.503"/>
      <path id="Path-48" data-name="Path" d="M5.054.687C3.444-.8,1.826.652,0,.25A3.757,3.757,0,0,0,.618,1.837a3.618,3.618,0,0,0,3.375.151A3.761,3.761,0,0,0,5.054.687Z" transform="translate(72.782 26.395)" fill="#263238" stroke="#263238" stroke-linecap="round" stroke-linejoin="round" stroke-miterlimit="10" stroke-width="0.503"/>
      <path id="Path-49" data-name="Path" d="M.375,0l4.05,6.247-.394-.154L0,1.077.375,0Z" transform="translate(78.11 25.557)" fill="#adc7f7" stroke="#263238" stroke-linecap="round" stroke-linejoin="round" stroke-miterlimit="10" stroke-width="0.503"/>
      <path id="Path-50" data-name="Path" d="M0,.985S3.124,1.877,4.016,0" transform="translate(71.079 29.927)" fill="none" stroke="#263238" stroke-linecap="round" stroke-linejoin="round" stroke-miterlimit="10" stroke-width="0.503"/>
      <path id="Path-51" data-name="Path" d="M0,0,1.34.537" transform="translate(74.558 29.572)" fill="none" stroke="#263238" stroke-linecap="round" stroke-linejoin="round" stroke-miterlimit="10" stroke-width="0.503"/>
      <path id="Path-52" data-name="Path" d="M2.765,0S0,.355,0,.8,1.784,2.5,1.784,2.5" transform="translate(69.295 26.808)" fill="#fff" stroke="#263238" stroke-linecap="round" stroke-linejoin="round" stroke-miterlimit="10" stroke-width="0.503"/>
      <path id="Path-53" data-name="Path" d="M3.161,0A1.158,1.158,0,0,0,2.18.446,16.253,16.253,0,0,0,.1,3.921C-.473,5.438,1.535,8.168,3.6,7.215c1.027-.463,1.282-.058,2.444-1.487A5.244,5.244,0,0,0,7.443,2.755c0-.444.8-.448-.892.355S1.466,2.589,3.161,0Z" transform="translate(68.544 35.995)" fill="#263238" stroke="#263238" stroke-linecap="round" stroke-linejoin="round" stroke-miterlimit="10" stroke-width="0.503"/>
      <path id="Path-54" data-name="Path" d="M6.882.232a3.008,3.008,0,0,0-1.838,2.7A3,3,0,0,0,.237,6.31c.772,1.8,2.7,2.6,4.429,3.089.772.216,1.544.386,2.344.583.1,0,1.085.251,1.085.251s.556-.876.614-.965c.425-.683.838-1.378,1.224-2.085.869-1.591,1.645-3.525.888-5.328A3.012,3.012,0,0,0,6.882.232Z" transform="translate(8.562 5.922)" fill="#263238"/>
      <path id="Path-55" data-name="Path" d="M9.23,2.072a3,3,0,0,0-3.174.707A3,3,0,0,0,.241,1.967C-.434,3.8.427,5.7,1.369,7.249c.417.687.861,1.359,1.317,2.023l.622.927,1.108-.29c.772-.212,1.544-.436,2.317-.687,1.722-.571,3.61-1.456,4.286-3.29A3,3,0,0,0,9.23,2.072Z" transform="translate(23.408 11.442)" fill="#263238"/>
      <path id="Path-56" data-name="Path" d="M8.047,6.233a1.367,1.367,0,0,1,.247,0,.954.954,0,1,0,0-1.907H4.68S4.9,3.021,4.9,2.573A2.6,2.6,0,0,0,4.518.6C3.907-.257,2.533.056,2.533.056l.212,1.768a1.4,1.4,0,0,1-.154.811L.969,5.681l-.745.633L0,10.079a3.219,3.219,0,0,0,2.012,1.544H6.888A.988.988,0,0,0,7.9,10.666a.95.95,0,0,0-.459-.8.973.973,0,0,0,.185,0,.985.985,0,0,0,1.012-.954.946.946,0,0,0-.448-.8.969.969,0,0,0,.842-.938.985.985,0,0,0-.985-.946Z" transform="translate(22.842 5.736)" fill="#fff"/>
      <path id="Shape-5" data-name="Shape" d="M7.03,11.91H2.119A3.178,3.178,0,0,1,0,10.3a.2.2,0,0,1,0-.066L.227,6.466a.153.153,0,0,1,.054-.1L1,5.743l1.61-3.02A1.2,1.2,0,0,0,2.748,2L2.528.226A.15.15,0,0,1,2.64.064c.062,0,1.487-.348,2.131.582A2.38,2.38,0,0,1,5.188,2.43V2.7a14.284,14.284,0,0,1-.2,1.6H8.428a.119.119,0,0,1,.05,0,1.132,1.132,0,0,1,1.12,1.1,1.108,1.108,0,0,1-.733,1.027,1.083,1.083,0,0,1,.482.9,1.1,1.1,0,0,1-.68,1,1.062,1.062,0,0,1,.29.73,1.12,1.12,0,0,1-.962,1.085,1.064,1.064,0,0,1,.22.649A1.135,1.135,0,0,1,7.08,11.911Z" transform="translate(22.701 5.566)" fill="#263238"/>
      <rect id="Rectangle-4" data-name="Rectangle" width="3.938" height="7.267" rx="0.826" transform="translate(19.576 10.653)" fill="#263238"/>
      <path id="Shape-6" data-name="Shape" d="M33.834,22.968h-.386a33.821,33.821,0,0,1-3.989-.521H29.4l-.13-.023-.136-.031h-.066a25.254,25.254,0,0,1-3.367-.934c-.37-.131-.737-.274-1.1-.417l-.1-.039-.077-.031-.127-.054-.069-.027c-1.267-.5-2.483-1.046-3.672-1.606l-.093-.043-.081-.038q-1.162-.545-2.344-1.121t-2.294-1.1l-.29-.135a33.013,33.013,0,0,0-4.139-1.661l-.277-.081a13.734,13.734,0,0,0-1.444-.34L7.93,14.624l-.406-.034a36.861,36.861,0,0,0-3.861.127l-.742.062L2,14.848H1.825c-.313.023-.58.023-.8.023H.706a.975.975,0,0,1-.583-.2A.385.385,0,0,1,0,14.462a.463.463,0,0,1,0-.1.555.555,0,0,1,0-.077,1.375,1.375,0,0,1,.155-.344,13.9,13.9,0,0,1,2.27-2.587l.113-.1.046-.047.128-.12A33.57,33.57,0,0,1,5.8,8.551l.166-.12.155-.112a31.471,31.471,0,0,1,3.7-2.282l.12-.061L10,5.941l.07-.035.1-.049a21.356,21.356,0,0,1,3.792-1.5l.3-.081h.046l.143-.039h.054L14.64,4.2a24.638,24.638,0,0,1,4.444-.688h.386a32.942,32.942,0,0,1,4.108.07h.386c1.1.088,2.174.216,3.208.351l.366.042.425.054c1.008.128,2,.255,2.939.34L31.2,4.4c.355.031.71.073,1.05.073a10.521,10.521,0,0,0,3.2-.42l.236-.066A24.791,24.791,0,0,0,40.212,2.1L40.4,2l.17-.093A33.254,33.254,0,0,0,43.656.033a.2.2,0,0,1,.192-.015.2.2,0,0,1,.113.155l1.56,15.058a.2.2,0,1,1,.1.386.045.045,0,0,1-.031,0H45.56l.3,2.912a.051.051,0,0,1,0,.023l.2,1.931a.2.2,0,0,1-.05.061,6.709,6.709,0,0,1-2.946,1.595l-.1.031-.088.027h-.05l-.135.039a23.492,23.492,0,0,1-5.186.772h-.193c-.429.031-.865.031-1.31.031C35.29,23.038,34.564,23.011,33.834,22.968Z" transform="translate(0.055 1.179)" fill="#adc7f7"/>
      <path id="Path-57" data-name="Path" d="M0,0,4.425,39.434" transform="translate(43.476 0.139)" fill="none" stroke="#263238" stroke-linecap="round" stroke-linejoin="round" stroke-miterlimit="10" stroke-width="1.158"/>
      <path id="Path-58" data-name="Path" d="M0,.253S2.317-.372,2.587.342a8.023,8.023,0,0,1,0,2.946c-.089.27-1.158.626-1.158.089A6.606,6.606,0,0,0,.822,1.593Z" transform="translate(48.6 32.886)" fill="none" stroke="#263238" stroke-linecap="round" stroke-linejoin="round" stroke-miterlimit="10" stroke-width="0.503"/>
      <path id="Path-59" data-name="Path" d="M8.857,22.59A4.189,4.189,0,0,0,9.3,18.752c-.8-2.228-4.193-6.066-5.44-8.3S3.413,8.4,3.413,8.4s1.158-.537,1.251-1.158.444-4.552.444-5.178S2.077.2.826.018.023,1,.382,3.674s.892,10.17,1.336,12.761,1.073,5.352,3.39,6.687A2.817,2.817,0,0,0,8.857,22.59Z" transform="translate(44.917 32.142)" fill="#fff" stroke="#263238" stroke-linecap="round" stroke-linejoin="round" stroke-miterlimit="10" stroke-width="0.503"/>
      <path id="Path-60" data-name="Path" d="M0,.537A2.269,2.269,0,0,1,1.07,0,31.365,31.365,0,0,1,4.545,1.158" transform="translate(45.21 33.854)" fill="none" stroke="#263238" stroke-linecap="round" stroke-linejoin="round" stroke-miterlimit="10" stroke-width="0.503"/>
      <path id="Path-61" data-name="Path" d="M0,.547A5.552,5.552,0,0,1,1.34.014,12.981,12.981,0,0,1,3.749.281" transform="translate(45.831 36.161)" fill="none" stroke="#263238" stroke-linecap="round" stroke-linejoin="round" stroke-miterlimit="10" stroke-width="0.503"/>
      <path id="Path-62" data-name="Path" d="M0,.375A1.209,1.209,0,0,1,.981.016,5.243,5.243,0,0,1,2.587.375" transform="translate(46.905 37.494)" fill="none" stroke="#263238" stroke-linecap="round" stroke-linejoin="round" stroke-miterlimit="10" stroke-width="0.503"/>
      <path id="Path-63" data-name="Path" d="M1.7,0,0,.714" transform="translate(46.905 39.206)" fill="none" stroke="#263238" stroke-linecap="round" stroke-linejoin="round" stroke-miterlimit="10" stroke-width="0.503"/>
      <path id="Path-64" data-name="Path" d="M0,0,3.436,31.09" transform="translate(47.982 39.796)" fill="none" stroke="#263238" stroke-linecap="round" stroke-linejoin="round" stroke-miterlimit="10" stroke-width="1.158"/>
      <path id="Path-65" data-name="Path" d="M6.869,3.425S5.711,1.908,4.552.572,1.784.66,1.784.66,0,.927,0,1.552a4.772,4.772,0,0,0,.626,1.7s-.266,1.7.448,2.317a2.436,2.436,0,0,0,1.6.8c.444,0,21.147.355,22.842.266s5.792.626,7.224-1.34A3.2,3.2,0,0,0,30.244.12C27.209-.15,14.9,3.514,6.869,3.425Z" transform="translate(47.526 53.357)" fill="#fff" stroke="#263238" stroke-linecap="round" stroke-linejoin="round" stroke-miterlimit="10" stroke-width="0.503"/>
    </g>
  </g>
</svg>
