<svg xmlns="http://www.w3.org/2000/svg" width="160.623" height="119.974" viewBox="0 0 160.623 119.974">
  <g id="Online_shopping-bro_2_" data-name="Online shopping-bro (2)" transform="translate(-0.177 -0.002)">
    <g id="freepik--background-simple--inject-2">
      <path id="Path" d="M142.133,108.382s22.5-26.07,16.721-59.41S123.262-1.824,103.265.151,63.358,21.718,43.819,24.139-5.173,43.792.78,76.58s24.044,36,53.328,37.2S124.83,130,142.133,108.382Z" transform="translate(0.177 0.002)" fill="#adc7f7"/>
      <path id="Path-2" data-name="Path" d="M142.133,108.382s22.5-26.07,16.721-59.41S123.262-1.824,103.265.151,63.358,21.718,43.819,24.139-5.173,43.792.78,76.58s24.044,36,53.328,37.2S124.83,130,142.133,108.382Z" transform="translate(0.177 0.002)" fill="#f9fbff"/>
    </g>
    <g id="freepik--Desk--inject-2" transform="translate(4.126 78.763)">
      <path id="Path-3" data-name="Path" d="M0,.3H156.362" transform="translate(0 0.3)" fill="none" stroke="#263238" stroke-linecap="round" stroke-linejoin="round" stroke-miterlimit="10" stroke-width="0.625"/>
    </g>
    <g id="freepik--Plant--inject-2" transform="translate(6.188 32.165)">
      <ellipse id="Oval" cx="13.285" cy="4.928" rx="13.285" ry="4.928" transform="translate(4.117 51.757)" fill="#263238"/>
      <path id="Path-4" data-name="Path" d="M0,0,1.852,15.027c0,2.408,4.5,4.363,10.046,4.363s10.046-1.955,10.046-4.363L23.8,0Z" transform="translate(9.646 41.159)" fill="#fff"/>
      <g id="Group" transform="translate(9.489 40.825)">
        <path id="Path-5" data-name="Path" d="M10.157,0H0L1.852,15.027c0,2.408,4.5,4.363,10.046,4.363q.54,0,1.064-.025C9.8,13.757,9.745,5.526,10.157,0Z" transform="translate(0.157 0.334)" fill="#adc7f7"/>
        <path id="Path-6" data-name="Path" d="M10.157,0H0L1.852,15.027c0,2.408,4.5,4.363,10.046,4.363q.54,0,1.064-.025C9.8,13.757,9.745,5.526,10.157,0Z" transform="translate(0.157 0.334)" fill="#fff" opacity="0.4"/>
      </g>
      <path id="Path-7" data-name="Path" d="M0,0,1.852,15.027c0,2.408,4.5,4.363,10.046,4.363s10.046-1.955,10.046-4.363L23.8,0Z" transform="translate(9.646 41.159)" fill="none" stroke="#263238" stroke-linecap="round" stroke-linejoin="round" stroke-miterlimit="10" stroke-width="0.625"/>
      <ellipse id="Oval-2" data-name="Oval" cx="11.898" cy="5.167" rx="11.898" ry="5.167" transform="translate(9.646 35.992)" fill="#fff" stroke="#263238" stroke-linecap="round" stroke-linejoin="round" stroke-miterlimit="10" stroke-width="0.625"/>
      <ellipse id="Oval-3" data-name="Oval" cx="10.632" cy="4.495" rx="10.632" ry="4.495" transform="translate(10.912 36.528)" fill="#263238" stroke="#263238" stroke-linecap="round" stroke-linejoin="round" stroke-miterlimit="10" stroke-width="0.625"/>
      <path id="Path-8" data-name="Path" d="M11.481,21.215S10.533,12.465,4.62,5.842.157.032.157.032" transform="translate(10.871 20.274)" fill="none" stroke="#263238" stroke-linecap="round" stroke-linejoin="round" stroke-miterlimit="10" stroke-width="0.625"/>
      <path id="Path-9" data-name="Path" d="M8.94,0S1.844,7.1.66,15.138s-.413,9.34-.413,9.34" transform="translate(24.065 15.472)" fill="none" stroke="#263238" stroke-linecap="round" stroke-linejoin="round" stroke-miterlimit="10" stroke-width="0.625"/>
      <path id="Path-10" data-name="Path" d="M3.692,30.025A129.4,129.4,0,0,1,.887,15.134C-.532,5.192.177,0,.177,0" transform="translate(19.824 10.981)" fill="none" stroke="#263238" stroke-linecap="round" stroke-linejoin="round" stroke-miterlimit="10" stroke-width="0.625"/>
      <path id="Path-11" data-name="Path" d="M7.237,11.192S5.253,13.344,2.2,9.13A12.588,12.588,0,0,1,.162,0,10.131,10.131,0,0,0,4.073,3.369C6.429,4.367,9.869,10.037,7.237,11.192Z" transform="translate(4.405 11.819)" fill="#adc7f7"/>
      <path id="Path-12" data-name="Path" d="M3.085,13.241S.246,13.951.011,8.751A12.613,12.613,0,0,1,3.312,0,10.077,10.077,0,0,0,4.731,4.948C6.15,7.06,5.927,13.715,3.085,13.241Z" transform="translate(16.9 0.103)" fill="#adc7f7"/>
      <path id="Path-13" data-name="Path" d="M1.262,10.948S-1.5,9.988,1.151,5.509A12.616,12.616,0,0,1,8.717,0,10.19,10.19,0,0,0,7.182,4.948C7.2,7.522,3.4,12.9,1.262,10.948Z" transform="translate(30.435 7.151)" fill="#adc7f7"/>
      <path id="Path-14" data-name="Path" d="M22.951,16.318S24.845,7.8,28.867,3.786A12.916,12.916,0,0,1,37.857,0s-4.732,1.893-6.151,5.674-3.8,12.062-3.8,12.062H16.094a22.837,22.837,0,0,0-5.446-6.623C6.626,7.563,0,5.2,0,5.2S7.335,2.6,12.542,4.73s8.99,11.134,8.99,11.134Z" transform="translate(0.347 23.988)" fill="#adc7f7"/>
      <path id="Path-15" data-name="Path" d="M15.805,2.745S11.11-.476,5.986.06.437,4.757.21,5.965A13.915,13.915,0,0,0,0,8.114,109.172,109.172,0,0,1,10.669,5.429C14.737,4.757,16.445,6.638,15.805,2.745Z" transform="translate(9.316 37.54)" fill="#adc7f7"/>
      <path id="Path-16" data-name="Path" d="M.082,2.745S3.036-.476,6.271.06s3.49,4.7,3.622,5.905a21.347,21.347,0,0,1,.136,2.148A50.079,50.079,0,0,0,3.317,5.429C.767,4.757-.322,6.638.082,2.745Z" transform="translate(23.29 37.54)" fill="#adc7f7"/>
    </g>
    <g id="freepik--Device--inject-2" transform="translate(29.292 20.619)">
      <path id="Path-17" data-name="Path" d="M3.358,0h89.3A3.357,3.357,0,0,1,96.02,3.357v62.4H0V3.353A3.357,3.357,0,0,1,3.358,0Z" transform="translate(14.634 0.049)" fill="#263238" stroke="#263238" stroke-linecap="round" stroke-linejoin="round" stroke-miterlimit="10" stroke-width="0.625"/>
      <path id="Path-18" data-name="Path" d="M124.821,29.068H0L14.4,0h96.016l14.4,29.068Z" transform="translate(0.231 65.806)" fill="#fff" stroke="#263238" stroke-linecap="round" stroke-linejoin="round" stroke-miterlimit="10" stroke-width="0.625"/>
      <rect id="Rectangle" width="84.386" height="55.344" transform="translate(20.451 5.254)" fill="#adc7f7" stroke="#263238" stroke-linecap="round" stroke-linejoin="round" stroke-miterlimit="10" stroke-width="0.625"/>
      <circle id="Oval-4" data-name="Oval" cx="11.924" cy="11.924" r="11.924" transform="translate(18.598 35.979) rotate(-45)" fill="#263238"/>
      <circle id="Oval-5" data-name="Oval" cx="11.924" cy="11.924" r="11.924" transform="translate(46.162 35.978) rotate(-45)" fill="#263238"/>
      <ellipse id="Oval-6" data-name="Oval" cx="11.927" cy="11.922" rx="11.927" ry="11.922" transform="translate(76.27 27.07) rotate(-13.12)" fill="#263238"/>
      <path id="Path-19" data-name="Path" d="M0,14.351S5.256,0,8.346,0s8.532,14.181,8.532,14.181l-.92.082S10.615,1.835,9.031,1.068,4.522,4.821.932,14.334Z" transform="translate(27.266 18.59)" fill="#fff" stroke="#263238" stroke-linecap="round" stroke-linejoin="round" stroke-miterlimit="10" stroke-width="0.625"/>
      <path id="Path-20" data-name="Path" d="M1.778,0h15.8a1.782,1.782,0,0,1,1.782,1.781v8.47a1.427,1.427,0,0,1-1.427,1.427H1.427A1.427,1.427,0,0,1,0,10.252V1.786A1.782,1.782,0,0,1,1.778,0Z" transform="translate(26.02 32.103)" fill="#fff" stroke="#263238" stroke-linecap="round" stroke-linejoin="round" stroke-miterlimit="10" stroke-width="0.625"/>
      <path id="Path-21" data-name="Path" d="M0,.206H17.526" transform="translate(26.181 38.157)" fill="#fff" stroke="#263238" stroke-linecap="round" stroke-linejoin="round" stroke-miterlimit="10" stroke-width="0.625"/>
      <path id="Path-22" data-name="Path" d="M.835,0A3.211,3.211,0,0,0,.423,1.922c0,1.419-.5,8.928-.413,9.258s.586.087.586.087" transform="translate(43.627 32.52)" fill="#fff" stroke="#263238" stroke-linecap="round" stroke-linejoin="round" stroke-miterlimit="10" stroke-width="0.625"/>
      <rect id="Rectangle-2" data-name="Rectangle" width="1.337" height="3.002" transform="translate(34.276 36.693)" fill="#fff" stroke="#263238" stroke-linecap="round" stroke-linejoin="round" stroke-miterlimit="10" stroke-width="0.625"/>
      <path id="Path-23" data-name="Path" d="M0,.487S5.574,0,12.117,0s9.617.412,9.7.825-.887,5.654-.887,6.136,0,7.27-.161,7.674-.891.726-1.213.8-17.291.243-17.773.243a.969.969,0,0,1-.891-.969c0-.482.243-5.814-.161-7.753S0,.487,0,.487Z" transform="translate(52.589 28.52)" fill="#fff" stroke="#263238" stroke-linecap="round" stroke-linejoin="round" stroke-miterlimit="10" stroke-width="0.625"/>
      <path id="Path-24" data-name="Path" d="M0,11.79S-.079,5.41.569,3.229A4.538,4.538,0,0,1,4.851,0a6,6,0,0,1,5.4,4.449,20.09,20.09,0,0,1,.083,7.509c-.078.4-.97,1.534-1.135-.647S9.36,4.045,8.713,2.59a3.85,3.85,0,0,0-4.2-2.1A3.321,3.321,0,0,0,1.6,3.72c-.322,2.1.322,6.948-.083,8S.148,13.241,0,11.79Z" transform="translate(58.581 19.88)" fill="#fff" stroke="#263238" stroke-linecap="round" stroke-linejoin="round" stroke-miterlimit="10" stroke-width="0.625"/>
      <path id="Path-25" data-name="Path" d="M.5,0S.083,4.28.083,5.9,0,8.561,0,8.561" transform="translate(53.629 29.085)" fill="#fff" stroke="#263238" stroke-linecap="round" stroke-linejoin="round" stroke-miterlimit="10" stroke-width="0.625"/>
      <path id="Path-26" data-name="Path" d="M.124,0S.289,4.28.289,6.784" transform="translate(72.9 29.167)" fill="none" stroke="#263238" stroke-linecap="round" stroke-linejoin="round" stroke-miterlimit="10" stroke-width="0.625"/>
      <path id="Path-27" data-name="Path" d="M7.347,13.874a.413.413,0,0,1-.413-.355C6.138,8.542,5.139,3.053,4.628,1.272,3.873,2.954,2.214,8.311.841,13.181a.428.428,0,0,1-.825-.227c0-.033.883-3.138,1.84-6.235C3.848.261,4.224.121,4.521.026a.491.491,0,0,1,.446.066c.219.161.52.379,1.708,6.944.573,3.167,1.077,6.318,1.081,6.351a.412.412,0,0,1-.351.482.273.273,0,0,1-.058,0Z" transform="translate(86.512 14.473)" fill="#fff" stroke="#263238" stroke-linecap="round" stroke-linejoin="round" stroke-miterlimit="10" stroke-width="0.625"/>
      <path id="Path-28" data-name="Path" d="M0,.408S8.214-.1,11.044.016,18.9.428,18.883.754s-.12,10.722-.413,12.784-1.766,4.652-3.045,5.126-5.578.3-7.781.21-4.188-.379-5.178-1.786S.767,9.777.767,9.777Z" transform="translate(80.471 26.553)" fill="#fff" stroke="#263238" stroke-linecap="round" stroke-linejoin="round" stroke-miterlimit="10" stroke-width="0.625"/>
      <path id="Path-29" data-name="Path" d="M1.65.844a.825.825,0,1,0-.266.588A.825.825,0,0,0,1.65.844Z" transform="translate(85.347 28.377)" fill="#fff" stroke="#263238" stroke-linecap="round" stroke-linejoin="round" stroke-miterlimit="10" stroke-width="0.625"/>
      <ellipse id="Oval-7" data-name="Oval" cx="0.837" cy="0.837" rx="0.837" ry="0.837" transform="translate(93.05 30.297) rotate(-80.56)" fill="#fff" stroke="#263238" stroke-linecap="round" stroke-linejoin="round" stroke-miterlimit="10" stroke-width="0.625"/>
      <path id="Path-30" data-name="Path" d="M0,.288A138.141,138.141,0,0,1,16.7.333" transform="translate(81.906 40.487)" fill="#fff" stroke="#263238" stroke-linecap="round" stroke-linejoin="round" stroke-miterlimit="10" stroke-width="0.625"/>
      <rect id="Rectangle-3" data-name="Rectangle" width="81.485" height="6.623" transform="translate(21.759 6.887)" fill="#263238"/>
      <path id="Path-31" data-name="Path" d="M0,.206H8.078" transform="translate(61.278 10.454)" fill="none" stroke="#fff" stroke-miterlimit="10" stroke-width="1.25"/>
      <path id="Path-32" data-name="Path" d="M0,.206H8.078" transform="translate(78.701 10.454)" fill="none" stroke="#fff" stroke-miterlimit="10" stroke-width="1.25"/>
      <path id="Shape" d="M4.485,4.576A.6.6,0,0,1,4.2,4.02.608.608,0,0,1,4.295,3.7H3.47a.574.574,0,0,1,.1.317.594.594,0,1,1-1.184,0,.608.608,0,0,1,.1-.317H2.414a.176.176,0,0,1-.166-.116L1.167.342h-1A.167.167,0,0,1,.049.292.171.171,0,0,1,0,.169.169.169,0,0,1,.169,0H1.291a.173.173,0,0,1,.165.115l.169.511H6.053A.166.166,0,0,1,6.188.7a.174.174,0,0,1,.033.149L5.73,2.668a.169.169,0,0,1-.165.123H2.347l.19.569H5.425A.171.171,0,0,1,5.6,3.53a.174.174,0,0,1-.174.174H5.293a.608.608,0,0,1,.1.317.594.594,0,0,1-.9.555Z" transform="translate(94.502 7.913)" fill="#fff"/>
      <path id="Path-33" data-name="Path" d="M2.517,1.278A1.258,1.258,0,1,0,1.258,2.515,1.258,1.258,0,0,0,2.517,1.278Z" transform="translate(99.506 7.225)" fill="#fff"/>
      <path id="Path-34" data-name="Path" d="M.063,1.613a.153.153,0,0,1-.058-.095.256.256,0,0,1,.066-.231L.649.722A.289.289,0,0,0,.765.512.161.161,0,0,0,.7.38.248.248,0,0,0,.542.33H.4L.344.355.282.392.228.421a.1.1,0,0,1-.07,0A.124.124,0,0,1,.088.376.284.284,0,0,1,.047.3a.124.124,0,0,1,0-.087A.14.14,0,0,1,.113.137.92.92,0,0,1,.625,0,.541.541,0,0,1,1,.145a.437.437,0,0,1,.144.33A.536.536,0,0,1,1.082.73.8.8,0,0,1,.876.974l-.441.351h.578a.087.087,0,0,1,.078.045.2.2,0,0,1,.029.1.247.247,0,0,1-.029.111.1.1,0,0,1-.078.045H.187a.149.149,0,0,1-.124-.016Z" transform="translate(100.19 7.666)" fill="#263238"/>
      <path id="Path-35" data-name="Path" d="M31.813,3.971H1.984A1.984,1.984,0,0,1,0,1.984H0A1.984,1.984,0,0,1,1.984,0H31.813A1.984,1.984,0,0,1,33.8,1.984h0a1.984,1.984,0,0,1-1.984,1.988Z" transform="translate(22.811 8.214)" fill="#fff"/>
      <path id="Path-36" data-name="Path" d="M0,.206H12.212" transform="translate(29.337 51.406)" fill="none" stroke="#263238" stroke-linecap="round" stroke-linejoin="round" stroke-miterlimit="10" stroke-width="1.25"/>
      <path id="Path-37" data-name="Path" d="M0,.206H12.212" transform="translate(29.337 53.72)" fill="none" stroke="#263238" stroke-linecap="round" stroke-linejoin="round" stroke-miterlimit="10" stroke-width="1.25"/>
      <path id="Path-38" data-name="Path" d="M0,.206H12.216" transform="translate(56.917 51.406)" fill="none" stroke="#263238" stroke-linecap="round" stroke-linejoin="round" stroke-miterlimit="10" stroke-width="1.25"/>
      <path id="Path-39" data-name="Path" d="M0,.206H12.216" transform="translate(56.917 53.72)" fill="none" stroke="#263238" stroke-linecap="round" stroke-linejoin="round" stroke-miterlimit="10" stroke-width="1.25"/>
      <path id="Path-40" data-name="Path" d="M0,.206H12.212" transform="translate(84.501 51.406)" fill="none" stroke="#263238" stroke-linecap="round" stroke-linejoin="round" stroke-miterlimit="10" stroke-width="1.25"/>
      <path id="Path-41" data-name="Path" d="M0,.206H12.212" transform="translate(84.501 53.72)" fill="none" stroke="#263238" stroke-linecap="round" stroke-linejoin="round" stroke-miterlimit="10" stroke-width="1.25"/>
      <path id="Path-42" data-name="Path" d="M5.244,3.542,5.409,0H.338L0,3.542Z" transform="translate(53.394 71.468)" fill="#263238" stroke="#fff" stroke-linecap="round" stroke-linejoin="round" stroke-miterlimit="10" stroke-width="0.625"/>
      <path id="Path-43" data-name="Path" d="M5.248,3.542,5.075,0H0L0,3.542Z" transform="translate(63.877 71.468)" fill="#263238" stroke="#fff" stroke-linecap="round" stroke-linejoin="round" stroke-miterlimit="10" stroke-width="0.625"/>
      <path id="Path-44" data-name="Path" d="M1.093,3.786H6.514L5.244,0H0L1.093,3.786Z" transform="translate(95.339 75.01)" fill="#263238" stroke="#fff" stroke-linecap="round" stroke-linejoin="round" stroke-miterlimit="10" stroke-width="0.625"/>
      <path id="Path-45" data-name="Path" d="M5.24,3.542,5.578,0H.5L0,3.542Z" transform="translate(48.154 71.468)" fill="#263238" stroke="#fff" stroke-linecap="round" stroke-linejoin="round" stroke-miterlimit="10" stroke-width="0.625"/>
      <path id="Path-46" data-name="Path" d="M5.244,3.542,5.916,0H.846L0,3.542Z" transform="translate(37.667 71.468)" fill="#263238" stroke="#fff" stroke-linecap="round" stroke-linejoin="round" stroke-miterlimit="10" stroke-width="0.625"/>
      <path id="Path-47" data-name="Path" d="M5.924,3.542,5.075,0H0L.681,3.542Z" transform="translate(84.171 71.468)" fill="#263238" stroke="#fff" stroke-linecap="round" stroke-linejoin="round" stroke-miterlimit="10" stroke-width="0.625"/>
      <path id="Path-48" data-name="Path" d="M6.094,3.542,5.07,0H0L.85,3.542Z" transform="translate(89.246 71.468)" fill="#263238" stroke="#fff" stroke-linecap="round" stroke-linejoin="round" stroke-miterlimit="10" stroke-width="0.625"/>
      <path id="Path-49" data-name="Path" d="M5.244,3.542,6.089,0H1.015L0,3.542Z" transform="translate(32.423 71.468)" fill="#263238" stroke="#fff" stroke-linecap="round" stroke-linejoin="round" stroke-miterlimit="10" stroke-width="0.625"/>
      <path id="Path-50" data-name="Path" d="M5.417,3.542,5.075,0H0L.173,3.542Z" transform="translate(68.952 71.468)" fill="#263238" stroke="#fff" stroke-linecap="round" stroke-linejoin="round" stroke-miterlimit="10" stroke-width="0.625"/>
      <path id="Path-51" data-name="Path" d="M6.267,3.542,5.075,0H0L1.023,3.542Z" transform="translate(94.316 71.468)" fill="#263238" stroke="#fff" stroke-linecap="round" stroke-linejoin="round" stroke-miterlimit="10" stroke-width="0.625"/>
      <path id="Path-52" data-name="Path" d="M5.755,3.542,5.075,0H0L.512,3.542Z" transform="translate(79.097 71.468)" fill="#263238" stroke="#fff" stroke-linecap="round" stroke-linejoin="round" stroke-miterlimit="10" stroke-width="0.625"/>
      <path id="Path-53" data-name="Path" d="M5.582,3.542,5.07,0H0L.342,3.542Z" transform="translate(74.026 71.468)" fill="#263238" stroke="#fff" stroke-linecap="round" stroke-linejoin="round" stroke-miterlimit="10" stroke-width="0.625"/>
      <path id="Path-54" data-name="Path" d="M5.244,3.542,5.24,0H.165L0,3.542Z" transform="translate(58.638 71.468)" fill="#263238" stroke="#fff" stroke-linecap="round" stroke-linejoin="round" stroke-miterlimit="10" stroke-width="0.625"/>
      <path id="Path-55" data-name="Path" d="M6.692,0H1.448L0,3.786H5.425L6.692,0Z" transform="translate(20.488 75.01)" fill="#263238" stroke="#fff" stroke-linecap="round" stroke-linejoin="round" stroke-miterlimit="10" stroke-width="0.625"/>
      <path id="Path-56" data-name="Path" d="M6.428,0H1.357L0,3.542H5.244L6.428,0Z" transform="translate(21.936 71.468)" fill="#263238" stroke="#fff" stroke-linecap="round" stroke-linejoin="round" stroke-miterlimit="10" stroke-width="0.625"/>
      <path id="Path-57" data-name="Path" d="M5.244,3.542,6.259,0H1.184L0,3.542Z" transform="translate(27.18 71.468)" fill="#263238" stroke="#fff" stroke-linecap="round" stroke-linejoin="round" stroke-miterlimit="10" stroke-width="0.625"/>
      <path id="Path-58" data-name="Path" d="M1.667,0,0,4.363H5.83L7.286,0Z" transform="translate(17.27 82.854)" fill="#263238" stroke="#fff" stroke-linecap="round" stroke-linejoin="round" stroke-miterlimit="10" stroke-width="0.625"/>
      <path id="Path-59" data-name="Path" d="M6.976,0H1.551L0,4.058H5.619L6.976,0Z" transform="translate(18.937 78.796)" fill="#263238" stroke="#fff" stroke-linecap="round" stroke-linejoin="round" stroke-miterlimit="10" stroke-width="0.625"/>
      <path id="Path-60" data-name="Path" d="M1.456,0,0,4.363H5.83L7.075,0Z" transform="translate(23.099 82.854)" fill="#263238" stroke="#fff" stroke-linecap="round" stroke-linejoin="round" stroke-miterlimit="10" stroke-width="0.625"/>
      <path id="Path-61" data-name="Path" d="M5.244,3.542,5.747,0H.672L0,3.542Z" transform="translate(42.911 71.468)" fill="#263238" stroke="#fff" stroke-linecap="round" stroke-linejoin="round" stroke-miterlimit="10" stroke-width="0.625"/>
      <path id="Path-62" data-name="Path" d="M5.421,3.786,5.966,0H.722L0,3.786Z" transform="translate(42.189 75.01)" fill="#263238" stroke="#fff" stroke-linecap="round" stroke-linejoin="round" stroke-miterlimit="10" stroke-width="0.625"/>
      <path id="Path-63" data-name="Path" d="M5.425,3.786,6.147,0H.9L0,3.786Z" transform="translate(36.764 75.01)" fill="#263238" stroke="#fff" stroke-linecap="round" stroke-linejoin="round" stroke-miterlimit="10" stroke-width="0.625"/>
      <path id="Path-64" data-name="Path" d="M5.425,3.786,5.784,0H.545L0,3.786Z" transform="translate(47.61 75.01)" fill="#263238" stroke="#fff" stroke-linecap="round" stroke-linejoin="round" stroke-miterlimit="10" stroke-width="0.625"/>
      <path id="Path-65" data-name="Path" d="M6.51,0H1.267L0,3.786H5.425L6.51,0Z" transform="translate(25.913 75.01)" fill="#263238" stroke="#fff" stroke-linecap="round" stroke-linejoin="round" stroke-miterlimit="10" stroke-width="0.625"/>
      <path id="Path-66" data-name="Path" d="M1.168,4.058H6.787L5.421,0H0L1.168,4.058Z" transform="translate(96.433 78.796)" fill="#263238" stroke="#fff" stroke-linecap="round" stroke-linejoin="round" stroke-miterlimit="10" stroke-width="0.625"/>
      <path id="Path-67" data-name="Path" d="M5.425,3.786,6.329,0H1.085L0,3.786Z" transform="translate(31.338 75.01)" fill="#263238" stroke="#fff" stroke-linecap="round" stroke-linejoin="round" stroke-miterlimit="10" stroke-width="0.625"/>
      <path id="Path-68" data-name="Path" d="M1.357,0,0,4.058H5.619L6.783,0Z" transform="translate(24.556 78.796)" fill="#263238" stroke="#fff" stroke-linecap="round" stroke-linejoin="round" stroke-miterlimit="10" stroke-width="0.625"/>
      <path id="Path-69" data-name="Path" d="M5.974,3.786,5.244,0H0L.549,3.786Z" transform="translate(79.608 75.01)" fill="#263238" stroke="#fff" stroke-linecap="round" stroke-linejoin="round" stroke-miterlimit="10" stroke-width="0.625"/>
      <path id="Path-70" data-name="Path" d="M5.788,3.786,5.24,0H0L.363,3.786Z" transform="translate(74.369 75.01)" fill="#263238" stroke="#fff" stroke-linecap="round" stroke-linejoin="round" stroke-miterlimit="10" stroke-width="0.625"/>
      <path id="Path-71" data-name="Path" d="M6.337,3.786,5.244,0H0L.912,3.786Z" transform="translate(90.096 75.01)" fill="#263238" stroke="#fff" stroke-linecap="round" stroke-linejoin="round" stroke-miterlimit="10" stroke-width="0.625"/>
      <path id="Path-72" data-name="Path" d="M5.425,3.786,5.421,0H.177L0,3.786Z" transform="translate(58.46 75.01)" fill="#263238" stroke="#fff" stroke-linecap="round" stroke-linejoin="round" stroke-miterlimit="10" stroke-width="0.625"/>
      <path id="Path-73" data-name="Path" d="M5.607,3.786,5.244,0H0L.186,3.786Z" transform="translate(69.125 75.01)" fill="#263238" stroke="#fff" stroke-linecap="round" stroke-linejoin="round" stroke-miterlimit="10" stroke-width="0.625"/>
      <path id="Path-74" data-name="Path" d="M5.429,3.786,5.244,0H0L0,3.786Z" transform="translate(63.881 75.01)" fill="#263238" stroke="#fff" stroke-linecap="round" stroke-linejoin="round" stroke-miterlimit="10" stroke-width="0.625"/>
      <path id="Path-75" data-name="Path" d="M5.425,3.786,5.6,0H.359L0,3.786Z" transform="translate(53.035 75.01)" fill="#263238" stroke="#fff" stroke-linecap="round" stroke-linejoin="round" stroke-miterlimit="10" stroke-width="0.625"/>
      <path id="Path-76" data-name="Path" d="M0,0,.4,4.058H6.011L5.425,0Z" transform="translate(74.732 78.796)" fill="#263238" stroke="#fff" stroke-linecap="round" stroke-linejoin="round" stroke-miterlimit="10" stroke-width="0.625"/>
      <path id="Path-77" data-name="Path" d="M0,0,.586,4.058H6.2L5.425,0Z" transform="translate(80.157 78.796)" fill="#263238" stroke="#fff" stroke-linecap="round" stroke-linejoin="round" stroke-miterlimit="10" stroke-width="0.625"/>
      <path id="Path-78" data-name="Path" d="M1.163,0,0,4.058H5.619L6.589,0Z" transform="translate(30.175 78.796)" fill="#263238" stroke="#fff" stroke-linecap="round" stroke-linejoin="round" stroke-miterlimit="10" stroke-width="0.625"/>
      <path id="Path-79" data-name="Path" d="M0,0,.78,4.058H6.4L5.425,0Z" transform="translate(85.582 78.796)" fill="#263238" stroke="#fff" stroke-linecap="round" stroke-linejoin="round" stroke-miterlimit="10" stroke-width="0.625"/>
      <path id="Path-80" data-name="Path" d="M0,0,0,4.058H5.623L5.425,0Z" transform="translate(63.885 78.796)" fill="#263238" stroke="#fff" stroke-linecap="round" stroke-linejoin="round" stroke-miterlimit="10" stroke-width="0.625"/>
      <path id="Path-81" data-name="Path" d="M0,0,.974,4.058H6.593L5.425,0Z" transform="translate(91.007 78.796)" fill="#263238" stroke="#fff" stroke-linecap="round" stroke-linejoin="round" stroke-miterlimit="10" stroke-width="0.625"/>
      <path id="Path-82" data-name="Path" d="M0,0,.2,4.058H5.817L5.421,0Z" transform="translate(69.311 78.796)" fill="#263238" stroke="#fff" stroke-linecap="round" stroke-linejoin="round" stroke-miterlimit="10" stroke-width="0.625"/>
      <path id="Path-83" data-name="Path" d="M.776,0,0,4.058H5.619L6.2,0Z" transform="translate(41.413 78.796)" fill="#263238" stroke="#fff" stroke-linecap="round" stroke-linejoin="round" stroke-miterlimit="10" stroke-width="0.625"/>
      <path id="Path-84" data-name="Path" d="M.97,0,0,4.058H5.619L6.395,0Z" transform="translate(35.794 78.796)" fill="#263238" stroke="#fff" stroke-linecap="round" stroke-linejoin="round" stroke-miterlimit="10" stroke-width="0.625"/>
      <path id="Path-85" data-name="Path" d="M.19,0,0,4.058H5.619L5.615,0Z" transform="translate(58.27 78.796)" fill="#263238" stroke="#fff" stroke-linecap="round" stroke-linejoin="round" stroke-miterlimit="10" stroke-width="0.625"/>
      <path id="Path-86" data-name="Path" d="M.384,0,0,4.058H5.619L5.809,0Z" transform="translate(52.651 78.796)" fill="#263238" stroke="#fff" stroke-linecap="round" stroke-linejoin="round" stroke-miterlimit="10" stroke-width="0.625"/>
      <path id="Path-87" data-name="Path" d="M.578,0,0,4.058H5.619L6,0Z" transform="translate(47.032 78.796)" fill="#263238" stroke="#fff" stroke-linecap="round" stroke-linejoin="round" stroke-miterlimit="10" stroke-width="0.625"/>
      <path id="Path-88" data-name="Path" d="M6.155,3.786,5.244,0H0L.73,3.786Z" transform="translate(84.852 75.01)" fill="#263238" stroke="#fff" stroke-linecap="round" stroke-linejoin="round" stroke-miterlimit="10" stroke-width="0.625"/>
      <path id="Path-89" data-name="Path" d="M5.07,3.629,6.283,0h-4.9L0,3.629Z" transform="translate(23.293 67.839)" fill="#263238" stroke="#fff" stroke-linecap="round" stroke-linejoin="round" stroke-miterlimit="10" stroke-width="0.625"/>
      <path id="Path-90" data-name="Path" d="M6.2,0H1.51L0,3.542H4.839L6.2,0Z" transform="translate(17.097 71.468)" fill="#263238" stroke="#fff" stroke-linecap="round" stroke-linejoin="round" stroke-miterlimit="10" stroke-width="0.625"/>
      <path id="Path-91" data-name="Path" d="M6.069,0H1.547L0,3.629H4.687L6.069,0Z" transform="translate(18.607 67.839)" fill="#263238" stroke="#fff" stroke-linecap="round" stroke-linejoin="round" stroke-miterlimit="10" stroke-width="0.625"/>
      <path id="Path-92" data-name="Path" d="M6.452,0H1.613L0,3.786H5L6.452,0Z" transform="translate(15.484 75.01)" fill="#263238" stroke="#fff" stroke-linecap="round" stroke-linejoin="round" stroke-miterlimit="10" stroke-width="0.625"/>
      <path id="Path-93" data-name="Path" d="M6.737,0h-5L0,4.058H5.186L6.737,0Z" transform="translate(13.751 78.796)" fill="#263238" stroke="#fff" stroke-linecap="round" stroke-linejoin="round" stroke-miterlimit="10" stroke-width="0.625"/>
      <path id="Path-94" data-name="Path" d="M7.047,0H1.861L0,4.363H5.38L7.047,0Z" transform="translate(11.89 82.854)" fill="#263238" stroke="#fff" stroke-linecap="round" stroke-linejoin="round" stroke-miterlimit="10" stroke-width="0.625"/>
      <path id="Path-95" data-name="Path" d="M0,0,1.456,3.786h4.8L4.641,0Z" transform="translate(105.823 75.01)" fill="#263238" stroke="#fff" stroke-linecap="round" stroke-linejoin="round" stroke-miterlimit="10" stroke-width="0.625"/>
      <path id="Path-96" data-name="Path" d="M1.559,4.058H6.531L4.8,0H0L1.559,4.058Z" transform="translate(107.279 78.796)" fill="#263238" stroke="#fff" stroke-linecap="round" stroke-linejoin="round" stroke-miterlimit="10" stroke-width="0.625"/>
      <path id="Path-97" data-name="Path" d="M1.675,4.363H6.832L4.971,0H0L1.675,4.363Z" transform="translate(108.838 82.854)" fill="#263238" stroke="#fff" stroke-linecap="round" stroke-linejoin="round" stroke-miterlimit="10" stroke-width="0.625"/>
      <path id="Path-98" data-name="Path" d="M5.079,3.629,4.9,0H0L0,3.629Z" transform="translate(63.873 67.839)" fill="#263238" stroke="#fff" stroke-linecap="round" stroke-linejoin="round" stroke-miterlimit="10" stroke-width="0.625"/>
      <path id="Path-99" data-name="Path" d="M1.357,3.542H6L4.489,0H0L1.357,3.542Z" transform="translate(104.465 71.468)" fill="#263238" stroke="#fff" stroke-linecap="round" stroke-linejoin="round" stroke-miterlimit="10" stroke-width="0.625"/>
      <path id="Path-100" data-name="Path" d="M1.366,4.058H6.985L5.425,0H0L1.366,4.058Z" transform="translate(101.854 78.796)" fill="#263238" stroke="#fff" stroke-linecap="round" stroke-linejoin="round" stroke-miterlimit="10" stroke-width="0.625"/>
      <path id="Path-101" data-name="Path" d="M5.075,3.629,6.114,0h-4.9L0,3.629Z" transform="translate(28.364 67.839)" fill="#263238" stroke="#fff" stroke-linecap="round" stroke-linejoin="round" stroke-miterlimit="10" stroke-width="0.625"/>
      <path id="Path-102" data-name="Path" d="M0,0,1.192,3.542h5.24L5.075,0Z" transform="translate(99.391 71.468)" fill="#263238" stroke="#fff" stroke-linecap="round" stroke-linejoin="round" stroke-miterlimit="10" stroke-width="0.625"/>
      <path id="Path-103" data-name="Path" d="M5.883,3.629,4.336,0H0L1.394,3.629Z" transform="translate(103.071 67.839)" fill="#263238" stroke="#fff" stroke-linecap="round" stroke-linejoin="round" stroke-miterlimit="10" stroke-width="0.625"/>
      <path id="Path-104" data-name="Path" d="M6.292,3.629,4.9,0H0L1.217,3.629Z" transform="translate(98.174 67.839)" fill="#263238" stroke="#fff" stroke-linecap="round" stroke-linejoin="round" stroke-miterlimit="10" stroke-width="0.625"/>
      <path id="Path-105" data-name="Path" d="M0,0,.842,4.363H6.667L5.619,0Z" transform="translate(86.362 82.854)" fill="#263238" stroke="#fff" stroke-linecap="round" stroke-linejoin="round" stroke-miterlimit="10" stroke-width="0.625"/>
      <path id="Path-106" data-name="Path" d="M1.465,4.363h5.83L5.619,0H0L1.465,4.363Z" transform="translate(103.219 82.854)" fill="#263238" stroke="#fff" stroke-linecap="round" stroke-linejoin="round" stroke-miterlimit="10" stroke-width="0.625"/>
      <path id="Path-107" data-name="Path" d="M6.118,3.629,4.9,0H0L1.044,3.629Z" transform="translate(93.272 67.839)" fill="#263238" stroke="#fff" stroke-linecap="round" stroke-linejoin="round" stroke-miterlimit="10" stroke-width="0.625"/>
      <path id="Path-108" data-name="Path" d="M0,0,1.258,4.363H7.084L5.619,0Z" transform="translate(97.6 82.854)" fill="#263238" stroke="#fff" stroke-linecap="round" stroke-linejoin="round" stroke-miterlimit="10" stroke-width="0.625"/>
      <path id="Path-109" data-name="Path" d="M0,0,1.048,4.363h5.83L5.619,0Z" transform="translate(91.981 82.854)" fill="#263238" stroke="#fff" stroke-linecap="round" stroke-linejoin="round" stroke-miterlimit="10" stroke-width="0.625"/>
      <path id="Path-110" data-name="Path" d="M1.271,3.786H6.7L5.24,0H0L1.271,3.786Z" transform="translate(100.583 75.01)" fill="#263238" stroke="#fff" stroke-linecap="round" stroke-linejoin="round" stroke-miterlimit="10" stroke-width="0.625"/>
      <path id="Path-111" data-name="Path" d="M5.075,3.629,5.417,0H.516L0,3.629Z" transform="translate(48.658 67.839)" fill="#263238" stroke="#fff" stroke-linecap="round" stroke-linejoin="round" stroke-miterlimit="10" stroke-width="0.625"/>
      <path id="Path-112" data-name="Path" d="M5.945,3.629,4.9,0H0L.875,3.629Z" transform="translate(88.371 67.839)" fill="#263238" stroke="#fff" stroke-linecap="round" stroke-linejoin="round" stroke-miterlimit="10" stroke-width="0.625"/>
      <path id="Path-113" data-name="Path" d="M5.075,3.629,5.59,0H.693L0,3.629Z" transform="translate(43.583 67.839)" fill="#263238" stroke="#fff" stroke-linecap="round" stroke-linejoin="round" stroke-miterlimit="10" stroke-width="0.625"/>
      <path id="Path-114" data-name="Path" d="M5.075,3.629,5.07,0H.173L0,3.629Z" transform="translate(58.803 67.839)" fill="#263238" stroke="#fff" stroke-linecap="round" stroke-linejoin="round" stroke-miterlimit="10" stroke-width="0.625"/>
      <path id="Path-115" data-name="Path" d="M5.07,3.629,5.764,0H.862L0,3.629Z" transform="translate(38.513 67.839)" fill="#263238" stroke="#fff" stroke-linecap="round" stroke-linejoin="round" stroke-miterlimit="10" stroke-width="0.625"/>
      <path id="Path-116" data-name="Path" d="M5.075,3.629,5.937,0H1.04L0,3.629Z" transform="translate(33.438 67.839)" fill="#263238" stroke="#fff" stroke-linecap="round" stroke-linejoin="round" stroke-miterlimit="10" stroke-width="0.625"/>
      <path id="Path-117" data-name="Path" d="M5.07,3.629,5.244,0H.342L0,3.629Z" transform="translate(53.732 67.839)" fill="#263238" stroke="#fff" stroke-linecap="round" stroke-linejoin="round" stroke-miterlimit="10" stroke-width="0.625"/>
      <path id="Path-118" data-name="Path" d="M5.772,3.629,4.9,0H0L.7,3.629Z" transform="translate(83.474 67.839)" fill="#263238" stroke="#fff" stroke-linecap="round" stroke-linejoin="round" stroke-miterlimit="10" stroke-width="0.625"/>
      <path id="Path-119" data-name="Path" d="M5.6,3.629,4.9,0H0L.524,3.629Z" transform="translate(78.573 67.839)" fill="#263238" stroke="#fff" stroke-linecap="round" stroke-linejoin="round" stroke-miterlimit="10" stroke-width="0.625"/>
      <path id="Path-120" data-name="Path" d="M5.252,3.629,4.9,0H0L.177,3.629Z" transform="translate(68.774 67.839)" fill="#263238" stroke="#fff" stroke-linecap="round" stroke-linejoin="round" stroke-miterlimit="10" stroke-width="0.625"/>
      <path id="Path-121" data-name="Path" d="M57.433,0H1.246L0,4.363H58.275L57.433,0Z" transform="translate(28.929 82.854)" fill="#263238" stroke="#fff" stroke-linecap="round" stroke-linejoin="round" stroke-miterlimit="10" stroke-width="0.625"/>
      <path id="Path-122" data-name="Path" d="M5.425,3.629,4.9,0H0L.355,3.629Z" transform="translate(73.671 67.839)" fill="#263238" stroke="#fff" stroke-linecap="round" stroke-linejoin="round" stroke-miterlimit="10" stroke-width="0.625"/>
      <rect id="Rectangle-4" data-name="Rectangle" width="124.879" height="1.773" transform="translate(0.231 94.874)" fill="#263238" stroke="#263238" stroke-linecap="round" stroke-linejoin="round" stroke-miterlimit="10" stroke-width="0.625"/>
    </g>
  </g>
</svg>
