<svg width="301" height="281" viewBox="0 0 301 281" fill="none" xmlns="http://www.w3.org/2000/svg">
<path d="M10.4754 151.378C10.4754 151.378 19.994 197.19 63.8083 221.196C107.622 245.203 161.33 238.116 204.987 233.476C248.644 228.837 277.529 198.672 276.077 160.889C274.625 123.106 239.776 118.01 214.565 79.0976C189.354 40.1848 188.576 26.1089 146.184 6.8546C103.791 -12.3997 47.405 13.7915 24.0574 63.4951C0.709766 113.199 10.4754 151.378 10.4754 151.378Z" fill="#F9FBFF"/>
<path d="M286.99 91.6395C286.99 91.6395 287.529 88.8931 284.431 84.2909C281.333 79.6888 279.29 77.0098 279.29 77.0098C279.29 77.0098 276.132 82.9963 278.953 87.4863C281.052 90.7075 283.417 93.7465 286.025 96.5709L286.99 91.6395Z" fill="#ADC7F7"/>
<path d="M278.053 107.713C278.053 107.713 278.584 104.967 275.494 100.365C272.403 95.7627 270.353 93.0837 270.353 93.0837C270.353 93.0837 267.195 99.0254 270.016 103.56C272.115 106.779 274.478 109.818 277.08 112.645L278.053 107.713Z" fill="#ADC7F7"/>
<path d="M285.86 96.2715C285.86 96.2715 286.683 93.6 291.585 91.0333C296.486 88.4666 299.554 87.0447 299.554 87.0447C299.554 87.0447 299.554 93.7796 294.9 96.4511C291.522 98.2877 287.998 99.8396 284.363 101.091L285.86 96.2715Z" fill="#ADC7F7"/>
<path d="M275.127 115.242C275.127 115.242 276.227 112.667 281.368 110.602C286.509 108.537 289.712 107.466 289.712 107.466C289.712 107.466 288.964 114.164 284.1 116.334C280.549 117.81 276.882 118.989 273.137 119.859L275.127 115.242Z" fill="#ADC7F7"/>
<path d="M272.074 137.571C272.074 137.571 272.613 134.825 277.207 131.727C281.802 128.629 284.69 126.915 284.69 126.915C284.69 126.915 285.379 133.65 281.054 136.763C277.898 138.957 274.563 140.881 271.086 142.518L272.074 137.571Z" fill="#ADC7F7"/>
<path d="M270.961 142.929C270.961 142.929 271.882 140.288 269.465 135.289C267.048 130.29 265.409 127.357 265.409 127.357C265.409 127.357 261.443 132.79 263.583 137.691C265.204 141.177 267.114 144.522 269.293 147.689L270.961 142.929Z" fill="#ADC7F7"/>
<path d="M264.04 158.195C264.04 158.195 264.578 155.449 269.181 152.351C273.783 149.253 276.664 147.539 276.664 147.539C276.664 147.539 277.352 154.237 273.027 157.387C269.875 159.577 266.546 161.499 263.074 163.134L264.04 158.195Z" fill="#ADC7F7"/>
<path d="M263.775 173.192C263.775 173.192 263.603 170.393 267.262 166.24C270.921 162.086 273.301 159.684 273.301 159.684C273.301 159.684 275.666 165.985 272.283 170.161C269.783 173.079 267.045 175.785 264.096 178.25L263.775 173.192Z" fill="#ADC7F7"/>
<path d="M287.476 91.0034C286.721 93.8273 285.812 96.6077 284.752 99.3322C281.699 106.89 276.902 111.216 273.999 118.04C271.095 124.865 273.669 134.84 270.721 143.723C267.773 152.605 263.238 156.99 263.051 163.269C262.864 169.547 264.981 187.08 264.981 187.08" stroke="#263238" stroke-width="1.25" stroke-linecap="round" stroke-linejoin="round"/>
<path d="M285.434 98.09L290.208 95.7178" stroke="#263238" stroke-width="1.25" stroke-linecap="round" stroke-linejoin="round"/>
<path d="M286.345 94.4681L285.215 91.0408" stroke="#263238" stroke-width="1.25" stroke-linecap="round" stroke-linejoin="round"/>
<path d="M274.289 117.733C274.289 117.733 278.27 115.81 282.348 113.902" stroke="#263238" stroke-width="1.25" stroke-linecap="round" stroke-linejoin="round"/>
<path d="M277.079 112.66C276.003 108.975 274.554 105.409 272.754 102.019" stroke="#263238" stroke-width="1.25" stroke-linecap="round" stroke-linejoin="round"/>
<path d="M271.445 141.508C274.141 138.242 277.297 135.386 280.814 133.029" stroke="#263238" stroke-width="1.25" stroke-linecap="round" stroke-linejoin="round"/>
<path d="M270.018 145.234C269.453 142.548 268.662 139.915 267.654 137.362C266.217 133.98 266 133.531 266 133.531" stroke="#263238" stroke-width="1.25" stroke-linecap="round" stroke-linejoin="round"/>
<path d="M263.051 163.246C264.357 161.234 265.815 159.325 267.413 157.537C268.982 155.901 270.684 154.399 272.502 153.047" stroke="#263238" stroke-width="1.25" stroke-linecap="round" stroke-linejoin="round"/>
<path d="M264.098 178.22C264.308 176.095 265.083 174.064 266.343 172.338C268.341 169.824 270.69 166.479 271.648 165.162" stroke="#263238" stroke-width="1.25" stroke-linecap="round" stroke-linejoin="round"/>
<path d="M254.626 123.428C254.626 123.428 254.663 121.647 257.207 119.208C259.752 116.768 261.39 115.376 261.39 115.376C261.39 115.376 262.55 119.499 260.178 121.946C258.439 123.667 256.556 125.237 254.551 126.638L254.626 123.428Z" fill="#ADC7F7"/>
<path d="M257.997 134.631C257.997 134.631 258.034 132.85 260.586 130.41C263.138 127.97 264.769 126.579 264.769 126.579C264.769 126.579 265.929 130.702 263.557 133.149C261.816 134.867 259.933 136.437 257.93 137.841L257.997 134.631Z" fill="#ADC7F7"/>
<path d="M254.715 126.466C254.715 126.466 254.566 124.693 251.864 122.418C249.163 120.143 247.457 118.856 247.457 118.856C247.457 118.856 246.559 123.046 249.073 125.336C250.92 126.94 252.897 128.387 254.985 129.662L254.715 126.466Z" fill="#ADC7F7"/>
<path d="M258.801 139.704C258.801 139.704 258.464 137.953 255.546 135.963C252.627 133.972 250.786 132.887 250.786 132.887C250.786 132.887 250.33 137.145 253.076 139.158C255.081 140.561 257.198 141.794 259.407 142.847L258.801 139.704Z" fill="#ADC7F7"/>
<path d="M257.669 154.012C257.669 154.012 257.707 152.231 255.267 149.679C252.828 147.128 251.256 145.676 251.256 145.676C251.256 145.676 249.917 149.747 252.184 152.291C253.848 154.082 255.661 155.729 257.602 157.215L257.669 154.012Z" fill="#ADC7F7"/>
<path d="M257.639 157.507C257.639 157.507 257.422 155.741 259.599 152.964C261.777 150.188 263.191 148.572 263.191 148.572C263.191 148.572 264.927 152.493 262.929 155.247C261.447 157.196 259.805 159.018 258.02 160.695L257.639 157.507Z" fill="#ADC7F7"/>
<path d="M259.75 172.353C259.75 172.353 260.289 170.655 263.425 169.031C266.56 167.407 268.513 166.531 268.513 166.531C268.513 166.531 268.461 170.819 265.52 172.518C263.361 173.675 261.108 174.649 258.785 175.429L259.75 172.353Z" fill="#ADC7F7"/>
<path d="M259.869 167.923C259.869 167.923 259.914 166.142 257.467 163.598C255.02 161.054 253.456 159.587 253.456 159.587C253.456 159.587 252.124 163.658 254.384 166.202C256.049 167.995 257.862 169.644 259.802 171.134L259.869 167.923Z" fill="#ADC7F7"/>
<path d="M258.008 177.285C258.008 177.285 258.495 175.571 256.781 172.488C255.067 169.405 253.915 167.594 253.915 167.594C253.915 167.594 251.588 171.194 253.166 174.224C254.313 176.372 255.637 178.419 257.125 180.346L258.008 177.285Z" fill="#ADC7F7"/>
<path d="M254.43 122.972C254.516 124.829 254.703 126.68 254.991 128.517C255.866 133.628 258.261 136.973 259.152 141.59C260.042 146.207 257.079 152.066 257.707 158.008C258.336 163.95 260.566 167.265 259.825 171.201C259.084 175.137 255.403 185.733 255.403 185.733" stroke="#263238" stroke-width="1.25" stroke-linecap="round" stroke-linejoin="round"/>
<path d="M254.715 127.649L252.066 125.531" stroke="#263238" stroke-width="1.25" stroke-linecap="round" stroke-linejoin="round"/>
<path d="M254.641 125.277L255.808 123.301" stroke="#263238" stroke-width="1.25" stroke-linecap="round" stroke-linejoin="round"/>
<path d="M258.978 141.38C258.978 141.38 256.733 139.644 254.488 137.901" stroke="#263238" stroke-width="1.25" stroke-linecap="round" stroke-linejoin="round"/>
<path d="M257.93 137.841C259.098 135.695 260.482 133.674 262.06 131.809" stroke="#263238" stroke-width="1.25" stroke-linecap="round" stroke-linejoin="round"/>
<path d="M257.529 156.541C256.294 154.147 254.719 151.944 252.852 150.001" stroke="#263238" stroke-width="1.25" stroke-linecap="round" stroke-linejoin="round"/>
<path d="M257.91 159.056C258.628 157.462 259.477 155.93 260.447 154.476C261.801 152.568 261.996 152.321 261.996 152.321" stroke="#263238" stroke-width="1.25" stroke-linecap="round" stroke-linejoin="round"/>
<path d="M259.082 174.149C260.273 173.148 261.55 172.254 262.898 171.478C263.734 171.08 264.537 170.617 265.301 170.094" stroke="#263238" stroke-width="1.25" stroke-linecap="round" stroke-linejoin="round"/>
<path d="M259.802 171.201C259.262 169.772 258.614 168.386 257.864 167.055C257.111 165.823 256.257 164.654 255.312 163.561" stroke="#263238" stroke-width="1.25" stroke-linecap="round" stroke-linejoin="round"/>
<path d="M257.122 180.346C257.284 178.998 257.083 177.631 256.538 176.387C255.64 174.553 254.623 172.151 254.211 171.208" stroke="#263238" stroke-width="1.25" stroke-linecap="round" stroke-linejoin="round"/>
<path d="M20.1361 164.938C20.1361 164.938 19.1932 162.304 14.1496 159.939C9.10586 157.574 6.00781 156.309 6.00781 156.309C6.00781 156.309 6.33707 163.044 11.0814 165.491C14.5321 167.188 18.1192 168.593 21.8049 169.689L20.1361 164.938Z" fill="#ADC7F7"/>
<path d="M20.6752 183.339C20.6752 183.339 19.7323 180.697 14.6886 178.333C9.64493 175.968 6.54688 174.703 6.54688 174.703C6.54688 174.703 6.87614 181.438 11.6205 183.893C15.0722 185.585 18.6591 186.987 22.3439 188.083L20.6752 183.339Z" fill="#ADC7F7"/>
<path d="M21.5133 169.517C21.5133 169.517 20.8548 166.793 23.7583 162.034C26.6618 157.275 28.57 154.551 28.57 154.551C28.57 154.551 31.9898 160.343 29.3782 165.027C27.4238 168.338 25.196 171.479 22.7181 174.419L21.5133 169.517Z" fill="#ADC7F7"/>
<path d="M22.0001 191.271C22.0001 191.271 21.6334 188.495 24.9933 184.095C28.3533 179.694 30.5609 177.135 30.5609 177.135C30.5609 177.135 33.3521 183.256 30.2615 187.612C27.9755 190.702 25.4321 193.593 22.6586 196.255L22.0001 191.271Z" fill="#ADC7F7"/>
<path d="M30.8067 212.037C30.8067 212.037 29.8638 209.403 32.2285 204.389C34.5932 199.375 36.2171 196.419 36.2171 196.419C36.2171 196.419 40.2355 201.822 38.1253 206.739C36.5358 210.237 34.656 213.597 32.5054 216.781L30.8067 212.037Z" fill="#ADC7F7"/>
<path d="M32.5975 217.23C32.5975 217.23 32.0362 214.491 27.4191 211.431C22.8019 208.37 19.876 206.686 19.876 206.686C19.876 206.686 19.2399 213.384 23.6176 216.497C26.7941 218.663 30.1457 220.56 33.6376 222.169L32.5975 217.23Z" fill="#ADC7F7"/>
<path d="M34.4224 233.873C34.4224 233.873 33.4721 231.231 35.8442 226.225C38.2164 221.219 39.8328 218.255 39.8328 218.255C39.8328 218.255 43.8513 223.658 41.741 228.575C40.1516 232.073 38.2717 235.433 36.1211 238.617L34.4224 233.873Z" fill="#ADC7F7"/>
<path d="M41.907 246.894C41.907 246.894 40.328 244.581 41.3457 239.134C42.3635 233.686 43.1866 230.408 43.1866 230.408C43.1866 230.408 48.4249 234.621 47.6765 239.912C47.0265 243.701 46.0578 247.428 44.7805 251.054L41.907 246.894Z" fill="#ADC7F7"/>
<path d="M20.2031 164.144C20.9994 166.956 21.6414 169.809 22.1263 172.69C23.361 180.75 21.4603 186.908 22.4331 194.249C23.4059 201.59 30.7694 208.857 32.7749 218.001C34.7804 227.146 33.1192 233.229 36.1798 238.715C39.2404 244.2 50.0088 258.171 50.0088 258.171" stroke="#263238" stroke-width="1.25" stroke-linecap="round" stroke-linejoin="round"/>
<path d="M22.1055 171.276L24.9865 166.801" stroke="#263238" stroke-width="1.25" stroke-linecap="round" stroke-linejoin="round"/>
<path d="M21.0286 167.699L18.3047 165.334" stroke="#263238" stroke-width="1.25" stroke-linecap="round" stroke-linejoin="round"/>
<path d="M22.5703 193.86C22.5703 193.86 25.0098 190.171 27.5317 186.452" stroke="#263238" stroke-width="1.25" stroke-linecap="round" stroke-linejoin="round"/>
<path d="M22.3743 188.068C19.5645 185.453 16.4955 183.131 13.2148 181.139" stroke="#263238" stroke-width="1.25" stroke-linecap="round" stroke-linejoin="round"/>
<path d="M32.2812 215.741C32.9382 211.555 34.1985 207.487 36.0229 203.663" stroke="#263238" stroke-width="1.25" stroke-linecap="round" stroke-linejoin="round"/>
<path d="M32.9276 219.67C31.09 217.656 29.0876 215.798 26.941 214.117C23.9477 211.947 23.5586 211.678 23.5586 211.678" stroke="#263238" stroke-width="1.25" stroke-linecap="round" stroke-linejoin="round"/>
<path d="M36.1797 238.715C36.2754 236.317 36.5531 233.931 37.0103 231.576C37.5179 229.364 38.2087 227.199 39.0757 225.103" stroke="#263238" stroke-width="1.25" stroke-linecap="round" stroke-linejoin="round"/>
<path d="M44.7351 251.054C43.8275 249.123 43.4504 246.984 43.6426 244.858C44.0691 241.678 44.3909 237.6 44.5331 235.976" stroke="#263238" stroke-width="1.25" stroke-linecap="round" stroke-linejoin="round"/>
<path d="M8.57695 208.782C8.57695 208.782 7.70141 207.233 8.64429 203.828C9.58718 200.423 10.2756 198.403 10.2756 198.403C10.2756 198.403 13.3812 201.351 12.5954 204.666C11.9768 207.032 11.1608 209.343 10.1559 211.573L8.57695 208.782Z" fill="#ADC7F7"/>
<path d="M17.2098 216.714C17.2098 216.714 16.3342 215.157 17.2771 211.76C18.22 208.363 18.9084 206.327 18.9084 206.327C18.9084 206.327 22.014 209.283 21.2282 212.591C20.6104 214.96 19.7944 217.273 18.7887 219.505L17.2098 216.714Z" fill="#ADC7F7"/>
<path d="M10.2075 211.371C10.2075 211.371 9.1748 209.927 5.71755 209.35C2.26031 208.774 0.0976562 208.542 0.0976562 208.542C0.0976562 208.542 1.47457 212.606 4.8046 213.287C7.21289 213.722 9.6535 213.955 12.1007 213.983L10.2075 211.371Z" fill="#ADC7F7"/>
<path d="M20.4889 220.658C20.4889 220.658 19.3066 219.326 15.782 219.116C12.2574 218.907 10.1172 218.907 10.1172 218.907C10.1172 218.907 11.9057 222.798 15.2956 223.127C17.7355 223.305 20.1859 223.28 22.6216 223.052L20.4889 220.658Z" fill="#ADC7F7"/>
<path d="M26.8356 233.529C26.8356 233.529 25.96 231.98 22.5552 231.037C19.1503 230.094 17.0625 229.645 17.0625 229.645C17.0625 229.645 17.9979 233.828 21.2381 234.883C23.584 235.583 25.9846 236.083 28.4145 236.38L26.8356 233.529Z" fill="#ADC7F7"/>
<path d="M28.5926 236.552C28.5926 236.552 27.5075 235.145 27.9565 231.643C28.4055 228.141 28.8021 226.038 28.8021 226.038C28.8021 226.038 32.2968 228.515 31.9825 231.905C31.7078 234.335 31.2297 236.738 30.5532 239.089L28.5926 236.552Z" fill="#ADC7F7"/>
<path d="M38.0008 248.226C38.0008 248.226 37.5967 246.497 39.4975 243.496C41.3982 240.496 42.5955 238.745 42.5955 238.745C42.5955 238.745 44.7432 242.486 43.052 245.412C41.7944 247.509 40.3625 249.497 38.7716 251.354L38.0008 248.226Z" fill="#ADC7F7"/>
<path d="M35.8431 244.364C35.8431 244.364 34.9675 242.808 31.5627 241.873C28.1578 240.937 26.0625 240.481 26.0625 240.481C26.0625 240.481 26.9979 244.656 30.2456 245.719C32.5925 246.414 34.9928 246.915 37.422 247.216L35.8431 244.364Z" fill="#ADC7F7"/>
<path d="M39.0233 253.359C39.0233 253.359 38.5668 251.638 35.5137 249.865C32.4605 248.091 30.5523 247.126 30.5523 247.126C30.5523 247.126 30.3952 251.406 33.2687 253.225C35.3669 254.484 37.5672 255.566 39.8465 256.457L39.0233 253.359Z" fill="#ADC7F7"/>
<path d="M8.15625 208.527C9.17866 210.085 10.2879 211.584 11.4788 213.017C14.8462 216.968 18.6103 218.615 21.7383 222.132C24.8663 225.649 25.3153 232.204 28.8922 236.971C32.4692 241.738 36.0836 243.466 37.453 247.223C38.8225 250.98 41.0899 261.98 41.0899 261.98" stroke="#263238" stroke-width="1.25" stroke-linecap="round" stroke-linejoin="round"/>
<path d="M10.8134 212.396L7.46094 211.925" stroke="#263238" stroke-width="1.25" stroke-linecap="round" stroke-linejoin="round"/>
<path d="M9.53415 210.391L9.52667 208.093" stroke="#263238" stroke-width="1.25" stroke-linecap="round" stroke-linejoin="round"/>
<path d="M21.4981 222.005C21.4981 222.005 18.7069 221.645 15.8633 221.316" stroke="#263238" stroke-width="1.25" stroke-linecap="round" stroke-linejoin="round"/>
<path d="M18.7918 219.505C18.6996 217.063 18.8575 214.619 19.2633 212.209" stroke="#263238" stroke-width="1.25" stroke-linecap="round" stroke-linejoin="round"/>
<path d="M28.008 235.781C25.7235 234.352 23.2429 233.263 20.6445 232.548" stroke="#263238" stroke-width="1.25" stroke-linecap="round" stroke-linejoin="round"/>
<path d="M29.6172 237.742C29.4199 236.003 29.3673 234.251 29.4601 232.504C29.6471 230.169 29.692 229.862 29.692 229.862" stroke="#263238" stroke-width="1.25" stroke-linecap="round" stroke-linejoin="round"/>
<path d="M38.3516 250.112C38.8603 248.643 39.4989 247.223 40.2598 245.869C40.7788 245.101 41.2343 244.293 41.6217 243.451" stroke="#263238" stroke-width="1.25" stroke-linecap="round" stroke-linejoin="round"/>
<path d="M37.4531 247.208C36.2722 246.26 35.0215 245.402 33.7115 244.641C32.4342 243.965 31.1025 243.397 29.7305 242.943" stroke="#263238" stroke-width="1.25" stroke-linecap="round" stroke-linejoin="round"/>
<path d="M39.848 256.457C39.2931 255.217 38.4174 254.148 37.3111 253.359C35.605 252.244 33.5097 250.695 32.6641 250.097" stroke="#263238" stroke-width="1.25" stroke-linecap="round" stroke-linejoin="round"/>
<path d="M4.48828 271.184H299.327" stroke="#263238" stroke-width="1.25"/>
<rect x="37.8359" y="34.7446" width="121.041" height="236.215" rx="13.194" fill="#263238"/>
<path opacity="0.2" d="M48.2773 34.7446C42.5088 34.7445 37.8255 39.4077 37.8008 45.1762V260.528C37.801 263.617 39.1715 266.547 41.5424 268.528L112.162 34.7446H48.2773Z" fill="white"/>
<path fill-rule="evenodd" clip-rule="evenodd" d="M102.478 264.158C102.478 261.885 100.635 260.042 98.3619 260.042C96.0888 260.042 94.2461 261.885 94.2461 264.158C94.2461 266.431 96.0888 268.273 98.3619 268.273C100.635 268.273 102.478 266.431 102.478 264.158V264.158Z" stroke="white" stroke-width="1.25" stroke-linecap="round" stroke-linejoin="round"/>
<rect x="37.8359" y="34.7446" width="121.041" height="236.215" rx="13.194" stroke="#263238" stroke-width="1.25" stroke-linecap="round" stroke-linejoin="round"/>
<rect x="43.2266" y="50.7811" width="110.28" height="206.155" fill="white" stroke="#263238" stroke-width="1.25" stroke-linecap="round" stroke-linejoin="round"/>
<rect x="140.605" y="52.9213" width="9.14449" height="5.01376" stroke="#263238" stroke-width="1.25" stroke-linecap="round" stroke-linejoin="round"/>
<rect x="140.605" y="52.9213" width="7.13151" height="5.01376" fill="#263238" stroke="#263238" stroke-width="1.25" stroke-linecap="round" stroke-linejoin="round"/>
<rect x="149.727" y="54.3281" width="1.28711" height="2.20755" fill="#263238" stroke="#263238" stroke-width="1.25" stroke-linecap="round" stroke-linejoin="round"/>
<rect x="45.7031" y="54.4778" width="1.67624" height="2.87356" fill="#263238" stroke="#263238" stroke-width="1.25" stroke-linecap="round" stroke-linejoin="round"/>
<rect x="48.3359" y="53.4676" width="1.67624" height="3.88379" fill="#263238" stroke="#263238" stroke-width="1.25" stroke-linecap="round" stroke-linejoin="round"/>
<rect x="50.9766" y="52.2778" width="1.67624" height="5.07362" fill="#263238" stroke="#263238" stroke-width="1.25" stroke-linecap="round" stroke-linejoin="round"/>
<rect x="52.6914" y="76.6655" width="92.7919" height="123.72" fill="#CFCFCF"/>
<path d="M86.5696 186.19C86.5696 186.19 86.3002 186.295 85.941 186.452C84.9906 186.886 83.3967 187.784 84.5716 188.472C86.1879 189.423 90.2738 187.904 91.4112 186.482" fill="#A3A3A3"/>
<path d="M86.5696 186.19C86.5696 186.19 86.3002 186.295 85.941 186.452C84.9906 186.886 83.3967 187.784 84.5716 188.472C86.1879 189.423 90.2738 187.904 91.4112 186.482" stroke="#263238" stroke-width="1.25"/>
<path d="M128.712 123.84C128.063 119.671 127.144 115.549 125.959 111.5C125.517 109.494 124.754 107.684 124.163 105.723C122.94 101.595 120.862 97.7703 118.064 94.4981C112.227 87.7632 101.698 87.3815 95.2025 93.2559C90.8174 97.207 88.1683 102.857 86.2227 108.327C87.5696 104.496 91.6181 101.27 95.8161 99.3472C101.149 99.8517 106.094 102.354 109.66 106.351C116.889 114.284 117.061 133.845 116.537 139.128L129.049 144.239C129.049 144.239 131.002 136.883 128.712 123.84Z" fill="#A3A3A3" stroke="#263238" stroke-width="1.25"/>
<path d="M127.966 124.618C127.317 120.452 126.397 116.332 125.212 112.286C124.771 110.28 124.008 108.469 123.424 106.509C122.196 102.383 120.119 98.5592 117.325 95.2838C111.481 88.5489 100.952 88.1673 94.4564 94.0341C90.0787 97.9927 87.4222 103.635 85.4766 109.105C86.831 105.281 90.8794 102.049 95.0775 100.125C100.407 100.635 105.348 103.137 108.914 107.13C116.143 115.062 116.322 134.623 115.791 139.914L128.303 145.025C128.303 145.025 130.211 137.691 127.966 124.618Z" fill="#A3A3A3" stroke="#263238" stroke-width="1.25"/>
<path d="M115.244 180.114C115.244 180.114 115.513 180.211 115.873 180.375C116.823 180.809 118.417 181.7 117.242 182.388C115.626 183.339 111.54 181.82 110.402 180.398" fill="#A3A3A3"/>
<path d="M115.244 180.114C115.244 180.114 115.513 180.211 115.873 180.375C116.823 180.809 118.417 181.7 117.242 182.388C115.626 183.339 111.54 181.82 110.402 180.398" stroke="#263238" stroke-width="1.25"/>
<ellipse cx="115.392" cy="158.534" rx="22.6143" ry="19.8455" transform="rotate(-74.64 115.392 158.534)" fill="#263238" stroke="#263238" stroke-width="1.25"/>
<path d="M120.661 136.546C110.304 134.167 99.4832 141.5 96.2504 153.271C93.4292 163.553 97.313 173.888 105.088 178.497C115.445 180.877 126.258 173.536 129.491 161.772C132.32 151.483 128.436 141.156 120.661 136.546Z" fill="#A3A3A3" stroke="#263238" stroke-width="1.25"/>
<ellipse cx="111.484" cy="156.066" rx="13.6868" ry="9.97513" transform="rotate(-74.57 111.484 156.066)" fill="#263238" stroke="#263238" stroke-width="1.25"/>
<ellipse cx="84.3669" cy="161.026" rx="21.6489" ry="26.1015" transform="rotate(-19.08 84.3669 161.026)" fill="#A3A3A3" stroke="#263238" stroke-width="1.25"/>
<ellipse cx="83.0666" cy="161.472" rx="17.0393" ry="25.2933" transform="rotate(-19.08 83.0666 161.472)" fill="#263238" stroke="#263238" stroke-width="1.25"/>
<ellipse cx="79.845" cy="164.398" rx="15.378" ry="18.7829" transform="rotate(-19.08 79.845 164.398)" fill="#A3A3A3" stroke="#263238" stroke-width="1.25"/>
<ellipse cx="77.1848" cy="164.897" rx="15.378" ry="18.7829" transform="rotate(-19.08 77.1848 164.897)" fill="#A3A3A3" stroke="#263238" stroke-width="1.25"/>
<ellipse cx="74.7838" cy="166.308" rx="12.6541" ry="14.959" transform="rotate(-15.29 74.7838 166.308)" fill="#A3A3A3" stroke="#263238" stroke-width="1.25"/>
<path d="M90.174 90.3973C68.2332 98.8608 67.2529 127.739 67.9788 147.307V147.374C68.027 149.179 67.2898 150.915 65.9583 152.134C61.5657 156.25 59.9717 163.621 62.4412 170.774C65.6066 179.919 74.2422 185.24 81.7329 182.65C89.2236 180.061 92.7258 170.543 89.5604 161.391C88.719 158.926 87.4219 156.641 85.7365 154.656C85.0732 153.908 84.5986 153.013 84.3521 152.044V151.992C81.9574 142.472 81.6434 132.549 83.4316 122.897C84.025 119.679 84.8223 116.502 85.8188 113.386C90.3835 99.3247 93.5714 95.5756 97.7919 92.5749C103.853 88.272 109.017 89.8211 110.513 90.0081C111.805 90.2863 113.049 90.7475 114.21 91.3776C106.692 87.6885 97.9679 87.3327 90.174 90.3973Z" fill="#A3A3A3" stroke="#263238" stroke-width="1.25"/>
<ellipse cx="74.1297" cy="165.651" rx="9.4064" ry="12.3548" transform="rotate(-19.33 74.1297 165.651)" fill="#A3A3A3" stroke="#263238" stroke-width="1.25"/>
<path d="M70.3438 120.48C70.3438 120.48 75.3575 117.247 83.7537 120.637L70.3438 120.48Z" fill="#A3A3A3"/>
<path d="M70.3438 120.48C70.3438 120.48 75.3575 117.247 83.7537 120.637" stroke="#263238" stroke-width="1.25"/>
<path d="M95.832 99.3921C95.832 99.3921 103.682 94.6103 116.254 99.0029L95.832 99.3921Z" fill="#A3A3A3"/>
<path d="M95.832 99.3921C95.832 99.3921 103.682 94.6103 116.254 99.0029" stroke="#263238" stroke-width="1.25"/>
<path d="M127.966 124.618C127.105 119.724 126.349 116.327 125.766 114.141C121.707 115.179 117.523 115.645 113.336 115.526C114.267 118.61 114.926 121.77 115.304 124.97C119.532 125.606 124.74 125.209 127.973 124.828C127.966 124.768 127.966 124.693 127.966 124.618Z" fill="#A3A3A3" stroke="#263238" stroke-width="1.25"/>
<rect x="63.8125" y="215.906" width="69.0925" height="18.955" rx="3.62562" fill="#ADC7F7" stroke="#263238" stroke-width="1.25" stroke-linecap="round" stroke-linejoin="round"/>
<path d="M76.457 227.086H71.3384C71.028 227.084 70.7511 226.89 70.6425 226.599L68.8465 221.78H66.6016V220.283H69.3479C69.6583 220.286 69.9352 220.479 70.0438 220.77L71.8697 225.589H75.993L77.6243 222.005L79.121 222.117L77.123 226.644C77.0047 226.907 76.7455 227.079 76.457 227.086Z" fill="#263238"/>
<path d="M73.1729 228.71C73.1759 229.083 72.9528 229.422 72.6082 229.566C72.2636 229.71 71.8658 229.632 71.6016 229.368C71.3374 229.104 71.2592 228.706 71.4036 228.361C71.5479 228.017 71.8863 227.794 72.2599 227.797C72.7642 227.797 73.1729 228.205 73.1729 228.71Z" fill="#263238"/>
<path d="M73.7048 224.167C73.7048 224.671 73.2961 225.08 72.7919 225.08C72.2876 225.08 71.8789 224.671 71.8789 224.167C71.8789 223.663 72.2876 223.254 72.7919 223.254C73.2944 223.258 73.7007 223.665 73.7048 224.167Z" fill="#263238"/>
<path d="M76.0407 224.167C76.0407 224.671 75.632 225.08 75.1278 225.08C74.6236 225.08 74.2148 224.671 74.2148 224.167C74.2148 223.663 74.6236 223.254 75.1278 223.254C75.3699 223.254 75.6021 223.35 75.7734 223.522C75.9446 223.693 76.0407 223.925 76.0407 224.167Z" fill="#263238"/>
<path d="M73.0173 222.027C73.0173 222.531 72.6086 222.94 72.1044 222.94C71.6001 222.94 71.1914 222.531 71.1914 222.027C71.1914 221.523 71.6001 221.114 72.1044 221.114C72.6069 221.118 73.0132 221.525 73.0173 222.027Z" fill="#263238"/>
<path d="M75.0674 222.027C75.0705 222.4 74.8481 222.738 74.5044 222.883C74.1608 223.028 73.7636 222.951 73.4988 222.688C73.234 222.425 73.1539 222.029 73.2959 221.684C73.4379 221.339 73.774 221.114 74.147 221.114C74.6524 221.114 75.0633 221.522 75.0674 222.027Z" fill="#263238"/>
<path d="M77.0798 222.027C77.0798 222.531 76.6711 222.94 76.1669 222.94C75.6626 222.94 75.2539 222.531 75.2539 222.027C75.2539 221.523 75.6626 221.114 76.1669 221.114C76.409 221.114 76.6412 221.21 76.8124 221.381C76.9836 221.553 77.0798 221.785 77.0798 222.027Z" fill="#263238"/>
<path d="M76.279 228.71C76.279 229.214 75.8703 229.623 75.3661 229.623C74.8619 229.623 74.4531 229.214 74.4531 228.71C74.4531 228.205 74.8619 227.797 75.3661 227.797C75.8703 227.797 76.279 228.205 76.279 228.71Z" fill="#263238"/>
<path fill-rule="evenodd" clip-rule="evenodd" d="M85.4522 227.093H88.0264L88.3856 228.059C88.4254 228.176 88.4981 228.28 88.5951 228.358C88.6872 228.422 88.7971 228.456 88.9094 228.455C89.0524 228.458 89.1913 228.408 89.2985 228.313C89.4073 228.222 89.4703 228.088 89.4706 227.946C89.4691 227.875 89.4565 227.804 89.4332 227.737L87.6597 223.307C87.5885 223.073 87.4538 222.863 87.2706 222.701C86.9445 222.501 86.534 222.501 86.208 222.701C86.0222 222.861 85.887 223.071 85.8188 223.307L84.0453 227.737C84.0221 227.804 84.0094 227.875 84.0079 227.946C84.0053 228.087 84.0657 228.221 84.1725 228.313C84.2812 228.405 84.4192 228.456 84.5617 228.455C84.6743 228.458 84.7848 228.424 84.8759 228.358C84.9772 228.284 85.051 228.179 85.0855 228.059L85.4522 227.093ZM85.744 226.315L86.7393 223.651L87.7345 226.315H85.744Z" fill="#263238"/>
<path fill-rule="evenodd" clip-rule="evenodd" d="M90.2206 227.49C90.3466 227.792 90.557 228.052 90.8267 228.238C91.1008 228.429 91.4282 228.529 91.7621 228.523C92.3058 228.57 92.8279 228.299 93.1016 227.827V227.969C93.0927 228.105 93.1385 228.24 93.2288 228.343C93.3299 228.431 93.4614 228.477 93.5955 228.47C93.7346 228.473 93.8681 228.415 93.9622 228.313C94.0628 228.197 94.1138 228.047 94.1044 227.894V223.194C94.1127 223.048 94.0645 222.903 93.9697 222.79C93.8747 222.695 93.7447 222.644 93.6105 222.648C93.4713 222.641 93.3354 222.692 93.2363 222.79C93.1359 222.9 93.0845 223.046 93.0941 223.194V225.02C92.8216 224.587 92.3324 224.34 91.822 224.377C91.3237 224.355 90.8414 224.555 90.505 224.923C90.1638 225.345 89.9906 225.878 90.0185 226.42C90.0132 226.786 90.0819 227.15 90.2206 227.49ZM93.0941 226.442C93.1194 226.808 93.0334 227.174 92.8472 227.49C92.6538 227.744 92.3422 227.88 92.024 227.849C91.6886 227.851 91.3799 227.667 91.2233 227.37C91.1577 227.225 91.1051 227.075 91.0662 226.921C91.0336 226.761 91.0161 226.598 91.0138 226.435C91.0135 226.266 91.0336 226.097 91.0737 225.933C91.1083 225.782 91.1637 225.636 91.2383 225.499C91.3127 225.366 91.4212 225.255 91.5526 225.178C91.7005 225.101 91.865 225.062 92.0315 225.065C92.2506 225.054 92.4662 225.123 92.6377 225.26C92.802 225.385 92.9246 225.557 92.9894 225.754C93.0622 225.976 93.0976 226.208 93.0941 226.442Z" fill="#263238"/>
<path fill-rule="evenodd" clip-rule="evenodd" d="M95.1816 227.49C95.3076 227.792 95.5181 228.052 95.7878 228.238C96.0619 228.429 96.3892 228.529 96.7232 228.523C97.2669 228.57 97.789 228.299 98.0627 227.827V227.969C98.0522 228.107 98.1012 228.243 98.1974 228.343C98.2957 228.431 98.4248 228.477 98.5566 228.47C98.6956 228.473 98.8291 228.415 98.9233 228.313C99.0265 228.199 99.0803 228.048 99.0729 227.894V223.194C99.0792 223.046 99.0283 222.902 98.9307 222.79C98.8368 222.694 98.7061 222.642 98.5715 222.648C98.4323 222.641 98.2964 222.692 98.1974 222.79C98.0998 222.902 98.0489 223.046 98.0552 223.194V225.02C97.7839 224.586 97.2938 224.338 96.7831 224.377C96.2868 224.354 95.8064 224.554 95.4735 224.923C95.1271 225.342 94.9509 225.877 94.9796 226.42C94.9742 226.786 95.043 227.15 95.1816 227.49ZM98.0552 226.442C98.0805 226.808 97.9944 227.174 97.8083 227.49H97.7933C97.6028 227.74 97.2981 227.875 96.9851 227.849C96.8155 227.854 96.6485 227.807 96.5062 227.714C96.3674 227.636 96.2573 227.515 96.1919 227.37C96.1207 227.227 96.0655 227.076 96.0272 226.921C95.9946 226.761 95.9771 226.598 95.9749 226.435C95.9745 226.266 95.9946 226.097 96.0347 225.933C96.0693 225.782 96.1247 225.636 96.1994 225.499C96.2737 225.366 96.3822 225.255 96.5137 225.178C96.6615 225.101 96.8261 225.062 96.9926 225.065C97.2138 225.055 97.4314 225.124 97.6062 225.26C97.7662 225.388 97.8857 225.559 97.9504 225.754C98.0232 225.976 98.0586 226.208 98.0552 226.442Z" fill="#263238"/>
<path d="M103.047 228.133C102.829 227.863 102.719 227.522 102.74 227.175V225.088H102.351C102.251 225.097 102.152 225.061 102.081 224.99C101.957 224.849 101.957 224.638 102.081 224.497C102.152 224.431 102.247 224.399 102.343 224.407H102.77L102.89 223.411C102.899 223.279 102.951 223.152 103.039 223.052C103.128 222.953 103.258 222.901 103.391 222.91C103.497 222.905 103.599 222.949 103.668 223.03C103.738 223.133 103.773 223.257 103.765 223.382V224.407H104.416C104.511 224.399 104.605 224.435 104.671 224.504C104.733 224.573 104.765 224.665 104.76 224.758C104.764 224.847 104.732 224.933 104.671 224.998C104.599 225.062 104.504 225.094 104.409 225.088H103.765V226.921C103.752 227.118 103.785 227.315 103.862 227.497C103.926 227.627 104.063 227.704 104.207 227.692H104.498C104.601 227.69 104.7 227.734 104.768 227.812C104.828 227.885 104.86 227.978 104.858 228.073C104.87 228.13 104.87 228.189 104.858 228.246C104.838 228.295 104.8 228.334 104.753 228.358C104.71 228.39 104.662 228.415 104.611 228.433C104.546 228.443 104.481 228.443 104.416 228.433H104.207H103.885C103.577 228.447 103.276 228.339 103.047 228.133Z" fill="#263238"/>
<path fill-rule="evenodd" clip-rule="evenodd" d="M105.896 227.842C106.074 228.048 106.3 228.207 106.554 228.305C106.848 228.442 107.166 228.519 107.49 228.53C107.743 228.53 107.995 228.492 108.238 228.418C108.454 228.348 108.657 228.242 108.836 228.103C108.999 227.973 109.138 227.816 109.248 227.639C109.358 227.466 109.441 227.277 109.495 227.078C109.549 226.878 109.576 226.672 109.577 226.465C109.577 226.247 109.55 226.031 109.495 225.821C109.439 225.619 109.35 225.427 109.233 225.252C109.122 225.076 108.98 224.922 108.814 224.796C108.636 224.66 108.436 224.556 108.223 224.489C107.98 224.416 107.728 224.381 107.475 224.384C107.221 224.384 106.969 224.422 106.726 224.497C106.311 224.617 105.952 224.882 105.716 225.245C105.605 225.418 105.522 225.607 105.469 225.806C105.415 226.011 105.387 226.223 105.387 226.435C105.389 226.689 105.432 226.942 105.514 227.183C105.604 227.422 105.733 227.644 105.896 227.842ZM108.32 225.387C108.7 226.015 108.7 226.802 108.32 227.43V227.437C108.11 227.666 107.815 227.796 107.504 227.796C107.194 227.796 106.899 227.666 106.689 227.437C106.479 227.141 106.376 226.782 106.397 226.42C106.375 226.052 106.478 225.688 106.689 225.387C106.897 225.157 107.194 225.025 107.504 225.025C107.815 225.025 108.112 225.157 108.32 225.387Z" fill="#263238"/>
<path d="M114.039 228.171C113.616 227.92 113.274 227.554 113.051 227.116C112.804 226.624 112.681 226.079 112.692 225.529C112.684 225.09 112.758 224.654 112.909 224.242C113.037 223.879 113.241 223.547 113.508 223.269C113.766 223.005 114.077 222.799 114.421 222.663C114.782 222.517 115.169 222.444 115.558 222.446C116.079 222.453 116.592 222.581 117.055 222.82C117.223 222.892 117.331 223.057 117.332 223.239C117.331 223.361 117.285 223.478 117.205 223.569C117.126 223.66 117.011 223.712 116.89 223.711C116.838 223.721 116.785 223.721 116.733 223.711L116.583 223.651L116.389 223.569L116.179 223.494C116.089 223.468 115.996 223.451 115.902 223.441C115.8 223.433 115.698 223.433 115.596 223.441C115.118 223.413 114.654 223.606 114.338 223.965C113.744 224.929 113.744 226.145 114.338 227.108C114.659 227.481 115.135 227.683 115.626 227.654C116.048 227.638 116.459 227.517 116.823 227.303C116.976 227.217 117.17 227.255 117.279 227.393C117.352 227.481 117.392 227.592 117.392 227.707C117.394 227.874 117.309 228.03 117.167 228.118C116.651 228.445 116.049 228.61 115.438 228.59C114.943 228.58 114.459 228.435 114.039 228.171Z" fill="#263238"/>
<path fill-rule="evenodd" clip-rule="evenodd" d="M118.04 227.325C118.025 227.654 118.17 227.969 118.429 228.171C118.742 228.356 119.109 228.43 119.469 228.38C119.732 228.391 119.992 228.326 120.218 228.193C120.402 228.069 120.547 227.895 120.637 227.692V227.827C120.628 227.966 120.68 228.102 120.779 228.201C120.869 228.289 120.99 228.337 121.116 228.335C121.244 228.338 121.367 228.289 121.46 228.201C121.554 228.099 121.602 227.964 121.595 227.827V225.776C121.601 225.534 121.561 225.292 121.475 225.065C121.401 224.876 121.28 224.708 121.123 224.579C120.968 224.462 120.793 224.374 120.607 224.317C120.389 224.261 120.166 224.233 119.941 224.235C119.425 224.226 118.913 224.333 118.444 224.549C118.33 224.596 118.258 224.71 118.265 224.833C118.264 224.932 118.298 225.027 118.362 225.103C118.421 225.175 118.508 225.219 118.601 225.222C118.638 225.232 118.677 225.232 118.714 225.222L118.803 225.185H118.916L119.021 225.14L119.155 225.103L119.282 225.065L119.425 225.028H119.567H119.731H119.866C120.061 225.012 120.255 225.074 120.405 225.2C120.537 225.353 120.602 225.552 120.584 225.754V226.068H119.881C119.794 226.071 119.706 226.081 119.619 226.09C119.513 226.102 119.408 226.113 119.305 226.113C119.146 226.13 118.988 226.16 118.833 226.203C118.712 226.242 118.594 226.292 118.482 226.352C118.381 226.407 118.294 226.484 118.227 226.577C118.164 226.676 118.116 226.785 118.085 226.899C118.053 227.038 118.038 227.182 118.04 227.325ZM120.577 226.719C120.584 227.018 120.474 227.308 120.27 227.527C120.085 227.721 119.827 227.829 119.559 227.827C119.4 227.836 119.244 227.782 119.125 227.677C119.014 227.564 118.957 227.408 118.968 227.25C118.964 227.146 118.982 227.041 119.021 226.944C119.058 226.868 119.111 226.801 119.178 226.749C119.274 226.693 119.381 226.657 119.492 226.644C119.641 226.621 119.791 226.606 119.941 226.599H120.577V226.719Z" fill="#263238"/>
<path d="M122.788 228.29C122.687 228.178 122.635 228.03 122.646 227.879V224.886C122.639 224.749 122.694 224.617 122.796 224.526C122.897 224.444 123.024 224.399 123.155 224.399C123.284 224.399 123.411 224.441 123.514 224.519C123.613 224.602 123.668 224.726 123.664 224.856V225.275C123.738 225.032 123.881 224.817 124.075 224.654C124.265 224.485 124.51 224.392 124.764 224.392C124.873 224.388 124.978 224.435 125.048 224.519C125.116 224.604 125.15 224.71 125.145 224.818C125.147 224.925 125.115 225.029 125.056 225.118C125.002 225.201 124.908 225.25 124.809 225.245C124.667 225.232 124.524 225.232 124.382 225.245C124.26 225.275 124.142 225.32 124.03 225.38C123.914 225.449 123.822 225.554 123.768 225.679C123.704 225.83 123.674 225.994 123.679 226.158V227.864C123.685 228.012 123.634 228.157 123.536 228.268C123.436 228.365 123.301 228.416 123.162 228.41C123.027 228.421 122.892 228.378 122.788 228.29Z" fill="#263238"/>
<path d="M126.385 228.133C126.164 227.865 126.054 227.522 126.078 227.176V225.088H125.719C125.62 225.094 125.522 225.059 125.45 224.99C125.387 224.921 125.355 224.829 125.36 224.736C125.356 224.647 125.389 224.561 125.45 224.497C125.521 224.431 125.616 224.399 125.712 224.407H126.131L126.258 223.411C126.263 223.278 126.316 223.15 126.408 223.052C126.495 222.956 126.621 222.903 126.752 222.91C126.858 222.902 126.962 222.946 127.029 223.03C127.105 223.13 127.143 223.255 127.133 223.382V224.407H127.777C127.874 224.4 127.97 224.435 128.039 224.504C128.101 224.574 128.134 224.665 128.129 224.758C128.132 224.847 128.1 224.933 128.039 224.998C127.967 225.062 127.873 225.094 127.777 225.088H127.133V226.921C127.123 227.117 127.153 227.314 127.223 227.497C127.289 227.625 127.424 227.702 127.567 227.692H127.612H127.904C128.005 227.688 128.103 227.733 128.166 227.812C128.232 227.883 128.267 227.977 128.263 228.074C128.275 228.13 128.275 228.189 128.263 228.246C128.243 228.295 128.206 228.334 128.159 228.358C128.115 228.39 128.067 228.415 128.016 228.433C127.952 228.443 127.886 228.443 127.822 228.433H127.612H127.216C126.91 228.447 126.611 228.339 126.385 228.133Z" fill="#263238"/>
<rect x="45" y="60.7263" width="105.895" height="7.96214" fill="#FB7D00"/>
<rect x="58.4219" y="61.5869" width="46.4184" height="3.88379" fill="white"/>
<rect x="55.6484" y="187.649" width="9.73567" height="9.25674" fill="white" stroke="#263238" stroke-width="1.25"/>
<rect x="68.2266" y="187.649" width="9.73567" height="9.25674" fill="white" stroke="#263238" stroke-width="1.25"/>
<path d="M186.742 166.352H261.769C268.485 166.352 273.929 171.796 273.929 178.512V268.311C273.929 269.943 272.606 271.267 270.973 271.267H177.538C175.905 271.267 174.582 269.943 174.582 268.311V178.512C174.582 171.796 180.026 166.352 186.742 166.352Z" fill="#263238" stroke="#263238" stroke-width="1.25" stroke-linecap="round" stroke-linejoin="round"/>
<path d="M178.766 165.656H253.785C257.01 165.656 260.103 166.937 262.384 169.218C264.664 171.498 265.945 174.591 265.945 177.816V267.615C265.945 269.247 264.622 270.571 262.989 270.571H169.561C167.929 270.571 166.605 269.247 166.605 267.615V177.816C166.605 171.1 172.05 165.656 178.766 165.656Z" fill="#FB7D00" stroke="#263238" stroke-width="1.25" stroke-linecap="round" stroke-linejoin="round"/>
<rect x="160.492" y="189.273" width="21.185" height="81.9712" rx="3.58927" fill="white" stroke="#263238" stroke-width="1.25" stroke-linecap="round" stroke-linejoin="round"/>
<rect x="159.617" y="212.202" width="81.6194" height="20.489" fill="#C4C4C4" stroke="#263238" stroke-width="1.25" stroke-linecap="round" stroke-linejoin="round"/>
<rect x="159.617" y="217.754" width="81.6194" height="20.489" fill="#FB7D00" stroke="#263238" stroke-width="1.25" stroke-linecap="round" stroke-linejoin="round"/>
<rect x="146.414" y="189.273" width="21.185" height="81.9712" rx="3.58927" fill="#FB7D00" stroke="#263238" stroke-width="1.25" stroke-linecap="round" stroke-linejoin="round"/>
<rect x="167.602" y="236.859" width="99.3397" height="34.3854" rx="3.58927" fill="#FB7D00" stroke="#263238" stroke-width="1.25" stroke-linecap="round" stroke-linejoin="round"/>
<path d="M214.283 96.0097C211.856 95.5734 209.355 95.8516 207.084 96.8104C203.559 98.4118 191.369 110.28 190.621 113.131C189.873 115.982 193.816 120.659 195.26 124.663C196.705 128.666 198.299 132.662 197.341 136.988C196.383 141.313 193.816 142.585 193.816 142.585C193.816 142.585 193.659 142.75 198.62 144.187C203.582 145.623 209.187 143.386 212.39 138.903C215.592 134.421 216.55 126.743 216.071 118.901C215.592 111.058 214.283 96.0097 214.283 96.0097Z" fill="#263238" stroke="#263238" stroke-width="1.25" stroke-linecap="round" stroke-linejoin="round"/>
<path d="M232.21 201.972C228.93 201.767 225.667 201.339 222.445 200.692C216.683 199.57 197.795 189.325 193.791 188.719C191.285 188.315 187.767 187.664 185.418 188.457C182.94 187.218 180.28 186.384 177.538 185.988C177.538 185.988 167.81 185.801 166.5 192.162C165.191 198.522 167.81 225.462 168.745 237.248C169.681 249.034 174.17 265.31 172.861 270.735C171.551 276.161 168.371 278.219 168.745 278.967C169.119 279.715 175.293 278.967 177.912 277.657C180.531 276.348 181.092 272.232 181.092 270.174C181.092 268.116 180.531 265.497 182.028 264C183.525 262.504 185.208 261.381 184.273 258.575C183.337 255.769 178.66 253.337 178.66 253.337C178.052 245.899 178.43 238.413 179.783 231.074C181.332 223.064 182.021 214.911 181.841 206.754C181.841 201.328 181.654 196.464 181.654 196.464C181.654 196.464 188.95 210.278 195.311 214.955C201.671 219.632 215.515 218.323 215.515 218.323L215.455 218.233C221.652 218.046 231.799 217.485 233.333 212.853C235.091 207.577 232.21 201.972 232.21 201.972Z" fill="#ADC7F7" stroke="#263238" stroke-width="1.25" stroke-linecap="round" stroke-linejoin="round"/>
<path d="M178.661 253.307C178.115 246.732 178.351 240.115 179.364 233.596C176.075 235.353 172.361 236.154 168.641 235.908C168.678 236.357 168.715 236.799 168.745 237.218C169.681 249.004 174.171 265.28 172.861 270.705C171.552 276.131 168.371 278.189 168.745 278.937C169.12 279.685 175.293 278.937 177.912 277.627C180.531 276.318 181.093 272.202 181.093 270.144C181.093 268.086 180.531 265.467 182.028 263.971C183.525 262.474 185.208 261.351 184.273 258.545C183.338 255.739 178.661 253.307 178.661 253.307Z" fill="white" stroke="#263238" stroke-width="1.25" stroke-linecap="round" stroke-linejoin="round"/>
<path d="M177.911 277.627C180.53 276.318 181.092 272.202 181.092 270.144C181.092 268.086 180.53 265.467 182.027 263.97C183.524 262.474 185.207 261.351 184.272 258.545C183.337 255.739 178.66 253.307 178.66 253.307C178.66 253.307 178.54 252.222 178.457 250.314C177.17 251.152 173.968 252.985 170.974 252.641C172.336 260.341 173.616 267.443 172.838 270.683C171.528 276.108 168.348 278.166 168.722 278.914C169.096 279.663 175.292 278.937 177.911 277.627Z" fill="#ADC7F7" stroke="#263238" stroke-width="1.25" stroke-linecap="round" stroke-linejoin="round"/>
<path d="M206.917 135.543C206.968 137.182 206.696 138.814 206.116 140.348C205.159 142.907 191.397 145.309 190.753 146.911C190.11 148.512 188.351 156.511 187.393 164.197C186.436 171.882 184.991 179.911 184.991 179.911C184.991 179.911 184.348 184.551 184.834 187.275C185.321 189.999 212.844 201.493 221.165 202.324C229.487 203.154 232.21 203.282 233.011 201.68C233.441 200.943 233.713 200.125 233.812 199.278C233.983 198.187 233.816 197.069 233.333 196.075C231.462 192.715 228.843 186.347 228.843 182.95C228.843 179.552 237.823 150.458 237.486 148.527C237.149 146.596 221.023 140.684 221.023 140.684C221.023 140.684 215.74 139.397 214.939 137.961C214.138 136.524 214.138 130.118 214.138 130.118L206.917 135.543Z" fill="#6B6B6B" stroke="#263238" stroke-width="1.25" stroke-linecap="round" stroke-linejoin="round"/>
<path d="M221.01 140.684C221.01 140.684 215.727 139.397 214.926 137.961C214.126 136.524 214.126 130.118 214.126 130.118L206.919 135.558C206.97 137.197 206.698 138.829 206.119 140.363C205.744 141.373 203.35 142.368 200.559 143.289C200.746 145.833 201.674 151.341 206.283 153.645C211.956 156.482 218.197 150.817 222.387 141.193L221.01 140.684Z" fill="white" stroke="#263238" stroke-width="1.25" stroke-linecap="round" stroke-linejoin="round"/>
<path d="M209.162 150.907C213.988 151.281 217.094 143.423 218.254 139.839C216.832 139.338 215.321 138.664 214.924 137.946C214.123 136.501 214.123 130.103 214.123 130.103L206.917 135.544C206.968 137.182 206.696 138.814 206.116 140.348C205.69 141.026 205.046 141.541 204.29 141.807C204.126 143.438 203.647 150.487 209.162 150.907Z" fill="white" stroke="#263238" stroke-width="1.25" stroke-linecap="round" stroke-linejoin="round"/>
<path d="M206.283 107.691L195.395 115.242C195.395 115.242 196.195 126.601 197.318 129.325C198.44 132.049 200.999 137.325 205.003 136.846C209.007 136.367 213.646 130.762 213.646 130.762C213.646 130.762 215.083 116.499 206.283 107.691Z" fill="white" stroke="#263238" stroke-width="1.25" stroke-linecap="round" stroke-linejoin="round"/>
<path d="M197.797 121.46C198.589 122.11 199.729 122.11 200.521 121.46H197.797Z" fill="white"/>
<path d="M197.797 121.46C198.589 122.11 199.729 122.11 200.521 121.46" stroke="#263238" stroke-width="1.25" stroke-linecap="round" stroke-linejoin="round"/>
<path d="M204.836 121.617C204.836 121.617 207.238 122.897 208.039 121.46L204.836 121.617Z" fill="white"/>
<path d="M204.836 121.617C204.836 121.617 207.238 122.897 208.039 121.46" stroke="#263238" stroke-width="1.25" stroke-linecap="round" stroke-linejoin="round"/>
<path d="M197.16 117.936C197.16 117.936 198.44 115.533 200.999 117.457L197.16 117.936Z" fill="white"/>
<path d="M197.16 117.936C197.16 117.936 198.44 115.533 200.999 117.457" stroke="#263238" stroke-width="1.25" stroke-linecap="round" stroke-linejoin="round"/>
<path d="M204.035 117.614C204.035 117.614 206.115 115.855 208.039 118.414L204.035 117.614Z" fill="white"/>
<path d="M204.035 117.614C204.035 117.614 206.115 115.855 208.039 118.414" stroke="#263238" stroke-width="1.25" stroke-linecap="round" stroke-linejoin="round"/>
<path d="M201.635 120.338C201.635 120.338 202.121 123.219 202.121 124.019C202.121 124.82 200.198 126.422 201.32 127.058C201.847 127.409 202.45 127.629 203.079 127.701" fill="white"/>
<path d="M201.635 120.338C201.635 120.338 202.121 123.219 202.121 124.019C202.121 124.82 200.198 126.422 201.32 127.058C201.847 127.409 202.45 127.629 203.079 127.701" stroke="#263238" stroke-width="1.25" stroke-linecap="round" stroke-linejoin="round"/>
<path d="M204.359 129.303C206.251 129.653 208.084 128.453 208.52 126.579L204.359 129.303Z" fill="white"/>
<path d="M204.359 129.303C206.251 129.653 208.084 128.453 208.52 126.579" stroke="#263238" stroke-width="1.25" stroke-linecap="round" stroke-linejoin="round"/>
<path d="M204.836 106.262C207.336 111.546 209.321 117.059 210.763 122.725C212.843 131.368 212.678 136.486 212.364 138.889C212.132 140.316 211.052 141.457 209.64 141.77C212.51 142.833 215.561 143.323 218.62 143.214C223.11 142.892 230.466 139.854 231.102 134.234C231.738 128.614 227.42 116.626 225.183 109.906C222.945 103.186 219.578 96.7805 216.061 95.8151C212.544 94.8498 206.931 99.9758 205.33 103.343" fill="#263238"/>
<path d="M204.836 106.262C207.336 111.546 209.321 117.059 210.763 122.725C212.843 131.368 212.678 136.486 212.364 138.889C212.132 140.316 211.052 141.457 209.64 141.77C212.51 142.833 215.561 143.323 218.62 143.214C223.11 142.892 230.466 139.854 231.102 134.234C231.738 128.614 227.42 116.626 225.183 109.906C222.945 103.186 219.578 96.7805 216.061 95.8151C212.544 94.8498 206.931 99.9758 205.33 103.343" stroke="#263238" stroke-width="1.25" stroke-linecap="round" stroke-linejoin="round"/>
<path d="M168.965 169.869L176.059 183.78C176.238 184.133 176.592 184.363 176.987 184.386L182.921 184.731C183.294 184.75 183.651 184.579 183.871 184.278C184.092 183.976 184.145 183.584 184.013 183.234L178.102 168.612C177.924 168.173 177.489 167.894 177.016 167.916L169.915 168.275C169.541 168.29 169.2 168.493 169.008 168.815C168.816 169.136 168.8 169.533 168.965 169.869Z" fill="#263238" stroke="#263238" stroke-width="1.25" stroke-linecap="round" stroke-linejoin="round"/>
<path d="M170.057 181.655C170.057 181.655 169.308 183.9 170.618 185.21C171.927 186.519 175.31 187.455 176.792 186.145C178.273 184.835 173.985 183.9 172.863 182.778C172.09 182.083 171.095 181.685 170.057 181.655Z" fill="white" stroke="#263238" stroke-width="1.25" stroke-linecap="round" stroke-linejoin="round"/>
<path d="M171.179 178.662C171.179 178.662 168.373 180.907 169.495 182.59C170.618 184.274 176.605 186.145 177.166 185.023C177.727 183.9 171.179 178.662 171.179 178.662Z" fill="white" stroke="#263238" stroke-width="1.25" stroke-linecap="round" stroke-linejoin="round"/>
<path d="M172.3 175.669C172.3 175.669 170.242 178.101 170.616 179.597C170.99 181.094 177.179 186.774 176.984 184.401C176.789 182.029 172.674 177.913 172.674 177.913L172.3 175.669Z" fill="white" stroke="#263238" stroke-width="1.25" stroke-linecap="round" stroke-linejoin="round"/>
<path d="M192.099 162.588C191.546 166.09 191.059 170.071 191.396 171.396C192.032 173.962 194.913 182.284 194.913 182.284" stroke="#263238" stroke-width="1.25" stroke-linecap="round" stroke-linejoin="round"/>
<path d="M193.155 156.511C193.155 156.511 192.998 157.32 192.773 158.562" stroke="#263238" stroke-width="1.25" stroke-linecap="round" stroke-linejoin="round"/>
<path d="M224.045 209.53C224.045 209.53 211.563 195.447 202.119 188.884C192.675 182.321 178.42 178.071 176.983 184.439C175.546 190.807 174.267 213.855 170.907 226.816C167.547 239.777 158.739 258.994 156.015 262.676C153.291 266.358 145.77 273.556 144.042 274.836C142.313 276.116 140.203 277.403 141.483 278.196C142.762 278.989 147.724 280.284 150.926 278.84C154.129 277.395 157.811 275.001 159.906 274.679C162.002 274.357 163.588 273.878 163.902 270.675C164.217 267.473 163.588 262.833 164.546 260.431C165.504 258.029 175.434 241.386 179.909 236.425C184.384 231.463 186.644 226.659 188.395 219.453C190.146 212.246 189.675 203.289 189.675 203.289C189.675 203.289 194.958 215.771 207.926 217.507C220.895 219.243 224.569 216.864 224.569 216.864" fill="#ADC7F7"/>
<path d="M224.045 209.53C224.045 209.53 211.563 195.447 202.119 188.884C192.675 182.321 178.42 178.071 176.983 184.439C175.546 190.807 174.267 213.855 170.907 226.816C167.547 239.777 158.739 258.994 156.015 262.676C153.291 266.358 145.77 273.556 144.042 274.836C142.313 276.116 140.203 277.403 141.483 278.196C142.762 278.989 147.724 280.284 150.926 278.84C154.129 277.395 157.811 275.001 159.906 274.679C162.002 274.357 163.588 273.878 163.902 270.675C164.217 267.473 163.588 262.833 164.546 260.431C165.504 258.029 175.434 241.386 179.909 236.425C184.384 231.463 186.644 226.659 188.395 219.453C190.146 212.246 189.675 203.289 189.675 203.289C189.675 203.289 194.958 215.771 207.926 217.507C220.895 219.243 224.569 216.864 224.569 216.864" stroke="#263238" stroke-width="1.25" stroke-linecap="round" stroke-linejoin="round"/>
<path d="M174.977 242.98L166.813 239.306C162.885 249.715 157.938 260.042 156.015 262.638C153.299 266.32 145.77 273.519 144.042 274.799C142.313 276.078 140.203 277.365 141.483 278.159C142.762 278.952 147.724 280.246 150.926 278.802C154.129 277.358 157.811 274.963 159.906 274.642C162.002 274.32 163.588 273.841 163.902 270.638C164.217 267.435 163.588 262.796 164.546 260.393C165.182 258.687 170.405 249.767 174.977 242.98Z" fill="white" stroke="#263238" stroke-width="1.25" stroke-linecap="round" stroke-linejoin="round"/>
<path d="M164.778 259.802L158.889 257.557C158.052 259.317 157.092 261.015 156.015 262.638C153.299 266.32 145.77 273.519 144.042 274.799C142.313 276.078 140.203 277.365 141.483 278.159C142.762 278.952 147.724 280.246 150.926 278.802C154.129 277.358 157.811 274.963 159.906 274.642C162.002 274.32 163.588 273.841 163.902 270.638C164.217 267.435 163.588 262.796 164.546 260.394C164.561 260.251 164.628 260.042 164.778 259.802Z" fill="#ADC7F7" stroke="#263238" stroke-width="1.25" stroke-linecap="round" stroke-linejoin="round"/>
<path d="M191.398 180.525C189.778 179.587 188.361 178.335 187.229 176.843C185.471 174.441 181.954 174.277 181.467 174.277H180.345L181.146 175.564L172.862 177.001C172.862 177.001 171.747 177.479 173.183 179.081C174.62 180.682 175.743 183.571 178.309 184.843C180.876 186.115 187.431 186.287 187.431 186.287L189.991 186.923L191.398 180.525Z" fill="white" stroke="#263238" stroke-width="1.25" stroke-linecap="round" stroke-linejoin="round"/>
<path d="M173.145 179.081C173.145 179.081 179.064 179.238 180.987 178.924L173.145 179.081Z" fill="white"/>
<path d="M173.145 179.081C173.145 179.081 179.064 179.238 180.987 178.924" stroke="#263238" stroke-width="1.25" stroke-linecap="round" stroke-linejoin="round"/>
<path d="M174.426 180.525C174.426 180.525 178.751 182.605 182.268 182.127L174.426 180.525Z" fill="white"/>
<path d="M174.426 180.525C174.426 180.525 178.751 182.605 182.268 182.127" stroke="#263238" stroke-width="1.25" stroke-linecap="round" stroke-linejoin="round"/>
<path d="M176.027 183.084C176.027 183.084 180.517 184.686 183.069 184.207L176.027 183.084Z" fill="white"/>
<path d="M176.027 183.084C176.027 183.084 180.517 184.686 183.069 184.207" stroke="#263238" stroke-width="1.25" stroke-linecap="round" stroke-linejoin="round"/>
<path d="M227.406 153.152L218.927 181.326C218.927 181.326 205.457 182.605 200.354 181.962C196.976 181.507 193.651 180.715 190.431 179.597L189.309 186.961C189.309 186.961 192.833 188.24 198.917 190.006C205.001 191.772 222.766 195.604 225.168 194.002C227.57 192.401 229.007 186.325 229.172 185.681C229.336 185.038 236.528 160.238 237.65 156.714C238.773 153.189 239.409 150.308 237.493 148.549C236.231 147.421 234.833 146.453 233.332 145.668" fill="#6B6B6B"/>
<path d="M227.406 153.152L218.927 181.326C218.927 181.326 205.457 182.605 200.354 181.962C196.976 181.507 193.651 180.715 190.431 179.597L189.309 186.961C189.309 186.961 192.833 188.24 198.917 190.006C205.001 191.772 222.766 195.604 225.168 194.002C227.57 192.401 229.007 186.325 229.172 185.681C229.336 185.038 236.528 160.238 237.65 156.714C238.773 153.189 239.409 150.308 237.493 148.549C236.231 147.421 234.833 146.453 233.332 145.668" stroke="#263238" stroke-width="1.25" stroke-linecap="round" stroke-linejoin="round"/>
<rect x="245.402" y="189.273" width="21.185" height="81.9712" rx="3.58927" fill="#263238" stroke="#263238" stroke-width="1.25" stroke-linecap="round" stroke-linejoin="round"/>
<rect x="229.906" y="189.273" width="21.185" height="81.9712" rx="3.58927" fill="#FB7D00" stroke="#263238" stroke-width="1.25" stroke-linecap="round" stroke-linejoin="round"/>
</svg>
