<svg width="1440" height="149" viewBox="0 0 1440 149" fill="none" xmlns="http://www.w3.org/2000/svg">
<rect width="12.9466" height="8.55245" transform="matrix(-1 0 0 1 503.41 108.886)" fill="white" stroke="#263238" stroke-width="0.73728" stroke-linecap="round" stroke-linejoin="round"/>
<path d="M497.776 106.998L504.913 112.189L509.02 106.608L505.458 104.012L497.776 106.998Z" fill="white" stroke="#263238" stroke-width="0.73728" stroke-linecap="round" stroke-linejoin="round"/>
<path d="M488.164 112.771L495.301 107.581L487.626 104.595L484.057 107.19L488.164 112.771Z" fill="white" stroke="#263238" stroke-width="0.73728" stroke-linecap="round" stroke-linejoin="round"/>
<path d="M491.766 109.704H501.852L499.33 103.644H494.287L491.766 109.704Z" fill="white" stroke="#263238" stroke-width="0.73728" stroke-linecap="round" stroke-linejoin="round"/>
<path d="M501.641 109.284V116.62L509.973 114.784V111.12L501.641 109.284Z" fill="white" stroke="#263238" stroke-width="0.73728" stroke-linecap="round" stroke-linejoin="round"/>
<path d="M492.219 109.284V116.62L483.887 114.784V111.12L492.219 109.284Z" fill="white" stroke="#263238" stroke-width="0.73728" stroke-linecap="round" stroke-linejoin="round"/>
<rect width="66.2667" height="33.7822" transform="matrix(-1 0 0 1 529 114.533)" fill="#ADC7F7" stroke="#263238" stroke-width="0.73728" stroke-linecap="round" stroke-linejoin="round"/>
<rect width="7.81517" height="33.7822" transform="matrix(-1 0 0 1 511.727 114.533)" fill="white" stroke="#263238" stroke-width="0.73728" stroke-linecap="round" stroke-linejoin="round"/>
<rect width="22.8336" height="33.7822" transform="matrix(-1 0 0 1 485.559 114.533)" fill="#ADC7F7" stroke="#263238" stroke-width="0.73728" stroke-linecap="round" stroke-linejoin="round"/>
<rect width="7.81517" height="33.7822" transform="matrix(-1 0 0 1 479.277 114.533)" fill="white" stroke="#263238" stroke-width="0.73728" stroke-linecap="round" stroke-linejoin="round"/>
<path fill-rule="evenodd" clip-rule="evenodd" d="M440.039 98.1392C440.039 98.1392 446.674 82.2877 453.678 83.0249C460.683 83.7622 462.526 92.6096 456.996 95.1901C451.467 97.7705 440.039 98.1392 440.039 98.1392Z" stroke="#263238" stroke-width="2.21184" stroke-linecap="round" stroke-linejoin="round"/>
<path fill-rule="evenodd" clip-rule="evenodd" d="M440.039 98.1392C440.039 98.1392 435.984 82.2877 427.874 83.3936C419.764 84.4995 422.448 97.0333 426.503 97.7706C430.558 98.5078 440.039 98.1392 440.039 98.1392Z" stroke="#263238" stroke-width="2.21184" stroke-linecap="round" stroke-linejoin="round"/>
<rect width="60.9362" height="50.3562" transform="matrix(-1 0 0 1 472.211 97.7705)" fill="#FBFCFE"/>
<rect width="7.18848" height="50.3562" transform="matrix(-1 0 0 1 456.332 97.7705)" fill="#ADC7F7" stroke="#263238" stroke-width="0.73728" stroke-linecap="round" stroke-linejoin="round"/>
<rect width="20.9977" height="50.3562" transform="matrix(-1 0 0 1 432.273 97.7705)" stroke="#263238" stroke-width="0.73728" stroke-linecap="round" stroke-linejoin="round"/>
<rect width="61.1942" height="50.3562" transform="matrix(-1 0 0 1 472.473 97.7705)" stroke="#263238" stroke-width="0.73728" stroke-linecap="round" stroke-linejoin="round"/>
<rect width="7.18848" height="50.3562" transform="matrix(-1 0 0 1 426.5 97.7705)" fill="#ADC7F7" stroke="#35558F" stroke-width="0.73728" stroke-linecap="round" stroke-linejoin="round"/>
<path d="M442.965 129.842V107.724C442.965 100.351 440.016 98.1392 440.016 98.1392C440.016 98.1392 437.634 97.5715 436.329 101.604C435.024 105.637 436.329 121.445 436.329 121.445" stroke="#263238" stroke-width="2.21184" stroke-linecap="round" stroke-linejoin="round"/>
<rect x="1011.59" y="107.886" width="12.9466" height="8.55245" fill="white" stroke="#263238" stroke-width="0.73728" stroke-linecap="round" stroke-linejoin="round"/>
<path d="M1017.22 105.998L1010.09 111.189L1005.98 105.608L1009.54 103.012L1017.22 105.998Z" fill="white" stroke="#263238" stroke-width="0.73728" stroke-linecap="round" stroke-linejoin="round"/>
<path d="M1026.84 111.771L1019.7 106.581L1027.37 103.595L1030.94 106.19L1026.84 111.771Z" fill="white" stroke="#263238" stroke-width="0.73728" stroke-linecap="round" stroke-linejoin="round"/>
<path d="M1023.23 108.704H1013.15L1015.67 102.644H1020.71L1023.23 108.704Z" fill="white" stroke="#263238" stroke-width="0.73728" stroke-linecap="round" stroke-linejoin="round"/>
<path d="M1013.36 108.284V115.62L1005.03 113.784V110.12L1013.36 108.284Z" fill="white" stroke="#263238" stroke-width="0.73728" stroke-linecap="round" stroke-linejoin="round"/>
<path d="M1022.78 108.284V115.62L1031.11 113.784V110.12L1022.78 108.284Z" fill="white" stroke="#263238" stroke-width="0.73728" stroke-linecap="round" stroke-linejoin="round"/>
<rect x="986" y="113.533" width="66.2667" height="33.7822" fill="#ADC7F7" stroke="#263238" stroke-width="0.73728" stroke-linecap="round" stroke-linejoin="round"/>
<rect x="1003.27" y="113.533" width="7.81517" height="33.7822" fill="white" stroke="#263238" stroke-width="0.73728" stroke-linecap="round" stroke-linejoin="round"/>
<rect x="1029.44" y="113.533" width="22.8336" height="33.7822" fill="#ADC7F7" stroke="#263238" stroke-width="0.73728" stroke-linecap="round" stroke-linejoin="round"/>
<rect x="1035.72" y="113.533" width="7.81517" height="33.7822" fill="white" stroke="#263238" stroke-width="0.73728" stroke-linecap="round" stroke-linejoin="round"/>
<path fill-rule="evenodd" clip-rule="evenodd" d="M1074.96 97.1392C1074.96 97.1392 1068.33 81.2877 1061.32 82.0249C1054.32 82.7622 1052.47 91.6096 1058 94.1901C1063.53 96.7705 1074.96 97.1392 1074.96 97.1392Z" stroke="#263238" stroke-width="2.21184" stroke-linecap="round" stroke-linejoin="round"/>
<path fill-rule="evenodd" clip-rule="evenodd" d="M1074.96 97.1392C1074.96 97.1392 1079.02 81.2877 1087.13 82.3936C1095.24 83.4995 1092.55 96.0333 1088.5 96.7706C1084.44 97.5078 1074.96 97.1392 1074.96 97.1392Z" stroke="#263238" stroke-width="2.21184" stroke-linecap="round" stroke-linejoin="round"/>
<rect x="1042.79" y="96.7705" width="60.9362" height="50.3562" fill="#FBFCFE"/>
<rect x="1058.67" y="96.7705" width="7.18848" height="50.3562" fill="#ADC7F7" stroke="#263238" stroke-width="0.73728" stroke-linecap="round" stroke-linejoin="round"/>
<rect x="1082.73" y="96.7705" width="20.9977" height="50.3562" stroke="#263238" stroke-width="0.73728" stroke-linecap="round" stroke-linejoin="round"/>
<rect x="1042.53" y="96.7705" width="61.1942" height="50.3562" stroke="#263238" stroke-width="0.73728" stroke-linecap="round" stroke-linejoin="round"/>
<rect x="1088.5" y="96.7705" width="7.18848" height="50.3562" fill="#ADC7F7" stroke="#35558F" stroke-width="0.73728" stroke-linecap="round" stroke-linejoin="round"/>
<path d="M1072.04 128.842V106.724C1072.04 99.351 1074.98 97.1392 1074.98 97.1392C1074.98 97.1392 1077.37 96.5715 1078.67 100.604C1079.98 104.637 1078.67 120.445 1078.67 120.445" stroke="#263238" stroke-width="2.21184" stroke-linecap="round" stroke-linejoin="round"/>
<rect x="679.379" y="133.59" width="82.65" height="13.43" fill="#ADC7F7" stroke="#263238" stroke-linecap="round" stroke-linejoin="round"/>
<rect x="700.922" y="133.59" width="9.75" height="13.43" fill="white" stroke="#263238" stroke-linecap="round" stroke-linejoin="round"/>
<rect x="733.551" y="133.59" width="28.48" height="13.43" fill="#ADC7F7" stroke="#263238" stroke-linecap="round" stroke-linejoin="round"/>
<rect x="741.391" y="133.59" width="9.75" height="13.43" fill="white" stroke="#263238" stroke-linecap="round" stroke-linejoin="round"/>
<path fill-rule="evenodd" clip-rule="evenodd" d="M712.831 121.5C712.831 121.5 707.071 106.5 697.831 108.84C688.591 111.18 712.831 121.5 712.831 121.5Z" stroke="#263238" stroke-linecap="round" stroke-linejoin="round"/>
<path fill-rule="evenodd" clip-rule="evenodd" d="M712.828 121.5C712.828 121.5 719.738 101.93 729.518 108.26C739.298 114.59 712.828 121.5 712.828 121.5Z" stroke="#263238" stroke-linecap="round" stroke-linejoin="round"/>
<rect x="676" y="120.35" width="82.65" height="13.43" fill="#ADC7F7" stroke="#263238" stroke-linecap="round" stroke-linejoin="round"/>
<rect x="697.539" y="120.35" width="9.75" height="13.43" fill="white" stroke="#263238" stroke-linecap="round" stroke-linejoin="round"/>
<rect x="730.172" y="120.35" width="28.48" height="13.43" fill="#ADC7F7" stroke="#263238" stroke-linecap="round" stroke-linejoin="round"/>
<rect x="738.012" y="120.35" width="9.75" height="13.43" fill="white" stroke="#263238" stroke-linecap="round" stroke-linejoin="round"/>
<rect x="1194.61" y="105.92" width="82.65" height="42.13" fill="white" stroke="#263238" stroke-linecap="round" stroke-linejoin="round"/>
<rect x="1216.16" y="105.92" width="9.75" height="42.13" fill="#ADC7F7" stroke="#263238" stroke-linecap="round" stroke-linejoin="round"/>
<rect x="1248.79" y="105.92" width="28.48" height="42.13" fill="white" stroke="#263238" stroke-linecap="round" stroke-linejoin="round"/>
<rect x="1256.62" y="105.92" width="9.75" height="42.13" fill="white" stroke="#263238" stroke-linecap="round" stroke-linejoin="round"/>
<rect x="1253.34" y="105.92" width="82.65" height="42.13" fill="white"/>
<path d="M1335.98 128.67V124.93L1304.92 148.04H1309.95L1335.98 128.67Z" fill="#ADC7F7"/>
<path d="M1253.34 113.63V117.37L1268.73 105.92H1263.71L1253.34 113.63Z" fill="#ADC7F7"/>
<path d="M1288.3 105.92H1283.27L1253.34 128.19V131.93L1288.3 105.92Z" fill="#ADC7F7"/>
<path d="M1307.86 105.92H1302.84L1253.34 142.75V146.49L1307.86 105.92Z" fill="#ADC7F7"/>
<path d="M1285.36 148.04H1290.38L1335.98 114.11V110.37L1285.36 148.04Z" fill="#ADC7F7"/>
<path d="M1265.79 148.04H1270.82L1327.42 105.92H1322.4L1265.79 148.04Z" fill="#ADC7F7"/>
<path d="M1335.98 143.23V139.49L1324.48 148.04H1329.51L1335.98 143.23Z" fill="#ADC7F7"/>
<rect x="1274.88" y="105.92" width="9.75" height="42.13" fill="#263238" stroke="#263238" stroke-linecap="round" stroke-linejoin="round"/>
<rect x="1307.51" y="105.92" width="28.48" height="42.13" stroke="#263238" stroke-linecap="round" stroke-linejoin="round"/>
<rect x="1315.34" y="105.92" width="9.75" height="42.13" fill="#263238" stroke="#263238" stroke-linecap="round" stroke-linejoin="round"/>
<rect x="1253.34" y="105.92" width="82.65" height="42.13" stroke="#263238" stroke-linecap="round" stroke-linejoin="round"/>
<rect x="1309.35" y="134.61" width="82.65" height="13.43" fill="#ADC7F7" stroke="#263238" stroke-linecap="round" stroke-linejoin="round"/>
<rect x="1330.89" y="134.61" width="9.75" height="13.43" fill="white" stroke="#263238" stroke-linecap="round" stroke-linejoin="round"/>
<rect x="1363.52" y="134.61" width="28.48" height="13.43" fill="#ADC7F7" stroke="#263238" stroke-linecap="round" stroke-linejoin="round"/>
<rect x="1371.36" y="134.61" width="9.75" height="13.43" fill="white" stroke="#263238" stroke-linecap="round" stroke-linejoin="round"/>
<path fill-rule="evenodd" clip-rule="evenodd" d="M1342.8 122.52C1342.8 122.52 1337.04 107.52 1327.8 109.86C1318.56 112.2 1342.8 122.52 1342.8 122.52Z" stroke="white" stroke-linecap="round" stroke-linejoin="round"/>
<path fill-rule="evenodd" clip-rule="evenodd" d="M1342.8 122.52C1342.8 122.52 1349.71 102.95 1359.49 109.28C1369.27 115.61 1342.8 122.52 1342.8 122.52Z" stroke="white" stroke-linecap="round" stroke-linejoin="round"/>
<rect x="1305.97" y="121.37" width="82.65" height="13.43" fill="#ADC7F7" stroke="#263238" stroke-linecap="round" stroke-linejoin="round"/>
<rect x="1327.51" y="121.37" width="9.75" height="13.43" fill="white" stroke="#263238" stroke-linecap="round" stroke-linejoin="round"/>
<rect x="1360.14" y="121.37" width="28.48" height="13.43" fill="#ADC7F7" stroke="#263238" stroke-linecap="round" stroke-linejoin="round"/>
<rect x="1367.98" y="121.37" width="9.75" height="13.43" fill="white" stroke="#263238" stroke-linecap="round" stroke-linejoin="round"/>
<rect width="12.9466" height="8.55245" transform="matrix(-1 0 0 1 1202.02 108.242)" fill="white" stroke="#263238" stroke-width="0.73728" stroke-linecap="round" stroke-linejoin="round"/>
<path d="M1196.39 106.355L1203.52 111.545L1207.63 105.964L1204.07 103.369L1196.39 106.355Z" fill="white" stroke="#263238" stroke-width="0.73728" stroke-linecap="round" stroke-linejoin="round"/>
<path d="M1186.77 112.128L1193.91 106.937L1186.24 103.951L1182.67 106.546L1186.77 112.128Z" fill="white" stroke="#263238" stroke-width="0.73728" stroke-linecap="round" stroke-linejoin="round"/>
<path d="M1190.37 109.06H1200.46L1197.94 103H1192.9L1190.37 109.06Z" fill="white" stroke="#263238" stroke-width="0.73728" stroke-linecap="round" stroke-linejoin="round"/>
<path d="M1200.25 108.64V115.976L1208.58 114.14V110.476L1200.25 108.64Z" fill="white" stroke="#263238" stroke-width="0.73728" stroke-linecap="round" stroke-linejoin="round"/>
<path d="M1190.83 108.64V115.976L1182.5 114.14V110.476L1190.83 108.64Z" fill="white" stroke="#263238" stroke-width="0.73728" stroke-linecap="round" stroke-linejoin="round"/>
<rect width="66.2667" height="33.7822" transform="matrix(-1 0 0 1 1227.61 113.89)" fill="#ADC7F7" stroke="#263238" stroke-width="0.73728" stroke-linecap="round" stroke-linejoin="round"/>
<rect width="7.81517" height="33.7822" transform="matrix(-1 0 0 1 1210.34 113.89)" fill="white" stroke="#263238" stroke-width="0.73728" stroke-linecap="round" stroke-linejoin="round"/>
<rect width="22.8336" height="33.7822" transform="matrix(-1 0 0 1 1184.17 113.89)" fill="#ADC7F7" stroke="#263238" stroke-width="0.73728" stroke-linecap="round" stroke-linejoin="round"/>
<rect width="7.81517" height="33.7822" transform="matrix(-1 0 0 1 1177.89 113.89)" fill="white" stroke="#263238" stroke-width="0.73728" stroke-linecap="round" stroke-linejoin="round"/>
<path fill-rule="evenodd" clip-rule="evenodd" d="M1260.68 56.1392C1260.68 56.1392 1267.32 40.2877 1274.32 41.0249C1281.33 41.7622 1283.17 50.6096 1277.64 53.1901C1272.11 55.7705 1260.68 56.1392 1260.68 56.1392Z" stroke="#263238" stroke-width="2.21184" stroke-linecap="round" stroke-linejoin="round"/>
<path fill-rule="evenodd" clip-rule="evenodd" d="M1260.68 56.1392C1260.68 56.1392 1256.63 40.2877 1248.52 41.3936C1240.41 42.4995 1243.09 55.0333 1247.15 55.7705C1251.2 56.5078 1260.68 56.1392 1260.68 56.1392Z" stroke="#263238" stroke-width="2.21184" stroke-linecap="round" stroke-linejoin="round"/>
<rect width="60.9362" height="50.3562" transform="matrix(-1 0 0 1 1292.86 55.7705)" fill="#FBFCFE"/>
<rect width="7.18848" height="50.3562" transform="matrix(-1 0 0 1 1276.98 55.7705)" fill="#ADC7F7" stroke="#263238" stroke-width="0.73728" stroke-linecap="round" stroke-linejoin="round"/>
<rect width="20.9977" height="50.3562" transform="matrix(-1 0 0 1 1252.92 55.7705)" stroke="#263238" stroke-width="0.73728" stroke-linecap="round" stroke-linejoin="round"/>
<rect width="61.1942" height="50.3562" transform="matrix(-1 0 0 1 1293.12 55.7705)" stroke="#263238" stroke-width="0.73728" stroke-linecap="round" stroke-linejoin="round"/>
<rect width="7.18848" height="50.3562" transform="matrix(-1 0 0 1 1247.14 55.7705)" fill="#ADC7F7" stroke="#263238" stroke-width="0.73728" stroke-linecap="round" stroke-linejoin="round"/>
<path d="M1263.61 87.8422V65.7238C1263.61 58.351 1260.66 56.1392 1260.66 56.1392C1260.66 56.1392 1258.28 55.5715 1256.97 59.6044C1255.67 63.6373 1256.97 79.4446 1256.97 79.4446" stroke="#263238" stroke-width="2.21184" stroke-linecap="round" stroke-linejoin="round"/>
<path fill-rule="evenodd" clip-rule="evenodd" d="M1421.34 80.5338C1421.34 80.5338 1430.34 59.0338 1439.84 60.0338C1449.34 61.0338 1451.84 73.0338 1444.34 76.5338C1436.84 80.0338 1421.34 80.5338 1421.34 80.5338Z" stroke="#263238" stroke-width="3" stroke-linecap="round" stroke-linejoin="round"/>
<path fill-rule="evenodd" clip-rule="evenodd" d="M1421.34 80.5338C1421.34 80.5338 1415.84 59.0338 1404.84 60.5338C1393.84 62.0338 1397.48 79.0338 1402.98 80.0338C1408.48 81.0338 1421.34 80.5338 1421.34 80.5338Z" stroke="#263238" stroke-width="3" stroke-linecap="round" stroke-linejoin="round"/>
<rect width="82.65" height="68.3" transform="matrix(-1 0 0 1 1464.98 80.0338)" fill="white"/>
<path d="M1405.18 135.744C1397.25 130.06 1389.63 123.965 1382.34 117.484V113.374C1390.14 120.854 1399.09 127.494 1406.97 133.374C1415.05 139.374 1421.56 144.204 1424.72 148.374H1420.77C1417.33 144.764 1411.37 140.344 1405.18 135.744Z" fill="#ADC7F7"/>
<path d="M1442.72 98.1538C1452.04 105.954 1459.72 112.534 1464.98 117.984V122.424C1459.18 115.844 1448.98 107.314 1440.79 100.424C1431.89 92.9838 1423.49 85.9438 1420.13 81.4238C1419.79 80.9884 1419.49 80.5232 1419.24 80.0338H1428.24C1431.57 81.9038 1436.24 84.7238 1442.82 88.7838C1449.97 93.1838 1458.12 98.1838 1464.94 101.904V105.304C1457.85 101.544 1449.24 96.2538 1441.25 91.3038C1434.67 87.2538 1427.42 82.7938 1423.48 80.8238C1427.19 85.1638 1434.75 91.4938 1442.72 98.1538Z" fill="#ADC7F7"/>
<path d="M1382.34 123.694C1386.16 127.044 1390.34 131.224 1394.77 135.634C1399.03 139.874 1403.71 144.544 1408.07 148.324H1403.54C1400.05 145.134 1396.38 141.474 1392.66 137.764C1389.36 134.474 1385.76 130.894 1382.34 127.764V123.694Z" fill="#ADC7F7"/>
<path d="M1382.34 100.464V96.7538C1387.64 100.594 1394.34 105.654 1402.63 112.054C1419.88 125.294 1441.96 142.224 1455.12 148.324H1448.59C1436.75 141.724 1420.38 129.454 1400.81 114.434C1394.82 109.834 1388.23 104.784 1382.34 100.464Z" fill="#ADC7F7"/>
<path d="M1405.17 80.0838H1410.17C1416.17 84.7138 1424.89 92.3638 1437.58 103.794C1446.68 112.004 1458.24 122.424 1465 127.374V130.964C1459.45 127.354 1450.3 119.304 1435.57 106.024C1425.44 96.8638 1412.57 85.2638 1405.17 80.0838Z" fill="#ADC7F7"/>
<path d="M1399.19 83.7338C1398.6 82.5507 1398.09 81.3316 1397.65 80.0838H1400.85C1401.11 80.7438 1401.45 81.5338 1401.9 82.4938C1409.82 99.0838 1430.59 114.634 1447.27 127.084C1455.32 133.084 1461.27 137.624 1464.98 141.294V145.694C1461.72 141.624 1453.5 135.484 1445.48 129.494C1428.53 116.834 1407.43 101.084 1399.19 83.7338Z" fill="#ADC7F7"/>
<rect width="9.75" height="68.3" transform="matrix(-1 0 0 1 1443.44 80.0338)" fill="#263238" stroke="#263238" stroke-linecap="round" stroke-linejoin="round"/>
<rect width="28.48" height="68.3" transform="matrix(-1 0 0 1 1410.81 80.0338)" stroke="#263238" stroke-linecap="round" stroke-linejoin="round"/>
<rect width="9.75" height="68.3" transform="matrix(-1 0 0 1 1402.98 80.0338)" fill="#263238" stroke="#263238" stroke-linecap="round" stroke-linejoin="round"/>
<path d="M1425.31 123.534V93.5338C1425.31 83.5338 1421.31 80.5338 1421.31 80.5338C1421.31 80.5338 1418.08 79.7638 1416.31 85.2338C1414.54 90.7038 1416.31 112.144 1416.31 112.144" stroke="#263238" stroke-width="3" stroke-linecap="round" stroke-linejoin="round"/>
<path d="M31.4297 141.18V142.15L29.6497 143.44L30.3397 141.3L30.1797 141.18H31.4297Z" fill="#263238"/>
<path d="M31.4291 141.18H32.7591L32.5991 141.3L33.2891 143.44L31.4691 142.12L31.4291 142.15V141.18Z" fill="#263238"/>
<path d="M58.3398 141.18V142.15L56.5598 143.44L57.2598 141.3L57.0898 141.18H58.3398Z" fill="#263238"/>
<path d="M58.3409 141.18H59.6809L59.5109 141.3L60.2109 143.44L58.3909 142.12L58.3409 142.15V141.18Z" fill="#263238"/>
<path d="M85.2617 141.18V142.15L83.4817 143.44L84.1817 141.3L84.0117 141.18H85.2617Z" fill="#263238"/>
<path d="M85.2611 141.18H86.6011L86.4311 141.3L87.1211 143.44L85.3011 142.12L85.2611 142.15V141.18Z" fill="#263238"/>
<path d="M110.97 141.66V143.02L110.39 143.44L110.97 141.66Z" fill="#263238"/>
<rect width="82.65" height="42.13" transform="matrix(-1 0 0 1 372.68 105.12)" fill="white" stroke="#263238" stroke-linecap="round" stroke-linejoin="round"/>
<rect width="100.907" height="124.65" transform="matrix(-1 0 0 1 164.031 23.35)" fill="white" stroke="#263238" stroke-width="0.5625" stroke-linecap="round" stroke-linejoin="round"/>
<path d="M73.1641 23.4738L72.9953 23.35H73.8672V23.4738H73.1641Z" fill="#263238"/>
<path d="M65.8861 30.325L66.2798 29.1213L66.668 30.325H67.9336L66.9098 31.0675L67.3036 32.2713L66.2798 31.5288L65.2505 32.2713L65.6442 31.0675L64.6205 30.325H65.8861Z" fill="#263238"/>
<path d="M73.8672 38.6106H73.1641L72.2359 37.9356H73.5016L73.8672 36.8106V38.6106Z" fill="#263238"/>
<path d="M73.8672 23.4738V24.0194L72.8659 24.745L73.2597 23.5413L73.1641 23.4738H73.8672Z" fill="#263238"/>
<path d="M65.8861 45.4619L66.2798 44.2581L66.668 45.4619H67.9336L66.9098 46.2044L67.3036 47.4138L66.2798 46.6656L65.2505 47.4138L65.6442 46.2044L64.6205 45.4619H65.8861Z" fill="#263238"/>
<path d="M73.8672 53.7531H73.1641L72.2359 53.0781H73.5016L73.8672 51.9475V53.7531Z" fill="#263238"/>
<path d="M73.8672 38.6106V39.1619L72.8659 39.8875L73.2597 38.6781L73.1641 38.6106H73.8672Z" fill="#263238"/>
<path d="M65.8861 60.6044L66.2798 59.4006L66.668 60.6044H67.9336L66.9098 61.3469L67.3036 62.5506L66.2798 61.8081L65.2505 62.5506L65.6442 61.3469L64.6205 60.6044H65.8861Z" fill="#263238"/>
<path d="M73.8672 68.89H73.1641L72.2359 68.215H73.5016L73.8672 67.09V68.89Z" fill="#263238"/>
<path d="M73.8672 53.7531V54.2988L72.8659 55.0244L73.2597 53.8206L73.1641 53.7531H73.8672Z" fill="#263238"/>
<path d="M65.8861 75.7413L66.2798 74.5375L66.668 75.7413H67.9336L66.9098 76.4894L67.3036 77.6931L66.2798 76.945L65.2505 77.6931L65.6442 76.4894L64.6205 75.7413H65.8861Z" fill="#263238"/>
<path d="M73.8672 84.0325H73.1641L72.2359 83.3575H73.5016L73.8672 82.2269V84.0325Z" fill="#263238"/>
<path d="M73.8672 68.89V69.4413L72.8659 70.1669L73.2597 68.9631L73.1641 68.89H73.8672Z" fill="#263238"/>
<path d="M65.8861 90.8838L66.2798 89.68L66.668 90.8838H67.9336L66.9098 91.6263L67.3036 92.83L66.2798 92.0875L65.2505 92.83L65.6442 91.6263L64.6205 90.8838H65.8861Z" fill="#263238"/>
<path d="M73.8672 99.1694H73.1641L72.2359 98.4944H73.5016L73.8672 97.3694V99.1694Z" fill="#263238"/>
<path d="M73.8672 84.0325V84.5781L72.8659 85.3038L73.2597 84.1L73.1641 84.0325H73.8672Z" fill="#263238"/>
<path d="M65.8861 106.021L66.2798 104.817L66.668 106.021H67.9336L66.9098 106.769L67.3036 107.973L66.2798 107.224L65.2505 107.973L65.6442 106.769L64.6205 106.021H65.8861Z" fill="#263238"/>
<path d="M73.8672 114.312H73.1641L72.2359 113.637H73.5016L73.8672 112.506V112.512V114.312Z" fill="#263238"/>
<path d="M73.8672 99.1694V99.7206L72.8659 100.446L73.2597 99.2425L73.1641 99.1694H73.8672Z" fill="#263238"/>
<path d="M65.8861 121.163L66.2798 119.959L66.668 121.163H67.9336L66.9098 121.906L67.3036 123.109L66.2798 122.367L65.2505 123.109L65.6442 121.906L64.6205 121.163H65.8861Z" fill="#263238"/>
<path d="M73.8672 129.449H73.1641L72.2359 128.774H73.5016L73.8672 127.649V129.449Z" fill="#263238"/>
<path d="M73.8672 114.312V114.858L72.8659 115.583L73.2597 114.379L73.1641 114.312H73.8672Z" fill="#263238"/>
<path d="M65.8861 136.3L66.2798 135.096L66.668 136.3H67.9336L66.9098 137.048L67.3036 138.252L66.2798 137.509L65.2505 138.252L65.6442 137.048L64.6205 136.3H65.8861Z" fill="#263238"/>
<path d="M72.2359 143.916H73.5016L73.8672 142.791V144.591H73.1641L72.2359 143.916Z" fill="#263238"/>
<path d="M73.8672 129.449V130L72.8659 130.726L73.2597 129.522L73.1641 129.449H73.8672Z" fill="#263238"/>
<path d="M73.8672 144.591V145.137L72.8659 145.862L73.2597 144.659L73.1641 144.591H73.8672Z" fill="#263238"/>
<path d="M73.8683 23.4738V23.35H74.7852L74.622 23.4738H73.8683Z" fill="#263238"/>
<path d="M88.3064 23.4738L88.1377 23.35H89.0039V23.4738H88.3064Z" fill="#263238"/>
<path d="M81.0211 30.325L81.4148 29.1213L81.8086 30.325H83.0742L82.0505 31.0675L82.4386 32.2713L81.4148 31.5288L80.3911 32.2713L80.7792 31.0675L79.7555 30.325H81.0211Z" fill="#263238"/>
<path d="M75.5469 37.9356L74.6187 38.6106H73.865V36.8106L73.8875 36.7319L74.2812 37.9356H75.5469Z" fill="#263238"/>
<path d="M73.8661 23.4738H74.6198L74.5242 23.5413L74.918 24.745L73.8886 24.0025L73.8661 24.0194V23.4738Z" fill="#263238"/>
<path d="M89.0039 38.6106H88.3064L87.3727 37.9356H88.6383L89.0039 36.8106V38.6106Z" fill="#263238"/>
<path d="M89.0039 23.4738V24.0194L88.0083 24.745L88.3964 23.5413L88.3064 23.4738H89.0039Z" fill="#263238"/>
<path d="M81.0211 45.4619L81.4148 44.2581L81.8086 45.4619H83.0742L82.0505 46.2044L82.4386 47.4138L81.4148 46.6656L80.3911 47.4138L80.7792 46.2044L79.7555 45.4619H81.0211Z" fill="#263238"/>
<path d="M75.5469 53.0781L74.6187 53.7531H73.865V51.9475L73.8875 51.8744L74.2812 53.0781H75.5469Z" fill="#263238"/>
<path d="M73.8661 38.6106H74.6198L74.5242 38.6781L74.918 39.8875L73.8886 39.1394L73.8661 39.1619V38.6106Z" fill="#263238"/>
<path d="M89.0039 53.7531H88.3064L87.3727 53.0781H88.6383L89.0039 51.9475V53.7531Z" fill="#263238"/>
<path d="M89.0039 38.6106V39.1619L88.0083 39.8875L88.3964 38.6781L88.3064 38.6106H89.0039Z" fill="#263238"/>
<path d="M81.0211 60.6044L81.4148 59.4006L81.8086 60.6044H83.0742L82.0505 61.3469L82.4386 62.5506L81.4148 61.8081L80.3911 62.5506L80.7792 61.3469L79.7555 60.6044H81.0211Z" fill="#263238"/>
<path d="M75.5469 68.215L74.6187 68.89H73.865V67.09L73.8875 67.0113L74.2812 68.215H75.5469Z" fill="#263238"/>
<path d="M73.8661 53.7531H74.6198L74.5242 53.8206L74.918 55.0244L73.8886 54.2819L73.8661 54.2988V53.7531Z" fill="#263238"/>
<path d="M89.0039 68.89H88.3064L87.3727 68.215H88.6383L89.0039 67.09V68.89Z" fill="#263238"/>
<path d="M89.0039 53.7531V54.2988L88.0083 55.0244L88.3964 53.8206L88.3064 53.7531H89.0039Z" fill="#263238"/>
<path d="M81.0211 75.7413L81.4148 74.5375L81.8086 75.7413H83.0742L82.0505 76.4894L82.4386 77.6931L81.4148 76.945L80.3911 77.6931L80.7792 76.4894L79.7555 75.7413H81.0211Z" fill="#263238"/>
<path d="M75.5469 83.3575L74.6187 84.0325H73.865V82.2269L73.8875 82.1537L74.2812 83.3575H75.5469Z" fill="#263238"/>
<path d="M73.8661 68.89H74.6198L74.5242 68.9631L74.918 70.1669L73.8886 69.4188L73.8661 69.4413V68.89Z" fill="#263238"/>
<path d="M89.0039 84.0325H88.3064L87.3727 83.3575H88.6383L89.0039 82.2269V84.0325Z" fill="#263238"/>
<path d="M89.0039 68.89V69.4413L88.0083 70.1669L88.3964 68.9631L88.3064 68.89H89.0039Z" fill="#263238"/>
<path d="M81.0211 90.8838L81.4148 89.68L81.8086 90.8838H83.0742L82.0505 91.6263L82.4386 92.83L81.4148 92.0875L80.3911 92.83L80.7792 91.6263L79.7555 90.8838H81.0211Z" fill="#263238"/>
<path d="M75.5469 98.4944L74.6187 99.1694H73.865V97.3694L73.8875 97.2906L74.2812 98.4944H75.5469Z" fill="#263238"/>
<path d="M73.8661 84.0325H74.6198L74.5242 84.1L74.918 85.3038L73.8886 84.5613L73.8661 84.5781V84.0325Z" fill="#263238"/>
<path d="M89.0039 99.1694H88.3064L87.3727 98.4944H88.6383L89.0039 97.3694V99.1694Z" fill="#263238"/>
<path d="M89.0039 84.0325V84.5781L88.0083 85.3038L88.3964 84.1L88.3064 84.0325H89.0039Z" fill="#263238"/>
<path d="M81.0211 106.021L81.4148 104.817L81.8086 106.021H83.0742L82.0505 106.769L82.4386 107.973L81.4148 107.224L80.3911 107.973L80.7792 106.769L79.7555 106.021H81.0211Z" fill="#263238"/>
<path d="M75.5469 113.637L74.6187 114.312H73.865V112.512L73.8875 112.433L74.2812 113.637H75.5469Z" fill="#263238"/>
<path d="M73.8661 99.1694H74.6198L74.5242 99.2425L74.918 100.446L73.8886 99.7037L73.8661 99.7206V99.1694Z" fill="#263238"/>
<path d="M89.0039 114.312H88.3064L87.3727 113.637H88.6383L89.0039 112.506V112.512V114.312Z" fill="#263238"/>
<path d="M89.0039 99.1694V99.7206L88.0083 100.446L88.3964 99.2425L88.3064 99.1694H89.0039Z" fill="#263238"/>
<path d="M81.0211 121.163L81.4148 119.959L81.8086 121.163H83.0742L82.0505 121.906L82.4386 123.109L81.4148 122.367L80.3911 123.109L80.7792 121.906L79.7555 121.163H81.0211Z" fill="#263238"/>
<path d="M73.865 129.449V127.649L73.8875 127.57L74.2812 128.774H75.5469L74.6187 129.449H73.865Z" fill="#263238"/>
<path d="M73.8661 114.312H74.6198L74.5242 114.379L74.918 115.583L73.8886 114.841L73.8661 114.858V114.312Z" fill="#263238"/>
<path d="M87.3727 128.774H88.6383L89.0039 127.649V129.449H88.3064L87.3727 128.774Z" fill="#263238"/>
<path d="M89.0039 114.312V114.858L88.0083 115.583L88.3964 114.379L88.3064 114.312H89.0039Z" fill="#263238"/>
<path d="M81.0211 136.3L81.4148 135.096L81.8086 136.3H83.0742L82.0505 137.048L82.4386 138.252L81.4148 137.509L80.3911 138.252L80.7792 137.048L79.7555 136.3H81.0211Z" fill="#263238"/>
<path d="M73.865 142.791L73.8875 142.713L74.2812 143.916H75.5469L74.6187 144.591H73.865V142.791Z" fill="#263238"/>
<path d="M73.8661 129.449H74.6198L74.5242 129.522L74.918 130.726L73.8886 129.983L73.8661 130V129.449Z" fill="#263238"/>
<path d="M89.0039 144.591H88.3064L87.3727 143.916H88.6383L89.0039 142.791V144.591Z" fill="#263238"/>
<path d="M89.0039 129.449V130L88.0083 130.726L88.3964 129.522L88.3064 129.449H89.0039Z" fill="#263238"/>
<path d="M73.8661 144.591H74.6198L74.5242 144.659L74.918 145.862L73.8886 145.12L73.8661 145.137V144.591Z" fill="#263238"/>
<path d="M89.0039 144.591V145.137L88.0083 145.862L88.3964 144.659L88.3064 144.591H89.0039Z" fill="#263238"/>
<path d="M89.0033 23.4738V23.35H89.9258L89.757 23.4738H89.0033Z" fill="#263238"/>
<path d="M103.441 23.4738L103.273 23.35H104.145V23.4738H103.441Z" fill="#263238"/>
<path d="M96.1634 30.325L96.5572 29.1213L96.9453 30.325H98.2109L97.1872 31.0675L97.5809 32.2713L96.5572 31.5288L95.5278 32.2713L95.9216 31.0675L94.8978 30.325H96.1634Z" fill="#263238"/>
<path d="M90.6914 37.9356L89.7577 38.6106H89.0039V36.8106L89.032 36.7319L89.4202 37.9356H90.6914Z" fill="#263238"/>
<path d="M89.0028 23.4738H89.7566L89.6666 23.5413L90.0547 24.745L89.0309 24.0025L89.0028 24.0194V23.4738Z" fill="#263238"/>
<path d="M104.145 38.6106H103.441L102.513 37.9356H103.779L104.145 36.8106V38.6106Z" fill="#263238"/>
<path d="M104.145 24.0194L103.143 24.745L103.537 23.5413L103.441 23.4738H104.145V24.0194Z" fill="#263238"/>
<path d="M96.1634 45.4619L96.5572 44.2581L96.9453 45.4619H98.2109L97.1872 46.2044L97.5809 47.4138L96.5572 46.6656L95.5278 47.4138L95.9216 46.2044L94.8978 45.4619H96.1634Z" fill="#263238"/>
<path d="M90.6914 53.0781L89.7577 53.7531H89.0039V51.9475L89.032 51.8744L89.4202 53.0781H90.6914Z" fill="#263238"/>
<path d="M89.0028 38.6106H89.7566L89.6666 38.6781L90.0547 39.8875L89.0309 39.1394L89.0028 39.1619V38.6106Z" fill="#263238"/>
<path d="M104.145 53.7531H103.441L102.513 53.0781H103.779L104.145 51.9475V53.7531Z" fill="#263238"/>
<path d="M104.145 38.6106V39.1619L103.143 39.8875L103.537 38.6781L103.441 38.6106H104.145Z" fill="#263238"/>
<path d="M96.1634 60.6044L96.5572 59.4006L96.9453 60.6044H98.2109L97.1872 61.3469L97.5809 62.5506L96.5572 61.8081L95.5278 62.5506L95.9216 61.3469L94.8978 60.6044H96.1634Z" fill="#263238"/>
<path d="M90.6914 68.215L89.7577 68.89H89.0039V67.09L89.032 67.0113L89.4202 68.215H90.6914Z" fill="#263238"/>
<path d="M89.0028 53.7531H89.7566L89.6666 53.8206L90.0547 55.0244L89.0309 54.2819L89.0028 54.2988V53.7531Z" fill="#263238"/>
<path d="M102.513 68.215H103.779L104.145 67.09V68.89H103.441L102.513 68.215Z" fill="#263238"/>
<path d="M104.145 53.7531V54.2988L103.143 55.0244L103.537 53.8206L103.441 53.7531H104.145Z" fill="#263238"/>
<path d="M96.1634 75.7413L96.5572 74.5375L96.9453 75.7413H98.2109L97.1872 76.4894L97.5809 77.6931L96.5572 76.945L95.5278 77.6931L95.9216 76.4894L94.8978 75.7413H96.1634Z" fill="#263238"/>
<path d="M90.6914 83.3575L89.7577 84.0325H89.0039V82.2269L89.032 82.1537L89.4202 83.3575H90.6914Z" fill="#263238"/>
<path d="M89.0028 68.89H89.7566L89.6666 68.9631L90.0547 70.1669L89.0309 69.4188L89.0028 69.4413V68.89Z" fill="#263238"/>
<path d="M102.513 83.3575H103.779L104.145 82.2269V84.0325H103.441L102.513 83.3575Z" fill="#263238"/>
<path d="M104.145 68.89V69.4413L103.143 70.1669L103.537 68.9631L103.441 68.89H104.145Z" fill="#263238"/>
<path d="M96.1634 90.8838L96.5572 89.68L96.9453 90.8838H98.2109L97.1872 91.6263L97.5809 92.83L96.5572 92.0875L95.5278 92.83L95.9216 91.6263L94.8978 90.8838H96.1634Z" fill="#263238"/>
<path d="M90.6914 98.4944L89.7577 99.1694H89.0039V97.3694L89.032 97.2906L89.4202 98.4944H90.6914Z" fill="#263238"/>
<path d="M89.0028 84.0325H89.7566L89.6666 84.1L90.0547 85.3038L89.0309 84.5613L89.0028 84.5781V84.0325Z" fill="#263238"/>
<path d="M102.513 98.4944H103.779L104.145 97.3694V99.1694H103.441L102.513 98.4944Z" fill="#263238"/>
<path d="M104.145 84.0325V84.5781L103.143 85.3038L103.537 84.1L103.441 84.0325H104.145Z" fill="#263238"/>
<path d="M96.1634 106.021L96.5572 104.817L96.9453 106.021H98.2109L97.1872 106.769L97.5809 107.973L96.5572 107.224L95.5278 107.973L95.9216 106.769L94.8978 106.021H96.1634Z" fill="#263238"/>
<path d="M89.0039 114.312V112.512L89.032 112.433L89.4202 113.637H90.6914L89.7577 114.312H89.0039Z" fill="#263238"/>
<path d="M89.0028 99.1694H89.7566L89.6666 99.2425L90.0547 100.446L89.0309 99.7037L89.0028 99.7206V99.1694Z" fill="#263238"/>
<path d="M102.513 113.637H103.779L104.145 112.506V114.312H103.441L102.513 113.637Z" fill="#263238"/>
<path d="M104.145 99.1694V99.7206L103.143 100.446L103.537 99.2425L103.441 99.1694H104.145Z" fill="#263238"/>
<path d="M96.1634 121.163L96.5572 119.959L96.9453 121.163H98.2109L97.1872 121.906L97.5809 123.109L96.5572 122.367L95.5278 123.109L95.9216 121.906L94.8978 121.163H96.1634Z" fill="#263238"/>
<path d="M89.0039 127.649L89.032 127.57L89.4202 128.774H90.6914L89.7577 129.449H89.0039V127.649Z" fill="#263238"/>
<path d="M89.0028 114.312H89.7566L89.6666 114.379L90.0547 115.583L89.0309 114.841L89.0028 114.858V114.312Z" fill="#263238"/>
<path d="M103.441 129.449L102.513 128.774H103.779L104.145 127.649V129.449H103.441Z" fill="#263238"/>
<path d="M104.145 114.312V114.858L103.143 115.583L103.537 114.379L103.441 114.312H104.145Z" fill="#263238"/>
<path d="M96.1634 136.3L96.5572 135.096L96.9453 136.3H98.2109L97.1872 137.048L97.5809 138.252L96.5572 137.509L95.5278 138.252L95.9216 137.048L94.8978 136.3H96.1634Z" fill="#263238"/>
<path d="M89.0039 144.591V142.791L89.032 142.713L89.4202 143.916H90.6914L89.7577 144.591H89.0039Z" fill="#263238"/>
<path d="M89.0028 129.449H89.7566L89.6666 129.522L90.0547 130.726L89.0309 129.983L89.0028 130V129.449Z" fill="#263238"/>
<path d="M103.441 144.591L102.513 143.916H103.779L104.145 142.791V144.591H103.441Z" fill="#263238"/>
<path d="M104.145 129.449V130L103.143 130.726L103.537 129.522L103.441 129.449H104.145Z" fill="#263238"/>
<path d="M89.0028 144.591H89.7566L89.6666 144.659L90.0547 145.862L89.0309 145.12L89.0028 145.137V144.591Z" fill="#263238"/>
<path d="M104.145 144.591V145.137L103.143 145.862L103.537 144.659L103.441 144.591H104.145Z" fill="#263238"/>
<path d="M104.148 23.4738V23.35H105.07L104.902 23.4738H104.148Z" fill="#263238"/>
<path d="M118.586 23.4738L118.417 23.35H119.289V23.4738H118.586Z" fill="#263238"/>
<path d="M111.308 30.325L111.696 29.1213L112.09 30.325H113.355L112.332 31.0675L112.72 32.2713L111.696 31.5288L110.672 32.2713L111.066 31.0675L110.037 30.325H111.308Z" fill="#263238"/>
<path d="M105.828 37.9356L104.9 38.6106H104.146V36.8106L104.174 36.7319L104.562 37.9356H105.828Z" fill="#263238"/>
<path d="M104.901 23.4738L104.805 23.5413L105.199 24.745L104.175 24.0025L104.147 24.0194V23.4738H104.901Z" fill="#263238"/>
<path d="M119.289 38.6106H118.586L117.652 37.9356H118.918L119.289 36.8106V38.6106Z" fill="#263238"/>
<path d="M119.289 23.4738V24.0194L118.288 24.745L118.676 23.5413L118.586 23.4738H119.289Z" fill="#263238"/>
<path d="M111.308 45.4619L111.696 44.2581L112.09 45.4619H113.355L112.332 46.2044L112.72 47.4138L111.696 46.6656L110.672 47.4138L111.066 46.2044L110.037 45.4619H111.308Z" fill="#263238"/>
<path d="M105.828 53.0781L104.9 53.7531H104.146V51.9475L104.174 51.8744L104.562 53.0781H105.828Z" fill="#263238"/>
<path d="M104.901 38.6106L104.805 38.6781L105.199 39.8875L104.175 39.1394L104.147 39.1619V38.6106H104.901Z" fill="#263238"/>
<path d="M119.289 53.7531H118.586L117.652 53.0781H118.918L119.289 51.9475V53.7531Z" fill="#263238"/>
<path d="M119.289 38.6106V39.1619L118.288 39.8875L118.676 38.6781L118.586 38.6106H119.289Z" fill="#263238"/>
<path d="M111.308 60.6044L111.696 59.4006L112.09 60.6044H113.355L112.332 61.3469L112.72 62.5506L111.696 61.8081L110.672 62.5506L111.066 61.3469L110.037 60.6044H111.308Z" fill="#263238"/>
<path d="M104.146 68.89V67.09L104.174 67.0113L104.562 68.215H105.828L104.9 68.89H104.146Z" fill="#263238"/>
<path d="M104.901 53.7531L104.805 53.8206L105.199 55.0244L104.175 54.2819L104.147 54.2988V53.7531H104.901Z" fill="#263238"/>
<path d="M119.289 68.89H118.586L117.652 68.215H118.918L119.289 67.09V68.89Z" fill="#263238"/>
<path d="M119.289 54.2988L118.288 55.0244L118.676 53.8206L118.586 53.7531H119.289V54.2988Z" fill="#263238"/>
<path d="M111.308 75.7413L111.696 74.5375L112.09 75.7413H113.355L112.332 76.4894L112.72 77.6931L111.696 76.945L110.672 77.6931L111.066 76.4894L110.037 75.7413H111.308Z" fill="#263238"/>
<path d="M104.146 84.0325V82.2269L104.174 82.1537L104.562 83.3575H105.828L104.9 84.0325H104.146Z" fill="#263238"/>
<path d="M104.805 68.9631L105.199 70.1669L104.175 69.4188L104.147 69.4413V68.89H104.901L104.805 68.9631Z" fill="#263238"/>
<path d="M119.289 84.0325H118.586L117.652 83.3575H118.918L119.289 82.2269V84.0325Z" fill="#263238"/>
<path d="M119.289 69.4413L118.288 70.1669L118.676 68.9631L118.586 68.89H119.289V69.4413Z" fill="#263238"/>
<path d="M111.308 90.8838L111.696 89.68L112.09 90.8838H113.355L112.332 91.6263L112.72 92.83L111.696 92.0875L110.672 92.83L111.066 91.6263L110.037 90.8838H111.308Z" fill="#263238"/>
<path d="M104.146 99.1694V97.3694L104.174 97.2906L104.562 98.4944H105.828L104.9 99.1694H104.146Z" fill="#263238"/>
<path d="M104.805 84.1L105.199 85.3038L104.175 84.5613L104.147 84.5781V84.0325H104.901L104.805 84.1Z" fill="#263238"/>
<path d="M119.289 99.1694H118.586L117.652 98.4944H118.918L119.289 97.3694V99.1694Z" fill="#263238"/>
<path d="M119.289 84.5781L118.288 85.3038L118.676 84.1L118.586 84.0325H119.289V84.5781Z" fill="#263238"/>
<path d="M111.308 106.021L111.696 104.817L112.09 106.021H113.355L112.332 106.769L112.72 107.973L111.696 107.224L110.672 107.973L111.066 106.769L110.037 106.021H111.308Z" fill="#263238"/>
<path d="M104.146 114.312V112.512L104.174 112.433L104.562 113.637H105.828L104.9 114.312H104.146Z" fill="#263238"/>
<path d="M104.805 99.2425L105.199 100.446L104.175 99.7037L104.147 99.7206V99.1694H104.901L104.805 99.2425Z" fill="#263238"/>
<path d="M119.289 114.312H118.586L117.652 113.637H118.918L119.289 112.506V112.512V114.312Z" fill="#263238"/>
<path d="M119.289 99.7206L118.288 100.446L118.676 99.2425L118.586 99.1694H119.289V99.7206Z" fill="#263238"/>
<path d="M111.308 121.163L111.696 119.959L112.09 121.163H113.355L112.332 121.906L112.72 123.109L111.696 122.367L110.672 123.109L111.066 121.906L110.037 121.163H111.308Z" fill="#263238"/>
<path d="M104.146 129.449V127.649L104.174 127.57L104.562 128.774H105.828L104.9 129.449H104.146Z" fill="#263238"/>
<path d="M104.147 114.312H104.901L104.805 114.379L105.199 115.583L104.175 114.841L104.147 114.858V114.312Z" fill="#263238"/>
<path d="M119.289 129.449H118.586L117.652 128.774H118.918L119.289 127.649V129.449Z" fill="#263238"/>
<path d="M119.289 114.312V114.858L118.288 115.583L118.676 114.379L118.586 114.312H119.289Z" fill="#263238"/>
<path d="M111.308 136.3L111.696 135.096L112.09 136.3H113.355L112.332 137.048L112.72 138.252L111.696 137.509L110.672 138.252L111.066 137.048L110.037 136.3H111.308Z" fill="#263238"/>
<path d="M104.146 144.591V142.791L104.174 142.713L104.562 143.916H105.828L104.9 144.591H104.146Z" fill="#263238"/>
<path d="M104.147 129.449H104.901L104.805 129.522L105.199 130.726L104.175 129.983L104.147 130V129.449Z" fill="#263238"/>
<path d="M119.289 144.591H118.586L117.652 143.916H118.918L119.289 142.791V144.591Z" fill="#263238"/>
<path d="M119.289 129.449V130L118.288 130.726L118.676 129.522L118.586 129.449H119.289Z" fill="#263238"/>
<path d="M104.147 144.591H104.901L104.805 144.659L105.199 145.862L104.175 145.12L104.147 145.137V144.591Z" fill="#263238"/>
<path d="M119.289 144.591V145.137L118.288 145.862L118.676 144.659L118.586 144.591H119.289Z" fill="#263238"/>
<path d="M119.29 23.4738V23.35H120.207L120.038 23.4738H119.29Z" fill="#263238"/>
<path d="M133.723 23.4738L133.56 23.35H134.426V23.4738H133.723Z" fill="#263238"/>
<path d="M126.445 30.325L126.838 29.1213L127.227 30.325H128.492L127.468 31.0675L127.862 32.2713L126.838 31.5288L125.809 32.2713L126.203 31.0675L125.179 30.325H126.445Z" fill="#263238"/>
<path d="M120.969 37.9356L120.035 38.6106H119.287V36.8106L119.309 36.7319L119.703 37.9356H120.969Z" fill="#263238"/>
<path d="M119.29 23.4738H120.038L119.948 23.5413L120.336 24.745L119.312 24.0025L119.29 24.0194V23.4738Z" fill="#263238"/>
<path d="M134.426 38.6106H133.723L132.795 37.9356H134.06L134.426 36.8106V38.6106Z" fill="#263238"/>
<path d="M134.426 23.4738V24.0194L133.425 24.745L133.818 23.5413L133.723 23.4738H134.426Z" fill="#263238"/>
<path d="M126.445 45.4619L126.838 44.2581L127.227 45.4619H128.492L127.468 46.2044L127.862 47.4138L126.838 46.6656L125.809 47.4138L126.203 46.2044L125.179 45.4619H126.445Z" fill="#263238"/>
<path d="M120.969 53.0781L120.035 53.7531H119.287V51.9475L119.309 51.8744L119.703 53.0781H120.969Z" fill="#263238"/>
<path d="M119.29 38.6106H120.038L119.948 38.6781L120.336 39.8875L119.312 39.1394L119.29 39.1619V38.6106Z" fill="#263238"/>
<path d="M134.426 53.7531H133.723L132.795 53.0781H134.06L134.426 51.9475V53.7531Z" fill="#263238"/>
<path d="M134.426 38.6106V39.1619L133.425 39.8875L133.818 38.6781L133.723 38.6106H134.426Z" fill="#263238"/>
<path d="M126.445 60.6044L126.838 59.4006L127.227 60.6044H128.492L127.468 61.3469L127.862 62.5506L126.838 61.8081L125.809 62.5506L126.203 61.3469L125.179 60.6044H126.445Z" fill="#263238"/>
<path d="M119.287 68.89V67.09L119.309 67.0113L119.703 68.215H120.969L120.035 68.89H119.287Z" fill="#263238"/>
<path d="M119.948 53.8206L120.336 55.0244L119.312 54.2819L119.29 54.2988V53.7531H120.038L119.948 53.8206Z" fill="#263238"/>
<path d="M134.426 68.89H133.723L132.795 68.215H134.06L134.426 67.09V68.89Z" fill="#263238"/>
<path d="M134.426 54.2988L133.425 55.0244L133.818 53.8206L133.723 53.7531H134.426V54.2988Z" fill="#263238"/>
<path d="M126.445 75.7413L126.838 74.5375L127.227 75.7413H128.492L127.468 76.4894L127.862 77.6931L126.838 76.945L125.809 77.6931L126.203 76.4894L125.179 75.7413H126.445Z" fill="#263238"/>
<path d="M119.287 84.0325V82.2269L119.309 82.1537L119.703 83.3575H120.969L120.035 84.0325H119.287Z" fill="#263238"/>
<path d="M119.948 68.9631L120.336 70.1669L119.312 69.4188L119.29 69.4413V68.89H120.038L119.948 68.9631Z" fill="#263238"/>
<path d="M134.426 84.0325H133.723L132.795 83.3575H134.06L134.426 82.2269V84.0325Z" fill="#263238"/>
<path d="M134.426 69.4413L133.425 70.1669L133.818 68.9631L133.723 68.89H134.426V69.4413Z" fill="#263238"/>
<path d="M126.445 90.8838L126.838 89.68L127.227 90.8838H128.492L127.468 91.6263L127.862 92.83L126.838 92.0875L125.809 92.83L126.203 91.6263L125.179 90.8838H126.445Z" fill="#263238"/>
<path d="M119.287 99.1694V97.3694L119.309 97.2906L119.703 98.4944H120.969L120.035 99.1694H119.287Z" fill="#263238"/>
<path d="M119.948 84.1L120.336 85.3038L119.312 84.5613L119.29 84.5781V84.0325H120.038L119.948 84.1Z" fill="#263238"/>
<path d="M134.426 99.1694H133.723L132.795 98.4944H134.06L134.426 97.3694V99.1694Z" fill="#263238"/>
<path d="M134.426 84.5781L133.425 85.3038L133.818 84.1L133.723 84.0325H134.426V84.5781Z" fill="#263238"/>
<path d="M126.445 106.021L126.838 104.817L127.227 106.021H128.492L127.468 106.769L127.862 107.973L126.838 107.224L125.809 107.973L126.203 106.769L125.179 106.021H126.445Z" fill="#263238"/>
<path d="M119.287 114.312V112.512L119.309 112.433L119.703 113.637H120.969L120.035 114.312H119.287Z" fill="#263238"/>
<path d="M119.948 99.2425L120.336 100.446L119.312 99.7037L119.29 99.7206V99.1694H120.038L119.948 99.2425Z" fill="#263238"/>
<path d="M134.426 114.312H133.723L132.795 113.637H134.06L134.426 112.506V112.512V114.312Z" fill="#263238"/>
<path d="M134.426 99.7206L133.425 100.446L133.818 99.2425L133.723 99.1694H134.426V99.7206Z" fill="#263238"/>
<path d="M126.445 121.163L126.838 119.959L127.227 121.163H128.492L127.468 121.906L127.862 123.109L126.838 122.367L125.809 123.109L126.203 121.906L125.179 121.163H126.445Z" fill="#263238"/>
<path d="M119.287 129.449V127.649L119.309 127.57L119.703 128.774H120.969L120.035 129.449H119.287Z" fill="#263238"/>
<path d="M119.29 114.312H120.038L119.948 114.379L120.336 115.583L119.312 114.841L119.29 114.858V114.312Z" fill="#263238"/>
<path d="M134.426 129.449H133.723L132.795 128.774H134.06L134.426 127.649V129.449Z" fill="#263238"/>
<path d="M134.426 114.858L133.425 115.583L133.818 114.379L133.723 114.312H134.426V114.858Z" fill="#263238"/>
<path d="M126.445 136.3L126.838 135.096L127.227 136.3H128.492L127.468 137.048L127.862 138.252L126.838 137.509L125.809 138.252L126.203 137.048L125.179 136.3H126.445Z" fill="#263238"/>
<path d="M119.287 144.591V142.791L119.309 142.713L119.703 143.916H120.969L120.035 144.591H119.287Z" fill="#263238"/>
<path d="M119.29 129.449H120.038L119.948 129.522L120.336 130.726L119.312 129.983L119.29 130V129.449Z" fill="#263238"/>
<path d="M134.426 144.591H133.723L132.795 143.916H134.06L134.426 142.791V144.591Z" fill="#263238"/>
<path d="M134.426 129.449V130L133.425 130.726L133.818 129.522L133.723 129.449H134.426Z" fill="#263238"/>
<path d="M119.29 144.591H120.038L119.948 144.659L120.336 145.862L119.312 145.12L119.29 145.137V144.591Z" fill="#263238"/>
<path d="M134.426 144.591V145.137L133.425 145.862L133.818 144.659L133.723 144.591H134.426Z" fill="#263238"/>
<path d="M134.425 23.4738V23.35H135.348L135.179 23.4738H134.425Z" fill="#263238"/>
<path d="M148.863 23.4738L148.695 23.35H149.566V23.4738H148.863Z" fill="#263238"/>
<path d="M141.585 30.325L141.973 29.1213L142.367 30.325H143.633L142.609 31.0675L142.997 32.2713L141.973 31.5288L140.95 32.2713L141.343 31.0675L140.314 30.325H141.585Z" fill="#263238"/>
<path d="M136.109 37.9356L135.181 38.6106H134.428V36.8106L134.456 36.7319L134.844 37.9356H136.109Z" fill="#263238"/>
<path d="M134.425 23.4738H135.178L135.083 23.5413L135.477 24.745L134.453 24.0025L134.425 24.0194V23.4738Z" fill="#263238"/>
<path d="M148.863 38.6106L147.93 37.9356H149.201L149.566 36.8106V38.6106H148.863Z" fill="#263238"/>
<path d="M149.566 24.0194L148.565 24.745L148.959 23.5413L148.863 23.4738H149.566V24.0194Z" fill="#263238"/>
<path d="M142.997 47.4138L141.973 46.6656L140.95 47.4138L141.343 46.2044L140.314 45.4619H141.585L141.973 44.2581L142.367 45.4619H143.633L142.609 46.2044L142.997 47.4138Z" fill="#263238"/>
<path d="M134.428 53.7531V51.9475L134.456 51.8744L134.844 53.0781H136.109L135.181 53.7531H134.428Z" fill="#263238"/>
<path d="M134.425 38.6106H135.178L135.083 38.6781L135.477 39.8875L134.453 39.1394L134.425 39.1619V38.6106Z" fill="#263238"/>
<path d="M148.863 53.7531L147.93 53.0781H149.201L149.566 51.9475V53.7531H148.863Z" fill="#263238"/>
<path d="M149.566 39.1619L148.565 39.8875L148.959 38.6781L148.863 38.6106H149.566V39.1619Z" fill="#263238"/>
<path d="M142.997 62.5506L141.973 61.8081L140.95 62.5506L141.343 61.3469L140.314 60.6044H141.585L141.973 59.4006L142.367 60.6044H143.633L142.609 61.3469L142.997 62.5506Z" fill="#263238"/>
<path d="M134.428 68.89V67.09L134.456 67.0113L134.844 68.215H136.109L135.181 68.89H134.428Z" fill="#263238"/>
<path d="M135.083 53.8206L135.477 55.0244L134.453 54.2819L134.425 54.2988V53.7531H135.178L135.083 53.8206Z" fill="#263238"/>
<path d="M148.863 68.89L147.93 68.215H149.201L149.566 67.09V68.89H148.863Z" fill="#263238"/>
<path d="M149.566 54.2988L148.565 55.0244L148.959 53.8206L148.863 53.7531H149.566V54.2988Z" fill="#263238"/>
<path d="M142.997 77.6931L141.973 76.945L140.95 77.6931L141.343 76.4894L140.314 75.7413H141.585L141.973 74.5375L142.367 75.7413H143.633L142.609 76.4894L142.997 77.6931Z" fill="#263238"/>
<path d="M134.428 84.0325V82.2269L134.456 82.1537L134.844 83.3575H136.109L135.181 84.0325H134.428Z" fill="#263238"/>
<path d="M135.083 68.9631L135.477 70.1669L134.453 69.4188L134.425 69.4413V68.89H135.178L135.083 68.9631Z" fill="#263238"/>
<path d="M148.863 84.0325L147.93 83.3575H149.201L149.566 82.2269V84.0325H148.863Z" fill="#263238"/>
<path d="M149.566 69.4413L148.565 70.1669L148.959 68.9631L148.863 68.89H149.566V69.4413Z" fill="#263238"/>
<path d="M142.997 92.83L141.973 92.0875L140.95 92.83L141.343 91.6263L140.314 90.8838H141.585L141.973 89.68L142.367 90.8838H143.633L142.609 91.6263L142.997 92.83Z" fill="#263238"/>
<path d="M134.428 99.1694V97.3694L134.456 97.2906L134.844 98.4944H136.109L135.181 99.1694H134.428Z" fill="#263238"/>
<path d="M135.083 84.1L135.477 85.3038L134.453 84.5613L134.425 84.5781V84.0325H135.178L135.083 84.1Z" fill="#263238"/>
<path d="M148.863 99.1694L147.93 98.4944H149.201L149.566 97.3694V99.1694H148.863Z" fill="#263238"/>
<path d="M149.566 84.5781L148.565 85.3038L148.959 84.1L148.863 84.0325H149.566V84.5781Z" fill="#263238"/>
<path d="M142.997 107.973L141.973 107.224L140.95 107.973L141.343 106.769L140.314 106.021H141.585L141.973 104.817L142.367 106.021H143.633L142.609 106.769L142.997 107.973Z" fill="#263238"/>
<path d="M134.428 114.312V112.512L134.456 112.433L134.844 113.637H136.109L135.181 114.312H134.428Z" fill="#263238"/>
<path d="M135.083 99.2425L135.477 100.446L134.453 99.7037L134.425 99.7206V99.1694H135.178L135.083 99.2425Z" fill="#263238"/>
<path d="M148.863 114.312L147.93 113.637H149.201L149.566 112.506V114.312H148.863Z" fill="#263238"/>
<path d="M149.566 99.7206L148.565 100.446L148.959 99.2425L148.863 99.1694H149.566V99.7206Z" fill="#263238"/>
<path d="M142.997 123.109L141.973 122.367L140.95 123.109L141.343 121.906L140.314 121.163H141.585L141.973 119.959L142.367 121.163H143.633L142.609 121.906L142.997 123.109Z" fill="#263238"/>
<path d="M134.428 129.449V127.649L134.456 127.57L134.844 128.774H136.109L135.181 129.449H134.428Z" fill="#263238"/>
<path d="M135.083 114.379L135.477 115.583L134.453 114.841L134.425 114.858V114.312H135.178L135.083 114.379Z" fill="#263238"/>
<path d="M148.863 129.449L147.93 128.774H149.201L149.566 127.649V129.449H148.863Z" fill="#263238"/>
<path d="M149.566 114.858L148.565 115.583L148.959 114.379L148.863 114.312H149.566V114.858Z" fill="#263238"/>
<path d="M141.585 136.3L141.973 135.096L142.367 136.3H143.633L142.609 137.048L142.997 138.252L141.973 137.509L140.95 138.252L141.343 137.048L140.314 136.3H141.585Z" fill="#263238"/>
<path d="M134.428 144.591V142.791L134.456 142.713L134.844 143.916H136.109L135.181 144.591H134.428Z" fill="#263238"/>
<path d="M134.425 129.449H135.178L135.083 129.522L135.477 130.726L134.453 129.983L134.425 130V129.449Z" fill="#263238"/>
<path d="M148.863 144.591L147.93 143.916H149.201L149.566 142.791V144.591H148.863Z" fill="#263238"/>
<path d="M149.566 129.449V130L148.565 130.726L148.959 129.522L148.863 129.449H149.566Z" fill="#263238"/>
<path d="M134.425 144.591H135.178L135.083 144.659L135.477 145.862L134.453 145.12L134.425 145.137V144.591Z" fill="#263238"/>
<path d="M149.566 144.591V145.137L148.565 145.862L148.959 144.659L148.863 144.591H149.566Z" fill="#263238"/>
<path d="M149.567 23.4738V23.35H150.484L150.321 23.4738H149.567Z" fill="#263238"/>
<path d="M164.029 23.35V23.4738H164.001L163.838 23.35H164.029Z" fill="#263238"/>
<path d="M158.14 32.2713L157.116 31.5288L156.092 32.2713L156.48 31.0675L155.456 30.325H156.722L157.116 29.1213L157.504 30.325H158.77L157.746 31.0675L158.14 32.2713Z" fill="#263238"/>
<path d="M149.568 38.6106V36.8106L149.591 36.7319L149.984 37.9356H151.25L150.322 38.6106H149.568Z" fill="#263238"/>
<path d="M150.321 23.4738L150.225 23.5413L150.613 24.745L149.59 24.0025L149.567 24.0194V23.4738H150.321Z" fill="#263238"/>
<path d="M163.075 37.9356H164.031V38.6106H164.003L163.075 37.9356Z" fill="#263238"/>
<path d="M164.03 23.4963L164.002 23.4738H164.03V23.4963Z" fill="#263238"/>
<path d="M163.704 24.745L164.03 23.7438V24.5088L163.704 24.745Z" fill="#263238"/>
<path d="M158.14 47.4138L157.116 46.6656L156.092 47.4138L156.48 46.2044L155.456 45.4619H156.722L157.116 44.2581L157.504 45.4619H158.77L157.746 46.2044L158.14 47.4138Z" fill="#263238"/>
<path d="M149.568 53.7531V51.9475L149.591 51.8744L149.984 53.0781H151.25L150.322 53.7531H149.568Z" fill="#263238"/>
<path d="M150.225 38.6781L150.613 39.8875L149.59 39.1394L149.567 39.1619V38.6106H150.321L150.225 38.6781Z" fill="#263238"/>
<path d="M163.075 53.0781H164.031V53.7531H164.003L163.075 53.0781Z" fill="#263238"/>
<path d="M163.704 39.8875L164.03 38.8806V39.6513L163.704 39.8875Z" fill="#263238"/>
<path d="M164.03 38.6331L164.002 38.6106H164.03V38.6331Z" fill="#263238"/>
<path d="M158.14 62.5506L157.116 61.8081L156.092 62.5506L156.48 61.3469L155.456 60.6044H156.722L157.116 59.4006L157.504 60.6044H158.77L157.746 61.3469L158.14 62.5506Z" fill="#263238"/>
<path d="M149.568 68.89V67.09L149.591 67.0113L149.984 68.215H151.25L150.322 68.89H149.568Z" fill="#263238"/>
<path d="M150.225 53.8206L150.613 55.0244L149.59 54.2819L149.567 54.2988V53.7531H150.321L150.225 53.8206Z" fill="#263238"/>
<path d="M163.075 68.215H164.031V68.89H164.003L163.075 68.215Z" fill="#263238"/>
<path d="M164.03 53.7756L164.002 53.7531H164.03V53.7756Z" fill="#263238"/>
<path d="M163.704 55.0244L164.03 54.0231V54.7881L163.704 55.0244Z" fill="#263238"/>
<path d="M158.14 77.6931L157.116 76.945L156.092 77.6931L156.48 76.4894L155.456 75.7413H156.722L157.116 74.5375L157.504 75.7413H158.77L157.746 76.4894L158.14 77.6931Z" fill="#263238"/>
<path d="M149.568 84.0325V82.2269L149.591 82.1537L149.984 83.3575H151.25L150.322 84.0325H149.568Z" fill="#263238"/>
<path d="M150.225 68.9631L150.613 70.1669L149.59 69.4188L149.567 69.4413V68.89H150.321L150.225 68.9631Z" fill="#263238"/>
<path d="M163.075 83.3575H164.031V84.0325H164.003L163.075 83.3575Z" fill="#263238"/>
<path d="M163.704 70.1669L164.03 69.16V69.9306L163.704 70.1669Z" fill="#263238"/>
<path d="M164.03 68.9125L164.002 68.89H164.03V68.9125Z" fill="#263238"/>
<path d="M158.14 92.83L157.116 92.0875L156.092 92.83L156.48 91.6263L155.456 90.8838H156.722L157.116 89.68L157.504 90.8838H158.77L157.746 91.6263L158.14 92.83Z" fill="#263238"/>
<path d="M149.568 99.1694V97.3694L149.591 97.2906L149.984 98.4944H151.25L150.322 99.1694H149.568Z" fill="#263238"/>
<path d="M150.225 84.1L150.613 85.3038L149.59 84.5613L149.567 84.5781V84.0325H150.321L150.225 84.1Z" fill="#263238"/>
<path d="M163.075 98.4944H164.031V99.1694H164.003L163.075 98.4944Z" fill="#263238"/>
<path d="M163.704 85.3038L164.03 84.3025V85.0675L163.704 85.3038Z" fill="#263238"/>
<path d="M164.03 84.055L164.002 84.0325H164.03V84.055Z" fill="#263238"/>
<path d="M158.14 107.973L157.116 107.224L156.092 107.973L156.48 106.769L155.456 106.021H156.722L157.116 104.817L157.504 106.021H158.77L157.746 106.769L158.14 107.973Z" fill="#263238"/>
<path d="M149.568 114.312V112.512L149.591 112.433L149.984 113.637H151.25L150.322 114.312H149.568Z" fill="#263238"/>
<path d="M150.225 99.2425L150.613 100.446L149.59 99.7037L149.567 99.7206V99.1694H150.321L150.225 99.2425Z" fill="#263238"/>
<path d="M163.075 113.637H164.031V114.312H164.003L163.075 113.637Z" fill="#263238"/>
<path d="M163.704 100.446L164.03 99.4394V100.21L163.704 100.446Z" fill="#263238"/>
<path d="M164.03 99.1919L164.002 99.1694H164.03V99.1919Z" fill="#263238"/>
<path d="M158.14 123.109L157.116 122.367L156.092 123.109L156.48 121.906L155.456 121.163H156.722L157.116 119.959L157.504 121.163H158.77L157.746 121.906L158.14 123.109Z" fill="#263238"/>
<path d="M149.568 129.449V127.649L149.591 127.57L149.984 128.774H151.25L150.322 129.449H149.568Z" fill="#263238"/>
<path d="M150.225 114.379L150.613 115.583L149.59 114.841L149.567 114.858V114.312H150.321L150.225 114.379Z" fill="#263238"/>
<path d="M163.075 128.774H164.031V129.449H164.003L163.075 128.774Z" fill="#263238"/>
<path d="M164.03 114.334L164.002 114.312H164.03V114.334Z" fill="#263238"/>
<path d="M163.704 115.583L164.03 114.582V115.347L163.704 115.583Z" fill="#263238"/>
<path d="M158.14 138.252L157.116 137.509L156.092 138.252L156.48 137.048L155.456 136.3H156.722L157.116 135.096L157.504 136.3H158.77L157.746 137.048L158.14 138.252Z" fill="#263238"/>
<path d="M149.568 144.591V142.791L149.591 142.713L149.984 143.916H151.25L150.322 144.591H149.568Z" fill="#263238"/>
<path d="M150.225 129.522L150.613 130.726L149.59 129.983L149.567 130V129.449H150.321L150.225 129.522Z" fill="#263238"/>
<path d="M163.075 143.916H164.031V144.591H164.003L163.075 143.916Z" fill="#263238"/>
<path d="M163.704 130.726L164.03 129.724V130.489L163.704 130.726Z" fill="#263238"/>
<path d="M164.03 129.471L164.002 129.449H164.03V129.471Z" fill="#263238"/>
<path d="M149.567 144.591H150.321L150.225 144.659L150.613 145.862L149.59 145.12L149.567 145.137V144.591Z" fill="#263238"/>
<path d="M164.03 144.861V145.626L163.704 145.863L164.03 144.861Z" fill="#263238"/>
<path d="M164.03 144.591V144.614L164.002 144.591H164.03Z" fill="#263238"/>
<rect width="34.7681" height="124.65" transform="matrix(-1 0 0 1 97.8906 23.35)" stroke="#263238" stroke-width="0.5625" stroke-linecap="round" stroke-linejoin="round"/>
<path d="M113.984 12.0438C113.984 12.0438 124.16 6.53688 128.401 2.29563C132.642 -1.94562 133.064 5.26 133.064 9.07938C133.064 12.8988 135.185 15.8631 131.793 16.285C128.401 16.7069 113.984 15.0138 113.984 15.0138V12.0438Z" fill="#ADC7F7" stroke="#263238" stroke-width="0.5625" stroke-linecap="round" stroke-linejoin="round"/>
<path d="M110.496 12.0438C110.496 12.0438 100.32 6.53688 96.0792 2.29563C91.838 -1.94562 91.4161 5.26 91.4161 9.07938C91.4161 12.8988 89.2955 15.8631 92.6873 16.285C96.0792 16.7069 110.496 15.0138 110.496 15.0138V12.0438Z" fill="#ADC7F7" stroke="#263238" stroke-width="0.5625" stroke-linecap="round" stroke-linejoin="round"/>
<rect width="4.01062" height="4.01062" transform="matrix(-1 0 0 1 114.281 11.3069)" fill="#ADC7F7" stroke="#263238" stroke-width="0.5625" stroke-linecap="round" stroke-linejoin="round"/>
<rect width="106.841" height="10.5975" transform="matrix(-1 0 0 1 167 14.8731)" fill="#263238" stroke="#263238" stroke-width="0.5625" stroke-linecap="round" stroke-linejoin="round"/>
<rect width="12.9375" height="133.116" transform="matrix(-1 0 0 1 143.984 14.8113)" fill="#ADC7F7" stroke="#263238" stroke-width="0.5625" stroke-linecap="round" stroke-linejoin="round"/>
<rect width="21.1725" height="12.4369" transform="matrix(-0.977453 -0.211154 -0.211154 0.977453 127.559 56.2008)" fill="#ADC7F7" stroke="#263238" stroke-width="0.5625" stroke-linecap="round" stroke-linejoin="round"/>
<rect width="12.9375" height="133.116" transform="matrix(1 0 0 -1 71.6953 147.933)" fill="#ADC7F7" stroke="#263238" stroke-width="0.5625" stroke-linecap="round" stroke-linejoin="round"/>
<path d="M131.047 14.8113C132.271 15.89 133.358 17.1162 134.281 18.4619C135.969 20.8525 135.266 25.0713 135.266 27.7431C135.266 30.415 136.109 39.2744 136.109 39.2744L130.906 33.3681C130.906 33.3681 126.125 40.2588 126.125 39.6963V22.4275C126.184 20.4399 125.645 18.4804 124.578 16.8025C123.734 15.5369 121.625 14.8338 121.625 14.8338L131.047 14.8113Z" fill="#ADC7F7" stroke="#263238" stroke-width="0.5625" stroke-linecap="round" stroke-linejoin="round"/>
<path d="M119.418 14.8113C120.643 15.89 121.729 17.1162 122.652 18.4619C124.34 20.8525 123.637 25.0713 123.637 27.7431C123.637 30.415 124.48 39.2744 124.48 39.2744L119.277 33.3681C119.277 33.3681 114.496 40.2588 114.496 39.6963V22.4275C114.555 20.4399 114.016 18.4804 112.949 16.8025C112.105 15.5369 109.996 14.8338 109.996 14.8338L119.418 14.8113Z" fill="#ADC7F7" stroke="#263238" stroke-width="0.5625" stroke-linecap="round" stroke-linejoin="round"/>
<rect width="82.65" height="42.13" transform="matrix(-1 0 0 1 373 104.92)" fill="white" stroke="#263238" stroke-linecap="round" stroke-linejoin="round"/>
<rect width="9.75" height="42.13" transform="matrix(-1 0 0 1 351.449 104.92)" fill="#ADC7F7" stroke="#263238" stroke-linecap="round" stroke-linejoin="round"/>
<rect width="28.48" height="42.13" transform="matrix(-1 0 0 1 318.82 104.92)" fill="white" stroke="#263238" stroke-linecap="round" stroke-linejoin="round"/>
<rect width="9.75" height="42.13" transform="matrix(-1 0 0 1 310.988 104.92)" fill="white" stroke="#263238" stroke-linecap="round" stroke-linejoin="round"/>
<rect width="82.65" height="42.13" transform="matrix(-1 0 0 1 314.27 104.92)" fill="white"/>
<path d="M231.631 127.67V123.93L262.691 147.04H257.661L231.631 127.67Z" fill="#ADC7F7"/>
<path d="M314.27 112.63V116.37L298.88 104.92H303.9L314.27 112.63Z" fill="#ADC7F7"/>
<path d="M279.31 104.92H284.34L314.27 127.19V130.93L279.31 104.92Z" fill="#ADC7F7"/>
<path d="M259.75 104.92H264.77L314.27 141.75V145.49L259.75 104.92Z" fill="#ADC7F7"/>
<path d="M282.25 147.04H277.23L231.63 113.11V109.37L282.25 147.04Z" fill="#ADC7F7"/>
<path d="M301.82 147.04H296.79L240.19 104.92H245.21L301.82 147.04Z" fill="#ADC7F7"/>
<path d="M231.629 142.23V138.49L243.129 147.04H238.099L231.629 142.23Z" fill="#ADC7F7"/>
<rect width="9.75" height="42.13" transform="matrix(-1 0 0 1 292.73 104.92)" fill="#263238" stroke="#263238" stroke-linecap="round" stroke-linejoin="round"/>
<rect width="28.48" height="42.13" transform="matrix(-1 0 0 1 260.102 104.92)" stroke="#263238" stroke-linecap="round" stroke-linejoin="round"/>
<rect width="9.75" height="42.13" transform="matrix(-1 0 0 1 252.27 104.92)" fill="#263238" stroke="#263238" stroke-linecap="round" stroke-linejoin="round"/>
<rect width="82.65" height="42.13" transform="matrix(-1 0 0 1 314.27 104.92)" stroke="#263238" stroke-linecap="round" stroke-linejoin="round"/>
<rect width="82.65" height="13.43" transform="matrix(-1 0 0 1 258.262 133.61)" fill="#ADC7F7" stroke="#263238" stroke-linecap="round" stroke-linejoin="round"/>
<rect width="9.75" height="13.43" transform="matrix(-1 0 0 1 236.719 133.61)" fill="white" stroke="#263238" stroke-linecap="round" stroke-linejoin="round"/>
<rect width="28.48" height="13.43" transform="matrix(-1 0 0 1 204.09 133.61)" fill="#ADC7F7" stroke="#263238" stroke-linecap="round" stroke-linejoin="round"/>
<rect width="9.75" height="13.43" transform="matrix(-1 0 0 1 196.25 133.61)" fill="white" stroke="#263238" stroke-linecap="round" stroke-linejoin="round"/>
<path fill-rule="evenodd" clip-rule="evenodd" d="M224.81 121.52C224.81 121.52 230.57 106.52 239.81 108.86C249.05 111.2 224.81 121.52 224.81 121.52Z" stroke="#263238" stroke-linecap="round" stroke-linejoin="round"/>
<path fill-rule="evenodd" clip-rule="evenodd" d="M224.812 121.52C224.812 121.52 217.902 101.95 208.122 108.28C198.342 114.61 224.812 121.52 224.812 121.52Z" stroke="#263238" stroke-linecap="round" stroke-linejoin="round"/>
<rect width="82.65" height="13.43" transform="matrix(-1 0 0 1 261.641 120.37)" fill="#ADC7F7" stroke="#263238" stroke-linecap="round" stroke-linejoin="round"/>
<rect width="9.75" height="13.43" transform="matrix(-1 0 0 1 240.102 120.37)" fill="white" stroke="#263238" stroke-linecap="round" stroke-linejoin="round"/>
<rect width="28.48" height="13.43" transform="matrix(-1 0 0 1 207.469 120.37)" fill="#ADC7F7" stroke="#263238" stroke-linecap="round" stroke-linejoin="round"/>
<rect width="9.75" height="13.43" transform="matrix(-1 0 0 1 199.629 120.37)" fill="white" stroke="#263238" stroke-linecap="round" stroke-linejoin="round"/>
<rect width="12.3" height="8.13" transform="matrix(-1 0 0 1 347.449 66.99)" fill="white" stroke="#263238" stroke-linecap="round" stroke-linejoin="round"/>
<path d="M342.099 76.6L348.879 71.67L352.789 76.97L349.399 79.44L342.099 76.6Z" fill="white" stroke="#263238" stroke-linecap="round" stroke-linejoin="round"/>
<path d="M333.31 71.31L340.09 76.24L332.79 79.08L329.4 76.62L333.31 71.31Z" fill="white" stroke="#263238" stroke-linecap="round" stroke-linejoin="round"/>
<path d="M336.39 73.94H345.98L343.58 79.71H338.78L336.39 73.94Z" fill="white" stroke="#263238" stroke-linecap="round" stroke-linejoin="round"/>
<path d="M342.099 65.2L348.879 70.13L352.789 64.82L349.399 62.36L342.099 65.2Z" fill="white" stroke="#263238" stroke-linecap="round" stroke-linejoin="round"/>
<path d="M332.968 70.68L339.738 65.75L332.448 62.91L329.058 65.38L332.968 70.68Z" fill="white" stroke="#263238" stroke-linecap="round" stroke-linejoin="round"/>
<path d="M336.39 67.77H345.98L343.58 62H338.78L336.39 67.77Z" fill="white" stroke="#263238" stroke-linecap="round" stroke-linejoin="round"/>
<path d="M345.771 67.37V74.34L353.691 72.6V69.11L345.771 67.37Z" fill="white" stroke="#263238" stroke-linecap="round" stroke-linejoin="round"/>
<path d="M336.82 67.37V74.34L328.9 72.6V69.11L336.82 67.37Z" fill="white" stroke="#263238" stroke-linecap="round" stroke-linejoin="round"/>
<rect width="62.99" height="32.11" transform="matrix(-1 0 0 1 371.781 72.36)" fill="#ADC7F7" stroke="#263238" stroke-linecap="round" stroke-linejoin="round"/>
<rect width="7.43" height="32.11" transform="matrix(-1 0 0 1 355.359 72.36)" fill="white" stroke="#263238" stroke-linecap="round" stroke-linejoin="round"/>
<rect width="21.7" height="32.11" transform="matrix(-1 0 0 1 330.488 72.36)" fill="#ADC7F7" stroke="#263238" stroke-linecap="round" stroke-linejoin="round"/>
<rect width="7.43" height="32.11" transform="matrix(-1 0 0 1 324.52 72.36)" fill="white" stroke="#263238" stroke-linecap="round" stroke-linejoin="round"/>
<rect width="17.56" height="11.6" transform="matrix(-1 0 0 1 63.2891 94.11)" fill="white" stroke="#263238" stroke-linecap="round" stroke-linejoin="round"/>
<path d="M55.6484 91.55L65.3284 98.59L70.8984 91.02L66.0684 87.5L55.6484 91.55Z" fill="white" stroke="#263238" stroke-linecap="round" stroke-linejoin="round"/>
<path d="M42.6091 99.38L52.2891 92.34L41.8791 88.29L37.0391 91.81L42.6091 99.38Z" fill="white" stroke="#263238" stroke-linecap="round" stroke-linejoin="round"/>
<path d="M47.4997 95.22H61.1797L57.7597 87H50.9197L47.4997 95.22Z" fill="white" stroke="#263238" stroke-linecap="round" stroke-linejoin="round"/>
<path d="M60.8914 94.65V104.6L72.1914 102.11V97.14L60.8914 94.65Z" fill="white" stroke="#263238" stroke-linecap="round" stroke-linejoin="round"/>
<path d="M48.1094 94.65V104.6L36.8094 102.11V97.14L48.1094 94.65Z" fill="white" stroke="#263238" stroke-linecap="round" stroke-linejoin="round"/>
<rect width="89.88" height="45.82" transform="matrix(-1 0 0 1 98 101.77)" fill="#ADC7F7" stroke="#263238" stroke-linecap="round" stroke-linejoin="round"/>
<rect width="10.6" height="45.82" transform="matrix(-1 0 0 1 74.5703 101.77)" fill="white" stroke="#263238" stroke-linecap="round" stroke-linejoin="round"/>
<rect width="30.97" height="45.82" transform="matrix(-1 0 0 1 39.0781 101.77)" fill="#ADC7F7" stroke="#263238" stroke-linecap="round" stroke-linejoin="round"/>
<rect width="10.6" height="45.82" transform="matrix(-1 0 0 1 30.5586 101.77)" fill="white" stroke="#263238" stroke-linecap="round" stroke-linejoin="round"/>
</svg>
