<svg xmlns="http://www.w3.org/2000/svg" width="389.611" height="329.112" viewBox="0 0 389.611 329.112">
  <g id="Hello-bro" transform="translate(-0.971 -0.017)">
    <g id="freepik--background-simple--inject-4" transform="translate(20)">
      <path id="Path" d="M46.7,21.62V0C30.13,4.12,14.92,11.38,0,21.6Z" transform="translate(168.16 4)" fill="#adc7f7"/>
      <rect id="Rectangle" width="114.36" height="141.94" transform="translate(221.37 33.41)" fill="#adc7f7"/>
      <path id="Path-2" data-name="Path" d="M114.36,0H56.95c-12.83,9.6-26,19.32-41.37,24.86-5.14,1.86-10.34,3.49-15.58,5V141.94H114.36Z" transform="translate(100.5 33.41)" fill="#adc7f7"/>
      <path id="Path-3" data-name="Path" d="M16.11,21.12A92.74,92.74,0,0,0,0,0V140.35H11.76C29.84,104.18,35.76,56.77,16.11,21.12Z" transform="translate(342.24 35)" fill="#adc7f7"/>
      <path id="Path-4" data-name="Path" d="M93.531,0c-6.23,1.71-12.51,3.32-18.79,5C25.531,18.15-4.979,62.37.671,110.25h92.86Z" transform="translate(0.469 65.1)" fill="#adc7f7"/>
      <path id="Path-5" data-name="Path" d="M0,.01V11.7q2.17-2.9,4.15-6C5.33,3.85,6.47,1.94,7.59,0Z" transform="translate(342.24 183.13)" fill="#adc7f7"/>
      <path id="Path-6" data-name="Path" d="M114.36,0H0V59.86c9.51.12,18.94.88,28.56-.17,31.58-3.44,63.94-16.36,85.8-40.18Z" transform="translate(221.37 183.14)" fill="#adc7f7"/>
      <path id="Path-7" data-name="Path" d="M0,25.6H109.94C87.63,8.983,58.7.723,31.32.063A144.62,144.62,0,0,0,0,2.553Z" transform="translate(221.37 0.017)" fill="#adc7f7"/>
      <path id="Path-8" data-name="Path" d="M114.36,0H0V85.2c19.83.34,39.75-5.36,58.55-11.74,14.94-5.06,30-10.3,45.78-12.66a85.381,85.381,0,0,1,10-.86Z" transform="translate(100.5 183.14)" fill="#adc7f7"/>
      <path id="Path-9" data-name="Path" d="M91.62,0H0C7.22,35,35.08,66.91,70.12,80.05a80.43,80.43,0,0,0,21.5,4.81Z" transform="translate(2.38 183.14)" fill="#adc7f7"/>
      <g id="Group" opacity="0.7">
        <path id="Path-10" data-name="Path" d="M46.7,21.62V0C30.13,4.12,14.92,11.38,0,21.6Z" transform="translate(168.16 4)" fill="#fff"/>
        <rect id="Rectangle-2" data-name="Rectangle" width="114.36" height="141.94" transform="translate(221.37 33.41)" fill="#fff"/>
        <path id="Path-11" data-name="Path" d="M114.36,0H56.95c-12.83,9.6-26,19.32-41.37,24.86-5.14,1.86-10.34,3.49-15.58,5V141.94H114.36Z" transform="translate(100.5 33.41)" fill="#fff"/>
        <path id="Path-12" data-name="Path" d="M16.11,21.12A92.74,92.74,0,0,0,0,0V140.35H11.76C29.84,104.18,35.76,56.77,16.11,21.12Z" transform="translate(342.24 35)" fill="#fff"/>
        <path id="Path-13" data-name="Path" d="M93.531,0c-6.23,1.71-12.51,3.32-18.79,5C25.531,18.15-4.979,62.37.671,110.25h92.86Z" transform="translate(0.469 65.1)" fill="#fff"/>
        <path id="Path-14" data-name="Path" d="M0,.01V11.7q2.17-2.9,4.15-6C5.33,3.85,6.47,1.94,7.59,0Z" transform="translate(342.24 183.13)" fill="#fff"/>
        <path id="Path-15" data-name="Path" d="M114.36,0H0V59.86c9.51.12,18.94.88,28.56-.17,31.58-3.44,63.94-16.36,85.8-40.18Z" transform="translate(221.37 183.14)" fill="#fff"/>
        <path id="Path-16" data-name="Path" d="M0,25.6H109.94C87.63,8.983,58.7.723,31.32.063A144.62,144.62,0,0,0,0,2.553Z" transform="translate(221.37 0.017)" fill="#fff"/>
        <path id="Path-17" data-name="Path" d="M114.36,0H0V85.2c19.83.34,39.75-5.36,58.55-11.74,14.94-5.06,30-10.3,45.78-12.66a85.381,85.381,0,0,1,10-.86Z" transform="translate(100.5 183.14)" fill="#fff"/>
        <path id="Path-18" data-name="Path" d="M91.62,0H0C7.22,35,35.08,66.91,70.12,80.05a80.43,80.43,0,0,0,21.5,4.81Z" transform="translate(2.38 183.14)" fill="#fff"/>
      </g>
    </g>
    <g id="freepik--Desk--inject-4" transform="translate(178 207)">
      <path id="Path-19" data-name="Path" d="M199.95,0H0V8.48H4.24v86.2H195.71V8.48h4.24V0Z" transform="translate(0.22 0.02)" fill="#adc7f7"/>
      <path id="Path-20" data-name="Path" d="M199.95,0H0V8.48H4.24v86.2H195.71V8.48h4.24V0Z" transform="translate(0.22 0.02)" fill="#fff" opacity="0.5"/>
      <path id="Shape" d="M0,27.9V0H52.23V27.9Z" transform="translate(9.58 17.16)" fill="#fff"/>
      <path id="Shape-2" data-name="Shape" d="M0,27.9V0H52.22V27.9Z" transform="translate(74.44 17.16)" fill="#fff"/>
      <path id="Shape-3" data-name="Shape" d="M0,27.9V0H52.22V27.9Z" transform="translate(139.29 17.16)" fill="#fff"/>
      <path id="Shape-4" data-name="Shape" d="M0,27.91V0H52.23V27.91Z" transform="translate(9.58 54.6)" fill="#fff"/>
      <path id="Shape-5" data-name="Shape" d="M0,27.91V0H52.22V27.91Z" transform="translate(74.44 54.6)" fill="#fff"/>
      <path id="Shape-6" data-name="Shape" d="M0,27.91V0H52.22V27.91Z" transform="translate(139.29 54.6)" fill="#fff"/>
      <ellipse id="Oval" cx="8.48" cy="3.18" rx="8.48" ry="3.18" transform="translate(27.77 28.28)" fill="#fff"/>
      <ellipse id="Oval-2" data-name="Oval" cx="8.48" cy="3.18" rx="8.48" ry="3.18" transform="translate(92.31 28.28)" fill="#fff"/>
      <ellipse id="Oval-3" data-name="Oval" cx="8.48" cy="3.18" rx="8.48" ry="3.18" transform="translate(158.73 28.28)" fill="#fff"/>
      <path id="Path-21" data-name="Path" d="M8.47,0C3.79,0,0,1.42,0,3.18S3.79,6.36,8.47,6.36s8.48-1.42,8.48-3.18S13.16,0,8.47,0Z" transform="translate(27.78 65.73)" fill="#fff"/>
      <path id="Path-22" data-name="Path" d="M8.47,0C3.79,0,0,1.42,0,3.18S3.79,6.36,8.47,6.36s8.48-1.42,8.48-3.18S13.16,0,8.47,0Z" transform="translate(92.32 65.73)" fill="#fff"/>
      <path id="Path-23" data-name="Path" d="M8.48,0C3.8,0,0,1.42,0,3.18S3.8,6.36,8.48,6.36s8.48-1.42,8.48-3.18S13.16,0,8.48,0Z" transform="translate(158.73 65.73)" fill="#fff"/>
    </g>
    <g id="freepik--Plants--inject-4" transform="translate(0 141)">
      <path id="Shape-7" data-name="Shape" d="M56.439,160.688l-4-24.88h-5v-7H72.66c-1.15-1.39-2.38-2.9-3.631-4.5l-5.31.13s-18.41.81-25.18-2.83-.73-7.16,5.73-5.3,19.18,7.62,22,7.54l2.38-.07c-1.31-1.71-2.63-3.49-3.89-5.3a118.866,118.866,0,0,1-14.93-4.77c-5.31-2.08-11.44-3.78-16-7.32a4.883,4.883,0,0,1-1.89-2.42,2.5,2.5,0,0,1,2-3.26c4.85-1.26,9.561,2,13,5a75.391,75.391,0,0,0,9.509,6.82c2.981,1.86,5.66,3.58,7.481,4.76a66.791,66.791,0,0,1-3.611-5.91c-.92-1.689-1.779-3.319-2.62-4.91a36,36,0,0,0-15-10.86c-11.14-4.27-17.33-5.369-14.84-8s10.19-2.09,16.77,3.85a100.275,100.275,0,0,1,11.33,11.57c-1.97-3.79-3.8-7.4-5.62-11.091a26.111,26.111,0,0,0-9.45-9.149c-6.761-3.66-20.991-8.1-17.46-10s12.049.41,17.85,5.87a43.28,43.28,0,0,1,7.44,10c-1.281-2.62-2.58-5.31-3.94-8.17-.59-1.229-1.211-2.51-1.87-3.829l-.41-.61a20,20,0,0,0-9.709-7.28c-7.26-2.35-16.19-1.82-14.26-5.72s13.78-.159,17.78,3.56a26.506,26.506,0,0,1,3.839,4.83c-.18-.41-.339-.831-.509-1.26-1.471-2.87-2.94-5.691-4.261-8.18a24.612,24.612,0,0,0-9.66-6.91c-8.3-3.59-18.15-7.4-13.07-8.83,4.1-1.16,14.729,4.23,20.579,11.69l-1.54-2.88c-3.24-4.38-11.09-14.49-17.55-18.841-4.36-2.91-9-5.119-13-8.519a3.5,3.5,0,0,1-1-1.24c-1.22-3.2,5.94-1.48,7.12-1.2a24.285,24.285,0,0,1,11.9,7.28,51.6,51.6,0,0,1,7.16,9.76c1.309,2.23,2.479,4.54,3.569,6.88.71,1.53,1.24,3.441,1.911,5.18.959,1.55,1.91,3.15,2.73,4.63-2.89-10.339-12.15-29.38-12.31-34.8-.17-5.881,5.47,2.86,8.64,14.86a165.348,165.348,0,0,1,4,20.65c.329.62.619,1.2.879,1.75.571,1.21,1.561,3.26,2.87,5.93-2.8-8.78-3.919-19.211-2.18-20.51,2.5-1.831,3.41,2.72,3.41,11.17,0,6.65,2.1,14.67,3,17.78,1.58,3.13,3.35,6.581,5.24,10.21-1.99-6.33-3.139-15.45-4.219-22.28-1.58-9.94-.911-13.029,2.309-8.259s2.66,11.7,1.89,20.18c-.61,6.719,1.87,13.34,2.87,15.8,2.43,4.57,5,9.33,7.6,14a47.987,47.987,0,0,1-4.14-15.17c-1.13-11.45.36-22,3-19s1.1,11,1.48,20.71a109.811,109.811,0,0,0,2,17.54l.789,1.4a48.171,48.171,0,0,1-.779-15c-.53-1.93-.34-3.15.29-3.739.09-2.16-.08-5.421.84-7.07,2.32-4.14,4.891,1.44,4.891,3.64a37.161,37.161,0,0,1-.34,5,12.963,12.963,0,0,1,2.32,2.86c.349.63.72,1.29,1.11,2-.05-.69-.11-1.39-.11-2.1a10.181,10.181,0,0,1,1.149-5.41,33.753,33.753,0,0,1-3-8.82,4.911,4.911,0,0,1,.27-3.06,2.49,2.49,0,0,1,3.7-1c4.42,2.351,5.611,7.97,6.1,12.48a76.236,76.236,0,0,0,2.3,11.48c.91,3.4,1.689,6.48,2.219,8.58.391-2.36.83-4.66,1.391-6.78.44-1.86.969-3.641,1.44-5.38a35.925,35.925,0,0,0-3.56-18.18c-5.22-10.75-9.01-15.77-5.38-16s8.88,5.42,9.63,14.26a99.36,99.36,0,0,1,.34,16.15c1.15-4.12,2.27-8,3.461-11.94a26.126,26.126,0,0,0-.661-13.14c-2.46-7.28-9.79-20.229-5.95-19.21s8.49,8.52,9,16.47a43.342,43.342,0,0,1-1.36,12.35c.85-2.78,1.7-5.66,2.7-8.66.41-1.29.83-2.66,1.25-4.07a6.055,6.055,0,0,0,.11-.72,20.065,20.065,0,0,0-2.06-11.87c-3.69-6.66-10.6-12.39-6.52-13.92s10.219,9.32,10.57,14.74a26.556,26.556,0,0,1-.5,6.15c.159-.419.329-.84.5-1.27.88-3.1,1.73-6.16,2.47-8.89a24.7,24.7,0,0,0-2.35-11.64c-3.621-8.29-8.221-17.79-3.531-15.37,3.79,1.95,7.88,13.14,7.07,22.59.33-1.229.61-2.3.83-3.15.59-5.42,1.751-18.17,0-25.76-1.17-5.07-3.06-9.86-3.66-15.07a3.387,3.387,0,0,1,.09-1.61c1.24-3.12,5.331,3,6,4a24.3,24.3,0,0,1,3.72,13.44,51.87,51.87,0,0,1-1.419,12c-.571,2.52-1.281,5.009-2.091,7.46-.519,1.6-1.44,3.36-2.139,5.09-.35,1.79-.751,3.61-1.16,5.251,4.94-9.53,11.17-29.76,14.75-33.83,3.89-4.431,2.01,5.85-3.82,16.75a165.177,165.177,0,0,1-11.14,17.86c-.18.671-.36,1.31-.55,1.88-.41,1.3-1.09,3.45-1.949,6.3,3.95-8.34,10.25-16.73,12.4-16.49,3.11.35.641,4.31-5.13,10.49-4.59,4.82-8.529,12.12-10,15-.969,3.34-2.039,7.061-3.129,11,2.869-5.98,8.249-13.43,12.11-19.149,5.64-8.35,8.22-10.08,7.31-4.431s-6.05,10.33-12.4,16c-5.03,4.51-7.761,11.01-8.681,13.51-1.34,5.02-2.71,10.25-4,15.44a47.923,47.923,0,0,1,7.32-13.91c7.03-9.16,15.31-15.85,15.2-11.86s-6.69,8.771-13.11,16.08a111.541,111.541,0,0,0-10.5,14.171c-.121.57-.25,1.049-.371,1.57,2.9-5.26,7.46-9.52,11.9-13.52,1.57-1.4,3.95-4.441,5.95-5.09,4.52-1.44,2.569,4.38,1.09,6-4.83,5.29-11.63,8.54-16.1,14.08a50.282,50.282,0,0,0-4.5,6.67c-.31,1.831-.55,3.531-.74,5.12,1.71-1.7,5.15-4.44,5.4-4.61,5.459-3.67,8.62-8.7,12.82-13.549,1.26-1.461,3.43-3.23,5.431-3.33,2.82-.131,3.72,2.89,2.92,5.25-3.31,9.76-15.75,10.18-23.09,15.25a21.3,21.3,0,0,0-3.69,3,63.83,63.83,0,0,0-.239,9.059H99.03v7h-5l-4,24.86Z" transform="translate(0.971 0.692)" fill="#adc7f7"/>
      <path id="Shape-8" data-name="Shape" d="M56.439,160.688l-4-24.88h-5v-7H72.66c-1.15-1.39-2.38-2.9-3.631-4.5l-5.31.13s-18.41.81-25.18-2.83-.73-7.16,5.73-5.3,19.18,7.62,22,7.54l2.38-.07c-1.31-1.71-2.63-3.49-3.89-5.3a118.866,118.866,0,0,1-14.93-4.77c-5.31-2.08-11.44-3.78-16-7.32a4.883,4.883,0,0,1-1.89-2.42,2.5,2.5,0,0,1,2-3.26c4.85-1.26,9.561,2,13,5a75.391,75.391,0,0,0,9.509,6.82c2.981,1.86,5.66,3.58,7.481,4.76a66.791,66.791,0,0,1-3.611-5.91c-.92-1.689-1.779-3.319-2.62-4.91a36,36,0,0,0-15-10.86c-11.14-4.27-17.33-5.369-14.84-8s10.19-2.09,16.77,3.85a100.275,100.275,0,0,1,11.33,11.57c-1.97-3.79-3.8-7.4-5.62-11.091a26.111,26.111,0,0,0-9.45-9.149c-6.761-3.66-20.991-8.1-17.46-10s12.049.41,17.85,5.87a43.28,43.28,0,0,1,7.44,10c-1.281-2.62-2.58-5.31-3.94-8.17-.59-1.229-1.211-2.51-1.87-3.829l-.41-.61a20,20,0,0,0-9.709-7.28c-7.26-2.35-16.19-1.82-14.26-5.72s13.78-.159,17.78,3.56a26.506,26.506,0,0,1,3.839,4.83c-.18-.41-.339-.831-.509-1.26-1.471-2.87-2.94-5.691-4.261-8.18a24.612,24.612,0,0,0-9.66-6.91c-8.3-3.59-18.15-7.4-13.07-8.83,4.1-1.16,14.729,4.23,20.579,11.69l-1.54-2.88c-3.24-4.38-11.09-14.49-17.55-18.841-4.36-2.91-9-5.119-13-8.519a3.5,3.5,0,0,1-1-1.24c-1.22-3.2,5.94-1.48,7.12-1.2a24.285,24.285,0,0,1,11.9,7.28,51.6,51.6,0,0,1,7.16,9.76c1.309,2.23,2.479,4.54,3.569,6.88.71,1.53,1.24,3.441,1.911,5.18.959,1.55,1.91,3.15,2.73,4.63-2.89-10.339-12.15-29.38-12.31-34.8-.17-5.881,5.47,2.86,8.64,14.86a165.348,165.348,0,0,1,4,20.65c.329.62.619,1.2.879,1.75.571,1.21,1.561,3.26,2.87,5.93-2.8-8.78-3.919-19.211-2.18-20.51,2.5-1.831,3.41,2.72,3.41,11.17,0,6.65,2.1,14.67,3,17.78,1.58,3.13,3.35,6.581,5.24,10.21-1.99-6.33-3.139-15.45-4.219-22.28-1.58-9.94-.911-13.029,2.309-8.259s2.66,11.7,1.89,20.18c-.61,6.719,1.87,13.34,2.87,15.8,2.43,4.57,5,9.33,7.6,14a47.987,47.987,0,0,1-4.14-15.17c-1.13-11.45.36-22,3-19s1.1,11,1.48,20.71a109.811,109.811,0,0,0,2,17.54l.789,1.4a48.171,48.171,0,0,1-.779-15c-.53-1.93-.34-3.15.29-3.739.09-2.16-.08-5.421.84-7.07,2.32-4.14,4.891,1.44,4.891,3.64a37.161,37.161,0,0,1-.34,5,12.963,12.963,0,0,1,2.32,2.86c.349.63.72,1.29,1.11,2-.05-.69-.11-1.39-.11-2.1a10.181,10.181,0,0,1,1.149-5.41,33.753,33.753,0,0,1-3-8.82,4.911,4.911,0,0,1,.27-3.06,2.49,2.49,0,0,1,3.7-1c4.42,2.351,5.611,7.97,6.1,12.48a76.236,76.236,0,0,0,2.3,11.48c.91,3.4,1.689,6.48,2.219,8.58.391-2.36.83-4.66,1.391-6.78.44-1.86.969-3.641,1.44-5.38a35.925,35.925,0,0,0-3.56-18.18c-5.22-10.75-9.01-15.77-5.38-16s8.88,5.42,9.63,14.26a99.36,99.36,0,0,1,.34,16.15c1.15-4.12,2.27-8,3.461-11.94a26.126,26.126,0,0,0-.661-13.14c-2.46-7.28-9.79-20.229-5.95-19.21s8.49,8.52,9,16.47a43.342,43.342,0,0,1-1.36,12.35c.85-2.78,1.7-5.66,2.7-8.66.41-1.29.83-2.66,1.25-4.07a6.055,6.055,0,0,0,.11-.72,20.065,20.065,0,0,0-2.06-11.87c-3.69-6.66-10.6-12.39-6.52-13.92s10.219,9.32,10.57,14.74a26.556,26.556,0,0,1-.5,6.15c.159-.419.329-.84.5-1.27.88-3.1,1.73-6.16,2.47-8.89a24.7,24.7,0,0,0-2.35-11.64c-3.621-8.29-8.221-17.79-3.531-15.37,3.79,1.95,7.88,13.14,7.07,22.59.33-1.229.61-2.3.83-3.15.59-5.42,1.751-18.17,0-25.76-1.17-5.07-3.06-9.86-3.66-15.07a3.387,3.387,0,0,1,.09-1.61c1.24-3.12,5.331,3,6,4a24.3,24.3,0,0,1,3.72,13.44,51.87,51.87,0,0,1-1.419,12c-.571,2.52-1.281,5.009-2.091,7.46-.519,1.6-1.44,3.36-2.139,5.09-.35,1.79-.751,3.61-1.16,5.251,4.94-9.53,11.17-29.76,14.75-33.83,3.89-4.431,2.01,5.85-3.82,16.75a165.177,165.177,0,0,1-11.14,17.86c-.18.671-.36,1.31-.55,1.88-.41,1.3-1.09,3.45-1.949,6.3,3.95-8.34,10.25-16.73,12.4-16.49,3.11.35.641,4.31-5.13,10.49-4.59,4.82-8.529,12.12-10,15-.969,3.34-2.039,7.061-3.129,11,2.869-5.98,8.249-13.43,12.11-19.149,5.64-8.35,8.22-10.08,7.31-4.431s-6.05,10.33-12.4,16c-5.03,4.51-7.761,11.01-8.681,13.51-1.34,5.02-2.71,10.25-4,15.44a47.923,47.923,0,0,1,7.32-13.91c7.03-9.16,15.31-15.85,15.2-11.86s-6.69,8.771-13.11,16.08a111.541,111.541,0,0,0-10.5,14.171c-.121.57-.25,1.049-.371,1.57,2.9-5.26,7.46-9.52,11.9-13.52,1.57-1.4,3.95-4.441,5.95-5.09,4.52-1.44,2.569,4.38,1.09,6-4.83,5.29-11.63,8.54-16.1,14.08a50.282,50.282,0,0,0-4.5,6.67c-.31,1.831-.55,3.531-.74,5.12,1.71-1.7,5.15-4.44,5.4-4.61,5.459-3.67,8.62-8.7,12.82-13.549,1.26-1.461,3.43-3.23,5.431-3.33,2.82-.131,3.72,2.89,2.92,5.25-3.31,9.76-15.75,10.18-23.09,15.25a21.3,21.3,0,0,0-3.69,3,63.83,63.83,0,0,0-.239,9.059H99.03v7h-5l-4,24.86Z" transform="translate(0.971 0.692)" fill="#fff" opacity="0.5"/>
    </g>
    <g id="freepik--Characters--inject-4" transform="translate(69 36)">
      <ellipse id="Oval-4" data-name="Oval" cx="41.98" cy="9.09" rx="41.98" ry="9.09" transform="translate(0.01 273.5)" fill="#adc7f7"/>
      <ellipse id="Oval-5" data-name="Oval" cx="41.98" cy="9.09" rx="41.98" ry="9.09" transform="translate(0.01 273.5)" fill="#fff" opacity="0.5"/>
      <ellipse id="Oval-6" data-name="Oval" cx="41.98" cy="9.09" rx="41.98" ry="9.09" transform="translate(152.33 273.5)" fill="#adc7f7"/>
      <ellipse id="Oval-7" data-name="Oval" cx="41.98" cy="9.09" rx="41.98" ry="9.09" transform="translate(152.33 273.5)" fill="#fff" opacity="0.5"/>
      <path id="Path-24" data-name="Path" d="M4.189,0a14,14,0,0,1,4.24,4.13c1.26,2.29,6.54,3.78,6.54,3.78h1.95l.8,9.17a47.28,47.28,0,0,0-6,.58,19.64,19.64,0,0,1-3.56.45S1.969,10.32.939,8.83-.2,4.25.259,3.67,4.189,0,4.189,0Z" transform="translate(119.661 116.63)" fill="#fff" stroke="#263238" stroke-linecap="round" stroke-linejoin="round" stroke-miterlimit="10" stroke-width="0.75"/>
      <path id="Path-25" data-name="Path" d="M2.324.146S-1.116,1.3.374,2.216a4.05,4.05,0,0,0,4.59-.92C5.534.376,3.724-.314,2.324.146Z" transform="translate(113.276 132.074)" fill="#fff" stroke="#263238" stroke-linecap="round" stroke-linejoin="round" stroke-miterlimit="10" stroke-width="0.75"/>
      <path id="Path-26" data-name="Path" d="M.83,3.352S11.03-.318,11.49.022s1.26,3.44,1.26,3.44,7.1,4.24,7.68,5.85a20.89,20.89,0,0,1,0,7.56c-.35.58-2.29,1.26-3,1.49a4.53,4.53,0,0,1-2.18,0c-.34-.11-5.85-4-5.85-4s-5.61.57-6.87.57S0,14.822,0,14.822Z" transform="translate(110.99 118.328)" fill="#fff" stroke="#263238" stroke-linecap="round" stroke-linejoin="round" stroke-miterlimit="10" stroke-width="0.75"/>
      <path id="Path-27" data-name="Path" d="M0,0S3.78,2.07,4.59,3.21s1.6,6.08,1.6,6.08" transform="translate(124.54 126)" fill="none" stroke="#263238" stroke-linecap="round" stroke-linejoin="round" stroke-miterlimit="10" stroke-width="0.75"/>
      <path id="Path-28" data-name="Path" d="M0,0S4.47,2.4,4.92,3.55a36,36,0,0,1,1,4.47" transform="translate(122.94 128.1)" fill="none" stroke="#263238" stroke-linecap="round" stroke-linejoin="round" stroke-miterlimit="10" stroke-width="0.75"/>
      <path id="Path-29" data-name="Path" d="M8.143,2.255s-4.93,5.5-6.08,6.08-1.37-.12-2-.58,3.67-6.64,3.56-7.1a3.35,3.35,0,0,1,4.12.11" transform="translate(117.087 116.555)" fill="#fff" stroke="#263238" stroke-linecap="round" stroke-linejoin="round" stroke-miterlimit="10" stroke-width="0.75"/>
      <path id="Path-30" data-name="Path" d="M.81,1.458l-.18.62A12.77,12.77,0,0,0,0,5.468c.23.46,1.61.92,2.07.23s1.37-4.12,1.14-4.58S2.08-1.332.81,1.458Z" transform="translate(117.19 129.542)" fill="#fff" stroke="#263238" stroke-linecap="round" stroke-linejoin="round" stroke-miterlimit="10" stroke-width="0.75"/>
      <path id="Path-31" data-name="Path" d="M1.662,1.089c-.36.45-2,5.39-1.6,6s2.06.81,2.52.12,2.06-5,1.6-6S3.3-.861,1.662,1.089Z" transform="translate(120.698 129.411)" fill="#fff" stroke="#263238" stroke-linecap="round" stroke-linejoin="round" stroke-miterlimit="10" stroke-width="0.75"/>
      <path id="Path-32" data-name="Path" d="M1.783,1.161l-.17.4c-.5,1.19-1.93,4.78-1.55,5.45s2.63,1,3.09-.11,2.07-5.39,1-6.42a1.35,1.35,0,0,0-2.37.68Z" transform="translate(123.447 130.369)" fill="#fff" stroke="#263238" stroke-linecap="round" stroke-linejoin="round" stroke-miterlimit="10" stroke-width="0.75"/>
      <path id="Path-33" data-name="Path" d="M1.81,3.292s.6,3.69-.09,5.16S0,13,0,13L15.22,26.5s4.64-5.85,5.5-7,2-2.67,2-2.67-7.48-4.73-9-8.17-.77-7.82-4-8.51S2.76,1.232,1.81,3.292Z" transform="translate(44.53 31.848)" fill="#fff" stroke="#263238" stroke-linecap="round" stroke-linejoin="round" stroke-miterlimit="10" stroke-width="0.75"/>
      <path id="Path-34" data-name="Path" d="M34.153,12.186s6.36-.09,5.07-6.19-16.16-7.4-18.91-4.56-2.32,4-2.32,4-12.81-.34-16.08,6.62-1.8,16,.35,20.72,5.76,5.24,7.65,4.64,3.26-1.72,3.26-3.44,1.21-5.84,2.67-4.81,3,1.37,5.59-1.12,6.27-5.59,4.9-8.08-3.7-2.58-2.41-3.7,8.6-2,9.28-2.75A5.72,5.72,0,0,0,34.153,12.186Z" transform="translate(41.157 0.174)" fill="#263238" stroke="#263238" stroke-linecap="round" stroke-linejoin="round" stroke-miterlimit="10" stroke-width="0.75"/>
      <path id="Path-35" data-name="Path" d="M31.09,0s.9,1.81-7.66,4.06S.43,6.76,0,12.17" transform="translate(43.91 8.7)" fill="none" stroke="#fff" stroke-linecap="round" stroke-linejoin="round" stroke-miterlimit="10" stroke-width="0.75"/>
      <path id="Path-36" data-name="Path" d="M13.433,0S3.073,3.15.813,6.76s.91,6.75.91,6.75" transform="translate(44.917 19.07)" fill="none" stroke="#fff" stroke-linecap="round" stroke-linejoin="round" stroke-miterlimit="10" stroke-width="0.75"/>
      <path id="Path-37" data-name="Path" d="M26.066,0s2.41,8.16,2.41,9.8-1.72,3.26-.95,5.07,3.35,5.33,3.35,6.45-3.78,2.23-3.78,2.23-3.18,12-3.87,13.5-3,1.72-5.76,1-10.05-4.56-12-7.56-.52-8.09-.52-8.09-4-1.8-4.81-5.58,2.15-6.28,4.73-5.42a5.44,5.44,0,0,1,3.35,2.84s.26.94,1,.69,1.46-1.81,2.15-1.9,5.59-1.8,5-3.69-6.71-2-6.28-4.13S26.066,0,26.066,0Z" transform="translate(49.244 12.36)" fill="#fff" stroke="#263238" stroke-linecap="round" stroke-linejoin="round" stroke-miterlimit="10" stroke-width="0.75"/>
      <path id="Path-38" data-name="Path" d="M2.49,0,0,1.72" transform="translate(65.17 34.19)" fill="#fff" stroke="#263238" stroke-linecap="round" stroke-linejoin="round" stroke-miterlimit="10" stroke-width="0.75"/>
      <path id="Path-39" data-name="Path" d="M0,0S.78,2.06,4,2.75" transform="translate(66.71 35.31)" fill="#fff" stroke="#263238" stroke-linecap="round" stroke-linejoin="round" stroke-miterlimit="10" stroke-width="0.75"/>
      <path id="Path-40" data-name="Path" d="M.559,0S-.9,4,.9,4.9s2.58-2.83,2.58-2.83Z" transform="translate(66.241 35.91)"/>
      <path id="Path-41" data-name="Path" d="M1.99,3.83C1.89,5.92,1.36,7.59.81,7.56S-.09,5.82.02,3.73.65-.02,1.2,0,2.1,1.74,1.99,3.83Z" transform="translate(74.52 24.05)" fill="#fff" stroke="#263238" stroke-linecap="round" stroke-linejoin="round" stroke-miterlimit="10" stroke-width="0.75"/>
      <path id="Path-42" data-name="Path" d="M17.54.5H0" transform="translate(57 25.27)" fill="#fff" stroke="#263238" stroke-linecap="round" stroke-linejoin="round" stroke-miterlimit="10" stroke-width="0.75"/>
      <path id="Path-43" data-name="Path" d="M0,2.2A3.11,3.11,0,0,1,1.89.129c1.47-.43,1.72.35,1.72.35" transform="translate(73.33 21.251)" fill="#fff" stroke="#263238" stroke-linecap="round" stroke-linejoin="round" stroke-miterlimit="10" stroke-width="0.75"/>
      <path id="Path-44" data-name="Path" d="M2.563,1.6,55.863,0s3.32,36.9,2.52,37.71-53.64,3-53.64,3S.653,41,.073,39.17,2.563,1.6,2.563,1.6Z" transform="translate(11.137 167.53)" fill="#fff" stroke="#263238" stroke-linecap="round" stroke-linejoin="round" stroke-miterlimit="10" stroke-width="0.75"/>
      <path id="Path-45" data-name="Path" d="M4.232,0S-.768,36.56.1,37.6s5,1.79,6.31,1.49C7.612,38.87,4.232,0,4.232,0Z" transform="translate(9.468 169.13)" fill="#fff" stroke="#263238" stroke-linecap="round" stroke-linejoin="round" stroke-miterlimit="10" stroke-width="0.75"/>
      <path id="Path-46" data-name="Path" d="M3.832,2.412C.9,4.2-.518,7.222.172,9.632s.91,2.64,2.75,3,10.08-.92,19-2.41,10.21-1.83,11-3.09,2.18-2.52-6.65-4-9.63-3.1-9.63-3.1S8.532-.458,3.832,2.412Z" transform="translate(25.568 266.898)" fill="#adc7f7" stroke="#263238" stroke-linecap="round" stroke-linejoin="round" stroke-miterlimit="10" stroke-width="0.75"/>
      <path id="Path-47" data-name="Path" d="M31.92,0c-.6,1.23-2.48,3.44-8.39,4.15C17.28,4.9,5.97,6.03,0,6.54c.41.85.91,1,2.16,1.28,1.83.34,10.08-.92,19-2.41s10.21-1.83,11-3.09C32.67,1.56,33.36.8,31.92,0Z" transform="translate(26.33 271.69)" fill="#263238" stroke="#263238" stroke-linecap="round" stroke-linejoin="round" stroke-miterlimit="10" stroke-width="0.75"/>
      <path id="Path-48" data-name="Path" d="M15.758,0s9.17,4.36,14.22,5.39,6.3,1.15,5.73,2.75-.69,2.07-8.37,3.9-16.05-.23-19.72-.92-4.81.35-6.41-.34S.058,6.65.058,6.65Z" transform="translate(29.462 272.4)" fill="#adc7f7" stroke="#263238" stroke-linecap="round" stroke-linejoin="round" stroke-miterlimit="10" stroke-width="0.75"/>
      <path id="Path-49" data-name="Path" d="M27.272,3.51c6.45-1.54,7.56-2.11,8.09-3.21-7,3-16.28,1.76-23.36.95C7.442.72,3.092.25,0,0a2.57,2.57,0,0,0,1.17,2.25c1.6.69,2.75-.34,6.41.34S19.592,5.34,27.272,3.51Z" transform="translate(29.528 280.93)" fill="#263238" stroke="#263238" stroke-linecap="round" stroke-linejoin="round" stroke-miterlimit="10" stroke-width="0.75"/>
      <path id="Path-50" data-name="Path" d="M13.2.439s-1.61,13.06-4.82,18.68-7.56,9.51-8.25,17.65,1.6,41.38,1.83,44.25-1,3.78.23,5.61a31.9,31.9,0,0,0,2.52,3.21l3.79-3.32s2.75-8.83,2.06-25.68-.57-28.19,2.41-39.43,3.55-14.21,2.17-18.57S13.2.439,13.2.439Z" transform="translate(21.711 187.721)" fill="#263238" stroke="#263238" stroke-linecap="round" stroke-linejoin="round" stroke-miterlimit="10" stroke-width="0.75"/>
      <path id="Path-51" data-name="Path" d="M1.1,1.92s3.78,7.13,4.64,9,2.83,23.56,1.29,30.78-7.54,19.49-7,30.26,1,39.32,1,39.66a13,13,0,0,0,0,5.16c.57,3.09,2.29,4,2.29,4a57.4,57.4,0,0,1,9.05-3.32c5.62-1.61,7.22-3.9,7.22-3.9a41.341,41.341,0,0,0-1.72-4.36c-.8-1.6-2.17-4.12-1.94-4.93s1.72-27.16,4.7-35.87,4.69-17.88,7.22-25.91,8.56-29.54,8.56-35.04V.69L.654,0Z" transform="translate(26.586 159.16)" fill="#263238" stroke="#263238" stroke-linecap="round" stroke-linejoin="round" stroke-miterlimit="10" stroke-width="0.75"/>
      <path id="Path-52" data-name="Path" d="M3.839,0c-1,3.07-2.11,6.51-2.95,9.24-2,6.5,0,43,0,43a68.7,68.7,0,0,1,.19,8c-.19,3.31,0,4.62.82,5.51" transform="translate(26.801 212.44)" fill="none" stroke="#fff" stroke-linecap="round" stroke-linejoin="round" stroke-miterlimit="10" stroke-width="0.75"/>
      <path id="Path-53" data-name="Path" d="M1.73,0S.99,2.21,0,5.24" transform="translate(31.46 204.68)" fill="none" stroke="#fff" stroke-linecap="round" stroke-linejoin="round" stroke-miterlimit="10" stroke-width="0.75"/>
      <path id="Path-54" data-name="Path" d="M3.42,0s4,1.37,10,6.62,12.12,10.23,10.83,12-3.7,8-3.7,8-2.23-3.7-8.85-9S0,7.56,0,7.56,2.73,1.12,3.42,0Z" transform="translate(40 41.76)" fill="#fff" stroke="#263238" stroke-linecap="round" stroke-linejoin="round" stroke-miterlimit="10" stroke-width="0.75"/>
      <path id="Path-55" data-name="Path" d="M20.09,0S7.28,9.11,5.09,17.88,1.99,30.95,2.17,47.71s1.2,27.34,1.2,28.11S0,107.72,0,108.06s6,5.85,22.78,6.19a202.13,202.13,0,0,0,34-2.66L49.47,51.24s-2.84-25.71-5.76-30.52S20.09,0,20.09,0Z" transform="translate(18 50.18)" fill="#adc7f7" stroke="#263238" stroke-linecap="round" stroke-linejoin="round" stroke-miterlimit="10" stroke-width="0.75"/>
      <path id="Path-56" data-name="Path" d="M0,.52S10.66,2.67,18,0" transform="translate(45.48 133.31)" fill="none" stroke="#263238" stroke-linecap="round" stroke-linejoin="round" stroke-miterlimit="10" stroke-width="0.75"/>
      <path id="Path-57" data-name="Path" d="M0,.51S10.66,2.66,18,0" transform="translate(45.48 136.49)" fill="none" stroke="#263238" stroke-linecap="round" stroke-linejoin="round" stroke-miterlimit="10" stroke-width="0.75"/>
      <path id="Path-58" data-name="Path" d="M1.6,0,4.24,1.26,2.63,13.18,0,12.72,1.6,0Z" transform="translate(108.38 119.96)" fill="#fff" stroke="#263238" stroke-linecap="round" stroke-linejoin="round" stroke-miterlimit="10" stroke-width="0.75"/>
      <path id="Path-59" data-name="Path" d="M14.246,0a8.72,8.72,0,0,0-3.89,2.52c-1.72,2-11,13.52-10.32,18.57s12.75,23.49,16.75,29.23a41.76,41.76,0,0,0,20.27,15.82c10.09,3.67,36.34,1.84,36.34,1.84l1.39-14.23s-14.32-4.58-24.18-7.56a122.12,122.12,0,0,1-16.05-6s-2.29-5.62-3.9-6.53-1.83-1.49-1.83-1.49-3.09-16.85-4.7-22.36-3.78-6.87-3.78-6.87" transform="translate(35.214 65.86)" fill="#adc7f7" stroke="#263238" stroke-linecap="round" stroke-linejoin="round" stroke-miterlimit="10" stroke-width="0.75"/>
      <path id="Path-60" data-name="Path" d="M19.172,0A100.08,100.08,0,0,1,6.452,6.19C.6,8.37-.778,9.19.372,10.43s11.12,2.18,16.73,1,7.8-1.94,10.32-1.83,6,.8,7.22-.92,1.72-2.06.8-4.93S19.172,0,19.172,0Z" transform="translate(164.288 266.65)" fill="#adc7f7" stroke="#263238" stroke-linecap="round" stroke-linejoin="round" stroke-miterlimit="10" stroke-width="0.75"/>
      <path id="Path-61" data-name="Path" d="M17.081,5.8c5.62-1.14,7.8-1.94,10.32-1.83s6,.8,7.22-.92c.9-1.23,1.39-1.76,1.26-3-4.08-.34-11.95.95-21.33,3a38.89,38.89,0,0,1-14.51.74.93.93,0,0,0,.31,1C1.5,6.034,11.471,6.954,17.081,5.8Z" transform="translate(164.309 272.306)" fill="#263238" stroke="#263238" stroke-linecap="round" stroke-linejoin="round" stroke-miterlimit="10" stroke-width="0.75"/>
      <path id="Path-62" data-name="Path" d="M17.011,0a81.52,81.52,0,0,1-7.33,7c-3.79,3.09-10.32,7.34-9.63,9.17s5.38,3.55,15.24,1a57.44,57.44,0,0,0,17.65-8.25,4.42,4.42,0,0,0,2.75-1.72c.81-1.38-.11-3.55-.11-3.55Z" transform="translate(188.109 274.22)" fill="#adc7f7" stroke="#263238" stroke-linecap="round" stroke-linejoin="round" stroke-miterlimit="10" stroke-width="0.75"/>
      <path id="Path-63" data-name="Path" d="M14.26,13.27A57.44,57.44,0,0,0,31.91,5.02,4.42,4.42,0,0,0,34.66,3.3a4.32,4.32,0,0,0,0-3.3C20.4,10.79,7.06,13,0,13.32,1.86,14.6,6.44,15.27,14.26,13.27Z" transform="translate(189.14 278.14)" fill="#263238" stroke="#263238" stroke-linecap="round" stroke-linejoin="round" stroke-miterlimit="10" stroke-width="0.75"/>
      <path id="Path-64" data-name="Path" d="M19.916,3.66s-6.07.81-10.43-.8S1.006,0,1.006,0s-2.41,31.29.23,43.9,9.63,28,9.74,31.52a75,75,0,0,0,1.49,12.6c.8,3.21,4.7,28,4.93,30.72a18.63,18.63,0,0,1,0,4.13s-2.75.92-2.75,1.72v5.84a38.24,38.24,0,0,0,7.11,2.87c4.24,1.26,10.2,2.29,10.2,2.29a62.739,62.739,0,0,0,1.14-7c0-1.6-1-5.84-1-8.14s.58-29.8.58-29.8,5.61,23.5,5.61,31.29-.11,10.32-.11,10.32-2.52-.8-2.52.92-.12,5.84-.12,5.84,8.94,2.29,13.18,3.55a16.84,16.84,0,0,0,7.8.46s2.29-8.71,2.06-11.57-3.09-5.28-3.09-6.88,1.49-17.42-.69-31.18-7.91-20.06-8.14-26.82,1-31.06,1.15-35,4.12-12.15,4.7-15.82.11-14.55.11-14.55S26.916,4.92,19.916,3.66Z" transform="translate(168.084 137.02)" fill="#35558f" stroke="#263238" stroke-linecap="round" stroke-linejoin="round" stroke-miterlimit="10" stroke-width="0.75"/>
      <path id="Path-65" data-name="Path" d="M0,0,6.19,4.01" transform="translate(177.04 156.39)" fill="none" stroke="#fff" stroke-linecap="round" stroke-linejoin="round" stroke-miterlimit="10" stroke-width="0.75"/>
      <path id="Path-66" data-name="Path" d="M0,0C.86,2.23,1.39,3.52,1.39,3.52" transform="translate(199.38 224.16)" fill="none" stroke="#fff" stroke-linecap="round" stroke-linejoin="round" stroke-miterlimit="10" stroke-width="0.75"/>
      <path id="Path-67" data-name="Path" d="M0,0S4.12,24.18,9.05,39.31c2.53,7.76,5.24,15.2,7.28,20.59" transform="translate(181.17 159.37)" fill="none" stroke="#fff" stroke-linecap="round" stroke-linejoin="round" stroke-miterlimit="10" stroke-width="0.75"/>
      <path id="Path-68" data-name="Path" d="M0,6.32c.11.34.68,12.84.68,12.84l32.9-3L32.9,0Z" transform="translate(134.63 116.62)" fill="#35558f" stroke="#263238" stroke-linecap="round" stroke-linejoin="round" stroke-miterlimit="10" stroke-width="0.75"/>
      <path id="Path-69" data-name="Path" d="M25.94,6.316s-7.45,2.63-8.94,4.47S6.68,43.676,3.78,52.846,0,89.756,0,89.756a31.47,31.47,0,0,0,4.93,1.38,25.27,25.27,0,0,0,5,.34s9.63-32.44,14.33-43.55,12.6-27.05,15.59-33.24,5.61-7.34,5.27-10.32S43.4.236,41.68.006,25.94,6.316,25.94,6.316Z" transform="translate(173.22 51.154)" fill="#fff" stroke="#263238" stroke-linecap="round" stroke-linejoin="round" stroke-miterlimit="10" stroke-width="0.75"/>
      <path id="Path-70" data-name="Path" d="M25.9,6.316s-7.45,2.63-8.94,4.47S6.65,43.676,3.81,52.846,0,89.756,0,89.756a31.47,31.47,0,0,0,4.93,1.38,26.17,26.17,0,0,0,5,.34s9.63-32.44,14.33-43.56,12.61-27,15.59-33.24,5.61-7.33,5.27-10.31S43.4.236,41.68.006,25.9,6.316,25.9,6.316Z" transform="translate(174.19 50.244)" fill="#adc7f7" stroke="#263238" stroke-linecap="round" stroke-linejoin="round" stroke-miterlimit="10" stroke-width="0.75"/>
      <path id="Path-71" data-name="Path" d="M28.806,8.13a195,195,0,0,0-12.26,24.88c-4.7,12.15-8.48,23-13.3,39.2a82.23,82.23,0,0,0-2.86,30.83s2.29,3.9,15.82,4.36,30.49-3.9,30.49-3.9-2.3-13.76-2.53-21.89,6.31-36.68,9.06-44.13,8.71-14.9,3-22.12S36.856,0,36.856,0,30.3,5.61,28.806,8.13Z" transform="translate(181.354 52.2)" fill="#35558f" stroke="#263238" stroke-linecap="round" stroke-linejoin="round" stroke-miterlimit="10" stroke-width="0.75"/>
      <path id="Path-72" data-name="Path" d="M33.24.484s-3.55,4.47-6.76,14S17.31,49.334,14.56,60.1s-4.13,34.73-4.13,34.73-1.49-.11-4.58-.11A13.85,13.85,0,0,1,0,93.234s2.18-23.5,4.13-34.5,7.68-30.61,8.71-38.29,1.37-9.62,2.75-10.66S27.74,2.224,29.92.734,33.24.484,33.24.484Z" transform="translate(161.45 59.736)" fill="#35558f" stroke="#263238" stroke-linecap="round" stroke-linejoin="round" stroke-miterlimit="10" stroke-width="0.75"/>
      <path id="Path-73" data-name="Path" d="M34.88,0s-6.53,12.95-8.25,15.36a31.17,31.17,0,0,0-2.64,4.35l-5.73,2.18,2.29,3.67S8.98,46.28,6,53.18,0,67.51,0,67.51" transform="translate(186.86 54.72)" fill="none" stroke="#fff" stroke-linecap="round" stroke-linejoin="round" stroke-miterlimit="10" stroke-width="0.75"/>
      <path id="Path-74" data-name="Path" d="M.625,0C.415,2.29.375,3.2.375,3.2" transform="translate(174.025 113.07)" fill="none" stroke="#fff" stroke-linecap="round" stroke-linejoin="round" stroke-miterlimit="10" stroke-width="0.75"/>
      <path id="Path-75" data-name="Path" d="M13.8,0,7.38,9.86l1.49,2.29L5.31,16.51S1.53,32.21.5,40.69C.3,42.34.13,43.78,0,45.03" transform="translate(175.05 64.23)" fill="none" stroke="#fff" stroke-linecap="round" stroke-linejoin="round" stroke-miterlimit="10" stroke-width="0.75"/>
      <path id="Path-76" data-name="Path" d="M1.26,0,0,6.07,6.53,1.72,1.26,0Z" transform="translate(188.85 59.99)" fill="#fff" stroke="#263238" stroke-linecap="round" stroke-linejoin="round" stroke-miterlimit="10" stroke-width="0.75"/>
      <path id="Path-77" data-name="Path" d="M5.5,0C5.38.34,0,4.81,0,4.81L6.07,7.33,7.33,2.4Z" transform="translate(190.11 55.18)" fill="#fff" stroke="#263238" stroke-linecap="round" stroke-linejoin="round" stroke-miterlimit="10" stroke-width="0.75"/>
      <path id="Path-78" data-name="Path" d="M13.3,2.308a15.11,15.11,0,0,0-5.85,6.76c-2.06,4.7-3.66,6.65-3.2,8.14a15.83,15.83,0,0,1,.68,3.1c0,.34-4.81,4.93-4.93,6.3s3.1,3.9,3.1,3.9.34,7.91.34,8.6.23,4.24,3.56,5.15a14.3,14.3,0,0,0,6.87-.11l2.18,11.23s15.25-9.4,16.85-10.2,3.55-1.83,3.67-3.09-.92-8.26-.92-8.26,8.14-7.45,8-16.16-4.78-14.21-13.27-16.8S13.3,2.308,13.3,2.308Z" transform="translate(180.127 7.132)" fill="#fff" stroke="#263238" stroke-linecap="round" stroke-linejoin="round" stroke-miterlimit="10" stroke-width="0.75"/>
      <path id="Path-79" data-name="Path" d="M32.25,17.732c-.11-8.71-4.81-14.21-13.29-16.85S1.88,2.372,1.88,2.372A12.1,12.1,0,0,0,0,3.762c2.8-.5,7.41-.85,10.71,1.25,5,3.21,1.83,6.42.11,8.14s-2.06,2.4-.8,4,3.67,1.6,3.09,3.09-2.29,3.56-.91,4.13,2.63-.69,3.21-2.41,3.43-1.72,4.58,1.84a6.79,6.79,0,0,1-2.41,7.45,4.72,4.72,0,0,1-3.21.91,29,29,0,0,0,6.19,2.3,11.58,11.58,0,0,0,3.71-.29v-.29S32.37,26.442,32.25,17.732Z" transform="translate(191.55 7.068)" fill="#263238" stroke="#263238" stroke-linecap="round" stroke-linejoin="round" stroke-miterlimit="10" stroke-width="0.75"/>
      <path id="Path-80" data-name="Path" d="M1.26,1.6c0,.89-.28,1.61-.63,1.61S0,2.49,0,1.6.28,0,.63,0,1.26.72,1.26,1.6Z" transform="translate(189.19 27.67)"/>
      <path id="Path-81" data-name="Path" d="M0,1.5S.46-.114,3,.006s2.64,1.95,2.64,1.95" transform="translate(187.47 22.964)" fill="#fff" stroke="#263238" stroke-linecap="round" stroke-linejoin="round" stroke-miterlimit="10" stroke-width="0.75"/>
      <path id="Path-82" data-name="Path" d="M0,3.33a4.63,4.63,0,0,0,4.24-.57C6.07,1.27,4.58,0,4.58,0" transform="translate(183.23 34.31)" fill="#fff" stroke="#263238" stroke-linecap="round" stroke-linejoin="round" stroke-miterlimit="10" stroke-width="0.75"/>
      <path id="Path-83" data-name="Path" d="M1.337,3.091s6.07-3,8.82-3.09,5.62,4.62,4.49,8.62-2.4,6-6.3,7.57S.777,17.451.1,14.811s2.4-6.41,3.89-7.1,2.64-.8,2.41.46-.92,2.17,1.95,1.6,4.47-1.37,4.58-4.47-1-4.24-4-3.78-7.45,2.86-7.45,2.86Z" transform="translate(182.353 36.379)" fill="#263238" stroke="#263238" stroke-linecap="round" stroke-linejoin="round" stroke-miterlimit="10" stroke-width="0.75"/>
      <path id="Path-84" data-name="Path" d="M0,2.18S4.82,1.95,6.54,0" transform="translate(186.09 39.7)" fill="#fff" stroke="#263238" stroke-linecap="round" stroke-linejoin="round" stroke-miterlimit="10" stroke-width="0.75"/>
      <path id="Path-85" data-name="Path" d="M2.3,0A6.33,6.33,0,0,1,0,4.93" transform="translate(203.17 39.13)" fill="#fff" stroke="#263238" stroke-linecap="round" stroke-linejoin="round" stroke-miterlimit="10" stroke-width="0.75"/>
      <path id="Path-86" data-name="Path" d="M0,14.622,3.33,22.3s12.6-9.4,15.7-13.07,5.5-5.5,3.78-8S18.57.772,18.11,1,0,14.622,0,14.622Z" transform="translate(196.18 47.888)" fill="#fff" stroke="#263238" stroke-linecap="round" stroke-linejoin="round" stroke-miterlimit="10" stroke-width="0.75"/>
      <path id="Path-87" data-name="Path" d="M29.61,32.25A120.62,120.62,0,0,1,26.18,18.1c-.69-4.39-1-8.86-1-8.86A49.52,49.52,0,0,1,9.17,5C1.61,1.34,0,0,0,0S10.2,33.24,12.27,40.23s2.52,8.48,2.52,8.48A42.9,42.9,0,0,0,25.1,52.27a54.82,54.82,0,0,0,8.6.91Z" transform="translate(141.39 98)" fill="#f77d0e" stroke="#263238" stroke-linecap="round" stroke-linejoin="round" stroke-miterlimit="10" stroke-width="0.75"/>
      <path id="Path-88" data-name="Path" d="M25.58,4.29a27.9,27.9,0,0,1-7-2.29A17,17,0,0,0,13.2,0h-.46l1.37,4.24a24.62,24.62,0,0,1-5.15.58C6.21,4.82.47,3.9.25,4.24A7.83,7.83,0,0,0,.02,6.76c0,.81,4.12,5.74,6.53,7.46s4.58,2.86,6.76,2.86,13.87-1.6,13.87-1.6Z" transform="translate(156.85 125.96)" fill="#fff" stroke="#263238" stroke-linecap="round" stroke-linejoin="round" stroke-miterlimit="10" stroke-width="0.75"/>
      <path id="Path-89" data-name="Path" d="M34.61,17.5s.57,12.84.92,22.12.92,10.09.92,10.09-25.68,9.63-29.58,10.43S0,61.857,0,61.857l1.72,12.49a71.88,71.88,0,0,0,25-2.29c12.5-3.67,31.75-7.34,32.1-9.05s0-6.88,0-8-.35-25.79-.35-36.79.8-13.53-.57-15.82-8.37-3.44-12.38-1.15" transform="translate(181.17 68.053)" fill="#35558f" stroke="#263238" stroke-linecap="round" stroke-linejoin="round" stroke-miterlimit="10" stroke-width="0.75"/>
      <path id="Path-90" data-name="Path" d="M0,35.66l21.23-7.37L19.35,0" transform="translate(196.39 89.47)" fill="none" stroke="#fff" stroke-linecap="round" stroke-linejoin="round" stroke-miterlimit="10" stroke-width="0.75"/>
      <path id="Path-91" data-name="Path" d="M0,1.06,3.07,0" transform="translate(190.43 126.14)" fill="none" stroke="#fff" stroke-linecap="round" stroke-linejoin="round" stroke-miterlimit="10" stroke-width="0.75"/>
      <path id="Path-92" data-name="Path" d="M0,6.294s8-10,15.95-4.79" transform="translate(223.1 68.916)" fill="none" stroke="#fff" stroke-linecap="round" stroke-linejoin="round" stroke-miterlimit="10" stroke-width="0.75"/>
      <path id="Path-93" data-name="Path" d="M0,0S5.28,3.55,8.83,4.13" transform="translate(157.32 131.4)" fill="none" stroke="#263238" stroke-linecap="round" stroke-linejoin="round" stroke-miterlimit="10" stroke-width="0.75"/>
      <path id="Path-94" data-name="Path" d="M0,0A17.75,17.75,0,0,0,5.27,3.21l2.41.68" transform="translate(158.24 134.84)" fill="none" stroke="#263238" stroke-linecap="round" stroke-linejoin="round" stroke-miterlimit="10" stroke-width="0.75"/>
      <path id="Path-95" data-name="Path" d="M0,.04A15.83,15.83,0,0,0,4.24.96" transform="translate(164 140.53)" fill="none" stroke="#263238" stroke-linecap="round" stroke-linejoin="round" stroke-miterlimit="10" stroke-width="0.75"/>
      <path id="Path-96" data-name="Path" d="M29.23,56.029s-1.58-16.15-3.44-27.53c-1-6.29-4.81-11.65-8.79-16.45-3.29-4-8.26-7.66-11-11.91C5.05-1.321.07,9.239.06,9.249c-1,2.25,10.85,9.38,12.45,11,2.1,2.1,4,4.58,5.91,6.84.87,1,3.16,4.81,4.47,5.13l2.12.53-1.59,4.77Z" transform="translate(37.43 41.621)" fill="#adc7f7" stroke="#263238" stroke-linecap="round" stroke-linejoin="round" stroke-miterlimit="10" stroke-width="0.75"/>
    </g>
  </g>
</svg>
