<svg width="402" height="316" viewBox="0 0 402 316" fill="none" xmlns="http://www.w3.org/2000/svg">
<path d="M376.881 189.81C400.601 152.67 411.081 97.37 388.881 57.09C368.321 19.94 324.001 2.00004 283.171 1.00004C247.851 0.140041 219.811 10.59 192.251 31.11C178.041 41.7 163.681 53.03 146.571 59.2C133.211 64.02 119.471 67.34 105.691 71.02C55.8607 84.35 25.1507 129.56 31.8407 178.17C37.0007 215.53 66.0007 250.28 103.001 264.16C131.691 274.92 161.841 266.97 189.561 257.57C204.501 252.5 219.561 247.26 235.331 244.9C250.581 242.61 265.331 245.47 280.431 243.82C317.641 239.76 356.001 222.54 376.881 189.81Z" fill="#ADC7F7"/>
<path opacity="0.7" d="M376.881 189.81C400.601 152.67 411.081 97.37 388.881 57.09C368.321 19.94 324.001 2.00004 283.171 1.00004C247.851 0.140041 219.811 10.59 192.251 31.11C178.041 41.7 163.681 53.03 146.571 59.2C133.211 64.02 119.471 67.34 105.691 71.02C55.8607 84.35 25.1507 129.56 31.8407 178.17C37.0007 215.53 66.0007 250.28 103.001 264.16C131.691 274.92 161.841 266.97 189.561 257.57C204.501 252.5 219.561 247.26 235.331 244.9C250.581 242.61 265.331 245.47 280.431 243.82C317.641 239.76 356.001 222.54 376.881 189.81Z" fill="white"/>
<path d="M388.651 207.99H384.421H192.941H188.711V216.47H192.941V302.66H384.421V216.47H388.651V207.99Z" fill="#ADC7F7"/>
<path opacity="0.5" d="M388.651 207.99H384.421H192.941H188.711V216.47H192.941V302.66H384.421V216.47H388.651V207.99Z" fill="white"/>
<path fill-rule="evenodd" clip-rule="evenodd" d="M250.29 253H198.07V225.12H250.29V253ZM249.23 226.15H199.13V252H249.23V226.15Z" fill="white"/>
<path fill-rule="evenodd" clip-rule="evenodd" d="M315.152 253H262.922V225.12H315.152V253ZM314.112 226.18H264.002V252H314.112V226.18Z" fill="white"/>
<path fill-rule="evenodd" clip-rule="evenodd" d="M327.781 253V225.12H380.001V253H327.781ZM328.841 252H378.941V226.18H328.841V252Z" fill="white"/>
<path fill-rule="evenodd" clip-rule="evenodd" d="M250.29 290.48H198.07V262.57H250.29V290.48ZM249.23 263.63H199.13V289.42H249.23V263.63Z" fill="white"/>
<path fill-rule="evenodd" clip-rule="evenodd" d="M315.152 290.48H262.922V262.57H315.152V290.48ZM314.112 263.63H264.002V289.42H314.112V263.63Z" fill="white"/>
<path fill-rule="evenodd" clip-rule="evenodd" d="M380.001 290.48H327.781V262.57H380.001V290.48ZM378.941 263.63H328.841V289.42H378.941V263.63Z" fill="white"/>
<ellipse cx="224.742" cy="239.43" rx="8.48" ry="3.18" fill="white"/>
<ellipse cx="289.281" cy="239.43" rx="8.48" ry="3.18" fill="white"/>
<ellipse cx="355.691" cy="239.43" rx="8.48" ry="3.18" fill="white"/>
<path d="M224.742 273.7C220.062 273.7 216.262 275.12 216.262 276.88C216.262 278.64 220.062 280.05 224.742 280.05C229.422 280.05 233.222 278.63 233.222 276.88C233.222 275.13 229.422 273.7 224.742 273.7Z" fill="white"/>
<path d="M289.281 273.7C284.601 273.7 280.801 275.12 280.801 276.88C280.801 278.64 284.601 280.05 289.281 280.05C293.961 280.05 297.761 278.63 297.761 276.88C297.761 275.13 294.001 273.7 289.281 273.7Z" fill="white"/>
<path d="M355.689 273.7C351.009 273.7 347.219 275.12 347.219 276.88C347.219 278.64 351.009 280.05 355.689 280.05C360.369 280.05 364.169 278.63 364.169 276.88C364.169 275.13 360.379 273.7 355.689 273.7Z" fill="white"/>
<path fill-rule="evenodd" clip-rule="evenodd" d="M162.903 203.925C163.698 202.764 164.466 201.643 165.182 200.58C170.812 192.24 173.362 190.45 172.452 196.1C171.542 201.75 166.402 206.43 160.052 212.1C155.022 216.61 152.292 223.11 151.372 225.61C150.032 230.63 148.662 235.87 147.372 241.05C149.029 236.042 151.503 231.342 154.692 227.14C161.722 217.98 170.002 211.28 169.892 215.28C169.817 218.003 166.744 221.087 162.765 225.081L162.765 225.081C160.898 226.955 158.832 229.029 156.782 231.36C152.906 235.802 149.391 240.548 146.272 245.55C146.2 245.886 146.124 246.192 146.049 246.496L146.049 246.497C145.999 246.7 145.95 246.902 145.902 247.11C148.802 241.85 153.352 237.59 157.802 233.59C158.294 233.168 158.856 232.592 159.457 231.978L159.457 231.977L159.457 231.977C160.833 230.569 162.409 228.956 163.802 228.51C168.322 227.07 166.372 232.89 164.892 234.51C162.646 236.97 159.974 238.988 157.309 241.002C154.242 243.319 151.183 245.63 148.792 248.6C147.116 250.7 145.611 252.93 144.292 255.27C143.982 257.09 143.742 258.79 143.552 260.38C145.273 258.757 147.076 257.222 148.952 255.78C152.996 253.054 155.778 249.588 158.656 246.002C159.663 244.747 160.682 243.478 161.772 242.22C163.032 240.77 165.202 238.99 167.202 238.9C170.012 238.77 170.922 241.79 170.122 244.14C167.935 250.593 161.766 252.967 155.715 255.296C152.604 256.493 149.524 257.679 147.032 259.4C145.694 260.26 144.456 261.266 143.342 262.4C143.047 265.414 142.966 268.445 143.102 271.47H159.812V278.47H154.812L150.762 303.36H117.232L113.232 278.47H108.232V271.47H133.462C132.302 270.08 131.082 268.56 129.832 266.96L124.522 267.12C124.522 267.12 106.112 267.93 99.3415 264.29C92.5715 260.65 98.6115 257.15 105.072 259C107.813 259.785 111.682 261.276 115.443 262.726L115.444 262.726C120.545 264.692 125.448 266.582 127.072 266.53L129.452 266.46C128.132 264.76 126.822 262.97 125.562 261.16C120.485 259.905 115.498 258.315 110.632 256.4C109.448 255.934 108.224 255.488 106.985 255.036C102.667 253.461 98.1752 251.823 94.6315 249.08C93.7575 248.498 93.0947 247.649 92.7415 246.66C92.5054 245.96 92.5922 245.191 92.9784 244.562C93.3647 243.932 94.0106 243.507 94.7415 243.4C99.5915 242.09 104.302 245.4 107.742 248.35C110.728 250.872 113.907 253.156 117.252 255.18C120.232 257.04 122.912 258.76 124.732 259.94C123.392 257.95 122.122 255.95 121.122 254.03C120.246 252.411 119.424 250.856 118.622 249.338L118.621 249.336L118.62 249.334L118.502 249.11C114.536 244.245 109.364 240.504 103.502 238.26C100.86 237.248 98.4972 236.414 96.4621 235.696L96.4614 235.696L96.4612 235.696C89.9139 233.386 86.762 232.274 88.6615 230.26C91.1515 227.62 98.8415 228.16 105.432 234.11C109.493 237.658 113.262 241.527 116.702 245.68C114.732 241.89 112.902 238.28 111.082 234.59C108.765 230.78 105.512 227.626 101.632 225.43C99.437 224.24 96.4596 222.971 93.5577 221.734L93.5577 221.733C87.5076 219.154 81.7858 216.714 84.1715 215.43C87.7015 213.53 96.2215 215.83 102.022 221.29C104.967 224.248 107.469 227.616 109.452 231.29C108.182 228.68 106.882 225.99 105.522 223.12L105.289 222.639L105.289 222.639L105.288 222.637C104.768 221.561 104.225 220.437 103.652 219.29C103.57 219.179 103.492 219.062 103.413 218.943L103.413 218.943C103.356 218.858 103.3 218.773 103.242 218.69C100.833 215.318 97.4417 212.772 93.5315 211.4C91.1212 210.623 88.5269 210.161 86.2069 209.749C81.5391 208.918 77.9823 208.285 79.2715 205.68C81.2015 201.78 93.1015 205.53 97.0515 209.25C98.5152 210.702 99.8009 212.324 100.882 214.08C100.776 213.819 100.674 213.558 100.572 213.295C100.509 213.134 100.446 212.973 100.382 212.81C98.9115 209.94 97.4415 207.13 96.1215 204.63C93.5112 201.576 90.1954 199.204 86.4615 197.72C85.6325 197.362 84.7883 197.002 83.9452 196.642L83.9452 196.642C76.3367 193.395 68.8183 190.187 73.3915 188.9C77.4915 187.74 88.1215 193.12 93.9715 200.58L92.4315 197.71C89.1915 193.32 81.3415 183.22 74.8815 178.86C73.3315 177.825 71.7462 176.879 70.1667 175.937L70.1666 175.937C67.3033 174.228 64.4595 172.531 61.8815 170.34C61.4528 170.014 61.1096 169.588 60.8815 169.1C59.6699 165.922 66.7232 167.597 67.9763 167.894L67.9763 167.894L67.9763 167.894L68.0015 167.9C72.6936 169.13 76.9108 171.735 80.1115 175.38C82.8746 178.342 85.281 181.618 87.2815 185.14C88.5915 187.38 89.7615 189.68 90.8515 192.03C91.2893 192.967 91.6587 194.053 92.0346 195.158C92.2683 195.845 92.5047 196.539 92.7615 197.21C93.7215 198.76 94.6715 200.35 95.4915 201.84C94.2137 197.268 91.6905 190.995 89.2592 184.951C86.1918 177.325 83.2708 170.063 83.1815 167.04C83.0015 161.15 88.6515 169.95 91.8215 181.89C93.6039 188.685 94.9566 195.585 95.8715 202.55C96.2015 203.16 96.4915 203.75 96.7515 204.3C97.3215 205.51 98.3115 207.56 99.6215 210.23C96.8215 201.45 95.7015 191.01 97.4415 189.72C99.9415 187.89 100.842 192.43 100.842 200.89C100.842 207.54 102.942 215.55 103.842 218.67C105.422 221.79 107.192 225.24 109.072 228.87C107.451 223.688 106.386 216.637 105.461 210.508L105.461 210.508C105.256 209.15 105.057 207.837 104.862 206.6C103.282 196.66 103.952 193.56 107.172 198.33C110.392 203.1 109.832 210.04 109.062 218.51C108.452 225.23 110.932 231.86 111.932 234.31C114.362 238.88 116.932 243.64 119.532 248.31C117.323 243.52 115.924 238.397 115.392 233.15C114.262 221.65 115.742 211.1 118.392 214.1C120.195 216.141 120.053 220.488 119.87 226.122C119.784 228.769 119.689 231.7 119.782 234.81C119.986 240.7 120.654 246.565 121.782 252.35L122.582 253.74C121.372 248.86 121.442 243.74 121.802 238.74C121.272 236.82 121.462 235.6 122.092 235C122.11 234.565 122.117 234.085 122.124 233.583C122.154 231.594 122.189 229.255 122.932 227.93C125.252 223.79 127.822 229.38 127.822 231.57C127.822 233.242 127.708 234.913 127.482 236.57C128.385 237.414 129.166 238.38 129.802 239.44C130.152 240.06 130.522 240.72 130.912 241.44C130.904 241.34 130.897 241.24 130.89 241.14C130.846 240.54 130.802 239.94 130.802 239.34C130.679 237.466 131.073 235.595 131.942 233.93C130.538 231.14 129.528 228.168 128.942 225.1C128.705 224.078 128.796 223.007 129.202 222.04C129.514 221.368 130.108 220.869 130.824 220.676C131.539 220.483 132.303 220.616 132.912 221.04C137.332 223.38 138.522 229.01 139.012 233.52C139.483 237.397 140.252 241.231 141.312 244.99C142.222 248.39 143.002 251.47 143.522 253.58C143.922 251.22 144.362 248.91 144.922 246.79C145.234 245.471 145.591 244.191 145.94 242.942L145.941 242.94C146.084 242.429 146.225 241.922 146.362 241.42C146.785 235.153 145.558 228.884 142.802 223.24C141.557 220.676 140.394 218.438 139.393 216.514C136.199 210.368 134.665 207.415 137.422 207.24C141.042 207.01 146.292 212.65 147.042 221.49C147.596 226.855 147.713 232.256 147.392 237.64C148.542 233.53 149.662 229.64 150.852 225.7C151.756 221.335 151.529 216.812 150.192 212.56C149.401 210.222 148.109 207.297 146.845 204.439C144.175 198.398 141.635 192.651 144.242 193.35C148.082 194.38 152.732 201.88 153.242 209.82C153.384 213.984 152.926 218.147 151.882 222.18C152.061 221.594 152.24 221.003 152.421 220.408L152.421 220.408L152.421 220.407C153.097 218.18 153.792 215.887 154.582 213.52L154.766 212.92C155.11 211.803 155.467 210.643 155.832 209.44C155.843 209.355 155.86 209.269 155.879 209.182C155.91 209.032 155.942 208.878 155.942 208.72C156.492 204.596 155.748 200.403 153.812 196.72C152.581 194.499 150.992 192.382 149.572 190.491C146.735 186.711 144.572 183.83 147.292 182.81C151.372 181.28 157.512 192.13 157.852 197.55C157.933 199.612 157.768 201.677 157.362 203.7L157.428 203.526L157.428 203.526L157.428 203.525C157.566 203.161 157.706 202.792 157.862 202.43C158.742 199.33 159.592 196.26 160.332 193.54C160.503 189.527 159.696 185.532 157.982 181.9C157.618 181.066 157.244 180.219 156.871 179.374L156.87 179.373C153.53 171.81 150.233 164.343 154.452 166.52C158.242 168.48 162.332 179.67 161.522 189.11C161.852 187.88 162.132 186.82 162.352 185.96C162.942 180.54 164.102 167.8 162.352 160.21C161.928 158.375 161.41 156.576 160.893 154.781C159.982 151.617 159.074 148.464 158.692 145.14C158.59 144.604 158.621 144.051 158.782 143.53C160.009 140.407 164.094 146.504 164.777 147.524L164.777 147.524L164.782 147.53C167.309 151.55 168.602 156.223 168.502 160.97C168.498 165.012 168.022 169.039 167.082 172.97C166.512 175.5 165.802 177.98 164.992 180.44C164.672 181.422 164.203 182.464 163.726 183.522C163.425 184.189 163.122 184.862 162.852 185.53C162.502 187.32 162.102 189.13 161.682 190.77C163.874 186.553 166.318 180.232 168.672 174.145L168.672 174.145L168.672 174.144C171.631 166.491 174.447 159.207 176.442 156.94C180.332 152.52 178.452 162.8 172.622 173.69C169.288 179.875 165.567 185.844 161.482 191.56C161.302 192.23 161.122 192.86 160.932 193.44C160.472 194.73 159.792 196.88 158.932 199.73C162.882 191.4 169.182 183.01 171.332 183.25C174.442 183.59 171.972 187.56 166.202 193.74C161.612 198.56 157.672 205.85 156.202 208.74C155.232 212.07 154.162 215.8 153.072 219.74C155.409 214.869 159.413 209.022 162.903 203.925ZM126.672 260.66C127.732 262.21 128.722 263.61 129.672 264.9C129.803 262.522 130.057 260.152 130.432 257.8C130.871 255.849 131.116 253.859 131.162 251.86C129.251 249.929 127.438 247.903 125.732 245.79C125.391 248.063 125.283 250.365 125.412 252.66C125.619 255.356 126.04 258.031 126.672 260.66ZM135.112 271.49C133.822 270.12 132.412 268.49 130.882 266.49C130.92 264.904 131.138 263.327 131.532 261.79C132.142 259.367 133.021 257.019 134.152 254.79C136.522 257.04 138.262 258.53 138.262 258.53L142.262 262.04C141.952 265.53 141.772 268.81 141.662 271.47L135.112 271.49ZM140.522 259.86L142.312 261.43C142.522 259.29 142.772 257.08 143.092 254.91C141.982 253.28 140.102 250.21 137.982 246.28C137.339 248.05 136.598 249.783 135.762 251.47C137.722 255.48 139.522 258.96 140.522 259.86Z" fill="#ADC7F7"/>
<path opacity="0.5" fill-rule="evenodd" clip-rule="evenodd" d="M162.903 203.925C163.698 202.764 164.466 201.643 165.182 200.58C170.812 192.24 173.362 190.45 172.452 196.1C171.542 201.75 166.402 206.43 160.052 212.1C155.022 216.61 152.292 223.11 151.372 225.61C150.032 230.63 148.662 235.87 147.372 241.05C149.029 236.042 151.503 231.342 154.692 227.14C161.722 217.98 170.002 211.28 169.892 215.28C169.817 218.003 166.744 221.087 162.765 225.081L162.765 225.081C160.898 226.955 158.832 229.029 156.782 231.36C152.906 235.802 149.391 240.548 146.272 245.55C146.2 245.886 146.124 246.192 146.049 246.496L146.049 246.497C145.999 246.7 145.95 246.902 145.902 247.11C148.802 241.85 153.352 237.59 157.802 233.59C158.294 233.168 158.856 232.592 159.457 231.978L159.457 231.977L159.457 231.977C160.833 230.569 162.409 228.956 163.802 228.51C168.322 227.07 166.372 232.89 164.892 234.51C162.646 236.97 159.974 238.988 157.309 241.002C154.242 243.319 151.183 245.63 148.792 248.6C147.116 250.7 145.611 252.93 144.292 255.27C143.982 257.09 143.742 258.79 143.552 260.38C145.273 258.757 147.076 257.222 148.952 255.78C152.996 253.054 155.778 249.588 158.656 246.002C159.663 244.747 160.682 243.478 161.772 242.22C163.032 240.77 165.202 238.99 167.202 238.9C170.012 238.77 170.922 241.79 170.122 244.14C167.935 250.593 161.766 252.967 155.715 255.296C152.604 256.493 149.524 257.679 147.032 259.4C145.694 260.26 144.456 261.266 143.342 262.4C143.047 265.414 142.966 268.445 143.102 271.47H159.812V278.47H154.812L150.762 303.36H117.232L113.232 278.47H108.232V271.47H133.462C132.302 270.08 131.082 268.56 129.832 266.96L124.522 267.12C124.522 267.12 106.112 267.93 99.3415 264.29C92.5715 260.65 98.6115 257.15 105.072 259C107.813 259.785 111.682 261.276 115.443 262.726L115.444 262.726C120.545 264.692 125.448 266.582 127.072 266.53L129.452 266.46C128.132 264.76 126.822 262.97 125.562 261.16C120.485 259.905 115.498 258.315 110.632 256.4C109.448 255.934 108.224 255.488 106.985 255.036C102.667 253.461 98.1752 251.823 94.6315 249.08C93.7575 248.498 93.0947 247.649 92.7415 246.66C92.5054 245.96 92.5922 245.191 92.9784 244.562C93.3647 243.932 94.0106 243.507 94.7415 243.4C99.5915 242.09 104.302 245.4 107.742 248.35C110.728 250.872 113.907 253.156 117.252 255.18C120.232 257.04 122.912 258.76 124.732 259.94C123.392 257.95 122.122 255.95 121.122 254.03C120.246 252.411 119.424 250.856 118.622 249.338L118.621 249.336L118.62 249.334L118.502 249.11C114.536 244.245 109.364 240.504 103.502 238.26C100.86 237.248 98.4972 236.414 96.4621 235.696L96.4614 235.696L96.4612 235.696C89.9139 233.386 86.762 232.274 88.6615 230.26C91.1515 227.62 98.8415 228.16 105.432 234.11C109.493 237.658 113.262 241.527 116.702 245.68C114.732 241.89 112.902 238.28 111.082 234.59C108.765 230.78 105.512 227.626 101.632 225.43C99.437 224.24 96.4596 222.971 93.5577 221.734L93.5577 221.733C87.5076 219.154 81.7858 216.714 84.1715 215.43C87.7015 213.53 96.2215 215.83 102.022 221.29C104.967 224.248 107.469 227.616 109.452 231.29C108.182 228.68 106.882 225.99 105.522 223.12L105.289 222.639L105.289 222.639L105.288 222.637C104.768 221.561 104.225 220.437 103.652 219.29C103.57 219.179 103.492 219.062 103.413 218.943L103.413 218.943C103.356 218.858 103.3 218.773 103.242 218.69C100.833 215.318 97.4417 212.772 93.5315 211.4C91.1212 210.623 88.5269 210.161 86.2069 209.749C81.5391 208.918 77.9823 208.285 79.2715 205.68C81.2015 201.78 93.1015 205.53 97.0515 209.25C98.5152 210.702 99.8009 212.324 100.882 214.08C100.776 213.819 100.674 213.558 100.572 213.295C100.509 213.134 100.446 212.973 100.382 212.81C98.9115 209.94 97.4415 207.13 96.1215 204.63C93.5112 201.576 90.1954 199.204 86.4615 197.72C85.6325 197.362 84.7883 197.002 83.9452 196.642L83.9452 196.642C76.3367 193.395 68.8183 190.187 73.3915 188.9C77.4915 187.74 88.1215 193.12 93.9715 200.58L92.4315 197.71C89.1915 193.32 81.3415 183.22 74.8815 178.86C73.3315 177.825 71.7462 176.879 70.1667 175.937L70.1666 175.937C67.3033 174.228 64.4595 172.531 61.8815 170.34C61.4528 170.014 61.1096 169.588 60.8815 169.1C59.6699 165.922 66.7232 167.597 67.9763 167.894L67.9763 167.894L67.9763 167.894L68.0015 167.9C72.6936 169.13 76.9108 171.735 80.1115 175.38C82.8746 178.342 85.281 181.618 87.2815 185.14C88.5915 187.38 89.7615 189.68 90.8515 192.03C91.2893 192.967 91.6587 194.053 92.0346 195.158C92.2683 195.845 92.5047 196.539 92.7615 197.21C93.7215 198.76 94.6715 200.35 95.4915 201.84C94.2137 197.268 91.6905 190.995 89.2592 184.951C86.1918 177.325 83.2708 170.063 83.1815 167.04C83.0015 161.15 88.6515 169.95 91.8215 181.89C93.6039 188.685 94.9566 195.585 95.8715 202.55C96.2015 203.16 96.4915 203.75 96.7515 204.3C97.3215 205.51 98.3115 207.56 99.6215 210.23C96.8215 201.45 95.7015 191.01 97.4415 189.72C99.9415 187.89 100.842 192.43 100.842 200.89C100.842 207.54 102.942 215.55 103.842 218.67C105.422 221.79 107.192 225.24 109.072 228.87C107.451 223.688 106.386 216.637 105.461 210.508L105.461 210.508C105.256 209.15 105.057 207.837 104.862 206.6C103.282 196.66 103.952 193.56 107.172 198.33C110.392 203.1 109.832 210.04 109.062 218.51C108.452 225.23 110.932 231.86 111.932 234.31C114.362 238.88 116.932 243.64 119.532 248.31C117.323 243.52 115.924 238.397 115.392 233.15C114.262 221.65 115.742 211.1 118.392 214.1C120.195 216.141 120.053 220.488 119.87 226.122C119.784 228.769 119.689 231.7 119.782 234.81C119.986 240.7 120.654 246.565 121.782 252.35L122.582 253.74C121.372 248.86 121.442 243.74 121.802 238.74C121.272 236.82 121.462 235.6 122.092 235C122.11 234.565 122.117 234.085 122.124 233.583C122.154 231.594 122.189 229.255 122.932 227.93C125.252 223.79 127.822 229.38 127.822 231.57C127.822 233.242 127.708 234.913 127.482 236.57C128.385 237.414 129.166 238.38 129.802 239.44C130.152 240.06 130.522 240.72 130.912 241.44C130.904 241.34 130.897 241.24 130.89 241.14C130.846 240.54 130.802 239.94 130.802 239.34C130.679 237.466 131.073 235.595 131.942 233.93C130.538 231.14 129.528 228.168 128.942 225.1C128.705 224.078 128.796 223.007 129.202 222.04C129.514 221.368 130.108 220.869 130.824 220.676C131.539 220.483 132.303 220.616 132.912 221.04C137.332 223.38 138.522 229.01 139.012 233.52C139.483 237.397 140.252 241.231 141.312 244.99C142.222 248.39 143.002 251.47 143.522 253.58C143.922 251.22 144.362 248.91 144.922 246.79C145.234 245.471 145.591 244.191 145.94 242.942L145.941 242.94C146.084 242.429 146.225 241.922 146.362 241.42C146.785 235.153 145.558 228.884 142.802 223.24C141.557 220.676 140.394 218.438 139.393 216.514C136.199 210.368 134.665 207.415 137.422 207.24C141.042 207.01 146.292 212.65 147.042 221.49C147.596 226.855 147.713 232.256 147.392 237.64C148.542 233.53 149.662 229.64 150.852 225.7C151.756 221.335 151.529 216.812 150.192 212.56C149.401 210.222 148.109 207.297 146.845 204.439C144.175 198.398 141.635 192.651 144.242 193.35C148.082 194.38 152.732 201.88 153.242 209.82C153.384 213.984 152.926 218.147 151.882 222.18C152.061 221.594 152.24 221.003 152.421 220.408L152.421 220.408L152.421 220.407C153.097 218.18 153.792 215.887 154.582 213.52L154.766 212.92C155.11 211.803 155.467 210.643 155.832 209.44C155.843 209.355 155.86 209.269 155.879 209.182C155.91 209.032 155.942 208.878 155.942 208.72C156.492 204.596 155.748 200.403 153.812 196.72C152.581 194.499 150.992 192.382 149.572 190.491C146.735 186.711 144.572 183.83 147.292 182.81C151.372 181.28 157.512 192.13 157.852 197.55C157.933 199.612 157.768 201.677 157.362 203.7L157.428 203.526L157.428 203.526L157.428 203.525C157.566 203.161 157.706 202.792 157.862 202.43C158.742 199.33 159.592 196.26 160.332 193.54C160.503 189.527 159.696 185.532 157.982 181.9C157.618 181.066 157.244 180.219 156.871 179.374L156.87 179.373C153.53 171.81 150.233 164.343 154.452 166.52C158.242 168.48 162.332 179.67 161.522 189.11C161.852 187.88 162.132 186.82 162.352 185.96C162.942 180.54 164.102 167.8 162.352 160.21C161.928 158.375 161.41 156.576 160.893 154.781C159.982 151.617 159.074 148.464 158.692 145.14C158.59 144.604 158.621 144.051 158.782 143.53C160.009 140.407 164.094 146.504 164.777 147.524L164.777 147.524L164.782 147.53C167.309 151.55 168.602 156.223 168.502 160.97C168.498 165.012 168.022 169.039 167.082 172.97C166.512 175.5 165.802 177.98 164.992 180.44C164.672 181.422 164.203 182.464 163.726 183.522C163.425 184.189 163.122 184.862 162.852 185.53C162.502 187.32 162.102 189.13 161.682 190.77C163.874 186.553 166.318 180.232 168.672 174.145L168.672 174.145L168.672 174.144C171.631 166.491 174.447 159.207 176.442 156.94C180.332 152.52 178.452 162.8 172.622 173.69C169.288 179.875 165.567 185.844 161.482 191.56C161.302 192.23 161.122 192.86 160.932 193.44C160.472 194.73 159.792 196.88 158.932 199.73C162.882 191.4 169.182 183.01 171.332 183.25C174.442 183.59 171.972 187.56 166.202 193.74C161.612 198.56 157.672 205.85 156.202 208.74C155.232 212.07 154.162 215.8 153.072 219.74C155.409 214.869 159.413 209.022 162.903 203.925ZM126.672 260.66C127.732 262.21 128.722 263.61 129.672 264.9C129.803 262.522 130.057 260.152 130.432 257.8C130.871 255.849 131.116 253.859 131.162 251.86C129.251 249.929 127.438 247.903 125.732 245.79C125.391 248.063 125.283 250.365 125.412 252.66C125.619 255.356 126.04 258.031 126.672 260.66ZM135.112 271.49C133.822 270.12 132.412 268.49 130.882 266.49C130.92 264.904 131.138 263.327 131.532 261.79C132.142 259.367 133.021 257.019 134.152 254.79C136.522 257.04 138.262 258.53 138.262 258.53L142.262 262.04C141.952 265.53 141.772 268.81 141.662 271.47L135.112 271.49ZM140.522 259.86L142.312 261.43C142.522 259.29 142.772 257.08 143.092 254.91C141.982 253.28 140.102 250.21 137.982 246.28C137.339 248.05 136.598 249.783 135.762 251.47C137.722 255.48 139.522 258.96 140.522 259.86Z" fill="white"/>
<path fill-rule="evenodd" clip-rule="evenodd" d="M66.5508 113.66V12.26H143.551V113.66H66.5508ZM71.9308 106.59H138.211V19.34H71.9308V106.59Z" fill="#ADC7F7"/>
<path opacity="0.5" fill-rule="evenodd" clip-rule="evenodd" d="M66.5508 113.66V12.26H143.551V113.66H66.5508ZM71.9308 106.59H138.211V19.34H71.9308V106.59Z" fill="white"/>
<path fill-rule="evenodd" clip-rule="evenodd" d="M336 136.61V61.73H392.88V136.61H336ZM340 131.38H388.91L388.94 67H340V131.38Z" fill="#ADC7F7"/>
<path opacity="0.5" fill-rule="evenodd" clip-rule="evenodd" d="M336 136.61V61.73H392.88V136.61H336ZM340 131.38H388.91L388.94 67H340V131.38Z" fill="white"/>
<path d="M10.7812 313.82C13.6512 304.1 43.3812 203.06 43.2812 202.3C43.1813 201.54 45.7113 187.97 51.6312 176.66C57.5512 165.35 65.7713 152.75 66.8013 151.21C68.3687 148.701 69.4161 145.902 69.8812 142.98C70.6512 138.87 78.8812 127.55 81.4512 124.47C84.0212 121.39 91.7313 105.19 92.2513 102.62C92.7712 100.05 95.8412 97.9901 99.9613 97.2201C104.081 96.4501 109.731 95.6801 109.731 95.6801C110.777 96.9106 111.407 98.4401 111.531 100.05C111.531 102.36 102.271 157.63 101.761 166.89C101.251 176.15 102.531 181.28 98.4212 190.8C94.3112 200.32 82.2213 206.22 76.3112 210.08C70.4012 213.94 70.8512 214.74 70.8512 214.74C70.8512 214.74 74.1913 307.27 74.1113 314.54" fill="white"/>
<g style="mix-blend-mode:multiply" opacity="0.7">
<path d="M115.291 156.31C114.221 151.52 107.291 154.18 107.291 154.18C102.571 159.301 96.7616 163.296 90.2906 165.87C79.4593 169.966 68.9923 174.967 59.0006 180.82C60.1406 178.53 61.3806 176.22 62.7206 173.82C69.6306 161.6 81.8506 145.13 88.7206 143C92.9606 141.7 97.1906 144.39 99.8306 146.67L100.131 97.17H99.9606C95.8406 97.94 92.7606 100 92.2506 102.57C91.7406 105.14 84.0206 121.33 81.4506 124.42C78.8806 127.51 70.6506 138.82 69.8806 142.93C69.4155 145.852 68.3681 148.651 66.8006 151.16C65.8006 152.7 57.5406 165.29 51.6306 176.61C45.7206 187.93 43.1806 201.48 43.2806 202.25C43.3506 202.81 31.9106 244.25 24.6406 270.33C30.6406 258.53 39.9706 239.44 45.6406 225.33C47.8706 225.11 52.1906 219.07 55.7706 214.15C60.0206 208.31 66.3906 206.71 79.1506 197.15C91.9106 187.59 106.241 174.3 108.371 168.99C110.501 163.68 116.351 161.09 115.291 156.31Z" fill="#ADC7F7"/>
</g>
<path d="M10.7812 313.82C13.6512 304.1 43.3813 203.06 43.2812 202.3C43.1812 201.54 45.7112 187.97 51.6312 176.66C57.5512 165.35 65.7713 152.75 66.8013 151.21C68.3687 148.701 69.4161 145.902 69.8812 142.98C70.6512 138.87 78.8812 127.55 81.4512 124.47C84.0212 121.39 91.7313 105.19 92.2513 102.62C92.7713 100.05 95.8413 97.9901 99.9613 97.2201C104.081 96.4501 109.731 95.6801 109.731 95.6801C110.777 96.9106 111.407 98.4401 111.531 100.05C111.531 102.36 102.271 157.63 101.761 166.89C101.251 176.15 102.531 181.28 98.4212 190.8C94.3112 200.32 82.2212 206.22 76.3112 210.08C70.4012 213.94 70.8512 214.74 70.8512 214.74C70.8512 214.74 74.1913 307.27 74.1113 314.54" stroke="#2E353A" stroke-linecap="round" stroke-linejoin="round"/>
<path d="M99.4391 158.66C99.4391 158.66 96.6191 158.4 93.7891 153.26" stroke="#2E353A" stroke-linecap="round" stroke-linejoin="round"/>
<path d="M96.3594 125.5C96.3594 125.5 104.359 127.04 105.359 133.72" stroke="#2E353A" stroke-linecap="round" stroke-linejoin="round"/>
<path d="M98.9297 104.67C102.509 107.393 104.754 111.516 105.1 116" stroke="#2E353A" stroke-linecap="round" stroke-linejoin="round"/>
<path d="M358.152 158.68L357.522 51.9101C357.516 45.4301 352.262 40.1801 345.782 40.1801H112.132C105.653 40.1801 100.402 45.4318 100.402 51.9101L99.7617 158.68C99.7591 161.824 101.007 164.839 103.23 167.062C105.452 169.285 108.468 170.533 111.612 170.53H346.302C349.445 170.533 352.461 169.285 354.684 167.062C356.907 164.839 358.154 161.824 358.152 158.68Z" fill="#2E353A" stroke="#363636" stroke-width="0.868674" stroke-linecap="round" stroke-linejoin="round"/>
<path d="M345.018 164.73L344.508 45.92H113.398L112.898 164.73H345.018Z" fill="white" stroke="#363636" stroke-width="0.651505" stroke-linecap="round" stroke-linejoin="round"/>
<path d="M344.509 45.92H113.399L113.379 51.85H135.579L141.259 59.97H344.569L344.509 45.92Z" fill="#ADC7F7" stroke="#2E353A" stroke-linecap="round" stroke-linejoin="round"/>
<g style="mix-blend-mode:multiply" opacity="0.5">
<path d="M344.509 69.5601L182.059 164.73H345.019L344.509 69.5601Z" fill="#ADC7F7"/>
</g>
<circle cx="350.973" cy="105.27" r="1.79" transform="rotate(-89.26 350.973 105.27)" fill="white"/>
<circle cx="131.199" cy="79.7599" r="9.57" fill="#ADC7F7" stroke="#2E353A" stroke-linecap="round" stroke-linejoin="round"/>
<circle cx="131.199" cy="119.11" r="9.57" fill="white" stroke="#2E353A" stroke-linecap="round" stroke-linejoin="round"/>
<circle cx="196.601" cy="79.7599" r="9.57" fill="white" stroke="#2E353A" stroke-linecap="round" stroke-linejoin="round"/>
<circle cx="196.601" cy="119.11" r="9.57" fill="#ADC7F7" stroke="#2E353A" stroke-linecap="round" stroke-linejoin="round"/>
<circle cx="262.011" cy="79.7599" r="9.57" fill="#ADC7F7" stroke="#2E353A" stroke-linecap="round" stroke-linejoin="round"/>
<circle cx="262.011" cy="119.11" r="9.57" fill="#F77D0E" stroke="#2E353A" stroke-width="2" stroke-linecap="round" stroke-linejoin="round"/>
<circle cx="327.41" cy="79.7599" r="9.57" fill="#ADC7F7" stroke="#2E353A" stroke-linecap="round" stroke-linejoin="round"/>
<circle cx="327.41" cy="119.11" r="9.57" fill="white" stroke="#2E353A" stroke-linecap="round" stroke-linejoin="round"/>
<path d="M147.828 92.72H179.178" stroke="#2E353A" stroke-linecap="round" stroke-linejoin="round"/>
<path d="M147.828 99.95H179.178" stroke="#2E353A" stroke-linecap="round" stroke-linejoin="round"/>
<path d="M147.828 107.19H179.178" stroke="#2E353A" stroke-linecap="round" stroke-linejoin="round"/>
<path d="M212.34 92.72H243.69" stroke="#2E353A" stroke-linecap="round" stroke-linejoin="round"/>
<path d="M212.34 99.95H243.69" stroke="#2E353A" stroke-linecap="round" stroke-linejoin="round"/>
<path d="M212.34 107.19H243.69" stroke="#2E353A" stroke-linecap="round" stroke-linejoin="round"/>
<path d="M281.07 92.72H312.42" stroke="#2E353A" stroke-linecap="round" stroke-linejoin="round"/>
<path d="M281.07 99.95H312.42" stroke="#2E353A" stroke-linecap="round" stroke-linejoin="round"/>
<path d="M281.07 107.19H312.42" stroke="#2E353A" stroke-linecap="round" stroke-linejoin="round"/>
<path d="M147.828 133.66H179.178" stroke="#2E353A" stroke-linecap="round" stroke-linejoin="round"/>
<path d="M147.828 140.9H179.178" stroke="#2E353A" stroke-linecap="round" stroke-linejoin="round"/>
<path d="M147.828 148.13H179.178" stroke="#2E353A" stroke-linecap="round" stroke-linejoin="round"/>
<path d="M212.34 133.66H243.69" stroke="#2E353A" stroke-linecap="round" stroke-linejoin="round"/>
<path d="M212.34 140.9H243.69" stroke="#2E353A" stroke-linecap="round" stroke-linejoin="round"/>
<path d="M212.34 148.13H243.69" stroke="#2E353A" stroke-linecap="round" stroke-linejoin="round"/>
<path d="M281.07 133.66H312.42" stroke="#2E353A" stroke-linecap="round" stroke-linejoin="round"/>
<path d="M281.07 140.9H312.42" stroke="#2E353A" stroke-linecap="round" stroke-linejoin="round"/>
<path d="M281.07 148.13H312.42" stroke="#2E353A" stroke-linecap="round" stroke-linejoin="round"/>
<path d="M243.129 119.6H249.069H243.129Z" fill="white"/>
<path d="M243.129 119.6H249.069" stroke="#2E353A" stroke-linecap="round" stroke-linejoin="round"/>
<path d="M262.641 107.73V100.31V107.73Z" fill="white"/>
<path d="M262.641 107.73V100.31" stroke="#2E353A" stroke-linecap="round" stroke-linejoin="round"/>
<path d="M249.488 108.58L253.308 111.55L249.488 108.58Z" fill="white"/>
<path d="M249.488 108.58L253.308 111.55" stroke="#2E353A" stroke-linecap="round" stroke-linejoin="round"/>
<path d="M254.158 127.23L249.488 129.78L254.158 127.23Z" fill="white"/>
<path d="M254.158 127.23L249.488 129.78" stroke="#2E353A" stroke-linecap="round" stroke-linejoin="round"/>
<path d="M282.569 119.6H276.629H282.569Z" fill="white"/>
<path d="M282.569 119.6H276.629" stroke="#2E353A" stroke-linecap="round" stroke-linejoin="round"/>
<path d="M276.201 108.58L272.391 111.55L276.201 108.58Z" fill="white"/>
<path d="M276.201 108.58L272.391 111.55" stroke="#2E353A" stroke-linecap="round" stroke-linejoin="round"/>
<path d="M258.02 139.26L263.02 157.12" stroke="#2E353A" stroke-linecap="round" stroke-linejoin="round"/>
<path d="M253.012 137.11L255.872 146.4" stroke="#2E353A" stroke-linecap="round" stroke-linejoin="round"/>
<path d="M376.238 307.2C376.238 307.2 352.488 263.4 349.108 255.72C345.728 248.04 343.178 235.94 342.348 232.62C341.148 228.724 341.037 224.574 342.028 220.62C343.278 215.02 342.538 199.04 343.098 195.37C343.658 191.7 341.388 180.22 340.098 173.79C338.808 167.36 335.888 162.79 331.948 162.29C329.621 162.011 327.309 162.916 325.788 164.7C325.788 164.7 324.148 151.01 322.558 148.17C320.968 145.33 315.788 145.74 313.018 146.42C310.248 147.1 308.918 155.96 308.918 155.96C308.918 155.96 306.518 147.45 306.448 143.65C306.378 139.85 301.758 136.58 298.158 137.48C294.558 138.38 292.618 140.03 291.638 147.91C290.658 155.79 292.508 167.98 292.508 167.98L290.638 168.74C290.638 168.74 283.898 145.14 281.758 138.91C279.618 132.68 277.558 125.55 276.118 120.91C274.678 116.27 272.538 108.91 266.648 110.04C260.758 111.17 262.208 124.04 262.208 124.04C262.208 124.04 271.418 163.48 271.898 166.59C272.378 169.7 273.898 180.5 273.598 184.1C273.298 187.7 273.308 197.1 273.308 197.1L264.538 186.64C263.458 183.81 262.094 181.096 260.468 178.54C257.468 173.7 250.798 169.19 246.468 170.54C242.138 171.89 245.558 176.35 247.348 178.84C249.138 181.33 250.588 188.32 250.588 191.84C250.588 195.36 253.588 197.84 257.208 204.3C260.828 210.76 278.998 233.08 281.748 237.1C283.785 239.801 286.346 242.063 289.278 243.75C289.278 243.75 299.778 252.9 304.678 264.32C309.578 275.74 324.608 308.53 324.608 308.53" fill="white"/>
<g style="mix-blend-mode:multiply" opacity="0.7">
<path d="M340.279 296.78C345.189 292.28 346.409 255.93 345.789 242.4C345.789 242.29 345.789 242.16 345.789 242.04C344.039 237.52 342.679 233.85 342.369 232.62C341.169 228.724 341.058 224.574 342.049 220.62C343.299 215.02 342.559 199.04 343.119 195.37C343.449 193.2 342.779 188.26 341.919 183.26C338.359 182.95 331.839 186.16 331.839 186.16C331.839 186.16 326.699 178.68 323.349 178.42C319.999 178.16 314.189 183.42 314.189 183.42C314.189 183.42 310.859 172.2 304.019 173.35C297.179 174.5 295.259 173.35 292.559 173.47C289.859 173.59 287.669 167.02 284.969 160.57C282.269 154.12 278.399 130 276.109 125C276.109 125 272.519 114.94 267.869 118.29C263.219 121.64 267.589 132.59 269.769 139.16C271.949 145.73 273.119 158.21 274.889 164.16C276.889 170.79 275.889 180.64 277.719 187.86C279.549 195.08 284.249 197.42 281.659 206.86C279.069 216.3 273.409 213.29 267.099 207.74C260.789 202.19 257.669 189.48 254.099 190.74C252.862 191.053 251.667 191.513 250.539 192.11C250.619 195.57 253.539 198.11 257.159 204.43C260.779 210.75 278.999 233.08 281.749 237.1C283.785 239.801 286.347 242.063 289.279 243.75C289.279 243.75 299.779 252.9 304.679 264.32C305.559 266.37 306.959 269.4 308.679 273C310.679 274.6 306.439 267 307.479 268.26C314.409 276.39 335.379 301.29 340.279 296.78Z" fill="#ADC7F7"/>
</g>
<path d="M376.238 307.2C376.238 307.2 352.488 263.4 349.108 255.72C345.728 248.04 343.178 235.94 342.348 232.62C341.148 228.724 341.037 224.574 342.028 220.62C343.278 215.02 342.538 199.04 343.098 195.37C343.658 191.7 341.388 180.22 340.098 173.79C338.808 167.36 335.888 162.79 331.948 162.29C329.621 162.011 327.309 162.916 325.788 164.7C325.788 164.7 324.148 151.01 322.558 148.17C320.968 145.33 315.788 145.74 313.018 146.42C310.248 147.1 308.918 155.96 308.918 155.96C308.918 155.96 306.518 147.45 306.448 143.65C306.378 139.85 301.758 136.58 298.158 137.48C294.558 138.38 292.618 140.03 291.638 147.91C290.658 155.79 292.508 167.98 292.508 167.98L290.638 168.74C290.638 168.74 283.898 145.14 281.758 138.91C279.618 132.68 277.558 125.55 276.118 120.91C274.678 116.27 272.538 108.91 266.648 110.04C260.758 111.17 262.208 124.04 262.208 124.04C262.208 124.04 271.418 163.48 271.898 166.59C272.378 169.7 273.898 180.5 273.598 184.1C273.298 187.7 273.308 197.1 273.308 197.1L264.538 186.64C263.458 183.81 262.094 181.096 260.468 178.54C257.468 173.7 250.798 169.19 246.468 170.54C242.138 171.89 245.558 176.35 247.348 178.84C249.138 181.33 250.588 188.32 250.588 191.84C250.588 195.36 253.588 197.84 257.208 204.3C260.828 210.76 278.998 233.08 281.748 237.1C283.785 239.801 286.346 242.063 289.278 243.75C289.278 243.75 299.778 252.9 304.678 264.32C309.578 275.74 324.608 308.53 324.608 308.53" stroke="#2E353A" stroke-linecap="round" stroke-linejoin="round"/>
<path d="M263.531 112.9C263.531 112.9 264.621 119.66 264.831 120.51C265.301 122.42 273.201 121.51 273.831 120.04C274.391 118.73 273.981 115.89 273.981 115.89" stroke="#2E353A" stroke-linecap="round" stroke-linejoin="round"/>
<path d="M250 179.15C251.354 177.774 251.558 175.638 250.49 174.03C248.63 171.26 247.59 170.64 247.59 170.64" stroke="#2E353A" stroke-linecap="round" stroke-linejoin="round"/>
<path d="M272.672 152.07C272.672 152.07 276.202 153.25 279.522 148.9" stroke="#2E353A" stroke-width="0.75" stroke-linecap="round" stroke-linejoin="round"/>
<path d="M273.09 149C273.09 149 277.8 145.47 281.4 145.76" stroke="#2E353A" stroke-width="0.75" stroke-linecap="round" stroke-linejoin="round"/>
<path d="M268.211 130.55C268.211 130.55 271.741 127.03 274.571 127.79" stroke="#2E353A" stroke-width="0.75" stroke-linecap="round" stroke-linejoin="round"/>
<path d="M271.531 129.72C272.982 129.964 274.469 129.896 275.891 129.52" stroke="#2E353A" stroke-width="0.75" stroke-linecap="round" stroke-linejoin="round"/>
<path d="M308.91 155.99L310.77 167" stroke="#2E353A" stroke-linecap="round" stroke-linejoin="round"/>
<path d="M325.781 164.73L327.771 176.29" stroke="#2E353A" stroke-linecap="round" stroke-linejoin="round"/>
<path d="M273.3 197.17C273.3 197.17 272.8 205.82 273.63 209.17" stroke="#2E353A" stroke-linecap="round" stroke-linejoin="round"/>
<path d="M310.781 172.86C310.781 172.86 312.831 178.29 312.331 181.86" stroke="#2E353A" stroke-width="0.75" stroke-linecap="round" stroke-linejoin="round"/>
<path d="M327.549 178.47C327.549 178.47 328.939 181.27 328.109 186.37" stroke="#2E353A" stroke-width="0.75" stroke-linecap="round" stroke-linejoin="round"/>
<path d="M89.9295 162.77C89.9295 162.77 98.4195 161.23 103.04 155.58C107.66 149.93 118.72 142.72 122.32 141.44C125.92 140.16 131.58 139.89 133.64 141.69C135.7 143.49 136.72 147.86 133.64 153.01C130.56 158.16 118 163 115.38 165.34C112.76 167.68 110.5 169.2 107.38 176.14C104.343 182.863 99.9708 188.899 94.5295 193.88C89.6395 198.25 80.6495 205.71 76.0195 208.53" fill="white"/>
<g style="mix-blend-mode:multiply" opacity="0.7">
<path d="M115.291 156.31C114.221 151.52 107.291 154.18 107.291 154.18C102.571 159.301 96.7616 163.296 90.2906 165.87C79.4593 169.966 68.9923 174.967 59.0006 180.82C60.1406 178.53 61.3806 176.22 62.7206 173.82C69.6306 161.6 81.8506 145.13 88.7206 143C92.9606 141.7 97.1906 144.39 99.8306 146.67L100.131 97.17H99.9606C95.8406 97.94 92.7606 100 92.2506 102.57C91.7406 105.14 84.0206 121.33 81.4506 124.42C78.8806 127.51 70.6506 138.82 69.8806 142.93C69.4155 145.852 68.3681 148.651 66.8006 151.16C65.8006 152.7 57.5406 165.29 51.6306 176.61C45.7206 187.93 43.1806 201.48 43.2806 202.25C43.3506 202.81 31.9106 244.25 24.6406 270.33C30.6406 258.53 39.9706 239.44 45.6406 225.33C47.8706 225.11 52.1906 219.07 55.7706 214.15C60.0206 208.31 66.3906 206.71 79.1506 197.15C91.9106 187.59 106.241 174.3 108.371 168.99C110.501 163.68 116.351 161.09 115.291 156.31Z" fill="#ADC7F7"/>
</g>
<path d="M89.9295 162.77C89.9295 162.77 98.4195 161.23 103.04 155.58C107.66 149.93 118.72 142.72 122.32 141.44C125.92 140.16 131.58 139.89 133.64 141.69C135.7 143.49 136.72 147.86 133.64 153.01C130.56 158.16 118 163 115.38 165.34C112.76 167.68 110.5 169.2 107.38 176.14C104.343 182.863 99.9708 188.899 94.5295 193.88C89.6395 198.25 80.6495 205.71 76.0195 208.53" stroke="#2E353A" stroke-linecap="round" stroke-linejoin="round"/>
<path d="M133.888 151C132.348 153.31 128.488 153.57 128.488 153.57C128.488 153.57 126.948 150.23 125.918 148.17C125.116 146.784 123.964 145.632 122.578 144.83C122.578 144.83 123.868 141.49 126.438 141.49" stroke="#2E353A" stroke-linecap="round" stroke-linejoin="round"/>
<path d="M33.2512 214.92C42.7387 212.865 52.4564 212.075 62.1512 212.57C78.5612 213.36 82.4613 222.73 82.4613 222.73L81.6813 243.82C81.6813 243.82 73.0912 237.57 55.1213 235.23C37.1513 232.89 27.7812 234.45 27.7812 234.45L33.2512 214.92Z" fill="white" stroke="#2E353A" stroke-linecap="round" stroke-linejoin="round"/>
<path d="M82.6212 313.33L86.8512 245.64C59.5112 229.23 27.7812 234.45 27.7812 234.45L0.78125 313.33H82.6212Z" fill="#35558F" stroke="#2E353A" stroke-linecap="round" stroke-linejoin="round"/>
<path d="M296 261.33C296 261.33 298.67 250.67 313.33 242C327.99 233.33 350 236.67 350 236.67L353.33 245.33C353.33 245.33 335.33 244.67 322 252C308.67 259.33 302 268 302 268L296 261.33Z" fill="white" stroke="#2E353A" stroke-linecap="round" stroke-linejoin="round"/>
<path d="M395.252 313.33L355.692 242.61C355.692 242.61 340.692 238.67 322.692 246C304.692 253.33 297.352 267.33 297.352 267.33L304.922 313.33H395.252Z" fill="#35558F" stroke="#2E353A" stroke-linecap="round" stroke-linejoin="round"/>
<path d="M305.939 269.47C306.439 271.62 305.839 273.6 304.579 273.89C303.319 274.18 301.899 272.68 301.399 270.53C300.899 268.38 301.499 266.4 302.749 266.11C303.999 265.82 305.429 267.32 305.939 269.47Z" fill="white"/>
</svg>
