<svg width="147" height="131" viewBox="0 0 147 131" fill="none" xmlns="http://www.w3.org/2000/svg">
<path d="M138.688 22.3438C138.688 22.3438 129.186 3.31673 108.199 0.497179C87.213 -2.32237 72.546 11.4189 57.1137 18.4677C49.028 22.1574 39.7777 20.7247 31.2046 22.5106C3.74504 28.2217 -6.59768 64.0058 4.83754 84.3543C14.7387 101.972 32.1597 111.13 58.6936 113.247C85.2275 115.363 103.833 117.826 127.596 100.562C151.359 83.2978 149.77 47.36 138.688 22.3438Z" fill="#ADC7F7"/>
<path opacity="0.7" d="M138.688 22.3438C138.688 22.3438 129.186 3.31673 108.199 0.497179C87.213 -2.32237 72.546 11.4189 57.1137 18.4677C49.028 22.1574 39.7777 20.7247 31.2046 22.5106C3.74504 28.2217 -6.59768 64.0058 4.83754 84.3543C14.7387 101.972 32.1597 111.13 58.6936 113.247C85.2275 115.363 103.833 117.826 127.596 100.562C151.359 83.2978 149.77 47.36 138.688 22.3438Z" fill="white"/>
<path d="M134.365 106.191C135.496 99.6852 146.245 87.2393 143.134 79.6017C140.023 71.964 132.383 96.2835 129.553 96.5746C126.724 96.8657 129.272 85.5417 133.233 74.7934C137.194 64.0451 140.305 52.7276 133.233 48.4852C126.161 44.2428 126.442 77.904 124.745 76.7723C123.047 75.6405 125.877 61.497 123.898 52.7276C121.919 43.9582 117.392 51.03 117.392 61.232C117.392 71.4341 120.502 77.0732 118.239 77.9138C115.975 78.7545 109.031 75.5915 109.188 86.6832C109.345 97.775 117.958 111.013 114.844 109.315C111.73 107.617 106.074 101.111 107.206 111.578C108.007 118.977 113.748 126.088 117.052 129.624H132.176C134.482 127.253 138.964 122.255 141.989 116.387C146.245 108.173 133.233 112.7 134.365 106.191Z" fill="#ADC7F7"/>
<path d="M115.977 128.963C113.177 124.95 111.868 120.044 110.56 115.464C109.906 112.52 109.906 109.249 112.195 107.287C114.485 105.651 115.793 108.595 117.102 109.904C118.083 109.249 117.429 108.268 117.429 107.614C116.776 102.406 116.449 97.1623 116.448 91.9135C116.448 88.6425 117.756 86.0258 119.064 83.0819C119.719 82.1007 120.373 81.1194 121.354 80.7923C122.335 80.4652 123.317 80.7923 123.644 81.7736C124.298 84.0632 124.298 86.3529 124.625 88.6425C125.279 87.9883 124.952 87.0071 124.952 86.3529C126.26 76.8671 125.279 67.7085 128.223 58.5499C128.55 57.8957 129.531 57.2415 130.186 57.5686C132.475 57.8957 132.475 60.8395 132.475 62.8021C133.784 72.2878 130.84 81.4465 129.859 90.9322C129.859 91.5864 129.531 92.2406 130.186 92.8948C130.513 90.6051 131.821 88.3154 132.475 86.0258C132.802 85.0445 133.457 83.7361 134.438 83.0819C135.092 82.7548 135.746 83.0819 136.4 83.7361C137.709 85.6987 138.036 87.6613 137.709 89.9509C136.728 95.5115 134.765 100.091 132.475 104.997L131.494 107.941C131.167 109.904 129.859 112.193 131.167 113.829C133.457 113.502 134.111 110.885 136.073 109.577C138.036 108.268 138.69 109.904 139.017 111.212C140.326 117.754 138.036 123.642 134.739 128.95" stroke="#263238" stroke-width="0.5" stroke-linecap="round" stroke-linejoin="round"/>
<path d="M125.138 127.714C125.138 127.714 124.376 112.429 126.286 98.4848" stroke="#263238" stroke-width="0.5" stroke-linecap="round" stroke-linejoin="round"/>
<path d="M118.836 117.97L125.139 124.849L130.68 120.07" stroke="#263238" stroke-width="0.5" stroke-linecap="round" stroke-linejoin="round"/>
<path d="M123.418 100.778L125.138 109.563L130.107 100.778" stroke="#263238" stroke-width="0.5" stroke-linecap="round" stroke-linejoin="round"/>
<path d="M126.477 96.1919L127.621 87.9785" stroke="#263238" stroke-width="0.5" stroke-linecap="round" stroke-linejoin="round"/>
<rect x="15.332" y="29.2128" width="20.6004" height="25.7521" stroke="#263238" stroke-width="0.5" stroke-linecap="round" stroke-linejoin="round"/>
<rect x="41.082" y="29.2128" width="20.6004" height="25.7521" stroke="#263238" stroke-width="0.5" stroke-linecap="round" stroke-linejoin="round"/>
<rect x="15.332" y="59.1779" width="20.6004" height="25.7521" stroke="#263238" stroke-width="0.5" stroke-linecap="round" stroke-linejoin="round"/>
<rect x="41.082" y="59.1779" width="20.6004" height="25.7521" stroke="#263238" stroke-width="0.5" stroke-linecap="round" stroke-linejoin="round"/>
<rect x="15.332" y="89.143" width="20.6004" height="25.7521" stroke="#263238" stroke-width="0.5" stroke-linecap="round" stroke-linejoin="round"/>
<rect x="41.082" y="89.143" width="20.6004" height="25.7521" stroke="#263238" stroke-width="0.5" stroke-linecap="round" stroke-linejoin="round"/>
<path fill-rule="evenodd" clip-rule="evenodd" d="M38.7432 2.52516V2.52516C26.0724 2.52516 15.8008 12.7968 15.8008 25.4676H61.6856C61.6856 12.7968 51.4139 2.52516 38.7432 2.52516Z" stroke="#263238" stroke-width="0.5" stroke-linecap="round" stroke-linejoin="round"/>
<path d="M68.4119 14.8239C68.4119 14.8239 68.4119 9.91749 59.9893 10.8988C51.5666 11.8801 48.0372 19.3214 45.4924 20.8882C42.9476 22.455 38.244 23.8321 38.0478 26.1773C37.8515 28.5226 40.0103 29.5072 37.8515 31.2702C35.6927 33.0332 32.3825 34.6098 33.1512 36.9616C33.9198 39.3134 36.095 41.662 35.1137 43.232C34.1324 44.8021 31.3914 46.3656 33.9362 48.1384C36.481 49.9113 37.6585 50.294 37.6585 52.6425C37.6585 54.9911 36.6772 56.5677 39.0323 57.3461C41.3874 58.1246 42.7514 56.5611 44.1252 59.4984C45.499 62.4357 46.8662 63.2208 49.218 62.632C51.5698 62.0432 54.8964 61.0652 56.087 61.8502C57.2776 62.6353 60.9934 64.7941 62.5504 63.6133C64.1074 62.4325 65.4942 60.6694 67.8395 61.6507C70.1848 62.632 72.1506 64.0025 73.1286 62.2395C74.1066 60.4764 73.1286 60.0839 76.851 59.2956C80.5733 58.5073 81.9438 58.7101 81.9438 55.5766C81.9438 52.443 81.7476 51.6514 83.5106 50.2875C85.2736 48.9235 86.8404 49.5024 86.2549 46.1726C85.6694 42.8428 84.4919 42.0578 85.0774 38.7279C85.6629 35.3981 84.0961 34.2239 82.9218 33.2426C81.7476 32.2613 80.377 30.5015 80.7695 28.7385C81.1621 26.9755 84.0994 26.7759 81.1588 23.6456C78.2182 20.5153 76.851 21.4901 76.2524 19.1383C75.6538 16.7865 73.701 11.6903 68.4119 14.8239Z" fill="#263238" stroke="#263238" stroke-width="0.5" stroke-linecap="round" stroke-linejoin="round"/>
<path d="M60.8919 20.7214C59.6849 22.6317 58.7527 24.7872 56.8097 26.6091C54.0033 29.2259 46.8137 31.5155 46.4637 33.9753C46.1137 36.435 47.3403 37.8317 44.8871 39.9349C42.4339 42.0382 38.5742 42.5517 38.5742 44.6713C38.5742 46.7908 39.6242 47.4777 39.1008 49.0543" stroke="#616161" stroke-width="0.5"/>
<path d="M66.1072 18.3663C66.1072 18.3663 65.2306 16.0767 62.7741 18.3663C62.5844 18.543 62.4045 18.7261 62.2344 18.9126" stroke="#616161" stroke-width="0.5"/>
<path d="M46.2953 28.3885C44.1365 28.9119 42.4323 29.288 42.2557 30.8188C41.9024 33.7986 42.429 35.7252 40.3258 36.6051C38.2226 37.485 35.4194 38.8948 36.2927 40.6382C37.1661 42.3816 37.3427 42.9278 37.1694 43.618" stroke="#616161" stroke-width="0.5"/>
<path d="M65.7461 15.5599C65.7461 15.5599 60.8397 12.4067 58.2229 15.2099C55.6062 18.0131 56.8197 21.5228 52.7866 25.3825C51.7623 26.3363 50.5533 27.0699 49.2344 27.5381" stroke="#616161" stroke-width="0.5"/>
<path d="M82.8125 40.4288C83.1068 40.8858 83.5134 41.2597 83.9933 41.5148" stroke="#616161" stroke-width="0.5"/>
<path d="M69.2617 19.9527C69.2617 19.9527 73.6448 18.5495 74.6948 21.0027C75.7447 23.4559 76.2746 27.8423 78.2045 28.5455C80.1343 29.2488 81.0077 30.2987 81.0077 34.1552C81.0054 35.3981 81.1907 36.6342 81.5572 37.8219" stroke="#616161" stroke-width="0.5"/>
<path d="M40.8555 51.1575C42.2587 48.8679 44.1853 49.7576 44.3619 47.3011C44.5385 44.8446 43.1353 44.1446 44.5353 42.568C45.9352 40.9914 48.2184 40.2784 48.2184 40.2784" stroke="#616161" stroke-width="0.5"/>
<path d="M42.7815 56.0705C42.1335 55.534 41.5711 54.902 41.1133 54.1962" stroke="#616161" stroke-width="0.5"/>
<path d="M91.3331 129.614C91.3331 129.614 91.9186 121.584 88.3893 113.551C84.8599 105.517 84.0651 104.938 84.0651 102.587C84.0651 100.235 86.4267 97.4904 86.8192 92.2013C87.2117 86.9122 87.0155 84.3511 87.0155 84.3511C87.0155 84.3511 95.4381 97.6703 101.316 98.4554C107.194 99.2404 110.72 93.755 108.564 86.3104C106.409 78.8657 97.0049 72.7948 93.2859 67.895C89.5668 62.9951 81.1376 62.9885 76.8298 62.9885C72.5219 62.9885 70.3664 61.4218 69.5813 58.4844C68.7963 55.5471 68.7996 49.6529 68.7996 49.6529C68.7996 49.6529 63.7035 52.7865 55.0845 49.2604C55.0845 49.2604 55.8696 60.0349 54.8883 61.6017C53.907 63.1684 52.5463 64.7647 46.6684 64.7647C40.7905 64.7647 35.8939 65.9422 33.1529 68.6898C30.4118 71.4374 19.0486 82.4016 16.1112 86.7127C13.1739 91.0238 14.7375 95.7241 18.2635 97.4872C21.7896 99.2502 25.3157 97.6802 27.8637 95.3316C30.4118 92.9831 38.442 85.5351 38.442 85.5351C38.442 85.5351 38.442 90.0425 40.5975 96.5059C42.7531 102.969 44.5227 102.188 42.9461 106.888C41.3695 111.588 38.2457 112.962 37.2677 119.033C36.6819 122.527 36.4191 126.068 36.4827 129.611" fill="#ADC7F7"/>
<g opacity="0.2">
<path d="M78.4779 69.1314C78.3438 69.1314 77.8532 69.4585 78.4779 70.4103C79.1027 69.465 78.612 69.1314 78.4779 69.1314Z" fill="black"/>
<path d="M94.1771 69.1314C94.043 69.1314 93.5524 69.4585 94.1771 70.4103C94.8019 69.465 94.3112 69.1314 94.1771 69.1314Z" fill="black"/>
<path d="M94.1771 76.9816C94.043 76.9816 93.5524 77.3087 94.1771 78.2606C94.8019 77.3152 94.3112 76.9816 94.1771 76.9816Z" fill="black"/>
<path d="M78.4779 76.9816C78.3438 76.9816 77.8532 77.3087 78.4779 78.2606C79.1027 77.3152 78.612 76.9816 78.4779 76.9816Z" fill="black"/>
<path d="M86.3256 73.0565C86.1915 73.0565 85.7008 73.3836 86.3256 74.3354C86.9503 73.3901 86.4597 73.0565 86.3256 73.0565Z" fill="black"/>
<path d="M86.3256 65.2062C86.1915 65.2062 85.7008 65.5333 86.3256 66.4852C86.9503 65.5399 86.4597 65.2062 86.3256 65.2062Z" fill="black"/>
<path d="M78.8281 70.6066C79.9599 70.6687 79.9991 70.0767 79.9337 69.9524C79.8683 69.8281 79.3155 69.5893 78.8281 70.6066Z" fill="black"/>
<path d="M95.4871 70.3809L95.0521 69.9327C94.8133 70.1023 94.6274 70.3359 94.5156 70.6066C94.8565 70.6625 95.2058 70.5814 95.4871 70.3809Z" fill="black"/>
<path d="M86.6797 74.5317C87.8114 74.5938 87.8507 74.0018 87.7853 73.8775C87.7198 73.7532 87.1671 73.5144 86.6797 74.5317Z" fill="black"/>
<path d="M86.6797 66.6814C87.8114 66.7436 87.8507 66.1515 87.7853 66.0272C87.7198 65.9029 87.1671 65.6642 86.6797 66.6814Z" fill="black"/>
<path d="M92.7301 69.9622C92.6647 70.0767 92.7072 70.6687 93.8357 70.6164C93.3353 69.5893 92.7988 69.8444 92.7301 69.9622Z" fill="black"/>
<path d="M92.7295 77.8124C92.6824 77.9829 92.7513 78.1642 92.8996 78.2606C93.1779 78.4359 93.5098 78.5055 93.8351 78.4568C93.8042 78.3893 93.7693 78.3238 93.7304 78.2606C93.2627 77.4755 92.7949 77.7012 92.7295 77.8124Z" fill="black"/>
<path d="M84.8786 73.8873C84.8132 74.0018 84.8557 74.5938 85.9842 74.5415C85.4837 73.5144 84.9473 73.7696 84.8786 73.8873Z" fill="black"/>
<path d="M84.8786 66.037C84.8132 66.1515 84.8557 66.7436 85.9842 66.6912C85.4837 65.6642 84.9473 65.9193 84.8786 66.037Z" fill="black"/>
<path d="M78.4779 92.6821C78.3438 92.6821 77.8532 93.0092 78.4779 93.9611C79.1027 93.0158 78.612 92.6821 78.4779 92.6821Z" fill="black"/>
<path d="M94.1752 92.6821C94.0771 92.6821 93.7958 92.8588 93.8841 93.3134C94.0215 93.4606 94.1589 93.6078 94.2995 93.7517C94.7247 92.9667 94.2995 92.6821 94.1752 92.6821Z" fill="black"/>
<path d="M78.4779 100.532C78.3438 100.532 77.8532 100.86 78.4779 101.811C79.1027 100.866 78.612 100.532 78.4779 100.532Z" fill="black"/>
<path d="M102.029 96.6073C101.895 96.6073 101.404 96.9344 102.029 97.8862C102.653 96.9409 102.163 96.6073 102.029 96.6073Z" fill="black"/>
<path d="M78.4779 84.8319C78.3438 84.8319 77.8532 85.159 78.4779 86.1108C79.1027 85.1655 78.612 84.8319 78.4779 84.8319Z" fill="black"/>
<path d="M94.1771 84.8319C94.043 84.8319 93.5524 85.159 94.1771 86.1108C94.8019 85.1655 94.3112 84.8319 94.1771 84.8319Z" fill="black"/>
<path d="M86.3256 88.757C86.1915 88.757 85.7008 89.0841 86.3256 90.036C86.9503 89.0907 86.4597 88.757 86.3256 88.757Z" fill="black"/>
<path d="M102.029 88.757C101.895 88.757 101.404 89.0841 102.029 90.036C102.653 89.0907 102.163 88.757 102.029 88.757Z" fill="black"/>
<path d="M86.3256 80.9067C86.1915 80.9067 85.7008 81.2338 86.3256 82.1857C86.9503 81.2404 86.4597 80.9067 86.3256 80.9067Z" fill="black"/>
<path d="M102.029 80.9067C101.895 80.9067 101.404 81.2338 102.029 82.1857C102.653 81.2404 102.163 80.9067 102.029 80.9067Z" fill="black"/>
<path d="M78.8281 94.1574C79.9599 94.2195 79.9991 93.6275 79.9337 93.5032C79.8683 93.3789 79.3155 93.1401 78.8281 94.1574Z" fill="black"/>
<path d="M94.5781 94.0396L94.6959 94.1606C95.6477 94.1606 95.6772 93.6209 95.6216 93.5064C95.5659 93.3919 95.059 93.163 94.5781 94.0396Z" fill="black"/>
<path d="M79.672 101.245C79.5289 101.243 79.3896 101.291 79.2795 101.383C79.2129 101.436 79.1515 101.495 79.0963 101.559C79.0306 101.638 78.9715 101.723 78.9197 101.811C78.9207 101.818 78.9207 101.824 78.9197 101.831C78.8903 101.883 78.8576 101.942 78.8281 102.008C79.1534 102.057 79.4856 101.987 79.7636 101.811C79.7869 101.793 79.8087 101.774 79.829 101.752C79.8617 101.717 79.8892 101.678 79.9108 101.635C79.9762 101.558 79.986 101.448 79.9353 101.36C79.8846 101.273 79.7844 101.227 79.6851 101.245H79.672Z" fill="black"/>
<path d="M102.379 98.0825C103.507 98.1446 103.55 97.5526 103.484 97.4283C103.419 97.304 102.866 97.0652 102.379 98.0825Z" fill="black"/>
<path d="M78.8281 86.3071C79.9599 86.3692 79.9991 85.7772 79.9337 85.6529C79.8683 85.5286 79.3155 85.2898 78.8281 86.3071Z" fill="black"/>
<path d="M95.6212 85.6627C95.5525 85.5449 95.0161 85.2898 94.5156 86.3169C95.6441 86.3692 95.6866 85.7772 95.6212 85.6627Z" fill="black"/>
<path d="M86.6778 90.2322C86.7726 90.2371 86.8676 90.2371 86.9624 90.2322C86.9624 90.0686 86.9787 89.9051 86.9853 89.7546C86.8614 89.899 86.758 90.0597 86.6778 90.2322Z" fill="black"/>
<path d="M102.379 90.2322C103.507 90.2944 103.55 89.7023 103.484 89.578C103.419 89.4537 102.866 89.2149 102.379 90.2322Z" fill="black"/>
<path d="M86.6797 82.3819C87.8114 82.4441 87.8507 81.852 87.7853 81.7277C87.7198 81.6034 87.1671 81.3647 86.6797 82.3819Z" fill="black"/>
<path d="M102.379 82.3819C103.507 82.4441 103.55 81.852 103.484 81.7277C103.419 81.6034 102.866 81.3647 102.379 82.3819Z" fill="black"/>
<path d="M85.4677 98.0563L85.6476 97.5689C85.2682 97.1764 84.9345 97.3465 84.8822 97.4381C84.8299 97.5297 84.8462 97.9418 85.4677 98.0563Z" fill="black"/>
<path d="M108.432 93.513C108.381 93.7058 108.473 93.9077 108.651 93.9971C108.72 93.8073 108.778 93.6111 108.834 93.4116C108.692 93.3634 108.534 93.4031 108.432 93.513Z" fill="black"/>
<path d="M100.583 97.4381C100.514 97.5526 100.56 98.1446 101.688 98.0923C101.188 97.0652 100.652 97.3204 100.583 97.4381Z" fill="black"/>
<path d="M92.7301 85.6627C92.6647 85.7772 92.7072 86.3692 93.8357 86.3169C93.3353 85.2898 92.7988 85.5449 92.7301 85.6627Z" fill="black"/>
<path d="M84.8786 89.5878C84.8132 89.7023 84.8557 90.2944 85.9842 90.242C85.4837 89.2149 84.9473 89.4701 84.8786 89.5878Z" fill="black"/>
<path d="M100.583 89.5878C100.514 89.7023 100.56 90.2944 101.688 90.242C101.188 89.2149 100.652 89.4701 100.583 89.5878Z" fill="black"/>
<path d="M84.8786 81.7376C84.8132 81.8521 84.8557 82.4441 85.9842 82.3918C85.4837 81.3647 84.9473 81.6198 84.8786 81.7376Z" fill="black"/>
<path d="M100.583 81.7376C100.514 81.8521 100.56 82.4441 101.688 82.3918C101.188 81.3647 100.652 81.6198 100.583 81.7376Z" fill="black"/>
<path d="M95.4511 78.2606C95.5994 78.1642 95.6683 77.9829 95.6212 77.8124C95.5558 77.7012 95.088 77.4853 94.6203 78.2606C94.5814 78.3238 94.5465 78.3893 94.5156 78.4568C94.8409 78.5061 95.1731 78.4364 95.4511 78.2606Z" fill="black"/>
<path d="M79.7519 78.2606C79.9002 78.1642 79.9691 77.9829 79.922 77.8124C79.8566 77.7012 79.3888 77.4853 78.9211 78.2606C78.8822 78.3238 78.8473 78.3893 78.8164 78.4568C79.1417 78.5061 79.4738 78.4364 79.7519 78.2606Z" fill="black"/>
<path d="M78.4779 116.233C78.3438 116.233 77.8532 116.56 78.4779 117.512C79.1027 116.567 78.612 116.233 78.4779 116.233Z" fill="black"/>
<path d="M78.4779 124.083C78.3438 124.083 77.8532 124.41 78.4779 125.362C79.1027 124.417 78.612 124.083 78.4779 124.083Z" fill="black"/>
<path d="M86.3256 120.158C86.1915 120.158 85.7008 120.485 86.3256 121.437C86.9503 120.492 86.4597 120.158 86.3256 120.158Z" fill="black"/>
<path d="M78.4779 108.383C78.3438 108.383 77.8532 108.71 78.4779 109.662C79.1027 108.716 78.612 108.383 78.4779 108.383Z" fill="black"/>
<path d="M86.3256 112.308C86.1915 112.308 85.7008 112.635 86.3256 113.587C86.9503 112.641 86.4597 112.308 86.3256 112.308Z" fill="black"/>
<path d="M78.8281 117.708C79.9599 117.77 79.9991 117.178 79.9337 117.054C79.8683 116.93 79.3155 116.691 78.8281 117.708Z" fill="black"/>
<path d="M79.6734 124.796H79.6047C79.5203 124.802 79.4386 124.828 79.3659 124.871L79.2809 124.93C79.1353 125.05 79.0133 125.195 78.9211 125.359C78.8822 125.422 78.8473 125.488 78.8164 125.555C79.1417 125.604 79.4738 125.535 79.7519 125.359C79.9002 125.263 79.9691 125.081 79.922 124.911C79.8598 124.838 79.769 124.796 79.6734 124.796Z" fill="black"/>
<path d="M86.6797 121.633C87.8114 121.695 87.8507 121.103 87.7853 120.979C87.7198 120.855 87.1671 120.616 86.6797 121.633Z" fill="black"/>
<path d="M78.8281 109.858C79.9599 109.92 79.9991 109.328 79.9337 109.204C79.8683 109.079 79.3155 108.841 78.8281 109.858Z" fill="black"/>
<path d="M86.6797 113.783C87.8114 113.845 87.8507 113.253 87.7853 113.129C87.7198 113.005 87.1671 112.766 86.6797 113.783Z" fill="black"/>
<path d="M84.8786 120.989C84.8132 121.103 84.8557 121.695 85.9842 121.643C85.4837 120.616 84.9473 120.871 84.8786 120.989Z" fill="black"/>
<path d="M84.8786 113.139C84.8132 113.253 84.8557 113.845 85.9842 113.793C85.4837 112.766 84.9473 113.021 84.8786 113.139Z" fill="black"/>
<path d="M86.3256 128.008C86.1915 128.008 85.7008 128.335 86.3256 129.287C86.9503 128.342 86.4597 128.008 86.3256 128.008Z" fill="black"/>
<path d="M86.6797 129.484C87.8114 129.546 87.8507 128.954 87.7853 128.829C87.7198 128.705 87.1671 128.466 86.6797 129.484Z" fill="black"/>
<path d="M84.8786 128.839C84.8132 128.954 84.8557 129.546 85.9842 129.493C85.4837 128.466 84.9473 128.721 84.8786 128.839Z" fill="black"/>
<path d="M62.7748 53.4308C62.6407 53.4308 62.15 53.7579 62.7748 54.7098C63.3995 53.7645 62.9089 53.4308 62.7748 53.4308Z" fill="black"/>
<path d="M55.1103 49.6136C55.1103 49.7903 55.1365 50.0356 55.1561 50.3431C55.283 50.1115 55.2652 49.8275 55.1103 49.6136Z" fill="black"/>
<path d="M63.9728 54.1439C63.8297 54.141 63.6904 54.1898 63.5803 54.2813C63.5136 54.3341 63.4523 54.3932 63.3971 54.4579C63.3314 54.5369 63.2723 54.6211 63.2205 54.7098V54.7294C63.1911 54.7817 63.1583 54.8406 63.1289 54.906C63.4542 54.9553 63.7863 54.8856 64.0644 54.7098C64.0876 54.6918 64.1095 54.6721 64.1298 54.6509C64.1625 54.6157 64.19 54.576 64.2116 54.5331C64.2583 54.4503 64.2667 54.3512 64.2345 54.2617C64.1701 54.1842 64.0735 54.1408 63.9728 54.1439Z" fill="black"/>
<path d="M55.2773 50.9809C56.4091 51.043 56.4483 50.451 56.3829 50.3267C56.3175 50.2024 55.7647 49.9636 55.2773 50.9809Z" fill="black"/>
<path d="M47.3746 69.4944C47.3688 69.4444 47.3544 69.3957 47.332 69.3505C47.3225 69.3301 47.3116 69.3105 47.2993 69.2916C47.2785 69.2598 47.2532 69.2311 47.2241 69.2066C47.2006 69.1863 47.1741 69.1698 47.1456 69.1575C47.1046 69.136 47.0557 69.136 47.0148 69.1575C46.8643 69.2229 46.619 69.4846 46.8937 70.093C46.9482 70.2063 47.0105 70.3156 47.0802 70.4201C47.1499 70.3156 47.2122 70.2063 47.2666 70.093C47.3438 69.9395 47.3862 69.7709 47.3909 69.5991C47.3927 69.5686 47.3927 69.538 47.3909 69.5075L47.3746 69.4944Z" fill="black"/>
<path d="M62.7748 69.1314C62.6407 69.1314 62.15 69.4585 62.7748 70.4103C63.3995 69.465 62.9089 69.1314 62.7748 69.1314Z" fill="black"/>
<path d="M62.7748 76.9816C62.6407 76.9816 62.15 77.3087 62.7748 78.2606C63.3995 77.3152 62.9089 76.9816 62.7748 76.9816Z" fill="black"/>
<path d="M47.3746 77.3447C47.3688 77.2946 47.3544 77.246 47.332 77.2008C47.3225 77.1804 47.3116 77.1607 47.2993 77.1419C47.2785 77.11 47.2532 77.0814 47.2241 77.0569C47.2006 77.0366 47.1741 77.02 47.1456 77.0078C47.1046 76.9863 47.0557 76.9863 47.0148 77.0078C46.8643 77.0732 46.619 77.3349 46.8937 77.9433C46.9482 78.0565 47.0105 78.1658 47.0802 78.2704C47.1499 78.1658 47.2122 78.0565 47.2666 77.9433C47.3438 77.7898 47.3862 77.6211 47.3909 77.4494C47.3927 77.4189 47.3927 77.3883 47.3909 77.3578L47.3746 77.3447Z" fill="black"/>
<path d="M54.9271 73.0565C54.793 73.0565 54.3024 73.3836 54.9271 74.3354C55.5519 73.3901 55.0612 73.0565 54.9271 73.0565Z" fill="black"/>
<path d="M70.6263 73.0565C70.4922 73.0565 70.0016 73.3836 70.6263 74.3354C71.2511 73.3901 70.7605 73.0565 70.6263 73.0565Z" fill="black"/>
<path d="M62.7748 61.2811C62.6407 61.2811 62.15 61.6082 62.7748 62.56C63.3995 61.6147 62.9089 61.2811 62.7748 61.2811Z" fill="black"/>
<path d="M54.9271 65.2062C54.793 65.2062 54.3024 65.5333 54.9271 66.4852C55.5519 65.5399 55.0612 65.2062 54.9271 65.2062Z" fill="black"/>
<path d="M70.6263 65.2062C70.4922 65.2062 70.0016 65.5333 70.6263 66.4852C71.2511 65.5399 70.7605 65.2062 70.6263 65.2062Z" fill="black"/>
<path d="M47.4297 70.6066C48.5614 70.6687 48.6007 70.0767 48.5353 69.9524C48.4698 69.8281 47.9171 69.5893 47.4297 70.6066Z" fill="black"/>
<path d="M63.1289 70.6066C64.2574 70.6687 64.2999 70.0767 64.2345 69.9524C64.1691 69.8281 63.6163 69.5893 63.1289 70.6066Z" fill="black"/>
<path d="M55.2773 74.5317C56.4091 74.5938 56.4483 74.0018 56.3829 73.8775C56.3175 73.7532 55.7647 73.5144 55.2773 74.5317Z" fill="black"/>
<path d="M70.9805 74.5317C72.1089 74.5938 72.1515 74.0018 72.086 73.8775C72.0206 73.7532 71.4678 73.5144 70.9805 74.5317Z" fill="black"/>
<path d="M63.1289 62.7563C64.2574 62.8184 64.2999 62.2264 64.2345 62.1021C64.1691 61.9778 63.6163 61.739 63.1289 62.7563Z" fill="black"/>
<path d="M55.2773 66.6814C56.4091 66.7436 56.4483 66.1515 56.3829 66.0272C56.3175 65.9029 55.7647 65.6642 55.2773 66.6814Z" fill="black"/>
<path d="M70.9805 66.6814C72.1089 66.7436 72.1515 66.1515 72.086 66.0272C72.0206 65.9029 71.4678 65.6642 70.9805 66.6814Z" fill="black"/>
<path d="M56.3727 58.1868C56.3073 58.0756 55.8298 57.8597 55.3555 58.6611C55.3555 58.72 55.3555 58.7756 55.3555 58.8312C56.3956 58.877 56.4382 58.298 56.3727 58.1868Z" fill="black"/>
<path d="M61.3278 69.9622C61.2624 70.0767 61.3049 70.6687 62.4334 70.6164C61.9329 69.5893 61.3965 69.8444 61.3278 69.9622Z" fill="black"/>
<path d="M61.3311 77.8124C61.284 77.9829 61.3528 78.1642 61.5012 78.2606C61.7794 78.4359 62.1114 78.5055 62.4366 78.4568C62.4058 78.3893 62.3708 78.3238 62.332 78.2606C61.8642 77.4755 61.3965 77.7012 61.3311 77.8124Z" fill="black"/>
<path d="M53.4801 73.8873C53.4147 74.0018 53.4572 74.5938 54.5857 74.5415C54.0853 73.5144 53.5488 73.7696 53.4801 73.8873Z" fill="black"/>
<path d="M77.0321 69.9622C76.9634 70.0767 77.0092 70.6687 78.1377 70.6164C77.6372 69.5893 77.1008 69.8444 77.0321 69.9622Z" fill="black"/>
<path d="M78.0312 78.2606C77.5634 77.4755 77.0957 77.7012 77.0303 77.8124C76.9832 77.9829 77.052 78.1642 77.2004 78.2606C77.4784 78.4364 77.8106 78.5061 78.1359 78.4568C78.105 78.3893 78.07 78.3238 78.0312 78.2606Z" fill="black"/>
<path d="M69.1805 73.8873C69.1118 74.0018 69.1576 74.5938 70.2861 74.5415C69.7856 73.5144 69.2492 73.7696 69.1805 73.8873Z" fill="black"/>
<path d="M61.3278 62.1119C61.2624 62.2264 61.3049 62.8184 62.4334 62.7661C61.9329 61.739 61.3965 61.9942 61.3278 62.1119Z" fill="black"/>
<path d="M53.4801 66.037C53.4147 66.1515 53.4572 66.7436 54.5857 66.6912C54.0853 65.6642 53.5488 65.9193 53.4801 66.037Z" fill="black"/>
<path d="M69.1805 66.037C69.1118 66.1515 69.1576 66.7436 70.2861 66.6912C69.7856 65.6642 69.2492 65.9193 69.1805 66.037Z" fill="black"/>
<path d="M69.6707 58.7821C69.6412 58.6905 69.6118 58.6022 69.5856 58.5073C69.5595 58.4125 69.5137 58.2228 69.481 58.069C69.3674 58.0563 69.2548 58.1003 69.18 58.1868C69.1277 58.2751 69.144 58.648 69.6707 58.7821Z" fill="black"/>
<path d="M62.3288 54.7098C62.277 54.6211 62.2179 54.5369 62.1522 54.4579C62.0979 54.3924 62.0365 54.3332 61.969 54.2813C61.859 54.1898 61.7196 54.141 61.5765 54.1439C61.4804 54.1447 61.3894 54.1878 61.3279 54.2617C61.2957 54.3512 61.3041 54.4503 61.3508 54.5331C61.3724 54.5761 61.3999 54.6157 61.4326 54.6509L61.498 54.7098C61.7763 54.8851 62.1082 54.9547 62.4335 54.906C62.4041 54.8406 62.3713 54.7817 62.3419 54.7294L62.3288 54.7098Z" fill="black"/>
<path d="M47.3746 93.0452C47.3688 92.9952 47.3544 92.9465 47.332 92.9013C47.3225 92.8809 47.3116 92.8612 47.2993 92.8424C47.2785 92.8105 47.2532 92.7819 47.2241 92.7574C47.2006 92.7371 47.1741 92.7206 47.1456 92.7083C47.1046 92.6868 47.0557 92.6868 47.0148 92.7083C46.8643 92.7737 46.619 93.0354 46.8937 93.6438C46.9482 93.757 47.0105 93.8663 47.0802 93.9709C47.1499 93.8663 47.2122 93.757 47.2666 93.6438C47.3438 93.4903 47.3862 93.3216 47.3909 93.1499C47.3927 93.1194 47.3927 93.0888 47.3909 93.0583L47.3746 93.0452Z" fill="black"/>
<path d="M62.7748 92.6821C62.6407 92.6821 62.15 93.0092 62.7748 93.9611C63.3995 93.0158 62.9089 92.6821 62.7748 92.6821Z" fill="black"/>
<path d="M62.7748 100.532C62.6407 100.532 62.15 100.86 62.7748 101.811C63.3995 100.866 62.9089 100.532 62.7748 100.532Z" fill="black"/>
<path d="M47.3746 100.895C47.3688 100.845 47.3544 100.797 47.332 100.752C47.3225 100.731 47.3116 100.712 47.2993 100.693C47.2785 100.661 47.2532 100.632 47.2241 100.608C47.2006 100.587 47.1741 100.571 47.1456 100.559C47.1048 100.536 47.0556 100.536 47.0148 100.559C46.8643 100.624 46.619 100.886 46.8937 101.494C46.9482 101.607 47.0105 101.717 47.0802 101.821C47.1499 101.717 47.2122 101.607 47.2666 101.494C47.3438 101.341 47.3862 101.172 47.3909 101C47.3927 100.97 47.3927 100.939 47.3909 100.909L47.3746 100.895Z" fill="black"/>
<path d="M54.9271 96.6073C54.793 96.6073 54.3024 96.9344 54.9271 97.8862C55.5519 96.9409 55.0612 96.6073 54.9271 96.6073Z" fill="black"/>
<path d="M70.6263 96.6073C70.4922 96.6073 70.0016 96.9344 70.6263 97.8862C71.2511 96.9409 70.7605 96.6073 70.6263 96.6073Z" fill="black"/>
<path d="M47.3746 85.195C47.3688 85.1449 47.3544 85.0962 47.332 85.051C47.3225 85.0307 47.3116 85.011 47.2993 84.9922C47.2785 84.9603 47.2532 84.9316 47.2241 84.9071C47.2006 84.8869 47.1741 84.8703 47.1456 84.8581C47.1046 84.8365 47.0557 84.8365 47.0148 84.8581C46.8643 84.9235 46.619 85.1852 46.8937 85.7935C46.9482 85.9068 47.0105 86.0161 47.0802 86.1206C47.1499 86.0161 47.2122 85.9068 47.2666 85.7935C47.3438 85.64 47.3862 85.4714 47.3909 85.2996C47.3927 85.2691 47.3927 85.2386 47.3909 85.208L47.3746 85.195Z" fill="black"/>
<path d="M62.7748 84.8319C62.6407 84.8319 62.15 85.159 62.7748 86.1108C63.3995 85.1655 62.9089 84.8319 62.7748 84.8319Z" fill="black"/>
<path d="M54.9271 88.757C54.793 88.757 54.3024 89.0841 54.9271 90.036C55.5519 89.0907 55.0612 88.757 54.9271 88.757Z" fill="black"/>
<path d="M70.6263 88.757C70.4922 88.757 70.0016 89.0841 70.6263 90.036C71.2511 89.0907 70.7605 88.757 70.6263 88.757Z" fill="black"/>
<path d="M54.9271 80.9067C54.793 80.9067 54.3024 81.2338 54.9271 82.1857C55.5519 81.2404 55.0612 80.9067 54.9271 80.9067Z" fill="black"/>
<path d="M70.6263 80.9067C70.4922 80.9067 70.0016 81.2338 70.6263 82.1857C71.2511 81.2404 70.7605 80.9067 70.6263 80.9067Z" fill="black"/>
<path d="M47.4297 94.1574C48.5614 94.2195 48.6007 93.6275 48.5353 93.5032C48.4698 93.3789 47.9171 93.1401 47.4297 94.1574Z" fill="black"/>
<path d="M63.1289 94.1574C64.2574 94.2195 64.2999 93.6275 64.2345 93.5032C64.1691 93.3789 63.6163 93.1401 63.1289 94.1574Z" fill="black"/>
<path d="M63.9728 101.245C63.8297 101.243 63.6904 101.291 63.5803 101.383C63.5136 101.436 63.4523 101.495 63.3971 101.559C63.3314 101.638 63.2723 101.723 63.2205 101.811V101.831C63.1911 101.883 63.1583 101.942 63.1289 102.008C63.4542 102.057 63.7863 101.987 64.0644 101.811C64.0876 101.793 64.1095 101.774 64.1298 101.752C64.1625 101.717 64.19 101.678 64.2116 101.635C64.2583 101.552 64.2667 101.453 64.2345 101.363C64.1701 101.286 64.0735 101.242 63.9728 101.245Z" fill="black"/>
<path d="M48.2736 101.245C48.1305 101.243 47.9911 101.291 47.8811 101.383C47.8144 101.436 47.7531 101.495 47.6979 101.559C47.6322 101.638 47.5731 101.723 47.5213 101.811V101.831C47.4918 101.883 47.4591 101.942 47.4297 102.008C47.755 102.057 48.0871 101.987 48.3652 101.811C48.3884 101.793 48.4103 101.774 48.4306 101.752C48.4633 101.717 48.4908 101.678 48.5124 101.635C48.5777 101.558 48.5875 101.448 48.5369 101.36C48.4862 101.273 48.386 101.227 48.2867 101.245H48.2736Z" fill="black"/>
<path d="M55.2773 98.0825C56.4091 98.1446 56.4483 97.5526 56.3829 97.4283C56.3175 97.304 55.7647 97.0652 55.2773 98.0825Z" fill="black"/>
<path d="M70.9805 98.0825C72.1089 98.1446 72.1515 97.5526 72.086 97.4283C72.0206 97.304 71.4678 97.0652 70.9805 98.0825Z" fill="black"/>
<path d="M47.4297 86.3071C48.5614 86.3692 48.6007 85.7772 48.5353 85.6529C48.4698 85.5286 47.9171 85.2898 47.4297 86.3071Z" fill="black"/>
<path d="M63.1289 86.3071C64.2574 86.3692 64.2999 85.7772 64.2345 85.6529C64.1691 85.5286 63.6163 85.2898 63.1289 86.3071Z" fill="black"/>
<path d="M55.2773 90.2322C56.4091 90.2944 56.4483 89.7023 56.3829 89.578C56.3175 89.4537 55.7647 89.2149 55.2773 90.2322Z" fill="black"/>
<path d="M70.9805 90.2322C72.1089 90.2944 72.1515 89.7023 72.086 89.578C72.0206 89.4537 71.4678 89.2149 70.9805 90.2322Z" fill="black"/>
<path d="M55.2773 82.3819C56.4091 82.4441 56.4483 81.852 56.3829 81.7277C56.3175 81.6034 55.7647 81.3647 55.2773 82.3819Z" fill="black"/>
<path d="M70.9805 82.3819C72.1089 82.4441 72.1515 81.852 72.086 81.7277C72.0206 81.6034 71.4678 81.3647 70.9805 82.3819Z" fill="black"/>
<path d="M61.3278 93.513C61.2624 93.6275 61.3049 94.2195 62.4334 94.1672C61.9329 93.1401 61.3965 93.3952 61.3278 93.513Z" fill="black"/>
<path d="M53.4801 97.4381C53.4147 97.5526 53.4572 98.1446 54.5857 98.0923C54.0853 97.0652 53.5488 97.3204 53.4801 97.4381Z" fill="black"/>
<path d="M77.0321 93.513C76.9634 93.6275 77.0092 94.2195 78.1377 94.1672C77.6372 93.1401 77.1008 93.3952 77.0321 93.513Z" fill="black"/>
<path d="M69.1805 97.4381C69.1118 97.5526 69.1576 98.1446 70.2861 98.0923C69.7856 97.0652 69.2492 97.3204 69.1805 97.4381Z" fill="black"/>
<path d="M48.9297 102.793C48.9297 102.793 57.4341 104.974 68.117 96.6891C78.7999 88.4038 82.9475 91.6714 82.5092 97.5591C82.0709 103.447 72.9155 108.899 68.9904 109.554C62.5368 110.63 56.7799 112.39 48.9297 102.793Z" fill="black"/>
<path d="M61.3278 85.6627C61.2624 85.7772 61.3049 86.3692 62.4334 86.3169C61.9329 85.2898 61.3965 85.5449 61.3278 85.6627Z" fill="black"/>
<path d="M53.4801 89.5878C53.4147 89.7023 53.4572 90.2944 54.5857 90.242C54.0853 89.2149 53.5488 89.4701 53.4801 89.5878Z" fill="black"/>
<path d="M77.0321 85.6627C76.9634 85.7772 77.0092 86.3692 78.1377 86.3169C77.6372 85.2898 77.1008 85.5449 77.0321 85.6627Z" fill="black"/>
<path d="M69.1805 89.5878C69.1118 89.7023 69.1576 90.2944 70.2861 90.242C69.7856 89.2149 69.2492 89.4701 69.1805 89.5878Z" fill="black"/>
<path d="M53.4801 81.7376C53.4147 81.8521 53.4572 82.4441 54.5857 82.3918C54.0853 81.3647 53.5488 81.6198 53.4801 81.7376Z" fill="black"/>
<path d="M69.1805 81.7376C69.1118 81.8521 69.1576 82.4441 70.2861 82.3918C69.7856 81.3647 69.2492 81.6198 69.1805 81.7376Z" fill="black"/>
<path d="M64.0527 78.2606C64.201 78.1642 64.2698 77.9829 64.2228 77.8124C64.1573 77.7012 63.6896 77.4853 63.2219 78.2606C63.183 78.3238 63.148 78.3893 63.1172 78.4568C63.4425 78.5061 63.7746 78.4364 64.0527 78.2606Z" fill="black"/>
<path d="M48.3496 78.2606C48.4979 78.1642 48.5667 77.9829 48.5196 77.8124C48.4542 77.7012 47.9865 77.4853 47.5187 78.2606C47.4799 78.3238 47.4449 78.3893 47.4141 78.4568C47.7393 78.5061 48.0715 78.4364 48.3496 78.2606Z" fill="black"/>
<path d="M47.3746 116.596C47.3688 116.546 47.3544 116.497 47.332 116.452C47.3225 116.432 47.3116 116.412 47.2993 116.393C47.2785 116.361 47.2532 116.333 47.2241 116.308C47.2006 116.288 47.1741 116.271 47.1456 116.259C47.1048 116.237 47.0556 116.237 47.0148 116.259C46.8643 116.325 46.619 116.586 46.8937 117.195C46.9482 117.308 47.0105 117.417 47.0802 117.522C47.1499 117.417 47.2122 117.308 47.2666 117.195C47.3438 117.041 47.3862 116.872 47.3909 116.701C47.3927 116.67 47.3927 116.64 47.3909 116.609L47.3746 116.596Z" fill="black"/>
<path d="M62.7748 116.233C62.6407 116.233 62.15 116.56 62.7748 117.512C63.3995 116.567 62.9089 116.233 62.7748 116.233Z" fill="black"/>
<path d="M62.7748 124.083C62.6407 124.083 62.15 124.41 62.7748 125.362C63.3995 124.417 62.9089 124.083 62.7748 124.083Z" fill="black"/>
<path d="M47.3746 124.446C47.3688 124.396 47.3544 124.348 47.332 124.302C47.3225 124.282 47.3116 124.262 47.2993 124.243C47.2785 124.212 47.2532 124.183 47.2241 124.158C47.2006 124.138 47.1741 124.122 47.1456 124.109C47.1048 124.087 47.0556 124.087 47.0148 124.109C46.8643 124.175 46.619 124.436 46.8937 125.045C46.9482 125.158 47.0105 125.267 47.0802 125.372C47.1499 125.267 47.2122 125.158 47.2666 125.045C47.3438 124.891 47.3862 124.723 47.3909 124.551C47.3927 124.52 47.3927 124.49 47.3909 124.459L47.3746 124.446Z" fill="black"/>
<path d="M54.9271 120.158C54.793 120.158 54.3024 120.485 54.9271 121.437C55.5519 120.492 55.0612 120.158 54.9271 120.158Z" fill="black"/>
<path d="M70.6263 120.158C70.4922 120.158 70.0016 120.485 70.6263 121.437C71.2511 120.492 70.7605 120.158 70.6263 120.158Z" fill="black"/>
<path d="M47.3746 108.746C47.3688 108.696 47.3544 108.647 47.332 108.602C47.3225 108.581 47.3116 108.562 47.2993 108.543C47.2785 108.511 47.2532 108.482 47.2241 108.458C47.2006 108.438 47.1741 108.421 47.1456 108.409C47.1048 108.387 47.0556 108.387 47.0148 108.409C46.8643 108.474 46.619 108.736 46.8937 109.344C46.9482 109.458 47.0105 109.567 47.0802 109.671C47.1499 109.567 47.2122 109.458 47.2666 109.344C47.3438 109.191 47.3862 109.022 47.3909 108.85C47.3927 108.82 47.3927 108.789 47.3909 108.759L47.3746 108.746Z" fill="black"/>
<path d="M62.7748 108.383C62.6407 108.383 62.15 108.71 62.7748 109.662C63.3995 108.716 62.9089 108.383 62.7748 108.383Z" fill="black"/>
<path d="M54.9271 112.308C54.793 112.308 54.3024 112.635 54.9271 113.587C55.5519 112.641 55.0612 112.308 54.9271 112.308Z" fill="black"/>
<path d="M70.6263 112.308C70.4922 112.308 70.0016 112.635 70.6263 113.587C71.2511 112.641 70.7605 112.308 70.6263 112.308Z" fill="black"/>
<path d="M54.9271 104.458C54.793 104.458 54.3024 104.785 54.9271 105.736C55.5519 104.791 55.0612 104.458 54.9271 104.458Z" fill="black"/>
<path d="M70.6263 104.458C70.4922 104.458 70.0016 104.785 70.6263 105.736C71.2511 104.791 70.7605 104.458 70.6263 104.458Z" fill="black"/>
<path d="M47.4297 117.708C48.5614 117.77 48.6007 117.178 48.5353 117.054C48.4698 116.93 47.9171 116.691 47.4297 117.708Z" fill="black"/>
<path d="M63.1289 117.708C64.2574 117.77 64.2999 117.178 64.2345 117.054C64.1691 116.93 63.6163 116.691 63.1289 117.708Z" fill="black"/>
<path d="M63.9742 124.796H63.9055C63.8211 124.802 63.7394 124.828 63.6667 124.871L63.5817 124.93C63.4361 125.05 63.3141 125.195 63.2219 125.359C63.183 125.422 63.148 125.488 63.1172 125.555C63.4425 125.604 63.7746 125.535 64.0527 125.359C64.201 125.263 64.2698 125.081 64.2228 124.911C64.1606 124.838 64.0698 124.796 63.9742 124.796Z" fill="black"/>
<path d="M48.271 124.796H48.2024C48.118 124.802 48.0362 124.828 47.9636 124.871L47.8785 124.93C47.733 125.05 47.6109 125.195 47.5187 125.359C47.4799 125.422 47.4449 125.488 47.4141 125.555C47.7393 125.604 48.0715 125.535 48.3496 125.359C48.4979 125.263 48.5667 125.081 48.5196 124.911C48.4575 124.838 48.3667 124.796 48.271 124.796Z" fill="black"/>
<path d="M55.2773 121.633C56.4091 121.695 56.4483 121.103 56.3829 120.979C56.3175 120.855 55.7647 120.616 55.2773 121.633Z" fill="black"/>
<path d="M70.9805 121.633C72.1089 121.695 72.1515 121.103 72.086 120.979C72.0206 120.855 71.4678 120.616 70.9805 121.633Z" fill="black"/>
<path d="M47.4297 109.858C48.5614 109.92 48.6007 109.328 48.5353 109.204C48.4698 109.079 47.9171 108.841 47.4297 109.858Z" fill="black"/>
<path d="M63.1289 109.858C64.2574 109.92 64.2999 109.328 64.2345 109.204C64.1691 109.079 63.6163 108.841 63.1289 109.858Z" fill="black"/>
<path d="M55.2773 113.783C56.4091 113.845 56.4483 113.253 56.3829 113.129C56.3175 113.005 55.7647 112.766 55.2773 113.783Z" fill="black"/>
<path d="M70.9805 113.783C72.1089 113.845 72.1515 113.253 72.086 113.129C72.0206 113.005 71.4678 112.766 70.9805 113.783Z" fill="black"/>
<path d="M55.2773 105.933C56.4091 105.995 56.4483 105.403 56.3829 105.279C56.3175 105.154 55.7647 104.915 55.2773 105.933Z" fill="black"/>
<path d="M70.9805 105.933C72.1089 105.995 72.1515 105.403 72.086 105.279C72.0206 105.154 71.4678 104.915 70.9805 105.933Z" fill="black"/>
<path d="M61.3278 117.064C61.2624 117.178 61.3049 117.77 62.4334 117.718C61.9329 116.691 61.3965 116.946 61.3278 117.064Z" fill="black"/>
<path d="M61.9722 124.95L61.8871 124.891C61.8147 124.847 61.7328 124.822 61.6483 124.816H61.5797C61.4835 124.817 61.3926 124.86 61.3311 124.934C61.284 125.104 61.3528 125.285 61.5012 125.382C61.7794 125.557 62.1114 125.627 62.4366 125.578C62.4058 125.511 62.3708 125.445 62.332 125.382C62.2412 125.216 62.119 125.069 61.9722 124.95Z" fill="black"/>
<path d="M53.4801 120.989C53.4147 121.103 53.4572 121.695 54.5857 121.643C54.0853 120.616 53.5488 120.871 53.4801 120.989Z" fill="black"/>
<path d="M77.0321 117.064C76.9634 117.178 77.0092 117.77 78.1377 117.718C77.6372 116.691 77.1008 116.946 77.0321 117.064Z" fill="black"/>
<path d="M78.0312 125.362C77.939 125.198 77.8169 125.053 77.6714 124.934L77.5863 124.875C77.5137 124.831 77.4319 124.806 77.3476 124.8H77.2789C77.1827 124.8 77.0918 124.843 77.0303 124.917C76.9832 125.088 77.052 125.269 77.2004 125.365C77.4784 125.541 77.8106 125.611 78.1359 125.562C78.105 125.494 78.07 125.429 78.0312 125.365V125.362Z" fill="black"/>
<path d="M69.1805 120.989C69.1118 121.103 69.1576 121.695 70.2861 121.643C69.7856 120.616 69.2492 120.871 69.1805 120.989Z" fill="black"/>
<path d="M61.3278 109.214C61.2624 109.328 61.3049 109.92 62.4334 109.868C61.9329 108.841 61.3965 109.096 61.3278 109.214Z" fill="black"/>
<path d="M53.4801 113.139C53.4147 113.253 53.4572 113.845 54.5857 113.793C54.0853 112.766 53.5488 113.021 53.4801 113.139Z" fill="black"/>
<path d="M77.0321 109.214C76.9634 109.328 77.0092 109.92 78.1377 109.868C77.6372 108.841 77.1008 109.096 77.0321 109.214Z" fill="black"/>
<path d="M69.1805 113.139C69.1118 113.253 69.1576 113.845 70.2861 113.793C69.7856 112.766 69.2492 113.021 69.1805 113.139Z" fill="black"/>
<path d="M53.4801 105.288C53.4147 105.403 53.4572 105.995 54.5857 105.943C54.0853 104.915 53.5488 105.171 53.4801 105.288Z" fill="black"/>
<path d="M69.1805 105.288C69.1118 105.403 69.1576 105.995 70.2861 105.943C69.7856 104.915 69.2492 105.171 69.1805 105.288Z" fill="black"/>
<path d="M62.3288 101.811C62.277 101.723 62.2179 101.638 62.1522 101.559C62.0979 101.494 62.0365 101.435 61.969 101.383C61.859 101.291 61.7196 101.243 61.5765 101.245C61.4804 101.246 61.3894 101.289 61.3279 101.363C61.2957 101.453 61.3041 101.552 61.3508 101.635C61.3724 101.678 61.3999 101.717 61.4326 101.752L61.498 101.811C61.7763 101.987 62.1082 102.056 62.4335 102.008C62.4041 101.942 62.3713 101.883 62.3419 101.831L62.3288 101.811Z" fill="black"/>
<path d="M78.0319 101.811C77.9801 101.723 77.921 101.638 77.8553 101.559C77.8001 101.495 77.7388 101.436 77.6721 101.383C77.5621 101.291 77.4227 101.243 77.2796 101.245C77.1835 101.246 77.0926 101.289 77.031 101.363C76.9988 101.453 77.0072 101.552 77.0539 101.635C77.0755 101.678 77.103 101.717 77.1357 101.752C77.156 101.774 77.1779 101.793 77.2011 101.811C77.4792 101.987 77.8113 102.057 78.1366 102.008C78.1072 101.942 78.0745 101.883 78.045 101.831C78.0396 101.825 78.0351 101.819 78.0319 101.811Z" fill="black"/>
<path d="M54.9271 128.008C54.793 128.008 54.3024 128.335 54.9271 129.287C55.5519 128.342 55.0612 128.008 54.9271 128.008Z" fill="black"/>
<path d="M70.6263 128.008C70.4922 128.008 70.0016 128.335 70.6263 129.287C71.2511 128.342 70.7605 128.008 70.6263 128.008Z" fill="black"/>
<path d="M55.2773 129.484C56.4091 129.546 56.4483 128.954 56.3829 128.829C56.3175 128.705 55.7647 128.466 55.2773 129.484Z" fill="black"/>
<path d="M70.9805 129.484C72.1089 129.546 72.1515 128.954 72.086 128.829C72.0206 128.705 71.4678 128.466 70.9805 129.484Z" fill="black"/>
<path d="M53.4801 128.839C53.4147 128.954 53.4572 129.546 54.5857 129.493C54.0853 128.466 53.5488 128.721 53.4801 128.839Z" fill="black"/>
<path d="M69.1805 128.839C69.1118 128.954 69.1576 129.546 70.2861 129.493C69.7856 128.466 69.2492 128.721 69.1805 128.839Z" fill="black"/>
<path d="M31.3724 76.9816C31.2383 76.9816 30.7477 77.3087 31.3724 78.2606C31.9972 77.3152 31.5065 76.9816 31.3724 76.9816Z" fill="black"/>
<path d="M39.224 73.0565C39.0899 73.0565 38.5993 73.3836 39.224 74.3354C39.8488 73.3901 39.3581 73.0565 39.224 73.0565Z" fill="black"/>
<path d="M39.5126 65.5072L38.9141 65.6609C38.9341 65.9603 39.0422 66.2471 39.2248 66.4852C39.529 66.0272 39.5781 65.71 39.5126 65.5072Z" fill="black"/>
<path d="M31.7266 70.6066C32.855 70.6687 32.8976 70.0767 32.8321 69.9524C32.7667 69.8281 32.2139 69.5893 31.7266 70.6066Z" fill="black"/>
<path d="M39.5781 74.5317C40.7066 74.5938 40.7491 74.0018 40.6837 73.8775C40.6183 73.7532 40.0655 73.5144 39.5781 74.5317Z" fill="black"/>
<path d="M39.5781 66.6814C40.7066 66.7436 40.7491 66.1515 40.6837 66.0272C40.6183 65.9029 40.0655 65.6642 39.5781 66.6814Z" fill="black"/>
<path d="M29.9287 77.8124C29.8817 77.9829 29.9505 78.1642 30.0988 78.2606C30.3771 78.4359 30.709 78.5055 31.0343 78.4568C31.0034 78.3893 30.9685 78.3238 30.9296 78.2606C30.4619 77.4755 29.9941 77.7012 29.9287 77.8124Z" fill="black"/>
<path d="M45.6297 69.9622C45.561 70.0767 45.6068 70.6687 46.7353 70.6164C46.2349 69.5893 45.6984 69.8444 45.6297 69.9622Z" fill="black"/>
<path d="M46.6288 78.2606C46.1611 77.4755 45.6934 77.7012 45.6279 77.8124C45.5809 77.9829 45.6497 78.1642 45.798 78.2606C46.0761 78.4364 46.4082 78.5061 46.7335 78.4568C46.7027 78.3893 46.6677 78.3238 46.6288 78.2606Z" fill="black"/>
<path d="M37.7782 73.8873C37.7095 74.0018 37.7553 74.5938 38.8837 74.5415C38.3833 73.5144 37.8469 73.7696 37.7782 73.8873Z" fill="black"/>
<path d="M38.0169 65.9226L37.8469 65.9749C37.8197 65.9904 37.7963 66.0116 37.7782 66.037C37.7095 66.1515 37.7553 66.7436 38.8837 66.6912C38.5665 66.0338 38.2361 65.9029 38.0169 65.9226Z" fill="black"/>
<path d="M15.6732 92.6821C15.5391 92.6821 15.0485 93.0092 15.6732 93.9611C16.298 93.0158 15.8073 92.6821 15.6732 92.6821Z" fill="black"/>
<path d="M23.5248 96.6073C23.3907 96.6073 22.9 96.9344 23.5248 97.8862C24.1495 96.9409 23.6589 96.6073 23.5248 96.6073Z" fill="black"/>
<path d="M31.3724 84.8319C31.2383 84.8319 30.7477 85.159 31.3724 86.1108C31.9972 85.1655 31.5065 84.8319 31.3724 84.8319Z" fill="black"/>
<path d="M23.5248 88.757C23.3907 88.757 22.9 89.0841 23.5248 90.036C24.1495 89.0907 23.6589 88.757 23.5248 88.757Z" fill="black"/>
<path d="M39.224 88.757C39.0899 88.757 38.5993 89.0841 39.224 90.036C39.8488 89.0907 39.3581 88.757 39.224 88.757Z" fill="black"/>
<path d="M23.5248 80.9067C23.3907 80.9067 22.9 81.2338 23.5248 82.1857C24.1495 81.2404 23.6589 80.9067 23.5248 80.9067Z" fill="black"/>
<path d="M39.224 80.9067C39.0899 80.9067 38.5993 81.2338 39.224 82.1857C39.8488 81.2404 39.3581 80.9067 39.224 80.9067Z" fill="black"/>
<path d="M16.0273 94.1574C17.1591 94.2195 17.2016 93.6275 17.1329 93.5032C17.0642 93.3789 16.5147 93.1401 16.0273 94.1574Z" fill="black"/>
<path d="M24.0586 97.7488C24.3497 97.6409 24.6343 97.5199 24.9156 97.3825C24.7782 97.2909 24.4249 97.2287 24.0586 97.7488Z" fill="black"/>
<path d="M17.1187 85.6627C17.0801 85.6134 17.0259 85.5788 16.9649 85.5646C16.7621 85.823 16.5692 86.0683 16.4023 86.3005C17.1514 86.222 17.1776 85.7641 17.1187 85.6627Z" fill="black"/>
<path d="M31.7266 86.3071C32.855 86.3692 32.8976 85.7772 32.8321 85.6529C32.7667 85.5286 32.2139 85.2898 31.7266 86.3071Z" fill="black"/>
<path d="M23.8789 90.2322C25.0107 90.2944 25.0499 89.7023 24.9845 89.578C24.9191 89.4537 24.3663 89.2149 23.8789 90.2322Z" fill="black"/>
<path d="M39.5781 90.2322C40.7066 90.2944 40.7491 89.7023 40.6837 89.578C40.6183 89.4537 40.0655 89.2149 39.5781 90.2322Z" fill="black"/>
<path d="M23.8789 82.3819C25.0107 82.4441 25.0499 81.852 24.9845 81.7277C24.9191 81.6034 24.3663 81.3647 23.8789 82.3819Z" fill="black"/>
<path d="M39.5781 82.3819C40.7066 82.4441 40.7491 81.852 40.6837 81.7277C40.6183 81.6034 40.0655 81.3647 39.5781 82.3819Z" fill="black"/>
<path d="M22.0787 97.4381C22.0166 97.5428 22.0493 98.04 22.9095 98.0923L23.1549 98.0367C22.6642 97.0783 22.1474 97.3236 22.0787 97.4381Z" fill="black"/>
<path d="M45.6297 93.513C45.561 93.6275 45.6068 94.2195 46.7353 94.1672C46.2349 93.1401 45.6984 93.3952 45.6297 93.513Z" fill="black"/>
<path d="M29.9294 85.6627C29.8639 85.7772 29.9065 86.3692 31.0349 86.3169C30.5345 85.2898 29.998 85.5449 29.9294 85.6627Z" fill="black"/>
<path d="M22.0778 89.5878C22.0124 89.7023 22.0549 90.2944 23.1834 90.242C22.6829 89.2149 22.1465 89.4701 22.0778 89.5878Z" fill="black"/>
<path d="M45.6297 85.6627C45.561 85.7772 45.6068 86.3692 46.7353 86.3169C46.2349 85.2898 45.6984 85.5449 45.6297 85.6627Z" fill="black"/>
<path d="M22.0778 81.7376C22.0124 81.8521 22.0549 82.4441 23.1834 82.3918C22.6829 81.3647 22.1465 81.6198 22.0778 81.7376Z" fill="black"/>
<path d="M37.7782 81.7376C37.7095 81.8521 37.7553 82.4441 38.8837 82.3918C38.3833 81.3647 37.8469 81.6198 37.7782 81.7376Z" fill="black"/>
<path d="M32.6503 78.2606C32.7987 78.1642 32.8675 77.9829 32.8204 77.8124C32.755 77.7012 32.2873 77.4853 31.8195 78.2606C31.7807 78.3238 31.7457 78.3893 31.7148 78.4568C32.0401 78.5061 32.3723 78.4364 32.6503 78.2606Z" fill="black"/>
<path d="M39.224 120.158C39.0899 120.158 38.5993 120.485 39.224 121.437C39.8488 120.492 39.3581 120.158 39.224 120.158Z" fill="black"/>
<path d="M39.4767 113.09L39.2019 113.551L39.2248 113.587C39.3307 113.433 39.4154 113.266 39.4767 113.09V113.09Z" fill="black"/>
<path d="M39.5781 121.633C40.7066 121.695 40.7491 121.103 40.6837 120.979C40.6183 120.855 40.0655 120.616 39.5781 121.633Z" fill="black"/>
<path d="M39.5781 113.783C40.7066 113.845 40.7491 113.253 40.6837 113.129C40.6183 113.005 40.0655 112.766 39.5781 113.783Z" fill="black"/>
<path d="M45.6297 117.064C45.561 117.178 45.6068 117.77 46.7353 117.718C46.2349 116.691 45.6984 116.946 45.6297 117.064Z" fill="black"/>
<path d="M46.6288 125.362C46.5366 125.198 46.4146 125.053 46.269 124.934L46.184 124.875C46.1114 124.831 46.0296 124.806 45.9452 124.8H45.8765C45.7804 124.8 45.6895 124.843 45.6279 124.917C45.5809 125.088 45.6497 125.269 45.798 125.365C46.0761 125.541 46.4082 125.611 46.7335 125.562C46.7027 125.494 46.6677 125.429 46.6288 125.365V125.362Z" fill="black"/>
<path d="M37.7782 120.989C37.7095 121.103 37.7553 121.695 38.8837 121.643C38.3833 120.616 37.8469 120.871 37.7782 120.989Z" fill="black"/>
<path d="M45.6297 109.214C45.561 109.328 45.6068 109.92 46.7353 109.868C46.2349 108.841 45.6984 109.096 45.6297 109.214Z" fill="black"/>
<path d="M46.6296 101.811C46.5778 101.723 46.5187 101.638 46.453 101.559C46.3978 101.495 46.3365 101.436 46.2698 101.383C46.1597 101.291 46.0204 101.243 45.8773 101.245C45.7811 101.246 45.6902 101.289 45.6287 101.363C45.5965 101.453 45.6048 101.552 45.6516 101.635C45.6732 101.678 45.7007 101.717 45.7334 101.752C45.7537 101.774 45.7755 101.793 45.7988 101.811C46.0768 101.987 46.409 102.057 46.7343 102.008C46.7048 101.942 46.6721 101.883 46.6427 101.831L46.6296 101.811Z" fill="black"/>
<path d="M39.224 128.008C39.0899 128.008 38.5993 128.335 39.224 129.287C39.8488 128.342 39.3581 128.008 39.224 128.008Z" fill="black"/>
<path d="M39.5781 129.484C40.7066 129.546 40.7491 128.954 40.6837 128.829C40.6183 128.705 40.0655 128.466 39.5781 129.484Z" fill="black"/>
<path d="M37.7782 128.839C37.7095 128.954 37.7553 129.546 38.8837 129.493C38.3833 128.466 37.8469 128.721 37.7782 128.839Z" fill="black"/>
<path d="M14.9062 93.5653C14.9712 93.7675 15.0466 93.9662 15.1319 94.1606H15.3347C15.2354 93.9342 15.0894 93.7314 14.9063 93.5653H14.9062Z" fill="black"/>
</g>
<path d="M91.3331 129.614C91.3331 129.614 91.9186 121.584 88.3893 113.551C84.8599 105.517 84.0651 104.938 84.0651 102.587C84.0651 100.235 86.4267 97.4904 86.8192 92.2013C87.2117 86.9122 87.0155 84.3511 87.0155 84.3511C87.0155 84.3511 95.4381 97.6703 101.316 98.4554C107.194 99.2404 110.72 93.755 108.564 86.3104C106.409 78.8657 97.0049 72.7948 93.2859 67.895C89.5668 62.9951 81.1376 62.9885 76.8298 62.9885C72.5219 62.9885 70.3664 61.4218 69.5813 58.4844C68.7963 55.5471 68.7996 49.6529 68.7996 49.6529C68.7996 49.6529 63.7035 52.7865 55.0845 49.2604C55.0845 49.2604 55.8696 60.0349 54.8883 61.6017C53.907 63.1684 52.5463 64.7647 46.6684 64.7647C40.7905 64.7647 35.8939 65.9422 33.1529 68.6898C30.4118 71.4374 19.0486 82.4016 16.1112 86.7127C13.1739 91.0238 14.7375 95.7241 18.2635 97.4872C21.7896 99.2502 25.3157 97.6802 27.8637 95.3316C30.4118 92.9831 38.442 85.5351 38.442 85.5351C38.442 85.5351 38.442 90.0425 40.5975 96.5059C42.7531 102.969 44.5227 102.188 42.9461 106.888C41.3695 111.588 38.2457 112.962 37.2677 119.033C36.6819 122.527 36.4191 126.068 36.4827 129.611" stroke="#263238" stroke-width="0.5" stroke-linecap="round" stroke-linejoin="round"/>
<path d="M38.4414 85.5384C38.6021 83.4197 39.0364 81.3308 39.7334 79.3236L38.4414 85.5384Z" fill="white"/>
<path d="M38.4414 85.5384C38.6021 83.4197 39.0364 81.3308 39.7334 79.3236" stroke="#263238" stroke-width="0.5" stroke-linecap="round" stroke-linejoin="round"/>
<path d="M87.008 84.3641C86.5766 82.7384 85.977 81.162 85.2188 79.6605" stroke="#263238" stroke-width="0.5" stroke-linecap="round" stroke-linejoin="round"/>
<path d="M58.2344 106.077L70.5724 102.122" stroke="#263238" stroke-width="0.5" stroke-linecap="round" stroke-linejoin="round"/>
<path d="M63.8203 102.819C66.7027 101.659 69.7105 100.839 72.7827 100.375" stroke="#263238" stroke-width="0.5" stroke-linecap="round" stroke-linejoin="round"/>
<path d="M60.3772 77.9008C70.1507 79.7848 73.9221 70.4168 75.2338 62.9297C71.9792 62.5698 70.2652 61.0554 69.5849 58.5073C68.8031 55.5635 68.8031 49.6758 68.8031 49.6758C68.8031 49.6758 63.707 52.8094 55.088 49.2833C55.088 49.2833 55.8731 60.0578 54.8918 61.6245C54.2114 62.717 53.3348 63.8095 50.8816 64.3689C50.7933 67.7314 51.4704 76.1802 60.3772 77.9008Z" fill="#B2B2B2"/>
<path opacity="0.2" d="M69.374 57.5391C68.8049 54.4448 68.8049 49.6889 68.8049 49.6889C68.8049 49.6889 63.7088 52.8224 55.0898 49.2964C55.0898 49.2964 55.4169 53.8005 55.3842 57.4083C62.8027 59.9858 67.0942 58.8933 69.374 57.5391Z" fill="black"/>
<path fill-rule="evenodd" clip-rule="evenodd" d="M60.3772 77.9008C70.1507 79.7848 73.9221 70.4168 75.2338 62.9297C71.9792 62.5698 70.2652 61.0554 69.5849 58.5073C68.8031 55.5635 68.8031 49.6758 68.8031 49.6758C68.8031 49.6758 63.707 52.8094 55.088 49.2833C55.088 49.2833 55.8731 60.0578 54.8918 61.6245C54.2114 62.717 53.3348 63.8095 50.8816 64.3689C50.7933 67.7314 51.4704 76.1802 60.3772 77.9008Z" stroke="#263238" stroke-width="0.5" stroke-linecap="round" stroke-linejoin="round"/>
<circle cx="75.1575" cy="43.5068" r="2.42704" fill="#ADC7F7" stroke="#263238" stroke-width="0.5" stroke-linecap="round" stroke-linejoin="round"/>
<circle cx="49.2317" cy="43.5068" r="2.42704" fill="#ADC7F7" stroke="#263238" stroke-width="0.5" stroke-linecap="round" stroke-linejoin="round"/>
<path d="M74.9349 35.2346C74.9349 35.2346 76.1484 31.4828 77.5844 32.8076C79.0203 34.1323 77.1428 39.2055 76.1484 40.419C75.1541 41.6326 74.163 41.6326 74.2742 39.9775C74.3854 38.3224 74.9349 35.2346 74.9349 35.2346Z" fill="#B2B2B2" stroke="#263238" stroke-width="0.5" stroke-linecap="round" stroke-linejoin="round"/>
<path d="M49.8477 39.0092C49.8477 39.0092 50.1748 47.7721 56.625 52.0701C63.0753 56.3681 67.8673 53.8888 70.5135 50.2515C73.1597 46.6142 74.8148 42.9769 74.8148 37.6878C74.8148 32.3987 75.4689 30.0796 73.6568 26.7727C71.8447 23.4657 65.5547 21.8139 65.5547 21.8139C62.9416 25.075 60.1252 28.1679 57.1222 31.0739C52.1602 35.8659 49.8477 39.0092 49.8477 39.0092Z" fill="#B2B2B2"/>
<path opacity="0.2" d="M65.5547 21.8139C62.9416 25.075 60.1252 28.1679 57.1222 31.0739C52.1602 35.8659 49.8477 39.0092 49.8477 39.0092C49.9675 40.7166 50.3049 42.4017 50.8518 44.0236C59.5656 37.3574 64.3248 25.3792 65.5907 21.8237L65.5547 21.8139Z" fill="black"/>
<path fill-rule="evenodd" clip-rule="evenodd" d="M49.8477 39.0092C49.8477 39.0092 50.1748 47.7721 56.625 52.0701C63.0753 56.3681 67.8673 53.8888 70.5135 50.2515C73.1597 46.6142 74.8148 42.9769 74.8148 37.6878C74.8148 32.3987 75.4689 30.0796 73.6568 26.7727C71.8447 23.4657 65.5547 21.8139 65.5547 21.8139C62.9416 25.075 60.1252 28.1679 57.1222 31.0739C52.1602 35.8659 49.8477 39.0092 49.8477 39.0092Z" stroke="#263238" stroke-width="0.5" stroke-linecap="round" stroke-linejoin="round"/>
<path d="M55.9453 37.9789L59.6578 38.3256" stroke="#263238" stroke-width="0.5" stroke-linecap="round" stroke-linejoin="round"/>
<path d="M67.1992 37.8612C67.1992 37.8612 69.6361 37.3967 70.7973 37.8612" stroke="#263238" stroke-width="0.5" stroke-linecap="round" stroke-linejoin="round"/>
<path d="M59.1576 36.2813C59.1576 37.1644 58.7618 37.8808 58.2744 37.8808C57.787 37.8808 57.3945 37.1644 57.3945 36.2813C57.3945 35.3981 57.787 34.6818 58.2744 34.6818C58.7618 34.6818 59.1576 35.3981 59.1576 36.2813Z" fill="#263238"/>
<path d="M61.1445 41.8681C62.3613 42.6315 63.9364 42.4981 65.0075 41.541" stroke="#263238" stroke-width="0.5" stroke-linecap="round" stroke-linejoin="round"/>
<path d="M62.1484 45.6035C62.1484 45.6035 65.5666 47.0394 67.552 42.4045" stroke="#263238" stroke-width="0.5" stroke-linecap="round" stroke-linejoin="round"/>
<path d="M66.5508 36.3369C66.5508 36.3369 68.6475 34.9009 70.7441 35.7841" stroke="#263238" stroke-width="0.85" stroke-linecap="round" stroke-linejoin="round"/>
<path d="M65.8906 32.7094C65.8906 32.7094 68.2065 30.3936 71.4054 32.2678" stroke="#263238" stroke-width="0.85" stroke-linecap="round" stroke-linejoin="round"/>
<path d="M60.9258 31.2604C60.9258 31.2604 58.9404 29.2749 56.1797 31.1525" stroke="#263238" stroke-width="0.85" stroke-linecap="round" stroke-linejoin="round"/>
<path d="M16.1081 86.7159C16.1081 86.7159 12.582 90.6411 12.582 94.7461C12.582 98.8511 14.9306 102.596 21.4136 108.458C27.8966 114.319 33.9478 118.644 36.4959 120.017C39.044 121.391 41.5887 119.625 41.5887 119.625C41.5887 119.625 45.8017 123.835 46.2891 122.857C46.7765 121.879 44.8204 120.407 44.4279 119.821C44.0834 119.356 43.6897 118.929 43.2537 118.549C43.2537 118.549 45.3111 118.84 46.0961 119.53C46.8811 120.22 48.1503 121.391 48.739 121.293C49.3278 121.195 49.3278 120.704 48.4446 119.53C47.7327 118.61 46.8727 117.816 45.8998 117.178C45.3111 116.789 43.3518 115.71 43.3518 115.71C43.3518 115.71 46.191 115.513 47.1722 116.102C48.1535 116.691 50.7965 118.454 50.9927 117.669C51.189 116.884 51.189 116.396 50.2077 115.513C49.2264 114.63 47.2638 113.551 46.0961 113.358C45.2911 113.21 44.5032 112.981 43.7443 112.674C43.7443 112.674 45.998 111.889 46.7797 111.889C47.5615 111.889 50.7049 113.456 51.5782 113.263C52.4515 113.07 51.9707 112.282 51.2871 111.791C50.6035 111.3 47.5648 110.126 46.2891 110.028C45.0134 109.93 37.8664 112.38 36.9865 112.38C36.1066 112.38 33.853 109.246 31.5012 105.033C29.1494 100.82 28.2695 94.2587 23.2747 92.0083" fill="#ADC7F7"/>
<g opacity="0.2">
<path d="M15.6765 93.9611C16.3013 93.0158 15.8107 92.6821 15.6765 92.6821C15.8107 92.6821 16.3013 93.0158 15.6765 93.9611Z" fill="black"/>
<path d="M15.6765 100.532C15.8107 100.532 16.3013 100.86 15.6765 101.811C16.3013 100.866 15.8107 100.532 15.6765 100.532Z" fill="black"/>
<path d="M23.5248 96.6073C23.3907 96.6073 22.9 96.9344 23.5248 97.8862C24.1495 96.9409 23.6589 96.6073 23.5248 96.6073Z" fill="black"/>
<path d="M17.1212 93.513C17.0525 93.3952 16.5161 93.1401 16.0156 94.1672C17.1474 94.2195 17.1899 93.6275 17.1212 93.513Z" fill="black"/>
<path d="M17.0095 101.752C17.0422 101.717 17.0697 101.678 17.0913 101.635C17.1567 101.558 17.1665 101.448 17.1158 101.36C17.0651 101.273 16.9649 101.227 16.8656 101.245C16.7225 101.243 16.5832 101.291 16.4731 101.383C16.4064 101.436 16.3451 101.495 16.2899 101.559C16.2242 101.638 16.1651 101.723 16.1133 101.811H16.9441C16.9673 101.793 16.9892 101.774 17.0095 101.752Z" fill="black"/>
<path d="M24.9728 97.4381C24.9041 97.3203 24.3676 97.0652 23.8672 98.0923C24.9989 98.1446 25.0382 97.5526 24.9728 97.4381Z" fill="black"/>
<path d="M23.1845 98.0825C22.6841 97.0652 22.1476 97.3203 22.079 97.4283C22.0103 97.5362 22.0561 98.1446 23.1845 98.0825Z" fill="black"/>
<path d="M15.6765 92.6821V93.9611C16.3013 93.0158 15.8107 92.6821 15.6765 92.6821Z" fill="black"/>
<path d="M15.6765 100.532V101.811C16.3013 100.866 15.8107 100.532 15.6765 100.532Z" fill="black"/>
<path d="M31.3756 116.233C31.2578 116.257 31.1604 116.34 31.1172 116.452L31.67 116.858C31.7518 116.406 31.4737 116.233 31.3756 116.233Z" fill="black"/>
<path d="M39.2267 120.158C39.0574 120.2 38.9352 120.347 38.9258 120.521C39.1222 120.506 39.3177 120.479 39.5113 120.443C39.4794 120.301 39.3686 120.19 39.2267 120.158Z" fill="black"/>
<path d="M31.3763 108.383C31.2422 108.383 30.7516 108.71 31.3763 109.662C32.0011 108.716 31.5105 108.383 31.3763 108.383Z" fill="black"/>
<path d="M39.2254 113.587C39.8502 112.641 39.3596 112.308 39.2254 112.308C39.0913 112.308 38.5974 112.641 39.2254 113.587Z" fill="black"/>
<path d="M23.5262 105.736C24.151 104.791 23.6603 104.458 23.5262 104.458C23.3921 104.458 22.8982 104.791 23.5262 105.736Z" fill="black"/>
<path d="M32.8232 117.064C32.7708 116.975 32.4568 116.809 32.0938 117.159C32.2704 117.289 32.447 117.414 32.6204 117.535C32.7893 117.444 32.8734 117.249 32.8232 117.064Z" fill="black"/>
<path d="M31.7305 109.858C32.8589 109.92 32.9015 109.328 32.836 109.204C32.7706 109.079 32.2178 108.841 31.7305 109.858Z" fill="black"/>
<path d="M39.5781 113.783C40.7066 113.845 40.7491 113.253 40.6837 113.129C40.6183 113.005 40.0655 112.766 39.5781 113.783Z" fill="black"/>
<path d="M23.8789 105.933C25.0107 105.995 25.0499 105.403 24.9845 105.279C24.9191 105.154 24.3663 104.915 23.8789 105.933Z" fill="black"/>
<path d="M46.6203 117.711C46.339 117.489 46.0806 117.309 45.8843 117.175L45.6553 117.031L45.6292 117.064C45.5638 117.175 45.6063 117.728 46.6203 117.711Z" fill="black"/>
<path d="M31.0361 109.858C30.5356 108.841 29.9992 109.096 29.9305 109.204C29.8618 109.312 29.9076 109.92 31.0361 109.858Z" fill="black"/>
<path d="M37.7821 113.139C37.7134 113.253 37.7592 113.845 38.8877 113.793C38.3872 112.766 37.8508 113.021 37.7821 113.139Z" fill="black"/>
<path d="M22.0817 105.288C22.0163 105.403 22.0588 105.995 23.1873 105.943C22.6868 104.915 22.1504 105.171 22.0817 105.288Z" fill="black"/>
<path d="M16.9497 101.811H16.1189C16.1199 101.818 16.1199 101.824 16.1189 101.831C16.0895 101.883 16.0568 101.942 16.0273 102.008C16.3484 102.054 16.6753 101.984 16.9497 101.811Z" fill="black"/>
<path d="M15.674 92.6821C15.5399 92.6821 15.0492 93.0092 15.674 93.9611V92.6821Z" fill="black"/>
<path d="M15.6747 101.811V100.532C15.5406 100.532 15.0467 100.866 15.6747 101.811Z" fill="black"/>
<path d="M15.3369 94.1573C14.8364 93.1401 14.3 93.3952 14.2313 93.5032C14.1626 93.6111 14.2084 94.2195 15.3369 94.1573Z" fill="black"/>
<path d="M15.0459 101.559C14.9907 101.495 14.9294 101.436 14.8627 101.383L14.8398 101.366C14.9412 101.514 15.0426 101.664 15.1669 101.811H15.2389C15.1818 101.722 15.1173 101.638 15.0459 101.559Z" fill="black"/>
<path d="M15.2448 101.831C15.2439 101.824 15.2439 101.818 15.2448 101.811H15.1729L15.3168 102.008H15.3495C15.307 101.942 15.2743 101.883 15.2448 101.831Z" fill="black"/>
</g>
<path d="M16.1081 86.7159C16.1081 86.7159 12.582 90.6411 12.582 94.7461C12.582 98.8511 14.9306 102.596 21.4136 108.458C27.8966 114.319 33.9478 118.644 36.4959 120.017C39.044 121.391 41.5887 119.625 41.5887 119.625C41.5887 119.625 45.8017 123.835 46.2891 122.857C46.7765 121.879 44.8204 120.407 44.4279 119.821C44.0834 119.356 43.6897 118.929 43.2537 118.549C43.2537 118.549 45.3111 118.84 46.0961 119.53C46.8811 120.22 48.1503 121.391 48.739 121.293C49.3278 121.195 49.3278 120.704 48.4446 119.53C47.7327 118.61 46.8727 117.816 45.8998 117.178C45.3111 116.789 43.3518 115.71 43.3518 115.71C43.3518 115.71 46.191 115.513 47.1722 116.102C48.1535 116.691 50.7964 118.454 50.9927 117.669C51.189 116.884 51.189 116.396 50.2077 115.513C49.2264 114.63 47.2638 113.551 46.0961 113.358C45.2911 113.21 44.5032 112.981 43.7443 112.674C43.7443 112.674 45.998 111.889 46.7797 111.889C47.5615 111.889 50.7049 113.456 51.5782 113.263C52.4515 113.07 51.9707 112.282 51.2871 111.791C50.6035 111.3 47.5648 110.126 46.2891 110.028C45.0134 109.93 37.8664 112.38 36.9865 112.38C36.1066 112.38 33.853 109.246 31.5012 105.033C29.1494 100.82 28.2695 94.2587 23.2747 92.0083" stroke="#263238" stroke-width="0.5" stroke-linecap="round" stroke-linejoin="round"/>
<path d="M51.2706 111.788C50.5837 111.3 47.5483 110.123 46.2726 110.025C44.9969 109.927 37.8499 112.376 36.9701 112.376C36.0902 112.376 33.8365 109.243 31.4847 105.03C30.1763 102.691 29.3259 99.6263 27.9684 96.9802C20.7723 95.9989 17.6878 100.205 16.2617 103.231C17.8496 105.093 19.5655 106.842 21.3971 108.464C27.8605 114.352 33.9314 118.65 36.4794 120.024C39.0275 121.398 41.5723 119.631 41.5723 119.631C41.5723 119.631 45.7852 123.841 46.2726 122.863C46.76 121.885 44.804 120.413 44.4114 119.828C44.0669 119.363 43.6732 118.936 43.2372 118.555C43.2372 118.555 45.2946 118.846 46.0796 119.537C46.8647 120.227 48.1338 121.398 48.7225 121.3C49.3113 121.201 49.3113 120.711 48.4282 119.537C47.7162 118.617 46.8562 117.822 45.8834 117.185C45.2946 116.796 43.3353 115.716 43.3353 115.716C43.3353 115.716 46.1745 115.52 47.1558 116.109C48.1371 116.697 50.78 118.46 50.9762 117.675C51.1725 116.89 51.1725 116.403 50.1912 115.52C49.2099 114.637 47.2474 113.557 46.0796 113.364C45.2747 113.216 44.4867 112.987 43.7278 112.681C43.7278 112.681 45.9815 111.896 46.7633 111.896C47.545 111.896 50.6884 113.462 51.5617 113.269C52.4351 113.076 51.9542 112.278 51.2706 111.788Z" fill="#B2B2B2" stroke="#263238" stroke-width="0.5" stroke-linecap="round" stroke-linejoin="round"/>
<path d="M93.7993 90.3925C92.9815 88.5248 93.6815 84.4361 94.4993 78.5975C95.317 72.7588 96.1347 66.8025 96.1347 63.6493C96.1347 60.4961 96.6548 56.1261 95.6277 54.7163C94.6007 53.3065 90.862 49.4828 90.5839 47.71C90.3059 45.9371 92.8245 43.2255 92.8245 43.2255C92.8245 43.2255 93.5736 41.8223 94.2278 42.5713C94.882 43.3204 94.6007 44.2526 94.2278 45.561C93.8549 46.8693 93.4787 47.8964 93.4787 47.8964C93.4787 47.8964 96.7497 48.9235 97.5903 48.3642C98.4309 47.8048 98.3557 44.6058 98.2968 43.0391C98.1758 39.984 96.9525 41.2891 96.1053 42.7349C95.6964 43.4283 93.3021 43.0162 94.7021 41.24C96.102 39.4639 97.4038 37.8971 98.7122 39.3004C100.021 40.7036 100.953 43.4119 100.953 43.4119C100.953 43.4119 101.888 38.9602 102.739 36.3434C103.589 33.7267 105.113 32.6898 105.663 32.873C106.212 33.0561 106.15 33.9687 105.601 35.2477C105.051 36.5266 103.835 40.056 103.53 41.2139C103.226 42.3718 103.167 43.7096 103.776 43.5886C104.384 43.4676 106.513 39.7518 107.125 38.1686C107.737 36.5855 108.646 35.1266 109.68 34.4561C110.713 33.7856 111.567 34.6393 111.142 35.735C110.297 37.7166 109.338 39.6476 108.27 41.5181C107.598 42.727 107.028 43.9895 106.566 45.2927C107.569 44.2243 108.625 43.2079 109.732 42.2475C111.194 41.0307 112.777 40.7886 113.261 41.2139C113.745 41.6391 113.324 41.7012 112.107 42.676C110.89 43.6507 109.071 44.8119 107.616 47.1801C106.488 48.9165 105.608 50.8012 104.999 52.7799C104.547 54.0788 103.954 55.3247 103.233 56.4957C103.233 56.4957 104.374 65.7656 106.353 70.865C108.332 75.9644 111.832 83.4221 110.766 88.7505C109.699 94.0788 107.645 96.8166 104.754 97.654C103.054 98.1504 101.219 97.8119 99.808 96.7414" fill="#ADC7F7"/>
<g opacity="0.2">
<path d="M109.876 37.7303C109.996 37.7565 110.095 37.8414 110.138 37.956C110.096 37.8403 109.997 37.7548 109.876 37.7303Z" fill="black"/>
<path d="M109.876 37.7303V38.4957L110.138 37.956C110.095 37.8414 109.996 37.7566 109.876 37.7303Z" fill="black"/>
<path d="M109.876 86.1108C110.501 85.1655 110.01 84.8319 109.876 84.8319C110.01 84.8319 110.501 85.1655 109.876 86.1108Z" fill="black"/>
<path d="M110.944 86.222C110.944 86.004 110.934 85.7859 110.915 85.5678C110.712 85.6202 110.457 85.8132 110.215 86.3103C110.461 86.332 110.71 86.3019 110.944 86.222Z" fill="black"/>
<path d="M109.876 84.8319V86.1108C110.501 85.1655 110.01 84.8319 109.876 84.8319Z" fill="black"/>
<path d="M94.1758 45.5806C94.0614 45.5806 93.7015 45.8194 93.9567 46.4507C94.0385 46.1857 94.1268 45.8946 94.2151 45.5871L94.1758 45.5806Z" fill="black"/>
<path d="M102.026 50.7846C102.651 49.8393 102.16 49.5057 102.026 49.5057C101.892 49.5057 101.398 49.8393 102.026 50.7846Z" fill="black"/>
<path d="M109.739 38.7737L109.877 38.4957V37.7303C109.752 37.7303 109.337 38.0116 109.739 38.7737Z" fill="black"/>
<path d="M102.025 41.6554C101.891 41.6554 101.4 41.9825 102.025 42.9344C102.65 41.9891 102.159 41.6554 102.025 41.6554Z" fill="black"/>
<path d="M95.597 54.5331C95.6438 54.4503 95.6521 54.3512 95.6199 54.2617C95.5584 54.1878 95.4675 54.1447 95.3713 54.1439C95.3103 54.1423 95.2494 54.1511 95.1914 54.1701C95.3255 54.3336 95.4465 54.4808 95.5447 54.6116C95.5655 54.5879 95.583 54.5615 95.597 54.5331Z" fill="black"/>
<path d="M103.473 50.3365C103.404 50.2188 102.868 49.9636 102.367 50.9907C103.496 51.043 103.538 50.451 103.473 50.3365Z" fill="black"/>
<path d="M103.311 42.9278C103.298 42.7482 103.298 42.5678 103.311 42.3881C103.101 42.3227 102.719 42.3881 102.355 43.1306C102.688 43.1845 103.029 43.1122 103.311 42.9278Z" fill="black"/>
<path d="M103.48 34.672C103.392 34.8192 103.31 34.9795 103.225 35.1463C103.406 35.0626 103.51 34.8692 103.48 34.672Z" fill="black"/>
<path d="M92.7305 46.4114C92.6651 46.5226 92.7076 47.0917 93.7641 47.0656L93.7936 46.9805C93.3062 46.0581 92.7992 46.2969 92.7305 46.4114Z" fill="black"/>
<path d="M100.579 50.3365C100.51 50.451 100.556 51.043 101.685 50.9907C101.184 49.9636 100.648 50.2188 100.579 50.3365Z" fill="black"/>
<path d="M108.429 38.5611C108.364 38.6756 108.407 39.2644 109.522 39.2153C109.031 38.1915 108.498 38.4434 108.429 38.5611Z" fill="black"/>
<path d="M101.684 43.1306C101.572 42.8676 101.388 42.6411 101.154 42.4765C101.102 42.7218 101.056 42.9278 101.023 43.0849C101.239 43.1385 101.463 43.154 101.684 43.1306Z" fill="black"/>
<path d="M100.78 42.9573C100.728 42.8199 100.662 42.6596 100.587 42.4797C100.533 42.6644 100.613 42.862 100.78 42.9573Z" fill="black"/>
<path d="M102.026 74.3354C102.651 73.3901 102.16 73.0565 102.026 73.0565C101.892 73.0565 101.398 73.3901 102.026 74.3354Z" fill="black"/>
<path d="M102.025 65.2062C101.891 65.2062 101.4 65.5333 102.025 66.4852C102.65 65.5399 102.159 65.2062 102.025 65.2062Z" fill="black"/>
<path d="M102.025 57.356C101.891 57.356 101.4 57.6831 102.025 58.6349C102.65 57.6896 102.159 57.356 102.025 57.356Z" fill="black"/>
<path d="M95.6349 69.9982C95.6349 70.0669 95.6185 70.1388 95.6087 70.2075C95.6382 70.1419 95.6473 70.069 95.6349 69.9982Z" fill="black"/>
<path d="M95.622 77.8124C95.5566 77.7012 95.0888 77.4853 94.6211 78.2606H95.4519C95.6002 78.1642 95.6691 77.9829 95.622 77.8124Z" fill="black"/>
<path d="M102.379 74.5317C103.507 74.5938 103.55 74.0018 103.484 73.8775C103.419 73.7532 102.866 73.5144 102.379 74.5317Z" fill="black"/>
<path d="M103.473 66.037C103.404 65.9193 102.868 65.6642 102.367 66.6912C103.496 66.7436 103.538 66.1515 103.473 66.037Z" fill="black"/>
<path d="M102.379 58.8312C103.21 58.877 103.452 58.5695 103.494 58.3569L103.465 58.1639C103.341 58.0429 102.837 57.8728 102.379 58.8312Z" fill="black"/>
<path d="M109.053 77.819C108.726 77.5933 108.475 77.7307 108.429 77.819C108.382 77.9895 108.45 78.1708 108.599 78.2671H109.207L109.053 77.819Z" fill="black"/>
<path d="M100.579 73.8873C100.51 74.0018 100.556 74.5938 101.685 74.5415C101.184 73.5144 100.648 73.7696 100.579 73.8873Z" fill="black"/>
<path d="M100.579 66.037C100.51 66.1515 100.556 66.7436 101.685 66.6912C101.184 65.6642 100.648 65.9193 100.579 66.037Z" fill="black"/>
<path d="M100.579 58.1868C100.51 58.3013 100.556 58.8933 101.685 58.841C101.184 57.8139 100.648 58.069 100.579 58.1868Z" fill="black"/>
<path d="M102.025 96.6073C101.897 96.6073 101.452 96.9082 101.933 97.739L102.097 97.7717C102.607 96.9147 102.152 96.6073 102.025 96.6073Z" fill="black"/>
<path d="M94.1747 86.1108C94.7994 85.1655 94.3088 84.8319 94.1747 84.8319C94.0406 84.8319 93.5466 85.1655 94.1747 86.1108Z" fill="black"/>
<path d="M109.877 84.8319C109.743 84.8319 109.252 85.159 109.877 86.1108V84.8319Z" fill="black"/>
<path d="M102.026 90.036C102.651 89.0907 102.16 88.757 102.026 88.757C101.892 88.757 101.398 89.0907 102.026 90.036Z" fill="black"/>
<path d="M102.025 80.9067C101.891 80.9067 101.4 81.2338 102.025 82.1857C102.65 81.2404 102.159 80.9067 102.025 80.9067Z" fill="black"/>
<path d="M103.473 97.4381C103.411 97.3302 102.963 97.111 102.492 97.8339C102.761 97.8683 103.032 97.8825 103.303 97.8764C103.448 97.7821 103.517 97.6056 103.473 97.4381Z" fill="black"/>
<path d="M94.5273 86.3071C95.6558 86.3692 95.6983 85.7772 95.6329 85.6529C95.5675 85.5286 95.0147 85.2898 94.5273 86.3071Z" fill="black"/>
<path d="M102.379 90.2322C103.507 90.2944 103.55 89.7023 103.484 89.578C103.419 89.4537 102.866 89.2149 102.379 90.2322Z" fill="black"/>
<path d="M103.473 81.7376C103.404 81.6198 102.868 81.3647 102.367 82.3918C103.496 82.4441 103.538 81.8521 103.473 81.7376Z" fill="black"/>
<path d="M108.43 93.513C108.378 93.6013 108.394 93.9709 108.917 94.1083C109.006 93.9513 109.094 93.7812 109.176 93.6274C108.806 93.2545 108.482 93.4214 108.43 93.513Z" fill="black"/>
<path d="M100.766 97.3302C100.952 97.4183 101.143 97.4969 101.338 97.5657C101.203 97.391 100.985 97.3013 100.766 97.3302Z" fill="black"/>
<path d="M93.8349 86.3071C93.7595 86.1417 93.6616 85.9876 93.5438 85.8492C93.5438 86.0029 93.5176 86.1533 93.5078 86.3038C93.6167 86.3116 93.7259 86.3127 93.8349 86.3071Z" fill="black"/>
<path d="M109.536 86.3071C109.036 85.2898 108.499 85.5449 108.431 85.6529C108.362 85.7608 108.408 86.3692 109.536 86.3071Z" fill="black"/>
<path d="M100.579 89.5878C100.51 89.7023 100.556 90.2944 101.685 90.242C101.184 89.2149 100.648 89.4701 100.579 89.5878Z" fill="black"/>
<path d="M100.579 81.7376C100.51 81.8521 100.556 82.4441 101.685 82.3918C101.184 81.3647 100.648 81.6198 100.579 81.7376Z" fill="black"/>
<path d="M94.6203 78.2606C94.5843 78.3194 94.5516 78.3849 94.5156 78.4536C94.8409 78.5028 95.1731 78.4331 95.4511 78.2573H94.6203V78.2606Z" fill="black"/>
<path d="M109.209 78.2606H108.594C108.794 78.3946 109.03 78.4631 109.271 78.4568L109.209 78.2606Z" fill="black"/>
</g>
<path d="M93.7993 90.3925C92.9815 88.5248 93.6815 84.4361 94.4993 78.5975C95.317 72.7588 96.1347 66.8025 96.1347 63.6493C96.1347 60.4961 96.6548 56.1261 95.6277 54.7163C94.6007 53.3065 90.862 49.4828 90.5839 47.71C90.3059 45.9371 92.8245 43.2255 92.8245 43.2255C92.8245 43.2255 93.5736 41.8223 94.2278 42.5713C94.882 43.3204 94.6007 44.2526 94.2278 45.561C93.8549 46.8693 93.4787 47.8964 93.4787 47.8964C93.4787 47.8964 96.7497 48.9235 97.5903 48.3642C98.4309 47.8048 98.3557 44.6058 98.2968 43.0391C98.1758 39.984 96.9525 41.2891 96.1053 42.7349C95.6964 43.4283 93.3021 43.0162 94.7021 41.24C96.102 39.4639 97.4038 37.8971 98.7122 39.3004C100.021 40.7036 100.953 43.4119 100.953 43.4119C100.953 43.4119 101.888 38.9602 102.739 36.3434C103.589 33.7267 105.113 32.6898 105.663 32.873C106.212 33.0561 106.15 33.9687 105.601 35.2477C105.051 36.5266 103.835 40.056 103.53 41.2139C103.226 42.3718 103.167 43.7096 103.776 43.5886C104.384 43.4676 106.513 39.7518 107.125 38.1686C107.737 36.5855 108.646 35.1266 109.68 34.4561C110.713 33.7856 111.567 34.6393 111.142 35.735C110.297 37.7166 109.338 39.6476 108.27 41.5181C107.598 42.727 107.028 43.9895 106.566 45.2927C107.569 44.2243 108.625 43.2079 109.732 42.2475C111.194 41.0307 112.777 40.7886 113.261 41.2139C113.745 41.6391 113.324 41.7012 112.107 42.676C110.89 43.6507 109.071 44.8119 107.616 47.1801C106.488 48.9165 105.608 50.8012 104.999 52.7799C104.547 54.0788 103.954 55.3247 103.233 56.4957C103.233 56.4957 104.374 65.7656 106.353 70.865C108.332 75.9644 111.832 83.4221 110.766 88.7505C109.699 94.0788 107.645 96.8166 104.754 97.654C103.054 98.1504 101.219 97.8119 99.808 96.7414" stroke="#263238" stroke-width="0.5" stroke-linecap="round" stroke-linejoin="round"/>
<path d="M107.614 47.1801C109.076 44.8054 110.905 43.6475 112.122 42.676C113.338 41.7045 113.757 41.6391 113.276 41.2139C112.795 40.7887 111.209 41.0307 109.747 42.2475C108.64 43.2079 107.583 44.2243 106.581 45.2927C107.038 43.9901 107.603 42.7275 108.268 41.5181C109.333 39.6473 110.289 37.7164 111.131 35.735C111.556 34.6393 110.705 33.7725 109.668 34.4561C108.632 35.1397 107.722 36.5855 107.114 38.1686C106.505 39.7518 104.373 43.4676 103.764 43.5886C103.156 43.7096 103.215 42.3685 103.519 41.2139C103.823 40.0592 105.043 36.5266 105.59 35.2477C106.136 33.9687 106.198 33.0561 105.652 32.873C105.105 32.6898 103.581 33.7234 102.728 36.3434C101.874 38.9635 100.942 43.412 100.942 43.412C100.942 43.412 100.009 40.7003 98.701 39.3004C97.3926 37.9004 96.0842 39.4639 94.6908 41.24C93.2974 43.0162 95.6721 43.4283 96.094 42.7349C96.9412 41.2891 98.1645 39.984 98.2856 43.0391C98.3444 44.6058 98.4197 47.8016 97.579 48.3642C96.7384 48.9268 93.4675 47.8964 93.4675 47.8964C93.4675 47.8964 93.8403 46.8693 94.2165 45.561C94.5927 44.2526 94.8707 43.3171 94.2165 42.5713C93.5623 41.8255 92.8133 43.2255 92.8133 43.2255C92.8133 43.2255 90.2914 45.9338 90.5727 47.71C90.854 49.4861 94.5894 53.3131 95.6165 54.7163C96.6435 56.1196 96.1235 60.4961 96.1235 63.6493C96.1235 66.8025 95.3057 72.7588 94.488 78.5975C94.488 78.676 94.4651 78.7479 94.4553 78.8232C95.7473 80.1806 98.3804 82.1268 102.832 81.9764C105.815 81.875 107.928 80.3736 109.358 78.7218C108.409 75.8989 107.219 73.1612 106.335 70.8715C104.356 65.7721 103.215 56.5023 103.215 56.5023C103.936 55.3313 104.529 54.0854 104.981 52.7865C105.595 50.8046 106.481 48.9177 107.614 47.1801Z" fill="#B2B2B2" stroke="#263238" stroke-width="0.5" stroke-linecap="round" stroke-linejoin="round"/>
<path d="M98.6563 56.1294C98.6563 56.1294 98.1101 53.8168 98.9016 52.3547C99.3179 51.5233 100.004 50.8579 100.848 50.4674" stroke="#263238" stroke-width="0.5" stroke-linecap="round" stroke-linejoin="round"/>
</svg>
