<svg width="147" height="110" viewBox="0 0 147 110" fill="none" xmlns="http://www.w3.org/2000/svg">
<path d="M130.034 99.1709C130.034 99.1709 150.595 75.3167 145.313 44.8105C140.032 14.3042 112.791 -1.66776 94.5189 0.139598C76.2466 1.94696 58.0535 19.8734 40.1997 22.0883C22.3458 24.3031 -4.56684 40.0713 0.872996 70.072C6.31283 100.073 22.8435 103.008 49.6016 104.11C76.3597 105.212 114.224 118.95 130.034 99.1709Z" fill="#ADC7F7"/>
<path d="M130.034 99.1709C130.034 99.1709 150.595 75.3167 145.313 44.8105C140.032 14.3042 112.791 -1.66776 94.5189 0.139598C76.2466 1.94696 58.0535 19.8734 40.1997 22.0883C22.3458 24.3031 -4.56684 40.0713 0.872996 70.072C6.31283 100.073 22.8435 103.008 49.6016 104.11C76.3597 105.212 114.224 118.95 130.034 99.1709Z" fill="#EEF3FD"/>
<path d="M3.76953 72.6171H146.645" stroke="#263238" stroke-width="0.6" stroke-linecap="round" stroke-linejoin="round"/>
<ellipse cx="21.5568" cy="81.2973" rx="12.1388" ry="4.50897" fill="#263238"/>
<path d="M14.4688 67.0912L16.1614 80.8407C16.1614 83.0443 20.2705 84.8328 25.3409 84.8328C30.4113 84.8328 34.5204 83.0443 34.5204 80.8407L36.213 67.0912H14.4688Z" fill="white"/>
<path d="M23.7539 67.0912H14.4727L16.1653 80.8407C16.1653 83.0443 20.2744 84.8328 25.3448 84.8328C25.674 84.8328 25.9982 84.8252 26.3174 84.8101C23.426 79.6786 23.3769 72.1473 23.7539 67.0912Z" fill="#ADC7F7"/>
<path opacity="0.4" d="M23.7539 67.0912H14.4727L16.1653 80.8407C16.1653 83.0443 20.2744 84.8328 25.3448 84.8328C25.674 84.8328 25.9982 84.8252 26.3174 84.8101C23.426 79.6786 23.3769 72.1473 23.7539 67.0912Z" fill="white"/>
<path fill-rule="evenodd" clip-rule="evenodd" d="M14.4688 67.0912L16.1614 80.8407C16.1614 83.0443 20.2705 84.8328 25.3409 84.8328C30.4113 84.8328 34.5204 83.0443 34.5204 80.8407L36.213 67.0912H14.4688Z" stroke="#263238" stroke-width="0.6" stroke-linecap="round" stroke-linejoin="round"/>
<ellipse cx="25.3409" cy="67.0912" rx="10.8721" ry="4.72781" fill="white" stroke="#263238" stroke-width="0.6" stroke-linecap="round" stroke-linejoin="round"/>
<ellipse cx="25.3437" cy="66.9667" rx="9.7148" ry="4.11278" fill="#263238" stroke="#263238" stroke-width="0.6" stroke-linecap="round" stroke-linejoin="round"/>
<path d="M26.081 67.3931C26.081 67.3931 25.214 59.3864 19.8118 53.3266C14.4097 47.2669 15.7329 48.0102 15.7329 48.0102" stroke="#263238" stroke-width="0.6" stroke-linecap="round" stroke-linejoin="round"/>
<path d="M35.8132 43.588C35.8132 43.588 29.3291 50.0817 28.2472 57.4394C27.1653 64.7971 27.8702 65.9857 27.8702 65.9857" stroke="#263238" stroke-width="0.6" stroke-linecap="round" stroke-linejoin="round"/>
<path d="M27.1435 66.9516C27.1435 66.9516 25.8769 62.4238 24.58 53.3266C23.2832 44.2294 23.9316 39.479 23.9316 39.479" stroke="#263238" stroke-width="0.6" stroke-linecap="round" stroke-linejoin="round"/>
<path d="M16.2928 50.4854C16.2928 50.4854 14.4795 52.455 11.6899 48.5988C8.90021 44.7426 9.82759 40.2449 9.82759 40.2449C9.82759 40.2449 11.2488 42.4145 13.4014 43.3276C15.5539 44.2407 18.698 49.4289 16.2928 50.4854Z" fill="#ADC7F7"/>
<path d="M23.9164 41.641C23.9164 41.641 21.3228 42.29 21.1079 37.532C20.893 32.774 24.1238 29.5253 24.1238 29.5253C24.1238 29.5253 24.1238 32.1212 25.4206 34.0531C26.7174 35.985 26.5138 42.0749 23.9164 41.641Z" fill="#ADC7F7"/>
<path d="M34.6182 45.9915C34.6182 45.9915 32.0924 45.1123 34.5164 41.0147C36.9404 36.917 41.4302 35.9737 41.4302 35.9737C41.4302 35.9737 40.009 38.147 40.0279 40.5015C40.0467 42.856 36.5672 47.7762 34.6182 45.9915Z" fill="#ADC7F7"/>
<path d="M26.9441 66.3101C26.9441 66.3101 28.6745 58.5185 32.35 54.8434C34.5304 52.6582 37.4791 51.4148 40.5644 51.3796C40.5644 51.3796 36.2405 53.1115 34.9437 56.5715C33.6468 60.0315 31.4754 67.6081 31.4754 67.6081H20.6787C20.6787 67.6081 19.3781 64.7971 15.7025 61.5484C12.027 58.2996 5.97266 56.1414 5.97266 56.1414C5.97266 56.1414 12.6754 53.7605 17.4329 55.7075C22.1904 57.6544 25.6473 65.8951 25.6473 65.8951L26.9441 66.3101Z" fill="#ADC7F7"/>
<path d="M28.6101 66.2913C28.6101 66.2913 24.3201 63.3444 19.638 63.8349C14.9559 64.3254 14.5676 68.1326 14.3602 69.2381C14.2454 69.8875 14.1811 70.5447 14.168 71.204C14.168 71.204 20.1997 69.3627 23.9167 68.7476C27.6337 68.1326 29.1944 69.8532 28.6101 66.2913Z" fill="#ADC7F7"/>
<path d="M27.0126 66.2913C27.0126 66.2913 29.7118 63.3444 32.6673 63.8349C35.6228 64.3254 35.8566 68.1326 35.9772 69.2381C36.0517 69.8909 36.0932 70.547 36.1016 71.204C36.1016 71.204 32.2979 69.3627 29.9681 68.7476C27.6384 68.1326 26.6431 69.8532 27.0126 66.2913Z" fill="#ADC7F7"/>
<path d="M43.2053 18.9113H124.807C126.501 18.9113 127.875 20.2864 127.875 21.9826V79.0786H40.1367V21.9789C40.1388 20.2841 41.5121 18.9113 43.2053 18.9113Z" fill="#263238" stroke="#263238" stroke-width="0.6" stroke-linecap="round" stroke-linejoin="round"/>
<path d="M141.032 105.676H26.9766L40.137 79.0786H127.872L141.032 105.676Z" fill="white" stroke="#263238" stroke-width="0.6" stroke-linecap="round" stroke-linejoin="round"/>
<rect x="45.4531" y="23.673" width="77.1077" height="50.6401" fill="#ADC7F7" stroke="#263238" stroke-width="0.6" stroke-linecap="round" stroke-linejoin="round"/>
<circle cx="59.1698" cy="51.7864" r="10.9034" transform="rotate(-45 59.1698 51.7864)" fill="#263238"/>
<circle cx="84.3573" cy="51.7857" r="10.9034" transform="rotate(-45 84.3573 51.7857)" fill="#263238"/>
<ellipse cx="109.544" cy="51.7814" rx="10.899" ry="10.9078" transform="rotate(-13.12 109.544 51.7814)" fill="#263238"/>
<path d="M51.6797 49.0063C51.6797 49.0063 56.4824 35.8755 59.306 35.8755C62.1296 35.8755 67.102 48.8516 67.102 48.8516L66.2613 48.927C66.2613 48.927 61.3794 37.5546 59.9318 36.8528C58.4842 36.151 55.8114 40.2864 52.5317 48.9912L51.6797 49.0063Z" fill="white" stroke="#263238" stroke-width="0.6" stroke-linecap="round" stroke-linejoin="round"/>
<path d="M52.1678 48.2403H66.6024C67.5018 48.2403 68.2309 48.9701 68.2309 49.8703V57.6205C68.2309 57.9667 68.0935 58.2988 67.8489 58.5436C67.6043 58.7884 67.2725 58.926 66.9266 58.926H51.8473C51.127 58.926 50.543 58.3415 50.543 57.6205V49.8741C50.542 49.4418 50.7126 49.0268 51.0173 48.7204C51.322 48.414 51.7358 48.2413 52.1678 48.2403V48.2403Z" fill="white" stroke="#263238" stroke-width="0.6" stroke-linecap="round" stroke-linejoin="round"/>
<path d="M50.6875 53.968H66.7017H50.6875Z" fill="white"/>
<path d="M50.6875 53.968H66.7017" stroke="#263238" stroke-width="0.6" stroke-linecap="round" stroke-linejoin="round"/>
<path d="M67.3921 48.6214C67.3921 48.6214 67.0151 49.0817 67.0151 50.3797C67.0151 51.6777 66.559 58.5487 66.6381 58.8505C66.7173 59.1524 67.1734 58.9298 67.1734 58.9298" fill="white"/>
<path d="M67.3921 48.6214C67.3921 48.6214 67.0151 49.0817 67.0151 50.3797C67.0151 51.6777 66.559 58.5487 66.6381 58.8505C66.7173 59.1524 67.1734 58.9298 67.1734 58.9298" stroke="#263238" stroke-width="0.6" stroke-linecap="round" stroke-linejoin="round"/>
<rect x="58.0859" y="52.4399" width="1.22142" height="2.74689" fill="white" stroke="#263238" stroke-width="0.6" stroke-linecap="round" stroke-linejoin="round"/>
<path d="M74.8203 45.4066C74.8203 45.4066 79.9133 44.9614 85.8922 44.9614C91.8712 44.9614 94.6797 45.3387 94.7513 45.716C94.8229 46.0934 93.9408 50.8891 93.9408 51.3305C93.9408 51.772 93.9408 57.9827 93.7938 58.3525C93.6467 58.7222 92.9795 59.0166 92.6854 59.0882C92.3914 59.1599 76.8862 59.3109 76.4451 59.3109C75.984 59.2734 75.6293 58.8872 75.6308 58.4242C75.6308 57.9827 75.8532 53.104 75.4838 51.3305C75.1144 49.5571 74.8203 45.4066 74.8203 45.4066Z" fill="white" stroke="#263238" stroke-width="0.6" stroke-linecap="round" stroke-linejoin="round"/>
<path d="M80.2961 47.8441C80.2961 47.8441 80.2207 42.007 80.8125 40.011C81.3336 38.2774 82.9171 37.0818 84.7256 37.0565C87.0715 37.2147 89.0554 38.8527 89.6565 41.1278C90.4105 44.0068 89.8035 47.629 89.7319 47.9988C89.6603 48.3686 88.846 49.4024 88.6952 47.4064C88.5444 45.4104 88.846 40.7581 88.2541 39.4261C87.5584 37.9887 85.9829 37.2002 84.4165 37.5056C82.8633 37.8829 82.0528 38.5394 81.7588 40.46C81.4647 42.3805 82.0528 46.8178 81.6834 47.7762C81.3139 48.7346 80.428 49.1723 80.2961 47.8441Z" fill="white" stroke="#263238" stroke-width="0.6" stroke-linecap="round" stroke-linejoin="round"/>
<path d="M76.2219 45.4783C76.2219 45.4783 75.8449 49.3949 75.8449 50.874C75.8449 52.3531 75.7695 53.3115 75.7695 53.3115" fill="white"/>
<path d="M76.2219 45.4783C76.2219 45.4783 75.8449 49.3949 75.8449 50.874C75.8449 52.3531 75.7695 53.3115 75.7695 53.3115" stroke="#263238" stroke-width="0.6" stroke-linecap="round" stroke-linejoin="round"/>
<path d="M93.492 45.5538C93.492 45.5538 93.6428 49.4703 93.6428 51.7607" stroke="#263238" stroke-width="0.6" stroke-linecap="round" stroke-linejoin="round"/>
<path d="M112.529 44.8029C112.34 44.8048 112.179 44.666 112.152 44.4784C111.425 39.9242 110.513 34.9021 110.045 33.272C109.355 34.8115 107.84 39.7129 106.584 44.169C106.527 44.3774 106.312 44.4999 106.104 44.4426C105.896 44.3853 105.773 44.1699 105.83 43.9615C105.83 43.9313 106.637 41.0901 107.512 38.2564C109.333 32.3476 109.676 32.2193 109.947 32.1325C110.085 32.0855 110.236 32.108 110.354 32.1929C110.554 32.3401 110.829 32.54 111.915 38.547C112.439 41.4448 112.899 44.3275 112.903 44.3577C112.921 44.4591 112.897 44.5636 112.837 44.647C112.776 44.7304 112.684 44.7853 112.582 44.7991C112.565 44.8023 112.547 44.8035 112.529 44.8029Z" fill="white" stroke="#263238" stroke-width="0.6" stroke-linecap="round" stroke-linejoin="round"/>
<path d="M100.297 43.5351C100.297 43.5351 107.803 43.0748 110.389 43.1767C112.975 43.2786 117.57 43.554 117.551 43.8521C117.532 44.1502 117.442 53.6624 117.174 55.549C116.907 57.4356 115.561 59.8051 114.392 60.2391C113.224 60.673 109.295 60.5145 107.282 60.4315C105.269 60.3485 103.456 60.0844 102.551 58.7977C101.646 57.511 100.998 52.1078 100.998 52.1078L100.297 43.5351Z" fill="white" stroke="#263238" stroke-width="0.6" stroke-linecap="round" stroke-linejoin="round"/>
<path d="M106.258 45.6028C106.267 45.1898 105.943 44.8459 105.531 44.8312C105.118 44.8165 104.771 45.1365 104.751 45.5492C104.731 45.9618 105.047 46.3137 105.459 46.3386C105.663 46.351 105.864 46.2795 106.014 46.1408C106.165 46.002 106.253 45.8078 106.258 45.6028Z" fill="white" stroke="#263238" stroke-width="0.6" stroke-linecap="round" stroke-linejoin="round"/>
<ellipse cx="112.67" cy="45.9575" rx="0.76594" ry="0.76529" transform="rotate(-80.56 112.67 45.9575)" fill="white" stroke="#263238" stroke-width="0.6" stroke-linecap="round" stroke-linejoin="round"/>
<path d="M101.609 56.1753C101.609 56.1753 107 55.7188 116.866 56.2168L101.609 56.1753Z" fill="white"/>
<path d="M101.609 56.1753C101.609 56.1753 107 55.7188 116.866 56.2168" stroke="#263238" stroke-width="0.6" stroke-linecap="round" stroke-linejoin="round"/>
<rect x="46.6484" y="25.1672" width="74.4575" height="6.05975" fill="#263238"/>
<path d="M82.7578 28.6197H90.1391" stroke="white" stroke-width="1.2"/>
<path d="M98.6797 28.6197H106.061" stroke="white" stroke-width="1.2"/>
<path fill-rule="evenodd" clip-rule="evenodd" d="M118.648 26.6803C118.697 26.6799 118.744 26.7039 118.772 26.7444C118.802 26.7826 118.814 26.8327 118.802 26.8802L118.354 28.548C118.335 28.6156 118.273 28.662 118.203 28.6612H115.262L115.436 29.1819H118.075C118.116 29.1809 118.157 29.1967 118.186 29.2258C118.216 29.255 118.233 29.2949 118.233 29.3366C118.233 29.4241 118.162 29.4951 118.075 29.4951H117.954C118.009 29.5821 118.039 29.6826 118.041 29.7856C118.058 29.9898 117.958 30.1863 117.784 30.2937C117.61 30.401 117.39 30.401 117.215 30.2937C117.041 30.1863 116.942 29.9898 116.959 29.7856C116.959 29.6829 116.988 29.5824 117.042 29.4951H116.288C116.345 29.5813 116.375 29.6823 116.374 29.7856C116.391 29.9898 116.292 30.1863 116.118 30.2937C115.943 30.401 115.723 30.401 115.549 30.2937C115.375 30.1863 115.275 29.9898 115.292 29.7856C115.294 29.6826 115.324 29.5821 115.379 29.4951H115.323C115.255 29.4957 115.194 29.4533 115.172 29.3894L114.184 26.4199H113.272C113.23 26.4199 113.19 26.4031 113.161 26.3733C113.132 26.3434 113.116 26.3031 113.117 26.2614C113.117 26.176 113.186 26.1067 113.272 26.1067H114.297C114.365 26.1061 114.425 26.1485 114.448 26.2124L114.603 26.6803H118.648ZM115.616 29.8763C115.653 29.9622 115.738 30.0173 115.832 30.0158C115.957 30.0137 116.058 29.9113 116.058 29.7856C116.058 29.6922 116.001 29.608 115.915 29.5726C115.828 29.5372 115.729 29.5576 115.664 29.6242C115.598 29.6908 115.58 29.7905 115.616 29.8763ZM117.494 30.0158C117.401 30.0173 117.316 29.9622 117.279 29.8763C117.242 29.7905 117.261 29.6908 117.326 29.6242C117.392 29.5576 117.491 29.5372 117.577 29.5726C117.664 29.608 117.72 29.6922 117.72 29.7856C117.721 29.8463 117.698 29.9049 117.655 29.9481C117.613 29.9914 117.555 30.0158 117.494 30.0158ZM117.332 28.348H117.912V26.9972H117.332V28.348ZM116.435 26.9972H117.019V28.348H116.435V26.9972ZM115.537 28.348H116.122L116.111 26.9972H115.537V28.348ZM114.704 26.9972H115.225V28.348H115.153L114.704 26.9972ZM118.229 26.9972V27.7934L118.44 26.9972H118.229Z" fill="white"/>
<path d="M119.991 26.6463C119.999 26.1792 119.723 25.7538 119.294 25.5697C118.865 25.3856 118.368 25.4794 118.035 25.807C117.702 26.1346 117.6 26.631 117.777 27.0634C117.954 27.4957 118.374 27.7782 118.841 27.7782C119.468 27.7763 119.979 27.2736 119.991 26.6463Z" fill="white"/>
<path d="M118.37 27.3557C118.343 27.3344 118.324 27.3034 118.318 27.2689C118.301 27.1928 118.324 27.1136 118.378 27.0576L118.906 26.5406C118.967 26.4949 119.006 26.4246 119.011 26.3482C119.012 26.3006 118.989 26.2556 118.951 26.2275C118.91 26.1965 118.859 26.1805 118.808 26.1822H118.747H118.68L118.627 26.2048L118.57 26.2388L118.521 26.2652C118.501 26.2727 118.478 26.2727 118.457 26.2652C118.432 26.2592 118.409 26.2445 118.393 26.2237C118.377 26.2019 118.364 26.1777 118.355 26.152C118.346 26.1265 118.346 26.0983 118.355 26.0728C118.367 26.0435 118.388 26.0194 118.416 26.0049C118.556 25.9184 118.718 25.8751 118.883 25.8803C119.012 25.8776 119.136 25.9249 119.23 26.0124C119.315 26.0894 119.363 26.1993 119.362 26.3143C119.362 26.396 119.341 26.4765 119.302 26.5482C119.254 26.6343 119.19 26.71 119.113 26.7708L118.71 27.0915H119.238C119.267 27.0908 119.295 27.1068 119.309 27.133C119.326 27.1615 119.335 27.1941 119.336 27.2274C119.335 27.2629 119.326 27.2978 119.309 27.3292C119.294 27.3543 119.267 27.3699 119.238 27.3707H118.484C118.445 27.3826 118.404 27.3771 118.37 27.3557Z" fill="#263238"/>
<path d="M76.6784 30.0158H49.4227C48.9411 30.0158 48.4793 29.824 48.1391 29.4829C47.799 29.1417 47.6084 28.6791 47.6094 28.1971C47.6094 27.1947 48.4212 26.3822 49.4227 26.3822H76.6784C77.6798 26.3822 78.4917 27.1947 78.4917 28.1971C78.4927 28.6791 78.3021 29.1417 77.9619 29.4829C77.6217 29.824 77.16 30.0158 76.6784 30.0158Z" fill="white"/>
<path d="M53.5742 66.0913H64.7329" stroke="#263238" stroke-width="1.2" stroke-linecap="round" stroke-linejoin="round"/>
<path d="M53.5742 68.208H64.7329" stroke="#263238" stroke-width="1.2" stroke-linecap="round" stroke-linejoin="round"/>
<path d="M78.7734 66.0913H89.9358" stroke="#263238" stroke-width="1.2" stroke-linecap="round" stroke-linejoin="round"/>
<path d="M78.7734 68.208H89.9358" stroke="#263238" stroke-width="1.2" stroke-linecap="round" stroke-linejoin="round"/>
<path d="M103.98 66.0913H115.139" stroke="#263238" stroke-width="1.2" stroke-linecap="round" stroke-linejoin="round"/>
<path d="M103.98 68.208H115.139" stroke="#263238" stroke-width="1.2" stroke-linecap="round" stroke-linejoin="round"/>
<path d="M80.3461 87.5004L80.4969 84.2592H75.8638L75.5547 87.5004H80.3461Z" fill="#263238" stroke="white" stroke-width="0.6" stroke-linecap="round" stroke-linejoin="round"/>
<path d="M89.928 87.5004L89.7697 84.2592H85.1328L85.1366 87.5004H89.928Z" fill="#263238" stroke="white" stroke-width="0.6" stroke-linecap="round" stroke-linejoin="round"/>
<path d="M114.882 90.9642H119.835L118.674 87.5004H113.883L114.882 90.9642Z" fill="#263238" stroke="white" stroke-width="0.6" stroke-linecap="round" stroke-linejoin="round"/>
<path d="M75.5533 87.5004L75.8624 84.2592H71.2255L70.7656 87.5004H75.5533Z" fill="#263238" stroke="white" stroke-width="0.6" stroke-linecap="round" stroke-linejoin="round"/>
<path d="M65.975 87.5004L66.5895 84.2592H61.9564L61.1836 87.5004H65.975Z" fill="#263238" stroke="white" stroke-width="0.6" stroke-linecap="round" stroke-linejoin="round"/>
<path d="M109.089 87.5004L108.313 84.2592H103.676L104.298 87.5004H109.089Z" fill="#263238" stroke="white" stroke-width="0.6" stroke-linecap="round" stroke-linejoin="round"/>
<path d="M113.881 87.5004L112.946 84.2592H108.312L109.089 87.5004H113.881Z" fill="#263238" stroke="white" stroke-width="0.6" stroke-linecap="round" stroke-linejoin="round"/>
<path d="M61.1821 87.5004L61.9549 84.2592H57.318L56.3906 87.5004H61.1821Z" fill="#263238" stroke="white" stroke-width="0.6" stroke-linecap="round" stroke-linejoin="round"/>
<path d="M94.7193 87.5004L94.4064 84.2592H89.7695L89.9279 87.5004H94.7193Z" fill="#263238" stroke="white" stroke-width="0.6" stroke-linecap="round" stroke-linejoin="round"/>
<path d="M118.672 87.5004L117.582 84.2592H112.945L113.88 87.5004H118.672Z" fill="#263238" stroke="white" stroke-width="0.6" stroke-linecap="round" stroke-linejoin="round"/>
<path d="M104.298 87.5004L103.676 84.2592H99.0391L99.5065 87.5004H104.298Z" fill="#263238" stroke="white" stroke-width="0.6" stroke-linecap="round" stroke-linejoin="round"/>
<path d="M99.5068 87.5004L99.0393 84.2592H94.4062L94.7191 87.5004H99.5068Z" fill="#263238" stroke="white" stroke-width="0.6" stroke-linecap="round" stroke-linejoin="round"/>
<path d="M85.1391 87.5004L85.1353 84.2592H80.4984L80.3477 87.5004H85.1391Z" fill="#263238" stroke="white" stroke-width="0.6" stroke-linecap="round" stroke-linejoin="round"/>
<path d="M51.6029 87.5004H46.8115L45.4883 90.9642H50.4456L51.6029 87.5004Z" fill="#263238" stroke="white" stroke-width="0.6" stroke-linecap="round" stroke-linejoin="round"/>
<path d="M52.682 84.2592H48.0489L46.8086 87.5004H51.6L52.682 84.2592Z" fill="#263238" stroke="white" stroke-width="0.6" stroke-linecap="round" stroke-linejoin="round"/>
<path d="M56.393 87.5004L57.3204 84.2592H52.6835L51.6016 87.5004H56.393Z" fill="#263238" stroke="white" stroke-width="0.6" stroke-linecap="round" stroke-linejoin="round"/>
<path d="M44.0699 94.677L42.5469 98.669H47.8736L49.2044 94.677H44.0699Z" fill="#263238" stroke="white" stroke-width="0.6" stroke-linecap="round" stroke-linejoin="round"/>
<path d="M50.4451 90.9642H45.4878L44.0703 94.677H49.2048L50.4451 90.9642Z" fill="#263238" stroke="white" stroke-width="0.6" stroke-linecap="round" stroke-linejoin="round"/>
<path d="M49.2018 94.677L47.8711 98.669H53.1978L54.3363 94.677H49.2018Z" fill="#263238" stroke="white" stroke-width="0.6" stroke-linecap="round" stroke-linejoin="round"/>
<path d="M70.768 87.5004L71.2279 84.2592H66.591L65.9766 87.5004H70.768Z" fill="#263238" stroke="white" stroke-width="0.6" stroke-linecap="round" stroke-linejoin="round"/>
<path d="M70.2699 90.9642L70.7676 87.5004H65.9761L65.3164 90.9642H70.2699Z" fill="#263238" stroke="white" stroke-width="0.6" stroke-linecap="round" stroke-linejoin="round"/>
<path d="M65.3167 90.9642L65.9764 87.5004H61.185L60.3594 90.9642H65.3167Z" fill="#263238" stroke="white" stroke-width="0.6" stroke-linecap="round" stroke-linejoin="round"/>
<path d="M75.2268 90.9642L75.5548 87.5004H70.7671L70.2695 90.9642H75.2268Z" fill="#263238" stroke="white" stroke-width="0.6" stroke-linecap="round" stroke-linejoin="round"/>
<path d="M56.3941 87.5004H51.6026L50.4453 90.9642H55.4026L56.3941 87.5004Z" fill="#263238" stroke="white" stroke-width="0.6" stroke-linecap="round" stroke-linejoin="round"/>
<path d="M115.95 94.677H121.084L119.836 90.9642H114.883L115.95 94.677Z" fill="#263238" stroke="white" stroke-width="0.6" stroke-linecap="round" stroke-linejoin="round"/>
<path d="M60.3596 90.9642L61.1852 87.5004H56.3938L55.4023 90.9642H60.3596Z" fill="#263238" stroke="white" stroke-width="0.6" stroke-linecap="round" stroke-linejoin="round"/>
<path d="M50.4434 90.9642L49.2031 94.677H54.3376L55.4007 90.9642H50.4434Z" fill="#263238" stroke="white" stroke-width="0.6" stroke-linecap="round" stroke-linejoin="round"/>
<path d="M104.966 90.9642L104.299 87.5004H99.5078L100.009 90.9642H104.966Z" fill="#263238" stroke="white" stroke-width="0.6" stroke-linecap="round" stroke-linejoin="round"/>
<path d="M100.008 90.9642L99.5064 87.5004H94.7188L95.0505 90.9642H100.008Z" fill="#263238" stroke="white" stroke-width="0.6" stroke-linecap="round" stroke-linejoin="round"/>
<path d="M114.88 90.9642L113.881 87.5004H109.09L109.923 90.9642H114.88Z" fill="#263238" stroke="white" stroke-width="0.6" stroke-linecap="round" stroke-linejoin="round"/>
<path d="M85.1409 90.9642L85.1371 87.5004H80.3457L80.1836 90.9642H85.1409Z" fill="#263238" stroke="white" stroke-width="0.6" stroke-linecap="round" stroke-linejoin="round"/>
<path d="M95.0529 90.9642L94.7211 87.5004H89.9297L90.0993 90.9642H95.0529Z" fill="#263238" stroke="white" stroke-width="0.6" stroke-linecap="round" stroke-linejoin="round"/>
<path d="M90.0978 90.9642L89.9281 87.5004H85.1367L85.1405 90.9642H90.0978Z" fill="#263238" stroke="white" stroke-width="0.6" stroke-linecap="round" stroke-linejoin="round"/>
<path d="M80.1839 90.9642L80.346 87.5004H75.5545L75.2266 90.9642H80.1839Z" fill="#263238" stroke="white" stroke-width="0.6" stroke-linecap="round" stroke-linejoin="round"/>
<path d="M95.0508 90.9642L95.4127 94.677H100.543L100.008 90.9642H95.0508Z" fill="#263238" stroke="white" stroke-width="0.6" stroke-linecap="round" stroke-linejoin="round"/>
<path d="M100.008 90.9642L100.543 94.677H105.678L104.965 90.9642H100.008Z" fill="#263238" stroke="white" stroke-width="0.6" stroke-linecap="round" stroke-linejoin="round"/>
<path d="M55.4029 90.9642L54.3398 94.677H59.4743L60.3602 90.9642H55.4029Z" fill="#263238" stroke="white" stroke-width="0.6" stroke-linecap="round" stroke-linejoin="round"/>
<path d="M104.965 90.9642L105.677 94.677H110.812L109.922 90.9642H104.965Z" fill="#263238" stroke="white" stroke-width="0.6" stroke-linecap="round" stroke-linejoin="round"/>
<path d="M85.1406 90.9642L85.1444 94.677H90.2789L90.0979 90.9642H85.1406Z" fill="#263238" stroke="white" stroke-width="0.6" stroke-linecap="round" stroke-linejoin="round"/>
<path d="M109.926 90.9642L110.815 94.677H115.95L114.883 90.9642H109.926Z" fill="#263238" stroke="white" stroke-width="0.6" stroke-linecap="round" stroke-linejoin="round"/>
<path d="M90.0977 90.9642L90.2786 94.677H95.4131L95.0512 90.9642H90.0977Z" fill="#263238" stroke="white" stroke-width="0.6" stroke-linecap="round" stroke-linejoin="round"/>
<path d="M65.3142 90.9642L64.6055 94.677H69.74L70.2677 90.9642H65.3142Z" fill="#263238" stroke="white" stroke-width="0.6" stroke-linecap="round" stroke-linejoin="round"/>
<path d="M60.3586 90.9642L59.4727 94.677H64.6071L65.3159 90.9642H60.3586Z" fill="#263238" stroke="white" stroke-width="0.6" stroke-linecap="round" stroke-linejoin="round"/>
<path d="M80.1851 90.9642L80.0117 94.677H85.1462L85.1424 90.9642H80.1851Z" fill="#263238" stroke="white" stroke-width="0.6" stroke-linecap="round" stroke-linejoin="round"/>
<path d="M75.2256 90.9642L74.875 94.677H80.0095L80.1829 90.9642H75.2256Z" fill="#263238" stroke="white" stroke-width="0.6" stroke-linecap="round" stroke-linejoin="round"/>
<path d="M70.27 90.9642L69.7422 94.677H74.8767L75.2273 90.9642H70.27Z" fill="#263238" stroke="white" stroke-width="0.6" stroke-linecap="round" stroke-linejoin="round"/>
<path d="M109.925 90.9642L109.092 87.5004H104.301L104.968 90.9642H109.925Z" fill="#263238" stroke="white" stroke-width="0.6" stroke-linecap="round" stroke-linejoin="round"/>
<path d="M52.6839 84.2592L53.7922 80.9388H49.3137L48.0508 84.2592H52.6839Z" fill="#263238" stroke="white" stroke-width="0.6" stroke-linecap="round" stroke-linejoin="round"/>
<path d="M48.049 84.2592H43.7665L42.3867 87.5004H46.8087L48.049 84.2592Z" fill="#263238" stroke="white" stroke-width="0.6" stroke-linecap="round" stroke-linejoin="round"/>
<path d="M49.311 80.9388H45.1793L43.7656 84.2592H48.0481L49.311 80.9388Z" fill="#263238" stroke="white" stroke-width="0.6" stroke-linecap="round" stroke-linejoin="round"/>
<path d="M46.81 87.5004H42.3881L40.9141 90.9642H45.4868L46.81 87.5004Z" fill="#263238" stroke="white" stroke-width="0.6" stroke-linecap="round" stroke-linejoin="round"/>
<path d="M45.4881 90.9642H40.9154L39.332 94.677H44.0707L45.4881 90.9642Z" fill="#263238" stroke="white" stroke-width="0.6" stroke-linecap="round" stroke-linejoin="round"/>
<path d="M44.0677 94.677H39.3291L37.6289 98.669H42.5447L44.0677 94.677Z" fill="#263238" stroke="white" stroke-width="0.6" stroke-linecap="round" stroke-linejoin="round"/>
<path d="M123.461 87.5004L124.792 90.9642H129.176L127.702 87.5004H123.461Z" fill="#263238" stroke="white" stroke-width="0.6" stroke-linecap="round" stroke-linejoin="round"/>
<path d="M126.218 94.677H130.761L129.177 90.9642H124.793L126.218 94.677Z" fill="#263238" stroke="white" stroke-width="0.6" stroke-linecap="round" stroke-linejoin="round"/>
<path d="M127.749 98.669H132.462L130.761 94.677H126.219L127.749 98.669Z" fill="#263238" stroke="white" stroke-width="0.6" stroke-linecap="round" stroke-linejoin="round"/>
<path d="M89.7695 84.2592L89.6074 80.9388H85.1289L85.1327 84.2592H89.7695Z" fill="#263238" stroke="white" stroke-width="0.6" stroke-linecap="round" stroke-linejoin="round"/>
<path d="M123.463 87.5004H127.704L126.324 84.2592H122.223L123.463 87.5004Z" fill="#263238" stroke="white" stroke-width="0.6" stroke-linecap="round" stroke-linejoin="round"/>
<path d="M121.084 94.677H126.218L124.793 90.9642H119.836L121.084 94.677Z" fill="#263238" stroke="white" stroke-width="0.6" stroke-linecap="round" stroke-linejoin="round"/>
<path d="M57.3205 84.2592L58.2705 80.9388H53.7919L52.6836 84.2592H57.3205Z" fill="#263238" stroke="white" stroke-width="0.6" stroke-linecap="round" stroke-linejoin="round"/>
<path d="M117.586 84.2592L118.675 87.5004H123.463L122.223 84.2592H117.586Z" fill="#263238" stroke="white" stroke-width="0.6" stroke-linecap="round" stroke-linejoin="round"/>
<path d="M126.321 84.2592L124.907 80.9388H120.945L122.22 84.2592H126.321Z" fill="#263238" stroke="white" stroke-width="0.6" stroke-linecap="round" stroke-linejoin="round"/>
<path d="M122.222 84.2592L120.947 80.9388H116.473L117.585 84.2592H122.222Z" fill="#263238" stroke="white" stroke-width="0.6" stroke-linecap="round" stroke-linejoin="round"/>
<path d="M105.68 94.677L106.449 98.669H111.772L110.814 94.677H105.68Z" fill="#263238" stroke="white" stroke-width="0.6" stroke-linecap="round" stroke-linejoin="round"/>
<path d="M122.42 98.669H127.747L126.217 94.677H121.082L122.42 98.669Z" fill="#263238" stroke="white" stroke-width="0.6" stroke-linecap="round" stroke-linejoin="round"/>
<path d="M117.583 84.2592L116.471 80.9388H111.992L112.946 84.2592H117.583Z" fill="#263238" stroke="white" stroke-width="0.6" stroke-linecap="round" stroke-linejoin="round"/>
<path d="M115.949 94.677L117.099 98.669H122.422L121.084 94.677H115.949Z" fill="#263238" stroke="white" stroke-width="0.6" stroke-linecap="round" stroke-linejoin="round"/>
<path d="M110.812 94.677L111.77 98.669H117.097L115.947 94.677H110.812Z" fill="#263238" stroke="white" stroke-width="0.6" stroke-linecap="round" stroke-linejoin="round"/>
<path d="M119.833 90.9642H124.79L123.46 87.5004H118.672L119.833 90.9642Z" fill="#263238" stroke="white" stroke-width="0.6" stroke-linecap="round" stroke-linejoin="round"/>
<path d="M75.8634 84.2592L76.1763 80.9388H71.6978L71.2266 84.2592H75.8634Z" fill="#263238" stroke="white" stroke-width="0.6" stroke-linecap="round" stroke-linejoin="round"/>
<path d="M112.948 84.2592L111.994 80.9388H107.516L108.315 84.2592H112.948Z" fill="#263238" stroke="white" stroke-width="0.6" stroke-linecap="round" stroke-linejoin="round"/>
<path d="M71.2267 84.2592L71.6979 80.9388H67.2232L66.5898 84.2592H71.2267Z" fill="#263238" stroke="white" stroke-width="0.6" stroke-linecap="round" stroke-linejoin="round"/>
<path d="M85.133 84.2592L85.1292 80.9388H80.6544L80.4961 84.2592H85.133Z" fill="#263238" stroke="white" stroke-width="0.6" stroke-linecap="round" stroke-linejoin="round"/>
<path d="M66.5901 84.2592L67.2235 80.9388H62.7449L61.957 84.2592H66.5901Z" fill="#263238" stroke="white" stroke-width="0.6" stroke-linecap="round" stroke-linejoin="round"/>
<path d="M61.9572 84.2592L62.7451 80.9388H58.2703L57.3203 84.2592H61.9572Z" fill="#263238" stroke="white" stroke-width="0.6" stroke-linecap="round" stroke-linejoin="round"/>
<path d="M80.4964 84.2592L80.6547 80.9388H76.1762L75.8633 84.2592H80.4964Z" fill="#263238" stroke="white" stroke-width="0.6" stroke-linecap="round" stroke-linejoin="round"/>
<path d="M108.313 84.2592L107.514 80.9388H103.039L103.676 84.2592H108.313Z" fill="#263238" stroke="white" stroke-width="0.6" stroke-linecap="round" stroke-linejoin="round"/>
<path d="M103.678 84.2592L103.041 80.9388H98.5625L99.0413 84.2592H103.678Z" fill="#263238" stroke="white" stroke-width="0.6" stroke-linecap="round" stroke-linejoin="round"/>
<path d="M94.4083 84.2592L94.0841 80.9388H89.6094L89.7715 84.2592H94.4083Z" fill="#263238" stroke="white" stroke-width="0.6" stroke-linecap="round" stroke-linejoin="round"/>
<path d="M105.679 94.677H100.544H95.4136H90.2791H85.1446H80.0101H74.8756H69.7411H64.6067H59.4722H54.3377L53.1992 98.669H58.5222H63.8489H69.1719H74.4986H79.8216H85.1484H90.4713H95.7981H101.121H106.448L105.679 94.677Z" fill="#263238" stroke="white" stroke-width="0.6" stroke-linecap="round" stroke-linejoin="round"/>
<path d="M99.0393 84.2592L98.5606 80.9388H94.082L94.4062 84.2592H99.0393Z" fill="#263238" stroke="white" stroke-width="0.6" stroke-linecap="round" stroke-linejoin="round"/>
<rect x="26.9766" y="105.676" width="114.108" height="1.62247" fill="#263238" stroke="#263238" stroke-width="0.6" stroke-linecap="round" stroke-linejoin="round"/>
</svg>
