<svg width="148" height="122" viewBox="0 0 148 122" fill="none" xmlns="http://www.w3.org/2000/svg">
<path d="M19.157 84.8152C35.817 103.911 52.6391 106.328 76.2852 110.854C99.9313 115.379 117.294 112.252 130.088 100.719C144.86 87.3877 144.276 56.8492 121.671 45.9755C114.61 42.5707 106.2 41.5403 100.014 36.752C88.2002 27.6149 78.6452 13.3977 59.6793 10.7279C40.7134 8.05816 27.9266 20.7801 27.9266 20.7801C12.351 37.8365 2.497 65.7052 19.157 84.8152Z" fill="#ADC7F7"/>
<path opacity="0.7" d="M19.157 84.8152C35.817 103.911 52.6391 106.328 76.2852 110.854C99.9313 115.379 117.294 112.252 130.088 100.719C144.86 87.3877 144.276 56.8492 121.671 45.9755C114.61 42.5707 106.2 41.5403 100.014 36.752C88.2002 27.6149 78.6452 13.3977 59.6793 10.7279C40.7134 8.05816 27.9266 20.7801 27.9266 20.7801C12.351 37.8365 2.497 65.7052 19.157 84.8152Z" fill="white"/>
<rect x="5.75" y="115.35" width="140.515" height="5.76471" fill="#ADC7F7"/>
<rect opacity="0.5" x="5.75" y="115.35" width="140.515" height="5.76471" fill="white"/>
<path fill-rule="evenodd" clip-rule="evenodd" d="M38.8814 53.3471C38.1941 53.5713 37.5194 53.8323 36.8601 54.129C37.2204 53.866 37.5807 53.5921 37.941 53.3147C39.5451 52.0246 41.0718 50.641 42.5131 49.1713C40.8218 50.8143 39.0158 52.335 37.1087 53.7218C37.3716 53.2651 37.6028 52.7908 37.8005 52.3023C38.1608 51.4051 38.2257 50.5008 37.3718 50.0216C36.3161 49.4307 35.0406 50.3135 35.3757 51.8231C35.5802 52.6659 35.9787 53.4493 36.5395 54.111C35.2949 54.9725 33.9951 55.7512 32.6483 56.4421L32.5222 56.5069C32.8069 56.0138 33.0585 55.5022 33.2752 54.9757C33.6139 54.0821 33.7004 53.1742 32.8429 52.6986C31.7872 52.1041 30.5118 52.9904 30.8504 54.5001C31.0515 55.3316 31.4411 56.1057 31.989 56.7627C30.8556 57.3206 29.6956 57.8201 28.5302 58.3219L28.5301 58.322L28.53 58.3221L28.5299 58.3221C28.032 58.5365 27.5331 58.7513 27.0349 58.9713L26.7935 59.0794C27.1184 58.7305 27.4205 58.361 27.6979 57.9733C28.2383 57.1807 28.5301 56.3232 27.8095 55.6566C26.9232 54.8351 25.4712 55.3972 25.4496 56.9537C25.4506 57.8127 25.6504 58.6599 26.0333 59.4289C24.4757 60.1567 22.9957 61.0403 21.6161 62.0663L21.5729 62.1023C21.7595 61.8065 21.9302 61.501 22.0845 61.1871C22.4916 60.3188 22.6429 59.4253 21.8215 58.8813C21.4833 58.6487 21.0571 58.5839 20.6651 58.7054C20.2731 58.827 19.9583 59.1215 19.811 59.5046C19.7027 59.3356 19.5558 59.1948 19.3823 59.0938C18.5572 58.6182 17.7465 59.1335 17.0512 59.8612C16.871 60.0522 16.6909 60.2576 16.5359 60.4593C17.0723 58.9706 17.7466 57.5352 18.55 56.1718C19.315 56.506 20.14 56.6813 20.9748 56.6871C22.6177 56.6871 23.3095 55.3179 22.5024 54.4676C21.8467 53.7795 20.9243 54.0425 20.0524 54.5469C19.7653 54.7143 19.4875 54.8971 19.2201 55.0946C20.0554 53.8366 21.0032 52.6572 22.052 51.5709C22.7393 52.1268 23.538 52.5286 24.394 52.749C25.9901 53.1418 26.9917 51.9852 26.4152 50.9656C25.9468 50.1369 24.974 50.1693 24.0193 50.4468C23.5622 50.5835 23.1145 50.7495 22.679 50.944C23.1149 50.5188 23.5653 50.1117 24.0229 49.7082C24.6209 49.1965 25.2407 48.7029 25.8712 48.2201C26.5491 48.7611 27.3336 49.1528 28.1734 49.3695C29.7695 49.7622 30.7712 48.6057 30.1947 47.586C29.7263 46.7574 28.7535 46.7898 27.7951 47.0672C27.5718 47.1321 27.3448 47.2113 27.125 47.2942C27.9573 46.6997 28.8004 46.1196 29.647 45.5432L30.4289 45.0063C31.1334 45.5964 31.9605 46.0223 32.8501 46.2529C34.4462 46.6457 35.4514 45.4891 34.8749 44.4695C34.4029 43.6408 33.4337 43.6732 32.4754 43.9507C32.0982 44.066 31.7271 44.1993 31.362 44.3506L31.8448 43.9903C32.1403 43.7777 32.4357 43.5615 32.724 43.3346C32.9843 43.1393 33.2353 42.9289 33.4864 42.7185L33.4865 42.7184L33.4866 42.7183C33.5829 42.6376 33.6792 42.5569 33.776 42.4771C33.9778 42.3185 34.1687 42.1492 34.3597 41.9763C35.067 42.5727 35.8994 43.0024 36.7953 43.2337C38.3914 43.6264 39.393 42.4699 38.8165 41.4502C38.3481 40.6215 37.3754 40.654 36.4206 40.9314C35.8851 41.0968 35.3605 41.2954 34.8497 41.5259C35.5018 40.9206 36.1323 40.2901 36.7304 39.6343L36.7439 39.6183L36.7609 39.5977C36.7894 39.5633 36.8174 39.5294 36.8493 39.4974C37.1051 39.2128 37.3573 38.9246 37.6023 38.6255C37.8473 38.3265 38.1644 37.9338 38.431 37.5735C39.5259 36.1364 40.4271 34.5616 41.1116 32.8896C40.3943 34.5417 39.4627 36.0923 38.3409 37.5014C37.2314 38.9164 35.9927 40.2251 34.6407 41.4106L34.493 41.5367C34.8001 41.0137 35.0721 40.4708 35.3073 39.9118C35.6495 39.0182 35.7324 38.1103 34.8749 37.6347C33.8229 37.0402 32.5438 37.9265 32.8825 39.4362C33.1 40.3301 33.5344 41.1567 34.1471 41.8429L33.8301 42.1168L33.4698 42.4266C33.2608 42.5959 33.0447 42.758 32.8286 42.9201L32.8284 42.9202C32.8008 42.941 32.7733 42.962 32.7456 42.9831C32.6583 43.0498 32.5694 43.1175 32.4682 43.1832C32.1619 43.4102 31.852 43.63 31.5386 43.8462L31.0882 44.1524L30.5766 44.5127C30.8756 44.0023 31.1381 43.4714 31.362 42.9238C31.7043 42.0267 31.7872 41.1224 30.9333 40.6468C29.8776 40.0523 28.5986 40.9386 28.9373 42.4482C29.1461 43.3154 29.56 44.1198 30.1443 44.7938L29.784 45.0388L28.3824 45.9575L28.105 46.1376L27.3232 46.6601L26.9845 46.8871C26.6242 47.1357 26.2639 47.3879 25.9036 47.6473C26.1931 47.1288 26.4459 46.5906 26.6602 46.0368C27.0205 45.1432 27.0854 44.2353 26.2315 43.7597C25.1758 43.1652 23.9004 44.0515 24.239 45.5612C24.4507 46.4399 24.8736 47.2538 25.4712 47.9319C24.8587 48.3823 24.2534 48.8435 23.6698 49.3263C23.241 49.6865 22.8195 50.0468 22.4051 50.436C22.5856 50.102 22.7468 49.7579 22.8879 49.4055C23.2266 48.5084 23.3131 47.604 22.4556 47.1285C21.3999 46.534 20.1245 47.4203 20.4632 48.9299C20.6642 49.7614 21.0538 50.5356 21.6017 51.1926C20.4348 52.3522 19.3837 53.6228 18.4635 54.9865C18.568 54.5932 18.6474 54.1936 18.7013 53.7903C18.8166 52.8391 18.6797 51.9456 17.7321 51.6862C16.5648 51.3655 15.5415 52.5329 16.2369 53.9236C16.6369 54.6892 17.2092 55.3515 17.9087 55.8584C17.0011 57.3408 16.2431 58.9098 15.646 60.5422C15.6304 60.2008 15.5968 59.8604 15.5451 59.5226C15.383 58.575 15.0011 57.7571 14.0175 57.7751C12.8069 57.8004 12.1548 59.2163 13.2176 60.3476C13.7845 60.9386 14.4763 61.3953 15.2425 61.6843C14.8327 62.9445 14.4995 64.2283 14.2445 65.5287C14.2185 65.6519 14.1965 65.7751 14.1744 65.8983C14.1597 65.9805 14.145 66.0626 14.1292 66.1448C14.0859 66.1844 14.0427 66.224 14.0031 66.2673C13.9598 66.0907 13.9094 65.907 13.8518 65.7376C13.5491 64.8297 13.0447 64.0767 12.0755 64.2496C10.8865 64.4586 10.4578 65.9502 11.6828 66.9122C12.3054 67.3874 13.023 67.7229 13.7869 67.8958C13.7869 67.9212 13.8012 67.9448 13.816 67.9691C13.8222 67.9793 13.8284 67.9897 13.8337 68.0003C13.7004 68.9767 13.5995 69.9603 13.5383 70.9475C13.4915 71.6681 13.4662 72.4211 13.4518 73.1597C12.4214 73.1597 11.6936 74.291 12.4034 75.516C12.7029 76.024 13.0867 76.4772 13.5383 76.8563C13.6248 78.2435 13.7617 79.6306 13.9454 81.0069C13.649 80.7327 13.2298 80.6355 12.8429 80.7511C12.1944 80.9276 11.9026 81.4501 11.7981 82.0914C11.5673 82.3302 11.4381 82.6492 11.4378 82.9813C10.955 82.2607 10.4974 81.5401 10.0543 80.7799C10.7307 80.2613 11.2916 79.6073 11.7008 78.8596C12.4754 77.4184 11.5999 76.1537 10.4722 76.46C9.54984 76.7122 9.34808 77.649 9.39131 78.6542C9.40572 79.0354 9.44181 79.4156 9.4994 79.7927L9.02381 78.9568C8.81522 78.5776 8.62659 78.1983 8.43796 77.8191C8.26819 77.4777 8.09843 77.1364 7.91411 76.7951C7.82043 76.6185 7.73756 76.4348 7.6619 76.2546C8.42097 75.8722 9.09213 75.336 9.63271 74.6801C10.6668 73.4047 10.0434 72.0032 8.87609 72.0932C7.92492 72.1689 7.54661 73.0516 7.38808 74.046C7.32629 74.4796 7.28781 74.9162 7.27278 75.3539L6.93411 74.5721C6.21278 72.7984 5.61918 70.9755 5.15786 69.1172C6.01703 68.8128 6.79742 68.3204 7.44212 67.676C8.59867 66.5051 8.11947 65.0531 6.94852 65.0243C5.99734 65.0026 5.53256 65.8421 5.27315 66.8257C5.14601 67.3479 5.05095 67.8773 4.98852 68.411C4.73631 67.3446 4.52014 66.2637 4.33999 65.1684C4.22768 64.554 4.15171 63.9305 4.07599 63.3091L4.07599 63.309L4.05536 63.1399C4.97885 62.9569 5.84865 62.5664 6.59903 61.9978C7.89609 60.989 7.61146 59.4757 6.45131 59.3064C5.51094 59.1587 4.94168 59.9333 4.55977 60.8665C4.33617 61.455 4.14847 62.0566 3.99771 62.6679C3.98455 62.5245 3.97103 62.3809 3.9575 62.2373L3.9575 62.2372L3.95749 62.2372L3.95749 62.2371C3.89694 61.5942 3.8362 60.9493 3.80675 60.3044C3.69867 58.6753 3.69867 57.0408 3.80675 55.4116C3.64228 57.0394 3.58571 58.6763 3.63742 60.3116C3.63742 60.8997 3.67697 61.4856 3.71661 62.0727L3.71661 62.0727C3.72773 62.2374 3.73885 62.4021 3.74911 62.5671C3.54328 62.0551 3.30251 61.558 3.02852 61.079C2.53852 60.254 1.88278 59.6379 0.974842 59.9982C-0.145673 60.4593 -0.242952 62.0086 1.16219 62.686C1.98634 63.0645 2.89037 63.2365 3.79594 63.1868L3.82215 63.4616C3.87729 64.0428 3.93217 64.6214 4.01933 65.1972C4.15984 66.2781 4.33999 67.3157 4.55256 68.3642C4.322 67.9625 4.06565 67.5762 3.78514 67.2076C3.19065 66.4546 2.46286 65.9214 1.62337 66.4078C0.574916 67.0095 0.675798 68.5696 2.15661 69.0488C2.99453 69.3091 3.88202 69.3684 4.74712 69.2217C5.15818 71.1003 5.69871 72.9482 6.36484 74.7522L6.57742 75.2926C6.38679 75.0402 6.18105 74.7996 5.96131 74.5721C5.29477 73.8803 4.52014 73.4227 3.71668 73.9956C2.73308 74.7162 2.99609 76.2294 4.50933 76.5681C5.34447 76.7372 6.20726 76.7125 7.03139 76.496C7.10705 76.6798 7.18271 76.8563 7.27278 77.0437C7.41607 77.3388 7.55308 77.6369 7.68994 77.9345L7.68996 77.9346L7.68998 77.9346L7.68999 77.9346C7.89727 78.3855 8.1042 78.8356 8.33205 79.2739L8.6455 79.9044C8.45815 79.7423 8.26359 79.5874 8.06183 79.4432C7.27639 78.892 6.42609 78.5893 5.74874 79.2991C4.91286 80.1746 5.4533 81.6302 7.00977 81.6771C7.82008 81.6959 8.6246 81.536 9.36609 81.2087C9.81286 82.0157 10.2704 82.812 10.7676 83.5938L10.841 83.7135L10.841 83.7136C10.9992 83.9718 11.1559 84.2278 11.3369 84.4837C11.0542 84.2253 10.7558 83.9846 10.4434 83.7632C9.65793 83.2119 8.80764 82.9093 8.12668 83.619C7.2944 84.4946 7.83484 85.9501 9.39131 85.997C10.2809 86.0077 11.1603 85.8064 11.9566 85.4097C12.216 85.77 12.4826 86.1303 12.7565 86.4906C12.1764 87.1643 12.3673 88.2921 13.5455 88.8073C14.1177 89.0458 14.7276 89.1812 15.347 89.2072C15.419 89.2649 15.4911 89.3225 15.5704 89.3765L15.6064 89.4054C16.351 92.1868 17.2337 94.9275 18.2545 97.6273C18.6869 98.7766 19.1517 99.9151 19.6309 101.046H15.3073V118.096H28.5193V101.032H21.4864C20.8847 99.717 20.3046 98.3875 19.7642 97.0436C18.8815 94.8386 18.0816 92.5976 17.3862 90.3241C17.5046 90.359 17.6249 90.3866 17.7465 90.407C17.9066 90.4394 18.0707 90.4467 18.2329 90.4286L18.0456 89.2432H17.9195C17.8443 89.2326 17.7698 89.2182 17.6961 89.2C17.5296 89.1523 17.3671 89.0921 17.2097 89.0199L17.0223 88.9334C17.7177 88.6911 18.3634 88.3249 18.9283 87.8525C20.1785 86.7716 19.8254 85.2944 18.6581 85.1683C17.7141 85.0638 17.1809 85.8637 16.8566 86.8113C16.7593 87.0815 16.6801 87.3625 16.6116 87.6363C16.5431 87.3841 16.4747 87.1319 16.4098 86.8797C16.2445 86.2339 16.0954 85.5828 15.9461 84.9309L15.8766 84.6279C16.6312 84.3925 17.3325 84.0119 17.9411 83.5074C19.1913 82.4265 18.8346 80.9529 17.6709 80.8268C16.7233 80.7223 16.1937 81.5221 15.8694 82.4697C15.7721 82.7435 15.6893 83.0282 15.6172 83.3092C15.5091 82.7615 15.4046 82.2103 15.3073 81.659C15.2389 81.2519 15.174 80.8412 15.1128 80.4304C15.0912 79.8468 15.0804 79.2631 15.0876 78.6758C15.0876 78.3551 15.0876 78.0345 15.1164 77.7138C15.8228 77.937 16.5636 78.031 17.3034 77.9912C18.9463 77.8832 19.5516 76.478 18.6941 75.6818C17.9951 75.0296 17.0908 75.3539 16.2513 75.9088C15.8749 76.1645 15.5139 76.4424 15.1704 76.741C15.2716 75.3697 15.48 74.0085 15.7937 72.6697C15.9776 71.8811 16.2074 71.104 16.4819 70.3422C17.2352 70.6019 18.0317 70.7132 18.8274 70.6701C20.4704 70.5656 21.0757 69.1604 20.2182 68.3606C19.5228 67.7121 18.6148 68.0327 17.7754 68.5912C17.4823 68.7926 17.2008 69.0103 16.9323 69.2433C17.2491 68.498 17.6175 67.7756 18.0348 67.0815C18.8623 65.6812 19.9001 64.4162 21.1117 63.3309C21.7396 63.9101 22.4822 64.3508 23.2915 64.6243C24.8551 65.136 25.9396 64.0551 25.4532 62.9958C25.0461 62.1347 24.0877 62.0951 23.1005 62.3004C22.7201 62.3817 22.3447 62.4852 21.9764 62.6103L22.0016 62.5887C23.346 61.5396 24.7948 60.6317 26.3251 59.8793C26.865 60.5861 27.5507 61.1686 28.3356 61.5871C29.7984 62.3401 31.0414 61.4465 30.7171 60.3224C30.4541 59.4073 29.5137 59.2163 28.5085 59.2415C28.1137 59.263 27.7204 59.3063 27.3304 59.3713C27.7862 59.156 28.2446 58.9441 28.7036 58.7319L28.704 58.7317L28.7044 58.7316L28.7047 58.7314L28.7048 58.7313C29.8815 58.1875 31.0618 57.6419 32.2123 57.0329H32.2484C32.9646 57.6512 33.8142 58.0952 34.7308 58.33C36.3269 58.7263 37.3285 57.5662 36.752 56.5285C36.2837 55.6999 35.3109 55.7359 34.3561 56.0097C34.0859 56.089 33.8157 56.1863 33.5526 56.2871C34.6209 55.6662 35.6564 54.9903 36.6548 54.2623L36.7376 54.3524V54.3055C37.461 54.9293 38.3175 55.3792 39.2417 55.6206C40.8342 56.0133 41.8394 54.8568 41.2629 53.8191C40.809 53.0373 39.8506 53.0697 38.8814 53.3471ZM13.6896 85.9934C13.3618 85.6115 13.0519 85.2115 12.7493 84.808C12.8213 84.7432 12.9006 84.6711 12.9798 84.5918C13.4301 84.7321 13.896 84.8156 14.367 84.8404V84.9161L14.5868 84.8693C14.702 85.4385 14.8209 86.0042 14.947 86.5699C14.6497 86.1807 14.1785 85.9647 13.6896 85.9934ZM14.5687 73.7074C14.6588 73.2786 14.7525 72.8535 14.8642 72.4283H14.8678C15.0837 71.598 15.3447 70.7802 15.6496 69.9783C15.2991 69.7412 14.9733 69.4696 14.6768 69.1676C14.6228 69.7801 14.5795 70.389 14.5543 71.0015C14.5279 71.8759 14.5147 72.7526 14.5147 73.6317L14.5687 73.7074ZM16.3414 68.393C16.363 68.2345 16.381 68.0724 16.3882 67.9138V67.6724C16.5179 67.6328 16.6512 67.586 16.7809 67.5319C16.7332 67.6263 16.6846 67.721 16.6359 67.816C16.5377 68.0076 16.4389 68.2003 16.345 68.393H16.3414ZM17.5592 64.7288C17.8544 64.8365 18.0927 65.0605 18.2185 65.3485L18.2221 65.3521C18.931 64.4293 19.7353 63.584 20.6217 62.8301C20.1929 62.2226 19.8903 61.5353 19.7318 60.8088C19.4466 61.2337 19.0161 61.5399 18.5212 61.6699C17.7201 61.9009 16.8802 61.9659 16.0532 61.8609C15.6669 63.1246 15.3589 64.4109 15.1308 65.7124C15.11 65.7587 15.1013 65.8096 15.1056 65.8601C15.1674 65.8633 15.2289 65.8717 15.2893 65.8854H15.347L15.3758 65.8457C15.9487 65.0171 16.6693 64.3685 17.5592 64.7288Z" fill="#ADC7F7"/>
<path opacity="0.3" fill-rule="evenodd" clip-rule="evenodd" d="M38.8814 53.3471C38.1941 53.5713 37.5194 53.8323 36.8601 54.129C37.2204 53.866 37.5807 53.5921 37.941 53.3147C39.5451 52.0246 41.0718 50.641 42.5131 49.1713C40.8218 50.8143 39.0158 52.335 37.1087 53.7218C37.3716 53.2651 37.6028 52.7908 37.8005 52.3023C38.1608 51.4051 38.2257 50.5008 37.3718 50.0216C36.3161 49.4307 35.0406 50.3135 35.3757 51.8231C35.5802 52.6659 35.9787 53.4493 36.5395 54.111C35.2949 54.9725 33.9951 55.7512 32.6483 56.4421L32.5222 56.5069C32.8069 56.0138 33.0585 55.5022 33.2752 54.9757C33.6139 54.0821 33.7004 53.1742 32.8429 52.6986C31.7872 52.1041 30.5118 52.9904 30.8504 54.5001C31.0515 55.3316 31.4411 56.1057 31.989 56.7627C30.8556 57.3206 29.6956 57.8201 28.5302 58.3219L28.5301 58.322L28.53 58.3221L28.5299 58.3221C28.032 58.5365 27.5331 58.7513 27.0349 58.9713L26.7935 59.0794C27.1184 58.7305 27.4205 58.361 27.6979 57.9733C28.2383 57.1807 28.5301 56.3232 27.8095 55.6566C26.9232 54.8351 25.4712 55.3972 25.4496 56.9537C25.4506 57.8127 25.6504 58.6599 26.0333 59.4289C24.4757 60.1567 22.9957 61.0403 21.6161 62.0663L21.5729 62.1023C21.7595 61.8065 21.9302 61.501 22.0845 61.1871C22.4916 60.3188 22.6429 59.4253 21.8215 58.8813C21.4833 58.6487 21.0571 58.5839 20.6651 58.7054C20.2731 58.827 19.9583 59.1215 19.811 59.5046C19.7027 59.3356 19.5558 59.1948 19.3823 59.0938C18.5572 58.6182 17.7465 59.1335 17.0512 59.8612C16.871 60.0522 16.6909 60.2576 16.5359 60.4593C17.0723 58.9706 17.7466 57.5352 18.55 56.1718C19.315 56.506 20.14 56.6813 20.9748 56.6871C22.6177 56.6871 23.3095 55.3179 22.5024 54.4676C21.8467 53.7795 20.9243 54.0425 20.0524 54.5469C19.7653 54.7143 19.4875 54.8971 19.2201 55.0946C20.0554 53.8366 21.0032 52.6572 22.052 51.5709C22.7393 52.1268 23.538 52.5286 24.394 52.749C25.9901 53.1418 26.9917 51.9852 26.4152 50.9656C25.9468 50.1369 24.974 50.1693 24.0193 50.4468C23.5622 50.5835 23.1145 50.7495 22.679 50.944C23.1149 50.5188 23.5653 50.1117 24.0229 49.7082C24.6209 49.1965 25.2407 48.7029 25.8712 48.2201C26.5491 48.7611 27.3336 49.1528 28.1734 49.3695C29.7695 49.7622 30.7712 48.6057 30.1947 47.586C29.7263 46.7574 28.7535 46.7898 27.7951 47.0672C27.5718 47.1321 27.3448 47.2113 27.125 47.2942C27.9573 46.6997 28.8004 46.1196 29.647 45.5432L30.4289 45.0063C31.1334 45.5964 31.9605 46.0223 32.8501 46.2529C34.4462 46.6457 35.4514 45.4891 34.8749 44.4695C34.4029 43.6408 33.4337 43.6732 32.4754 43.9507C32.0982 44.066 31.7271 44.1993 31.362 44.3506L31.8448 43.9903C32.1403 43.7777 32.4357 43.5615 32.724 43.3346C32.9843 43.1393 33.2353 42.9289 33.4864 42.7185L33.4865 42.7184L33.4866 42.7183C33.5829 42.6376 33.6792 42.5569 33.776 42.4771C33.9778 42.3185 34.1687 42.1492 34.3597 41.9763C35.067 42.5727 35.8994 43.0024 36.7953 43.2337C38.3914 43.6264 39.393 42.4699 38.8165 41.4502C38.3481 40.6215 37.3754 40.654 36.4206 40.9314C35.8851 41.0968 35.3605 41.2954 34.8497 41.5259C35.5018 40.9206 36.1323 40.2901 36.7304 39.6343L36.7439 39.6183L36.7609 39.5977C36.7894 39.5633 36.8174 39.5294 36.8493 39.4974C37.1051 39.2128 37.3573 38.9246 37.6023 38.6255C37.8473 38.3265 38.1644 37.9338 38.431 37.5735C39.5259 36.1364 40.4271 34.5616 41.1116 32.8896C40.3943 34.5417 39.4627 36.0923 38.3409 37.5014C37.2314 38.9164 35.9927 40.2251 34.6407 41.4106L34.493 41.5367C34.8001 41.0137 35.0721 40.4708 35.3073 39.9118C35.6495 39.0182 35.7324 38.1103 34.8749 37.6347C33.8229 37.0402 32.5438 37.9265 32.8825 39.4362C33.1 40.3301 33.5344 41.1567 34.1471 41.8429L33.8301 42.1168L33.4698 42.4266C33.2608 42.5959 33.0447 42.758 32.8286 42.9201L32.8284 42.9202C32.8008 42.941 32.7733 42.962 32.7456 42.9831C32.6583 43.0498 32.5694 43.1175 32.4682 43.1832C32.1619 43.4102 31.852 43.63 31.5386 43.8462L31.0882 44.1524L30.5766 44.5127C30.8756 44.0023 31.1381 43.4714 31.362 42.9238C31.7043 42.0267 31.7872 41.1224 30.9333 40.6468C29.8776 40.0523 28.5986 40.9386 28.9373 42.4482C29.1461 43.3154 29.56 44.1198 30.1443 44.7938L29.784 45.0388L28.3824 45.9575L28.105 46.1376L27.3232 46.6601L26.9845 46.8871C26.6242 47.1357 26.2639 47.3879 25.9036 47.6473C26.1931 47.1288 26.4459 46.5906 26.6602 46.0368C27.0205 45.1432 27.0854 44.2353 26.2315 43.7597C25.1758 43.1652 23.9004 44.0515 24.239 45.5612C24.4507 46.4399 24.8736 47.2538 25.4712 47.9319C24.8587 48.3823 24.2534 48.8435 23.6698 49.3263C23.241 49.6865 22.8195 50.0468 22.4051 50.436C22.5856 50.102 22.7468 49.7579 22.8879 49.4055C23.2266 48.5084 23.3131 47.604 22.4556 47.1285C21.3999 46.534 20.1245 47.4203 20.4632 48.9299C20.6642 49.7614 21.0538 50.5356 21.6017 51.1926C20.4348 52.3522 19.3837 53.6228 18.4635 54.9865C18.568 54.5932 18.6474 54.1936 18.7013 53.7903C18.8166 52.8391 18.6797 51.9456 17.7321 51.6862C16.5648 51.3655 15.5415 52.5329 16.2369 53.9236C16.6369 54.6892 17.2092 55.3515 17.9087 55.8584C17.0011 57.3408 16.2431 58.9098 15.646 60.5422C15.6304 60.2008 15.5968 59.8604 15.5451 59.5226C15.383 58.575 15.0011 57.7571 14.0175 57.7751C12.8069 57.8004 12.1548 59.2163 13.2176 60.3476C13.7845 60.9386 14.4763 61.3953 15.2425 61.6843C14.8327 62.9445 14.4995 64.2283 14.2445 65.5287C14.2185 65.6519 14.1965 65.7751 14.1744 65.8983C14.1597 65.9805 14.145 66.0626 14.1292 66.1448C14.0859 66.1844 14.0427 66.224 14.0031 66.2673C13.9598 66.0907 13.9094 65.907 13.8518 65.7376C13.5491 64.8297 13.0447 64.0767 12.0755 64.2496C10.8865 64.4586 10.4578 65.9502 11.6828 66.9122C12.3054 67.3874 13.023 67.7229 13.7869 67.8958C13.7869 67.9212 13.8012 67.9448 13.816 67.9691C13.8222 67.9793 13.8284 67.9897 13.8337 68.0003C13.7004 68.9767 13.5995 69.9603 13.5383 70.9475C13.4915 71.6681 13.4662 72.4211 13.4518 73.1597C12.4214 73.1597 11.6936 74.291 12.4034 75.516C12.7029 76.024 13.0867 76.4772 13.5383 76.8563C13.6248 78.2435 13.7617 79.6306 13.9454 81.0069C13.649 80.7327 13.2298 80.6355 12.8429 80.7511C12.1944 80.9276 11.9026 81.4501 11.7981 82.0914C11.5673 82.3302 11.4381 82.6492 11.4378 82.9813C10.955 82.2607 10.4974 81.5401 10.0543 80.7799C10.7307 80.2613 11.2916 79.6073 11.7008 78.8596C12.4754 77.4184 11.5999 76.1537 10.4722 76.46C9.54984 76.7122 9.34808 77.649 9.39131 78.6542C9.40572 79.0354 9.44181 79.4156 9.4994 79.7927L9.02381 78.9568C8.81522 78.5776 8.62659 78.1983 8.43796 77.8191C8.26819 77.4777 8.09843 77.1364 7.91411 76.7951C7.82043 76.6185 7.73756 76.4348 7.6619 76.2546C8.42097 75.8722 9.09213 75.336 9.63271 74.6801C10.6668 73.4047 10.0434 72.0032 8.87609 72.0932C7.92492 72.1689 7.54661 73.0516 7.38808 74.046C7.32629 74.4796 7.28781 74.9162 7.27278 75.3539L6.93411 74.5721C6.21278 72.7984 5.61918 70.9755 5.15786 69.1172C6.01703 68.8128 6.79742 68.3204 7.44212 67.676C8.59867 66.5051 8.11947 65.0531 6.94852 65.0243C5.99734 65.0026 5.53256 65.8421 5.27315 66.8257C5.14601 67.3479 5.05095 67.8773 4.98852 68.411C4.73631 67.3446 4.52014 66.2637 4.33999 65.1684C4.22768 64.554 4.15171 63.9305 4.07599 63.3091L4.07599 63.309L4.05536 63.1399C4.97885 62.9569 5.84865 62.5664 6.59903 61.9978C7.89609 60.989 7.61146 59.4757 6.45131 59.3064C5.51094 59.1587 4.94168 59.9333 4.55977 60.8665C4.33617 61.455 4.14847 62.0566 3.99771 62.6679C3.98455 62.5245 3.97103 62.3809 3.9575 62.2373L3.9575 62.2372L3.95749 62.2372L3.95749 62.2371C3.89694 61.5942 3.8362 60.9493 3.80675 60.3044C3.69867 58.6753 3.69867 57.0408 3.80675 55.4116C3.64228 57.0394 3.58571 58.6763 3.63742 60.3116C3.63742 60.8997 3.67697 61.4856 3.71661 62.0727L3.71661 62.0727C3.72773 62.2374 3.73885 62.4021 3.74911 62.5671C3.54328 62.0551 3.30251 61.558 3.02852 61.079C2.53852 60.254 1.88278 59.6379 0.974842 59.9982C-0.145673 60.4593 -0.242952 62.0086 1.16219 62.686C1.98634 63.0645 2.89037 63.2365 3.79594 63.1868L3.82215 63.4616C3.87729 64.0428 3.93217 64.6214 4.01933 65.1972C4.15984 66.2781 4.33999 67.3157 4.55256 68.3642C4.322 67.9625 4.06565 67.5762 3.78514 67.2076C3.19065 66.4546 2.46286 65.9214 1.62337 66.4078C0.574916 67.0095 0.675798 68.5696 2.15661 69.0488C2.99453 69.3091 3.88202 69.3684 4.74712 69.2217C5.15818 71.1003 5.69871 72.9482 6.36484 74.7522L6.57742 75.2926C6.38679 75.0402 6.18105 74.7996 5.96131 74.5721C5.29477 73.8803 4.52014 73.4227 3.71668 73.9956C2.73308 74.7162 2.99609 76.2294 4.50933 76.5681C5.34447 76.7372 6.20726 76.7125 7.03139 76.496C7.10705 76.6798 7.18271 76.8563 7.27278 77.0437C7.41607 77.3388 7.55308 77.6369 7.68994 77.9345L7.68996 77.9346L7.68998 77.9346L7.68999 77.9346C7.89727 78.3855 8.1042 78.8356 8.33205 79.2739L8.6455 79.9044C8.45815 79.7423 8.26359 79.5874 8.06183 79.4432C7.27639 78.892 6.42609 78.5893 5.74874 79.2991C4.91286 80.1746 5.4533 81.6302 7.00977 81.6771C7.82008 81.6959 8.6246 81.536 9.36609 81.2087C9.81286 82.0157 10.2704 82.812 10.7676 83.5938L10.841 83.7135L10.841 83.7136C10.9992 83.9718 11.1559 84.2278 11.3369 84.4837C11.0542 84.2253 10.7558 83.9846 10.4434 83.7632C9.65793 83.2119 8.80764 82.9093 8.12668 83.619C7.2944 84.4946 7.83484 85.9501 9.39131 85.997C10.2809 86.0077 11.1603 85.8064 11.9566 85.4097C12.216 85.77 12.4826 86.1303 12.7565 86.4906C12.1764 87.1643 12.3673 88.2921 13.5455 88.8073C14.1177 89.0458 14.7276 89.1812 15.347 89.2072C15.419 89.2649 15.4911 89.3225 15.5704 89.3765L15.6064 89.4054C16.351 92.1868 17.2337 94.9275 18.2545 97.6273C18.6869 98.7766 19.1517 99.9151 19.6309 101.046H15.3073V118.096H28.5193V101.032H21.4864C20.8847 99.717 20.3046 98.3875 19.7642 97.0436C18.8815 94.8386 18.0816 92.5976 17.3862 90.3241C17.5046 90.359 17.6249 90.3866 17.7465 90.407C17.9066 90.4394 18.0707 90.4467 18.2329 90.4286L18.0456 89.2432H17.9195C17.8443 89.2326 17.7698 89.2182 17.6961 89.2C17.5296 89.1523 17.3671 89.0921 17.2097 89.0199L17.0223 88.9334C17.7177 88.6911 18.3634 88.3249 18.9283 87.8525C20.1785 86.7716 19.8254 85.2944 18.6581 85.1683C17.7141 85.0638 17.1809 85.8637 16.8566 86.8113C16.7593 87.0815 16.6801 87.3625 16.6116 87.6363C16.5431 87.3841 16.4747 87.1319 16.4098 86.8797C16.2445 86.2339 16.0954 85.5828 15.9461 84.9309L15.8766 84.6279C16.6312 84.3925 17.3325 84.0119 17.9411 83.5074C19.1913 82.4265 18.8346 80.9529 17.6709 80.8268C16.7233 80.7223 16.1937 81.5221 15.8694 82.4697C15.7721 82.7435 15.6893 83.0282 15.6172 83.3092C15.5091 82.7615 15.4046 82.2103 15.3073 81.659C15.2389 81.2519 15.174 80.8412 15.1128 80.4304C15.0912 79.8468 15.0804 79.2631 15.0876 78.6758C15.0876 78.3551 15.0876 78.0345 15.1164 77.7138C15.8228 77.937 16.5636 78.031 17.3034 77.9912C18.9463 77.8832 19.5516 76.478 18.6941 75.6818C17.9951 75.0296 17.0908 75.3539 16.2513 75.9088C15.8749 76.1645 15.5139 76.4424 15.1704 76.741C15.2716 75.3697 15.48 74.0085 15.7937 72.6697C15.9776 71.8811 16.2074 71.104 16.4819 70.3422C17.2352 70.6019 18.0317 70.7132 18.8274 70.6701C20.4704 70.5656 21.0757 69.1604 20.2182 68.3606C19.5228 67.7121 18.6148 68.0327 17.7754 68.5912C17.4823 68.7926 17.2008 69.0103 16.9323 69.2433C17.2491 68.498 17.6175 67.7756 18.0348 67.0815C18.8623 65.6812 19.9001 64.4162 21.1117 63.3309C21.7396 63.9101 22.4822 64.3508 23.2915 64.6243C24.8551 65.136 25.9396 64.0551 25.4532 62.9958C25.0461 62.1347 24.0877 62.0951 23.1005 62.3004C22.7201 62.3817 22.3447 62.4852 21.9764 62.6103L22.0016 62.5887C23.346 61.5396 24.7948 60.6317 26.3251 59.8793C26.865 60.5861 27.5507 61.1686 28.3356 61.5871C29.7984 62.3401 31.0414 61.4465 30.7171 60.3224C30.4541 59.4073 29.5137 59.2163 28.5085 59.2415C28.1137 59.263 27.7204 59.3063 27.3304 59.3713C27.7862 59.156 28.2446 58.9441 28.7036 58.7319L28.704 58.7317L28.7044 58.7316L28.7047 58.7314L28.7048 58.7313C29.8815 58.1875 31.0618 57.6419 32.2123 57.0329H32.2484C32.9646 57.6512 33.8142 58.0952 34.7308 58.33C36.3269 58.7263 37.3285 57.5662 36.752 56.5285C36.2837 55.6999 35.3109 55.7359 34.3561 56.0097C34.0859 56.089 33.8157 56.1863 33.5526 56.2871C34.6209 55.6662 35.6564 54.9903 36.6548 54.2623L36.7376 54.3524V54.3055C37.461 54.9293 38.3175 55.3792 39.2417 55.6206C40.8342 56.0133 41.8394 54.8568 41.2629 53.8191C40.809 53.0373 39.8506 53.0697 38.8814 53.3471ZM13.6896 85.9934C13.3618 85.6115 13.0519 85.2115 12.7493 84.808C12.8213 84.7432 12.9006 84.6711 12.9798 84.5918C13.4301 84.7321 13.896 84.8156 14.367 84.8404V84.9161L14.5868 84.8693C14.702 85.4385 14.8209 86.0042 14.947 86.5699C14.6497 86.1807 14.1785 85.9647 13.6896 85.9934ZM14.5687 73.7074C14.6588 73.2786 14.7525 72.8535 14.8642 72.4283H14.8678C15.0837 71.598 15.3447 70.7802 15.6496 69.9783C15.2991 69.7412 14.9733 69.4696 14.6768 69.1676C14.6228 69.7801 14.5795 70.389 14.5543 71.0015C14.5279 71.8759 14.5147 72.7526 14.5147 73.6317L14.5687 73.7074ZM16.3414 68.393C16.363 68.2345 16.381 68.0724 16.3882 67.9138V67.6724C16.5179 67.6328 16.6512 67.586 16.7809 67.5319C16.7332 67.6263 16.6846 67.721 16.6359 67.816C16.5377 68.0076 16.4389 68.2003 16.345 68.393H16.3414ZM17.5592 64.7288C17.8544 64.8365 18.0927 65.0605 18.2185 65.3485L18.2221 65.3521C18.931 64.4293 19.7353 63.584 20.6217 62.8301C20.1929 62.2226 19.8903 61.5353 19.7318 60.8088C19.4466 61.2337 19.0161 61.5399 18.5212 61.6699C17.7201 61.9009 16.8802 61.9659 16.0532 61.8609C15.6669 63.1246 15.3589 64.4109 15.1308 65.7124C15.11 65.7587 15.1013 65.8096 15.1056 65.8601C15.1674 65.8633 15.2289 65.8717 15.2893 65.8854H15.347L15.3758 65.8457C15.9487 65.0171 16.6693 64.3685 17.5592 64.7288Z" fill="white"/>
<path d="M127.719 102.376C127.719 102.376 125.975 98.4812 125.557 98.0812C125.14 97.6813 121.8 96.4707 120.874 93.3974C119.948 90.3241 118.189 82.1202 122.621 82.6571C127.053 83.1939 125.975 91.7869 127.586 91.5167C129.196 91.2465 126.246 77.5589 129.063 75.6637C131.881 73.7686 136.446 75.5304 135.909 82.7796C135.372 90.0287 134.298 94.1865 135.239 93.7865C136.179 93.3866 138.863 91.9058 138.863 94.9935C138.863 98.0812 136.312 100.229 134.835 100.362C133.358 100.495 132.673 100.632 132.673 100.632V102.643L127.719 102.376Z" fill="#2E353A" stroke="#2E353A" stroke-width="0.5" stroke-linecap="round" stroke-linejoin="round"/>
<path d="M126.3 94.8278C125.287 93.8694 124.358 92.9399 123.929 92.086C123.079 90.3818 122.438 85.6007 122.438 85.6007" stroke="white" stroke-width="0.5" stroke-linecap="round" stroke-linejoin="round"/>
<path d="M120.93 87.9354C121.6 90.7276 121.694 92.8318 123.718 95.2818C124.799 96.6076 127.66 97.7318 127.981 98.9027C128.268 100.312 128.483 101.734 128.626 103.165L130.225 103.273C130.225 103.273 130.55 100.499 129.634 98.5208" stroke="white" stroke-width="0.5" stroke-linecap="round" stroke-linejoin="round"/>
<path d="M121.374 83.4569C121.374 83.4569 120.178 84.3757 120.603 86.6383" stroke="white" stroke-width="0.5" stroke-linecap="round" stroke-linejoin="round"/>
<path d="M129.04 91.6968L128.406 92.7237" stroke="white" stroke-width="0.5" stroke-linecap="round" stroke-linejoin="round"/>
<path d="M129.259 91.3401L129.039 91.6968" stroke="white" stroke-width="0.5" stroke-linecap="round" stroke-linejoin="round"/>
<path d="M131.388 75.9988C131.388 75.9988 128.938 75.8943 128.938 78.2363C128.938 80.2143 129.543 86.9662 129.413 90.0539" stroke="white" stroke-width="0.5" stroke-linecap="round" stroke-linejoin="round"/>
<path d="M133.307 95.1845C133.25 95.9879 133.214 96.5572 133.214 96.7734C133.214 97.9443 136.193 93.4695 137.58 93.365C137.58 93.365 138.964 93.2569 138.431 95.815C138.035 97.7503 136.601 99.3077 134.705 99.8611C133.531 100.182 132.572 99.6485 132.36 100.182C132.19 100.809 132.083 101.451 132.039 102.099" stroke="white" stroke-width="0.5" stroke-linecap="round" stroke-linejoin="round"/>
<path d="M134.006 78.2218C134.191 78.9945 134.278 79.7874 134.265 80.5818C134.265 83.075 133.79 88.955 133.473 92.9254" stroke="white" stroke-width="0.5" stroke-linecap="round" stroke-linejoin="round"/>
<path d="M132.773 76.215C133.093 76.3983 133.353 76.6714 133.519 77.0004" stroke="white" stroke-width="0.5" stroke-linecap="round" stroke-linejoin="round"/>
<path d="M131.038 94.536L130.963 96.0276" stroke="white" stroke-width="0.5" stroke-linecap="round" stroke-linejoin="round"/>
<path d="M131.602 77.4904C131.602 77.4904 130.964 77.703 131.177 79.9404C131.353 81.7887 131.177 90.18 131.094 93.0443" stroke="white" stroke-width="0.5" stroke-linecap="round" stroke-linejoin="round"/>
<path d="M138.312 94.0027C137.398 95.7126 135.935 97.0645 134.158 97.8398C131.275 99.0108 131.174 98.4776 131.174 99.6413C131.174 100.805 131.066 102.945 131.066 102.945" stroke="white" stroke-width="0.5" stroke-linecap="round" stroke-linejoin="round"/>
<path d="M134.318 118.085H125.008L123.016 104.599H136.31L134.318 118.085Z" fill="#ADC7F7" stroke="#2E353A" stroke-width="0.5" stroke-linecap="round" stroke-linejoin="round"/>
<rect x="121.875" y="102.473" width="15.5791" height="3.61015" fill="#ADC7F7" stroke="#2E353A" stroke-width="0.5" stroke-linecap="round" stroke-linejoin="round"/>
<path d="M83.2017 109.005V101.684H61.6417V109.005C61.6382 111.39 60.8309 113.704 59.3502 115.574L58.4062 116.762H86.4371L85.4932 115.574C84.0125 113.704 83.2052 111.39 83.2017 109.005Z" fill="white" stroke="#2E353A" stroke-width="0.5" stroke-linecap="round" stroke-linejoin="round"/>
<path d="M60.3125 114.132H84.5243C83.6551 112.563 83.1988 110.799 83.1984 109.005V101.684H61.6384V109.005C61.638 110.799 61.1817 112.563 60.3125 114.132H60.3125Z" fill="#ADC7F7"/>
<rect x="29.0898" y="39.0002" width="86.6543" height="64.9935" rx="3.05529" fill="#2E353A" stroke="#2E353A" stroke-width="0.5" stroke-linecap="round" stroke-linejoin="round"/>
<path d="M29.0898 93.891H115.748V100.935C115.748 102.622 114.38 103.99 112.692 103.99H32.1487C30.4613 103.99 29.0934 102.622 29.0934 100.935V93.891H29.0898Z" fill="white" stroke="#2E353A" stroke-width="0.5" stroke-linecap="round" stroke-linejoin="round"/>
<rect x="33.4492" y="43.0463" width="77.9388" height="45.9159" fill="white" stroke="#2E353A" stroke-width="0.5" stroke-linecap="round" stroke-linejoin="round"/>
<path d="M74.0197 98.9424C74.0197 98.0589 73.3035 97.3427 72.42 97.3427C71.5365 97.3427 70.8203 98.0589 70.8203 98.9424C70.8203 99.8259 71.5365 100.542 72.42 100.542C73.3035 100.542 74.0197 99.8259 74.0197 98.9424Z" fill="#2E353A" stroke="#2E353A" stroke-width="0.5" stroke-linecap="round" stroke-linejoin="round"/>
<rect x="58.4062" y="116.777" width="28.0345" height="1.30787" fill="white" stroke="#2E353A" stroke-width="0.5" stroke-linecap="round" stroke-linejoin="round"/>
<rect x="34.0625" y="46.2818" width="76.5949" height="4.02449" fill="white" stroke="#2E353A" stroke-width="0.5" stroke-linecap="round" stroke-linejoin="round"/>
<path d="M46.7016 50.3063L45.7829 47.8202H34.0625V50.3063V53.6029V87.0058H110.657V50.3063H46.7016Z" fill="#ADC7F7" stroke="#2E353A" stroke-width="0.5" stroke-linecap="round" stroke-linejoin="round"/>
<path d="M54.6797 68.5047H90.5938" stroke="#2E353A" stroke-width="0.720588" stroke-linecap="round" stroke-linejoin="round"/>
<path d="M54.6797 72.0356H90.5938" stroke="#2E353A" stroke-width="0.720588" stroke-linecap="round" stroke-linejoin="round"/>
<path d="M54.6797 75.5665H90.5938" stroke="#2E353A" stroke-width="0.720588" stroke-linecap="round" stroke-linejoin="round"/>
<path d="M54.6797 79.101H90.5938" stroke="#2E353A" stroke-width="0.720588" stroke-linecap="round" stroke-linejoin="round"/>
<path d="M88.6936 59.0902H56.1482C55.4717 59.0912 54.8225 58.8233 54.3434 58.3456C53.8644 57.8679 53.5947 57.2195 53.5938 56.5429C53.5928 55.8664 53.8606 55.2172 54.3383 54.7381C54.816 54.2591 55.4645 53.9894 56.141 53.9885H88.6936C89.3714 53.9875 90.0217 54.2563 90.501 54.7356C90.9802 55.2149 91.2491 55.8652 91.2481 56.5429C91.2471 57.2195 90.9775 57.8679 90.4984 58.3456C90.0194 58.8233 89.3701 59.0912 88.6936 59.0902Z" fill="white" stroke="#2E353A" stroke-width="0.5" stroke-linecap="round" stroke-linejoin="round"/>
<path d="M88.696 59.0902H84.25V53.9812H88.696C89.3738 53.9803 90.0241 54.2491 90.5034 54.7284C90.9826 55.2076 91.2515 55.8579 91.2505 56.5357C91.2515 57.2135 90.9826 57.8638 90.5034 58.3431C90.0241 58.8224 89.3738 59.0912 88.696 59.0902Z" fill="#2E353A" stroke="#2E353A" stroke-width="0.5" stroke-linecap="round" stroke-linejoin="round"/>
<path fill-rule="evenodd" clip-rule="evenodd" d="M86.0955 54.3642C86.6358 54.1194 87.2705 54.2242 87.7034 54.6298L87.707 54.6334C87.9908 54.8985 88.1572 55.2658 88.1693 55.6539C88.1815 56.0421 88.0384 56.4191 87.7718 56.7015C87.3666 57.1348 86.7403 57.2812 86.185 57.0726C85.6297 56.8639 85.2548 56.3412 85.2352 55.7483C85.2156 55.1554 85.5552 54.6091 86.0955 54.3642ZM85.9004 56.5543C86.3728 56.9977 87.115 56.9749 87.5593 56.5033C88.0037 56.0286 87.9795 55.2836 87.5052 54.8387C87.0313 54.397 86.2892 54.4224 85.8466 54.8955C85.404 55.3686 85.4281 56.1108 85.9004 56.5543Z" fill="white"/>
<path d="M88.8053 57.2347C88.7395 57.1706 88.6423 57.1509 88.5567 57.1843L88.0271 56.6871C87.971 56.6321 87.8813 56.6321 87.8253 56.6871L87.7785 56.7375C87.7249 56.7955 87.7249 56.8849 87.7785 56.9429L88.3009 57.4329C88.2693 57.5239 88.2932 57.625 88.3621 57.6923L89.2629 58.575C89.3865 58.6977 89.586 58.6977 89.7096 58.575C89.8324 58.4514 89.8324 58.2519 89.7096 58.1282L88.8053 57.2347Z" fill="white"/>
<path d="M98.1063 74.5C98.319 75.0273 98.7362 75.4459 99.2629 75.6601C99.67 75.8259 100.214 75.7899 100.841 76.1429C102.257 76.9392 105.791 76.2294 108.353 76.5032C110.915 76.7771 114.366 73.9415 114.366 73.9415L124.53 74.5V64.4118C124.53 64.4118 113.923 64.8549 111.625 63.9686C109.326 63.0823 106.764 61.2304 105.615 61.3168C104.466 61.4033 95.0078 62.4662 95.0078 62.4662L98.1027 74.5H98.1063Z" fill="white" stroke="#2E353A" stroke-width="0.5" stroke-linecap="round" stroke-linejoin="round"/>
<path fill-rule="evenodd" clip-rule="evenodd" d="M86.4001 41.4581C87.6035 37.3113 91.1864 34.2978 95.4781 33.8228C98.2926 33.5093 101.116 34.3278 103.327 36.0977C105.537 37.8677 106.954 40.444 107.263 43.2589C107.738 47.5505 105.581 51.7058 101.798 53.787C98.0151 55.8683 93.3508 55.4657 89.9802 52.7669C86.6097 50.0682 85.1966 45.6048 86.4001 41.4581ZM88.1392 45.3811C88.6615 50.082 92.8957 53.4695 97.5966 52.9472C99.8541 52.6964 101.92 51.5591 103.338 49.7854C104.757 48.0117 105.414 45.747 105.163 43.4895C104.64 38.7886 100.406 35.4012 95.7052 35.9236C91.0043 36.4459 87.6169 40.6802 88.1392 45.3811Z" fill="white"/>
<path d="M95.4781 33.8228L95.5056 34.0713L95.5057 34.0713L95.4781 33.8228ZM86.4001 41.4581L86.16 41.3884H86.16L86.4001 41.4581ZM103.327 36.0977L103.483 35.9026L103.327 36.0977ZM107.263 43.2589L107.015 43.2862L107.015 43.2864L107.263 43.2589ZM89.9802 52.7669L89.824 52.9621L89.9802 52.7669ZM97.5966 52.9472L97.569 52.6987L97.5966 52.9472ZM88.1392 45.3811L87.8907 45.4087L88.1392 45.3811ZM103.338 49.7854L103.534 49.9416L103.338 49.7854ZM105.163 43.4895L104.914 43.5171L105.163 43.4895ZM95.7052 35.9236L95.7328 36.172L95.7052 35.9236ZM95.4506 33.5743C91.0584 34.0605 87.3916 37.1446 86.16 41.3884L86.6402 41.5278C87.8154 37.4781 91.3144 34.5352 95.5056 34.0713L95.4506 33.5743ZM103.483 35.9026C101.221 34.0911 98.3308 33.2535 95.4504 33.5743L95.5057 34.0713C98.2543 33.7651 101.012 34.5644 103.171 36.2929L103.483 35.9026ZM107.512 43.2316C107.195 40.3507 105.745 37.714 103.483 35.9026L103.171 36.2929C105.329 38.0214 106.712 40.5373 107.015 43.2862L107.512 43.2316ZM101.919 54.0061C105.791 51.8761 107.998 47.6235 107.512 43.2314L107.015 43.2864C107.479 47.4775 105.372 51.5355 101.678 53.568L101.919 54.0061ZM89.824 52.9621C93.2735 55.724 98.0471 56.136 101.919 54.0061L101.678 53.568C97.9832 55.6005 93.4281 55.2073 90.1365 52.5718L89.824 52.9621ZM86.16 41.3884C84.9284 45.6323 86.3745 50.2002 89.824 52.9621L90.1365 52.5718C86.8448 49.9363 85.4649 45.5774 86.6402 41.5278L86.16 41.3884ZM97.569 52.6987C93.0053 53.2057 88.8947 49.9172 88.3876 45.3535L87.8907 45.4087C88.4282 50.2468 92.7861 53.7332 97.6242 53.1957L97.569 52.6987ZM103.143 49.6292C101.766 51.3511 99.7606 52.4553 97.569 52.6987L97.6242 53.1957C99.9476 52.9376 102.073 51.767 103.534 49.9416L103.143 49.6292ZM104.914 43.5171C105.158 45.7087 104.521 47.9073 103.143 49.6292L103.534 49.9416C104.994 48.1161 105.669 45.7853 105.411 43.4619L104.914 43.5171ZM95.7328 36.172C100.296 35.6649 104.407 38.9534 104.914 43.5171L105.411 43.4619C104.874 38.6237 100.516 35.1375 95.6776 35.6751L95.7328 36.172ZM88.3876 45.3535C87.8806 40.7898 91.1691 36.6791 95.7328 36.172L95.6776 35.6751C90.8394 36.2127 87.3531 40.5706 87.8907 45.4087L88.3876 45.3535Z" fill="#2E353A"/>
<path fill-rule="evenodd" clip-rule="evenodd" d="M86.3415 40.8492C87.5449 36.7024 91.1278 33.6889 95.4195 33.2139C101.279 32.5673 106.554 36.7909 107.205 42.65C107.68 46.9416 105.523 51.0969 101.74 53.1781C97.9566 55.2594 93.2922 54.8568 89.9216 52.158C86.5511 49.4593 85.1381 44.996 86.3415 40.8492ZM88.0806 44.7722C88.6029 49.4731 92.8371 52.8606 97.538 52.3383C99.7955 52.0875 101.861 50.9502 103.28 49.1765C104.699 47.4028 105.355 45.1381 105.104 42.8806C104.582 38.1797 100.347 34.7923 95.6466 35.3147C90.9457 35.837 87.5583 40.0713 88.0806 44.7722Z" fill="white"/>
<path d="M95.4195 33.2139L95.392 32.9654L95.392 32.9654L95.4195 33.2139ZM107.205 42.65L107.453 42.6225L107.453 42.6224L107.205 42.65ZM89.9216 52.158L89.7654 52.3532L89.9216 52.158ZM97.538 52.3383L97.5104 52.0898L97.538 52.3383ZM88.0806 44.7722L87.8321 44.7998L88.0806 44.7722ZM103.28 49.1765L103.475 49.3327L103.28 49.1765ZM105.104 42.8806L104.856 42.9082L105.104 42.8806ZM95.6466 35.3147L95.6742 35.5631L95.6466 35.3147ZM95.392 32.9654C90.9998 33.4516 87.333 36.5357 86.1014 40.7795L86.5816 40.9189C87.7568 36.8692 91.2558 33.9263 95.447 33.4624L95.392 32.9654ZM107.453 42.6224C106.787 36.6262 101.389 32.3037 95.392 32.9654L95.4469 33.4624C101.169 32.8309 106.321 36.9557 106.956 42.6776L107.453 42.6224ZM101.86 53.3972C105.732 51.2672 107.939 47.0146 107.453 42.6225L106.956 42.6775C107.42 46.8686 105.314 50.9266 101.619 52.9591L101.86 53.3972ZM89.7654 52.3532C93.2149 55.1151 97.9885 55.5272 101.86 53.3972L101.619 52.9591C97.9246 54.9916 93.3695 54.5984 90.0779 51.9629L89.7654 52.3532ZM86.1014 40.7795C84.8698 45.0234 86.3159 49.5913 89.7654 52.3532L90.0779 51.9629C86.7862 49.3274 85.4063 44.9685 86.5816 40.9189L86.1014 40.7795ZM97.5104 52.0898C92.9467 52.5968 88.8361 49.3083 88.329 44.7446L87.8321 44.7998C88.3696 49.6379 92.7275 53.1243 97.5656 52.5868L97.5104 52.0898ZM103.085 49.0203C101.707 50.7422 99.702 51.8464 97.5104 52.0898L97.5656 52.5868C99.889 52.3287 102.015 51.1581 103.475 49.3327L103.085 49.0203ZM104.856 42.9082C105.099 45.0998 104.462 47.2984 103.085 49.0203L103.475 49.3327C104.935 47.5072 105.611 45.1764 105.353 42.853L104.856 42.9082ZM95.6742 35.5631C100.238 35.056 104.349 38.3445 104.856 42.9082L105.353 42.853C104.815 38.0149 100.457 34.5286 95.619 35.0662L95.6742 35.5631ZM88.329 44.7446C87.822 40.1809 91.1105 36.0702 95.6742 35.5631L95.619 35.0662C90.7808 35.6038 87.2945 39.9617 87.8321 44.7998L88.329 44.7446Z" fill="#2E353A"/>
<rect x="96.5859" y="54.8036" width="2.58331" height="9.51897" rx="1.03765" transform="rotate(-6.32 96.5859 54.8036)" fill="#ADC7F7" stroke="#2E353A" stroke-width="0.5" stroke-linecap="round" stroke-linejoin="round"/>
<path d="M97.9549 60.8088L99.0358 60.6935C100.003 60.59 100.874 61.2839 100.989 62.25L102.606 76.8815C102.743 78.1271 101.845 79.2479 100.599 79.3856H100.527C99.9291 79.4523 99.3288 79.2782 98.859 78.9017C98.3892 78.5252 98.0886 77.9772 98.0234 77.3788L96.4056 62.7508C96.353 62.283 96.4887 61.8134 96.7827 61.4457C97.0767 61.078 97.505 60.8424 97.9729 60.7908L97.9549 60.8088Z" fill="#2E353A" stroke="#2E353A" stroke-width="0.5" stroke-linecap="round" stroke-linejoin="round"/>
<path d="M99.528 73.0012C99.528 73.0012 96.9663 73.0949 96.606 73.538C96.2457 73.9812 96.3106 75.5232 97.0059 75.6998C98.7786 76.1646 102.547 75.8943 102.695 75.5773C102.843 75.2602 103.145 73.4155 102.367 73.2174C101.428 73.0734 100.478 73.0011 99.528 73.0012Z" fill="white" stroke="#2E353A" stroke-width="0.5" stroke-linecap="round" stroke-linejoin="round"/>
<path d="M98.7877 69.4271C98.7877 69.4271 95.8081 69.3154 95.3433 69.8522C94.8785 70.389 94.7885 72.3959 95.5739 72.6985C97.5771 73.466 102.084 73.1669 102.29 72.7706C102.495 72.3743 102.942 70.317 102.059 69.9855C101.176 69.654 98.7877 69.4271 98.7877 69.4271Z" fill="white" stroke="#2E353A" stroke-width="0.5" stroke-linecap="round" stroke-linejoin="round"/>
<path d="M98.3594 65.3918C98.3594 65.3918 95.1744 65.2693 94.6772 65.8457C94.18 66.4222 94.0827 68.5624 94.9222 68.8866C97.0839 69.7081 101.768 69.7081 101.988 69.2829C102.207 68.8578 102.798 66.3429 101.854 65.9862C100.91 65.6296 98.3594 65.3918 98.3594 65.3918Z" fill="white" stroke="#2E353A" stroke-width="0.5" stroke-linecap="round" stroke-linejoin="round"/>
<path d="M96.5233 61.6159C96.5233 61.6159 93.3383 61.497 92.8411 62.0699C92.3439 62.6427 92.225 64.8513 93.0861 65.1107C93.9472 65.3701 99.9317 65.9322 100.151 65.5107C100.371 65.0891 100.962 62.5671 100.018 62.2104C99.0742 61.8537 96.5233 61.6159 96.5233 61.6159Z" fill="white" stroke="#2E353A" stroke-width="0.5" stroke-linecap="round" stroke-linejoin="round"/>
<path d="M106.952 72.2121C106.38 72.0549 105.838 71.8041 105.348 71.4699C102.787 69.7009 102.873 65.6368 102.873 65.6368L102.257 65.4602C101.748 65.2666 101.271 64.9982 100.841 64.664C101.047 65.5035 101.168 66.3618 101.201 67.2257C101.182 68.2092 100.42 69.018 99.4394 69.0956C98.6432 69.1857 98.2901 69.2721 98.0234 68.2129C97.7568 67.1536 96.4345 62.9093 96.3445 62.2896C96.2652 61.7276 97.2092 60.726 98.7116 60.4882C101.021 60.6755 103.298 61.3204 105.626 61.3204C106.435 61.3965 107.212 61.6821 107.877 62.1491" fill="white"/>
<path d="M106.952 72.2121C106.38 72.0549 105.838 71.8041 105.348 71.4699C102.787 69.7009 102.873 65.6368 102.873 65.6368L102.257 65.4602C101.748 65.2666 101.271 64.9982 100.841 64.664C101.047 65.5035 101.168 66.3618 101.201 67.2257C101.182 68.2092 100.42 69.018 99.4394 69.0956C98.6432 69.1857 98.2901 69.2721 98.0234 68.2129C97.7568 67.1536 96.4345 62.9093 96.3445 62.2896C96.2652 61.7276 97.2092 60.726 98.7116 60.4882C101.021 60.6755 103.298 61.3204 105.626 61.3204C106.435 61.3965 107.212 61.6821 107.877 62.1491" stroke="#2E353A" stroke-width="0.5" stroke-linecap="round" stroke-linejoin="round"/>
<path d="M109.39 72.4355C109.109 72.4499 108.828 72.4499 108.547 72.4355H109.39Z" fill="white"/>
<path d="M109.39 72.4355C109.109 72.4499 108.828 72.4499 108.547 72.4355" stroke="#2E353A" stroke-width="0.5" stroke-linecap="round" stroke-linejoin="round"/>
<path d="M111.275 72.086C110.663 72.2796 110.031 72.4006 109.391 72.4463L111.275 72.086Z" fill="white"/>
<path d="M111.275 72.086C110.663 72.2796 110.031 72.4006 109.391 72.4463" stroke="#2E353A" stroke-width="0.5" stroke-linecap="round" stroke-linejoin="round"/>
<path d="M114.453 70.9403H117.635" stroke="#2E353A" stroke-width="0.5" stroke-linecap="round" stroke-linejoin="round"/>
<path d="M114.723 71.823H116.049" stroke="#2E353A" stroke-width="0.5" stroke-linecap="round" stroke-linejoin="round"/>
<path d="M102.875 65.6368C102.875 65.6368 104.633 65.6368 105.786 64.5883" stroke="#2E353A" stroke-width="0.5" stroke-linecap="round" stroke-linejoin="round"/>
<path d="M100.802 64.5487C100.752 64.0688 100.651 63.5955 100.503 63.1363" stroke="#2E353A" stroke-width="0.5" stroke-linecap="round" stroke-linejoin="round"/>
<path d="M98.0008 67.7481C98.0008 67.7481 97.6657 66.8185 98.0728 66.4835C98.48 66.1484 99.5608 65.6656 99.7482 66.0367C99.9355 66.4078 100.343 68.1192 100.231 68.4543L100.119 68.7893" stroke="#2E353A" stroke-width="0.5" stroke-linecap="round" stroke-linejoin="round"/>
<path d="M146.838 79.0217H116.375V64.0479H146.838" fill="#ADC7F7"/>
<path d="M146.838 79.0217H116.375V64.0479H146.838" stroke="#2E353A" stroke-width="0.5" stroke-linecap="round" stroke-linejoin="round"/>
<circle cx="118.61" cy="77.3355" r="0.684559" fill="white" stroke="#2E353A" stroke-width="0.5" stroke-linecap="round" stroke-linejoin="round"/>
<path d="M70.1969 49.7874C70.7242 49.5748 71.1428 49.1575 71.357 48.6309C71.5228 48.2238 71.4831 47.6833 71.8398 47.0528C72.6325 45.6404 71.9263 42.106 72.2001 39.5407C72.474 36.9754 69.6348 33.531 69.6348 33.531L70.1861 23.3671H60.0978C60.0978 23.3671 60.5374 33.9741 59.6547 36.2692C58.772 38.5643 56.9165 41.1332 57.0029 42.2825C57.0894 43.4318 58.1595 52.8824 58.1595 52.8824L70.1789 49.7874H70.1969Z" fill="white" stroke="#2E353A" stroke-width="0.5" stroke-linecap="round" stroke-linejoin="round"/>
<path fill-rule="evenodd" clip-rule="evenodd" d="M37.1746 61.4941C33.0285 60.2877 30.0175 56.7025 29.5456 52.4104C28.9008 46.5592 33.114 41.2903 38.9637 40.6324H38.9889C43.281 40.1598 47.4351 42.3194 49.514 46.104C51.5929 49.8886 51.1872 54.5528 48.4862 57.9217C45.7851 61.2906 41.3206 62.7005 37.1746 61.4941ZM41.0753 59.7521C45.7779 59.2279 49.1652 54.9909 48.6412 50.2882C48.1153 45.5861 43.8788 42.1995 39.1763 42.7221C34.4737 43.2466 31.0867 47.4839 31.6111 52.1865C32.1355 56.8891 36.3727 60.2763 41.0753 59.7521Z" fill="white"/>
<path d="M29.5456 52.4104L29.7941 52.383L29.7941 52.383L29.5456 52.4104ZM38.9637 40.6324V40.3824C38.9544 40.3824 38.9451 40.3829 38.9358 40.3839L38.9637 40.6324ZM38.9889 40.6324V40.8824C38.9981 40.8824 39.0072 40.8819 39.0163 40.8808L38.9889 40.6324ZM48.4862 57.9217L48.2911 57.7653L48.4862 57.9217ZM48.6412 50.2882L48.8897 50.2605L48.8897 50.2604L48.6412 50.2882ZM39.1763 42.7221L39.1487 42.4736L39.1486 42.4736L39.1763 42.7221ZM31.6111 52.1865L31.8596 52.1588L31.6111 52.1865ZM29.2971 52.4377C29.78 56.8303 32.8616 60.4995 37.1047 61.7342L37.2444 61.2541C33.1955 60.0759 30.255 56.5747 29.7941 52.383L29.2971 52.4377ZM38.9358 40.3839C32.9491 41.0573 28.6372 46.4496 29.2971 52.4378L29.7941 52.383C29.1644 46.6689 33.279 41.5233 38.9917 40.8808L38.9358 40.3839ZM38.9889 40.3824H38.9637V40.8824H38.9889V40.3824ZM49.7331 45.9836C47.6055 42.1104 43.3542 39.9002 38.9616 40.3839L39.0163 40.8808C43.2078 40.4194 47.2646 42.5284 49.2949 46.2243L49.7331 45.9836ZM48.6812 58.0781C51.4456 54.6303 51.8607 49.8568 49.7331 45.9836L49.2949 46.2243C51.3251 49.9203 50.9289 54.4753 48.2911 57.7653L48.6812 58.0781ZM37.1047 61.7342C41.3478 62.9688 45.9169 61.5258 48.6812 58.0781L48.2911 57.7653C45.6533 61.0553 41.2933 62.4323 37.2444 61.2541L37.1047 61.7342ZM48.3928 50.3159C48.9015 54.8813 45.613 58.9947 41.0476 59.5036L41.103 60.0006C45.9428 59.4611 49.429 55.1004 48.8897 50.2605L48.3928 50.3159ZM39.2039 42.9705C43.7692 42.4632 47.8822 45.7511 48.3928 50.316L48.8897 50.2604C48.3484 45.4212 43.9883 41.9358 39.1487 42.4736L39.2039 42.9705ZM31.8596 52.1588C31.3505 47.5935 34.6387 43.4798 39.204 42.9705L39.1486 42.4736C34.3088 43.0135 30.823 47.3744 31.3626 52.2142L31.8596 52.1588ZM41.0476 59.5036C36.4822 60.0125 32.3686 56.7242 31.8596 52.1588L31.3626 52.2142C31.9023 57.054 36.2631 60.54 41.103 60.0006L41.0476 59.5036Z" fill="#2E353A"/>
<path fill-rule="evenodd" clip-rule="evenodd" d="M40.7028 61.9045C34.8456 62.5535 29.571 58.3322 28.9207 52.4752C28.6082 49.6609 29.427 46.8378 31.1968 44.6274C32.9666 42.417 35.5423 41.0006 38.3568 40.69C44.2142 40.0436 49.4869 44.2672 50.1347 50.1245C50.7824 55.9818 46.5599 61.2555 40.7028 61.9045ZM40.479 59.8177C45.1799 59.2954 48.5673 55.0612 48.0451 50.3603C47.7943 48.1028 46.657 46.0373 44.8833 44.6184C43.1096 43.1995 40.8449 42.5432 38.5874 42.7941C33.8865 43.3165 30.4991 47.5508 31.0215 52.2517C31.5438 56.9526 35.7781 60.34 40.479 59.8177Z" fill="white"/>
<path d="M28.9207 52.4752L29.1692 52.4476L28.9207 52.4752ZM40.7028 61.9045L40.7303 62.153L40.7028 61.9045ZM38.3568 40.69L38.3842 40.9385L38.3568 40.69ZM48.0451 50.3603L48.2936 50.3327L48.0451 50.3603ZM40.479 59.8177L40.4514 59.5693L40.479 59.8177ZM38.5874 42.7941L38.5598 42.5456V42.5456L38.5874 42.7941ZM31.0215 52.2517L31.2699 52.2241L31.0215 52.2517ZM28.6722 52.5028C29.3378 58.497 34.7359 62.8172 40.7303 62.153L40.6752 61.656C34.9553 62.2898 29.8043 58.1674 29.1692 52.4476L28.6722 52.5028ZM31.0016 44.4712C29.1904 46.7333 28.3524 49.6226 28.6722 52.5028L29.1692 52.4476C28.864 49.6993 29.6636 46.9423 31.3919 44.7837L31.0016 44.4712ZM38.3294 40.4415C35.4489 40.7594 32.8129 42.209 31.0016 44.4712L31.3919 44.7837C33.1203 42.6251 35.6356 41.2418 38.3842 40.9385L38.3294 40.4415ZM50.3832 50.097C49.7203 44.1025 44.324 39.7799 38.3294 40.4415L38.3842 40.9385C44.1044 40.3072 49.2536 44.4319 49.8862 50.152L50.3832 50.097ZM40.7303 62.153C46.7247 61.4888 51.046 56.0916 50.3832 50.097L49.8862 50.152C50.5187 55.8721 46.3952 61.0222 40.6752 61.656L40.7303 62.153ZM47.7966 50.3879C48.3036 54.9516 45.0151 59.0622 40.4514 59.5693L40.5066 60.0662C45.3447 59.5287 48.8311 55.1708 48.2936 50.3327L47.7966 50.3879ZM44.7271 44.8136C46.449 46.1911 47.5532 48.1963 47.7966 50.3879L48.2936 50.3327C48.0355 48.0093 46.8649 45.8835 45.0395 44.4232L44.7271 44.8136ZM38.615 43.0426C40.8066 42.799 43.0052 43.4361 44.7271 44.8136L45.0395 44.4232C43.214 42.9628 40.8832 42.2875 38.5598 42.5456L38.615 43.0426ZM31.2699 52.2241C30.7628 47.6604 34.0513 43.5497 38.615 43.0426L38.5598 42.5456C33.7216 43.0833 30.2354 47.4412 30.773 52.2793L31.2699 52.2241ZM40.4514 59.5693C35.8877 60.0763 31.777 56.7878 31.2699 52.2241L30.773 52.2793C31.3106 57.1175 35.6685 60.6037 40.5066 60.0662L40.4514 59.5693Z" fill="#2E353A"/>
<rect x="50.2305" y="48.7487" width="9.51897" height="2.58331" rx="1.03765" transform="rotate(-6.32 50.2305 48.7487)" fill="#ADC7F7" stroke="#2E353A" stroke-width="0.5" stroke-linecap="round" stroke-linejoin="round"/>
<path d="M56.5164 49.9424L56.3975 48.8615C56.2902 47.8865 56.9934 47.009 57.9684 46.9015L72.5964 45.2838C73.1972 45.2139 73.8011 45.3864 74.2745 45.763C74.7478 46.1397 75.0515 46.6894 75.1184 47.2906V47.3626C75.1883 47.9635 75.0158 48.5674 74.6392 49.0408C74.2625 49.5141 73.7128 49.8178 73.1116 49.8847L58.4837 51.5024C57.5104 51.6123 56.6312 50.9151 56.5164 49.9424Z" fill="#2E353A" stroke="#2E353A" stroke-width="0.5" stroke-linecap="round" stroke-linejoin="round"/>
<path d="M68.7031 48.3715C68.7031 48.3715 68.8004 50.9296 69.24 51.2899C69.6795 51.6501 71.2288 51.5853 71.4017 50.8899C71.8701 49.1209 71.5963 45.3486 71.2792 45.2045C70.9622 45.0604 69.1175 44.7505 68.9229 45.5324C68.7777 46.4718 68.7043 47.4209 68.7031 48.3715H68.7031Z" fill="white" stroke="#2E353A" stroke-width="0.5" stroke-linecap="round" stroke-linejoin="round"/>
<path d="M65.1354 49.1065C65.1354 49.1065 65.0201 52.0861 65.557 52.5509C66.0938 53.0157 68.1006 53.1093 68.4033 52.3203C69.1743 50.3171 68.8717 45.8098 68.4753 45.608C68.079 45.4063 66.0217 44.9559 65.6903 45.8386C65.3588 46.7213 65.1354 49.1065 65.1354 49.1065Z" fill="white" stroke="#2E353A" stroke-width="0.5" stroke-linecap="round" stroke-linejoin="round"/>
<path d="M61.0969 49.5424C61.0969 49.5424 60.9744 52.7274 61.5473 53.2246C62.1202 53.7218 64.2675 53.8191 64.5918 52.976C65.4133 50.8359 65.4133 46.1304 64.9881 45.9143C64.563 45.6981 62.0445 45.1036 61.6914 46.0476C61.3383 46.9915 61.0969 49.5424 61.0969 49.5424Z" fill="white" stroke="#2E353A" stroke-width="0.5" stroke-linecap="round" stroke-linejoin="round"/>
<path d="M57.3234 51.3763C57.3234 51.3763 57.2009 54.5613 57.7774 55.0585C58.3538 55.5557 60.5588 55.6746 60.8182 54.8099C61.0777 53.9452 61.6397 47.9643 61.2146 47.7446C60.7894 47.5248 58.2746 46.9375 57.9179 47.8815C57.5612 48.8254 57.3234 51.3763 57.3234 51.3763Z" fill="white" stroke="#2E353A" stroke-width="0.5" stroke-linecap="round" stroke-linejoin="round"/>
<path d="M68.1378 38.4994C68.2847 39.9186 67.9442 41.3456 67.1723 42.5455C65.4068 45.1108 61.3391 45.0207 61.3391 45.0207L61.1626 45.6404C60.9703 46.1489 60.7018 46.6251 60.3663 47.0528C61.2071 46.8465 62.0665 46.7257 62.9316 46.6925C63.9115 46.7209 64.712 47.4841 64.7871 48.4615C64.8772 49.2578 64.9637 49.6109 63.9044 49.8739C62.8451 50.1369 58.6009 51.4664 57.9812 51.5565C57.4191 51.6357 56.4175 50.6918 56.1797 49.1893C56.3706 46.8799 57.0156 44.5992 57.0156 42.2753C57.091 41.4642 57.3766 40.6868 57.8442 40.0199" fill="white"/>
<path d="M68.1378 38.4994C68.2847 39.9186 67.9442 41.3456 67.1723 42.5455C65.4068 45.1108 61.3391 45.0207 61.3391 45.0207L61.1626 45.6404C60.9703 46.1489 60.7018 46.6251 60.3663 47.0528C61.2071 46.8465 62.0665 46.7257 62.9316 46.6925C63.9115 46.7209 64.712 47.4841 64.7871 48.4615C64.8772 49.2578 64.9637 49.6109 63.9044 49.8739C62.8451 50.1369 58.6009 51.4664 57.9812 51.5565C57.4191 51.6357 56.4175 50.6918 56.1797 49.1893C56.3706 46.8799 57.0156 44.5992 57.0156 42.2753C57.091 41.4642 57.3766 40.6868 57.8442 40.0199" stroke="#2E353A" stroke-width="0.5" stroke-linecap="round" stroke-linejoin="round"/>
<path d="M67.792 36.6259C67.8987 36.9629 67.9806 37.3073 68.037 37.6563L67.792 36.6259Z" fill="white"/>
<path d="M67.792 36.6259C67.8987 36.9629 67.9806 37.3073 68.037 37.6563" stroke="#2E353A" stroke-width="0.5" stroke-linecap="round" stroke-linejoin="round"/>
<path d="M66.645 33.4409V30.2595" stroke="#2E353A" stroke-width="0.5" stroke-linecap="round" stroke-linejoin="round"/>
<path d="M67.5278 33.1779V31.852" stroke="#2E353A" stroke-width="0.5" stroke-linecap="round" stroke-linejoin="round"/>
<path d="M61.3414 45.0207C61.3414 45.0207 61.3414 43.2625 60.293 42.1096" stroke="#2E353A" stroke-width="0.5" stroke-linecap="round" stroke-linejoin="round"/>
<path d="M60.2561 47.096C59.7764 47.1455 59.3031 47.2445 58.8438 47.3915" stroke="#2E353A" stroke-width="0.5" stroke-linecap="round" stroke-linejoin="round"/>
<path d="M63.4547 49.8847C63.4547 49.8847 62.5251 50.2198 62.1901 49.809C61.855 49.3983 61.3722 48.321 61.7433 48.1373C62.1144 47.9535 63.8258 47.5428 64.1609 47.6545L64.496 47.7626" stroke="#2E353A" stroke-width="0.5" stroke-linecap="round" stroke-linejoin="round"/>
<path d="M74.7274 1.05765V31.5205H59.75V1.05765" fill="#ADC7F7"/>
<path d="M74.7274 1.05765V31.5205H59.75V1.05765" stroke="#2E353A" stroke-width="0.5" stroke-linecap="round" stroke-linejoin="round"/>
<circle cx="73.04" cy="29.2867" r="0.684559" fill="white" stroke="#2E353A" stroke-width="0.5" stroke-linecap="round" stroke-linejoin="round"/>
<path d="M55.1265 104.044C54.9149 104.572 54.4973 104.991 53.9699 105.204C53.5628 105.374 53.0224 105.334 52.3919 105.687C50.9795 106.483 47.445 105.777 44.8797 106.047C42.3144 106.318 38.87 103.486 38.87 103.486L28.6953 104.044V93.9559C28.6953 93.9559 39.3024 94.399 41.601 93.5163C43.8997 92.6336 46.4614 90.7745 47.6108 90.8646C48.7601 90.9546 58.2178 92.0139 58.2178 92.0139L55.1265 104.044Z" fill="white" stroke="#2E353A" stroke-width="0.5" stroke-linecap="round" stroke-linejoin="round"/>
<path fill-rule="evenodd" clip-rule="evenodd" d="M66.815 71.0238C65.6115 66.8771 62.0287 63.8636 57.737 63.3885L57.7334 63.3921C51.8753 62.7435 46.6005 66.9665 45.9518 72.8246C45.4767 77.1163 47.6336 81.2715 51.4168 83.3528C55.1999 85.434 59.8643 85.0314 63.2348 82.3327C66.6054 79.634 68.0184 75.1706 66.815 71.0238ZM65.0823 74.947C64.5582 79.6496 60.3211 83.0369 55.6185 82.5129C50.9164 81.987 47.5298 77.7505 48.0523 73.048C48.5769 68.3455 52.8142 64.9585 57.5168 65.4828C62.2194 66.0072 65.6065 70.2444 65.0823 74.947Z" fill="white"/>
<path d="M57.737 63.3885L57.7645 63.14C57.6891 63.1317 57.6139 63.1581 57.5602 63.2118L57.737 63.3885ZM57.7334 63.3921L57.7059 63.6406C57.7813 63.649 57.8565 63.6226 57.9102 63.5689L57.7334 63.3921ZM45.9518 72.8246L45.7033 72.7971L45.7033 72.7971L45.9518 72.8246ZM51.4168 83.3528L51.2963 83.5718L51.4168 83.3528ZM63.2348 82.3327L63.0786 82.1375L63.2348 82.3327ZM55.6185 82.5129L55.5907 82.7614L55.5908 82.7614L55.6185 82.5129ZM65.0823 74.947L64.8339 74.9193V74.9193L65.0823 74.947ZM48.0523 73.048L47.8038 73.0203L47.8038 73.0204L48.0523 73.048ZM57.5168 65.4828L57.4891 65.7313L57.5168 65.4828ZM57.7095 63.637C61.9006 64.1009 65.3996 67.0439 66.5749 71.0935L67.0551 70.9542C65.8235 66.7103 62.1567 63.6262 57.7645 63.14L57.7095 63.637ZM57.9102 63.5689L57.9138 63.5653L57.5602 63.2118L57.5566 63.2154L57.9102 63.5689ZM46.2003 72.8521C46.8338 67.1313 51.985 63.0071 57.7059 63.6406L57.7609 63.1437C51.7656 62.4798 46.3672 66.8018 45.7033 72.7971L46.2003 72.8521ZM51.5373 83.1337C47.8427 81.1012 45.7363 77.0433 46.2003 72.8521L45.7033 72.7971C45.2171 77.1893 47.4245 81.4418 51.2963 83.5718L51.5373 83.1337ZM63.0786 82.1375C59.787 84.773 55.2318 85.1662 51.5373 83.1337L51.2963 83.5718C55.168 85.7018 59.9416 85.2898 63.3911 82.5278L63.0786 82.1375ZM66.5749 71.0935C67.7501 75.1432 66.3702 79.502 63.0786 82.1375L63.3911 82.5278C66.8406 79.7659 68.2867 75.198 67.0551 70.9542L66.5749 71.0935ZM55.5908 82.7614C60.4306 83.3007 64.7913 79.8145 65.3308 74.9747L64.8339 74.9193C64.325 79.4847 60.2116 82.7732 55.6462 82.2645L55.5908 82.7614ZM47.8038 73.0204C47.266 77.8601 50.7514 82.2201 55.5907 82.7614L55.6463 82.2645C51.0813 81.7539 47.7935 77.641 48.3008 73.0756L47.8038 73.0204ZM57.5445 65.2344C52.7047 64.6947 48.3437 68.1805 47.8038 73.0203L48.3008 73.0757C48.81 68.5104 52.9237 65.2222 57.4891 65.7313L57.5445 65.2344ZM65.3308 74.9747C65.8703 70.1349 62.3843 65.774 57.5445 65.2344L57.4891 65.7313C62.0544 66.2404 65.3428 70.3539 64.8339 74.9193L65.3308 74.9747Z" fill="#2E353A"/>
<path fill-rule="evenodd" clip-rule="evenodd" d="M67.2289 74.5631C67.8788 68.7056 63.6576 63.4302 57.8002 62.7796C54.9864 62.4671 52.1638 63.2854 49.9535 65.0544C47.7432 66.8235 46.3264 69.3983 46.0149 72.2121C45.3665 78.0698 49.589 83.3441 55.4466 83.9933C61.3041 84.6424 66.579 80.4206 67.2289 74.5631ZM65.1455 74.3381C64.6213 79.0407 60.3843 82.428 55.6816 81.904V81.8968C50.9816 81.3727 47.5951 77.1396 48.1155 72.4391C48.64 67.7366 52.8773 64.3496 57.5799 64.8739C62.2825 65.3983 65.6697 69.6355 65.1455 74.3381Z" fill="white"/>
<path d="M57.8002 62.7796L57.8278 62.5312L57.8002 62.7796ZM67.2289 74.5631L66.9804 74.5355L67.2289 74.5631ZM49.9535 65.0544L49.7973 64.8593L49.9535 65.0544ZM46.0149 72.2121L45.7665 72.1846L46.0149 72.2121ZM55.6816 81.904H55.4316C55.4316 82.0314 55.5274 82.1384 55.654 82.1525L55.6816 81.904ZM65.1455 74.3381L65.394 74.3658V74.3658L65.1455 74.3381ZM55.6816 81.8968H55.9316C55.9316 81.7695 55.8359 81.6625 55.7093 81.6484L55.6816 81.8968ZM48.1155 72.4391L47.867 72.4114L47.867 72.4116L48.1155 72.4391ZM57.5799 64.8739L57.5522 65.1224L57.5799 64.8739ZM57.7726 63.0281C63.4928 63.6635 67.6151 68.8153 66.9804 74.5355L67.4774 74.5907C68.1425 68.596 63.8224 63.197 57.8278 62.5312L57.7726 63.0281ZM50.1097 65.2496C52.2682 63.522 55.0247 62.7229 57.7726 63.0281L57.8278 62.5312C54.9481 62.2113 52.0594 63.0488 49.7973 64.8593L50.1097 65.2496ZM46.2634 72.2396C46.5676 69.4917 47.9512 66.9772 50.1097 65.2496L49.7973 64.8593C47.5352 66.6697 46.0852 69.3048 45.7665 72.1846L46.2634 72.2396ZM55.4741 83.7448C49.7538 83.1109 45.6302 77.9601 46.2634 72.2396L45.7665 72.1846C45.1028 78.1795 49.4243 83.5774 55.419 84.2418L55.4741 83.7448ZM66.9804 74.5355C66.3458 80.2558 61.1945 84.3788 55.4741 83.7448L55.419 84.2418C61.4138 84.9061 66.8123 80.5854 67.4774 74.5907L66.9804 74.5355ZM55.654 82.1525C60.4938 82.6918 64.8545 79.2056 65.394 74.3658L64.897 74.3104C64.3882 78.8758 60.2747 82.1643 55.7093 81.6556L55.654 82.1525ZM55.4316 81.8968V81.904H55.9316V81.8968H55.4316ZM47.867 72.4116C47.3314 77.2492 50.8168 81.6059 55.6539 82.1453L55.7093 81.6484C51.1465 81.1395 47.8588 77.0299 48.3639 72.4666L47.867 72.4116ZM57.6076 64.6255C52.7678 64.0858 48.4069 67.5716 47.867 72.4114L48.3639 72.4668C48.8732 67.9015 52.9869 64.6133 57.5522 65.1224L57.6076 64.6255ZM65.394 74.3658C65.9334 69.526 62.4474 65.1651 57.6076 64.6255L57.5522 65.1224C62.1176 65.6315 65.4059 69.745 64.897 74.3104L65.394 74.3658Z" fill="#2E353A"/>
<rect x="53.0195" y="93.5464" width="9.51897" height="2.58331" rx="1.03765" transform="rotate(-83.68 53.0195 93.5464)" fill="#ADC7F7" stroke="#2E353A" stroke-width="0.5" stroke-linecap="round" stroke-linejoin="round"/>
<path d="M52.7 108.966H52.6279C52.0263 108.9 51.476 108.596 51.0992 108.123C50.7223 107.649 50.5502 107.045 50.6211 106.444L52.2388 91.8157C52.2895 91.3471 52.5248 90.918 52.8926 90.6232C53.2604 90.3285 53.7304 90.1923 54.1988 90.2449L55.2797 90.3638C56.2547 90.4713 56.958 91.3487 56.8506 92.3238L55.2329 106.97C55.165 107.57 54.8611 108.12 54.388 108.496C53.9149 108.873 53.3115 109.045 52.7108 108.977L52.7 108.966Z" fill="#2E353A" stroke="#2E353A" stroke-width="0.5" stroke-linecap="round" stroke-linejoin="round"/>
<path d="M53.6823 102.563C53.6823 102.563 56.2404 102.661 56.6007 103.1C56.961 103.54 56.8962 105.085 56.2008 105.262C54.4318 105.73 50.6595 105.456 50.5154 105.139C50.3712 104.822 50.0614 102.978 50.8432 102.779C51.7828 102.636 52.7319 102.563 53.6823 102.563Z" fill="white" stroke="#2E353A" stroke-width="0.5" stroke-linecap="round" stroke-linejoin="round"/>
<path d="M54.4345 99C54.4345 99 57.4141 98.8847 57.8789 99.4215C58.3436 99.9584 58.4373 101.965 57.6483 102.268C55.645 103.035 51.1378 102.736 50.936 102.34C50.7342 101.944 50.2839 99.8863 51.1666 99.5549C52.0493 99.2234 54.4345 99 54.4345 99Z" fill="white" stroke="#2E353A" stroke-width="0.5" stroke-linecap="round" stroke-linejoin="round"/>
<path d="M54.8688 94.9539C54.8688 94.9539 58.0538 94.835 58.551 95.4079C59.0482 95.9807 59.1455 98.1281 58.306 98.4487C56.1442 99.2738 51.4604 99.2702 51.2406 98.8487C51.0208 98.4271 50.4299 95.9051 51.3739 95.5484C52.3179 95.1917 54.8688 94.9539 54.8688 94.9539Z" fill="white" stroke="#2E353A" stroke-width="0.5" stroke-linecap="round" stroke-linejoin="round"/>
<path d="M56.7021 91.1816C56.7021 91.1816 59.8871 91.0591 60.3844 91.632C60.8816 92.2049 61.0005 94.4171 60.1358 94.6765C59.271 94.9359 53.2902 95.4943 53.0704 95.0728C52.8506 94.6512 52.2633 92.1292 53.2073 91.7761C54.1513 91.423 56.7021 91.1816 56.7021 91.1816Z" fill="white" stroke="#2E353A" stroke-width="0.5" stroke-linecap="round" stroke-linejoin="round"/>
<path d="M44.3164 102.016C45.5729 102.065 46.8135 101.721 47.8653 101.032C50.4306 99.263 50.3405 95.1989 50.3405 95.1989L50.9602 95.0223C51.4687 94.8301 51.9449 94.5616 52.3726 94.2261C52.1663 95.0656 52.0456 95.9239 52.0123 96.7878C52.0406 97.7684 52.8034 98.57 53.7813 98.6469C54.5776 98.7334 54.9307 98.8235 55.1973 97.7606C55.4639 96.6977 56.7862 92.4571 56.8763 91.841C56.9663 91.2248 56.0116 90.2737 54.5091 90.0395C52.1996 90.2304 49.919 90.8754 47.5951 90.8754C46.7846 90.951 46.0076 91.2352 45.3396 91.7004" fill="white"/>
<path d="M44.3164 102.016C45.5729 102.065 46.8135 101.721 47.8653 101.032C50.4306 99.263 50.3405 95.1989 50.3405 95.1989L50.9602 95.0223C51.4687 94.8301 51.9449 94.5616 52.3726 94.2261C52.1663 95.0656 52.0456 95.9239 52.0123 96.7878C52.0406 97.7684 52.8034 98.57 53.7813 98.6469C54.5776 98.7334 54.9307 98.8235 55.1973 97.7606C55.4639 96.6977 56.7862 92.4571 56.8763 91.841C56.9663 91.2248 56.0116 90.2737 54.5091 90.0395C52.1996 90.2304 49.919 90.8754 47.5951 90.8754C46.7846 90.951 46.0076 91.2352 45.3396 91.7004" stroke="#2E353A" stroke-width="0.5" stroke-linecap="round" stroke-linejoin="round"/>
<path d="M41.9531 101.652C42.4569 101.807 42.9746 101.912 43.4988 101.965L41.9531 101.652Z" fill="white"/>
<path d="M41.9531 101.652C42.4569 101.807 42.9746 101.912 43.4988 101.965" stroke="#2E353A" stroke-width="0.5" stroke-linecap="round" stroke-linejoin="round"/>
<path d="M38.7673 100.502H35.5859" stroke="#2E353A" stroke-width="0.5" stroke-linecap="round" stroke-linejoin="round"/>
<path d="M38.5056 101.385H37.1797" stroke="#2E353A" stroke-width="0.5" stroke-linecap="round" stroke-linejoin="round"/>
<path d="M50.3487 95.1989C50.3487 95.1989 48.5904 95.1989 47.4375 94.1504" stroke="#2E353A" stroke-width="0.5" stroke-linecap="round" stroke-linejoin="round"/>
<path d="M52.4231 94.1108C52.4725 93.6311 52.5715 93.1578 52.7185 92.6985" stroke="#2E353A" stroke-width="0.5" stroke-linecap="round" stroke-linejoin="round"/>
<path d="M55.2101 97.3102C55.2101 97.3102 55.5452 96.3807 55.1344 96.0456C54.7237 95.7105 53.6464 95.2277 53.4627 95.5988C53.2789 95.9699 52.8682 97.6849 52.9799 98.0164L53.0916 98.3515" stroke="#2E353A" stroke-width="0.5" stroke-linecap="round" stroke-linejoin="round"/>
<path d="M6.38281 108.587H36.8457V93.61H6.38281" fill="#ADC7F7"/>
<path d="M6.38281 108.587H36.8457V93.61H6.38281" stroke="#2E353A" stroke-width="0.5" stroke-linecap="round" stroke-linejoin="round"/>
<path d="M33.9297 106.898C33.9297 107.276 34.2362 107.582 34.6142 107.582C34.9923 107.582 35.2988 107.276 35.2988 106.898C35.2988 106.52 34.9923 106.213 34.6142 106.213C34.4327 106.213 34.2586 106.285 34.1302 106.414C34.0018 106.542 33.9297 106.716 33.9297 106.898Z" fill="white" stroke="#2E353A" stroke-width="0.5" stroke-linecap="round" stroke-linejoin="round"/>
</svg>
