<svg width="191" height="133" viewBox="0 0 191 133" fill="none" xmlns="http://www.w3.org/2000/svg">
<path fill-rule="evenodd" clip-rule="evenodd" d="M163.328 103.143C163.684 102.815 163.853 102.331 163.778 101.853L162.418 92.4929C162.338 91.9441 162.575 91.3971 163.031 91.0812C163.487 90.7652 164.083 90.7349 164.568 91.0029L172.858 95.5729C173.283 95.7987 173.793 95.7987 174.218 95.5729L182.688 91.3429C183.185 91.0928 183.781 91.1469 184.225 91.4824C184.669 91.818 184.883 92.3766 184.778 92.9229L182.988 102.223C182.889 102.694 183.036 103.184 183.378 103.523L190.018 110.263C190.412 110.658 190.546 111.244 190.363 111.772C190.18 112.299 189.713 112.676 189.158 112.743L179.768 113.913C179.291 113.971 178.873 114.259 178.648 114.683L174.288 123.093C174.031 123.587 173.516 123.892 172.959 123.879C172.403 123.866 171.902 123.538 171.668 123.033L167.668 114.463C167.466 114.028 167.062 113.721 166.588 113.643L157.248 112.093C156.703 112.01 156.251 111.629 156.076 111.106C155.901 110.584 156.033 110.007 156.418 109.613L163.328 103.143Z" stroke="#0B0212"/>
<path fill-rule="evenodd" clip-rule="evenodd" d="M0.227331 125.822L3.54733 122.722C3.71631 122.562 3.79822 122.332 3.76733 122.102L3.08733 117.612C3.05411 117.356 3.16361 117.103 3.37246 116.953C3.58132 116.803 3.85584 116.779 4.08733 116.892L8.08733 119.082C8.29353 119.192 8.54114 119.192 8.74733 119.082L12.8073 117.082C13.0459 116.962 13.3315 116.989 13.5438 117.15C13.7561 117.312 13.8583 117.58 13.8073 117.842L12.9473 122.312C12.9053 122.537 12.9763 122.768 13.1373 122.932L16.3273 126.172C16.5167 126.361 16.5816 126.642 16.4944 126.895C16.4071 127.148 16.1831 127.329 15.9173 127.362L11.4073 127.922C11.1758 127.952 10.9739 128.094 10.8673 128.302L8.77733 132.302C8.66037 132.543 8.41566 132.696 8.14733 132.696C7.87901 132.696 7.63429 132.543 7.51733 132.302L5.58733 128.182C5.48968 127.971 5.29557 127.822 5.06733 127.782L0.587331 127.042C0.321685 126.995 0.105382 126.802 0.029051 126.543C-0.0472799 126.284 0.0295426 126.005 0.227331 125.822V125.822Z" stroke="#0B0212"/>
<path fill-rule="evenodd" clip-rule="evenodd" d="M51.7893 39.0811L44.7393 45.4111C44.3809 45.7298 44.2047 46.2059 44.2693 46.6811L45.4793 56.0711C45.5503 56.6222 45.3025 57.1658 44.8398 57.4735C44.3772 57.7812 43.78 57.7997 43.2993 57.5211L35.1093 52.8211C34.6951 52.5728 34.1837 52.5502 33.7493 52.7611L25.1993 56.8211C24.6955 57.0556 24.1025 56.986 23.6667 56.6412C23.231 56.2964 23.0269 55.7353 23.1393 55.1911L25.1393 45.9311C25.2377 45.4602 25.0995 44.9709 24.7693 44.6211L18.2693 37.7411C17.8825 37.3398 17.76 36.7524 17.9541 36.23C18.1481 35.7076 18.6244 35.3426 19.1793 35.2911L28.5993 34.2911C29.0756 34.2402 29.4973 33.9603 29.7293 33.5411L34.2593 25.2311C34.5252 24.7413 35.0468 24.4457 35.6036 24.4691C36.1604 24.4924 36.6553 24.8308 36.8793 25.3411L40.7193 33.9911C40.908 34.4322 41.3067 34.7482 41.7793 34.8311L51.0893 36.5811C51.6249 36.691 52.0542 37.0911 52.2017 37.6176C52.3491 38.1442 52.1899 38.709 51.7893 39.0811V39.0811Z" stroke="#0B0212"/>
<path fill-rule="evenodd" clip-rule="evenodd" d="M24.7605 8.04114L21.3805 11.0411C21.2081 11.1942 21.1221 11.4223 21.1505 11.6511L21.7405 16.1611C21.7737 16.4259 21.6534 16.6865 21.4304 16.8331C21.2074 16.9796 20.9204 16.9866 20.6905 16.8511L16.7605 14.5811C16.5543 14.4709 16.3067 14.4709 16.1005 14.5811L12.0005 16.5411C11.7584 16.6645 11.4667 16.6365 11.2524 16.4693C11.0381 16.3022 10.9399 16.0261 11.0005 15.7611L11.9505 11.3111C11.9986 11.0843 11.9312 10.8484 11.7705 10.6811L8.65054 7.38114C8.46551 7.18718 8.40751 6.90458 8.50116 6.65341C8.59482 6.40224 8.82369 6.22661 9.09054 6.20114L13.6105 5.73114C13.8395 5.70216 14.0424 5.56937 14.1605 5.37114L16.3305 1.37114C16.4568 1.13391 16.7077 0.989897 16.9762 1.00055C17.2448 1.01121 17.4835 1.17465 17.5905 1.42114L19.4305 5.57114C19.527 5.78414 19.7209 5.93702 19.9505 5.98114L24.4105 6.82114C24.6794 6.86352 24.8994 7.05793 24.9744 7.31958C25.0495 7.58123 24.9661 7.86267 24.7605 8.04114Z" stroke="#0B0212"/>
</svg>
