<svg width="132" height="63" viewBox="0 0 132 63" fill="none" xmlns="http://www.w3.org/2000/svg">
<path fill-rule="evenodd" clip-rule="evenodd" d="M8.32814 12.3217C8.68401 11.9938 8.85281 11.5099 8.77814 11.0317L7.41814 1.67174C7.3377 1.12293 7.57519 0.575947 8.03108 0.260004C8.48697 -0.0559387 9.08251 -0.0862636 9.56814 0.181738L17.8581 4.75174C18.2834 4.97752 18.7929 4.97752 19.2181 4.75174L27.6881 0.521738C28.1851 0.271642 28.7811 0.32575 29.2249 0.661269C29.6687 0.996787 29.8832 1.55539 29.7781 2.10174L27.9881 11.4017C27.8892 11.8732 28.0361 12.3626 28.3781 12.7017L35.0181 19.4417C35.4122 19.8373 35.5462 20.423 35.3632 20.9505C35.1803 21.4781 34.7125 21.8551 34.1581 21.9217L24.7681 23.0917C24.2914 23.15 23.8733 23.4375 23.6481 23.8617L19.2881 32.2717C19.0313 32.7656 18.516 33.0704 17.9595 33.0576C17.403 33.0449 16.9021 32.7168 16.6681 32.2117L12.6681 23.6417C12.466 23.2065 12.0616 22.8995 11.5881 22.8217L2.24814 21.2717C1.7034 21.1886 1.25093 20.8077 1.07604 20.2851C0.901144 19.7626 1.03321 19.1861 1.41814 18.7917L8.32814 12.3217Z" stroke="#0B0212"/>
<path fill-rule="evenodd" clip-rule="evenodd" d="M124.744 58.1326L118.204 56.8126C117.871 56.7402 117.525 56.8419 117.284 57.0826L112.494 61.7226C112.221 62.0233 111.794 62.1294 111.413 61.9912C111.031 61.8531 110.771 61.4981 110.754 61.0926L109.984 54.4626C109.95 54.1247 109.747 53.8272 109.444 53.6726L103.584 50.5726C103.219 50.4058 102.989 50.0371 103 49.6361C103.011 49.2351 103.261 48.8794 103.634 48.7326L109.704 45.9526C110.018 45.8168 110.24 45.5301 110.294 45.1926L111.414 38.5726C111.455 38.167 111.737 37.8266 112.129 37.7123C112.52 37.598 112.941 37.7326 113.194 38.0526L117.704 42.9726C117.93 43.2249 118.269 43.3454 118.604 43.2926L125.214 42.3626C125.601 42.3027 125.987 42.4741 126.203 42.8012C126.418 43.1284 126.422 43.551 126.214 43.8826L122.934 49.7026C122.784 50.0016 122.784 50.3537 122.934 50.6526L125.864 56.6526C126.074 57.0027 126.051 57.4456 125.804 57.7713C125.558 58.097 125.138 58.24 124.744 58.1326Z" stroke="#0B0212"/>
<path fill-rule="evenodd" clip-rule="evenodd" d="M130.923 29.7926L127.783 29.1526C127.624 29.1238 127.461 29.172 127.343 29.2826L125.043 31.5126C124.906 31.6422 124.708 31.6839 124.531 31.6206C124.354 31.5572 124.227 31.3995 124.203 31.2126L123.833 28.0326C123.825 27.87 123.729 27.7247 123.583 27.6526L120.743 26.1426C120.575 26.0603 120.469 25.8896 120.469 25.7026C120.469 25.5156 120.575 25.3449 120.743 25.2626L123.663 23.9226C123.809 23.8546 123.913 23.7207 123.943 23.5626L124.493 20.4026C124.529 20.2201 124.664 20.0728 124.842 20.0203C125.021 19.9678 125.214 20.0188 125.343 20.1526L127.583 22.5126C127.692 22.6324 127.852 22.6921 128.013 22.6726L131.193 22.2226C131.377 22.2011 131.559 22.2836 131.663 22.4367C131.768 22.5898 131.78 22.7884 131.693 22.9526L130.113 25.7526C130.038 25.8968 130.038 26.0684 130.113 26.2126L131.523 29.0826C131.62 29.2633 131.597 29.4848 131.464 29.6414C131.332 29.7979 131.117 29.8579 130.923 29.7926Z" stroke="#0B0212"/>
</svg>
