<svg xmlns="http://www.w3.org/2000/svg" width="416.511" height="357.494" viewBox="0 0 416.511 357.494">
  <g id="Cyber_Monday-bro" data-name="Cyber Monday-bro" transform="translate(-0.41 -0.825)">
    <g id="freepik--background-simple--inject-58" transform="translate(11.718)">
      <path id="Path" d="M65.8,310.724c14.022,2.09,28.318,1.728,42.37,3.525,35.466,4.531,57.613,24.149,83.158,42.721H349.879c1.142-1.191,2.256-2.4,3.34-3.652C391.8,308.937,395.91,234.509,380.98,180.48,360.962,107.907,305.819,19.887,226.939,3.023c-34.89-7.46-71.645-1.1-101.154,18.983C60.037,66.758-2.048,144.067.052,227.547,1.058,267.553,24.444,304.552,65.8,310.724Z" transform="translate(0.798 0.825)" fill="#e6eefc"/>
    </g>
    <g id="freepik--Floor--inject-58" transform="translate(0 356.418)">
      <path id="Path-2" data-name="Path" d="M0,.488H415.535" transform="translate(0.898 0.889)" fill="none" stroke="#263238" stroke-linecap="round" stroke-linejoin="round" stroke-miterlimit="10" stroke-width="0.976"/>
    </g>
    <g id="freepik--Character--inject-58" transform="translate(218.733 16.6)">
      <path id="Path-3" data-name="Path" d="M23.142,23.215l-.723-6.181s2.929-5.38,2.929-5.859-1.035-5.859-2.187-7.353A21.942,21.942,0,0,0,19.656.472c-1.279-1.152-1.8,0-1.406,1.348A20.565,20.565,0,0,0,13.738.844a11.649,11.649,0,0,0-2.451.976,6.65,6.65,0,0,0-1.543-.205A11.142,11.142,0,0,0,7.479,2.8a13.983,13.983,0,0,0-1.66.566c-.859.478-1.953,2.773-1.953,2.773S2.313,6.8,2.059,7.318-.519,11.067.106,11.331c1.406.625,3.906-1.162,3.906-1.162s3.7.332,3.906,1.3,2.978,5.859,4.814,6.65v5.791Z" transform="translate(0.792 0.504)" fill="#fff" stroke="#263238" stroke-linecap="round" stroke-linejoin="round" stroke-miterlimit="10" stroke-width="0.976"/>
      <path id="Path-4" data-name="Path" d="M12.714,5.605,7.626,12.167.381,6.562,0,1.016,5.468,0l7.246,5.605Z" transform="translate(111.945 50.826)" fill="#fb7d00" stroke="#263238" stroke-linecap="round" stroke-linejoin="round" stroke-miterlimit="10" stroke-width="0.976"/>
      <path id="Path-5" data-name="Path" d="M23.6.856S30.7-1.858,36.3,2.38c7.07,5.371,15.77,20.682,7.363,47.916,0,0-9.072-9.072-35.095,0,0,0-6.923-3.467-8.271-23.367C-.408,16.431-1.892-3.587,23.6.856Z" transform="translate(63.089 11.633)" fill="#263238"/>
      <path id="Path-6" data-name="Path" d="M9.5,10.458S2.861,10.985,0,0" transform="translate(102.443 41.374)" fill="none" stroke="#263238" stroke-linecap="round" stroke-linejoin="round" stroke-miterlimit="10" stroke-width="0.976"/>
      <path id="Path-7" data-name="Path" d="M11.191,10.273l-7.656,3.2L0,5.019,2.4,0,7.665,1.816l3.525,8.456Z" transform="translate(139.091 213.675)" fill="#fb7d00" stroke="#263238" stroke-linecap="round" stroke-linejoin="round" stroke-miterlimit="10" stroke-width="0.976"/>
      <path id="Path-8" data-name="Path" d="M10.8,10.624S8.134.2,0,0" transform="translate(130.947 203.481)" fill="none" stroke="#263238" stroke-linecap="round" stroke-linejoin="round" stroke-miterlimit="10" stroke-width="0.976"/>
      <path id="Path-9" data-name="Path" d="M4.73,13.417c5.351.527,5-12.509.361-13.368C-.114-.918-2.965,12.675,4.73,13.417Z" transform="translate(66.232 34.655)" fill="#adc7f7" stroke="#263238" stroke-linecap="round" stroke-linejoin="round" stroke-miterlimit="10" stroke-width="0.976"/>
      <path id="Path-10" data-name="Path" d="M5.368.021c-7.314-.713-6.835,17.108-.5,18.28C12,19.638,15.885,1.046,5.368.021Z" transform="translate(67.478 31.227)" fill="#757575" stroke="#263238" stroke-linecap="round" stroke-linejoin="round" stroke-miterlimit="10" stroke-width="0.976"/>
      <path id="Path-11" data-name="Path" d="M32.217,0l.976,2.861a57.173,57.173,0,0,1-4.951,6.982s-.976-.322-2.588,1.094a5.986,5.986,0,0,0-1.719,3.672s-7.46,8.945-16.923,9.081S.4,19.051.4,19.051Z" transform="translate(27.817 317.505)" fill="#adc7f7" stroke="#263238" stroke-linecap="round" stroke-linejoin="round" stroke-miterlimit="10" stroke-width="0.976"/>
      <path id="Path-12" data-name="Path" d="M23.315,1.168S10.621-3.509,8.131,5.855c0,0,2.265,10.3.908,15.927S.846,38.177.427,40.228c-.82,3.994-.205,4.267-.205,4.267s4.98,2.871,11.65-.205S30.112,27.982,31.918,25.258s-5.664-13.5-5.664-13.5Z" transform="translate(27.833 293.565)" fill="#fff"/>
      <path id="Path-13" data-name="Path" d="M23.315,1.168S10.621-3.509,8.131,5.855c0,0,2.265,10.3.908,15.927S.846,38.177.427,40.228c-.82,3.994-.205,4.267-.205,4.267s4.98,2.871,11.65-.205S30.112,27.982,31.918,25.258s-5.664-13.5-5.664-13.5Z" transform="translate(27.833 293.565)" opacity="0.7"/>
      <path id="Path-14" data-name="Path" d="M23.315,1.168S10.621-3.509,8.131,5.855c0,0,2.265,10.3.908,15.927S.846,38.177.427,40.228c-.82,3.994-.205,4.267-.205,4.267s4.98,2.871,11.65-.205S30.112,27.982,31.918,25.258s-5.664-13.5-5.664-13.5Z" transform="translate(27.833 293.565)" fill="none" stroke="#263238" stroke-linecap="round" stroke-linejoin="round" stroke-miterlimit="10" stroke-width="0.976"/>
      <path id="Path-15" data-name="Path" d="M5.308,0A27.6,27.6,0,0,1,2.134,18.368S-1,21.3.328,23.026" transform="translate(39.337 307.965)" fill="none" stroke="#263238" stroke-linecap="round" stroke-linejoin="round" stroke-miterlimit="10" stroke-width="0.976"/>
      <path id="Path-16" data-name="Path" d="M10.107.976S3.467,1.367,0,0" transform="translate(33.162 324.077)" fill="none" stroke="#263238" stroke-linecap="round" stroke-linejoin="round" stroke-miterlimit="10" stroke-width="0.976"/>
      <path id="Path-17" data-name="Path" d="M9.677.976S3.467,1.953,0,0" transform="translate(34.822 320.405)" fill="none" stroke="#263238" stroke-linecap="round" stroke-linejoin="round" stroke-miterlimit="10" stroke-width="0.976"/>
      <path id="Path-18" data-name="Path" d="M8.984.9S3.545,1.689,0,0" transform="translate(36.569 316.46)" fill="none" stroke="#263238" stroke-linecap="round" stroke-linejoin="round" stroke-miterlimit="10" stroke-width="0.976"/>
      <path id="Path-19" data-name="Path" d="M8.915.065S2.861,1.969,0,.065" transform="translate(37.243 312.636)" fill="none" stroke="#263238" stroke-linecap="round" stroke-linejoin="round" stroke-miterlimit="10" stroke-width="0.976"/>
      <path id="Path-20" data-name="Path" d="M77.018,3.818s11.718,34.109,6.533,56.461S76.716,91.8,77.018,103.947s-12.353,75.3-12.353,75.3H53.085s1.719-54.683,1.631-67.934,2.392-9.628-.644-22.459-.781-25.75-5-39.655c0,0-22.762,39.147-26.883,44.811,0,0,4.58,17.2,4.062,31.814-.6,17.118.908,42.887.908,42.887s-2.578,4.834-9.657,2.929c0,0-18.495-76.273-17.46-80.072S8.283,46.51,28.067,19.12c0,0,3.388-11.659,5.712-19.12Z" transform="translate(21.871 129.541)" fill="#263238"/>
      <path id="Path-21" data-name="Path" d="M31.472,3.2S26.062-.707,14.872.113c0,0-.81,13.427-2.334,17.333S2.978,28.119,1.494,29.271,0,34.5,0,34.5H33.992a107.033,107.033,0,0,0-2.7-17.245Z" transform="translate(57.974 304.19)" fill="#fff"/>
      <path id="Path-22" data-name="Path" d="M31.472,3.2S26.062-.707,14.872.113c0,0-.81,13.427-2.334,17.333S2.978,28.119,1.494,29.271,0,34.5,0,34.5H33.992a107.033,107.033,0,0,0-2.7-17.245Z" transform="translate(57.974 304.19)" opacity="0.7"/>
      <path id="Path-23" data-name="Path" d="M31.472,3.2S26.062-.707,14.872.113c0,0-.81,13.427-2.334,17.333S2.978,28.119,1.494,29.271,0,34.5,0,34.5H33.992a107.033,107.033,0,0,0-2.7-17.245Z" transform="translate(57.974 304.19)" fill="none" stroke="#263238" stroke-linecap="round" stroke-linejoin="round" stroke-miterlimit="10" stroke-width="0.976"/>
      <path id="Path-24" data-name="Path" d="M7.527,0S6.716,12.362,4.8,15.624a22.908,22.908,0,0,1-3.769,4.882s-2.324,0,0,3.125" transform="translate(74.909 309.127)" fill="none" stroke="#263238" stroke-linecap="round" stroke-linejoin="round" stroke-miterlimit="10" stroke-width="0.976"/>
      <path id="Path-25" data-name="Path" d="M12.421,2.176S5.166-1.984,0,1.2" transform="translate(66.118 326.266)" fill="none" stroke="#263238" stroke-linecap="round" stroke-linejoin="round" stroke-miterlimit="10" stroke-width="0.976"/>
      <path id="Path-26" data-name="Path" d="M11.034,2.417S5.966-1.489,0,.63" transform="translate(69.253 323.203)" fill="none" stroke="#263238" stroke-linecap="round" stroke-linejoin="round" stroke-miterlimit="10" stroke-width="0.976"/>
      <path id="Path-27" data-name="Path" d="M11.191,2.431S5.742-1.8,0,.9" transform="translate(71.245 318.833)" fill="none" stroke="#263238" stroke-linecap="round" stroke-linejoin="round" stroke-miterlimit="10" stroke-width="0.976"/>
      <path id="Path-28" data-name="Path" d="M11.415,1.861S4.814-1.684,0,1.011" transform="translate(71.752 314.062)" fill="none" stroke="#263238" stroke-linecap="round" stroke-linejoin="round" stroke-miterlimit="10" stroke-width="0.976"/>
      <path id="Path-29" data-name="Path" d="M34.382,0V2.51H30.476a6.835,6.835,0,0,0-6.542,0H5.605A13.349,13.349,0,0,1,0,1.25L.391,0Z" transform="translate(57.574 338.685)" fill="#adc7f7" stroke="#263238" stroke-linecap="round" stroke-linejoin="round" stroke-miterlimit="10" stroke-width="0.976"/>
      <path id="Path-30" data-name="Path" d="M111.77,51A40.719,40.719,0,0,0,99.8,45.582s-2.3-2.256-3.515-.488c-4.882,7.05-30.828-3.047-30.828-3.047S64.02,40.436,60.338,40.5a15.741,15.741,0,0,0-8.886-3.584c-5.41-.391-24.207,3.105-26.521,1.631S17.978,0,17.978,0H6.788V4.795S1.769,16.61,2.159,33.6-12.879,57.173,33.475,72.66c0,0-1.543,27.81,3.476,40.173,0,0,37.224,18.69,60.913,18.807,0,0,5.273,3.467-1.641-12.372l7.958-10.946s11.2,19.53,18.924,14.14S124.689,59.165,111.77,51Z" transform="translate(6.161 21.18)" fill="#adc7f7"/>
      <g id="Group" transform="translate(5.859 20.506)">
        <path id="Path-31" data-name="Path" d="M33.343,76.215c.059-2.217.137-3.545.137-3.545C-12.875,57.212,2.544,50.65,2.163,33.611S6.792,4.8,6.792,4.8V0H18s4.629,37.107,6.953,38.562c5.214,8.017-4.345,17.43-.976,18.944S35.52,51.646,35.52,51.646a64.2,64.2,0,0,1-2.178,24.568Z" transform="translate(0.297 0.625)" fill="rgba(0,0,0,0.7)" opacity="0.2"/>
        <path id="Path-32" data-name="Path" d="M85.9,27.868S83.695,43.892,82.533,51.9C75.883,49.253,69.047,37.32,69.047,37.32L61.1,48.227c6.914,15.839,1.64,12.382,1.64,12.382C39.05,60.492,1.826,41.8,1.826,41.8A36.13,36.13,0,0,1,0,35.387c24.275,19.4,55.66,21.659,58.453,21.825-4.755-.322-20.858-5.263-22.762-8.984s15.624-.273,20.223-1.045,9.56-15.624,9.56-15.624c-3.437,0-7.763-12.362-7.363-13.9s6.318-1.191,6.318-1.191S61.2,13.4,62.095,9.373,61.382-.7,64.575.067s2.412,6.142,2.412,6.142Z" transform="translate(35.437 71.666)" fill="rgba(0,0,0,0.7)" opacity="0.2"/>
      </g>
      <path id="Path-33" data-name="Path" d="M111.77,51A40.719,40.719,0,0,0,99.8,45.582s-2.3-2.256-3.515-.488c-4.882,7.05-30.828-3.047-30.828-3.047S64.02,40.436,60.338,40.5a15.741,15.741,0,0,0-8.886-3.584c-5.41-.391-24.207,3.105-26.521,1.631S17.978,0,17.978,0H6.788V4.795S1.769,16.61,2.159,33.6-12.879,57.173,33.475,72.66c0,0-1.543,27.81,3.476,40.173,0,0,37.224,18.69,60.913,18.807,0,0,5.273,3.467-1.641-12.372l7.958-10.946s11.2,19.53,18.924,14.14S124.689,59.165,111.77,51Z" transform="translate(6.161 21.18)" fill="none" stroke="#263238" stroke-linecap="round" stroke-linejoin="round" stroke-miterlimit="10" stroke-width="0.976"/>
      <path id="Path-34" data-name="Path" d="M8.8,35.837c11.259.9,22.069-12.362,22.069-12.362s-6.1-.254-6.835-3.047C21.576,11.64,27.65,0,27.65,0S.728,2.929,5.943,8.661a15.438,15.438,0,0,1,2.431,3.486c1.953,3.906,1.074,7.011.264,7.812a1.221,1.221,0,0,1-.186.146c-1.572.879-8.369.312-8.369.312S-1.469,35.017,8.8,35.837Z" transform="translate(71.571 42.799)" fill="#fff" stroke="#263238" stroke-linecap="round" stroke-linejoin="round" stroke-miterlimit="10" stroke-width="0.976"/>
      <path id="Path-35" data-name="Path" d="M15.761,0A30.447,30.447,0,0,1,3.242,2.471L0,4.423" transform="translate(83.138 69.985)" fill="none" stroke="#263238" stroke-linecap="round" stroke-linejoin="round" stroke-miterlimit="10" stroke-width="0.976"/>
      <path id="Path-36" data-name="Path" d="M8.085,6.64l-.43-2.207S1.982,3.154,0,0" transform="translate(71.664 67.749)" fill="none" stroke="#263238" stroke-linecap="round" stroke-linejoin="round" stroke-miterlimit="10" stroke-width="0.976"/>
      <path id="Path-37" data-name="Path" d="M.264,9.767C8.7,11.251,11.718.334,11.718.334S4.951-1.091,0,1.946C1.963,5.832,1.074,8.957.264,9.767Z" transform="translate(79.906 53.001)" fill="#263238"/>
      <path id="Path-38" data-name="Path" d="M11.41.233C-6.948,2.918,1.9,30.045,3.793,36.773c.7,2.49,8.447,9.765,11.913,9.12,2.7-.518,12.333-8.652,12.831-12.011C29.856,24.918,32.111-2.814,11.41.233Z" transform="translate(68.467 14.659)" fill="#fff" stroke="#263238" stroke-linecap="round" stroke-linejoin="round" stroke-miterlimit="10" stroke-width="0.976"/>
      <path id="Path-39" data-name="Path" d="M1.811,0c0,1.269,1.055,4.882-1.435,7.431C-1.236,9.072,2.865,9.8,2.865,9.8" transform="translate(75.547 34.656)" fill="none" stroke="#263238" stroke-linecap="round" stroke-linejoin="round" stroke-miterlimit="10" stroke-width="0.976"/>
      <path id="Path-40" data-name="Path" d="M6.22,0A8,8,0,0,0,0,3.154" transform="translate(70.307 28.972)" fill="none" stroke="#263238" stroke-linecap="round" stroke-linejoin="round" stroke-miterlimit="10" stroke-width="0.976"/>
      <path id="Path-41" data-name="Path" d="M0,.3A17.235,17.235,0,0,1,7.031.826" transform="translate(82.865 28.4)" fill="none" stroke="#263238" stroke-linecap="round" stroke-linejoin="round" stroke-miterlimit="10" stroke-width="0.976"/>
      <path id="Path-42" data-name="Path" d="M.035,1.557c.146.742.693,1.269,1.24,1.162S2.134,1.928,2,1.176,1.294-.093.757.014A1.238,1.238,0,0,0,.035,1.557Z" transform="translate(73.007 36.096)" fill="#263238"/>
      <path id="Path-43" data-name="Path" d="M.064,1.555C.2,2.307.757,2.834,1.3,2.726a1.23,1.23,0,0,0,.713-1.543C1.88.432,1.324-.086.777.012A1.24,1.24,0,0,0,.064,1.555Z" transform="translate(84.89 34.653)" fill="#263238"/>
      <path id="Path-44" data-name="Path" d="M0,3.779A21.483,21.483,0,0,0,8.232,0s.732,4.7-3.154,6.005C2.1,6.982.644,3.633.644,3.633" transform="translate(78.412 45.661)" fill="none" stroke="#263238" stroke-linecap="round" stroke-linejoin="round" stroke-miterlimit="10" stroke-width="0.976"/>
      <path id="Path-45" data-name="Path" d="M27.96,7.138S27.96,20.6,40.166,24.5l4.482-13.3L22.628,0C-.749.107-5.866,28.894,6.594,45.387,6.594,45.387,3.763,8.5,27.96,7.138Z" transform="translate(58.733 11.523)" fill="#263238"/>
      <path id="Path-46" data-name="Path" d="M.016,3.985C-.267,2.491,3.219-1.639,4.7.7c2.539,4.013,1.24,7.812-.918,9.4-.976.723-2.148,2.031-3.144.976" transform="translate(96.344 32.818)" fill="#fff" stroke="#263238" stroke-linecap="round" stroke-linejoin="round" stroke-miterlimit="10" stroke-width="0.976"/>
      <path id="Path-47" data-name="Path" d="M5.372.021c-7.324-.713-6.835,17.108-.5,18.28C11.992,19.629,15.879,1.036,5.372.021Z" transform="translate(94.025 28.532)" fill="#757575" stroke="#263238" stroke-linecap="round" stroke-linejoin="round" stroke-miterlimit="10" stroke-width="0.976"/>
      <path id="Path-48" data-name="Path" d="M23.436,21.934S22.459,1.261,0,1.525c0,0,3.388-2.637,9.853-.976s17,6.572,17,21.395Z" transform="translate(76.508 10.984)" fill="#adc7f7" stroke="#263238" stroke-linecap="round" stroke-linejoin="round" stroke-miterlimit="10" stroke-width="0.976"/>
      <path id="Path-49" data-name="Path" d="M3.919.015C-1.422-.5-1.07,12.524,3.558,13.393,8.773,14.36,11.614.757,3.919.015Z" transform="translate(97.206 30.998)" fill="#adc7f7" stroke="#263238" stroke-linecap="round" stroke-linejoin="round" stroke-miterlimit="10" stroke-width="0.976"/>
      <g id="Group-2" data-name="Group" transform="translate(33.201 146.473)" opacity="0.2">
        <path id="Path-50" data-name="Path" d="M2.218,0S-1.854,14.266,1.037,25.467" transform="translate(36.47 0.762)" fill="none" stroke="#fff" stroke-linecap="round" stroke-linejoin="round" stroke-miterlimit="10" stroke-width="0.976"/>
        <path id="Path-51" data-name="Path" d="M11.425,6.181S3.476.576,0,0" transform="translate(24.783 23.113)" fill="none" stroke="#fff" stroke-linecap="round" stroke-linejoin="round" stroke-miterlimit="10" stroke-width="0.976"/>
        <path id="Path-52" data-name="Path" d="M19.12.961S4.052-1.167,0,.961" transform="translate(22.469 30.872)" fill="none" stroke="#fff" stroke-linecap="round" stroke-linejoin="round" stroke-miterlimit="10" stroke-width="0.976"/>
        <path id="Path-53" data-name="Path" d="M0,4.052S7.226.771,11.249,0" transform="translate(38.688 25.242)" fill="none" stroke="#fff" stroke-linecap="round" stroke-linejoin="round" stroke-miterlimit="10" stroke-width="0.976"/>
        <path id="Path-54" data-name="Path" d="M1.348,0S-2.46,8.515,2.725,11.3" transform="translate(33.483 0.166)" fill="none" stroke="#fff" stroke-linecap="round" stroke-linejoin="round" stroke-miterlimit="10" stroke-width="0.976"/>
        <path id="Path-55" data-name="Path" d="M.006,0C-.2.771,4.967,3.1,4.967,3.1S2.9,8.5.006,9.277" transform="translate(4.037 73.94)" fill="none" stroke="#fff" stroke-linecap="round" stroke-linejoin="round" stroke-miterlimit="10" stroke-width="0.976"/>
        <path id="Path-56" data-name="Path" d="M7.812,0C5.7,5.664,0,9.765,0,9.765" transform="translate(52.369 83.216)" fill="none" stroke="#fff" stroke-linecap="round" stroke-linejoin="round" stroke-miterlimit="10" stroke-width="0.976"/>
        <path id="Path-57" data-name="Path" d="M0,0S7.187,7.724,8.359,10.556" transform="translate(0.644 120.811)" fill="none" stroke="#fff" stroke-linecap="round" stroke-linejoin="round" stroke-miterlimit="10" stroke-width="0.976"/>
      </g>
      <path id="Path-58" data-name="Path" d="M40.055,1.7,44.43,38.213a2.344,2.344,0,0,1-1.26,2.373L7.7,58.9A1.953,1.953,0,0,1,4.9,57.43L.019,20.128a2.363,2.363,0,0,1,1.308-2.422L37.282.188A1.953,1.953,0,0,1,40.055,1.7Z" transform="translate(86.039 164.438)" fill="#bfbfbf" stroke="#263238" stroke-linecap="round" stroke-linejoin="round" stroke-miterlimit="10" stroke-width="0.976"/>
      <path id="Path-59" data-name="Path" d="M40.056,1.706l4.375,36.5a2.363,2.363,0,0,1-1.26,2.383L7.705,58.9a1.953,1.953,0,0,1-2.8-1.465L.02,20.123a2.353,2.353,0,0,1,1.3-2.422L37.273.193a1.953,1.953,0,0,1,2.783,1.514Z" transform="translate(87.991 165.596)" fill="#bfbfbf" stroke="#263238" stroke-linecap="round" stroke-linejoin="round" stroke-miterlimit="10" stroke-width="0.976"/>
      <path id="Path-60" data-name="Path" d="M1.348,1.836a6.835,6.835,0,0,0-.1-1.1A2.3,2.3,0,0,1,2.861,0C4.5,0,5.791,2.031,5.791,4.541S4.472,9.081,2.861,9.081C1.474,9.081.322,7.617,0,5.644A5.449,5.449,0,0,0,1.348,1.836Z" transform="translate(108.371 189.702)" fill="#adc7f7" stroke="#263238" stroke-linecap="round" stroke-linejoin="round" stroke-miterlimit="10" stroke-width="0.976"/>
      <path id="Path-61" data-name="Path" d="M6.211,0l3.6,42.5s-2.06,5.664-3.6,7.47S1.876,61.06.44,62.857s.771,2.3,4.687-3.105a28.806,28.806,0,0,1,3.4,4.375c.771,1.543,2.832-2.314,4.638-2.832s5.41-1.807,5.41-3.6,2.344-3.027,2.578-5.41-2.324-11.327-2.324-11.327l1.035-39.3Z" transform="translate(109.786 156.287)" fill="#fff" stroke="#263238" stroke-linecap="round" stroke-linejoin="round" stroke-miterlimit="10" stroke-width="0.976"/>
      <path id="Path-62" data-name="Path" d="M26.708,33.992c1.328,12.694.234,28.094.234,28.094L24.686,81.82s1.123,3.847.273,4.882c-2.832,3.613-9.013-.7-13.905-4.306S9.1,76.469,9.1,76.469a66.909,66.909,0,0,0-2.578-12.1c-1.7-4.629-3.818-31.863-3.965-36.579,0,0-.7-7.724-2.412-9.765S12.09.518,16.21,0" transform="translate(105.714 85.96)" fill="#adc7f7" stroke="#263238" stroke-linecap="round" stroke-linejoin="round" stroke-miterlimit="10" stroke-width="0.976"/>
      <path id="Path-63" data-name="Path" d="M1.162,0S4.306,14.9,0,27.654" transform="translate(39.636 66.147)" fill="none" stroke="#263238" stroke-linecap="round" stroke-linejoin="round" stroke-miterlimit="10" stroke-width="0.976"/>
      <path id="Path-64" data-name="Path" d="M19.247,0A30.086,30.086,0,0,1,0,1.953" transform="translate(83.138 140.409)" fill="none" stroke="#263238" stroke-linecap="round" stroke-linejoin="round" stroke-miterlimit="10" stroke-width="0.976"/>
      <path id="Path-65" data-name="Path" d="M0,0S.732,19.676,14.559,20.828" transform="translate(66.499 61.685)" fill="none" stroke="#263238" stroke-linecap="round" stroke-linejoin="round" stroke-miterlimit="10" stroke-width="0.976"/>
      <path id="Path-66" data-name="Path" d="M4.394,0S5.586,6.015,1.719,8.017s0-4,0-4" transform="translate(26.717 59.732)" fill="none" stroke="#263238" stroke-linecap="round" stroke-linejoin="round" stroke-miterlimit="10" stroke-width="0.976"/>
      <path id="Path-67" data-name="Path" d="M0,0S6.66,4.824,11.278,3.672" transform="translate(114.815 162.468)" fill="none" stroke="#263238" stroke-linecap="round" stroke-linejoin="round" stroke-miterlimit="10" stroke-width="0.976"/>
      <path id="Path-68" data-name="Path" d="M0,0S6.992,3.056,8.915,2.558" transform="translate(12.948 25.975)" fill="none" stroke="#263238" stroke-linecap="round" stroke-linejoin="round" stroke-miterlimit="10" stroke-width="0.976"/>
      <path id="Path-69" data-name="Path" d="M2.861,5.693h0L4.814.742,6.4,1.113,4.687,8.349,3.613,8.1,4.834,2.91h0L2.881,7.919,1.807,7.665l.381-5.312h0L.976,7.46,0,7.226,1.7,0,3.281.371Z" transform="translate(57.837 102.697)" fill="#263238"/>
      <path id="Shape" d="M.523,7.1A1.779,1.779,0,0,1,.089,5.281L.977,1.522a1.777,1.777,0,1,1,3.447.811L3.536,6.092a1.778,1.778,0,0,1-3.013,1Z" transform="translate(63.617 104.163)" fill="#263238"/>
      <path id="Path-70" data-name="Path" d="M2.256,2.226h0L1.025,7.47,0,7.226,1.709,0,3.135.332l.127,4.6h0L4.238.605,5.214.85,3.506,8.076,2.344,7.8Z" transform="translate(67.495 104.943)" fill="#263238"/>
      <path id="Shape-2" data-name="Shape" d="M1.8,7.646,0,7.226,1.7,0,3.5.42a1.592,1.592,0,0,1,1.28,2.187L3.906,6.26A1.591,1.591,0,0,1,1.8,7.646Z" transform="translate(71.889 105.978)" fill="#263238"/>
      <path id="Shape-3" data-name="Shape" d="M2.831,7.617,2.949,6.26l-1.4-.332L1.045,7.2,0,6.953,2.861,0l1.67.391-.546,7.5Z" transform="translate(75.785 107.17)" fill="#263238"/>
      <path id="Path-71" data-name="Path" d="M.586,5.175.283,0,1.474.283l.078,3.5h0L3.183.693,4.267.947,1.7,5.439l-.566,2.4L0,7.568Z" transform="translate(80.834 107.746)" fill="#263238"/>
      <path id="Path-72" data-name="Path" d="M1.66,0,2.8.264,1.094,7.49,0,7.226Z" transform="translate(65.425 92.962)" fill="#263238"/>
      <path id="Path-73" data-name="Path" d="M8.659,1.381a2.763,2.763,0,0,0-3.388.488A2.724,2.724,0,0,0,2.41.014C.457.17-.646,2.328.408,4.76A11.161,11.161,0,0,0,3.5,8.578l.254.205L4.07,8.7A11.191,11.191,0,0,0,8.484,6.537C10.456,4.769,10.339,2.338,8.659,1.381Z" transform="translate(69.86 93.973)" fill="#263238"/>
      <path id="Path-74" data-name="Path" d="M1,0C1.9,1.748,2.95,4.189,2.54,4.961S-.81,9.745.216,12.187" transform="translate(18.045 2.275)" fill="none" stroke="#263238" stroke-linecap="round" stroke-linejoin="round" stroke-miterlimit="10" stroke-width="0.976"/>
      <path id="Path-75" data-name="Path" d="M1.035,0,0,2.929a1.953,1.953,0,0,0,2.578-.518C3.73,1,6.054,1.592,6.054,1.592" transform="translate(3.584 6.591)" fill="none" stroke="#263238" stroke-linecap="round" stroke-linejoin="round" stroke-miterlimit="10" stroke-width="0.976"/>
      <path id="Path-76" data-name="Path" d="M1.779,0s-4.531,2.929.869,2.256c3.232-.371,4.511.615,4.463.82" transform="translate(10.3 2.275)" fill="none" stroke="#263238" stroke-linecap="round" stroke-linejoin="round" stroke-miterlimit="10" stroke-width="0.976"/>
      <path id="Path-77" data-name="Path" d="M1.174,0S-.779,1.562.353,2.48s3.5.547,3.955.5A6.386,6.386,0,0,1,7.238,3.7" transform="translate(7.097 3.252)" fill="none" stroke="#263238" stroke-linecap="round" stroke-linejoin="round" stroke-miterlimit="10" stroke-width="0.976"/>
    </g>
    <g id="freepik--Device--inject-58" transform="translate(62.495 13.671)">
      <rect id="Rectangle" width="176.227" height="343.724" rx="9.042" transform="translate(0.039 0.4)" fill="#fff" stroke="#263238" stroke-linecap="round" stroke-linejoin="round" stroke-miterlimit="10" stroke-width="0.976"/>
      <path id="Path-78" data-name="Path" d="M4.922,2.451A2.461,2.461,0,1,1,2.461,0,2.461,2.461,0,0,1,4.922,2.451Z" transform="translate(69.604 6.533)" fill="#adc7f7" stroke="#263238" stroke-linecap="round" stroke-linejoin="round" stroke-miterlimit="10" stroke-width="0.976"/>
      <path id="Path-79" data-name="Path" d="M3.086,1.533A1.543,1.543,0,1,1,1.543,0,1.543,1.543,0,0,1,3.086,1.533Z" transform="translate(103.605 7.451)" fill="#adc7f7" stroke="#263238" stroke-linecap="round" stroke-linejoin="round" stroke-miterlimit="10" stroke-width="0.976"/>
      <rect id="Rectangle-2" data-name="Rectangle" width="20.174" height="1.738" rx="0.723" transform="translate(78.627 8.115)" fill="#adc7f7" stroke="#263238" stroke-linecap="round" stroke-linejoin="round" stroke-miterlimit="10" stroke-width="0.976"/>
      <path id="Path-80" data-name="Path" d="M166.032,5.937V327.26a5.947,5.947,0,0,1-5.947,5.947H5.947A5.947,5.947,0,0,1,0,327.26V5.937A5.937,5.937,0,0,1,5.947,0H37.585a4.99,4.99,0,0,1,4.677,3.242L43.61,6.855a4.98,4.98,0,0,0,4.668,3.252h69.467a4.99,4.99,0,0,0,4.677-3.252l1.348-3.613A4.97,4.97,0,0,1,128.437,0h31.648a5.947,5.947,0,0,1,5.947,5.937Z" transform="translate(5.136 6.074)" fill="#adc7f7" opacity="0.4"/>
      <path id="Path-81" data-name="Path" d="M166.032,0V18.719a5.937,5.937,0,0,1-5.947,5.947H5.947A5.947,5.947,0,0,1,0,18.719V0Z" transform="translate(5.136 314.615)" fill="#adc7f7"/>
      <path id="Path-82" data-name="Path" d="M166,5.947V20.711H0V5.947A5.947,5.947,0,0,1,5.947,0H37.585a4.98,4.98,0,0,1,4.677,3.242L43.6,6.855a5,5,0,0,0,4.677,3.252h69.467a5,5,0,0,0,4.677-3.252l1.338-3.613A4.99,4.99,0,0,1,128.437,0h31.619A5.937,5.937,0,0,1,166,5.947Z" transform="translate(5.166 6.074)" fill="#adc7f7"/>
      <path id="Path-83" data-name="Path" d="M166.032,5.947V327.27a5.947,5.947,0,0,1-5.947,5.937H5.947A5.937,5.937,0,0,1,0,327.27V5.947A5.947,5.947,0,0,1,5.947,0H37.585a4.99,4.99,0,0,1,4.677,3.252l1.348,3.6a4.98,4.98,0,0,0,4.668,3.252h69.467a4.99,4.99,0,0,0,4.677-3.252l1.338-3.6A4.98,4.98,0,0,1,128.428,0h31.658a5.947,5.947,0,0,1,5.947,5.947Z" transform="translate(5.136 6.025)" fill="none" stroke="#263238" stroke-linecap="round" stroke-linejoin="round" stroke-miterlimit="10" stroke-width="0.976"/>
      <rect id="Rectangle-3" data-name="Rectangle" width="93.45" height="28.289" rx="11.786" transform="translate(41.423 210.209)" fill="#263238"/>
      <path id="Shape-4" data-name="Shape" d="M0,13.466V0H3.125C5.2,0,6.25,1.172,6.25,3.33V5.078c0,2.158-1.045,3.33-3.154,3.33H2.119v5.058Z" transform="translate(58.746 217.61)" fill="#fff"/>
      <path id="Path-84" data-name="Path" d="M2.119,0V10.39c0,.976.42,1.308,1.094,1.308s1.1-.352,1.1-1.308V0h2V10.253c0,2.158-1.084,3.388-3.164,3.388S0,12.411,0,10.253V0Z" transform="translate(65.874 217.61)" fill="#fff"/>
      <path id="Shape-5" data-name="Shape" d="M4.424,13.466a4.107,4.107,0,0,1-.2-1.66V9.7c0-1.25-.42-1.719-1.387-1.719H2.11v5.488H0V0H3.193C5.38,0,6.328.977,6.328,3.1V4.15A2.667,2.667,0,0,1,4.941,6.864C6,7.3,6.347,8.31,6.347,9.716v2.148a4.112,4.112,0,0,0,.225,1.64Z" transform="translate(73.637 217.61)" fill="#fff"/>
      <path id="Path-85" data-name="Path" d="M6.308,8.6V10.39c0,2.148-1.074,3.388-3.154,3.388S0,12.538,0,10.39v-7C0,1.23,1.074,0,3.154,0S6.308,1.23,6.308,3.388V4.7h-2V3.232c0-.976-.42-1.328-1.094-1.328s-1.1.371-1.1,1.328v7.275c0,.976.43,1.308,1.1,1.308s1.094-.352,1.094-1.308V8.554Z" transform="translate(81.195 217.454)" fill="#fff"/>
      <path id="Path-86" data-name="Path" d="M2.119,13.466H0V0H2.119V5.771h2.4V0H6.679V13.466H4.521V7.695h-2.4Z" transform="translate(88.792 217.61)" fill="#fff"/>
      <path id="Shape-6" data-name="Shape" d="M5.283,13.466l-.362-2.442h-2.6l-.371,2.442H0L2.187,0h3.1L7.421,13.466Z" transform="translate(96.438 217.61)" fill="#fff"/>
      <path id="Path-87" data-name="Path" d="M3.174,0c2.06,0,3.115,1.23,3.115,3.388v.42h-2V3.232c0-.976-.381-1.328-1.055-1.328s-1.064.371-1.064,1.328S2.6,4.941,3.984,6.162C5.752,7.724,6.308,8.837,6.308,10.38c0,2.148-1.074,3.388-3.154,3.388S0,12.528,0,10.38V9.55H2v.976c0,.976.42,1.308,1.094,1.308s1.094-.352,1.094-1.308S3.769,8.808,2.383,7.6C.615,6.044.059,4.921.059,3.388.059,1.279,1.113,0,3.174,0Z" transform="translate(104.513 217.454)" fill="#fff"/>
      <path id="Path-88" data-name="Path" d="M2.119,5.673H5.048V7.626H2.119v3.906H5.771v1.953H0V0H5.771V1.953H2.119Z" transform="translate(112.032 217.61)" fill="#fff"/>
      <path id="Path-89" data-name="Path" d="M39.06,26.375H0l.976-.4A12.587,12.587,0,0,0,8.788,14.393V0H30.271V14.306a12.606,12.606,0,0,0,7.812,11.669Z" transform="translate(68.637 137.314)" fill="#fff"/>
      <path id="Path-90" data-name="Path" d="M21.483,0V12.509A103.107,103.107,0,0,1,0,14.393V0Z" transform="translate(77.396 137.314)" fill="rgba(0,0,0,0.7)" opacity="0.3"/>
      <path id="Path-91" data-name="Path" d="M39.06,26.375H0l.976-.4A12.587,12.587,0,0,0,8.788,14.393V0H30.271V14.306a12.606,12.606,0,0,0,7.812,11.669Z" transform="translate(68.637 137.314)" fill="none" stroke="#263238" stroke-linecap="round" stroke-linejoin="round" stroke-miterlimit="10" stroke-width="0.976"/>
      <rect id="Rectangle-4" data-name="Rectangle" width="93.216" height="69.506" rx="2.929" transform="translate(41.54 75.531)" fill="#fff" stroke="#263238" stroke-linecap="round" stroke-linejoin="round" stroke-miterlimit="10" stroke-width="0.976"/>
      <rect id="Rectangle-5" data-name="Rectangle" width="85.794" height="58.98" transform="translate(45.25 80.795)" fill="#bfbfbf"/>
      <g id="Group-3" data-name="Group" transform="translate(44.918 80.072)">
        <path id="Path-92" data-name="Path" d="M59.566,0S38.22,40.3,0,45.3V0Z" transform="translate(0.361 0.723)" fill="#fff" opacity="0.4"/>
        <path id="Path-93" data-name="Path" d="M41.305,0V38.142H0C6.318,17.381,27.615,5.634,41.305,0Z" transform="translate(44.821 21.561)" fill="#fff" opacity="0.4"/>
      </g>
      <rect id="Rectangle-6" data-name="Rectangle" width="85.794" height="58.98" transform="translate(45.25 80.795)" fill="none" stroke="#263238" stroke-linecap="round" stroke-linejoin="round" stroke-miterlimit="10" stroke-width="0.976"/>
      <path id="Path-94" data-name="Path" d="M1.9,0h39.47a1.953,1.953,0,0,1,1.953,1.953V5.586H0V1.953A1.953,1.953,0,0,1,1.9,0Z" transform="translate(66.509 161.257)" fill="#fff" stroke="#263238" stroke-linecap="round" stroke-linejoin="round" stroke-miterlimit="10" stroke-width="0.976"/>
      <rect id="Rectangle-7" data-name="Rectangle" width="19.481" height="19.481" transform="translate(33.269 178.668)" fill="#bfbfbf" stroke="#263238" stroke-linecap="round" stroke-linejoin="round" stroke-miterlimit="10" stroke-width="0.976"/>
      <rect id="Rectangle-8" data-name="Rectangle" width="19.481" height="19.481" transform="translate(55.845 178.668)" fill="#bfbfbf" stroke="#263238" stroke-linecap="round" stroke-linejoin="round" stroke-miterlimit="10" stroke-width="0.976"/>
      <rect id="Rectangle-9" data-name="Rectangle" width="19.481" height="19.481" transform="translate(78.412 178.668)" fill="#bfbfbf" stroke="#263238" stroke-linecap="round" stroke-linejoin="round" stroke-miterlimit="10" stroke-width="0.976"/>
      <rect id="Rectangle-10" data-name="Rectangle" width="19.481" height="19.481" transform="translate(100.979 178.668)" fill="#bfbfbf" stroke="#263238" stroke-linecap="round" stroke-linejoin="round" stroke-miterlimit="10" stroke-width="0.976"/>
      <rect id="Rectangle-11" data-name="Rectangle" width="19.481" height="19.481" transform="translate(123.555 178.668)" fill="#bfbfbf" stroke="#263238" stroke-linecap="round" stroke-linejoin="round" stroke-miterlimit="10" stroke-width="0.976"/>
      <path id="Path-95" data-name="Path" d="M0,5.83,2.91,2.91,0,0" transform="translate(147.655 185.494)" fill="none" stroke="#263238" stroke-linecap="round" stroke-linejoin="round" stroke-miterlimit="10" stroke-width="0.976"/>
      <path id="Path-96" data-name="Path" d="M2.92,0,0,2.91,2.92,5.83" transform="translate(25.73 185.494)" fill="none" stroke="#263238" stroke-linecap="round" stroke-linejoin="round" stroke-miterlimit="10" stroke-width="0.976"/>
      <path id="Path-97" data-name="Path" d="M44.03,2.373,46.4,6.181l4.482.186,1.348,4.287,4.3,1.3.244,4.472L60.6,18.758l-.879,4.394,3.135,3.2L60.913,30.4l2.246,3.886-2.89,3.437,1.2,4.316-3.652,2.607.088,4.482-4.179,1.621-1.035,4.365-4.453.527L46.159,59.6l-4.443-.6-3.008,3.33-4.15-1.689-3.74,2.48L27.2,60.464l-4.228,1.474-2.832-3.486-4.472.371L13.8,54.752,9.374,54l-.8-4.414-4.1-1.826L4.8,43.288,1.289,40.495,2.7,36.237,0,32.664,2.431,28.9.7,24.764l3.291-3.047-.644-4.433,3.945-2.129.469-4.463,4.355-1.074,1.572-4.2,4.482.039,2.568-3.681,4.336,1.152L28.465,0,32.38,2.2,36.4.205l3.242,3.1Z" transform="translate(91.741 59.097)" fill="#fb7d00" stroke="#263238" stroke-linecap="round" stroke-linejoin="round" stroke-miterlimit="10" stroke-width="0.976"/>
      <path id="_1" data-name="#1" d="M26.964,24.84V7.632h-5.58V4.392Q26.928,4.176,27.612,0H31.9V24.84Zm-17.244,0,1.008-6.588H6.84L5.832,24.84H2.484l1.008-6.588H0l.648-3.816H4.1l.648-4.248H1.26l.648-3.816H5.364L6.336.144H9.684L8.712,6.372H12.6L13.572.144H16.92l-.972,6.228H19.44l-.612,3.816H15.336l-.648,4.248h3.456l-.612,3.816H14.076L13.068,24.84Z" transform="translate(105.584 77.203)" fill="#fff"/>
      <rect id="Rectangle-12" data-name="Rectangle" width="144.696" height="12.948" transform="translate(15.8 251.651)" fill="#adc7f7"/>
      <rect id="Rectangle-13" data-name="Rectangle" width="107.951" height="2.783" rx="1.162" transform="translate(22.449 273.104)" fill="#adc7f7"/>
      <rect id="Rectangle-14" data-name="Rectangle" width="93.889" height="2.783" rx="1.162" transform="translate(22.449 281.453)" fill="#adc7f7"/>
      <path id="Path-98" data-name="Path" d="M84.281,2.783H1.387A1.4,1.4,0,0,1,0,1.387H0A1.4,1.4,0,0,1,1.4,0H84.29a1.387,1.387,0,0,1,1.387,1.387h0a1.387,1.387,0,0,1-1.4,1.4Z" transform="translate(22.459 289.802)" fill="#adc7f7"/>
      <rect id="Rectangle-15" data-name="Rectangle" width="98.576" height="2.783" rx="1.162" transform="translate(22.449 298.151)" fill="#adc7f7"/>
      <rect id="Rectangle-16" data-name="Rectangle" width="14.169" height="2.783" rx="1.162" transform="translate(139.677 273.104)" fill="#adc7f7"/>
      <rect id="Rectangle-17" data-name="Rectangle" width="11.825" height="2.783" rx="1.162" transform="translate(142.02 281.453)" fill="#adc7f7"/>
      <rect id="Rectangle-18" data-name="Rectangle" width="15.341" height="2.783" rx="1.162" transform="translate(138.505 289.802)" fill="#adc7f7"/>
      <rect id="Rectangle-19" data-name="Rectangle" width="5.966" height="2.783" rx="1.162" transform="translate(147.889 298.151)" fill="#adc7f7"/>
      <rect id="Rectangle-20" data-name="Rectangle" width="119.571" height="8.945" rx="3.73" transform="translate(28.367 42.223)" fill="#adc7f7"/>
      <path id="Path-99" data-name="Path" d="M17.46,6.874,0,0,6.874,17.46l2.715-6.142,2.978,2.988L14.3,12.567,11.317,9.589,17.46,6.874Z" transform="translate(127.871 230.109)" fill="#fff" stroke="#263238" stroke-linecap="round" stroke-linejoin="round" stroke-miterlimit="10" stroke-width="0.976"/>
    </g>
    <g id="freepik--Stuff--inject-58" transform="translate(14.647 269.511)">
      <path id="Path-100" data-name="Path" d="M4.248,0A31.98,31.98,0,0,0,0,11.855" transform="translate(6.494 58.521)" fill="none" stroke="#263238" stroke-linecap="round" stroke-linejoin="round" stroke-miterlimit="10" stroke-width="0.976"/>
      <path id="Path-101" data-name="Path" d="M0,10.146,3.642,1.738,8.935,0l2.334,5.048L7.617,13.456Z" transform="translate(43.913 12.763)" fill="#fb7d00" stroke="#263238" stroke-linecap="round" stroke-linejoin="round" stroke-miterlimit="10" stroke-width="0.976"/>
      <path id="Path-102" data-name="Path" d="M0,8.847C1.953,5.2,8.788-1.5,13.485.3" transform="translate(52.848 3.915)" fill="none" stroke="#263238" stroke-linecap="round" stroke-linejoin="round" stroke-miterlimit="10" stroke-width="0.976"/>
      <path id="Path-103" data-name="Path" d="M12.353,5.849,5.9,12.353.342,12.06,0,6.5,6.455,0Z" transform="translate(196.342 65.845)" fill="#fb7d00" stroke="#263238" stroke-linecap="round" stroke-linejoin="round" stroke-miterlimit="10" stroke-width="0.976"/>
      <path id="Path-104" data-name="Path" d="M13.026,0S6.767,8.788,0,7.988" transform="translate(183.658 77.904)" fill="none" stroke="#263238" stroke-linecap="round" stroke-linejoin="round" stroke-miterlimit="10" stroke-width="0.976"/>
      <path id="Path-105" data-name="Path" d="M13.241,4.511,9.15,11.737l-7.968-4.5L0,1.8,5.263,0l7.978,4.511Z" transform="translate(382.813 32.732)" fill="#fb7d00" stroke="#263238" stroke-linecap="round" stroke-linejoin="round" stroke-miterlimit="10" stroke-width="0.976"/>
      <path id="Path-106" data-name="Path" d="M9.941,9.4S3.633,9.823,0,0" transform="translate(372.843 25.125)" fill="none" stroke="#263238" stroke-linecap="round" stroke-linejoin="round" stroke-miterlimit="10" stroke-width="0.976"/>
      <path id="Path-107" data-name="Path" d="M4.179,11.239S3.379,3.877,0,0" transform="translate(364.933 61.665)" fill="none" stroke="#263238" stroke-linecap="round" stroke-linejoin="round" stroke-miterlimit="10" stroke-width="0.976"/>
      <rect id="Rectangle-21" data-name="Rectangle" width="61.245" height="37.556" transform="translate(305.963 50.553)" fill="#bfbfbf"/>
      <g id="Group-4" data-name="Group" transform="translate(315.406 49.801)">
        <path id="Path-108" data-name="Path" d="M0,0,25.984,8.271V37.565H51.49V0Z" transform="translate(0.322 0.752)" fill="rgba(0,0,0,0.7)" opacity="0.2"/>
        <rect id="Rectangle-22" data-name="Rectangle" width="25.74" height="38.083" transform="translate(26.062 0.234)" fill="rgba(0,0,0,0.7)" opacity="0.2"/>
      </g>
      <rect id="Rectangle-23" data-name="Rectangle" width="61.245" height="37.556" transform="translate(305.963 50.553)" fill="none" stroke="#263238" stroke-linecap="round" stroke-linejoin="round" stroke-miterlimit="10" stroke-width="0.976"/>
      <path id="Path-109" data-name="Path" d="M1.465,0,0,1.875,15.253,19.891" transform="translate(326.459 68.227)" fill="none" stroke="#263238" stroke-linecap="round" stroke-linejoin="round" stroke-miterlimit="10" stroke-width="0.976"/>
      <path id="Path-110" data-name="Path" d="M12.157,29.1V0L0,15.575" transform="translate(329.555 50.553)" fill="none" stroke="#263238" stroke-linecap="round" stroke-linejoin="round" stroke-miterlimit="10" stroke-width="0.976"/>
      <path id="Path-111" data-name="Path" d="M.488,0V2.265" transform="translate(341.234 83.333)" fill="none" stroke="#263238" stroke-linecap="round" stroke-linejoin="round" stroke-miterlimit="10" stroke-width="0.976"/>
      <path id="Path-112" data-name="Path" d="M3.115,0,0,4.433" transform="translate(305.963 83.675)" fill="none" stroke="#263238" stroke-linecap="round" stroke-linejoin="round" stroke-miterlimit="10" stroke-width="0.976"/>
      <path id="Path-113" data-name="Path" d="M5.849,0,8.076,3.457,0,14.97" transform="translate(310.523 66.645)" fill="none" stroke="#263238" stroke-linecap="round" stroke-linejoin="round" stroke-miterlimit="10" stroke-width="0.976"/>
      <path id="Path-114" data-name="Path" d="M0,0,4.023,6.23" transform="translate(310.816 58.052)" fill="none" stroke="#263238" stroke-linecap="round" stroke-linejoin="round" stroke-miterlimit="10" stroke-width="0.976"/>
      <path id="Path-115" data-name="Path" d="M0,0,2.578,3.994" transform="translate(305.963 50.553)" fill="none" stroke="#263238" stroke-linecap="round" stroke-linejoin="round" stroke-miterlimit="10" stroke-width="0.976"/>
      <rect id="Rectangle-24" data-name="Rectangle" width="61.245" height="29.588" transform="translate(315.728 22.254)" fill="#999"/>
      <rect id="Rectangle-25" data-name="Rectangle" width="25.496" height="29.588" transform="translate(351.487 22.254)" fill="rgba(0,0,0,0.7)" opacity="0.2"/>
      <rect id="Rectangle-26" data-name="Rectangle" width="61.245" height="29.588" transform="translate(315.728 22.254)" fill="none" stroke="#263238" stroke-linecap="round" stroke-linejoin="round" stroke-miterlimit="10" stroke-width="0.976"/>
      <path id="Path-116" data-name="Path" d="M1.465,15.663,0,14.188,15.253,0" transform="translate(336.224 22.254)" fill="none" stroke="#263238" stroke-linecap="round" stroke-linejoin="round" stroke-miterlimit="10" stroke-width="0.976"/>
      <path id="Path-117" data-name="Path" d="M12.157,0V22.928L0,10.653" transform="translate(339.32 28.924)" fill="none" stroke="#263238" stroke-linecap="round" stroke-linejoin="round" stroke-miterlimit="10" stroke-width="0.976"/>
      <path id="Path-118" data-name="Path" d="M.488,1.787V0" transform="translate(350.999 24.236)" fill="none" stroke="#263238" stroke-linecap="round" stroke-linejoin="round" stroke-miterlimit="10" stroke-width="0.976"/>
      <path id="Path-119" data-name="Path" d="M3.115,3.5,0,0" transform="translate(315.728 22.254)" fill="none" stroke="#263238" stroke-linecap="round" stroke-linejoin="round" stroke-miterlimit="10" stroke-width="0.976"/>
      <path id="Path-120" data-name="Path" d="M5.849,11.8,8.076,9.072,0,0" transform="translate(320.288 27.371)" fill="none" stroke="#263238" stroke-linecap="round" stroke-linejoin="round" stroke-miterlimit="10" stroke-width="0.976"/>
      <path id="Path-121" data-name="Path" d="M0,4.912,4.023,0" transform="translate(320.581 41.032)" fill="none" stroke="#263238" stroke-linecap="round" stroke-linejoin="round" stroke-miterlimit="10" stroke-width="0.976"/>
      <path id="Path-122" data-name="Path" d="M0,3.144,2.578,0" transform="translate(315.728 48.707)" fill="none" stroke="#263238" stroke-linecap="round" stroke-linejoin="round" stroke-miterlimit="10" stroke-width="0.976"/>
      <rect id="Rectangle-27" data-name="Rectangle" width="24.9" height="84.056" transform="translate(66.333 4.218)" fill="#263238"/>
      <path id="Path-123" data-name="Path" d="M16.4,39.323C14.354,54.81,12.04,74.115,12.04,87.444H0V3.076A3.076,3.076,0,0,1,3.076,0H17.723S18.465,23.836,16.4,39.323Z" transform="translate(62.993 0.83)" fill="#bfbfbf"/>
      <path id="Path-124" data-name="Path" d="M8.906,0V87.484H0V3.115A3.076,3.076,0,0,1,3.076.039Z" transform="translate(62.993 0.791)" opacity="0.2"/>
      <path id="Path-125" data-name="Path" d="M16.4,39.323C14.354,54.81,12.04,74.115,12.04,87.444H0V3.076A3.076,3.076,0,0,1,3.076,0H17.723S18.465,23.836,16.4,39.323Z" transform="translate(62.993 0.83)" fill="none" stroke="#263238" stroke-linecap="round" stroke-linejoin="round" stroke-miterlimit="10" stroke-width="0.976"/>
      <path id="Path-126" data-name="Path" d="M.488,0V82.5" transform="translate(71.411 2.91)" fill="#bfbfbf" stroke="#263238" stroke-linecap="round" stroke-linejoin="round" stroke-miterlimit="10" stroke-width="0.976"/>
      <path id="Path-127" data-name="Path" d="M8.108,87.454V3.076A3.076,3.076,0,0,0,5.032,0H.15S-.641,23.875,1.41,39.362,5.784,74.154,5.784,87.484Z" transform="translate(85.4 0.83)" fill="#bfbfbf" stroke="#263238" stroke-linecap="round" stroke-linejoin="round" stroke-miterlimit="10" stroke-width="0.976"/>
      <path id="Path-128" data-name="Path" d="M.869,26.844h0a.869.869,0,0,0,.869-.869V.869A.869.869,0,0,0,.869,0h0A.869.869,0,0,0,0,.869V25.975a.869.869,0,0,0,.869.869Z" transform="translate(75.414 6.679)" fill="#263238"/>
      <path id="Path-129" data-name="Path" d="M65.784,40.115H10.055A2.129,2.129,0,0,1,8.1,38.484L.056,1.632A1.26,1.26,0,0,1,1.306,0H57.034a2.148,2.148,0,0,1,1.953,1.631l8.036,36.833a1.26,1.26,0,0,1-1.24,1.65Z" transform="translate(101.586 45.24)" fill="#bfbfbf" stroke="#263238" stroke-linecap="round" stroke-linejoin="round" stroke-miterlimit="10" stroke-width="0.976"/>
      <path id="Path-130" data-name="Path" d="M65.784,40.115H10.055A2.129,2.129,0,0,1,8.1,38.484L.056,1.632A1.26,1.26,0,0,1,1.306,0H57.034a2.148,2.148,0,0,1,1.953,1.631l8.036,36.833a1.26,1.26,0,0,1-1.24,1.65Z" transform="translate(102.563 45.24)" fill="#263238"/>
      <path id="Path-131" data-name="Path" d="M62.593,33.044H7.216L4.746,21.737,0,0H55.377l7.216,33.044Z" transform="translate(104.738 48.444)" fill="#bfbfbf"/>
      <path id="Path-132" data-name="Path" d="M82.074,0V1.631L68.628,2.793H1.387A1.4,1.4,0,0,1,0,1.406V.01Z" transform="translate(111.74 85.091)" fill="#bfbfbf" stroke="#263238" stroke-linecap="round" stroke-linejoin="round" stroke-miterlimit="10" stroke-width="0.976"/>
      <path id="Path-133" data-name="Path" d="M31.3,0V1.631L17.85,2.793H1.387A1.4,1.4,0,0,1,0,1.406V.01Z" transform="translate(111.74 85.091)" fill="#999" stroke="#263238" stroke-linecap="round" stroke-linejoin="round" stroke-miterlimit="10" stroke-width="0.976"/>
      <path id="Path-134" data-name="Path" d="M41.1,0C35.993,7.812,25.477,18.221,4.746,21.737L0,0Z" transform="translate(104.738 48.444)" fill="#fff" opacity="0.4"/>
      <rect id="Rectangle-28" data-name="Rectangle" width="61.245" height="29.588" transform="translate(70.043 88.118) rotate(180)" fill="#757575"/>
      <rect id="Rectangle-29" data-name="Rectangle" width="25.496" height="29.588" transform="translate(34.284 88.118) rotate(180)" opacity="0.2"/>
      <rect id="Rectangle-30" data-name="Rectangle" width="61.245" height="29.588" transform="translate(70.043 88.118) rotate(180)" fill="none" stroke="#263238" stroke-linecap="round" stroke-linejoin="round" stroke-miterlimit="10" stroke-width="0.976"/>
      <path id="Path-135" data-name="Path" d="M13.8,0l1.465,1.474L0,15.673" transform="translate(34.284 72.446)" fill="none" stroke="#263238" stroke-linecap="round" stroke-linejoin="round" stroke-miterlimit="10" stroke-width="0.976"/>
      <path id="Path-136" data-name="Path" d="M0,22.928V0L12.157,12.274" transform="translate(34.284 58.521)" fill="none" stroke="#263238" stroke-linecap="round" stroke-linejoin="round" stroke-miterlimit="10" stroke-width="0.976"/>
      <path id="Path-137" data-name="Path" d="M.488,0V1.787" transform="translate(33.796 84.349)" fill="none" stroke="#263238" stroke-linecap="round" stroke-linejoin="round" stroke-miterlimit="10" stroke-width="0.976"/>
      <path id="Path-138" data-name="Path" d="M0,0,3.115,3.5" transform="translate(66.928 84.622)" fill="none" stroke="#263238" stroke-linecap="round" stroke-linejoin="round" stroke-miterlimit="10" stroke-width="0.976"/>
      <path id="Path-139" data-name="Path" d="M2.236,0,0,2.715,8.085,11.8" transform="translate(57.398 71.205)" fill="none" stroke="#263238" stroke-linecap="round" stroke-linejoin="round" stroke-miterlimit="10" stroke-width="0.976"/>
      <path id="Path-140" data-name="Path" d="M4.023,0,0,4.912" transform="translate(61.167 64.429)" fill="none" stroke="#263238" stroke-linecap="round" stroke-linejoin="round" stroke-miterlimit="10" stroke-width="0.976"/>
      <path id="Path-141" data-name="Path" d="M2.588,0,0,3.144" transform="translate(67.456 58.521)" fill="none" stroke="#263238" stroke-linecap="round" stroke-linejoin="round" stroke-miterlimit="10" stroke-width="0.976"/>
      <path id="Path-142" data-name="Path" d="M25.375,14.911a3.642,3.642,0,0,1-.449-.088c-1.953-.5-3.789-2.871-5.263-4.414-1.1-1.162-11.591-1.162-12.694,0-1.474,1.543-3.349,3.906-5.263,4.414a3.642,3.642,0,0,1-.449.088C-2.454,15.3,3.063,1.485,4.859.6S8.98-.195,9.254.938h8.124C17.651-.195,19.966-.283,21.772.6S29.086,15.3,25.375,14.911Z" transform="translate(26.427 43.395)" fill="#bfbfbf" stroke="#263238" stroke-linecap="round" stroke-linejoin="round" stroke-miterlimit="10" stroke-width="0.976"/>
      <path id="Path-143" data-name="Path" d="M23.221,7.976c-1.953-.5-3.789-2.871-5.263-4.414C16.854,2.4,6.367,2.4,5.263,3.562,3.789,5.1,1.914,7.468,0,7.976,1.728,6.325,3.828,1.96,4.8.838c1.2-1.4,1.777-.625,1.777-.625H16.639s.576-.771,1.787.625C19.393,1.96,21.492,6.325,23.221,7.976Z" transform="translate(28.133 50.243)" fill="#263238"/>
      <path id="Path-144" data-name="Path" d="M3.261,13.5,0,4.941,2.568,0,7.763,1.982l3.261,8.564Z" transform="translate(366.544 72.905)" fill="#fb7d00" stroke="#263238" stroke-linecap="round" stroke-linejoin="round" stroke-miterlimit="10" stroke-width="0.976"/>
      <path id="Path-145" data-name="Path" d="M8.163,13.407,0,11.894l1.67-9L6.425,0,9.833,4.4l-1.67,9Z" transform="translate(0.635 69.946)" fill="#fb7d00" stroke="#263238" stroke-linecap="round" stroke-linejoin="round" stroke-miterlimit="10" stroke-width="0.976"/>
    </g>
  </g>
</svg>
