<svg xmlns="http://www.w3.org/2000/svg" width="156.16" height="135.92" viewBox="0 0 156.16 135.92">
  <g id="Mail_sent-bro" data-name="Mail sent-bro" transform="translate(-0.258 -0.304)">
    <g id="freepik--background-simple--inject-1--inject-58" transform="translate(0 18.651)">
      <path id="Path" d="M124.823,94.251s11.917-3.109,21.243-18.651c10.453-17.424,5.968-47.825-7.954-62.595C125.2-.692,96.6-3.1,80.009,3.582c-15.679,6.318-27.721,21.5-37.3,23.575S21.2,25.863,8.252,40.108-1.851,86.48,12.915,97.1s36.526-1.815,55.437-10.363S90.369,96.839,124.823,94.251Z" transform="translate(0.258 0.07)" fill="#f9fbff"/>
    </g>
    <g id="freepik--Character--inject-1--inject-58" transform="translate(14.766 32.251)">
      <path id="Path-2" data-name="Path" d="M98.864,2.208V2.185c-3.171-1.053-8.036-.7-8.758-.264a7.072,7.072,0,0,0-1.943,1.943,23.046,23.046,0,0,0-3.606,8.04L50.071,15.109a18.589,18.589,0,0,0-5.11-6.687A5.564,5.564,0,0,0,43.1,7.392a2.949,2.949,0,0,0-.9.031C40.943,3.8,39.171.3,36.957.079c-4.663-.466-12.8,1.1-15.018,5.619s-2.914,15.815-2.914,15.815L17.47,23.067a18.061,18.061,0,0,0-4.632-5.731,5.44,5.44,0,0,0-1.865-1.03A10.156,10.156,0,0,0,7.4,16.97c-.066-.062-.128-.124-.2-.183a4.1,4.1,0,0,0-6.52,1.306c-1.78,3.318.357,9.6,1.422,11.024a7.15,7.15,0,0,0,1.912,1.838c1.255,3.109,3.5,7.072,6.948,7.255a8.257,8.257,0,0,0,6.384-2.51c2.238-2.331,2.479-5.607,1.636-8.813l.361-.528s.8,1.146,3.886.684a4.6,4.6,0,0,0,2.436-1.01c1.445,3.688,3.781,7.383,7.492,7.935a11.218,11.218,0,0,0,8.98-2.557,9.955,9.955,0,0,0,1.846-2.118,8.238,8.238,0,0,0,5.479-2.51,7.678,7.678,0,0,0,2.075-5.071l4.589-.536A20.085,20.085,0,0,0,65.3,22.892a13.037,13.037,0,0,0,8.078-3.5L83.838,18.5c.175,4.053,1.632,7.771,5.051,9.819a10.55,10.55,0,0,0,8.782.936c4.822-1.616,5.965-8.782,6.275-13.138C104.428,9.125,102.2,3.2,98.864,2.208Z" transform="translate(7.504 47.14)" fill="#263238" stroke="#263238" stroke-linecap="round" stroke-linejoin="round" stroke-miterlimit="10" stroke-width="0.5"/>
      <path id="Path-3" data-name="Path" d="M1.5,0A4.333,4.333,0,0,1,0,1.216" transform="translate(41.029 78.857)" fill="none" stroke="#fff" stroke-linecap="round" stroke-linejoin="round" stroke-miterlimit="10" stroke-width="0.5"/>
      <path id="Path-4" data-name="Path" d="M1.259,0S1.721,5.051,0,8.257" transform="translate(43.151 69.648)" fill="none" stroke="#fff" stroke-linecap="round" stroke-linejoin="round" stroke-miterlimit="10" stroke-width="0.5"/>
      <path id="Path-5" data-name="Path" d="M3.008,0C2.568,1.943,1.694,3.827,0,4.663" transform="translate(42.766 75.227)" fill="none" stroke="#fff" stroke-linecap="round" stroke-linejoin="round" stroke-miterlimit="10" stroke-width="0.5"/>
      <path id="Path-6" data-name="Path" d="M3.377,0S4.154,8.4,0,10.425" transform="translate(44.507 69.263)" fill="none" stroke="#fff" stroke-linecap="round" stroke-linejoin="round" stroke-miterlimit="10" stroke-width="0.5"/>
      <path id="Path-7" data-name="Path" d="M3.381,0S4.158,8.4,0,10.425" transform="translate(46.244 69.069)" fill="none" stroke="#fff" stroke-linecap="round" stroke-linejoin="round" stroke-miterlimit="10" stroke-width="0.5"/>
      <path id="Path-8" data-name="Path" d="M1.632,0A5.4,5.4,0,0,1,0,1.379" transform="translate(100.415 74.955)" fill="none" stroke="#fff" stroke-linecap="round" stroke-linejoin="round" stroke-miterlimit="10" stroke-width="0.5"/>
      <path id="Path-9" data-name="Path" d="M2.382,0S2.133,5.747,0,9.4" transform="translate(102.789 64.468)" fill="none" stroke="#fff" stroke-linecap="round" stroke-linejoin="round" stroke-miterlimit="10" stroke-width="0.5"/>
      <path id="Path-10" data-name="Path" d="M3.587,0C2.887,2.211,1.768,4.356,0,5.288" transform="translate(102.14 70.833)" fill="none" stroke="#fff" stroke-linecap="round" stroke-linejoin="round" stroke-miterlimit="10" stroke-width="0.5"/>
      <path id="Path-11" data-name="Path" d="M4.756,0S4.34,9.574,0,11.867" transform="translate(103.865 64.04)" fill="none" stroke="#fff" stroke-linecap="round" stroke-linejoin="round" stroke-miterlimit="10" stroke-width="0.5"/>
      <path id="Path-12" data-name="Path" d="M4.756,0S4.34,9.571,0,11.867" transform="translate(105.598 63.831)" fill="none" stroke="#fff" stroke-linecap="round" stroke-linejoin="round" stroke-miterlimit="10" stroke-width="0.5"/>
      <path id="Path-13" data-name="Path" d="M1.278,0A4.208,4.208,0,0,1,0,1.259" transform="translate(18.286 84.052)" fill="none" stroke="#fff" stroke-linecap="round" stroke-linejoin="round" stroke-miterlimit="10" stroke-width="0.5"/>
      <path id="Path-14" data-name="Path" d="M.14,0S1.236,4.274,0,7.262" transform="translate(20.039 75.88)" fill="none" stroke="#fff" stroke-linecap="round" stroke-linejoin="round" stroke-miterlimit="10" stroke-width="0.5"/>
      <path id="Path-15" data-name="Path" d="M2.281,0A5.669,5.669,0,0,1,0,4.426" transform="translate(19.93 80.469)" fill="none" stroke="#fff" stroke-linecap="round" stroke-linejoin="round" stroke-miterlimit="10" stroke-width="0.5"/>
      <path id="Path-16" data-name="Path" d="M1.888,0S3.715,7.091,0,9.427" transform="translate(21.57 75.049)" fill="none" stroke="#fff" stroke-linecap="round" stroke-linejoin="round" stroke-miterlimit="10" stroke-width="0.5"/>
      <path id="Path-17" data-name="Path" d="M1.888,0S3.719,7.091,0,9.431" transform="translate(23.209 74.629)" fill="none" stroke="#fff" stroke-linecap="round" stroke-linejoin="round" stroke-miterlimit="10" stroke-width="0.5"/>
      <path id="Path-18" data-name="Path" d="M6.362,9.076c.925,5.288.346,9.811-1.286,10.1S1.365,15.406.441,10.118.095.306,1.731.015,5.438,3.784,6.362,9.076Z" transform="translate(32.13 57.692)" fill="#adc7f7" stroke="#263238" stroke-linecap="round" stroke-linejoin="round" stroke-miterlimit="10" stroke-width="0.5"/>
      <path id="Path-19" data-name="Path" d="M2.1,3.55c.256,2.028.019,3.726-.536,3.8S.357,5.831.1,3.8.1.072.636,0,1.845,1.522,2.1,3.55Z" transform="translate(35.567 63.331)" fill="#adc7f7" stroke="#263238" stroke-linecap="round" stroke-linejoin="round" stroke-miterlimit="10" stroke-width="0.5"/>
      <path id="Path-20" data-name="Path" d="M.033,2.021A13.211,13.211,0,0,1,.356,0" transform="translate(33.738 60.011)" fill="none" stroke="#263238" stroke-linecap="round" stroke-linejoin="round" stroke-miterlimit="10" stroke-width="0.5"/>
      <path id="Path-21" data-name="Path" d="M2.653,11.883A25.824,25.824,0,0,1,.368,5.071,24.6,24.6,0,0,1,.014,0" transform="translate(33.694 63.081)" fill="none" stroke="#263238" stroke-linecap="round" stroke-linejoin="round" stroke-miterlimit="10" stroke-width="0.5"/>
      <ellipse id="Oval" cx="2.207" cy="7.146" rx="2.207" ry="7.146" transform="translate(9.68 69.302) rotate(-15.49)" fill="#adc7f7" stroke="#263238" stroke-linecap="round" stroke-linejoin="round" stroke-miterlimit="10" stroke-width="0.5"/>
      <path id="Path-22" data-name="Path" d="M1.69,2.439c.369,1.445.35,2.7-.047,2.8S.633,4.245.264,2.8-.085.1.311.006,1.321.993,1.69,2.439Z" transform="translate(13.767 72.723)" fill="none" stroke="#263238" stroke-linecap="round" stroke-linejoin="round" stroke-miterlimit="10" stroke-width="0.5"/>
      <path id="Path-23" data-name="Path" d="M.174,1.492A9.66,9.66,0,0,1,.224,0" transform="translate(12.028 70.51)" fill="none" stroke="#263238" stroke-linecap="round" stroke-linejoin="round" stroke-miterlimit="10" stroke-width="0.5"/>
      <path id="Path-24" data-name="Path" d="M2.98,8.362A18.83,18.83,0,0,1,.715,3.637,17.964,17.964,0,0,1,0,0" transform="translate(12.248 72.768)" fill="none" stroke="#263238" stroke-linecap="round" stroke-linejoin="round" stroke-miterlimit="10" stroke-width="0.5"/>
      <path id="Path-25" data-name="Path" d="M94.057,9.728C89.962,1.276,88.194.542,85.47.4s-9.155-.94-16.32.206c0,0-19.988-.35-35.453,9.019-16.145,9.78-24,18.372-25.1,22.825S3.742,48.507,1.962,55.16s-2.992,12.512-.723,17.9c1.372,3.256,2.833,4.235,4.709,4.22a13.518,13.518,0,0,1-.758-1.6c-1.865-4.62-1.64-11.23.49-11.657s3.4,4,4.686,8.824A19.192,19.192,0,0,0,11.4,75.956c3.182-1.2,8.28-3.886,15.057-6.676a43.582,43.582,0,0,1-.043-12.792c1-6.633,5.242-8.1,7.088-4.061C35.029,55.754,35.6,63.2,35.748,65.709a28.515,28.515,0,0,1,6.4-1.64s23.19-5.238,40.283-5.658,25.646-.828,25.646-.828S98.153,18.164,94.057,9.728Z" transform="translate(4.861 0.375)" fill="#fff"/>
      <g id="Group" transform="translate(5.44 0.389)">
        <path id="Path-26" data-name="Path" d="M5.211,0S2.86,3.217,0,3.905A65.532,65.532,0,0,1,1.554,15.174a32.466,32.466,0,0,1,5.906-1.593c.206-1.212.33-1.986.33-1.986Z" transform="translate(33.619 50.491)" fill="#adc7f7"/>
        <path id="Path-27" data-name="Path" d="M2.93,21.117a7.8,7.8,0,0,0,3.995.027c3.886-.968,1.092-8.467,7.538-11.529a10.853,10.853,0,0,1,4.01-1.127,39.389,39.389,0,0,1,.389-4.1A12.018,12.018,0,0,1,20.027.554C18.267.014,17.948-.5,14.948.923,8.5,3.985,9.466,11.885,5.6,12.852c-3.085.777-3.256-.462-5.6.113,1.1,1.554,1.943,4.581,2.8,7.771A2.121,2.121,0,0,1,2.93,21.117Z" transform="translate(6.959 52.067)" fill="#adc7f7" opacity="0.2"/>
        <path id="Path-28" data-name="Path" d="M3.5,0A10.055,10.055,0,0,0,0,4.682,15.485,15.485,0,0,0,.614,6.509c1.372,3.256,2.833,4.235,4.709,4.22a13.518,13.518,0,0,1-.758-1.6A18.391,18.391,0,0,1,3.5,0Z" transform="translate(0.047 66.543)" fill="#adc7f7" opacity="0.2"/>
        <path id="Path-29" data-name="Path" d="M44.538.043,43.835,0C15.5,7.251,3.967,41.406,0,57.866c.214,1.636.447,3.241.7,4.8.482-.093.148,1.041.517,1.022,0,0,23.19-5.238,40.283-5.658s25.646-.828,25.646-.828S57.221,17.8,53.125,9.368,47.262.167,44.538.043Z" transform="translate(40.353 0.346)" fill="#adc7f7" opacity="0.2" style="mix-blend-mode: multiply;isolation: isolate"/>
      </g>
      <path id="Path-30" data-name="Path" d="M94.057,9.728C89.962,1.276,88.194.542,85.47.4s-9.155-.94-16.32.206c0,0-19.988-.35-35.453,9.019-16.145,9.78-24,18.372-25.1,22.825S3.742,48.507,1.962,55.16s-2.992,12.512-.723,17.9c1.372,3.256,2.833,4.235,4.709,4.22a13.518,13.518,0,0,1-.758-1.6c-1.865-4.62-1.64-11.23.49-11.657s3.4,4,4.686,8.824A19.192,19.192,0,0,0,11.4,75.956c3.182-1.2,8.28-3.886,15.057-6.676a43.582,43.582,0,0,1-.043-12.792c1-6.633,5.242-8.1,7.088-4.061C35.029,55.754,35.6,63.2,35.748,65.709a28.515,28.515,0,0,1,6.4-1.64s23.19-5.238,40.283-5.658,25.646-.828,25.646-.828S98.153,18.164,94.057,9.728Z" transform="translate(4.861 0.375)" fill="none" stroke="#263238" stroke-linecap="round" stroke-linejoin="round" stroke-miterlimit="10" stroke-width="0.5"/>
      <path id="Path-31" data-name="Path" d="M0,7.962a1.819,1.819,0,0,0,1.943.245c1.224-.49,1.348-2.331,1.348-2.331l1.834-.12L5.494,0,1.453,1.589S.369,7.227,0,7.962Z" transform="translate(14.093 44.791)" fill="#adc7f7" opacity="0.2"/>
      <path id="Path-32" data-name="Path" d="M3.276,0A20.128,20.128,0,0,0,0,2.176,15.011,15.011,0,0,0,.583,3.851c1.372,3.256,2.833,4.235,4.709,4.22a13.518,13.518,0,0,1-.758-1.6A18.861,18.861,0,0,1,3.276,0Z" transform="translate(5.518 69.581)" fill="#263238" stroke="#263238" stroke-linecap="round" stroke-linejoin="round" stroke-miterlimit="10" stroke-width="0.5"/>
      <path id="Path-33" data-name="Path" d="M.58,9.219a.587.587,0,0,1-.513-.307A.579.579,0,0,1,.3,8.135C.393,8.085,7.955,3.4,14.219.068a.583.583,0,1,1,.548,1.03C8.507,4.424.949,9.107.856,9.157a.556.556,0,0,1-.276.062Z" transform="translate(14.404 57.153)" fill="#263238" stroke="#263238" stroke-miterlimit="10" stroke-width="0.5"/>
      <path id="Path-34" data-name="Path" d="M.273,10.055,0,16.727c-.058.909.47,1.348,1.166.956l10.744-6.994a2.84,2.84,0,0,0,1.212-2.471L13.06.776c-.078-.676-.536-.952-1.1-.661C9.94,1.161,6.039,4.7,1.376,7.988a2.938,2.938,0,0,0-1.1,2.067Z" transform="translate(24.596 17.367)" fill="#adc7f7" stroke="#263238" stroke-linecap="round" stroke-linejoin="round" stroke-miterlimit="10" stroke-width="0.5"/>
      <path id="Path-35" data-name="Path" d="M0,0,5.25,1.282" transform="translate(32.127 25.541)" fill="none" stroke="#263238" stroke-linecap="round" stroke-linejoin="round" stroke-miterlimit="10" stroke-width="0.5"/>
      <path id="Path-36" data-name="Path" d="M0,7.157,3.241,0" transform="translate(24.946 27.923)" fill="none" stroke="#263238" stroke-linecap="round" stroke-linejoin="round" stroke-miterlimit="10" stroke-width="0.5"/>
      <path id="Path-37" data-name="Path" d="M0,9.349l4.764.595A1.818,1.818,0,0,0,6.318,8.9L12.535,0" transform="translate(24.931 17.851)" fill="none" stroke="#263238" stroke-linecap="round" stroke-linejoin="round" stroke-miterlimit="10" stroke-width="0.5"/>
      <path id="Path-38" data-name="Path" d="M.005,8.438l1.1,16.709A3.555,3.555,0,0,0,5.06,28.469L42.177,23.65a3.555,3.555,0,0,0,3.015-4.5L40.506,2.586A3.548,3.548,0,0,0,36.83.01,253.426,253.426,0,0,0,2.768,4.781,3.555,3.555,0,0,0,.005,8.438Z" transform="translate(51.523 6.588)" fill="#adc7f7" stroke="#263238" stroke-linecap="round" stroke-linejoin="round" stroke-miterlimit="10" stroke-width="0.5"/>
      <path id="Path-39" data-name="Path" d="M0,0,16.946,8.028" transform="translate(79.117 20.206)" fill="none" stroke="#263238" stroke-linecap="round" stroke-linejoin="round" stroke-miterlimit="10" stroke-width="0.5"/>
      <path id="Path-40" data-name="Path" d="M0,12.807,14.311,0" transform="translate(54.039 21.515)" fill="none" stroke="#263238" stroke-linecap="round" stroke-linejoin="round" stroke-miterlimit="10" stroke-width="0.5"/>
      <path id="Path-41" data-name="Path" d="M0,6.26,20.536,14.7a4.3,4.3,0,0,0,4.608-.882L39.782,0" transform="translate(51.653 8.327)" fill="none" stroke="#263238" stroke-linecap="round" stroke-linejoin="round" stroke-miterlimit="10" stroke-width="0.5"/>
      <ellipse id="Oval-2" data-name="Oval" cx="6.318" cy="6.209" rx="6.318" ry="6.209" transform="translate(86.043 20.344) rotate(-1.41)" fill="#263238" stroke="#263238" stroke-linecap="round" stroke-linejoin="round" stroke-miterlimit="10" stroke-width="0.5"/>
      <path id="Path-42" data-name="Path" d="M3.28,8.543H3.261a.777.777,0,0,1-.629-.319L.148,4.8a.778.778,0,1,1,1.259-.913L3.261,6.441,7.69.321a.778.778,0,0,1,1.259.913L3.9,8.229A.777.777,0,0,1,3.28,8.543Z" transform="translate(88.551 20.817)" fill="#fff" stroke="#263238" stroke-linecap="round" stroke-linejoin="round" stroke-miterlimit="10" stroke-width="0.5"/>
      <path id="Path-43" data-name="Path" d="M0,2.364S13.211-.17,22.265.009l.544,2.176S3.8,3.087.179,4.905Z" transform="translate(68.361 43.744)" fill="#263238" stroke="#263238" stroke-linecap="round" stroke-linejoin="round" stroke-miterlimit="10" stroke-width="0.5"/>
      <path id="Path-44" data-name="Path" d="M0,2.7.389,4.88a.94.94,0,0,0,1.061.777C4.764,5.184,16.4,3.587,22.432,3.734a.944.944,0,0,0,.936-1.2L22.646,0" transform="translate(68.54 45.937)" fill="none" stroke="#263238" stroke-linecap="round" stroke-linejoin="round" stroke-miterlimit="10" stroke-width="0.5"/>
      <path id="Path-45" data-name="Path" d="M8.156,18.66,8.082,9.684,8.529.456a.439.439,0,0,0-.75-.326C6.108,1.839,3.248,4.427,2.4,6.549,1.3,9.3,0,22.818,0,22.818Z" transform="translate(12.174 26.138)" fill="#263238" stroke="#263238" stroke-linecap="round" stroke-linejoin="round" stroke-miterlimit="10" stroke-width="0.5"/>
      <rect id="Rectangle" width="3.703" height="9.108" rx="1.201" transform="translate(7.48 42.995)" fill="#263238" stroke="#263238" stroke-linecap="round" stroke-linejoin="round" stroke-miterlimit="10" stroke-width="0.5"/>
      <path id="Path-46" data-name="Path" d="M0,3.738a8.813,8.813,0,0,1,1.8.548,4.694,4.694,0,0,1,1.286.933L5.024,2.65S2.176,1.457,1.636.731L1.1,0Z" transform="translate(10.802 32.994)" fill="#fff"/>
      <path id="Path-47" data-name="Path" d="M1.632.7l-.5-.7L1.072.039,0,3.691s.206.039.5.109L3.276,1.787A5.7,5.7,0,0,1,1.632.7Z" transform="translate(10.802 33.029)" fill="#adc7f7" opacity="0.5" style="mix-blend-mode: multiply;isolation: isolate"/>
      <path id="Path-48" data-name="Path" d="M0,3.738a8.813,8.813,0,0,1,1.8.548,4.694,4.694,0,0,1,1.286.933L5.024,2.65S2.176,1.457,1.636.731L1.1,0Z" transform="translate(10.802 32.994)" fill="none" stroke="#263238" stroke-linecap="round" stroke-linejoin="round" stroke-miterlimit="10" stroke-width="0.5"/>
      <path id="Path-49" data-name="Path" d="M2.374,0,0,3.027l.323,1.03L3.94.3,2.374,0Z" transform="translate(12.531 34.552)" fill="#adc7f7" stroke="#263238" stroke-linecap="round" stroke-linejoin="round" stroke-miterlimit="10" stroke-width="0.5"/>
      <path id="Path-50" data-name="Path" d="M6.908.566C5.3-.677,1.123.115.3,3.061A15.145,15.145,0,0,0,.077,7.6l4.764-1.01.389.587c.777,1.166,2.46.389,2.895,0,.237-.206.221-.812.159-1.313l.19-.043S8.509,1.814,6.908.566Z" transform="translate(4.197 25.433)" fill="#263238" stroke="#263238" stroke-linecap="round" stroke-linejoin="round" stroke-miterlimit="10" stroke-width="0.5"/>
      <path id="Path-51" data-name="Path" d="M8.957.094A15.29,15.29,0,0,0,2.74.685C-.369,1.726-.847,2.628,1.38,2.573S8.957.094,8.957.094Z" transform="translate(0.369 31.567)" fill="#263238" stroke="#263238" stroke-linecap="round" stroke-linejoin="round" stroke-miterlimit="10" stroke-width="0.5"/>
      <ellipse id="Oval-3" data-name="Oval" cx="0.657" cy="0.898" rx="0.657" ry="0.898" transform="translate(4.83 28.735)" fill="#adc7f7"/>
      <path id="Path-52" data-name="Path" d="M6.959.506S2.7-.574,1.395.421-.249,3.059.171,5.053s1.442,7.235,1.442,7.235L7.033,9.482Z" transform="translate(13.297 35.316)" fill="#263238" stroke="#263238" stroke-linecap="round" stroke-linejoin="round" stroke-miterlimit="10" stroke-width="0.5"/>
      <path id="Path-53" data-name="Path" d="M12.772,7.832a9.046,9.046,0,0,1-.5,2.3c-.268.284-7.34-5.658-7.771-6.217S4.367,1.355,4.5.729,4.41-.239,3.726.193s-.5,2.227-.5,2.227-2.087-.5-2.5-.56-.777.459-.715.87.61.447.61.447a3.109,3.109,0,0,0,.113,1.8A2.242,2.242,0,0,0,2.284,6.387a12.951,12.951,0,0,0,2.425.148s3.614,3.443,4.663,4.729,3.26,3.035,4.36,2.72S15.88,8.178,15.88,8.178Z" transform="translate(0.731 38.936)" fill="#fff"/>
      <path id="Path-54" data-name="Path" d="M2.918,2.324l2.067.688A1.838,1.838,0,0,1,3.719,5.04c-.913.3-2.553-.734-3.719-1.609l.035.043C1.1,4.764,3.3,6.509,4.395,6.194S6.544.389,6.544.389L3.416,0A9.217,9.217,0,0,1,2.918,2.324Z" transform="translate(10.087 46.741)" fill="#adc7f7" opacity="0.5" style="mix-blend-mode: multiply;isolation: isolate"/>
      <path id="Path-55" data-name="Path" d="M12.772,7.832a9.046,9.046,0,0,1-.5,2.3c-.268.284-7.34-5.658-7.771-6.217S4.367,1.355,4.5.729,4.41-.239,3.726.193s-.5,2.227-.5,2.227-2.087-.5-2.5-.56-.777.459-.715.87.61.447.61.447a3.109,3.109,0,0,0,.113,1.8A2.242,2.242,0,0,0,2.284,6.387a12.951,12.951,0,0,0,2.425.148s3.614,3.443,4.663,4.729,3.26,3.035,4.36,2.72S15.88,8.178,15.88,8.178Z" transform="translate(0.731 38.936)" fill="none" stroke="#263238" stroke-linecap="round" stroke-linejoin="round" stroke-miterlimit="10" stroke-width="0.5"/>
      <path id="Path-56" data-name="Path" d="M.995,0,0,1.547l.509.346L1.527.435.995,0Z" transform="translate(5.44 43.94)" fill="#263238" stroke="#263238" stroke-miterlimit="10" stroke-width="0.5"/>
      <circle id="Oval-4" data-name="Oval" cx="0.389" cy="0.389" r="0.389" transform="translate(5.704 44.62)" fill="#fff" stroke="#263238" stroke-linecap="round" stroke-linejoin="round" stroke-miterlimit="10" stroke-width="0.5"/>
      <path id="Path-57" data-name="Path" d="M0,2.46s.237.587.633,1.616S3.159,7.278,4.2,7.4s2.289-3.66,2.487-4.441c.066-.256.132-.668.132-.668S8.129,1.675,7.826.929,6.909-.159,6.617.07s-.342,1.2-.777,1.2S5.168,1.147,4.783.634.412,1.186,0,2.46Z" transform="translate(5.141 31.066)" fill="#fff"/>
      <g id="Group-2" data-name="Group" transform="translate(5.051 30.697)">
        <path id="Path-58" data-name="Path" d="M4.776.13C4.387-.379.412.686,0,1.956l.225.575A17.326,17.326,0,0,1,5.121.522,2.46,2.46,0,0,1,4.776.13Z" transform="translate(0.089 0.873)" fill="#adc7f7" opacity="0.5"/>
        <path id="Path-59" data-name="Path" d="M1.554.824C1.236.155.672-.148.389.07A2.3,2.3,0,0,0,0,.847,8.063,8.063,0,0,1,1.554.824Z" transform="translate(6.31 0.369)" fill="#adc7f7" opacity="0.5"/>
      </g>
      <path id="Path-60" data-name="Path" d="M0,2.46s.237.587.633,1.616S3.159,7.278,4.2,7.4s2.289-3.66,2.487-4.441c.066-.256.132-.668.132-.668S8.129,1.675,7.826.929,6.909-.159,6.617.07s-.342,1.2-.777,1.2S5.168,1.147,4.783.634.412,1.186,0,2.46Z" transform="translate(5.141 31.066)" fill="none" stroke="#263238" stroke-linecap="round" stroke-linejoin="round" stroke-miterlimit="10" stroke-width="0.5"/>
      <path id="Path-61" data-name="Path" d="M.386.391C.456.628.433.846.34.873S.111.729.041.484-.006.03.087,0,.317.162.386.391Z" transform="translate(6.165 33.415)" fill="#263238" stroke="#263238" stroke-miterlimit="10" stroke-width="0.5"/>
      <path id="Path-62" data-name="Path" d="M0,.034C.544-.122.777.286.843.663l.1.447.338,1.729L1.8,2.622" transform="translate(5.829 33.111)" fill="none" stroke="#263238" stroke-linecap="round" stroke-linejoin="round" stroke-miterlimit="10" stroke-width="0.5"/>
      <path id="Path-63" data-name="Path" d="M0,.376A1.115,1.115,0,0,1,.944.019" transform="translate(8.043 32.901)" fill="none" stroke="#263238" stroke-linecap="round" stroke-linejoin="round" stroke-miterlimit="10" stroke-width="0.5"/>
      <path id="Path-64" data-name="Path" d="M.9,0A1.166,1.166,0,0,0,0,.9" transform="translate(7.593 32.201)" fill="none" stroke="#263238" stroke-linecap="round" stroke-linejoin="round" stroke-miterlimit="10" stroke-width="0.5"/>
      <path id="Path-65" data-name="Path" d="M0,1.034S1.127.808,1.216,0" transform="translate(8.086 35.259)" fill="none" stroke="#263238" stroke-linecap="round" stroke-linejoin="round" stroke-miterlimit="10" stroke-width="0.5"/>
      <path id="Path-66" data-name="Path" d="M5.689,14.34,0,12.754S.5,3.04,1.379,1.4c1.368-2.553,4.5-1.4,5.094,1.807C7.025,6.234,5.689,14.34,5.689,14.34Z" transform="translate(11.964 35.343)" fill="#adc7f7" stroke="#263238" stroke-linecap="round" stroke-linejoin="round" stroke-miterlimit="10" stroke-width="0.5"/>
      <path id="Path-67" data-name="Path" d="M0,0S3.109.715,5,1.337" transform="translate(12.1 47.017)" fill="none" stroke="#263238" stroke-linecap="round" stroke-linejoin="round" stroke-miterlimit="10" stroke-width="0.5"/>
      <path id="Path-68" data-name="Path" d="M0,0A6.268,6.268,0,0,1,3.058,1.139" transform="translate(17.023 35.041)" fill="none" stroke="#adc7f7" stroke-linecap="round" stroke-linejoin="round" stroke-miterlimit="10" stroke-width="0.5"/>
      <path id="Path-69" data-name="Path" d="M9.5,5.9S1.212,8.821.454,9.618s-.68,3.905,1.107,5.417S16.09,13.119,25.2,12.12,54.3,9.653,62.462,9.256s11.871.68,12.586-1.865.626-5.265-.929-5.817S44.246-3.512,9.5,5.9Z" transform="translate(40.121 53.992)" fill="#263238" stroke="#263238" stroke-linecap="round" stroke-linejoin="round" stroke-miterlimit="10" stroke-width="0.5"/>
      <path id="Path-70" data-name="Path" d="M0,1.683S.389,5.051,2.46,5.568,29.143,1.422,43.648.905,70.848,0,70.848,0" transform="translate(39.984 63.625)" fill="none" stroke="#fff" stroke-linecap="round" stroke-linejoin="round" stroke-miterlimit="10" stroke-width="0.5"/>
      <path id="Path-71" data-name="Path" d="M0,4.853C9.621,2.522,29.411-.773,62.712.163" transform="translate(52.006 62.164)" fill="none" stroke="#fff" stroke-linecap="round" stroke-linejoin="round" stroke-miterlimit="10" stroke-width="0.5"/>
      <path id="Path-72" data-name="Path" d="M0,1.453S2.211.917,5.572,0" transform="translate(44.118 67.615)" fill="none" stroke="#fff" stroke-linecap="round" stroke-linejoin="round" stroke-miterlimit="10" stroke-width="0.5"/>
      <path id="Path-73" data-name="Path" d="M.224,0A21.888,21.888,0,0,1,.107,4.333" transform="translate(45.923 69.453)" fill="none" stroke="#fff" stroke-linecap="round" stroke-linejoin="round" stroke-miterlimit="10" stroke-width="0.5"/>
      <path id="Path-74" data-name="Path" d="M2,0A9,9,0,0,0,0,4.119" transform="translate(43.796 7.317)" fill="none" stroke="#263238" stroke-linecap="round" stroke-linejoin="round" stroke-miterlimit="10" stroke-width="0.5"/>
      <path id="Path-75" data-name="Path" d="M.258,0a238.336,238.336,0,0,0,2.3,45.809" transform="translate(43.343 13.005)" fill="none" stroke="#263238" stroke-linecap="round" stroke-linejoin="round" stroke-miterlimit="10" stroke-width="0.5"/>
      <path id="Path-76" data-name="Path" d="M3.066.355S.055,1.4.016,2.764C-.085,6.421.3,14.223,1.1,14.981s3.272-1.247,3.272-1.247,3.5.3,3.886-.482S7.185,1.42,6.967.456,3.066.355,3.066.355Z" transform="translate(40.975 38.292)" fill="#adc7f7" stroke="#263238" stroke-linecap="round" stroke-linejoin="round" stroke-miterlimit="10" stroke-width="0.5"/>
      <path id="Path-77" data-name="Path" d="M2.981,11.054a6.629,6.629,0,0,0,2.506.661C4.523,8.093,3.432,4.059,2.3.034,1.287-.036-.027-.036,0,.422.02,1.207,2,10.486,2.981,11.054Z" transform="translate(103.962 32.855)" fill="#adc7f7" stroke="#263238" stroke-linecap="round" stroke-linejoin="round" stroke-miterlimit="10" stroke-width="0.5"/>
      <path id="Path-78" data-name="Path" d="M0,0A90.33,90.33,0,0,0,.649,9.714" transform="translate(43.609 39.79)" fill="none" stroke="#263238" stroke-linecap="round" stroke-linejoin="round" stroke-miterlimit="10" stroke-width="0.5"/>
      <path id="Path-79" data-name="Path" d="M0,1.04a125.469,125.469,0,0,1,37.54.777" transform="translate(79.933 40.366)" fill="none" stroke="#263238" stroke-linecap="round" stroke-linejoin="round" stroke-miterlimit="10" stroke-width="0.5"/>
      <path id="Path-80" data-name="Path" d="M0,0C1.193.357,2.366.734,3.5,1.139" transform="translate(132.717 52.36)" fill="none" stroke="#263238" stroke-linecap="round" stroke-linejoin="round" stroke-miterlimit="10" stroke-width="0.5"/>
      <path id="Path-81" data-name="Path" d="M0,0A169.544,169.544,0,0,1,26.912,4.127" transform="translate(101.588 47.083)" fill="none" stroke="#263238" stroke-linecap="round" stroke-linejoin="round" stroke-miterlimit="10" stroke-width="0.5"/>
      <path id="Path-82" data-name="Path" d="M0,1.471A128.178,128.178,0,0,1,34.194.861" transform="translate(59.747 77.627)" fill="none" stroke="#263238" stroke-linecap="round" stroke-linejoin="round" stroke-miterlimit="10" stroke-width="0.5"/>
      <path id="Path-83" data-name="Path" d="M0,1.22S8.137.2,10.783,0" transform="translate(58.325 76.047)" fill="none" stroke="#263238" stroke-linecap="round" stroke-linejoin="round" stroke-miterlimit="10" stroke-width="0.5"/>
      <path id="Path-84" data-name="Path" d="M0,0C1.166.167,2.331.389,3.388.641" transform="translate(112.818 1.799)" fill="none" stroke="#263238" stroke-linecap="round" stroke-linejoin="round" stroke-miterlimit="10" stroke-width="0.5"/>
      <path id="Path-85" data-name="Path" d="M0,.261a93.117,93.117,0,0,1,14.377.1" transform="translate(96.067 1.153)" fill="none" stroke="#263238" stroke-linecap="round" stroke-linejoin="round" stroke-miterlimit="10" stroke-width="0.5"/>
      <path id="Path-86" data-name="Path" d="M0,7.025A92.189,92.189,0,0,1,28.408,0" transform="translate(33.374 41.461)" fill="none" stroke="#263238" stroke-linecap="round" stroke-linejoin="round" stroke-miterlimit="10" stroke-width="0.5"/>
      <path id="Path-87" data-name="Path" d="M0,2.444A100.291,100.291,0,0,1,17.723,0" transform="translate(52.927 35.958)" fill="none" stroke="#263238" stroke-linecap="round" stroke-linejoin="round" stroke-miterlimit="10" stroke-width="0.5"/>
      <path id="Path-88" data-name="Path" d="M0,0A12,12,0,0,0,6.411,5.44" transform="translate(33.184 77.225)" fill="none" stroke="#263238" stroke-linecap="round" stroke-linejoin="round" stroke-miterlimit="10" stroke-width="0.5"/>
      <path id="Path-89" data-name="Path" d="M0,0A12.508,12.508,0,0,0,4.08,3.886" transform="translate(32.795 78.973)" fill="none" stroke="#263238" stroke-linecap="round" stroke-linejoin="round" stroke-miterlimit="10" stroke-width="0.5"/>
      <path id="Path-90" data-name="Path" d="M0,0S1.166,5.44,5.829,7.771" transform="translate(90.11 69.259)" fill="none" stroke="#263238" stroke-linecap="round" stroke-linejoin="round" stroke-miterlimit="10" stroke-width="0.5"/>
      <path id="Path-91" data-name="Path" d="M0,0A8.988,8.988,0,0,0,3.691,3.109" transform="translate(90.693 74.116)" fill="none" stroke="#263238" stroke-linecap="round" stroke-linejoin="round" stroke-miterlimit="10" stroke-width="0.5"/>
      <path id="Path-92" data-name="Path" d="M0,0S1.166,1.943,5.246,1.943" transform="translate(13.818 84.592)" fill="none" stroke="#263238" stroke-linecap="round" stroke-linejoin="round" stroke-miterlimit="10" stroke-width="0.5"/>
      <path id="Path-93" data-name="Path" d="M0,0A9.376,9.376,0,0,0,5.246,2.137" transform="translate(13.04 85.758)" fill="none" stroke="#263238" stroke-linecap="round" stroke-linejoin="round" stroke-miterlimit="10" stroke-width="0.5"/>
    </g>
    <g id="freepik--Floor--inject-1--inject-58" transform="translate(10.88 112.686)">
      <path id="Path-94" data-name="Path" d="M30.6.275A164.521,164.521,0,0,0,0,4.853l.241.361S8.789,3.4,24.589,7.285,41.429,14.28,58.783,14.28a163.354,163.354,0,0,0,34.194-4.142L90.871,8.972C75.29,2.378,53.934-1.03,30.6.275Z" transform="translate(38.857 0.253)" fill="#adc7f7"/>
      <path id="Path-95" data-name="Path" d="M30.6.275A164.521,164.521,0,0,0,0,4.853l.241.361S8.789,3.4,24.589,7.285,41.429,14.28,58.783,14.28a163.354,163.354,0,0,0,34.194-4.142L90.871,8.972C75.29,2.378,53.934-1.03,30.6.275Z" transform="translate(38.857 0.253)" fill="#fff" opacity="0.5"/>
      <path id="Path-96" data-name="Path" d="M0,.368S20.4-2.741,38.08,9.111" transform="translate(31.435 9.051)" fill="none" stroke="#263238" stroke-linecap="round" stroke-linejoin="round" stroke-miterlimit="10" stroke-width="0.5"/>
      <path id="Path-97" data-name="Path" d="M0,0S8.354,2.526,13.406,7.966" transform="translate(52.807 13.888)" fill="none" stroke="#263238" stroke-linecap="round" stroke-linejoin="round" stroke-miterlimit="10" stroke-width="0.5"/>
      <path id="Path-98" data-name="Path" d="M0,0A60.806,60.806,0,0,1,22.537,7.577" transform="translate(102.155 3.979)" fill="none" stroke="#263238" stroke-linecap="round" stroke-linejoin="round" stroke-miterlimit="10" stroke-width="0.5"/>
      <path id="Path-99" data-name="Path" d="M0,0A49.29,49.29,0,0,1,6.077,4.387" transform="translate(139.109 14.02)" fill="none" stroke="#263238" stroke-linecap="round" stroke-linejoin="round" stroke-miterlimit="10" stroke-width="0.5"/>
      <path id="Path-100" data-name="Path" d="M0,22.939C14.163,10.893,39.755,1.956,69.372.282,96.4-1.253,120.787,3.588,136.595,12.327" transform="translate(0.082 0.247)" fill="none" stroke="#263238" stroke-linecap="round" stroke-linejoin="round" stroke-miterlimit="10" stroke-width="0.5"/>
      <path id="Path-101" data-name="Path" d="M0,0S12.24.583,20.4,3.3" transform="translate(86.418 3.785)" fill="none" stroke="#263238" stroke-linecap="round" stroke-linejoin="round" stroke-miterlimit="10" stroke-width="0.5"/>
    </g>
    <g id="freepik--Clouds--inject-1--inject-58" transform="translate(1.943)">
      <path id="Path-102" data-name="Path" d="M39.557,5.573S39.168.2,31.3,0s-5.763,5.378-7.872,6.722-2.689-.777-4.8.575-1.166,4.033-2.879,4.418S11.712,9.991,9.6,11.332s-2.114,2.495-3.074,2.495-2.879-.777-4.029,0S0,15.544,0,15.544H48.571s.575-1.729-1.554-2.879-3.074-.194-3.839-1.166S45.315,8.072,39.557,5.573Z" transform="translate(0.303 18.65)" fill="#adc7f7"/>
      <path id="Path-103" data-name="Path" d="M23.792,3.352S23.559.12,18.826,0,15.36,3.24,14.09,4.048s-1.616-.462-2.887.346-.692,2.425-1.733,2.654-2.425-1.037-3.7-.229-1.271,1.5-1.85,1.5-1.733-.459-2.425,0S0,9.36,0,9.36H29.221A1.492,1.492,0,0,0,28.3,7.627c-1.271-.692-1.846-.117-2.308-.692S27.258,4.856,23.792,3.352Z" transform="translate(44.927 0.304)" fill="#adc7f7"/>
      <path id="Path-104" data-name="Path" d="M39.557,5.573S39.168.2,31.3,0s-5.763,5.378-7.872,6.722-2.689-.777-4.8.575-1.166,4.033-2.879,4.418S11.712,9.991,9.6,11.332s-2.114,2.495-3.074,2.495-2.879-.777-4.029,0S0,15.544,0,15.544H48.571s.575-1.729-1.554-2.879-3.074-.194-3.839-1.166S45.315,8.072,39.557,5.573Z" transform="translate(0.303 18.65)" fill="#fff" opacity="0.7"/>
      <path id="Path-105" data-name="Path" d="M23.792,3.352S23.559.12,18.826,0,15.36,3.24,14.09,4.048s-1.616-.462-2.887.346-.692,2.425-1.733,2.654-2.425-1.037-3.7-.229-1.271,1.5-1.85,1.5-1.733-.459-2.425,0S0,9.36,0,9.36H29.221A1.492,1.492,0,0,0,28.3,7.627c-1.271-.692-1.846-.117-2.308-.692S27.258,4.856,23.792,3.352Z" transform="translate(44.927 0.304)" fill="#fff" opacity="0.8"/>
    </g>
  </g>
</svg>
