<svg xmlns="http://www.w3.org/2000/svg" width="140.146" height="119.002" viewBox="0 0 140.146 119.002">
  <g id="Secure_data-bro" data-name="Secure data-bro" transform="translate(-0.873 -0.677)">
    <g id="freepik--background-simple--inject-2" transform="translate(141.333 0.868)">
      <path id="Path" d="M-41.365,114.832s-22.354,9.857-45.586-1.56-36.137-36.5-47.126-56.547-6.677-41.563,9.857-52.432S-95.167,6.752-71.1,5.7s30.317-4.99,51.09,7.25S6.344,57.255-7.923,82.329-41.365,114.832-41.365,114.832Z" transform="translate(-0.314 0.027)" fill="#f9fbff"/>
    </g>
    <g id="freepik--Shield--inject-2" transform="translate(17.778 0.889)">
      <path id="Path-2" data-name="Path" d="M16.123,4.266A46.2,46.2,0,0,0,6.6,28.114L0,27.151A52.79,52.79,0,0,1,11,0Z" transform="translate(4.217 20.382)" fill="none" stroke="gray" stroke-linecap="round" stroke-linejoin="round" stroke-miterlimit="10" stroke-width="0.5"/>
      <path id="Path-3" data-name="Path" d="M56.294,13.983A53.1,53.1,0,0,1,0,4.99L4.424,0a46.451,46.451,0,0,0,49.22,7.858Z" transform="translate(21.788 87.82)" fill="none" stroke="gray" stroke-linecap="round" stroke-linejoin="round" stroke-miterlimit="10" stroke-width="0.5"/>
      <path id="Path-4" data-name="Path" d="M68.822,95.639A46.451,46.451,0,0,1,19.6,87.782l-4.421,4.99A53.086,53.086,0,0,1,0,69.789l6.413-1.873,2.7-.787,4.73-1.381L45.78,56.421h0l2.179-.636L24.73,81.99a38.46,38.46,0,0,0,10.019,6.442l14.6-33.051.9-.264-.531-.573-.351-.351-.218-.235-.636-.682-.186-.2-1.406-1.522L22.979,25.791,19.63,22.185l-1.915-2.063-4.537-4.9A52.9,52.9,0,0,1,50.373,0V53.065L46.219,14.63a38.393,38.393,0,0,0-18.66,7.229L50.373,53.065,54.541,91.5a38.3,38.3,0,0,0,11.221-2.959l1.954,4.516Z" transform="translate(6.607 0.039)" fill="none" stroke="gray" stroke-linecap="round" stroke-linejoin="round" stroke-miterlimit="10" stroke-width="0.5"/>
      <path id="Path-5" data-name="Path" d="M11.674,1.8a43.323,43.323,0,0,0-8.9,22.438L0,23.84A46.2,46.2,0,0,1,9.524,0Z" transform="translate(10.817 24.656)" fill="none" stroke="gray" stroke-linecap="round" stroke-linejoin="round" stroke-miterlimit="10" stroke-width="0.5"/>
      <path id="Path-6" data-name="Path" d="M36.246,2.72l.784-.886.531-.6.105-.119L38.656,0H0" transform="translate(18.323 53.103)" fill="none" stroke="gray" stroke-linecap="round" stroke-linejoin="round" stroke-miterlimit="10" stroke-width="0.5"/>
      <path id="Path-7" data-name="Path" d="M13.354.176H0" transform="translate(0.049 52.928)" fill="none" stroke="gray" stroke-linecap="round" stroke-linejoin="round" stroke-miterlimit="10" stroke-width="0.5"/>
      <path id="Path-8" data-name="Path" d="M5.921,0,0,6.681" transform="translate(15.863 92.81)" fill="none" stroke="gray" stroke-linecap="round" stroke-linejoin="round" stroke-miterlimit="10" stroke-width="0.5"/>
      <path id="Path-9" data-name="Path" d="M0,5.791,1.866,3.686,5.131,0" transform="translate(26.209 82.029)" fill="none" stroke="gray" stroke-linecap="round" stroke-linejoin="round" stroke-miterlimit="10" stroke-width="0.5"/>
      <path id="Path-10" data-name="Path" d="M29.059,36.3A46.388,46.388,0,0,1,1.121,78.876L0,76.294a43.576,43.576,0,0,0,25.877-34.27A43.576,43.576,0,0,0,9.8,2.2L11.558,0a46.314,46.314,0,0,1,17.5,36.3Z" transform="translate(74.308 16.801)" fill="none" stroke="gray" stroke-linecap="round" stroke-linejoin="round" stroke-miterlimit="10" stroke-width="0.5"/>
      <path id="Path-11" data-name="Path" d="M11.5,5.756,8.434,9.622A38.393,38.393,0,0,0,0,4.505L1.989,0A43.534,43.534,0,0,1,11.5,5.756Z" transform="translate(72.611 13.249)" fill="none" stroke="gray" stroke-linecap="round" stroke-linejoin="round" stroke-miterlimit="10" stroke-width="0.5"/>
      <path id="Path-12" data-name="Path" d="M0,11.843,9.422,0H19.964" transform="translate(85.863 4.959)" fill="none" stroke="gray" stroke-linecap="round" stroke-linejoin="round" stroke-miterlimit="10" stroke-width="0.5"/>
      <path id="Path-13" data-name="Path" d="M24.065,0,0,30.25" transform="translate(56.979 22.853)" fill="none" stroke="gray" stroke-linecap="round" stroke-linejoin="round" stroke-miterlimit="10" stroke-width="0.5"/>
      <path id="Path-14" data-name="Path" d="M19.441,7.222,18.66,0A38.393,38.393,0,0,0,0,7.229l4.287,5.865A31.227,31.227,0,0,1,19.441,7.222Z" transform="translate(34.165 14.668)" fill="none" stroke="gray" stroke-linecap="round" stroke-linejoin="round" stroke-miterlimit="10" stroke-width="0.5"/>
      <path id="Path-15" data-name="Path" d="M0,2.576.671,8.652A38.3,38.3,0,0,0,11.892,5.693L9.432,0A31.431,31.431,0,0,1,0,2.576Z" transform="translate(60.476 82.886)" fill="none" stroke="gray" stroke-linecap="round" stroke-linejoin="round" stroke-miterlimit="10" stroke-width="0.5"/>
      <path id="Path-16" data-name="Path" d="M42.8,69.652a38.8,38.8,0,0,1-19.774-3.068l14.6-33.051-1.388.4L13,60.142A38.59,38.59,0,0,1,0,31.217Q0,29.446.162,27.7A38.662,38.662,0,0,1,15.842,0L38.656,31.206Z" transform="translate(18.351 21.887)" fill="none" stroke="gray" stroke-linecap="round" stroke-linejoin="round" stroke-miterlimit="10" stroke-width="0.5"/>
      <path id="Path-17" data-name="Path" d="M1.016,0,0,2.3" transform="translate(74.589 10.933)" fill="none" stroke="gray" stroke-linecap="round" stroke-linejoin="round" stroke-miterlimit="10" stroke-width="0.5"/>
      <path id="Path-18" data-name="Path" d="M15.621,0,0,35.367" transform="translate(56.979 17.736)" fill="none" stroke="gray" stroke-linecap="round" stroke-linejoin="round" stroke-miterlimit="10" stroke-width="0.5"/>
      <path id="Path-19" data-name="Path" d="M0,0,.271,2.506.8,7.4" transform="translate(52.024 7.271)" fill="none" stroke="gray" stroke-linecap="round" stroke-linejoin="round" stroke-miterlimit="10" stroke-width="0.5"/>
      <path id="Path-20" data-name="Path" d="M42.171,18.625,0,0" transform="translate(14.809 34.478)" fill="none" stroke="gray" stroke-linecap="round" stroke-linejoin="round" stroke-miterlimit="10" stroke-width="0.5"/>
      <path id="Path-21" data-name="Path" d="M5.141,4.154.25,4.684A43.907,43.907,0,0,1,0,0H4.92a38.621,38.621,0,0,0,.221,4.154Z" transform="translate(13.403 53.103)" fill="none" stroke="gray" stroke-linecap="round" stroke-linejoin="round" stroke-miterlimit="10" stroke-width="0.5"/>
      <path id="Path-22" data-name="Path" d="M2.506.04,0,.311" transform="translate(11.147 57.747)" fill="none" stroke="gray" stroke-linecap="round" stroke-linejoin="round" stroke-miterlimit="10" stroke-width="0.5"/>
      <path id="Path-23" data-name="Path" d="M37.216,0,0,27.207" transform="translate(19.764 53.103)" fill="none" stroke="gray" stroke-linecap="round" stroke-linejoin="round" stroke-miterlimit="10" stroke-width="0.5"/>
      <path id="Path-24" data-name="Path" d="M0,6.8l1.016-2.3L3,0" transform="translate(38.354 88.47)" fill="none" stroke="gray" stroke-linecap="round" stroke-linejoin="round" stroke-miterlimit="10" stroke-width="0.5"/>
      <path id="Path-25" data-name="Path" d="M0,2.316l.162-.369.165-.373.042-.095L1.023,0" transform="translate(55.957 53.103)" fill="none" stroke="gray" stroke-linecap="round" stroke-linejoin="round" stroke-miterlimit="10" stroke-width="0.5"/>
      <path id="Path-26" data-name="Path" d="M1.16,13.618.531,4.892,0,0" transform="translate(61.133 91.538)" fill="none" stroke="gray" stroke-linecap="round" stroke-linejoin="round" stroke-miterlimit="10" stroke-width="0.5"/>
      <path id="Path-27" data-name="Path" d="M4.393,6.009,2.9,3.975,0,0" transform="translate(79.794 84.309)" fill="none" stroke="gray" stroke-linecap="round" stroke-linejoin="round" stroke-miterlimit="10" stroke-width="0.5"/>
      <path id="Path-28" data-name="Path" d="M0,0,42.171,18.625" transform="translate(56.979 53.103)" fill="none" stroke="gray" stroke-linecap="round" stroke-linejoin="round" stroke-miterlimit="10" stroke-width="0.5"/>
      <path id="Path-29" data-name="Path" d="M0,4.955,45.832,0" transform="translate(56.979 48.148)" fill="none" stroke="gray" stroke-linecap="round" stroke-linejoin="round" stroke-miterlimit="10" stroke-width="0.5"/>
      <path id="Path-30" data-name="Path" d="M2.035,0,0,1.49" transform="translate(92.16 25.896)" fill="none" stroke="gray" stroke-linecap="round" stroke-linejoin="round" stroke-miterlimit="10" stroke-width="0.5"/>
      <path id="Path-31" data-name="Path" d="M31.206,0,0,22.814" transform="translate(56.979 30.289)" fill="none" stroke="gray" stroke-linecap="round" stroke-linejoin="round" stroke-miterlimit="10" stroke-width="0.5"/>
      <path id="Path-32" data-name="Path" d="M28.24,0C23.925,4.02,12.88,8.083,0,16.7c0,0,.8,29.115,28.24,45.031Z" transform="translate(28.739 23.928)" fill="#adc7f7" stroke="#263238" stroke-linecap="round" stroke-linejoin="round" stroke-miterlimit="10" stroke-width="0.5"/>
      <path id="Path-33" data-name="Path" d="M0,0C4.315,4.02,15.361,8.083,28.24,16.7c0,0-.8,29.115-28.24,45.031Z" transform="translate(56.979 23.928)" fill="#263238" stroke="#263238" stroke-linecap="round" stroke-linejoin="round" stroke-miterlimit="10" stroke-width="0.5"/>
      <path id="Path-34" data-name="Path" d="M26.17,0C20.962,3.616,11.934,7.06,0,15.044c0,0,.749,26.979,26.17,41.724C51.592,42.023,52.337,15.062,52.337,15.062,40.406,7.06,31.421,3.616,26.17,0Z" transform="translate(30.809 26.406)" fill="#263238" stroke="#263238" stroke-linecap="round" stroke-linejoin="round" stroke-miterlimit="10" stroke-width="0.5"/>
      <path id="Path-35" data-name="Path" d="M26.167,15.044C14.219,7.06,5.25,3.616,0,0V56.751C25.422,42.005,26.167,15.044,26.167,15.044Z" transform="translate(56.979 26.423)" fill="#adc7f7" stroke="#263238" stroke-linecap="round" stroke-linejoin="round" stroke-miterlimit="10" stroke-width="0.5"/>
      <path id="Shape" d="M21.124,21.714H1.62A1.6,1.6,0,0,1,0,20.129V11.137A11.268,11.268,0,0,1,11.372,0,11.288,11.288,0,0,1,22.758,11.137v8.982a1.606,1.606,0,0,1-1.607,1.6Z" transform="translate(45.769 31.891)" fill="#fff" stroke="#263238" stroke-linecap="round" stroke-linejoin="round" stroke-miterlimit="10" stroke-width="0.5"/>
      <rect id="Rectangle" width="24.831" height="20.541" transform="translate(44.564 49.273)" fill="#fff" stroke="#263238" stroke-linecap="round" stroke-linejoin="round" stroke-miterlimit="10" stroke-width="0.5"/>
      <path id="Path-36" data-name="Path" d="M5.408,2.608A2.706,2.706,0,0,0,0,2.608a2.639,2.639,0,0,0,1.406,2.33L.952,9.605H4.428L3.975,4.938a2.639,2.639,0,0,0,1.434-2.33Z" transform="translate(54.154 55.193)" fill="#263238" stroke="#263238" stroke-linecap="round" stroke-linejoin="round" stroke-miterlimit="10" stroke-width="0.5"/>
    </g>
  </g>
</svg>
