<svg xmlns="http://www.w3.org/2000/svg" width="136.212" height="136.212" viewBox="0 0 136.212 136.212">
  <g id="Vault-bro" transform="translate(-0.191 0.166)">
    <g id="freepik--background-simple--inject-1--inject-569" transform="translate(0 0.343)">
      <path id="Path" d="M112.755,25.833c-7.345-6.44-14.73-13.271-22.918-18.458C76.676-.963,58.221-4.08,46.2,7.982c-3.7,3.717-4.453,8.845-5.926,13.651a20.273,20.273,0,0,1-9.407,12.093c-4.453,2.665-9.482,4.159-14.275,6.142C10.453,42.41,4.784,46.124,1.865,52.314-1.6,59.689,0,66.208,4.7,72.5c4.57,6.091,11.545,11.774,10.435,20.136-.466,3.573-1.908,6.93-3.049,10.346s-2.007,7.077-1.24,10.6c2.463,11.51,20.263,14.5,29.564,10.678,16.1-6.612,31.962,2.4,48.186,2.765,11.4.26,26.2-2.994,29.67-15.594,2.984-10.835-7.718-22.8.651-32.253,6.533-7.379,12.853-16.841,12.127-27.155-.709-10.013-8.348-17.611-15.532-23.788Q114.135,27.063,112.755,25.833Z" transform="translate(0.197 0)" fill="#f9fbff"/>
    </g>
    <g id="freepik--Shadow--inject-1--inject-569" transform="translate(25.693 128.806)">
      <ellipse id="Oval" cx="15.796" cy="3.158" rx="15.796" ry="3.158" transform="translate(0.051 0.223)" fill="#adc7f7"/>
      <ellipse id="Oval-2" data-name="Oval" cx="15.796" cy="3.158" rx="15.796" ry="3.158" transform="translate(0.051 0.223)" fill="#fff" opacity="0.5"/>
    </g>
    <g id="freepik--Vault--inject-1--inject-569" transform="translate(0.343)">
      <circle id="Oval-3" data-name="Oval" cx="47.908" cy="47.908" r="47.908" transform="translate(0.202 67.94) rotate(-45)" fill="#adc7f7" stroke="#2e353a" stroke-linecap="round" stroke-miterlimit="10" stroke-width="0.5"/>
      <circle id="Oval-4" data-name="Oval" cx="43.746" cy="43.746" r="43.746" transform="translate(24.209 24.192)" fill="#2e353a" stroke="#2e353a" stroke-linecap="round" stroke-miterlimit="10" stroke-width="0.5"/>
      <circle id="Oval-5" data-name="Oval" cx="40.478" cy="40.478" r="40.478" transform="translate(27.477 27.46)" fill="#fff" stroke="#2e353a" stroke-linecap="round" stroke-miterlimit="10" stroke-width="0.5"/>
      <path id="Shape" d="M10.723,62.482A36.593,36.593,0,1,1,36.609,73.2,36.6,36.6,0,0,1,10.723,62.482Z" transform="translate(31.354 31.342)" fill="#adc7f7" stroke="#2e353a" stroke-linecap="round" stroke-miterlimit="10" stroke-width="0.5"/>
      <path id="Shape-2" data-name="Shape" d="M5.9,34.4a20.145,20.145,0,1,1,14.251,5.9A20.148,20.148,0,0,1,5.9,34.4Z" transform="translate(47.805 47.792)" fill="#adc7f7" stroke="#2e353a" stroke-linecap="round" stroke-miterlimit="10" stroke-width="0.5"/>
      <path id="Shape-3" data-name="Shape" d="M0,11.648A11.647,11.647,0,1,1,11.648,23.295,11.647,11.647,0,0,1,0,11.648Z" transform="translate(56.308 56.291)" fill="#adc7f7" stroke="#2e353a" stroke-linecap="round" stroke-miterlimit="10" stroke-width="0.5"/>
      <circle id="Oval-6" data-name="Oval" cx="6.598" cy="6.598" r="6.598" transform="translate(61.358 61.34)" fill="#fff" stroke="#2e353a" stroke-linecap="round" stroke-miterlimit="10" stroke-width="0.5"/>
      <path id="Path-2" data-name="Path" d="M91.055,5.006C42.41-10.118,9.04,13.146,0,20.587A47.915,47.915,0,0,0,91.055,5.006Z" transform="translate(24.572 67.694)" fill="#adc7f7" style="mix-blend-mode: multiply;isolation: isolate"/>
      <rect id="Rectangle" width="5.944" height="10.106" rx="2.535" transform="translate(108.272 28.056)" fill="#2e353a" stroke="#2e353a" stroke-linecap="round" stroke-miterlimit="10" stroke-width="0.5"/>
      <rect id="Rectangle-2" data-name="Rectangle" width="5.944" height="10.106" rx="2.535" transform="translate(108.272 99.088)" fill="#2e353a" stroke="#2e353a" stroke-linecap="round" stroke-miterlimit="10" stroke-width="0.5"/>
      <rect id="Rectangle-3" data-name="Rectangle" width="5.944" height="10.106" rx="2.535" transform="translate(64.985 28.056)" fill="#2e353a" stroke="#2e353a" stroke-linecap="round" stroke-miterlimit="10" stroke-width="0.5"/>
      <rect id="Rectangle-4" data-name="Rectangle" width="5.944" height="10.106" rx="2.535" transform="translate(64.985 99.088)" fill="#2e353a" stroke="#2e353a" stroke-linecap="round" stroke-miterlimit="10" stroke-width="0.5"/>
      <circle id="Oval-7" data-name="Oval" cx="0.966" cy="0.966" r="0.966" transform="translate(66.989 15.693)" fill="#fff" stroke="#2e353a" stroke-linecap="round" stroke-miterlimit="10" stroke-width="0.5"/>
      <path id="Path-3" data-name="Path" d="M1.874.635a.966.966,0,1,0-.032.74.966.966,0,0,0,.032-.74Z" transform="translate(49.453 18.786)" fill="#fff" stroke="#2e353a" stroke-linecap="round" stroke-miterlimit="10" stroke-width="0.5"/>
      <path id="Path-4" data-name="Path" d="M1.7.338a.963.963,0,1,0,.23.71A.966.966,0,0,0,1.7.338Z" transform="translate(34.033 27.697)" fill="#fff" stroke="#2e353a" stroke-linecap="round" stroke-miterlimit="10" stroke-width="0.5"/>
      <path id="Path-5" data-name="Path" d="M1.456.134A.966.966,0,1,0,1.8,1.456.966.966,0,0,0,1.456.134Z" transform="translate(22.575 41.317)" fill="#fff" stroke="#2e353a" stroke-linecap="round" stroke-miterlimit="10" stroke-width="0.5"/>
      <path id="Path-6" data-name="Path" d="M1.133.015a.966.966,0,1,0,.625.4A.966.966,0,0,0,1.133.015Z" transform="translate(16.489 58.068)" fill="#fff" stroke="#2e353a" stroke-linecap="round" stroke-miterlimit="10" stroke-width="0.5"/>
      <path id="Path-7" data-name="Path" d="M.8.015a.966.966,0,1,0,.723.16A.966.966,0,0,0,.8.015Z" transform="translate(16.488 75.878)" fill="#fff" stroke="#2e353a" stroke-linecap="round" stroke-miterlimit="10" stroke-width="0.5"/>
      <path id="Path-8" data-name="Path" d="M.476.135a.963.963,0,1,0,.732-.1.966.966,0,0,0-.732.1Z" transform="translate(22.586 92.609)" fill="#fff" stroke="#2e353a" stroke-linecap="round" stroke-miterlimit="10" stroke-width="0.5"/>
      <path id="Path-9" data-name="Path" d="M.222.35A.966.966,0,1,0,.882,0,.966.966,0,0,0,.222.35Z" transform="translate(34.035 106.251)" fill="#fff" stroke="#2e353a" stroke-linecap="round" stroke-miterlimit="10" stroke-width="0.5"/>
      <path id="Path-10" data-name="Path" d="M.058.639A.963.963,0,1,0,.557.09a.966.966,0,0,0-.5.548Z" transform="translate(49.45 115.15)" fill="#fff" stroke="#2e353a" stroke-linecap="round" stroke-miterlimit="10" stroke-width="0.5"/>
      <path id="Path-11" data-name="Path" d="M0,.966A.969.969,0,1,0,.966,0,.969.969,0,0,0,0,.966Z" transform="translate(66.989 118.248)" fill="#fff" stroke="#2e353a" stroke-linecap="round" stroke-miterlimit="10" stroke-width="0.5"/>
      <path id="Path-12" data-name="Path" d="M.059,1.3A.966.966,0,1,0,.091.558a.966.966,0,0,0-.032.74Z" transform="translate(84.529 115.176)" fill="#fff" stroke="#2e353a" stroke-linecap="round" stroke-miterlimit="10" stroke-width="0.5"/>
      <path id="Path-13" data-name="Path" d="M.23,1.6A.966.966,0,1,0,0,.885.969.969,0,0,0,.23,1.6Z" transform="translate(99.947 106.249)" fill="#fff" stroke="#2e353a" stroke-linecap="round" stroke-miterlimit="10" stroke-width="0.5"/>
      <path id="Path-14" data-name="Path" d="M.475,1.8A.966.966,0,1,0,.132.476.966.966,0,0,0,.475,1.8Z" transform="translate(111.408 92.62)" fill="#fff" stroke="#2e353a" stroke-linecap="round" stroke-miterlimit="10" stroke-width="0.5"/>
      <path id="Path-15" data-name="Path" d="M.8,1.918a.966.966,0,1,0-.625-.4.966.966,0,0,0,.625.4Z" transform="translate(117.49 75.88)" fill="#fff" stroke="#2e353a" stroke-linecap="round" stroke-miterlimit="10" stroke-width="0.5"/>
      <path id="Path-16" data-name="Path" d="M1.135,1.917a.966.966,0,1,0-.723-.16.966.966,0,0,0,.723.16Z" transform="translate(117.49 58.07)" fill="#fff" stroke="#2e353a" stroke-linecap="round" stroke-miterlimit="10" stroke-width="0.5"/>
      <path id="Path-17" data-name="Path" d="M1.453,1.8A.966.966,0,1,0,.134,1.458.966.966,0,0,0,1.453,1.8Z" transform="translate(111.396 41.336)" fill="#fff" stroke="#2e353a" stroke-linecap="round" stroke-miterlimit="10" stroke-width="0.5"/>
      <path id="Path-18" data-name="Path" d="M1.713,1.592a.969.969,0,1,0-.661.343A.969.969,0,0,0,1.713,1.592Z" transform="translate(99.948 27.687)" fill="#fff" stroke="#2e353a" stroke-linecap="round" stroke-miterlimit="10" stroke-width="0.5"/>
      <path id="Path-19" data-name="Path" d="M1.874,1.3a.963.963,0,1,0-.5.547.966.966,0,0,0,.5-.547Z" transform="translate(84.529 18.786)" fill="#fff" stroke="#2e353a" stroke-linecap="round" stroke-miterlimit="10" stroke-width="0.5"/>
      <path id="Path-20" data-name="Path" d="M52.948,8.321V0H0V13.189H15.416a5.2,5.2,0,0,1,5.2,5.2V49.121a5.2,5.2,0,0,1-5.2,5.2H0V68.363H52.948V60.035H39.656a4.3,4.3,0,0,1-4.292-4.3V12.634a4.3,4.3,0,0,1,4.292-4.3Z" transform="translate(61.865 34.298)" fill="#fff" stroke="#2e353a" stroke-linecap="round" stroke-miterlimit="10" stroke-width="0.5"/>
      <path id="Path-21" data-name="Path" d="M20.606,0V13.645a7.811,7.811,0,0,1-7.8,7.8H0v8.831H47.747v-3.1H37.056a6.9,6.9,0,0,1-6.9-6.9V.654A74.211,74.211,0,0,0,20.606,0Z" transform="translate(64.465 69.775)" fill="#adc7f7"/>
      <path id="Path-22" data-name="Path" d="M0,5.053A179.2,179.2,0,0,1,26.9,0H0Z" transform="translate(64.465 36.902)" fill="#adc7f7"/>
      <path id="Path-23" data-name="Path" d="M14.227,0C8.944,1.028,4.087,2.121,0,3.131A7.807,7.807,0,0,1,3.491,9.64v3.717c3.3-1.538,6.509-2.912,9.554-4.131V3.874A6.879,6.879,0,0,1,14.227,0Z" transform="translate(81.579 43.058)" fill="#adc7f7"/>
      <path id="Path-24" data-name="Path" d="M.171,2.124V0" transform="translate(67.49 5.351)" fill="none" stroke="#2e353a" stroke-linecap="round" stroke-miterlimit="10" stroke-width="0.5"/>
      <path id="Path-25" data-name="Path" d="M.171,5.2V0" transform="translate(67.49 8.736)" fill="none" stroke="#2e353a" stroke-linecap="round" stroke-miterlimit="10" stroke-width="0.5"/>
      <path id="Path-26" data-name="Path" d="M.171,5.574V0" transform="translate(67.49 121.718)" fill="none" stroke="#2e353a" stroke-linecap="round" stroke-miterlimit="10" stroke-width="0.5"/>
      <path id="Path-27" data-name="Path" d="M0,.171H8.547" transform="translate(117.464 68.027)" fill="none" stroke="#2e353a" stroke-linecap="round" stroke-miterlimit="10" stroke-width="0.5"/>
      <path id="Path-28" data-name="Path" d="M0,.171H10.918" transform="translate(7.413 68.027)" fill="none" stroke="#2e353a" stroke-linecap="round" stroke-miterlimit="10" stroke-width="0.5"/>
      <path id="Path-29" data-name="Path" d="M0,.171H.976" transform="translate(4.854 68.027)" fill="none" stroke="#2e353a" stroke-linecap="round" stroke-miterlimit="10" stroke-width="0.5"/>
      <path id="Path-30" data-name="Path" d="M0,.171H1.994" transform="translate(127.871 68.027)" fill="none" stroke="#2e353a" stroke-linecap="round" stroke-miterlimit="10" stroke-width="0.5"/>
    </g>
    <g id="freepik--Character--inject-1--inject-569" transform="translate(29.118 47.275)">
      <path id="Path-31" data-name="Path" d="M13.806,44.048a15.285,15.285,0,0,1-2-1s3.707-18.423,3.844-24.473S16.608,0,16.608,0H0S.826,12.517.963,18.571,4.046,43.044,4.046,43.044a15.433,15.433,0,0,1-2.007,1c-.891.343-2,.778-1.449,1a5.406,5.406,0,0,0,2.34.226,14.916,14.916,0,0,0,3.343-1.339C6.718,43.592,7.3,7.7,7.3,7.7H8.489s.623,35.9,1.069,36.23A14.981,14.981,0,0,0,12.9,45.274a5.406,5.406,0,0,0,2.34-.226C15.81,44.835,14.7,44.39,13.806,44.048Z" transform="translate(5.139 39.197)" fill="#2e353a" stroke="#2e353a" stroke-linecap="round" stroke-linejoin="round" stroke-miterlimit="10" stroke-width="0.5"/>
      <path id="Path-32" data-name="Path" d="M3.929,0A3.5,3.5,0,0,0,1.161,1.819C.233,3.563-.233,11.808.116,12.74S1.277,14.6,2.9,13.319a4.147,4.147,0,0,0,1.744-2.556Z" transform="translate(0.182 16.354)" fill="#fff" stroke="#2e353a" stroke-linecap="round" stroke-linejoin="round" stroke-miterlimit="10" stroke-width="0.5"/>
      <path id="Path-33" data-name="Path" d="M1.3.043S3.7-.386,4.175,1.474,6.615,8.792,5.919,11s-3.371,2.093-5.228.928S1.3.043,1.3.043Z" transform="translate(21.685 16.12)" fill="#fff" stroke="#2e353a" stroke-linecap="round" stroke-linejoin="round" stroke-miterlimit="10" stroke-width="0.5"/>
      <path id="Path-34" data-name="Path" d="M7.924,0,0,3.152,1.035,26H17.629L18.872,2.96l-7-2.854L7.924,0Z" transform="translate(4.118 13.203)" fill="#fff" stroke="#2e353a" stroke-linecap="round" stroke-linejoin="round" stroke-miterlimit="10" stroke-width="0.5"/>
      <rect id="Rectangle-5" data-name="Rectangle" width="5.495" height="0.884" transform="translate(5.587 20.027)" fill="#2e353a" stroke="#2e353a" stroke-linecap="round" stroke-linejoin="round" stroke-miterlimit="10" stroke-width="0.5"/>
      <rect id="Rectangle-6" data-name="Rectangle" width="5.495" height="0.884" transform="translate(16.282 20.027)" fill="#2e353a" stroke="#2e353a" stroke-linecap="round" stroke-linejoin="round" stroke-miterlimit="10" stroke-width="0.5"/>
      <rect id="Rectangle-7" data-name="Rectangle" width="16.642" height="2.795" transform="translate(5.152 36.412)" fill="#2e353a" stroke="#2e353a" stroke-linecap="round" stroke-linejoin="round" stroke-miterlimit="10" stroke-width="0.5"/>
      <rect id="Rectangle-8" data-name="Rectangle" width="2.672" height="1.511" transform="translate(12.267 36.295)" fill="#fff" stroke="#2e353a" stroke-linecap="round" stroke-miterlimit="10" stroke-width="0.5"/>
      <path id="Path-35" data-name="Path" d="M3.357.7,1.833,0,.675.545l.959,3.128L0,20.3l1.548,1.668,1.809-1.737L2.254,3.672,3.357.7Z" transform="translate(11.846 15.607)" fill="#adc7f7"/>
      <path id="Path-36" data-name="Path" d="M.281,0,6.214,2.182,5.4,3.467,0,1.576.281,0Z" transform="translate(17.07 14.004)" fill="#2e353a" stroke="#2e353a" stroke-linecap="round" stroke-linejoin="round" stroke-miterlimit="10" stroke-width="0.5"/>
      <path id="Path-37" data-name="Path" d="M3.484,4.529,1.278,6.622A37.165,37.165,0,0,1,0,2.439C0,1.857,1.507.116,1.507.116L7.2,0,9.29,2.556,7.55,6.505,5.111,4.645Z" transform="translate(9.366 11.915)" fill="#fff" stroke="#2e353a" stroke-linecap="round" stroke-linejoin="round" stroke-miterlimit="10" stroke-width="0.5"/>
      <path id="Path-38" data-name="Path" d="M5.937,0,0,2.186.812,3.47l5.4-1.891L5.937,0Z" transform="translate(3.429 14.34)" fill="#2e353a" stroke="#2e353a" stroke-linecap="round" stroke-linejoin="round" stroke-miterlimit="10" stroke-width="0.5"/>
      <path id="Path-39" data-name="Path" d="M5.8,6.831,2.867,9.393,0,6.831V0H5.8V6.831Z" transform="translate(11.058 7.985)" fill="#fff"/>
      <path id="Path-40" data-name="Path" d="M0,1.983,2.076,4.392H3.967L5.885,2.275,5.7.267.089,0,0,1.983Z" transform="translate(10.969 10.407)" fill="#adc7f7" style="mix-blend-mode: multiply;isolation: isolate"/>
      <path id="Path-41" data-name="Path" d="M5.8,6.831,2.867,9.393,0,6.831V0H5.8V6.831Z" transform="translate(11.058 7.985)" fill="none" stroke="#2e353a" stroke-linecap="round" stroke-linejoin="round" stroke-miterlimit="10" stroke-width="0.5"/>
      <path id="Path-42" data-name="Path" d="M.973.052S-.1-.229.007.521.439,2.672.973,2.994l.538.322Z" transform="translate(9.458 6.115)" fill="#fff" stroke="#2e353a" stroke-linecap="round" stroke-linejoin="round" stroke-miterlimit="10" stroke-width="0.5"/>
      <path id="Path-43" data-name="Path" d="M.538.052S1.614-.229,1.5.521,1.076,2.672.538,2.994L0,3.316Z" transform="translate(17.087 6.115)" fill="#fff" stroke="#2e353a" stroke-linecap="round" stroke-linejoin="round" stroke-miterlimit="10" stroke-width="0.5"/>
      <path id="Path-44" data-name="Path" d="M8.167,4.088A4.083,4.083,0,1,0,.2,5.331L1.223,10.22l1.9,2.665H4.954L6.8,10.562,7.924,5.444a4.07,4.07,0,0,0,.243-1.357Z" transform="translate(9.965 0.835)" fill="#fff" stroke="#2e353a" stroke-linecap="round" stroke-linejoin="round" stroke-miterlimit="10" stroke-width="0.5"/>
      <path id="Path-45" data-name="Path" d="M0,2.014s.654-.709,1.247-.473.36.949,2.076,1.127a6.43,6.43,0,0,0,2.867-.3L6.283.88,0,0Z" transform="translate(10.962 3.72)" fill="#adc7f7"/>
      <path id="Path-46" data-name="Path" d="M.428.582A5.221,5.221,0,0,0,0,2.2,7.381,7.381,0,0,0,.538,4.128S1.826,1.442,1.72.476.322.26.428.582Z" transform="translate(16.824 4.018)" fill="#2e353a" stroke="#2e353a" stroke-linecap="round" stroke-linejoin="round" stroke-miterlimit="10" stroke-width="0.5"/>
      <path id="Path-47" data-name="Path" d="M.86,7.838s0-.168.027-.418c.062-.685.223-2.031.617-2.271.538-.322.483-2.014.483-2.014s-.75.846,1.829,1.713,4.673.524,6.07-1.3S9.993.428,9.78,1.072s-.647,1.507-1.4.86A5.829,5.829,0,0,0,4.3,0,3.686,3.686,0,0,0,1.182,1.932,2.114,2.114,0,0,0,0,3.761,20.822,20.822,0,0,0,.86,7.838Z" transform="translate(9.623 0.096)" fill="#2e353a" stroke="#2e353a" stroke-linecap="round" stroke-linejoin="round" stroke-miterlimit="10" stroke-width="0.5"/>
      <path id="Path-48" data-name="Path" d="M6.355,3.683c-1.521.062-2.816-.963-4.138-1.867A1.692,1.692,0,0,0,0,1.816,2.282,2.282,0,0,1,2.1,0C3.9-.112,4.5,2.354,6.156,2.57" transform="translate(11.688 0.849)" fill="none" stroke="#fff" stroke-linecap="round" stroke-linejoin="round" stroke-miterlimit="10" stroke-width="0.5"/>
      <path id="Path-49" data-name="Path" d="M3.594,0H0L.38,1.185a.558.558,0,0,0,.531.387H2.768a.555.555,0,0,0,.538-.421Z" transform="translate(10.161 7.845)" fill="#2e353a" stroke="#2e353a" stroke-linecap="round" stroke-linejoin="round" stroke-miterlimit="10" stroke-width="0.5"/>
      <path id="Path-50" data-name="Path" d="M3.6,0H0L.38,1.185a.558.558,0,0,0,.531.387H2.768a.558.558,0,0,0,.541-.421Z" transform="translate(14.148 7.845)" fill="#2e353a" stroke="#2e353a" stroke-linecap="round" stroke-linejoin="round" stroke-miterlimit="10" stroke-width="0.5"/>
      <path id="Path-51" data-name="Path" d="M.262,1.757.081,0" transform="translate(9.899 6.087)" fill="#fff" stroke="#2e353a" stroke-linecap="round" stroke-linejoin="round" stroke-miterlimit="10" stroke-width="0.5"/>
      <path id="Path-52" data-name="Path" d="M0,1.668.408,0" transform="translate(17.745 6.177)" fill="#fff" stroke="#2e353a" stroke-linecap="round" stroke-linejoin="round" stroke-miterlimit="10" stroke-width="0.5"/>
      <path id="Path-53" data-name="Path" d="M0,.171H.394" transform="translate(13.754 7.674)" fill="#fff" stroke="#2e353a" stroke-linecap="round" stroke-linejoin="round" stroke-miterlimit="10" stroke-width="0.5"/>
      <path id="Path-54" data-name="Path" d="M0,.171H.637" transform="translate(13.655 8.232)" fill="#fff" stroke="#2e353a" stroke-linecap="round" stroke-linejoin="round" stroke-miterlimit="10" stroke-width="0.5"/>
      <path id="Path-55" data-name="Path" d="M1.178,0S.908.408.589.408,0,0,0,0" transform="translate(13.521 10.674)" fill="none" stroke="#2e353a" stroke-linecap="round" stroke-linejoin="round" stroke-miterlimit="10" stroke-width="0.5"/>
      <path id="Path-56" data-name="Path" d="M2.9,0S0,1.278,0,2.093A36.024,36.024,0,0,0,1.511,9.287c.582,1.154,1.045,1.627,2.09.928S2.9,0,2.9,0Z" transform="translate(2.162 37.457)" fill="#2e353a" stroke="#2e353a" stroke-linecap="round" stroke-linejoin="round" stroke-miterlimit="10" stroke-width="0.5"/>
      <rect id="Rectangle-9" data-name="Rectangle" width="1.627" height="10.106" transform="translate(21.561 34.784)" fill="#2e353a" stroke="#2e353a" stroke-linecap="round" stroke-linejoin="round" stroke-miterlimit="10" stroke-width="0.5"/>
      <rect id="Rectangle-10" data-name="Rectangle" width="3.251" height="3.021" transform="translate(20.749 32.695)" fill="#2e353a" stroke="#2e353a" stroke-linecap="round" stroke-linejoin="round" stroke-miterlimit="10" stroke-width="0.5"/>
      <path id="Path-57" data-name="Path" d="M24.351,2.812S25.036,5.368,23.3,6.3c-.654.343-3.717-.233-7.317-1.161s-5.577-1.627-5.577-1.627L.3,3.275S-.626,1.418.769.37,7.278.836,7.278.836l10.455.233A7.855,7.855,0,0,1,22.96.952" transform="translate(3.137 22.449)" fill="#fff" stroke="#2e353a" stroke-linecap="round" stroke-linejoin="round" stroke-miterlimit="10" stroke-width="0.5"/>
      <path id="Path-58" data-name="Path" d="M1.84,3.6A20.245,20.245,0,0,1,6.139.928C8,.23,18.338,0,18.338,0s2.9.928,2.323,1.161-2.9.466-3.95.928S9.623,6.738,2.323,7.783C.719,8.013.346,7.9,0,6.272" transform="translate(0.216 22.356)" fill="#fff" stroke="#2e353a" stroke-linecap="round" stroke-linejoin="round" stroke-miterlimit="10" stroke-width="0.5"/>
      <path id="Path-59" data-name="Path" d="M0,.1.2,1.764H.884L.98,0,0,.1Z" transform="translate(16.872 22.383)" fill="#2e353a" stroke="#2e353a" stroke-linecap="round" stroke-linejoin="round" stroke-miterlimit="10" stroke-width="0.5"/>
    </g>
  </g>
</svg>
