<svg xmlns="http://www.w3.org/2000/svg" width="143.823" height="135.472" viewBox="0 0 143.823 135.472">
  <g id="New_message-bro" data-name="New message-bro" transform="translate(-0.288 -0.202)">
    <g id="freepik--background-simple--inject-2" transform="translate(7.577)">
      <path id="Path" d="M120.863,48.478a141.189,141.189,0,0,0-3.546-14.486C113,20.205,104.4,6.257,89.639,1.567A34.935,34.935,0,0,0,57.769,7.545C43.324,18.6,32.811,33.684,17.006,43.257c-13.195,8-20.1,20.915-15.665,39.175s19.256,28.9,35.474,27.605c13.479-1.087,27.571.076,39.224,6.618,10.414,5.845,28.814.758,44.035-15.21,8.868-9.308,8.008-21.143,5.118-32.2C123.4,62.4,122.245,55.41,120.863,48.478Z" transform="translate(0.31 0.202)" fill="#f9fbff"/>
    </g>
    <g id="freepik--Shadow--inject-2" transform="translate(0 131.075)">
      <path id="Path-2" data-name="Path" d="M143.823,2.144c0,1.182-32.2,2.144-71.91,2.144S0,3.326,0,2.144,32.2,0,71.913,0,143.823.962,143.823,2.144Z" transform="translate(0.288 0.311)" fill="#adc7f7"/>
      <path id="Path-3" data-name="Path" d="M143.823,2.144c0,1.182-32.2,2.144-71.91,2.144S0,3.326,0,2.144,32.2,0,71.913,0,143.823.962,143.823,2.144Z" transform="translate(0.288 0.311)" fill="#fff" opacity="0.3"/>
    </g>
    <g id="freepik--Plants--inject-2" transform="translate(9.85 51.9)">
      <path id="Path-4" data-name="Path" d="M1.059,5.351c0,.019.974-1,1.027-1.076C2.7,3.45,3.412,1.487,2.741.544A1.368,1.368,0,0,0,.715.37a2.874,2.874,0,0,0-.7,2.3A9.846,9.846,0,0,0,1.059,5.351Z" transform="translate(119.435 34.998)" fill="#adc7f7"/>
      <path id="Path-5" data-name="Path" d="M31.935,12.949c-.947-.663-2.9.061-3.724.682-.072.057-1.087,1.027-1.068,1.034h.023c-.311.114-.64.235-1,.379-.659.265-1.4.576-2.19.962A25.658,25.658,0,0,0,21.5,17.385,17.8,17.8,0,0,0,18.975,19.3a.174.174,0,0,0-.027.027c.167-.292.61-1.136.636-1.2.379-.962.542-3.031-.352-3.769a1.371,1.371,0,0,0-2,.379,2.868,2.868,0,0,0-.068,2.406,9.007,9.007,0,0,0,1.7,2.273A23.954,23.954,0,0,0,16.679,21.8c-.379.489-.777.993-1.136,1.515.136-.258.258-.492.269-.527.379-.958.542-3.031-.352-3.769a1.368,1.368,0,0,0-2,.379,2.859,2.859,0,0,0-.072,2.4,9.179,9.179,0,0,0,1.644,2.228l-.443.583c-.682.951-1.356,1.894-2.049,2.811-.242.322-.492.633-.758.939.121-.231.224-.424.235-.455.379-.962.542-3.031-.352-3.788a1.368,1.368,0,0,0-2,.379A2.854,2.854,0,0,0,9.592,26.9a8.54,8.54,0,0,0,1.587,2.171c-.265.311-.53.617-.8.905-.189.193-.356.379-.561.572l-.58.546c-.379.333-.758.682-1.155,1-.265.224-.519.428-.758.636.242-.314.712-.947.758-1A5.3,5.3,0,0,0,8.7,29.125a1.8,1.8,0,0,0,.129-.273,1.371,1.371,0,0,0-.905-1.826c-1.136-.277-2.69,1.1-3.231,1.977-.03.053-.318.652-.489,1.034.064-.239.136-.474.2-.72.136-.489.258-.981.379-1.515.053-.258.11-.519.167-.78s.091-.542.14-.814c.095-.636.163-1.284.22-1.94a8.439,8.439,0,0,0,2.72.379,2.917,2.917,0,0,0,2.087-1.193,1.364,1.364,0,0,0-.617-1.94c-1.068-.447-2.822.678-3.493,1.462-.042.049-.458.667-.682,1.011.03-.379.061-.788.08-1.19.045-1.136.061-2.322.08-3.489,0-.356,0-.712.023-1.068a9.515,9.515,0,0,0,2.815.421,2.86,2.86,0,0,0,2.091-1.193,1.371,1.371,0,0,0-.621-1.94c-1.065-.443-2.822.682-3.493,1.466-.049.057-.648.947-.792,1.182.019-.784.045-1.568.1-2.337a24.56,24.56,0,0,1,.417-3.1,10.364,10.364,0,0,0,2.834.424,2.852,2.852,0,0,0,2.087-1.193,1.371,1.371,0,0,0-.617-1.94C9.262,9.592,7.5,10.714,6.837,11.5c-.045.049-.5.727-.712,1.053l-.061-.023a17.487,17.487,0,0,1,.974-2.989c.22-.534.458-1.03.7-1.515a8.777,8.777,0,0,0,2.7.712,2.851,2.851,0,0,0,2.209-.958,1.371,1.371,0,0,0-.4-2c-1.011-.557-2.883.379-3.633,1.072-.042.038-.413.474-.682.8.114-.212.227-.436.341-.64.424-.758.856-1.44,1.246-2.034.224-.333.432-.633.633-.913a9.167,9.167,0,0,0,2.716-.614,2.82,2.82,0,0,0,1.515-1.868A1.364,1.364,0,0,0,13.115,0c-1.155-.03-2.387,1.648-2.728,2.622-.03.087-.341,1.455-.322,1.451h.027q-.3.379-.625.864c-.405.587-.856,1.254-1.3,2.012A24.624,24.624,0,0,0,6.864,9.464a18.184,18.184,0,0,0-1.049,2.993.114.114,0,0,1,0,.038c0-.337-.114-1.28-.129-1.352-.212-1.008-1.224-2.834-2.371-2.947A1.368,1.368,0,0,0,1.844,9.6a2.857,2.857,0,0,0,1.269,2.042,9.375,9.375,0,0,0,2.678.97,24.624,24.624,0,0,0-.5,3.194c-.057.625-.1,1.254-.133,1.894-.027-.292-.053-.553-.061-.587C4.879,16.1,3.867,14.282,2.72,14.165a1.368,1.368,0,0,0-1.47,1.409A2.871,2.871,0,0,0,2.519,17.62a9.23,9.23,0,0,0,2.6.951c0,.242-.023.485-.03.727-.045,1.167-.083,2.334-.155,3.474-.027.4-.068.8-.106,1.193-.023-.258-.049-.477-.053-.508-.216-1.011-1.227-2.834-2.375-2.951a1.368,1.368,0,0,0-1.47,1.409A2.864,2.864,0,0,0,2.2,23.961a8.414,8.414,0,0,0,2.523.932c-.049.405-.1.811-.17,1.2-.053.265-.083.527-.152.788l-.182.758c-.136.489-.269,1-.413,1.47-.1.33-.2.644-.3.962.03-.4.072-1.186.068-1.254-.057-1.027-.78-2.985-1.894-3.273A1.368,1.368,0,0,0,.018,26.712a2.851,2.851,0,0,0,.943,2.212,10.321,10.321,0,0,0,2.485,1.36c-.167.523-.33,1.027-.492,1.515-.564,1.648-1.095,3-1.477,3.94a.235.235,0,0,1-.042.095l.689.379c.023-.061.049-.121.072-.186.379-.958.875-2.337,1.405-4.016.17-.53.341-1.1.511-1.686a14.7,14.7,0,0,0,1.743.114,10.019,10.019,0,0,0,1.3,2.409c-.424.345-.841.678-1.239.985C4.538,34.9,3.348,35.728,2.507,36.3l-.1.068.758.417c.818-.587,1.894-1.4,3.171-2.417.432-.349.89-.731,1.352-1.136a9.425,9.425,0,0,0,2.371,1.553,2.86,2.86,0,0,0,2.394-.208,1.368,1.368,0,0,0,.25-2.019c-.78-.852-2.845-.568-3.788-.136-.053.027-.621.379-.977.591.189-.163.379-.318.564-.489.379-.33.758-.674,1.159-1.046l.568-.557c.193-.186.379-.4.568-.6.432-.477.845-.981,1.25-1.5A8.976,8.976,0,0,0,14.1,30.659a2.887,2.887,0,0,0,2.4.155,1.371,1.371,0,0,0,.553-1.959c-.644-.958-2.728-.993-3.72-.708-.064.019-.758.3-1.136.466.239-.311.485-.621.716-.947.678-.936,1.333-1.894,1.993-2.864l.61-.879a9.3,9.3,0,0,0,2.118,1.894,2.85,2.85,0,0,0,2.4.155,1.364,1.364,0,0,0,.553-1.959c-.644-.958-2.728-.993-3.72-.7-.072.019-1.065.432-1.311.549.447-.644.9-1.284,1.375-1.894a23.419,23.419,0,0,1,2.053-2.353,9.7,9.7,0,0,0,2.125,1.917,2.86,2.86,0,0,0,2.4.159,1.368,1.368,0,0,0,.553-1.959c-.644-.962-2.728-.993-3.72-.708-.064.019-.818.333-1.174.489l-.038-.057A17.726,17.726,0,0,1,21.593,17.5c.481-.326.955-.61,1.424-.871a9.237,9.237,0,0,0,1.864,2.084,2.809,2.809,0,0,0,2.368.421,1.368,1.368,0,0,0,.758-1.894c-.534-1.027-2.6-1.284-3.618-1.11-.057,0-.61.167-1.008.288l.636-.349c.777-.4,1.515-.727,2.163-1.008.379-.155.712-.292,1.03-.413a9.105,9.105,0,0,0,2.6.985,2.838,2.838,0,0,0,2.3-.72,1.368,1.368,0,0,0-.174-1.966Z" transform="translate(97.409 23.877)" fill="#adc7f7"/>
      <path id="Path-6" data-name="Path" d="M.743,3.356A9.593,9.593,0,0,0,3.1,5.011s.258-1.371.261-1.462C3.418,2.518,2.926.5,1.842.079a1.368,1.368,0,0,0-1.788.974A2.941,2.941,0,0,0,.743,3.356Z" transform="translate(101.991 26.708)" fill="#adc7f7"/>
      <g id="Group" transform="translate(97.359 23.866)" opacity="0.5">
        <path id="Path-7" data-name="Path" d="M1.059,5.351c0,.019.974-1,1.027-1.076C2.7,3.45,3.412,1.487,2.741.544A1.368,1.368,0,0,0,.715.37a2.874,2.874,0,0,0-.7,2.3A9.846,9.846,0,0,0,1.059,5.351Z" transform="translate(22.076 11.132)" fill="#fff"/>
        <path id="Path-8" data-name="Path" d="M31.935,12.949c-.947-.663-2.9.061-3.724.682-.072.057-1.087,1.027-1.068,1.034h.023c-.311.114-.64.235-1,.379-.659.265-1.4.576-2.19.962A25.658,25.658,0,0,0,21.5,17.385,17.8,17.8,0,0,0,18.975,19.3a.174.174,0,0,0-.027.027c.167-.292.61-1.136.636-1.2.379-.962.542-3.031-.352-3.769a1.371,1.371,0,0,0-2,.379,2.868,2.868,0,0,0-.068,2.406,9.007,9.007,0,0,0,1.7,2.273A23.954,23.954,0,0,0,16.679,21.8c-.379.489-.777.993-1.136,1.515.136-.258.258-.492.269-.527.379-.958.542-3.031-.352-3.769a1.368,1.368,0,0,0-2,.379,2.859,2.859,0,0,0-.072,2.4,9.179,9.179,0,0,0,1.644,2.228l-.443.583c-.682.951-1.356,1.894-2.049,2.811-.242.322-.492.633-.758.939.121-.231.224-.424.235-.455.379-.962.542-3.031-.352-3.788a1.368,1.368,0,0,0-2,.379A2.854,2.854,0,0,0,9.592,26.9a8.54,8.54,0,0,0,1.587,2.171c-.265.311-.53.617-.8.905-.189.193-.356.379-.561.572l-.58.546c-.379.333-.758.682-1.155,1-.265.224-.519.428-.758.636.242-.314.712-.947.758-1A5.3,5.3,0,0,0,8.7,29.125a1.8,1.8,0,0,0,.129-.273,1.371,1.371,0,0,0-.905-1.826c-1.136-.277-2.69,1.1-3.231,1.977-.03.053-.318.652-.489,1.034.064-.239.136-.474.2-.72.136-.489.258-.981.379-1.515.053-.258.11-.519.167-.78s.091-.542.14-.814c.095-.636.163-1.284.22-1.94a8.439,8.439,0,0,0,2.72.379,2.917,2.917,0,0,0,2.087-1.193,1.364,1.364,0,0,0-.617-1.94c-1.068-.447-2.822.678-3.493,1.462-.042.049-.458.667-.682,1.011.03-.379.061-.788.08-1.19.045-1.136.061-2.322.08-3.489,0-.356,0-.712.023-1.068a9.515,9.515,0,0,0,2.815.421,2.86,2.86,0,0,0,2.091-1.193,1.371,1.371,0,0,0-.621-1.94c-1.065-.443-2.822.682-3.493,1.466-.049.057-.648.947-.792,1.182.019-.784.045-1.568.1-2.337a24.56,24.56,0,0,1,.417-3.1,10.364,10.364,0,0,0,2.834.424,2.852,2.852,0,0,0,2.087-1.193,1.371,1.371,0,0,0-.617-1.94C9.262,9.592,7.5,10.714,6.837,11.5c-.045.049-.5.727-.712,1.053l-.061-.023a17.487,17.487,0,0,1,.974-2.989c.22-.534.458-1.03.7-1.515a8.777,8.777,0,0,0,2.7.712,2.851,2.851,0,0,0,2.209-.958,1.371,1.371,0,0,0-.4-2c-1.011-.557-2.883.379-3.633,1.072-.042.038-.413.474-.682.8.114-.212.227-.436.341-.64.424-.758.856-1.44,1.246-2.034.224-.333.432-.633.633-.913a9.167,9.167,0,0,0,2.716-.614,2.82,2.82,0,0,0,1.515-1.868A1.364,1.364,0,0,0,13.115,0c-1.155-.03-2.387,1.648-2.728,2.622-.03.087-.341,1.455-.322,1.451h.027q-.3.379-.625.864c-.405.587-.856,1.254-1.3,2.012A24.624,24.624,0,0,0,6.864,9.464a18.184,18.184,0,0,0-1.049,2.993.114.114,0,0,1,0,.038c0-.337-.114-1.28-.129-1.352-.212-1.008-1.224-2.834-2.371-2.947A1.368,1.368,0,0,0,1.844,9.6a2.857,2.857,0,0,0,1.269,2.042,9.375,9.375,0,0,0,2.678.97,24.624,24.624,0,0,0-.5,3.194c-.057.625-.1,1.254-.133,1.894-.027-.292-.053-.553-.061-.587C4.879,16.1,3.867,14.282,2.72,14.165a1.368,1.368,0,0,0-1.47,1.409A2.871,2.871,0,0,0,2.519,17.62a9.23,9.23,0,0,0,2.6.951c0,.242-.023.485-.03.727-.045,1.167-.083,2.334-.155,3.474-.027.4-.068.8-.106,1.193-.023-.258-.049-.477-.053-.508-.216-1.011-1.227-2.834-2.375-2.951a1.368,1.368,0,0,0-1.47,1.409A2.864,2.864,0,0,0,2.2,23.961a8.414,8.414,0,0,0,2.523.932c-.049.405-.1.811-.17,1.2-.053.265-.083.527-.152.788l-.182.758c-.136.489-.269,1-.413,1.47-.1.33-.2.644-.3.962.03-.4.072-1.186.068-1.254-.057-1.027-.78-2.985-1.894-3.273A1.368,1.368,0,0,0,.018,26.712a2.851,2.851,0,0,0,.943,2.212,10.321,10.321,0,0,0,2.485,1.36c-.167.523-.33,1.027-.492,1.515-.564,1.648-1.095,3-1.477,3.94a.235.235,0,0,1-.042.095l.689.379c.023-.061.049-.121.072-.186.379-.958.875-2.337,1.405-4.016.17-.53.341-1.1.511-1.686a14.7,14.7,0,0,0,1.743.114,10.019,10.019,0,0,0,1.3,2.409c-.424.345-.841.678-1.239.985C4.538,34.9,3.348,35.728,2.507,36.3l-.1.068.758.417c.818-.587,1.894-1.4,3.171-2.417.432-.349.89-.731,1.352-1.136a9.425,9.425,0,0,0,2.371,1.553,2.86,2.86,0,0,0,2.394-.208,1.368,1.368,0,0,0,.25-2.019c-.78-.852-2.845-.568-3.788-.136-.053.027-.621.379-.977.591.189-.163.379-.318.564-.489.379-.33.758-.674,1.159-1.046l.568-.557c.193-.186.379-.4.568-.6.432-.477.845-.981,1.25-1.5A8.976,8.976,0,0,0,14.1,30.659a2.887,2.887,0,0,0,2.4.155,1.371,1.371,0,0,0,.553-1.959c-.644-.958-2.728-.993-3.72-.708-.064.019-.758.3-1.136.466.239-.311.485-.621.716-.947.678-.936,1.333-1.894,1.993-2.864l.61-.879a9.3,9.3,0,0,0,2.118,1.894,2.85,2.85,0,0,0,2.4.155,1.364,1.364,0,0,0,.553-1.959c-.644-.958-2.728-.993-3.72-.7-.072.019-1.065.432-1.311.549.447-.644.9-1.284,1.375-1.894a23.419,23.419,0,0,1,2.053-2.353,9.7,9.7,0,0,0,2.125,1.917,2.86,2.86,0,0,0,2.4.159,1.368,1.368,0,0,0,.553-1.959c-.644-.962-2.728-.993-3.72-.708-.064.019-.818.333-1.174.489l-.038-.057A17.726,17.726,0,0,1,21.593,17.5c.481-.326.955-.61,1.424-.871a9.237,9.237,0,0,0,1.864,2.084,2.809,2.809,0,0,0,2.368.421,1.368,1.368,0,0,0,.758-1.894c-.534-1.027-2.6-1.284-3.618-1.11-.057,0-.61.167-1.008.288l.636-.349c.777-.4,1.515-.727,2.163-1.008.379-.155.712-.292,1.03-.413a9.105,9.105,0,0,0,2.6.985,2.838,2.838,0,0,0,2.3-.72,1.368,1.368,0,0,0-.174-1.966Z" transform="translate(0.05 0.011)" fill="#fff"/>
        <path id="Path-9" data-name="Path" d="M.743,3.356A9.593,9.593,0,0,0,3.1,5.011s.258-1.371.261-1.462C3.418,2.518,2.926.5,1.842.079a1.368,1.368,0,0,0-1.788.974A2.941,2.941,0,0,0,.743,3.356Z" transform="translate(4.632 2.842)" fill="#fff"/>
      </g>
      <path id="Path-10" data-name="Path" d="M4.936,4.788c.023,0-.3-1.587-.33-1.682C4.228,1.97,2.864,0,1.53,0A1.58,1.58,0,0,0,.015,1.8a3.3,3.3,0,0,0,1.7,2.193A11.228,11.228,0,0,0,4.936,4.788Z" transform="translate(23.855 6.122)" fill="#adc7f7"/>
      <path id="Path-11" data-name="Path" d="M25.134.045C23.876.5,23.24,2.822,23.293,4.012c0,.1.239,1.7.261,1.693h.027c-.1.379-.2.758-.311,1.193-.189.8-.379,1.7-.553,2.7a28.992,28.992,0,0,0-.356,3.254,20.658,20.658,0,0,0,.125,3.656.189.189,0,0,1,0,.045c-.163-.356-.655-1.33-.7-1.4-.652-1-2.5-2.538-3.788-2.182A1.584,1.584,0,0,0,17,15.108a3.3,3.3,0,0,0,2.22,1.667,10.925,10.925,0,0,0,3.288-.076,27.776,27.776,0,0,0,.792,3.644c.2.7.417,1.394.648,2.091-.152-.3-.292-.572-.314-.606-.655-1-2.5-2.538-3.788-2.182a1.576,1.576,0,0,0-.989,2.129,3.3,3.3,0,0,0,2.22,1.671,10.806,10.806,0,0,0,3.194-.064c.091.265.178.534.269.8.439,1.273.886,2.546,1.284,3.788.14.443.261.886.379,1.326-.136-.269-.25-.492-.273-.523-.652-1-2.5-2.538-3.788-2.182a1.576,1.576,0,0,0-.989,2.129,3.3,3.3,0,0,0,2.22,1.671,9.757,9.757,0,0,0,3.106-.053c.114.458.227.913.314,1.36.057.307.129.6.167.913s.083.61.129.909c.061.583.125,1.186.17,1.758.034.379.057.758.083,1.136-.133-.443-.417-1.307-.447-1.375a6.164,6.164,0,0,0-2.042-2.326,1.849,1.849,0,0,0-.174-.3,1.584,1.584,0,0,0-2.322-.379c-1.008.875-.758,3.266-.292,4.364.027.064.405.731.648,1.136-.182-.224-.352-.443-.542-.674-.379-.451-.758-.894-1.167-1.371l-.625-.678c-.2-.231-.447-.447-.674-.674-.53-.515-1.1-1.011-1.678-1.515a11.2,11.2,0,0,0,2.19-2.3,3.29,3.29,0,0,0,.265-2.765,1.576,1.576,0,0,0-2.239-.708c-1.136.708-1.243,3.11-.951,4.266.019.072.322.875.5,1.315-.352-.288-.7-.58-1.065-.864-1.057-.814-2.148-1.606-3.235-2.4-.333-.242-.663-.492-.993-.735a10.914,10.914,0,0,0,2.273-2.371,3.309,3.309,0,0,0,.269-2.765,1.576,1.576,0,0,0-2.239-.708c-1.136.708-1.246,3.11-.951,4.266,0,.087.458,1.246.583,1.534-.727-.542-1.443-1.087-2.133-1.655a28.25,28.25,0,0,1-2.652-2.455,10.658,10.658,0,0,0,2.273-2.383,3.309,3.309,0,0,0,.269-2.765,1.576,1.576,0,0,0-2.239-.708c-1.136.708-1.246,3.11-.951,4.266,0,.076.352.958.519,1.375l-.064.038A20.173,20.173,0,0,1,5.291,21.18c-.356-.561-.663-1.136-.951-1.671a10.685,10.685,0,0,0,2.474-2.076,3.25,3.25,0,0,0,.568-2.716,1.58,1.58,0,0,0-2.148-.955c-1.2.583-1.576,2.959-1.413,4.137,0,.064.17.708.3,1.174-.125-.25-.258-.508-.379-.758-.439-.909-.784-1.765-1.087-2.531-.167-.436-.307-.83-.436-1.2a10.674,10.674,0,0,0,1.227-2.966A3.215,3.215,0,0,0,2.685,8.94,1.58,1.58,0,0,0,.34,9.084c-.8,1.068-.034,3.353.655,4.322.057.083,1.136,1.292,1.136,1.269v-.027c.117.379.246.758.379,1.167.284.758.614,1.64,1.034,2.561a27.7,27.7,0,0,0,1.5,2.909,20.98,20.98,0,0,0,2.121,2.985l.03.03c-.333-.2-1.28-.758-1.36-.78-1.095-.47-3.485-.735-4.364.269a1.584,1.584,0,0,0,.352,2.326,3.3,3.3,0,0,0,2.769.167,10.5,10.5,0,0,0,2.7-1.894,28.033,28.033,0,0,0,2.652,2.6c.549.474,1.118.936,1.693,1.387l-.595-.333c-1.095-.47-3.485-.735-4.364.273a1.58,1.58,0,0,0,.349,2.322,3.3,3.3,0,0,0,2.773.167,10.3,10.3,0,0,0,2.629-1.815l.667.519c1.072.818,2.144,1.633,3.171,2.462.36.292.7.595,1.053.894-.261-.148-.481-.273-.519-.288-1.091-.47-3.485-.735-4.36.269a1.584,1.584,0,0,0,.349,2.326,3.31,3.31,0,0,0,2.773.167,9.751,9.751,0,0,0,2.561-1.758c.349.318.693.636,1.015.962.216.224.436.428.64.667l.61.689c.379.455.758.921,1.11,1.371.246.311.477.614.708.917-.356-.3-1.068-.86-1.136-.9-1.011-.633-3.334-1.258-4.353-.379a1.576,1.576,0,0,0,0,2.349,3.306,3.306,0,0,0,2.716.587,10.818,10.818,0,0,0,2.936-1.44c.379.5.758,1,1.087,1.47,1.182,1.629,2.1,3.031,2.731,4.019l.064.1.814-.4-.129-.193c-.659-.985-1.618-2.383-2.845-4-.379-.515-.807-1.053-1.246-1.6a17.828,17.828,0,0,0,1.265-1.568,11.068,11.068,0,0,0,3.141.379c.042.633.076,1.246.1,1.826.083,2.008.08,3.686.057,4.86v.136L28.3,43c0-1.167-.042-2.739-.163-4.6-.038-.64-.091-1.326-.155-2.027a10.679,10.679,0,0,0,3.031-1.193,3.322,3.322,0,0,0,1.4-2.4A1.58,1.58,0,0,0,30.676,31.2c-1.322.17-2.432,2.3-2.652,3.478,0,.068-.068.833-.1,1.315-.027-.284-.049-.564-.08-.86-.061-.58-.136-1.163-.216-1.784l-.148-.913c-.042-.3-.125-.617-.189-.932-.159-.727-.356-1.451-.572-2.182a10.361,10.361,0,0,0,3.1-.708,3.281,3.281,0,0,0,1.746-2.159,1.576,1.576,0,0,0-1.477-1.826c-1.333-.034-2.754,1.894-3.144,3.031-.027.068-.216.909-.314,1.371-.133-.436-.261-.871-.409-1.311-.432-1.262-.905-2.523-1.375-3.788l-.421-1.159a11.034,11.034,0,0,0,3.209-.724,3.337,3.337,0,0,0,1.746-2.156,1.58,1.58,0,0,0-1.477-1.83c-1.333-.03-2.754,1.894-3.144,3.031-.03.087-.3,1.292-.36,1.6-.307-.852-.606-1.7-.864-2.557a27.375,27.375,0,0,1-.849-3.5,10.9,10.9,0,0,0,3.228-.724,3.335,3.335,0,0,0,1.746-2.159,1.58,1.58,0,0,0-1.477-1.826c-1.333-.034-2.754,1.894-3.144,3.031-.027.076-.235.993-.326,1.432h-.076a20.491,20.491,0,0,1-.2-3.622c0-.667.064-1.3.125-1.921a10.6,10.6,0,0,0,3.209-.379,3.273,3.273,0,0,0,1.977-1.951,1.576,1.576,0,0,0-1.269-1.977c-1.322-.182-2.947,1.595-3.459,2.652-.03.061-.246.686-.4,1.136.034-.28.064-.568.1-.833.136-1,.322-1.894.492-2.709.1-.455.2-.864.3-1.246a10.255,10.255,0,0,0,2.652-1.8,3.325,3.325,0,0,0,.852-2.652A1.58,1.58,0,0,0,25.134.045Z" transform="translate(6.237 0.178)" fill="#adc7f7"/>
      <path id="Path-12" data-name="Path" d="M3.024,3.506A11.4,11.4,0,0,0,6.153,2.4s-1.136-1.159-1.2-1.224C4.016.414,1.781-.457.671.278A1.576,1.576,0,0,0,.395,2.611,3.243,3.243,0,0,0,3.024,3.506Z" transform="translate(4.231 17.281)" fill="#adc7f7"/>
      <g id="Group-2" data-name="Group" transform="translate(4.167)" opacity="0.5">
        <path id="Path-13" data-name="Path" d="M4.936,4.788c.023,0-.3-1.587-.33-1.682C4.228,1.97,2.864,0,1.53,0A1.58,1.58,0,0,0,.015,1.8a3.3,3.3,0,0,0,1.7,2.193A11.228,11.228,0,0,0,4.936,4.788Z" transform="translate(19.688 6.122)" fill="#fff"/>
        <path id="Path-14" data-name="Path" d="M25.134.045C23.876.5,23.24,2.822,23.293,4.012c0,.1.239,1.7.261,1.693h.027c-.1.379-.2.758-.311,1.193-.189.8-.379,1.7-.553,2.7a28.992,28.992,0,0,0-.356,3.254,20.658,20.658,0,0,0,.125,3.656.189.189,0,0,1,0,.045c-.163-.356-.655-1.33-.7-1.4-.652-1-2.5-2.538-3.788-2.182A1.584,1.584,0,0,0,17,15.108a3.3,3.3,0,0,0,2.22,1.667,10.925,10.925,0,0,0,3.288-.076,27.776,27.776,0,0,0,.792,3.644c.2.7.417,1.394.648,2.091-.152-.3-.292-.572-.314-.606-.655-1-2.5-2.538-3.788-2.182a1.576,1.576,0,0,0-.989,2.129,3.3,3.3,0,0,0,2.22,1.671,10.806,10.806,0,0,0,3.194-.064c.091.265.178.534.269.8.439,1.273.886,2.546,1.284,3.788.14.443.261.886.379,1.326-.136-.269-.25-.492-.273-.523-.652-1-2.5-2.538-3.788-2.182a1.576,1.576,0,0,0-.989,2.129,3.3,3.3,0,0,0,2.22,1.671,9.757,9.757,0,0,0,3.106-.053c.114.458.227.913.314,1.36.057.307.129.6.167.913s.083.61.129.909c.061.583.125,1.186.17,1.758.034.379.057.758.083,1.136-.133-.443-.417-1.307-.447-1.375a6.164,6.164,0,0,0-2.042-2.326,1.849,1.849,0,0,0-.174-.3,1.584,1.584,0,0,0-2.322-.379c-1.008.875-.758,3.266-.292,4.364.027.064.405.731.648,1.136-.182-.224-.352-.443-.542-.674-.379-.451-.758-.894-1.167-1.371l-.625-.678c-.2-.231-.447-.447-.674-.674-.53-.515-1.1-1.011-1.678-1.515a11.2,11.2,0,0,0,2.19-2.3,3.29,3.29,0,0,0,.265-2.765,1.576,1.576,0,0,0-2.239-.708c-1.136.708-1.243,3.11-.951,4.266.019.072.322.875.5,1.315-.352-.288-.7-.58-1.065-.864-1.057-.814-2.148-1.606-3.235-2.4-.333-.242-.663-.492-.993-.735a10.914,10.914,0,0,0,2.273-2.371,3.309,3.309,0,0,0,.269-2.765,1.576,1.576,0,0,0-2.239-.708c-1.136.708-1.246,3.11-.951,4.266,0,.087.458,1.246.583,1.534-.727-.542-1.443-1.087-2.133-1.655a28.25,28.25,0,0,1-2.652-2.455,10.658,10.658,0,0,0,2.273-2.383,3.309,3.309,0,0,0,.269-2.765,1.576,1.576,0,0,0-2.239-.708c-1.136.708-1.246,3.11-.951,4.266,0,.076.352.958.519,1.375l-.064.038A20.173,20.173,0,0,1,5.291,21.18c-.356-.561-.663-1.136-.951-1.671a10.685,10.685,0,0,0,2.474-2.076,3.25,3.25,0,0,0,.568-2.716,1.58,1.58,0,0,0-2.148-.955c-1.2.583-1.576,2.959-1.413,4.137,0,.064.17.708.3,1.174-.125-.25-.258-.508-.379-.758-.439-.909-.784-1.765-1.087-2.531-.167-.436-.307-.83-.436-1.2a10.674,10.674,0,0,0,1.227-2.966A3.215,3.215,0,0,0,2.685,8.94,1.58,1.58,0,0,0,.34,9.084c-.8,1.068-.034,3.353.655,4.322.057.083,1.136,1.292,1.136,1.269v-.027c.117.379.246.758.379,1.167.284.758.614,1.64,1.034,2.561a27.7,27.7,0,0,0,1.5,2.909,20.98,20.98,0,0,0,2.121,2.985l.03.03c-.333-.2-1.28-.758-1.36-.78-1.095-.47-3.485-.735-4.364.269a1.584,1.584,0,0,0,.352,2.326,3.3,3.3,0,0,0,2.769.167,10.5,10.5,0,0,0,2.7-1.894,28.033,28.033,0,0,0,2.652,2.6c.549.474,1.118.936,1.693,1.387l-.595-.333c-1.095-.47-3.485-.735-4.364.273a1.58,1.58,0,0,0,.349,2.322,3.3,3.3,0,0,0,2.773.167,10.3,10.3,0,0,0,2.629-1.815l.667.519c1.072.818,2.144,1.633,3.171,2.462.36.292.7.595,1.053.894-.261-.148-.481-.273-.519-.288-1.091-.47-3.485-.735-4.36.269a1.584,1.584,0,0,0,.349,2.326,3.31,3.31,0,0,0,2.773.167,9.751,9.751,0,0,0,2.561-1.758c.349.318.693.636,1.015.962.216.224.436.428.64.667l.61.689c.379.455.758.921,1.11,1.371.246.311.477.614.708.917-.356-.3-1.068-.86-1.136-.9-1.011-.633-3.334-1.258-4.353-.379a1.576,1.576,0,0,0,0,2.349,3.306,3.306,0,0,0,2.716.587,10.818,10.818,0,0,0,2.936-1.44c.379.5.758,1,1.087,1.47,1.182,1.629,2.1,3.031,2.731,4.019l.064.1.814-.4-.129-.193c-.659-.985-1.618-2.383-2.845-4-.379-.515-.807-1.053-1.246-1.6a17.828,17.828,0,0,0,1.265-1.568,11.068,11.068,0,0,0,3.141.379c.042.633.076,1.246.1,1.826.083,2.008.08,3.686.057,4.86v.136L28.3,43c0-1.167-.042-2.739-.163-4.6-.038-.64-.091-1.326-.155-2.027a10.679,10.679,0,0,0,3.031-1.193,3.322,3.322,0,0,0,1.4-2.4A1.58,1.58,0,0,0,30.676,31.2c-1.322.17-2.432,2.3-2.652,3.478,0,.068-.068.833-.1,1.315-.027-.284-.049-.564-.08-.86-.061-.58-.136-1.163-.216-1.784l-.148-.913c-.042-.3-.125-.617-.189-.932-.159-.727-.356-1.451-.572-2.182a10.361,10.361,0,0,0,3.1-.708,3.281,3.281,0,0,0,1.746-2.159,1.576,1.576,0,0,0-1.477-1.826c-1.333-.034-2.754,1.894-3.144,3.031-.027.068-.216.909-.314,1.371-.133-.436-.261-.871-.409-1.311-.432-1.262-.905-2.523-1.375-3.788l-.421-1.159a11.034,11.034,0,0,0,3.209-.724,3.337,3.337,0,0,0,1.746-2.156,1.58,1.58,0,0,0-1.477-1.83c-1.333-.03-2.754,1.894-3.144,3.031-.03.087-.3,1.292-.36,1.6-.307-.852-.606-1.7-.864-2.557a27.375,27.375,0,0,1-.849-3.5,10.9,10.9,0,0,0,3.228-.724,3.335,3.335,0,0,0,1.746-2.159,1.58,1.58,0,0,0-1.477-1.826c-1.333-.034-2.754,1.894-3.144,3.031-.027.076-.235.993-.326,1.432h-.076a20.491,20.491,0,0,1-.2-3.622c0-.667.064-1.3.125-1.921a10.6,10.6,0,0,0,3.209-.379,3.273,3.273,0,0,0,1.977-1.951,1.576,1.576,0,0,0-1.269-1.977c-1.322-.182-2.947,1.595-3.459,2.652-.03.061-.246.686-.4,1.136.034-.28.064-.568.1-.833.136-1,.322-1.894.492-2.709.1-.455.2-.864.3-1.246a10.255,10.255,0,0,0,2.652-1.8,3.325,3.325,0,0,0,.852-2.652A1.58,1.58,0,0,0,25.134.045Z" transform="translate(2.07 0.178)" fill="#fff"/>
        <path id="Path-15" data-name="Path" d="M3.024,3.506A11.4,11.4,0,0,0,6.153,2.4s-1.136-1.159-1.2-1.224C4.016.414,1.781-.457.671.278A1.576,1.576,0,0,0,.395,2.611,3.243,3.243,0,0,0,3.024,3.506Z" transform="translate(0.064 17.281)" fill="#fff"/>
      </g>
      <path id="Path-16" data-name="Path" d="M19.729,14.606S26.056-.642,29.6.021s-6.061,24.31-6.061,24.31S34.667,3.336,42.258,3.336s-2.784,23.2-12.4,30.939c0,0,15.176-16.354,24.029-12.816S36.186,41.567,36.186,41.567s15.43-4.86,13.661-1.1-6.576,4.417-6.576,4.417l17.453.886H0l13.661-1.326S-.508,37.37,3.288,34.5,15.43,37.813,15.43,37.813,1.011,21.9,3.792,15.932s15.18,10.831,15.18,10.831S8.853,5.325,10.876,1.578,19.729,14.606,19.729,14.606Z" transform="translate(0.258 34.79)" fill="#adc7f7"/>
      <path id="Path-17" data-name="Path" d="M19.729,14.606S26.056-.642,29.6.021s-6.061,24.31-6.061,24.31S34.667,3.336,42.258,3.336s-2.784,23.2-12.4,30.939c0,0,15.176-16.354,24.029-12.816S36.186,41.567,36.186,41.567s15.43-4.86,13.661-1.1-6.576,4.417-6.576,4.417l17.453.886H0l13.661-1.326S-.508,37.37,3.288,34.5,15.43,37.813,15.43,37.813,1.011,21.9,3.792,15.932s15.18,10.831,15.18,10.831S8.853,5.325,10.876,1.578,19.729,14.606,19.729,14.606Z" transform="translate(0.258 34.79)" fill="#fff" opacity="0.5"/>
      <path id="Path-18" data-name="Path" d="M7.842,0c5.565,16.445,5.565,28.083,5.565,28.083A23.148,23.148,0,0,1,0,23.275" transform="translate(10.122 50.199)" fill="none" stroke="#263238" stroke-linecap="round" stroke-linejoin="round" stroke-miterlimit="10" stroke-width="0.5"/>
      <path id="Path-19" data-name="Path" d="M0,14.422A98.628,98.628,0,0,1,4.546,0" transform="translate(20.749 44.634)" fill="none" stroke="#263238" stroke-linecap="round" stroke-linejoin="round" stroke-miterlimit="10" stroke-width="0.5"/>
      <path id="Path-20" data-name="Path" d="M27.067,0,12.9,21S3.288,12.9,0,8.349" transform="translate(10.122 49.441)" fill="none" stroke="#263238" stroke-linecap="round" stroke-linejoin="round" stroke-miterlimit="10" stroke-width="0.5"/>
      <path id="Path-21" data-name="Path" d="M0,11.13S14.922,4.046,20.995,0" transform="translate(23.279 64.367)" fill="none" stroke="#263238" stroke-linecap="round" stroke-linejoin="round" stroke-miterlimit="10" stroke-width="0.5"/>
      <path id="Path-22" data-name="Path" d="M40.986,14.606S34.663-.642,31.136.021,37.2,24.331,37.2,24.331,26.067,3.336,18.479,3.336s2.781,23.2,12.4,30.939c0,0-15.18-16.354-24.033-12.816s17.71,20.108,17.71,20.108-15.434-4.86-13.661-1.1,6.576,4.417,6.576,4.417L0,45.769H60.719L47.058,44.443S61.223,37.37,57.431,34.5s-12.145,3.315-12.145,3.315S59.707,21.9,56.923,15.932s-15.18,10.831-15.18,10.831,10.122-21.438,8.1-25.2S40.986,14.606,40.986,14.606Z" transform="translate(60.613 34.79)" fill="#adc7f7"/>
      <path id="Path-23" data-name="Path" d="M40.986,14.606S34.663-.642,31.136.021,37.2,24.331,37.2,24.331,26.067,3.336,18.479,3.336s2.781,23.2,12.4,30.939c0,0-15.18-16.354-24.033-12.816s17.71,20.108,17.71,20.108-15.434-4.86-13.661-1.1,6.576,4.417,6.576,4.417L0,45.769H60.719L47.058,44.443S61.223,37.37,57.431,34.5s-12.145,3.315-12.145,3.315S59.707,21.9,56.923,15.932s-15.18,10.831-15.18,10.831,10.122-21.438,8.1-25.2S40.986,14.606,40.986,14.606Z" transform="translate(60.613 34.79)" fill="#fff" opacity="0.5"/>
      <path id="Path-24" data-name="Path" d="M5.565,0C0,16.445,0,28.083,0,28.083a23.148,23.148,0,0,0,13.407-4.807" transform="translate(98.056 50.199)" fill="none" stroke="#263238" stroke-linecap="round" stroke-linejoin="round" stroke-miterlimit="10" stroke-width="0.5"/>
      <path id="Path-25" data-name="Path" d="M4.546,14.422A98.628,98.628,0,0,0,0,0" transform="translate(96.295 44.634)" fill="none" stroke="#263238" stroke-linecap="round" stroke-linejoin="round" stroke-miterlimit="10" stroke-width="0.5"/>
      <path id="Path-26" data-name="Path" d="M0,0,14.168,21s9.611-8.1,12.9-12.649" transform="translate(84.396 49.441)" fill="none" stroke="#263238" stroke-linecap="round" stroke-linejoin="round" stroke-miterlimit="10" stroke-width="0.5"/>
      <path id="Path-27" data-name="Path" d="M21,11.13S6.073,4.046,0,0" transform="translate(77.312 64.367)" fill="none" stroke="#263238" stroke-linecap="round" stroke-linejoin="round" stroke-miterlimit="10" stroke-width="0.5"/>
    </g>
    <g id="freepik--Device--inject-2" transform="translate(40.156 18.942)">
      <rect id="Rectangle" width="63.606" height="114.63" rx="2.557" transform="translate(0.03 0.189)" fill="#263238" stroke="#263238" stroke-miterlimit="10" stroke-width="0.5"/>
      <path id="Path-28" data-name="Path" d="M8.732,1.625H.814A.814.814,0,0,1,0,.811H0A.811.811,0,0,1,.814,0H8.732a.811.811,0,0,1,.811.811h0a.811.811,0,0,1-.811.814Z" transform="translate(27.499 5.413)" fill="#adc7f7"/>
      <path id="Path-29" data-name="Path" d="M55.567,97.443H0V0H13.172l1.481,1.227a2.864,2.864,0,0,0,1.841.667H39.732a2.894,2.894,0,0,0,1.894-.72L42.963,0H55.555Z" transform="translate(4.05 7.133)" fill="#fff" stroke="#263238" stroke-linecap="round" stroke-linejoin="round" stroke-miterlimit="10" stroke-width="0.5"/>
      <path id="Path-30" data-name="Path" d="M19.669,2.546,18.911,0H0V90.181H50.691V2.546Z" transform="translate(6.573 11.77)" fill="#adc7f7"/>
      <rect id="Rectangle-2" data-name="Rectangle" width="47.126" height="80.244" transform="translate(8.353 18.904)" fill="#fff"/>
      <path id="Path-31" data-name="Path" d="M2.531,1.269A1.265,1.265,0,1,0,1.265,2.531,1.265,1.265,0,0,0,2.531,1.269Z" transform="translate(31.079 106.319)" fill="#adc7f7"/>
    </g>
    <g id="freepik--Message--inject-2" transform="translate(52.657 23.866)">
      <ellipse id="Oval" cx="15.517" cy="22.078" rx="15.517" ry="22.078" transform="translate(0.36 46.562)" fill="#adc7f7"/>
      <ellipse id="Oval-2" data-name="Oval" cx="15.517" cy="22.078" rx="15.517" ry="22.078" transform="translate(0.36 46.562)" fill="#fff" opacity="0.5"/>
      <path id="Path-32" data-name="Path" d="M16.623,1.7S15.653.08,14.763,0,3.273,6.573,1.652,10.036a17.9,17.9,0,0,0,1.136,17.1c4.186,6.5,10.747,6.289,14.149,5.963s5.682-1.432,9.13-4.2,6.611-6.838,7.069-9.6a4.07,4.07,0,0,0-2.3-4.686c-1.076-.383-7.3-.307-11.835-4.925S16.623,1.7,16.623,1.7Z" transform="translate(1.455 42.296)" fill="#263238" stroke="#263238" stroke-linecap="round" stroke-linejoin="round" stroke-miterlimit="10" stroke-width="0.5"/>
      <path id="Path-33" data-name="Path" d="M7.284,0A13.455,13.455,0,0,0,2.833,2.913C1.132,4.773.083,7.69,0,11.979S1.3,21.12,6.637,23.226s10.115.485,11.653-.974,3.409-5.58,3.409-5.58S13.205,18.945,9.16,14.161,7.284,0,7.284,0Z" transform="translate(12.169 41.891)" fill="#fff" stroke="#263238" stroke-linecap="round" stroke-linejoin="round" stroke-miterlimit="10" stroke-width="0.5"/>
      <path id="Path-34" data-name="Path" d="M50.986,44.838c-2.076-3.114-7.031-4.035-10.948-5.3s-6.224-3.788-5.186-10.024,6.44-16.365,6.338-18.21-18.669-1.727-20.4-1.136-2.072.458-3.686,2.534a28.727,28.727,0,0,0-2.421,3.55l2-4.205h.148a5.3,5.3,0,0,1,.913-1.515A11.649,11.649,0,0,0,20.566,3.2C20.642-.765,17.82-.383,17.286.837A59.777,59.777,0,0,1,12.709,7.4c-.917,1.144-2.822,4.273-2.822,4.273L7.769,19.013S7.307,21.2,4.655,29.5s-1.5,12.126-1.5,12.126-.693-.345-2.307,4.61S-.069,57.533,2.81,60.529,9.5,63.412,13.762,61.685a13.111,13.111,0,0,0,6.224-5.554,24.888,24.888,0,0,0,7.838-3.686c3.341-2.55,5.876-5.186,10.725-4.955s10.372,3,12.217,2.879S53.062,47.949,50.986,44.838Z" transform="translate(16.002 0.042)" fill="#fff"/>
      <g id="Group-3" data-name="Group" transform="translate(15.532 33.716)">
        <path id="Path-35" data-name="Path" d="M21.544.213C8.721,2.126,4.69,5.187,5.97,9.4a6.512,6.512,0,0,0,1.269,2.273,1.033,1.033,0,0,0,.023.258s.227.136.568.379a10.869,10.869,0,0,0,1.451,1.178c.841.8,1.595,1.8,1.44,2.728-.33,1.977-4.925,5.432-7.247,5.6s-3.129-2.14-3.459.33,4.777,8.562,9.717,7.9,9.058-7.577,9.058-7.577-.659-1.136,2.652-4.61c2.174-2.273,5.285-3.277,7.668-4.209a43.819,43.819,0,0,0,6.558-2.515c5.861-2.872,12.823-.955,12.823-.955S34.367-1.723,21.544.213Z" transform="translate(0.186 0.166)" fill="#adc7f7"/>
        <path id="Path-36" data-name="Path" d="M21.544.213C8.721,2.126,4.69,5.187,5.97,9.4a6.512,6.512,0,0,0,1.269,2.273,1.033,1.033,0,0,0,.023.258s.227.136.568.379a10.869,10.869,0,0,0,1.451,1.178c.841.8,1.595,1.8,1.44,2.728-.33,1.977-4.925,5.432-7.247,5.6s-3.129-2.14-3.459.33,4.777,8.562,9.717,7.9,9.058-7.577,9.058-7.577-.659-1.136,2.652-4.61c2.174-2.273,5.285-3.277,7.668-4.209a43.819,43.819,0,0,0,6.558-2.515c5.861-2.872,12.823-.955,12.823-.955S34.367-1.723,21.544.213Z" transform="translate(0.186 0.166)" fill="#fff" opacity="0.5"/>
      </g>
      <path id="Path-37" data-name="Path" d="M50.986,44.838c-2.076-3.114-7.031-4.035-10.948-5.3s-6.224-3.788-5.186-10.024,6.44-16.365,6.338-18.21-18.669-1.727-20.4-1.136-2.072.458-3.686,2.534a28.727,28.727,0,0,0-2.421,3.55l2-4.205h.148a5.3,5.3,0,0,1,.913-1.515A11.649,11.649,0,0,0,20.566,3.2C20.642-.765,17.82-.383,17.286.837A59.777,59.777,0,0,1,12.709,7.4c-.917,1.144-2.822,4.273-2.822,4.273L7.769,19.013S7.307,21.2,4.655,29.5s-1.5,12.126-1.5,12.126-.693-.345-2.307,4.61S-.069,57.533,2.81,60.529,9.5,63.412,13.762,61.685a13.111,13.111,0,0,0,6.224-5.554,24.888,24.888,0,0,0,7.838-3.686c3.341-2.55,5.876-5.186,10.725-4.955s10.372,3,12.217,2.879S53.062,47.949,50.986,44.838Z" transform="translate(16.002 0.042)" fill="none" stroke="#263238" stroke-linecap="round" stroke-linejoin="round" stroke-miterlimit="10" stroke-width="0.5"/>
      <path id="Path-38" data-name="Path" d="M6.391,2.94S6.633,1.97,3.883.667,0,.261,0,.909,5.967,2.94,6.391,2.94Z" transform="translate(60.662 47.445)" fill="#fff" stroke="#263238" stroke-linecap="round" stroke-linejoin="round" stroke-miterlimit="10" stroke-width="0.5"/>
      <path id="Path-39" data-name="Path" d="M6.94.151,0,5.493H9.308S9.308-1.069,6.94.151Z" transform="translate(34.053 5.846)" fill="#fff" stroke="#263238" stroke-linecap="round" stroke-linejoin="round" stroke-miterlimit="10" stroke-width="0.5"/>
      <path id="Path-40" data-name="Path" d="M0,2.55A9.7,9.7,0,0,1,3.591,0" transform="translate(32.288 41.974)" fill="none" stroke="#263238" stroke-linecap="round" stroke-linejoin="round" stroke-miterlimit="10" stroke-width="0.5"/>
      <path id="Path-41" data-name="Path" d="M0,.883A4.652,4.652,0,0,1,.413,0" transform="translate(31.026 45.713)" fill="none" stroke="#263238" stroke-linecap="round" stroke-linejoin="round" stroke-miterlimit="10" stroke-width="0.5"/>
      <path id="Path-42" data-name="Path" d="M1.038,1.057A10.175,10.175,0,0,1,0,0" transform="translate(27.223 52.737)" fill="none" stroke="#263238" stroke-linecap="round" stroke-linejoin="round" stroke-miterlimit="10" stroke-width="0.5"/>
      <path id="Path-43" data-name="Path" d="M6.175,1.265A10.16,10.16,0,0,1,0,0" transform="translate(29.814 54.908)" fill="none" stroke="#263238" stroke-linecap="round" stroke-linejoin="round" stroke-miterlimit="10" stroke-width="0.5"/>
      <path id="Path-44" data-name="Path" d="M43.717,0H8.743A8.55,8.55,0,0,0,0,8.334V24.813a8.453,8.453,0,0,0,6.906,8.164L5.061,38.436,13.6,33.178H43.717a8.553,8.553,0,0,0,8.743-8.334V8.365A8.558,8.558,0,0,0,43.717,0Z" transform="translate(18.222 10.88)" fill="#adc7f7" stroke="#263238" stroke-miterlimit="10" stroke-width="0.758"/>
      <path id="Path-45" data-name="Path" d="M0,.189H39.315" transform="translate(23.916 21.787)" fill="none" stroke="#263238" stroke-linecap="round" stroke-miterlimit="10" stroke-width="0.782"/>
      <path id="Path-46" data-name="Path" d="M0,.189H39.315" transform="translate(23.916 25.836)" fill="none" stroke="#263238" stroke-linecap="round" stroke-miterlimit="10" stroke-width="0.782"/>
      <path id="Path-47" data-name="Path" d="M0,.189H39.315" transform="translate(23.916 29.882)" fill="none" stroke="#263238" stroke-linecap="round" stroke-miterlimit="10" stroke-width="0.782"/>
      <path id="Path-48" data-name="Path" d="M0,.189H39.315" transform="translate(23.916 33.928)" fill="none" stroke="#263238" stroke-linecap="round" stroke-miterlimit="10" stroke-width="0.782"/>
      <ellipse id="Oval-3" data-name="Oval" cx="4.876" cy="4.656" rx="4.876" ry="4.656" transform="translate(65.488 16.013)" fill="#263238"/>
      <path id="Path-49" data-name="Path" d="M1.962,6.542a2.012,2.012,0,0,1-.208-1.034V1.72L.9,2.2a.621.621,0,0,1-.3.083.564.564,0,0,1-.424-.186A.61.61,0,0,1,0,1.663a.523.523,0,0,1,.091-.307A1.284,1.284,0,0,1,.4,1.087L2.061.239A1.311,1.311,0,0,1,2.69,0c.564,0,.845.424.845,1.273V5.641c0,.83-.3,1.243-.89,1.243a.727.727,0,0,1-.682-.341Z" transform="translate(68.023 17.415)" fill="#fff"/>
      <path id="Path-50" data-name="Path" d="M.3,3.691a5.752,5.752,0,0,0,2.9,4.5c2.747,1.451,6.254,1.136,6.33-.686S7.474,3.767,6.027,1.324,1.371.259,0,1.937" transform="translate(51.354 4.749)" fill="#fff" stroke="#263238" stroke-linecap="round" stroke-linejoin="round" stroke-miterlimit="10" stroke-width="0.5"/>
      <path id="Path-51" data-name="Path" d="M.039,1.424A2.065,2.065,0,0,0,1.41,3.7a2.827,2.827,0,0,0,3.129-.913A4.817,4.817,0,0,0,3.4,0C2.448.121.217.47.039,1.424Z" transform="translate(56.35 9.456)" fill="#fff" stroke="#263238" stroke-linecap="round" stroke-linejoin="round" stroke-miterlimit="10" stroke-width="0.5"/>
      <path id="Path-52" data-name="Path" d="M.307,3.691a5.743,5.743,0,0,0,2.9,4.5c2.747,1.451,6.258,1.136,6.334-.686S7.478,3.767,6.027,1.324,1.375.259,0,1.937" transform="translate(45.63 4.749)" fill="#fff" stroke="#263238" stroke-linecap="round" stroke-linejoin="round" stroke-miterlimit="10" stroke-width="0.5"/>
      <path id="Path-53" data-name="Path" d="M.039,1.424A2.065,2.065,0,0,0,1.41,3.7a2.827,2.827,0,0,0,3.129-.913A4.869,4.869,0,0,0,3.4,0C2.448.121.217.47.039,1.424Z" transform="translate(50.63 9.456)" fill="#fff" stroke="#263238" stroke-linecap="round" stroke-linejoin="round" stroke-miterlimit="10" stroke-width="0.5"/>
      <path id="Path-54" data-name="Path" d="M.307,3.691a5.743,5.743,0,0,0,2.9,4.5c2.747,1.451,6.254,1.136,6.33-.686S7.478,3.767,6.027,1.324,1.371.259,0,1.937" transform="translate(40.308 4.749)" fill="#fff" stroke="#263238" stroke-linecap="round" stroke-linejoin="round" stroke-miterlimit="10" stroke-width="0.5"/>
      <path id="Path-55" data-name="Path" d="M.038,1.424A2.067,2.067,0,0,0,1.413,3.7a2.818,2.818,0,0,0,3.125-.913A4.817,4.817,0,0,0,3.4,0C2.447.121.216.47.038,1.424Z" transform="translate(45.304 9.456)" fill="#fff" stroke="#263238" stroke-linecap="round" stroke-linejoin="round" stroke-miterlimit="10" stroke-width="0.5"/>
      <path id="Path-56" data-name="Path" d="M0,0S.212,4.69,2.8,7.846" transform="translate(19.161 41.671)" fill="none" stroke="#263238" stroke-linecap="round" stroke-linejoin="round" stroke-miterlimit="10" stroke-width="0.5"/>
      <path id="Path-57" data-name="Path" d="M2.841,1.727A1.6,1.6,0,0,1,1.421,3.455,1.587,1.587,0,0,1,0,1.727,1.587,1.587,0,0,1,1.421,0,1.6,1.6,0,0,1,2.841,1.727Z" transform="translate(8.789 59.518)" fill="#fff"/>
      <path id="Path-58" data-name="Path" d="M2.841,1.731A1.6,1.6,0,0,1,1.421,3.459,1.587,1.587,0,0,1,0,1.731,1.591,1.591,0,0,1,1.421,0,1.6,1.6,0,0,1,2.841,1.731Z" transform="translate(5.254 61.666)" fill="none" stroke="#263238" stroke-linecap="round" stroke-linejoin="round" stroke-miterlimit="10" stroke-width="0.5"/>
    </g>
  </g>
</svg>
