<svg xmlns="http://www.w3.org/2000/svg" width="152.055" height="136.437" viewBox="0 0 152.055 136.437">
  <g id="Influencer-bro" transform="translate(-0.247 0.499)">
    <g id="freepik--background-simple--inject-165" transform="translate(0 5.379)">
      <path id="Path" d="M146.529,89.821S160,59.855,144.881,31.276,96.778-4.729,78.637,2.689s-31.061,30.784-48.653,38.5-40.128,31.591-25.01,59.625,32.982,25.84,60.743,18.69S136.633,114.286,146.529,89.821Z" transform="translate(0.247 0.3)" fill="#f9fbff"/>
    </g>
    <g id="freepik--video-app--inject-165" transform="translate(19.209 81.062)">
      <path id="Path-2" data-name="Path" d="M121.4,28.163V26.107l-3.1-2.474L85.854.621A3.038,3.038,0,0,0,83.145.1L2.083,16.656H.039L0,18.347a2.32,2.32,0,0,0,.273,1.237L28.146,51.471a3.1,3.1,0,0,0,2.77.515l89.349-22.667C121.122,29.131,121.563,28.628,121.4,28.163Z" transform="translate(0.153 2.491)" fill="#fff" stroke="#263238" stroke-linecap="round" stroke-linejoin="round" stroke-miterlimit="10" stroke-width="0.5"/>
      <path id="Path-3" data-name="Path" d="M120.178,29.321,30.829,51.988a3.064,3.064,0,0,1-2.77-.519L.187,19.582c-.48-.546,0-1.195,1.041-1.452L83.059.1a3.026,3.026,0,0,1,2.708.519l35.395,27.261C121.638,28.422,121.2,29.068,120.178,29.321Z" transform="translate(0.24 0.164)" fill="#fff" stroke="#263238" stroke-linecap="round" stroke-linejoin="round" stroke-miterlimit="10" stroke-width="0.5"/>
      <path id="Path-4" data-name="Path" d="M89.347,3.221,86.232,1.028c-.768-.891-2.789-1.275-4.48-.861L42.627,8.757,1.969,17.716C-.336,18.193-.4,19.03.659,20L11.282,32.154,23.1,45.673l91.435-23.051Z" transform="translate(0.336 0.382)" fill="#263238" stroke="#263238" stroke-linecap="round" stroke-linejoin="round" stroke-miterlimit="10" stroke-width="0.5"/>
      <path id="Shape" d="M1.437,11.722C-2.182,7.607,1.272,2.7,9.121.78,16.947-1.145,26.209.615,29.809,4.706s.215,8.987-7.626,10.934a27.981,27.981,0,0,1-6.7.8C9.631,16.435,4.053,14.7,1.437,11.722Z" transform="translate(41.852 13.657)" fill="#adc7f7"/>
      <path id="Path-5" data-name="Path" d="M86.229,2.075,2.532,23.266a1.954,1.954,0,0,1-1.713-.323l-.7-.8c-.3-.338,0-.745.638-.907L84.466.062a1.917,1.917,0,0,1,1.679.319l.7.791C87.136,1.506,86.863,1.906,86.229,2.075Z" transform="translate(29.517 25.586)" fill="#adc7f7" stroke="#263238" stroke-linecap="round" stroke-linejoin="round" stroke-miterlimit="10" stroke-width="0.5"/>
      <path id="Path-6" data-name="Path" d="M4.971.783A3.844,3.844,0,0,0,1.513.134C.2.46-.362,1.286.241,1.966A3.856,3.856,0,0,0,3.7,2.616C5.009,2.289,5.57,1.467,4.971.783Z" transform="translate(31.622 45.626)" fill="#263238" stroke="#263238" stroke-linecap="round" stroke-linejoin="round" stroke-miterlimit="10" stroke-width="0.5"/>
    </g>
    <g id="freepik--Icons--inject-165" transform="translate(13.831 2.689)">
      <path id="Path-7" data-name="Path" d="M8,6.188a1.806,1.806,0,0,1,.246,0,.949.949,0,0,0,0-1.9h-3.6s.223-1.3.223-1.744A2.585,2.585,0,0,0,4.487.583C3.88-.27,2.52.065,2.52.065l.211,1.76a1.406,1.406,0,0,1-.154.807L.964,5.662l-.741.63L0,10.038a3.144,3.144,0,0,0,2,1.518H6.846a.98.98,0,0,0,1.007-.949.941.941,0,0,0-.457-.8,1.018,1.018,0,0,0,1.191-.934.934.934,0,0,0-.446-.768.968.968,0,0,0,.838-.937A.984.984,0,0,0,8,6.188Z" transform="translate(15.052 50.905)" fill="#fff"/>
      <path id="Shape-2" data-name="Shape" d="M6.995,11.846H2.109A3.162,3.162,0,0,1,0,10.237a.2.2,0,0,1,0-.066L.226,6.429A.161.161,0,0,1,.28,6.322L1,5.711,2.6,2.7a1.181,1.181,0,0,0,.134-.715L2.527.225A.15.15,0,0,1,2.639.063c.061,0,1.479-.346,2.12.581a2.372,2.372,0,0,1,.415,1.775v.273a14.64,14.64,0,0,1-.2,1.595h3.47a1.128,1.128,0,0,1,1.114,1.1,1.109,1.109,0,0,1-.73,1.022,1.076,1.076,0,0,1,.48.887,1.1,1.1,0,0,1-.676,1,1.053,1.053,0,0,1,.288.723A1.117,1.117,0,0,1,7.967,10.1a1.061,1.061,0,0,1,.22.645,1.129,1.129,0,0,1-1.128,1.1Z" transform="translate(14.903 50.749)" fill="#263238"/>
      <rect id="Rectangle" width="3.919" height="7.23" rx="0.822" transform="translate(11.794 55.806)" fill="#263238"/>
      <path id="Path-8" data-name="Path" d="M6.392,5.705c-.027,0,.081.031.165.073a.684.684,0,1,0,.611-1.222h0L4.863,3.4A12.555,12.555,0,0,0,5.57,2.355,1.921,1.921,0,0,0,5.954.968C5.847.231,4.855,0,4.855,0L4.421,1.187a.96.96,0,0,1-.357.469L2.047,3.085l-.68.169L0,5.59A2.281,2.281,0,0,0,.8,7.215L3.876,8.752l.058.031A.7.7,0,0,0,4.886,8.5a.676.676,0,0,0-.038-.661l.115.073a.711.711,0,0,0,.957-.288.665.665,0,0,0-.035-.649.7.7,0,0,0,.841-.334.707.707,0,0,0-.334-.934Z" transform="translate(94.505 3.154)" fill="#fff"/>
      <path id="Shape-3" data-name="Shape" d="M4,8.989l-.061-.035L.86,7.418a.037.037,0,0,1-.02,0A2.335,2.335,0,0,1,0,5.7a.1.1,0,0,1,0-.046L1.355,3.322a.1.1,0,0,1,.066-.049l.661-.166,2-1.418A.862.862,0,0,0,4.4,1.271l.434-1.2A.108.108,0,0,1,4.964,0c.042,0,1.06.254,1.175,1.057A1.745,1.745,0,0,1,5.87,2.331c-.039.061-.073.119-.1.169a10.6,10.6,0,0,1-.642.964l2.2,1.1.031.023a.807.807,0,0,1,.362,1.065.792.792,0,0,1-.8.422.769.769,0,0,1,.023.73.787.787,0,0,1-.768.423.786.786,0,0,1-.05.561.815.815,0,0,1-.968.384.728.728,0,0,1-.065.484.812.812,0,0,1-1.1.33Z" transform="translate(94.401 3.047)" fill="#263238"/>
      <rect id="Rectangle-2" data-name="Rectangle" width="2.82" height="5.206" rx="0.822" transform="matrix(0.894, 0.448, -0.448, 0.894, 94.075, 4.407)" fill="#263238"/>
      <path id="Path-9" data-name="Path" d="M7.626,5.338a1.158,1.158,0,0,1,.246-.054.949.949,0,1,0-.315-1.871h0l-3.55.6a17.53,17.53,0,0,0-.065-1.756A2.62,2.62,0,0,0,3.25.378C2.524-.344,1.226.19,1.226.19l.5,1.7a1.383,1.383,0,0,1,0,.818L.626,5.96,0,6.706l.384,3.73a3.127,3.127,0,0,0,2.224,1.153L7.315,10.8h.092a.98.98,0,0,0,.834-1.106.937.937,0,0,0-.584-.707,1.01,1.01,0,0,0,.188,0,.976.976,0,0,0,.838-1.1.934.934,0,0,0-.572-.7.968.968,0,0,0,.672-1.06.984.984,0,0,0-1.156-.78Z" transform="translate(96.187 48.005)" fill="#fff"/>
      <path id="Shape-4" data-name="Shape" d="M2.73,11.917A3.258,3.258,0,0,1,.386,10.68a.1.1,0,0,1,0-.062L0,6.889a.141.141,0,0,1,.031-.112l.611-.723L1.726,2.823a1.2,1.2,0,0,0,0-.73l-.5-1.7a.152.152,0,0,1,.085-.18C1.373.188,2.714-.373,3.5.434a2.4,2.4,0,0,1,.7,1.683,2.527,2.527,0,0,0,.031.273,14.646,14.646,0,0,1,.069,1.6l3.373-.564h.049a1.125,1.125,0,0,1,1.28.9,1.1,1.1,0,0,1-.55,1.126,1.072,1.072,0,0,1,.119,1.9,1.057,1.057,0,0,1,.384.669,1.121,1.121,0,0,1-.768,1.225,1.051,1.051,0,0,1,.322.6,1.13,1.13,0,0,1-.957,1.307h-.1l-4.7.768Z" transform="translate(96.055 47.808)" fill="#263238"/>
      <rect id="Rectangle-3" data-name="Rectangle" width="3.919" height="7.23" rx="0.822" transform="translate(92.511 53.941) rotate(-9.51)" fill="#263238"/>
      <path id="Path-10" data-name="Path" d="M6.153.418A2.981,2.981,0,0,0,4.7,3.307,2.993,2.993,0,0,0,.413,7.28C1.4,8.958,3.41,9.485,5.2,9.734c.8.111,1.591.192,2.39.257l1.1.1.476-1.033c.327-.734.642-1.471.926-2.217.645-1.687,1.153-3.7.161-5.379A2.993,2.993,0,0,0,6.153.418Z" transform="translate(47.087 0.124)" fill="#263238"/>
      <path id="Path-11" data-name="Path" d="M9.168,1.988a2.989,2.989,0,0,0-3.146.749,2.989,2.989,0,0,0-5.8-.73c-.645,1.836.238,3.711,1.195,5.24.426.68.876,1.341,1.337,2,.061.085.63.911.63.911s1-.273,1.1-.3c.768-.219,1.537-.453,2.305-.715,1.706-.592,3.573-1.494,4.226-3.331A2.993,2.993,0,0,0,9.168,1.988Z" transform="translate(102.675 37.149)" fill="#263238"/>
      <path id="Path-12" data-name="Path" d="M7.489.1A2.989,2.989,0,0,0,5.307,2.487,2.989,2.989,0,0,0,.1,5.145C.6,7.028,2.407,8.08,4.04,8.806c.734.323,1.479.619,2.228.9L7.3,10.09s.672-.788.738-.868c.515-.615,1.018-1.241,1.494-1.882,1.076-1.448,2.113-3.242,1.614-5.125A2.993,2.993,0,0,0,7.489.1Z" transform="translate(0.379 67.73)" fill="#263238"/>
      <path id="Path-13" data-name="Path" d="M5.788,1.255A1.879,1.879,0,0,0,3.8,1.728,1.886,1.886,0,0,0,.141,1.267,3.875,3.875,0,0,0,.909,4.574c.269.426.553.845.845,1.26l.384.572.7-.188c.484-.138.968-.288,1.448-.453a3.947,3.947,0,0,0,2.662-2.1A1.89,1.89,0,0,0,5.788,1.255Z" transform="translate(12.557 30.463)" fill="#263238"/>
      <path id="Path-14" data-name="Path" d="M5.79,1.255a1.886,1.886,0,0,0-1.99.473A1.886,1.886,0,0,0,.139,1.267,3.888,3.888,0,0,0,.907,4.574c.265.426.553.845.845,1.26l.384.572.692-.188c.488-.138.972-.284,1.448-.453a3.954,3.954,0,0,0,2.666-2.1A1.89,1.89,0,0,0,5.79,1.255Z" transform="translate(28.947 78.101)" fill="#263238"/>
    </g>
    <g id="freepik--Character--inject-165" transform="translate(14.599)">
      <path id="Path-15" data-name="Path" d="M4.891.072S.542,4.6.1,6.818s.619,4.172,2.4,3.638S5.871,4.421,6.312,3.445,7.288,1.4,7.288,1.4,5.963-.374,4.891.072Z" transform="translate(32.455 104.744)" fill="#adc7f7" stroke="#263238" stroke-linecap="round" stroke-linejoin="round" stroke-miterlimit="10" stroke-width="0.5"/>
      <path id="Path-16" data-name="Path" d="M.059.181C-.267,2.3.782,4.1,2.5,3.581A3.856,3.856,0,0,0,4.235,1.63,3.493,3.493,0,0,0,.059.181Z" transform="translate(32.458 111.615)" fill="#fff" stroke="#263238" stroke-linecap="round" stroke-linejoin="round" stroke-miterlimit="10" stroke-width="0.5"/>
      <path id="Path-17" data-name="Path" d="M4.855.407C3.886,1.736,2.638,3.166,1.7,2.916S.267.907.1,0C-.34,2.213.725,4.157,2.5,3.627,3.364,3.369,4.186,1.929,4.855.407Z" transform="translate(32.453 111.574)" fill="#fff" stroke="#263238" stroke-linecap="round" stroke-linejoin="round" stroke-miterlimit="10" stroke-width="0.5"/>
      <path id="Path-18" data-name="Path" d="M2.043.784S.091-.284,0,.073,1.866,1.4,2.135,1.4,2.577,1.314,2.043.784Z" transform="translate(36.191 106.518)" fill="#fff" stroke="#263238" stroke-linecap="round" stroke-linejoin="round" stroke-miterlimit="10" stroke-width="0.5"/>
      <path id="Path-19" data-name="Path" d="M2.043.78S.091-.284,0,.073,1.866,1.4,2.131,1.4,2.577,1.314,2.043.78Z" transform="translate(35.749 107.14)" fill="#fff" stroke="#263238" stroke-linecap="round" stroke-linejoin="round" stroke-miterlimit="10" stroke-width="0.5"/>
      <path id="Path-20" data-name="Path" d="M2.043.783S.091-.282,0,.072,1.866,1.405,2.135,1.405,2.577,1.317,2.043.783Z" transform="translate(35.303 107.76)" fill="#fff" stroke="#263238" stroke-linecap="round" stroke-linejoin="round" stroke-miterlimit="10" stroke-width="0.5"/>
      <path id="Path-21" data-name="Path" d="M2.047.783S.1-.282,0,.072,1.87,1.405,2.135,1.405,2.581,1.317,2.047.783Z" transform="translate(34.857 108.382)" fill="#fff" stroke="#263238" stroke-linecap="round" stroke-linejoin="round" stroke-miterlimit="10" stroke-width="0.5"/>
      <path id="Path-22" data-name="Path" d="M2.979,0S.674,1.775.14,3.02s.53,1.6,1.952,1.863,2.751,1.775,4.7,2.305,4.441.353,3.642-.887S7.063,3.458,6.618,2.747A11.164,11.164,0,0,1,5.9,1.421Z" transform="translate(67.479 101.885)" fill="#adc7f7" stroke="#263238" stroke-linecap="round" stroke-linejoin="round" stroke-miterlimit="10" stroke-width="0.5"/>
      <path id="Path-23" data-name="Path" d="M3.8,1.1A6.028,6.028,0,0,0,2.793,0,4.28,4.28,0,0,0,0,1.94l.161.05C2.117,2.52,4.6,2.344,3.8,1.1Z" transform="translate(74.112 107.087)" fill="#fff" stroke="#263238" stroke-linecap="round" stroke-linejoin="round" stroke-miterlimit="10" stroke-width="0.5"/>
      <path id="Path-24" data-name="Path" d="M1.92,0S-.386.446.056.8,2.365.446,1.92,0Z" transform="translate(72.089 104.282)" fill="#fff" stroke="#263238" stroke-linecap="round" stroke-linejoin="round" stroke-miterlimit="10" stroke-width="0.5"/>
      <path id="Path-25" data-name="Path" d="M1.92,0S-.386.442.056.8,2.365.442,1.92,0Z" transform="translate(72.8 104.728)" fill="#fff" stroke="#263238" stroke-linecap="round" stroke-linejoin="round" stroke-miterlimit="10" stroke-width="0.5"/>
      <path id="Path-26" data-name="Path" d="M1.92,0S-.386.446.056.8,2.365.446,1.92,0Z" transform="translate(73.153 105.169)" fill="#fff" stroke="#263238" stroke-linecap="round" stroke-linejoin="round" stroke-miterlimit="10" stroke-width="0.5"/>
      <path id="Path-27" data-name="Path" d="M1.92,0S-.386.442.056.8,2.365.442,1.92,0Z" transform="translate(73.864 105.792)" fill="#fff" stroke="#263238" stroke-linecap="round" stroke-linejoin="round" stroke-miterlimit="10" stroke-width="0.5"/>
      <path id="Path-28" data-name="Path" d="M10.573,3.365a6.5,6.5,0,0,1-4.845-.711A30.412,30.412,0,0,0,1.468.7,6.089,6.089,0,0,1,.043,0C-.222,1.022.78,1.345,2.09,1.591c1.421.265,2.751,1.775,4.7,2.305C8.545,4.376,10.711,4.28,10.573,3.365Z" transform="translate(67.481 105.177)" fill="#fff" stroke="#263238" stroke-linecap="round" stroke-linejoin="round" stroke-miterlimit="10" stroke-width="0.5"/>
      <path id="Path-29" data-name="Path" d="M16.687.784s-3.193,14.407-3.815,17.868-.887,5.594-.887,5.594a20.35,20.35,0,0,0-4.61,5.413C5.069,33.386.006,40.846.006,40.846a1.687,1.687,0,0,0,1.421,1.775s.8.353,1.245,0,15.621-14.38,17.4-17.311,5.417-13.139,5.417-13.139l2.305-.442L42.523,25.4,32.58,38.076s-.353.711.622,1.333a3.863,3.863,0,0,0,3.285,0c.8-.353,14.826-14.115,14.914-15.091a5.107,5.107,0,0,0-.8-2.486C50.426,21.48,36.311,2.624,36.311,2.624l-.8-2.04s-9.32,1.064-13.492.265S17.044-.545,16.687.784Z" transform="translate(37.348 63.97)" fill="#fff" stroke="#263238" stroke-linecap="round" stroke-linejoin="round" stroke-miterlimit="10" stroke-width="0.5"/>
      <path id="Path-30" data-name="Path" d="M0,1.51,5.06,0" transform="translate(65.134 74.189)" fill="none" stroke="#263238" stroke-linecap="round" stroke-linejoin="round" stroke-miterlimit="10" stroke-width="0.5"/>
      <path id="Path-31" data-name="Path" d="M0,.8,6.923,0" transform="translate(65.664 75.165)" fill="none" stroke="#263238" stroke-linecap="round" stroke-linejoin="round" stroke-miterlimit="10" stroke-width="0.5"/>
      <path id="Path-32" data-name="Path" d="M0,0,3.02,2.486" transform="translate(79.867 89.368)" fill="none" stroke="#263238" stroke-linecap="round" stroke-linejoin="round" stroke-miterlimit="10" stroke-width="0.5"/>
      <path id="Path-33" data-name="Path" d="M3.043,0,0,1.014s4.783-.146,4.929.434-2.9,2.9-2.9,2.9" transform="translate(63.459 69.418)" fill="none" stroke="#263238" stroke-linecap="round" stroke-linejoin="round" stroke-miterlimit="10" stroke-width="0.5"/>
      <path id="Path-34" data-name="Path" d="M2.174,0S3.788,2.774,0,4.349" transform="translate(53.455 67.531)" fill="none" stroke="#263238" stroke-linecap="round" stroke-linejoin="round" stroke-miterlimit="10" stroke-width="0.5"/>
      <path id="Path-35" data-name="Path" d="M25.089.169S12.253-.119,11.643.057,3.921,9.112,3.121,9.912.19,12.217.013,13.369s1.421,4.971,3.2,4.971,4.971-3.55,4.971-3.55S3.921,29.524,4.1,30.158,7.294,32.2,14.04,33s9.6-2.04,9.766-2.927a7.888,7.888,0,0,0-.181-2.4l2.305-4.084s4.084,3.047,5.947,1.713,1.863-5.417,2.751-6.658,3.02-7.9,2.305-8.786S25.089.169,25.089.169Z" transform="translate(49.684 35.314)" fill="#adc7f7" stroke="#263238" stroke-linecap="round" stroke-linejoin="round" stroke-miterlimit="10" stroke-width="0.5"/>
      <path id="Path-36" data-name="Path" d="M9.173,1.207S6.688-.595,6.334.2a38.592,38.592,0,0,1-4.36,7.1C.276,9.171-.6,10.946.464,12.368A17.949,17.949,0,0,0,3.038,15.03" transform="translate(72.557 43.865)" fill="none" stroke="#263238" stroke-linecap="round" stroke-linejoin="round" stroke-miterlimit="10" stroke-width="0.5"/>
      <path id="Path-37" data-name="Path" d="M0,10.653,3.2,0" transform="translate(57.854 39.455)" fill="none" stroke="#263238" stroke-linecap="round" stroke-linejoin="round" stroke-miterlimit="10" stroke-width="0.5"/>
      <path id="Path-38" data-name="Path" d="M19.8,7.424S15.091,6.89,13.051,4.85,9.943.767,6.393.24A21.38,21.38,0,0,0,0,.24L.887,4.85s4.264-1.6,6.393-.357,3.2,4.349,6.124,5.148a25.411,25.411,0,0,0,6.658.622Z" transform="translate(52.429 28.569)" fill="#263238" stroke="#263238" stroke-linecap="round" stroke-linejoin="round" stroke-miterlimit="10" stroke-width="0.5"/>
      <path id="Path-39" data-name="Path" d="M21.13.345A5.3,5.3,0,0,1,22.816,3.1c.353,1.687-1.245,3.727-2.486,4.883s-2.486,1.687-5.682,2.128S8.613,7.268,6.481,6.915,0,8.955,0,8.955L.891,5.136A10.2,10.2,0,0,1,7.28,3.807c3.73.442,6.216,3.108,7.634,3.458s4-.446,4.529-2.486S19.263.871,20.154.253,21.13.345,21.13.345Z" transform="translate(55.011 36.448)" fill="#263238" stroke="#263238" stroke-linecap="round" stroke-linejoin="round" stroke-miterlimit="10" stroke-width="0.5"/>
      <path id="Path-40" data-name="Path" d="M7.724.114A7.39,7.39,0,0,0,4.086,2.419C3.022,4.014-.087,13.338,0,14.137s4.084,0,4.084,0S1.335,19.9,1.335,20.883s1.241,1.51,2.839,1.153,7.042-9.727,7.042-9.727,1.614,1.875,2.632,1.233c1.153-.738.8-2.221-.088-2.221s2.486-3.638,1.333-6.035S8.8-.685,7.724.114Z" transform="translate(67.96 20.167)" fill="#fff" stroke="#263238" stroke-linecap="round" stroke-linejoin="round" stroke-miterlimit="10" stroke-width="0.5"/>
      <path id="Path-41" data-name="Path" d="M5.255,2.642s-4.971,0-5.236,2.4S2.324,8.5,5.167,8.055s5.413-.265,5.763.177S7.472,9.564,8.356,10.187a2.881,2.881,0,0,0,1.775.53s-1.245.357-1.153,1.245.864,4.81,1.483,4.81,1.8-.081,1.8-.081a11.368,11.368,0,0,0,3.02-2.217,4.826,4.826,0,0,0,0-6.216C13.6,6.483,12.263,4.77,10.933,3.352S8.359.421,5.7.068,1.609.774,5.255,2.642Z" transform="translate(69.464 14.8)" fill="#263238" stroke="#263238" stroke-linecap="round" stroke-linejoin="round" stroke-miterlimit="10" stroke-width="0.5"/>
      <path id="Path-42" data-name="Path" d="M.15,0A5.69,5.69,0,0,1,.2,1.575" transform="translate(84.935 26.605)" fill="none" stroke="#fff" stroke-linecap="round" stroke-linejoin="round" stroke-miterlimit="10" stroke-width="0.5"/>
      <path id="Path-43" data-name="Path" d="M3.853,0S-1.594.53.465,1.571s5.209-.907,9.178.661A5.113,5.113,0,0,1,12.624,5.09" transform="translate(72.107 20.242)" fill="none" stroke="#fff" stroke-linecap="round" stroke-linejoin="round" stroke-miterlimit="10" stroke-width="0.5"/>
      <path id="Path-44" data-name="Path" d="M0,0S3.723,1.821,4.226,4.464" transform="translate(79.268 24.376)" fill="none" stroke="#fff" stroke-linecap="round" stroke-linejoin="round" stroke-miterlimit="10" stroke-width="0.5"/>
      <path id="Path-45" data-name="Path" d="M0,1.245S4.261.976,5.413,0" transform="translate(72.057 33.063)" fill="none" stroke="#263238" stroke-linecap="round" stroke-linejoin="round" stroke-miterlimit="10" stroke-width="0.5"/>
      <path id="Path-46" data-name="Path" d="M0,0A58.683,58.683,0,0,1,10.119.714a6.292,6.292,0,0,1-1.7,2.812,3.6,3.6,0,0,1-3.358-.15c-.446-.357-.8-2.486-.8-2.486H3.55L3.2,1.958S2.927,3.376,1.952,3.376,0,3.2,0,0Z" transform="translate(67.973 24.715)" fill="#adc7f7" stroke="#263238" stroke-linecap="round" stroke-linejoin="round" stroke-miterlimit="10" stroke-width="0.5"/>
      <path id="Path-47" data-name="Path" d="M3.3.252A5.79,5.79,0,0,0,0,.229C.254,2.1,1.06,2.223,1.871,2.223c.976,0,1.245-1.418,1.245-1.418Z" transform="translate(68.054 25.873)" fill="#263238" stroke="#263238" stroke-linecap="round" stroke-linejoin="round" stroke-miterlimit="10" stroke-width="0.5"/>
      <path id="Path-48" data-name="Path" d="M5.029.683C3.427-.8,1.817.649,0,.249A3.738,3.738,0,0,0,.615,1.828a3.6,3.6,0,0,0,3.358.15A3.742,3.742,0,0,0,5.029.683Z" transform="translate(72.418 26.263)" fill="#263238" stroke="#263238" stroke-linecap="round" stroke-linejoin="round" stroke-miterlimit="10" stroke-width="0.5"/>
      <path id="Path-49" data-name="Path" d="M.373,0,4.4,6.216l-.392-.154L0,1.072.373,0Z" transform="translate(77.72 25.429)" fill="#adc7f7" stroke="#263238" stroke-linecap="round" stroke-linejoin="round" stroke-miterlimit="10" stroke-width="0.5"/>
      <path id="Path-50" data-name="Path" d="M0,.98S3.108,1.867,4,0" transform="translate(70.724 29.778)" fill="none" stroke="#263238" stroke-linecap="round" stroke-linejoin="round" stroke-miterlimit="10" stroke-width="0.5"/>
      <path id="Path-51" data-name="Path" d="M0,0,1.333.534" transform="translate(74.185 29.424)" fill="none" stroke="#263238" stroke-linecap="round" stroke-linejoin="round" stroke-miterlimit="10" stroke-width="0.5"/>
      <path id="Path-52" data-name="Path" d="M2.751,0S0,.353,0,.8,1.775,2.486,1.775,2.486" transform="translate(68.949 26.674)" fill="#fff" stroke="#263238" stroke-linecap="round" stroke-linejoin="round" stroke-miterlimit="10" stroke-width="0.5"/>
      <path id="Path-53" data-name="Path" d="M3.145,0a1.153,1.153,0,0,0-.976.442A16.171,16.171,0,0,0,.1,3.9C-.47,5.411,1.527,8.127,3.587,7.178,4.608,6.717,4.862,7.121,6.018,5.7A5.217,5.217,0,0,0,7.405,2.741c0-.442.8-.446-.887.353S1.458,2.576,3.145,0Z" transform="translate(68.201 35.815)" fill="#263238" stroke="#263238" stroke-linecap="round" stroke-linejoin="round" stroke-miterlimit="10" stroke-width="0.5"/>
      <path id="Path-54" data-name="Path" d="M6.848.231A2.993,2.993,0,0,0,5.019,2.921,2.989,2.989,0,0,0,.236,6.278C1,8.072,2.926,8.868,4.643,9.352c.768.215,1.537.384,2.332.58.1,0,1.08.25,1.08.25s.553-.872.611-.96c.423-.68.834-1.372,1.218-2.075.864-1.583,1.637-3.508.884-5.3A3,3,0,0,0,6.848.231Z" transform="translate(8.519 5.893)" fill="#263238"/>
      <path id="Path-55" data-name="Path" d="M9.184,2.061a2.989,2.989,0,0,0-3.158.7A2.989,2.989,0,0,0,.24,1.958C-.432,3.782.425,5.669,1.362,7.213c.415.684.857,1.352,1.31,2.013l.619.922,1.1-.288c.768-.211,1.537-.434,2.305-.684C8.412,8.608,10.29,7.728,10.963,5.9A2.989,2.989,0,0,0,9.184,2.061Z" transform="translate(23.291 11.385)" fill="#263238"/>
      <path id="Path-56" data-name="Path" d="M8.006,6.2a1.36,1.36,0,0,1,.246,0,.949.949,0,1,0,0-1.9h-3.6s.223-1.3.223-1.744A2.585,2.585,0,0,0,4.495.6C3.888-.256,2.52.055,2.52.055l.211,1.76a1.4,1.4,0,0,1-.154.807L.964,5.653l-.741.63L0,10.029a3.2,3.2,0,0,0,2,1.537H6.854a.984.984,0,0,0,1.007-.953.945.945,0,0,0-.457-.8.968.968,0,0,0,.184,0,.98.98,0,0,0,1.007-.949.941.941,0,0,0-.446-.791.964.964,0,0,0,.838-.934.98.98,0,0,0-.98-.941Z" transform="translate(22.728 5.707)" fill="#fff"/>
      <path id="Shape-5" data-name="Shape" d="M6.995,11.85H2.108A3.161,3.161,0,0,1,0,10.244a.2.2,0,0,1,0-.065L.225,6.433a.156.156,0,0,1,.054-.1L1,5.714l1.6-3a1.2,1.2,0,0,0,.135-.718L2.516.225A.15.15,0,0,1,2.626.063c.062,0,1.48-.346,2.121.581a2.372,2.372,0,0,1,.415,1.775v.273a14.4,14.4,0,0,1-.2,1.595H8.385a.1.1,0,0,1,.05,0A1.125,1.125,0,0,1,9.549,5.38,1.1,1.1,0,0,1,8.819,6.4a1.074,1.074,0,0,1,.481.891,1.094,1.094,0,0,1-.676,1,1.057,1.057,0,0,1,.288.726A1.115,1.115,0,0,1,7.955,10.1a1.054,1.054,0,0,1,.219.645,1.13,1.13,0,0,1-1.129,1.108Z" transform="translate(22.587 5.538)" fill="#263238"/>
      <rect id="Rectangle-4" data-name="Rectangle" width="3.919" height="7.23" rx="0.822" transform="translate(19.478 10.6)" fill="#263238"/>
      <path id="Shape-6" data-name="Shape" d="M33.665,22.854H33.28a34.015,34.015,0,0,1-3.968-.518h-.054l-.13-.023-.135-.031h-.065a25.1,25.1,0,0,1-3.35-.93c-.369-.131-.734-.273-1.1-.415l-.1-.039-.076-.031-.127-.054-.069-.027c-1.26-.5-2.47-1.041-3.654-1.6l-.092-.041-.081-.039q-1.156-.541-2.332-1.114T15.67,16.9l-.288-.135a32.981,32.981,0,0,0-4.118-1.651l-.277-.081A13.362,13.362,0,0,0,9.55,14.7l-1.66-.146-.4-.034a36.477,36.477,0,0,0-3.841.127l-.738.061-.914.069H1.816c-.311.023-.576.023-.8.023H.7a.972.972,0,0,1-.581-.2A.39.39,0,0,1,0,14.39a.463.463,0,0,1,0-.1.543.543,0,0,1,0-.076,1.36,1.36,0,0,1,.154-.342A13.8,13.8,0,0,1,2.416,11.3l.112-.1.046-.046.127-.119a33.093,33.093,0,0,1,3.073-2.52l.165-.12.154-.112a31.458,31.458,0,0,1,3.677-2.27l.119-.062.066-.034.069-.034.1-.05A21.209,21.209,0,0,1,13.9,4.333l.3-.081h.046l.142-.039h.053l.131-.034a24.469,24.469,0,0,1,4.422-.684h.384a32.611,32.611,0,0,1,4.088.069h.383c1.1.088,2.164.215,3.193.349l.365.042.423.054c1,.127,1.99.254,2.923.338l.292.026c.353.031.707.074,1.045.074a10.472,10.472,0,0,0,3.181-.419l.235-.065a24.7,24.7,0,0,0,4.51-1.875l.185-.1.169-.093A33.233,33.233,0,0,0,43.438.033a.193.193,0,0,1,.19-.015.2.2,0,0,1,.113.154l1.552,14.982a.2.2,0,0,1,.1.384.045.045,0,0,1-.031,0h-.031l.3,2.9a.048.048,0,0,1,0,.023l.2,1.921a.181.181,0,0,1-.049.061,6.682,6.682,0,0,1-2.931,1.587l-.1.031-.089.027h-.049l-.134.039a23.378,23.378,0,0,1-5.16.768h-.193c-.427.031-.86.031-1.3.031C35.113,22.923,34.391,22.9,33.665,22.854Z" transform="translate(0.055 1.173)" fill="#adc7f7"/>
      <path id="Path-57" data-name="Path" d="M0,0,4.4,39.236" transform="translate(43.259 0.138)" fill="none" stroke="#263238" stroke-linecap="round" stroke-linejoin="round" stroke-miterlimit="10" stroke-width="1.153"/>
      <path id="Path-58" data-name="Path" d="M0,.252S2.305-.37,2.574.341a7.983,7.983,0,0,1,0,2.931c-.088.269-1.153.622-1.153.088a6.573,6.573,0,0,0-.6-1.775Z" transform="translate(48.357 32.722)" fill="none" stroke="#263238" stroke-linecap="round" stroke-linejoin="round" stroke-miterlimit="10" stroke-width="0.5"/>
      <path id="Path-59" data-name="Path" d="M8.813,22.477a4.168,4.168,0,0,0,.442-3.819c-.8-2.217-4.172-6.035-5.413-8.256S3.4,8.362,3.4,8.362,4.548,7.828,4.64,7.209s.442-4.529.442-5.152S2.066.194.822.018.023.993.38,3.656s.887,10.119,1.329,12.7,1.068,5.325,3.373,6.654A2.8,2.8,0,0,0,8.813,22.477Z" transform="translate(44.692 31.981)" fill="#fff" stroke="#263238" stroke-linecap="round" stroke-linejoin="round" stroke-miterlimit="10" stroke-width="0.5"/>
      <path id="Path-60" data-name="Path" d="M0,.534A2.258,2.258,0,0,1,1.064,0,31.208,31.208,0,0,1,4.522,1.153" transform="translate(44.984 33.685)" fill="none" stroke="#263238" stroke-linecap="round" stroke-linejoin="round" stroke-miterlimit="10" stroke-width="0.5"/>
      <path id="Path-61" data-name="Path" d="M0,.544A5.525,5.525,0,0,1,1.333.014a12.916,12.916,0,0,1,2.4.265" transform="translate(45.602 35.98)" fill="none" stroke="#263238" stroke-linecap="round" stroke-linejoin="round" stroke-miterlimit="10" stroke-width="0.5"/>
      <path id="Path-62" data-name="Path" d="M0,.373A1.2,1.2,0,0,1,.976.016a5.217,5.217,0,0,1,1.6.357" transform="translate(46.67 37.307)" fill="none" stroke="#263238" stroke-linecap="round" stroke-linejoin="round" stroke-miterlimit="10" stroke-width="0.5"/>
      <path id="Path-63" data-name="Path" d="M1.687,0,0,.711" transform="translate(46.67 39.01)" fill="none" stroke="#263238" stroke-linecap="round" stroke-linejoin="round" stroke-miterlimit="10" stroke-width="0.5"/>
      <path id="Path-64" data-name="Path" d="M0,0,3.419,30.934" transform="translate(47.742 39.598)" fill="none" stroke="#263238" stroke-linecap="round" stroke-linejoin="round" stroke-miterlimit="10" stroke-width="1.153"/>
      <path id="Path-65" data-name="Path" d="M6.835,3.408S5.682,1.9,4.529.569,1.775.657,1.775.657,0,.922,0,1.545A4.749,4.749,0,0,0,.622,3.231s-.265,1.687.446,2.305a2.424,2.424,0,0,0,1.594.8c.442,0,21.042.353,22.728.265s5.763.622,7.188-1.333A3.185,3.185,0,0,0,30.093.119C27.073-.15,14.826,3.5,6.835,3.408Z" transform="translate(47.289 53.09)" fill="#fff" stroke="#263238" stroke-linecap="round" stroke-linejoin="round" stroke-miterlimit="10" stroke-width="0.5"/>
    </g>
  </g>
</svg>
