<svg xmlns="http://www.w3.org/2000/svg" width="160.271" height="131.398" viewBox="0 0 160.271 131.398">
  <g id="Credit_card-bro" data-name="Credit card-bro" transform="translate(-1.417 -4.658)">
    <g id="freepik--background-simple--inject-9" transform="translate(7.075 4.324)">
      <path id="Path" d="M131.952,83.07c-3.479-6.615-5.11-13.018-3.2-20.345,2.028-7.72,5.931-15.927,4.717-24.091-1.832-12.146-10.566-24.394-21.827-31.748-10.852-7.075-24.055-9.634-35.7-3.18C66.35,9.029,60.313,20.215,48.678,21.788c-13.588,1.855-19.091-7.7-34.145-1.458C8.613,22.782,3.527,27.239,1.168,33.3-1.473,40.163.807,45.293,3.625,51.688A50.265,50.265,0,0,1,7.8,73.731C7.552,80.437,4.828,86.7,4.816,93.384c-.024,11.792,7.166,23.513,18.867,26.728,14.673,4.033,28.985-17.979,45.128-19.445,8.419-.766,12.857,6.014,18.348,11.033,6.58,6.018,15.29,10.141,24.342,9.74C130.844,120.6,140.557,99.422,131.952,83.07Z" transform="translate(0.011 0.334)" fill="#f9fbff"/>
    </g>
    <g id="freepik--Bills--inject-9" transform="translate(1.572 60.139)">
      <rect id="Rectangle" width="66.766" height="35.23" transform="matrix(0.771, 0.637, -0.637, 0.771, 29.512, 0.042)" fill="#fff" stroke="#263238" stroke-linecap="round" stroke-linejoin="round" stroke-miterlimit="10" stroke-width="0.5"/>
      <path id="Path-2" data-name="Path" d="M14.221.9.145,17.951a3.7,3.7,0,0,1,0,4.685L0,22.8,41.747,57.281c.043-.055.083-.118.13-.173a3.7,3.7,0,0,1,5.188-.483L61.055,39.688a3.695,3.695,0,0,1-.48-5.2L18.824,0A3.7,3.7,0,0,1,14.221.9Z" transform="translate(13.466 6.002)" fill="#fff" stroke="#263238" stroke-linecap="round" stroke-linejoin="round" stroke-miterlimit="10" stroke-width="0.5"/>
      <path id="Path-3" data-name="Path" d="M.855,0A11.713,11.713,0,0,0,19.537,13.109" transform="translate(32.74 29.963)" fill="none" stroke="#263238" stroke-linecap="round" stroke-linejoin="round" stroke-miterlimit="10" stroke-width="0.5"/>
      <path id="Path-4" data-name="Path" d="M3.938,0A11.705,11.705,0,0,0,.326,2.928C.212,3.066.1,3.2,0,3.345" transform="translate(35.089 23.977)" fill="none" stroke="#263238" stroke-linecap="round" stroke-linejoin="round" stroke-miterlimit="10" stroke-width="0.5"/>
      <path id="Path-5" data-name="Path" d="M14.488,16.623A11.713,11.713,0,0,0,0,.652" transform="translate(40.588 22.684)" fill="none" stroke="#263238" stroke-linecap="round" stroke-linejoin="round" stroke-miterlimit="10" stroke-width="0.5"/>
      <circle id="Oval" cx="10.727" cy="10.727" r="10.727" transform="translate(29.271 34.374) rotate(-45)" fill="#263238"/>
      <path id="Shape" d="M1.191,14.064a.785.785,0,0,1-.6-.487.717.717,0,0,1,.145-.787l1.377-1.654A7.767,7.767,0,0,1,.035,7.709a1.08,1.08,0,0,1,.048-.688,1.016,1.016,0,0,1,.393-.495,1.443,1.443,0,0,1,.6-.216.9.9,0,0,1,.625.153,1.487,1.487,0,0,1,.483.617c.023.05.086.2.184.436s.184.44.264.609a4.242,4.242,0,0,0,.392.641,4.566,4.566,0,0,0,.657.731,3.212,3.212,0,0,0,.573.48,4.33,4.33,0,0,0,.657.393,1.218,1.218,0,0,0,.66.118.825.825,0,0,0,.566-.322.753.753,0,0,0,.095-.653,2.578,2.578,0,0,0-.487-.959l-.924-1.3c-.342-.495-.609-.9-.786-1.222A7.26,7.26,0,0,1,3.522,5a2.616,2.616,0,0,1-.228-1,2.646,2.646,0,0,1,.181-.932,3.537,3.537,0,0,1,.613-1.01A2.827,2.827,0,0,1,6.776,1.007a5.422,5.422,0,0,1,2.517,1.1L10.786.3a.723.723,0,0,1,.558-.3.789.789,0,0,1,.539.181.79.79,0,0,1,.267.507.714.714,0,0,1-.177.594L10.453,3.11a7.167,7.167,0,0,1,.585.669,7.779,7.779,0,0,1,.55.786q.169.3.393.787a1.262,1.262,0,0,1,.122.767,1.046,1.046,0,0,1-.291.608,1.413,1.413,0,0,1-.543.33A.783.783,0,0,1,10.633,7a1.443,1.443,0,0,1-.562-.55A9.474,9.474,0,0,0,8.663,4.6a6.062,6.062,0,0,0-.653-.55,1.9,1.9,0,0,0-.787-.354.617.617,0,0,0-.625.176.756.756,0,0,0-.169.672,2.735,2.735,0,0,0,.511.916l.94,1.265A13.981,13.981,0,0,1,8.773,8.1a4.88,4.88,0,0,1,.472,1.227,2.479,2.479,0,0,1,0,1.226,3.373,3.373,0,0,1-.644,1.18,3.276,3.276,0,0,1-1.831,1.218A3.67,3.67,0,0,1,4.6,12.8a6.72,6.72,0,0,1-1.3-.677L1.93,13.782a.718.718,0,0,1-.739.283Z" transform="translate(37.769 27.274)" fill="#fff" stroke="#263238" stroke-miterlimit="10" stroke-width="0.5"/>
      <rect id="Rectangle-2" data-name="Rectangle" width="66.766" height="35.23" transform="translate(30.022 0.01) rotate(47.84)" fill="#fff" stroke="#263238" stroke-linecap="round" stroke-linejoin="round" stroke-miterlimit="10" stroke-width="0.5"/>
      <path id="Path-6" data-name="Path" d="M17.252.232.861,15.07a3.7,3.7,0,0,1-.692,4.638L0,19.846,36.366,60c.051-.051.1-.1.153-.153a3.7,3.7,0,0,1,5.22.259L58.008,45.36a3.7,3.7,0,0,1,.259-5.224L21.933,0A3.7,3.7,0,0,1,17.252.232Z" transform="translate(9.992 6.32)" fill="#fff" stroke="#263238" stroke-linecap="round" stroke-linejoin="round" stroke-miterlimit="10" stroke-width="0.5"/>
      <path id="Path-7" data-name="Path" d="M1.621,0A11.709,11.709,0,0,0,18.24,15.664" transform="translate(28.141 30.219)" fill="none" stroke="#263238" stroke-linecap="round" stroke-linejoin="round" stroke-miterlimit="10" stroke-width="0.5"/>
      <path id="Path-8" data-name="Path" d="M4.391,0a11.7,11.7,0,0,0-4,2.378c-.13.118-.259.24-.393.366" transform="translate(31.61 25.089)" fill="none" stroke="#263238" stroke-linecap="round" stroke-linejoin="round" stroke-miterlimit="10" stroke-width="0.5"/>
      <path id="Path-9" data-name="Path" d="M12.032,18.1A11.709,11.709,0,0,0,0,.213" transform="translate(37.644 24.436)" fill="none" stroke="#263238" stroke-linecap="round" stroke-linejoin="round" stroke-miterlimit="10" stroke-width="0.5"/>
      <circle id="Oval-2" data-name="Oval" cx="10.727" cy="10.727" r="10.727" transform="translate(24.692 36.146) rotate(-45)" fill="#263238"/>
      <path id="Shape-2" data-name="Shape" d="M.553,12.479a.784.784,0,0,1-.527-.566.706.706,0,0,1,.256-.754L1.9,9.693A7.719,7.719,0,0,1,.352,6,1.055,1.055,0,0,1,.5,5.33,1.029,1.029,0,0,1,.973,4.9,1.471,1.471,0,0,1,1.6,4.772a.872.872,0,0,1,.6.244,1.442,1.442,0,0,1,.393.676c0,.055.059.208.118.455s.122.468.176.641a4.05,4.05,0,0,0,.3.7,4.532,4.532,0,0,0,.546.818,3.2,3.2,0,0,0,.495.558,5.183,5.183,0,0,0,.6.468,1.2,1.2,0,0,0,.633.208A.816.816,0,0,0,6.071,9.3a.739.739,0,0,0,.185-.636,2.553,2.553,0,0,0-.338-1.014L5.191,6.234c-.272-.543-.476-.983-.621-1.325a7.756,7.756,0,0,1-.362-1.1,2.565,2.565,0,0,1-.086-1.022,2.742,2.742,0,0,1,.318-.9A3.576,3.576,0,0,1,5.187.978,2.828,2.828,0,0,1,8,.326a5.421,5.421,0,0,1,2.344,1.461L12.057.22a.734.734,0,0,1,.6-.216.777.777,0,0,1,.7.8.7.7,0,0,1-.259.558L11.342,2.947a8.123,8.123,0,0,1,.92,1.6c.082.217.18.5.291.853a1.261,1.261,0,0,1,0,.786,1.059,1.059,0,0,1-.393.559A1.441,1.441,0,0,1,11.579,7a.785.785,0,0,1-.621-.145,1.463,1.463,0,0,1-.48-.629,9.628,9.628,0,0,0-1.124-2.04c-.169-.208-.358-.42-.571-.636a1.767,1.767,0,0,0-.711-.46.6.6,0,0,0-.644.086.725.725,0,0,0-.264.636,2.6,2.6,0,0,0,.393.979L8.3,6.183a13.817,13.817,0,0,1,.688,1.493,4.8,4.8,0,0,1,.292,1.278,2.5,2.5,0,0,1-.193,1.214,3.658,3.658,0,0,1-2.8,2.037,3.671,3.671,0,0,1-2.127-.468,6.745,6.745,0,0,1-1.225-.887l-1.6,1.46a.715.715,0,0,1-.787.169Z" transform="translate(32.858 29.767)" fill="#fff" stroke="#263238" stroke-miterlimit="10" stroke-width="0.5"/>
      <rect id="Rectangle-3" data-name="Rectangle" width="66.766" height="35.23" transform="matrix(0.495, 0.869, -0.869, 0.495, 30.806, 0.123)" fill="#fff" stroke="#263238" stroke-linecap="round" stroke-linejoin="round" stroke-miterlimit="10" stroke-width="0.5"/>
      <path id="Path-10" data-name="Path" d="M21.092,0,1.887,10.943A3.7,3.7,0,0,1,.2,15.329l-.2.1L26.8,62.5c.059-.039.118-.079.181-.114a3.695,3.695,0,0,1,5.043,1.384L51.11,52.9a3.7,3.7,0,0,1,1.384-5.043L25.71.786A3.7,3.7,0,0,1,21.092,0Z" transform="translate(5.582 5.896)" fill="#fff" stroke="#263238" stroke-linecap="round" stroke-linejoin="round" stroke-miterlimit="10" stroke-width="0.5"/>
      <path id="Path-11" data-name="Path" d="M3.137,0A11.709,11.709,0,0,0,15.951,18.891" transform="translate(20.867 29.554)" fill="none" stroke="#263238" stroke-linecap="round" stroke-linejoin="round" stroke-miterlimit="10" stroke-width="0.5"/>
      <path id="Path-12" data-name="Path" d="M4.87,0A11.737,11.737,0,0,0,.456,1.454C.3,1.545.149,1.635,0,1.729" transform="translate(26.331 25.899)" fill="none" stroke="#263238" stroke-linecap="round" stroke-linejoin="round" stroke-miterlimit="10" stroke-width="0.5"/>
      <path id="Path-13" data-name="Path" d="M7.861,20.074A11.713,11.713,0,0,0,10.569,7.437,11.713,11.713,0,0,0,0,0" transform="translate(32.911 25.824)" fill="none" stroke="#263238" stroke-linecap="round" stroke-linejoin="round" stroke-miterlimit="10" stroke-width="0.5"/>
      <circle id="Oval-3" data-name="Oval" cx="10.727" cy="10.727" r="10.727" transform="matrix(0.66, -0.751, 0.751, 0.66, 17.437, 38.506)" fill="#263238"/>
      <path id="Shape-3" data-name="Shape" d="M6,11.6a3.7,3.7,0,0,1-1.966-.916,6.727,6.727,0,0,1-.983-1.106L1.18,10.649a.721.721,0,0,1-.787,0A.81.81,0,0,1,0,9.981.714.714,0,0,1,.418,9.3L2.282,8.226a7.747,7.747,0,0,1-.745-3.945,1.08,1.08,0,0,1,.287-.625,1.051,1.051,0,0,1,.558-.319,1.5,1.5,0,0,1,.645,0,.87.87,0,0,1,.526.365,1.425,1.425,0,0,1,.236.747v.472a4.189,4.189,0,0,0,.032.664,4.827,4.827,0,0,0,.5,1.659,3.3,3.3,0,0,0,.362.652,4.929,4.929,0,0,0,.483.586,1.185,1.185,0,0,0,.573.342.844.844,0,0,0,.645-.095.75.75,0,0,0,.318-.581,2.546,2.546,0,0,0-.113-1.066L6.2,5.54c-.146-.586-.251-1.062-.319-1.423a7.667,7.667,0,0,1-.118-1.156A2.642,2.642,0,0,1,5.9,1.943a2.834,2.834,0,0,1,.5-.806A3.552,3.552,0,0,1,7.339.41,2.815,2.815,0,0,1,10.224.386,5.444,5.444,0,0,1,12.2,2.32l2.022-1.144a.734.734,0,0,1,.629-.083.756.756,0,0,1,.437.362.785.785,0,0,1,.075.57.723.723,0,0,1-.393.491l-2.043,1.16a7.76,7.76,0,0,1,.3.814,7.849,7.849,0,0,1,.231.939c.036.229.071.527.1.9a1.244,1.244,0,0,1-.157.762,1.065,1.065,0,0,1-.488.464,1.393,1.393,0,0,1-.625.118.79.79,0,0,1-.574-.275,1.459,1.459,0,0,1-.33-.719,9.555,9.555,0,0,0-.656-2.233c-.118-.239-.259-.487-.417-.747a1.872,1.872,0,0,0-.6-.6.6.6,0,0,0-.644-.055.733.733,0,0,0-.393.566A2.7,2.7,0,0,0,8.825,4.64l.425,1.516a13.251,13.251,0,0,1,.346,1.608,4.854,4.854,0,0,1,0,1.312,2.525,2.525,0,0,1-.416,1.144,3.327,3.327,0,0,1-1.03.9A3.293,3.293,0,0,1,6,11.6Z" transform="translate(24.625 31.444)" fill="#fff" stroke="#263238" stroke-miterlimit="10" stroke-width="0.5"/>
    </g>
    <g id="freepik--Card--inject-9" transform="translate(34.59 33.803)">
      <rect id="Rectangle-4" data-name="Rectangle" width="89.717" height="54.84" rx="3.196" transform="translate(0.139 6.126) rotate(-3.7)" fill="#adc7f7" stroke="#263238" stroke-linecap="round" stroke-linejoin="round" stroke-miterlimit="10" stroke-width="0.5"/>
      <path id="Path-14" data-name="Path" d="M86.614.006,2.577,5.434A2.751,2.751,0,0,0,.006,8.362l.916,14.15,89.532-5.786-.916-14.15A2.751,2.751,0,0,0,86.614.006Z" transform="translate(0.308 0.513)" fill="#263238" stroke="#263238" stroke-linecap="round" stroke-linejoin="round" stroke-miterlimit="10" stroke-width="0.5"/>
      <path id="Path-15" data-name="Path" d="M31.422,22.114C16.053,30.022,6.022,31.783,0,31.708l.1,1.529a2.751,2.751,0,0,0,2.928,2.571L87.06,30.376a2.751,2.751,0,0,0,2.571-2.928L87.858,0C63.759.452,56.931,8.985,31.422,22.114Z" transform="translate(3.396 24.869)" fill="#263238" stroke="#263238" stroke-linecap="round" stroke-linejoin="round" stroke-miterlimit="10" stroke-width="0.5"/>
      <rect id="Rectangle-5" data-name="Rectangle" width="9.599" height="9.28" rx="1.207" transform="translate(9.087 18.942) rotate(-3.7)" fill="#fff" stroke="#263238" stroke-linecap="round" stroke-linejoin="round" stroke-miterlimit="10" stroke-width="0.5"/>
      <rect id="Rectangle-6" data-name="Rectangle" width="2.975" height="2.877" rx="0.59" transform="translate(12.596 21.926) rotate(-3.7)" fill="#fff" stroke="#263238" stroke-linecap="round" stroke-linejoin="round" stroke-miterlimit="10" stroke-width="0.5"/>
      <path id="Path-16" data-name="Path" d="M0,.183,2.806,0A.991.991,0,0,1,3.86.93l.079,1.179" transform="translate(9.151 19.8)" fill="none" stroke="#263238" stroke-linecap="round" stroke-linejoin="round" stroke-miterlimit="10" stroke-width="0.5"/>
      <path id="Path-17" data-name="Path" d="M3.7,0,.93.177A.994.994,0,0,0,0,1.23L.081,2.409" transform="translate(15.029 19.366)" fill="none" stroke="#263238" stroke-linecap="round" stroke-linejoin="round" stroke-miterlimit="10" stroke-width="0.5"/>
      <path id="Path-18" data-name="Path" d="M0,2.413l2.806-.181A.991.991,0,0,0,3.73,1.179L3.655,0" transform="translate(9.622 24.834)" fill="none" stroke="#263238" stroke-linecap="round" stroke-linejoin="round" stroke-miterlimit="10" stroke-width="0.5"/>
      <path id="Path-19" data-name="Path" d="M3.883,1.926,1.132,2.1A.991.991,0,0,1,.075,1.179L0,0" transform="translate(15.318 24.704)" fill="none" stroke="#263238" stroke-linecap="round" stroke-linejoin="round" stroke-miterlimit="10" stroke-width="0.5"/>
      <path id="Path-20" data-name="Path" d="M0,.3,3.29.09" transform="translate(9.414 23.497)" fill="none" stroke="#263238" stroke-linecap="round" stroke-linejoin="round" stroke-miterlimit="10" stroke-width="0.5"/>
      <path id="Path-21" data-name="Path" d="M0,.3,3.286.09" transform="translate(15.593 23.096)" fill="none" stroke="#263238" stroke-linecap="round" stroke-linejoin="round" stroke-miterlimit="10" stroke-width="0.5"/>
      <text id="CREDIT_CARD" data-name="CREDIT CARD" transform="translate(49.239 8.709) rotate(-3.7)" fill="#fff" font-size="4.894" font-family="Nunito-Regular, Nunito"><tspan x="0" y="5">CREDIT CARD</tspan></text>
      <g id="Group" transform="translate(9.725 35.891) rotate(-3.7)">
        <text id="_0000000000000000" data-name="0000000000000000" transform="translate(0 6)" fill="#fff" stroke="#263238" stroke-linecap="round" stroke-linejoin="round" stroke-miterlimit="10" stroke-width="0.5" font-size="5.654" font-family="Nunito-Regular, Nunito"><tspan x="0" y="0">0000000000000000</tspan></text>
      </g>
      <circle id="Oval-4" data-name="Oval" cx="4.489" cy="4.489" r="4.489" transform="matrix(0.359, -0.933, 0.933, 0.359, 68.241, 49.798)" fill="#fff" stroke="#263238" stroke-linecap="round" stroke-linejoin="round" stroke-miterlimit="10" stroke-width="0.5"/>
      <circle id="Oval-5" data-name="Oval" cx="4.489" cy="4.489" r="4.489" transform="translate(75.336 50.987) rotate(-86.04)" fill="#fff" stroke="#263238" stroke-linecap="round" stroke-linejoin="round" stroke-miterlimit="10" stroke-width="0.5"/>
    </g>
    <g id="freepik--Coins--inject-9" transform="translate(115.954 64.069)">
      <circle id="Oval-6" data-name="Oval" cx="10.298" cy="10.298" r="10.298" transform="translate(16.343 7.999) rotate(-15.38)" fill="#fff" stroke="#263238" stroke-linecap="round" stroke-linejoin="round" stroke-miterlimit="10" stroke-width="0.5"/>
      <circle id="Oval-7" data-name="Oval" cx="10.298" cy="10.298" r="10.298" transform="translate(18.091 23.473) rotate(-86.44)" fill="#fff" stroke="#263238" stroke-linecap="round" stroke-linejoin="round" stroke-miterlimit="10" stroke-width="0.5"/>
      <path id="Path-22" data-name="Path" d="M2.217,3.734A8.757,8.757,0,0,0,0,0" transform="translate(35.183 7.629)" fill="#fff" stroke="#263238" stroke-linecap="round" stroke-linejoin="round" stroke-miterlimit="10" stroke-width="0.5"/>
      <path id="Path-23" data-name="Path" d="M0,9.618a8.588,8.588,0,0,0,1.277-.24A8.757,8.757,0,0,0,7.735,0" transform="translate(29.971 12.908)" fill="#fff" stroke="#263238" stroke-linecap="round" stroke-linejoin="round" stroke-miterlimit="10" stroke-width="0.5"/>
      <path id="Path-24" data-name="Path" d="M13.668,1.509a8.754,8.754,0,1,0-4.878,16" transform="translate(20.246 5.075)" fill="#fff" stroke="#263238" stroke-linecap="round" stroke-linejoin="round" stroke-miterlimit="10" stroke-width="0.5"/>
      <path id="Shape-4" data-name="Shape" d="M5.745,13.106a.554.554,0,0,1-.425-.445l-.431-1.615a6,6,0,0,1-3.079-.232.825.825,0,0,1-.413-.338A.841.841,0,0,1,1.272,10a1.11,1.11,0,0,1,.138-.48A.662.662,0,0,1,1.8,9.2a1.119,1.119,0,0,1,.6-.028l.355.083c.193.043.361.082.5.106a3.752,3.752,0,0,0,.586.035,3.513,3.513,0,0,0,.751-.083,2.651,2.651,0,0,0,.558-.145,3.372,3.372,0,0,0,.531-.244.933.933,0,0,0,.369-.362.641.641,0,0,0,.051-.5.573.573,0,0,0-.365-.349,1.962,1.962,0,0,0-.817-.126H3.689c-.464,0-.838-.02-1.124-.043a5.608,5.608,0,0,1-.881-.138,2.038,2.038,0,0,1-.731-.3,2.046,2.046,0,0,1-.5-.535,2.746,2.746,0,0,1-.362-.837A2.178,2.178,0,0,1,.639,3.578a4.772,4.772,0,0,1,1.8-1.1L1.983.755A.551.551,0,0,1,2.046.272.581.581,0,0,1,2.4.016a.633.633,0,0,1,.437.056.552.552,0,0,1,.291.392l.467,1.752a5.93,5.93,0,0,1,.693-.069,5.124,5.124,0,0,1,.743,0c.176.019.393.05.688.1a.964.964,0,0,1,.538.267.788.788,0,0,1,.248.452,1.093,1.093,0,0,1-.032.491.625.625,0,0,1-.319.393,1.119,1.119,0,0,1-.6.106,7.378,7.378,0,0,0-1.793.051,5.369,5.369,0,0,0-.636.165,1.434,1.434,0,0,0-.571.322.463.463,0,0,0-.168.472.572.572,0,0,0,.346.393,2.075,2.075,0,0,0,.786.09L4.73,5.429A11.42,11.42,0,0,1,6,5.488a3.8,3.8,0,0,1,.979.251,1.977,1.977,0,0,1,.762.558,2.839,2.839,0,0,1,.393,2.638,2.859,2.859,0,0,1-1.074,1.293,5.2,5.2,0,0,1-1.012.512l.43,1.615a.555.555,0,0,1-.157.589.62.62,0,0,1-.573.161Z" transform="translate(24.525 7.499)" fill="#263238"/>
      <path id="Path-25" data-name="Path" d="M.2,0V1.3" transform="translate(20.294 19.594)" fill="none" stroke="#263238" stroke-linecap="round" stroke-linejoin="round" stroke-miterlimit="10" stroke-width="0.5"/>
      <path id="Path-26" data-name="Path" d="M.2,0V1.384" transform="translate(21.214 20.895)" fill="none" stroke="#263238" stroke-linecap="round" stroke-linejoin="round" stroke-miterlimit="10" stroke-width="0.5"/>
      <path id="Path-27" data-name="Path" d="M.2,0V1.3" transform="translate(23.053 22.432)" fill="none" stroke="#263238" stroke-linecap="round" stroke-linejoin="round" stroke-miterlimit="10" stroke-width="0.5"/>
      <path id="Path-28" data-name="Path" d="M.2,0V1.152" transform="translate(25.659 23.733)" fill="none" stroke="#263238" stroke-linecap="round" stroke-linejoin="round" stroke-miterlimit="10" stroke-width="0.5"/>
      <path id="Path-29" data-name="Path" d="M.2,0V.535" transform="translate(28.497 24.272)" fill="none" stroke="#263238" stroke-linecap="round" stroke-linejoin="round" stroke-miterlimit="10" stroke-width="0.5"/>
      <path id="Path-30" data-name="Path" d="M.2.841V0" transform="translate(34.094 23.199)" fill="none" stroke="#263238" stroke-linecap="round" stroke-linejoin="round" stroke-miterlimit="10" stroke-width="0.5"/>
      <path id="Path-31" data-name="Path" d="M.2,1.3V0" transform="translate(35.321 21.894)" fill="none" stroke="#263238" stroke-linecap="round" stroke-linejoin="round" stroke-miterlimit="10" stroke-width="0.5"/>
      <circle id="Oval-8" data-name="Oval" cx="10.298" cy="10.298" r="10.298" transform="matrix(0.985, -0.173, 0.173, 0.985, 2.372, 15.294)" fill="#fff" stroke="#263238" stroke-linecap="round" stroke-linejoin="round" stroke-miterlimit="10" stroke-width="0.5"/>
      <circle id="Oval-9" data-name="Oval" cx="10.298" cy="10.298" r="10.298" transform="matrix(0.985, -0.173, 0.173, 0.985, 2.369, 13.916)" fill="#fff" stroke="#263238" stroke-linecap="round" stroke-linejoin="round" stroke-miterlimit="10" stroke-width="0.5"/>
      <path id="Path-32" data-name="Path" d="M16.213,13.335A8.754,8.754,0,1,0,4.177,16.216a8.754,8.754,0,0,0,12.036-2.881Z" transform="translate(5.539 13.527)" fill="#fff" stroke="#263238" stroke-linecap="round" stroke-linejoin="round" stroke-miterlimit="10" stroke-width="0.5"/>
      <path id="Shape-5" data-name="Shape" d="M1.63,11.86a.607.607,0,0,1-.515-.3.548.548,0,0,1,.028-.614l.874-1.455A5.948,5.948,0,0,1,.066,7.108a.833.833,0,0,1-.04-.531.822.822,0,0,1,.26-.42,1.1,1.1,0,0,1,.436-.228.679.679,0,0,1,.5.047,1.192,1.192,0,0,1,.437.42c.023.036.086.138.184.31s.188.319.267.437a3.446,3.446,0,0,0,.393.448,3.613,3.613,0,0,0,.578.488,2.693,2.693,0,0,0,.49.3,3.5,3.5,0,0,0,.543.22.961.961,0,0,0,.515,0,.647.647,0,0,0,.393-.3.574.574,0,0,0,0-.511,2.012,2.012,0,0,0-.472-.68L3.7,6.216c-.314-.338-.562-.622-.742-.841a6.064,6.064,0,0,1-.508-.735A1.932,1.932,0,0,1,2.169,3.9a2.063,2.063,0,0,1,.039-.735,2.713,2.713,0,0,1,.358-.832A2.172,2.172,0,0,1,4.5,1.239a4.8,4.8,0,0,1,2.046.554L7.471.3A.565.565,0,0,1,7.864.009a.611.611,0,0,1,.428.083A.652.652,0,0,1,8.556.45a.555.555,0,0,1-.075.472l-.94,1.533A5.585,5.585,0,0,1,8.06,2.9a6.478,6.478,0,0,1,.508.547c.11.141.239.329.393.57a.956.956,0,0,1,.18.573.822.822,0,0,1-.157.491,1.1,1.1,0,0,1-.393.315.6.6,0,0,1-.488.027,1.15,1.15,0,0,1-.491-.361A7.346,7.346,0,0,0,6.339,3.794q-.27-.186-.558-.346a1.416,1.416,0,0,0-.625-.189.461.461,0,0,0-.46.2.562.562,0,0,0-.055.527,2.047,2.047,0,0,0,.487.644l.853.865a11.209,11.209,0,0,1,.83.958,3.707,3.707,0,0,1,.49.881,1.89,1.89,0,0,1,.122.939,2.579,2.579,0,0,1-.362.983,2.535,2.535,0,0,1-1.27,1.132,2.837,2.837,0,0,1-1.674.11,5.132,5.132,0,0,1-1.085-.387l-.873,1.452a.549.549,0,0,1-.486.293Z" transform="translate(9.144 16.338)" fill="#263238"/>
      <path id="Path-33" data-name="Path" d="M.2,0V1.3" transform="translate(5.585 28.049)" fill="none" stroke="#263238" stroke-linecap="round" stroke-linejoin="round" stroke-miterlimit="10" stroke-width="0.5"/>
      <path id="Path-34" data-name="Path" d="M.2,0V1.38" transform="translate(6.505 29.354)" fill="none" stroke="#263238" stroke-linecap="round" stroke-linejoin="round" stroke-miterlimit="10" stroke-width="0.5"/>
      <path id="Path-35" data-name="Path" d="M.2,0V1.3" transform="translate(8.345 30.887)" fill="none" stroke="#263238" stroke-linecap="round" stroke-linejoin="round" stroke-miterlimit="10" stroke-width="0.5"/>
      <path id="Path-36" data-name="Path" d="M.2,0V1.152" transform="translate(10.951 32.188)" fill="none" stroke="#263238" stroke-linecap="round" stroke-linejoin="round" stroke-miterlimit="10" stroke-width="0.5"/>
      <path id="Path-37" data-name="Path" d="M.2,0V.538" transform="translate(13.789 32.726)" fill="none" stroke="#263238" stroke-linecap="round" stroke-linejoin="round" stroke-miterlimit="10" stroke-width="0.5"/>
      <path id="Path-38" data-name="Path" d="M.2.841V0" transform="translate(19.386 31.653)" fill="none" stroke="#263238" stroke-linecap="round" stroke-linejoin="round" stroke-miterlimit="10" stroke-width="0.5"/>
      <path id="Path-39" data-name="Path" d="M.2,1.3V0" transform="translate(20.612 30.348)" fill="none" stroke="#263238" stroke-linecap="round" stroke-linejoin="round" stroke-miterlimit="10" stroke-width="0.5"/>
      <circle id="Oval-10" data-name="Oval" cx="10.298" cy="10.298" r="10.298" transform="translate(2.096 13.58) rotate(-11.85)" fill="#fff" stroke="#263238" stroke-linecap="round" stroke-linejoin="round" stroke-miterlimit="10" stroke-width="0.5"/>
      <circle id="Oval-11" data-name="Oval" cx="10.298" cy="10.298" r="10.298" transform="translate(2.097 12.202) rotate(-11.85)" fill="#fff" stroke="#263238" stroke-linecap="round" stroke-linejoin="round" stroke-miterlimit="10" stroke-width="0.5"/>
      <circle id="Oval-12" data-name="Oval" cx="8.754" cy="8.754" r="8.754" transform="translate(3.746 13.686) rotate(-13.37)" fill="#fff" stroke="#263238" stroke-linecap="round" stroke-linejoin="round" stroke-miterlimit="10" stroke-width="0.5"/>
      <path id="Shape-6" data-name="Shape" d="M1.617,11.847A.617.617,0,0,1,1.1,11.54a.546.546,0,0,1,.028-.613L2.009,9.5A5.935,5.935,0,0,1,.065,7.106a.829.829,0,0,1,.221-.948,1.109,1.109,0,0,1,.436-.231.7.7,0,0,1,.5.05,1.155,1.155,0,0,1,.437.417c.023.04.086.141.184.315s.188.318.267.436a3.446,3.446,0,0,0,.393.448,3.591,3.591,0,0,0,.578.484,2.514,2.514,0,0,0,.49.306,3.392,3.392,0,0,0,.543.216.912.912,0,0,0,.515.02.649.649,0,0,0,.393-.306.574.574,0,0,0,0-.511,2,2,0,0,0-.472-.676l-.857-.908c-.315-.342-.562-.621-.743-.845a5.8,5.8,0,0,1-.507-.735A1.9,1.9,0,0,1,2.156,3.9,2.038,2.038,0,0,1,2.2,3.168a2.8,2.8,0,0,1,.358-.838A2.169,2.169,0,0,1,4.491,1.242,4.763,4.763,0,0,1,6.549,1.8L7.47.3a.579.579,0,0,1,.822-.2.627.627,0,0,1,.264.358A.55.55,0,0,1,8.481.92L7.535,2.462a5.466,5.466,0,0,1,.512.439,6.049,6.049,0,0,1,.5.566c.11.141.239.329.392.565a.973.973,0,0,1,.181.574A.824.824,0,0,1,8.96,5.1a1.152,1.152,0,0,1-.393.315.6.6,0,0,1-.488.023,1.15,1.15,0,0,1-.491-.357A7.187,7.187,0,0,0,6.314,3.816q-.252-.188-.523-.349a1.389,1.389,0,0,0-.625-.189.475.475,0,0,0-.46.2.569.569,0,0,0-.055.531,2.035,2.035,0,0,0,.472.633l.853.865a10.126,10.126,0,0,1,.829.958A3.6,3.6,0,0,1,7.3,7.35a1.879,1.879,0,0,1,.122.939,2.6,2.6,0,0,1-.361.983A2.547,2.547,0,0,1,5.788,10.4a2.838,2.838,0,0,1-1.674.113,5.2,5.2,0,0,1-1.089-.39l-.877,1.428a.546.546,0,0,1-.486.3Z" transform="translate(9.145 14.221)" fill="#263238"/>
      <path id="Path-40" data-name="Path" d="M.2,0V1.3" transform="translate(5.585 25.934)" fill="none" stroke="#263238" stroke-linecap="round" stroke-linejoin="round" stroke-miterlimit="10" stroke-width="0.5"/>
      <path id="Path-41" data-name="Path" d="M.2,0V1.38" transform="translate(6.505 27.235)" fill="none" stroke="#263238" stroke-linecap="round" stroke-linejoin="round" stroke-miterlimit="10" stroke-width="0.5"/>
      <path id="Path-42" data-name="Path" d="M.2,0V1.3" transform="translate(8.345 28.768)" fill="none" stroke="#263238" stroke-linecap="round" stroke-linejoin="round" stroke-miterlimit="10" stroke-width="0.5"/>
      <path id="Path-43" data-name="Path" d="M.2,0V1.152" transform="translate(10.951 30.073)" fill="none" stroke="#263238" stroke-linecap="round" stroke-linejoin="round" stroke-miterlimit="10" stroke-width="0.5"/>
      <path id="Path-44" data-name="Path" d="M.2,0V.535" transform="translate(13.789 30.612)" fill="none" stroke="#263238" stroke-linecap="round" stroke-linejoin="round" stroke-miterlimit="10" stroke-width="0.5"/>
      <path id="Path-45" data-name="Path" d="M.2.841V0" transform="translate(19.386 29.539)" fill="none" stroke="#263238" stroke-linecap="round" stroke-linejoin="round" stroke-miterlimit="10" stroke-width="0.5"/>
      <path id="Path-46" data-name="Path" d="M.2,1.3V0" transform="translate(20.612 28.234)" fill="none" stroke="#263238" stroke-linecap="round" stroke-linejoin="round" stroke-miterlimit="10" stroke-width="0.5"/>
      <circle id="Oval-13" data-name="Oval" cx="10.298" cy="10.298" r="10.298" transform="matrix(0.539, -0.842, 0.842, 0.539, 0.071, 22.548)" fill="#fff" stroke="#263238" stroke-linecap="round" stroke-linejoin="round" stroke-miterlimit="10" stroke-width="0.5"/>
      <circle id="Oval-14" data-name="Oval" cx="10.298" cy="10.298" r="10.298" transform="matrix(0.539, -0.842, 0.842, 0.539, 0.071, 21.17)" fill="#fff" stroke="#263238" stroke-linecap="round" stroke-linejoin="round" stroke-miterlimit="10" stroke-width="0.5"/>
      <circle id="Oval-15" data-name="Oval" cx="8.754" cy="8.754" r="8.754" transform="translate(3.181 23.492) rotate(-71.2)" fill="#fff" stroke="#263238" stroke-linecap="round" stroke-linejoin="round" stroke-miterlimit="10" stroke-width="0.5"/>
      <path id="Shape-7" data-name="Shape" d="M1.618,11.847A.617.617,0,0,1,1.1,11.54a.546.546,0,0,1,.028-.613l.883-1.439A5.977,5.977,0,0,1,.066,7.106a.82.82,0,0,1-.04-.526.844.844,0,0,1,.26-.425,1.167,1.167,0,0,1,.436-.228.658.658,0,0,1,.5.05,1.155,1.155,0,0,1,.437.417c.023.036.086.141.184.311s.188.319.267.436A3.005,3.005,0,0,0,2.5,7.59a3.613,3.613,0,0,0,.578.488,2.514,2.514,0,0,0,.49.306A3.7,3.7,0,0,0,4.11,8.6a.911.911,0,0,0,.515,0,.626.626,0,0,0,.393-.3.574.574,0,0,0,0-.511,2,2,0,0,0-.472-.676L3.7,6.218c-.314-.342-.562-.625-.742-.845a6.064,6.064,0,0,1-.508-.735A1.938,1.938,0,0,1,2.169,3.9a2.038,2.038,0,0,1,.039-.731,2.765,2.765,0,0,1,.358-.838A2.161,2.161,0,0,1,4.5,1.242,4.755,4.755,0,0,1,6.565,1.8L7.471.3A.556.556,0,0,1,7.864.012.588.588,0,0,1,8.293.09a.653.653,0,0,1,.264.357A.557.557,0,0,1,8.482.92L7.55,2.46a5.95,5.95,0,0,1,1.018.987c.11.141.239.33.393.566a.962.962,0,0,1,.18.573.823.823,0,0,1-.157.5,1.14,1.14,0,0,1-.393.311A.6.6,0,0,1,8.1,5.42a1.12,1.12,0,0,1-.491-.362A7.341,7.341,0,0,0,6.339,3.793a6.464,6.464,0,0,0-.558-.346,1.4,1.4,0,0,0-.625-.189.469.469,0,0,0-.46.2.569.569,0,0,0-.055.531,2.033,2.033,0,0,0,.487.641l.853.865a11.209,11.209,0,0,1,.83.958,3.651,3.651,0,0,1,.49.885,1.876,1.876,0,0,1,.122.935,2.6,2.6,0,0,1-.362.986,2.543,2.543,0,0,1-1.27,1.129,2.866,2.866,0,0,1-1.674.114,5.229,5.229,0,0,1-1.088-.391l-.881,1.435a.56.56,0,0,1-.494.3Z" transform="translate(9.144 12.091)" fill="#263238"/>
      <path id="Path-47" data-name="Path" d="M.2,0V1.3" transform="translate(5.585 23.8)" fill="none" stroke="#263238" stroke-linecap="round" stroke-linejoin="round" stroke-miterlimit="10" stroke-width="0.5"/>
      <path id="Path-48" data-name="Path" d="M.2,0V1.38" transform="translate(6.505 25.105)" fill="none" stroke="#263238" stroke-linecap="round" stroke-linejoin="round" stroke-miterlimit="10" stroke-width="0.5"/>
      <path id="Path-49" data-name="Path" d="M.2,0V1.3" transform="translate(8.345 26.638)" fill="none" stroke="#263238" stroke-linecap="round" stroke-linejoin="round" stroke-miterlimit="10" stroke-width="0.5"/>
      <path id="Path-50" data-name="Path" d="M.2,0V1.148" transform="translate(10.951 27.943)" fill="none" stroke="#263238" stroke-linecap="round" stroke-linejoin="round" stroke-miterlimit="10" stroke-width="0.5"/>
      <path id="Path-51" data-name="Path" d="M.2,0V.538" transform="translate(13.789 28.477)" fill="none" stroke="#263238" stroke-linecap="round" stroke-linejoin="round" stroke-miterlimit="10" stroke-width="0.5"/>
      <path id="Path-52" data-name="Path" d="M.2.845V0" transform="translate(19.386 27.404)" fill="none" stroke="#263238" stroke-linecap="round" stroke-linejoin="round" stroke-miterlimit="10" stroke-width="0.5"/>
      <path id="Path-53" data-name="Path" d="M.2,1.3V0" transform="translate(20.612 26.103)" fill="none" stroke="#263238" stroke-linecap="round" stroke-linejoin="round" stroke-miterlimit="10" stroke-width="0.5"/>
      <circle id="Oval-16" data-name="Oval" cx="10.298" cy="10.298" r="10.298" transform="matrix(0.985, -0.173, 0.173, 0.985, 2.372, 9.125)" fill="#fff" stroke="#263238" stroke-linecap="round" stroke-linejoin="round" stroke-miterlimit="10" stroke-width="0.5"/>
      <circle id="Oval-17" data-name="Oval" cx="10.298" cy="10.298" r="10.298" transform="translate(2.429 7.666) rotate(-9.57)" fill="#fff" stroke="#263238" stroke-linecap="round" stroke-linejoin="round" stroke-miterlimit="10" stroke-width="0.5"/>
      <circle id="Oval-18" data-name="Oval" cx="8.754" cy="8.754" r="8.754" transform="translate(3.177 21.572) rotate(-71.2)" fill="#fff" stroke="#263238" stroke-linecap="round" stroke-linejoin="round" stroke-miterlimit="10" stroke-width="0.5"/>
      <path id="Shape-8" data-name="Shape" d="M1.617,11.823a.619.619,0,0,1-.515-.307A.546.546,0,0,1,1.13,10.9L2,9.492A5.937,5.937,0,0,1,.065,7.106a.829.829,0,0,1,.221-.948,1.109,1.109,0,0,1,.436-.231.682.682,0,0,1,.5.05,1.155,1.155,0,0,1,.437.417c.023.036.086.141.184.315s.188.318.267.436a3.446,3.446,0,0,0,.393.448,3.591,3.591,0,0,0,.578.484,2.514,2.514,0,0,0,.49.306,3.392,3.392,0,0,0,.543.216.953.953,0,0,0,.515.02.649.649,0,0,0,.393-.306.574.574,0,0,0,0-.511,2,2,0,0,0-.472-.676L3.7,6.233c-.314-.342-.562-.621-.743-.845a5.792,5.792,0,0,1-.508-.734,1.907,1.907,0,0,1-.283-.74,2.038,2.038,0,0,1,.039-.731,2.782,2.782,0,0,1,.358-.837A2.169,2.169,0,0,1,4.5,1.257a4.763,4.763,0,0,1,2.042.55L7.47.3a.579.579,0,0,1,.822-.2.628.628,0,0,1,.264.354A.557.557,0,0,1,8.481.92L7.533,2.466a5.466,5.466,0,0,1,.527.45,5.941,5.941,0,0,1,.508.546c.11.141.239.33.393.566a.97.97,0,0,1,.18.574.822.822,0,0,1-.157.495,1.141,1.141,0,0,1-.393.314.6.6,0,0,1-.488.024,1.128,1.128,0,0,1-.491-.362A7.253,7.253,0,0,0,6.338,3.812a6.511,6.511,0,0,0-.558-.35,1.4,1.4,0,0,0-.625-.188.475.475,0,0,0-.46.2.567.567,0,0,0-.055.53,2.051,2.051,0,0,0,.487.645l.853.864a10.26,10.26,0,0,1,.83.959,3.623,3.623,0,0,1,.49.88,1.893,1.893,0,0,1,.122.94,2.6,2.6,0,0,1-.362.983,2.541,2.541,0,0,1-1.27,1.128,2.837,2.837,0,0,1-1.674.114,5.2,5.2,0,0,1-1.107-.4l-.863,1.405a.548.548,0,0,1-.486.3Z" transform="translate(9.145 10.189)" fill="#263238"/>
      <path id="Path-54" data-name="Path" d="M.2,0V1.3" transform="translate(5.585 21.882)" fill="none" stroke="#263238" stroke-linecap="round" stroke-linejoin="round" stroke-miterlimit="10" stroke-width="0.5"/>
      <path id="Path-55" data-name="Path" d="M.2,0V1.38" transform="translate(6.505 23.183)" fill="none" stroke="#263238" stroke-linecap="round" stroke-linejoin="round" stroke-miterlimit="10" stroke-width="0.5"/>
      <path id="Path-56" data-name="Path" d="M.2,0V1.3" transform="translate(8.345 24.716)" fill="none" stroke="#263238" stroke-linecap="round" stroke-linejoin="round" stroke-miterlimit="10" stroke-width="0.5"/>
      <path id="Path-57" data-name="Path" d="M.2,0V1.152" transform="translate(10.951 26.021)" fill="none" stroke="#263238" stroke-linecap="round" stroke-linejoin="round" stroke-miterlimit="10" stroke-width="0.5"/>
      <path id="Path-58" data-name="Path" d="M.2,0V.535" transform="translate(13.789 26.559)" fill="none" stroke="#263238" stroke-linecap="round" stroke-linejoin="round" stroke-miterlimit="10" stroke-width="0.5"/>
      <path id="Path-59" data-name="Path" d="M.2.841V0" transform="translate(19.386 25.486)" fill="none" stroke="#263238" stroke-linecap="round" stroke-linejoin="round" stroke-miterlimit="10" stroke-width="0.5"/>
      <path id="Path-60" data-name="Path" d="M.2,1.3V0" transform="translate(20.612 24.181)" fill="none" stroke="#263238" stroke-linecap="round" stroke-linejoin="round" stroke-miterlimit="10" stroke-width="0.5"/>
      <circle id="Oval-19" data-name="Oval" cx="10.298" cy="10.298" r="10.298" transform="matrix(0.985, -0.173, 0.173, 0.985, 2.371, 7.208)" fill="#fff" stroke="#263238" stroke-linecap="round" stroke-linejoin="round" stroke-miterlimit="10" stroke-width="0.5"/>
      <circle id="Oval-20" data-name="Oval" cx="10.298" cy="10.298" r="10.298" transform="matrix(0.985, -0.173, 0.173, 0.985, 2.372, 5.826)" fill="#fff" stroke="#263238" stroke-linecap="round" stroke-linejoin="round" stroke-miterlimit="10" stroke-width="0.5"/>
      <circle id="Oval-21" data-name="Oval" cx="8.754" cy="8.754" r="8.754" transform="translate(3.178 19.651) rotate(-71.2)" fill="#fff" stroke="#263238" stroke-linecap="round" stroke-linejoin="round" stroke-miterlimit="10" stroke-width="0.5"/>
      <path id="Shape-9" data-name="Shape" d="M1.618,11.845a.605.605,0,0,1-.515-.3.548.548,0,0,1,.027-.613l.883-1.442A5.948,5.948,0,0,1,.066,7.108a.832.832,0,0,1,.22-.951,1.111,1.111,0,0,1,.437-.228.682.682,0,0,1,.5.047,1.183,1.183,0,0,1,.436.42c.024.036.086.138.185.31s.188.319.267.437a3.508,3.508,0,0,0,.392.448,3.693,3.693,0,0,0,.578.488,2.731,2.731,0,0,0,.491.3,3.939,3.939,0,0,0,.543.22.961.961,0,0,0,.515,0A.653.653,0,0,0,5.018,8.3a.566.566,0,0,0,0-.508,2.024,2.024,0,0,0-.472-.68L3.7,6.216c-.315-.342-.562-.622-.743-.845a5.555,5.555,0,0,1-.507-.735A1.925,1.925,0,0,1,2.168,3.9a2.064,2.064,0,0,1,.04-.732,2.713,2.713,0,0,1,.358-.832A2.172,2.172,0,0,1,4.5,1.239,4.8,4.8,0,0,1,6.56,1.8L7.471.3A.565.565,0,0,1,7.864.009a.612.612,0,0,1,.428.083A.647.647,0,0,1,8.555.45a.552.552,0,0,1-.075.472L7.546,2.458a5.586,5.586,0,0,1,.514.44,6.79,6.79,0,0,1,.508.547c.11.141.239.329.392.57a.95.95,0,0,1,.181.573.816.816,0,0,1-.158.491,1.141,1.141,0,0,1-.392.315.6.6,0,0,1-.488.027,1.158,1.158,0,0,1-.491-.361A7.309,7.309,0,0,0,6.339,3.794q-.27-.186-.558-.346a1.367,1.367,0,0,0-.625-.189.461.461,0,0,0-.46.2.562.562,0,0,0-.055.527,2.02,2.02,0,0,0,.487.644l.853.865a10.635,10.635,0,0,1,.829.958A3.679,3.679,0,0,1,7.3,7.34a1.89,1.89,0,0,1,.122.939,2.579,2.579,0,0,1-.362.983,2.528,2.528,0,0,1-1.27,1.129,2.83,2.83,0,0,1-1.674.113,5.121,5.121,0,0,1-1.088-.389l-.881,1.438a.553.553,0,0,1-.488.293Z" transform="translate(9.144 8.249)" fill="#263238"/>
      <path id="Path-61" data-name="Path" d="M.2,0V1.3" transform="translate(5.585 19.96)" fill="none" stroke="#263238" stroke-linecap="round" stroke-linejoin="round" stroke-miterlimit="10" stroke-width="0.5"/>
      <path id="Path-62" data-name="Path" d="M.2,0V1.38" transform="translate(6.505 21.265)" fill="none" stroke="#263238" stroke-linecap="round" stroke-linejoin="round" stroke-miterlimit="10" stroke-width="0.5"/>
      <path id="Path-63" data-name="Path" d="M.2,0V1.3" transform="translate(8.345 22.798)" fill="none" stroke="#263238" stroke-linecap="round" stroke-linejoin="round" stroke-miterlimit="10" stroke-width="0.5"/>
      <path id="Path-64" data-name="Path" d="M.2,0V1.152" transform="translate(10.951 24.099)" fill="none" stroke="#263238" stroke-linecap="round" stroke-linejoin="round" stroke-miterlimit="10" stroke-width="0.5"/>
      <path id="Path-65" data-name="Path" d="M.2,0V.535" transform="translate(13.789 24.637)" fill="none" stroke="#263238" stroke-linecap="round" stroke-linejoin="round" stroke-miterlimit="10" stroke-width="0.5"/>
      <path id="Path-66" data-name="Path" d="M.2.841V0" transform="translate(19.386 23.564)" fill="none" stroke="#263238" stroke-linecap="round" stroke-linejoin="round" stroke-miterlimit="10" stroke-width="0.5"/>
      <path id="Path-67" data-name="Path" d="M.2,1.3V0" transform="translate(20.612 22.259)" fill="none" stroke="#263238" stroke-linecap="round" stroke-linejoin="round" stroke-miterlimit="10" stroke-width="0.5"/>
      <circle id="Oval-22" data-name="Oval" cx="10.298" cy="10.298" r="10.298" transform="matrix(0.985, -0.173, 0.173, 0.985, 2.369, 5.284)" fill="#fff" stroke="#263238" stroke-linecap="round" stroke-linejoin="round" stroke-miterlimit="10" stroke-width="0.5"/>
      <circle id="Oval-23" data-name="Oval" cx="10.298" cy="10.298" r="10.298" transform="matrix(0.985, -0.173, 0.173, 0.985, 2.371, 3.909)" fill="#fff" stroke="#263238" stroke-linecap="round" stroke-linejoin="round" stroke-miterlimit="10" stroke-width="0.5"/>
      <path id="Path-68" data-name="Path" d="M0,16.324A8.754,8.754,0,0,0,5.059.122L4.85,0" transform="translate(13.808 4.689)" fill="#fff" stroke="#263238" stroke-linecap="round" stroke-linejoin="round" stroke-miterlimit="10" stroke-width="0.5"/>
      <path id="Path-69" data-name="Path" d="M0,0A8.742,8.742,0,0,0,3.294,1.2" transform="translate(9.717 19.736)" fill="#fff" stroke="#263238" stroke-linecap="round" stroke-linejoin="round" stroke-miterlimit="10" stroke-width="0.5"/>
      <path id="Path-70" data-name="Path" d="M12.275.741A8.754,8.754,0,0,0,3.027,15.374" transform="translate(5.538 3.52)" fill="#fff" stroke="#263238" stroke-linecap="round" stroke-linejoin="round" stroke-miterlimit="10" stroke-width="0.5"/>
      <path id="Shape-10" data-name="Shape" d="M1.618,11.847A.617.617,0,0,1,1.1,11.54a.546.546,0,0,1,.028-.613L2,9.514A5.976,5.976,0,0,1,.066,7.106a.82.82,0,0,1-.04-.526.835.835,0,0,1,.26-.425,1.167,1.167,0,0,1,.436-.228.658.658,0,0,1,.5.05,1.129,1.129,0,0,1,.437.417c.023.036.086.141.184.311s.188.319.267.436A3.005,3.005,0,0,0,2.5,7.59a3.613,3.613,0,0,0,.578.488,2.514,2.514,0,0,0,.49.306A3.7,3.7,0,0,0,4.11,8.6a.911.911,0,0,0,.515,0,.626.626,0,0,0,.393-.3.574.574,0,0,0,0-.511,1.976,1.976,0,0,0-.472-.676L3.69,6.25c-.315-.342-.562-.625-.743-.845a6.057,6.057,0,0,1-.507-.735,1.938,1.938,0,0,1-.283-.739A2.063,2.063,0,0,1,2.2,3.2a2.727,2.727,0,0,1,.358-.833A2.173,2.173,0,0,1,4.492,1.269a4.788,4.788,0,0,1,2.045.553L7.471.3A.556.556,0,0,1,7.864.012.588.588,0,0,1,8.293.09a.653.653,0,0,1,.264.357A.557.557,0,0,1,8.482.92L7.525,2.48a5.585,5.585,0,0,1,.524.447,5.879,5.879,0,0,1,.508.551c.11.138.239.33.392.566a.956.956,0,0,1,.181.573.837.837,0,0,1-.157.5,1.15,1.15,0,0,1-.393.311.6.6,0,0,1-.488.027A1.128,1.128,0,0,1,7.6,5.089,7.3,7.3,0,0,0,6.327,3.824a6.464,6.464,0,0,0-.558-.346,1.4,1.4,0,0,0-.625-.189.467.467,0,0,0-.46.2.569.569,0,0,0-.055.531,2.033,2.033,0,0,0,.487.641l.853.864a11.35,11.35,0,0,1,.829.959,3.624,3.624,0,0,1,.491.885,1.876,1.876,0,0,1,.122.935,2.584,2.584,0,0,1-.362.983,2.535,2.535,0,0,1-1.27,1.132,2.859,2.859,0,0,1-1.674.113,5.282,5.282,0,0,1-1.093-.394l-.864,1.408a.56.56,0,0,1-.494.3Z" transform="translate(9.144 6.329)" fill="#263238"/>
      <path id="Path-71" data-name="Path" d="M.2,0V1.3" transform="translate(5.585 18.038)" fill="none" stroke="#263238" stroke-linecap="round" stroke-linejoin="round" stroke-miterlimit="10" stroke-width="0.5"/>
      <path id="Path-72" data-name="Path" d="M.2,0V1.38" transform="translate(6.505 19.343)" fill="none" stroke="#263238" stroke-linecap="round" stroke-linejoin="round" stroke-miterlimit="10" stroke-width="0.5"/>
      <path id="Path-73" data-name="Path" d="M.2,0V1.3" transform="translate(8.345 20.876)" fill="none" stroke="#263238" stroke-linecap="round" stroke-linejoin="round" stroke-miterlimit="10" stroke-width="0.5"/>
      <path id="Path-74" data-name="Path" d="M.2,0V1.148" transform="translate(10.951 22.181)" fill="none" stroke="#263238" stroke-linecap="round" stroke-linejoin="round" stroke-miterlimit="10" stroke-width="0.5"/>
      <path id="Path-75" data-name="Path" d="M.2,0V.538" transform="translate(13.789 22.715)" fill="none" stroke="#263238" stroke-linecap="round" stroke-linejoin="round" stroke-miterlimit="10" stroke-width="0.5"/>
      <path id="Path-76" data-name="Path" d="M.2.845V0" transform="translate(19.386 21.642)" fill="none" stroke="#263238" stroke-linecap="round" stroke-linejoin="round" stroke-miterlimit="10" stroke-width="0.5"/>
      <path id="Path-77" data-name="Path" d="M.2,1.3V0" transform="translate(20.612 20.341)" fill="none" stroke="#263238" stroke-linecap="round" stroke-linejoin="round" stroke-miterlimit="10" stroke-width="0.5"/>
      <circle id="Oval-24" data-name="Oval" cx="10.298" cy="10.298" r="10.298" transform="matrix(0.171, -0.985, 0.985, 0.171, 19.893, 47.454)" fill="#fff" stroke="#263238" stroke-linecap="round" stroke-linejoin="round" stroke-miterlimit="10" stroke-width="0.5"/>
      <circle id="Oval-25" data-name="Oval" cx="10.298" cy="10.298" r="10.298" transform="translate(18.215 32.468) rotate(-23.98)" fill="#fff" stroke="#263238" stroke-linecap="round" stroke-linejoin="round" stroke-miterlimit="10" stroke-width="0.5"/>
      <circle id="Oval-26" data-name="Oval" cx="8.721" cy="8.721" r="8.721" transform="translate(19.953 43.484) rotate(-72.474)" fill="#fff" stroke="#263238" stroke-linecap="round" stroke-linejoin="round" stroke-miterlimit="10" stroke-width="0.5"/>
      <path id="Shape-11" data-name="Shape" d="M5.741,13.106a.546.546,0,0,1-.425-.445L4.881,11.03a5.994,5.994,0,0,1-3.075-.216.829.829,0,0,1-.393-.338A.805.805,0,0,1,1.288,10a1.121,1.121,0,0,1,.137-.48A.675.675,0,0,1,1.8,9.2,1.1,1.1,0,0,1,2.4,9.175a2.824,2.824,0,0,1,.354.079c.193.047.362.082.5.106a3.741,3.741,0,0,0,.585.035,3.515,3.515,0,0,0,.752-.083,2.449,2.449,0,0,0,.558-.145,3.574,3.574,0,0,0,.53-.244.941.941,0,0,0,.37-.362.644.644,0,0,0,.051-.5.574.574,0,0,0-.37-.349,1.931,1.931,0,0,0-.814-.126H3.689c-.464,0-.842-.02-1.124-.043a5.58,5.58,0,0,1-.88-.138,2.049,2.049,0,0,1-.732-.3,2.076,2.076,0,0,1-.5-.535,2.737,2.737,0,0,1-.361-.833,2.18,2.18,0,0,1,.55-2.158,4.772,4.772,0,0,1,1.793-1.1L1.979.755A.56.56,0,0,1,2.039.272.611.611,0,0,1,2.4.016a.633.633,0,0,1,.437.056.55.55,0,0,1,.291.392L3.59,2.217a5.915,5.915,0,0,1,.7-.07,6.011,6.011,0,0,1,.742,0c.177.019.393.05.688.1a.985.985,0,0,1,.538.267.792.792,0,0,1,.247.452,1.093,1.093,0,0,1-.032.491.612.612,0,0,1-.322.374,1.1,1.1,0,0,1-.6.106,7.371,7.371,0,0,0-1.792.051,5.516,5.516,0,0,0-.637.165,1.435,1.435,0,0,0-.57.322.464.464,0,0,0-.169.472.572.572,0,0,0,.346.393,2.1,2.1,0,0,0,.787.091L4.73,5.409A10.626,10.626,0,0,1,6,5.472a3.676,3.676,0,0,1,.978.247,1.957,1.957,0,0,1,.762.559,2.837,2.837,0,0,1,.393,2.637,2.842,2.842,0,0,1-1.073,1.293,5.219,5.219,0,0,1-1.021.515l.435,1.631a.562.562,0,0,1-.157.589.614.614,0,0,1-.573.161Z" transform="translate(27.339 31.373)" fill="#263238"/>
      <path id="Path-78" data-name="Path" d="M.2,0V1.3" transform="translate(23.096 43.469)" fill="none" stroke="#263238" stroke-linecap="round" stroke-linejoin="round" stroke-miterlimit="10" stroke-width="0.5"/>
      <path id="Path-79" data-name="Path" d="M.2,0V1.38" transform="translate(24.02 44.774)" fill="none" stroke="#263238" stroke-linecap="round" stroke-linejoin="round" stroke-miterlimit="10" stroke-width="0.5"/>
      <path id="Path-80" data-name="Path" d="M.2,0V1.3" transform="translate(25.86 46.307)" fill="none" stroke="#263238" stroke-linecap="round" stroke-linejoin="round" stroke-miterlimit="10" stroke-width="0.5"/>
      <path id="Path-81" data-name="Path" d="M.2,0V1.152" transform="translate(28.466 47.608)" fill="none" stroke="#263238" stroke-linecap="round" stroke-linejoin="round" stroke-miterlimit="10" stroke-width="0.5"/>
      <path id="Path-82" data-name="Path" d="M.2,0V.535" transform="translate(31.304 48.146)" fill="none" stroke="#263238" stroke-linecap="round" stroke-linejoin="round" stroke-miterlimit="10" stroke-width="0.5"/>
      <path id="Path-83" data-name="Path" d="M.2.841V0" transform="translate(36.901 47.073)" fill="none" stroke="#263238" stroke-linecap="round" stroke-linejoin="round" stroke-miterlimit="10" stroke-width="0.5"/>
      <path id="Path-84" data-name="Path" d="M.2,1.3V0" transform="translate(38.127 45.768)" fill="none" stroke="#263238" stroke-linecap="round" stroke-linejoin="round" stroke-miterlimit="10" stroke-width="0.5"/>
      <path id="Path-85" data-name="Path" d="M19.073,15.69a10.3,10.3,0,1,0-14.15,3.392A10.3,10.3,0,0,0,19.073,15.69Z" transform="translate(21.511 26.835)" fill="#fff" stroke="#263238" stroke-linecap="round" stroke-linejoin="round" stroke-miterlimit="10" stroke-width="0.5"/>
      <circle id="Oval-27" data-name="Oval" cx="10.298" cy="10.298" r="10.298" transform="matrix(0.089, -0.996, 0.996, 0.089, 20.639, 45.108)" fill="#fff" stroke="#263238" stroke-linecap="round" stroke-linejoin="round" stroke-miterlimit="10" stroke-width="0.5"/>
      <path id="Path-86" data-name="Path" d="M2.814,10.719A8.754,8.754,0,0,0,0,0" transform="translate(36.948 28.694)" fill="#fff" stroke="#263238" stroke-linecap="round" stroke-linejoin="round" stroke-miterlimit="10" stroke-width="0.5"/>
      <path id="Path-87" data-name="Path" d="M12.114.672A8.754,8.754,0,1,0,16.1,13.517" transform="translate(23.049 27.008)" fill="#fff" stroke="#263238" stroke-linecap="round" stroke-linejoin="round" stroke-miterlimit="10" stroke-width="0.5"/>
      <path id="Shape-12" data-name="Shape" d="M5.741,13.1a.534.534,0,0,1-.425-.44l-.43-1.614a5.919,5.919,0,0,1-3.08-.234A.84.84,0,0,1,1.288,10a1.1,1.1,0,0,1,.137-.475A.664.664,0,0,1,1.8,9.2,1.145,1.145,0,0,1,2.4,9.173a2.927,2.927,0,0,1,.354.078c.193.048.362.083.5.106a3.268,3.268,0,0,0,.585.04,3.84,3.84,0,0,0,.752-.086,2.728,2.728,0,0,0,.558-.141,3.922,3.922,0,0,0,.53-.244.965.965,0,0,0,.37-.362.645.645,0,0,0,.051-.5.56.56,0,0,0-.37-.349,1.931,1.931,0,0,0-.814-.126H3.689c-.464,0-.842-.02-1.124-.043a6.162,6.162,0,0,1-.88-.141,1.905,1.905,0,0,1-.732-.3,2,2,0,0,1-.5-.535,2.715,2.715,0,0,1-.361-.833,2.179,2.179,0,0,1,.55-2.157A4.77,4.77,0,0,1,2.426,2.481L1.979.753A.559.559,0,0,1,2.039.27a.6.6,0,0,1,.786-.2.553.553,0,0,1,.291.393l.468,1.753a5.679,5.679,0,0,1,.7-.071,5.38,5.38,0,0,1,.742,0,4.761,4.761,0,0,1,.688.1.98.98,0,0,1,.538.264A.815.815,0,0,1,6.5,2.97a1.078,1.078,0,0,1-.032.488.617.617,0,0,1-.322.392,1.168,1.168,0,0,1-.6.106A7.238,7.238,0,0,0,3.76,4q-.306.066-.637.165a1.434,1.434,0,0,0-.57.327.463.463,0,0,0-.169.472.569.569,0,0,0,.346.393,2.009,2.009,0,0,0,.787.09l1.214-.02A9.918,9.918,0,0,1,6,5.49a3.789,3.789,0,0,1,.978.251,1.879,1.879,0,0,1,.762.558,2.829,2.829,0,0,1,.393,2.638,2.821,2.821,0,0,1-1.073,1.289,5.139,5.139,0,0,1-1.016.515l.43,1.608a.558.558,0,0,1-.157.59.614.614,0,0,1-.573.161Z" transform="translate(27.339 29.434)" fill="#263238"/>
      <path id="Path-88" data-name="Path" d="M.2,0V1.3" transform="translate(23.096 41.527)" fill="none" stroke="#263238" stroke-linecap="round" stroke-linejoin="round" stroke-miterlimit="10" stroke-width="0.5"/>
      <path id="Path-89" data-name="Path" d="M.2,0V1.38" transform="translate(24.02 42.832)" fill="none" stroke="#263238" stroke-linecap="round" stroke-linejoin="round" stroke-miterlimit="10" stroke-width="0.5"/>
      <path id="Path-90" data-name="Path" d="M.2,0V1.3" transform="translate(25.86 44.365)" fill="none" stroke="#263238" stroke-linecap="round" stroke-linejoin="round" stroke-miterlimit="10" stroke-width="0.5"/>
      <path id="Path-91" data-name="Path" d="M.2,0V1.148" transform="translate(28.466 45.67)" fill="none" stroke="#263238" stroke-linecap="round" stroke-linejoin="round" stroke-miterlimit="10" stroke-width="0.5"/>
      <path id="Path-92" data-name="Path" d="M.2,0V.538" transform="translate(31.304 46.205)" fill="none" stroke="#263238" stroke-linecap="round" stroke-linejoin="round" stroke-miterlimit="10" stroke-width="0.5"/>
      <path id="Path-93" data-name="Path" d="M.2.845V0" transform="translate(36.901 45.132)" fill="none" stroke="#263238" stroke-linecap="round" stroke-linejoin="round" stroke-miterlimit="10" stroke-width="0.5"/>
      <path id="Path-94" data-name="Path" d="M.2,1.3V0" transform="translate(38.127 43.831)" fill="none" stroke="#263238" stroke-linecap="round" stroke-linejoin="round" stroke-miterlimit="10" stroke-width="0.5"/>
      <circle id="Oval-28" data-name="Oval" cx="10.298" cy="10.298" r="10.298" transform="translate(0.859 41.941) rotate(-34.4)" fill="#fff" stroke="#263238" stroke-linecap="round" stroke-linejoin="round" stroke-miterlimit="10" stroke-width="0.5"/>
      <circle id="Oval-29" data-name="Oval" cx="10.298" cy="10.298" r="10.298" transform="translate(2.732 35.691) rotate(-13.65)" fill="#fff" stroke="#263238" stroke-linecap="round" stroke-linejoin="round" stroke-miterlimit="10" stroke-width="0.5"/>
      <path id="Path-95" data-name="Path" d="M.287,15.691A8.75,8.75,0,0,0,5.015,8.235,8.75,8.75,0,0,0,.841.456,8.317,8.317,0,0,0,0,0" transform="translate(18.91 35.336)" fill="#fff" stroke="#263238" stroke-linecap="round" stroke-linejoin="round" stroke-miterlimit="10" stroke-width="0.5"/>
      <path id="Path-96" data-name="Path" d="M0,.393A8.824,8.824,0,0,0,2.751,0" transform="translate(15.086 51.613)" fill="#fff" stroke="#263238" stroke-linecap="round" stroke-linejoin="round" stroke-miterlimit="10" stroke-width="0.5"/>
      <path id="Path-97" data-name="Path" d="M0,0A8.718,8.718,0,0,0,3.227,1.179" transform="translate(10.613 50.705)" fill="#fff" stroke="#263238" stroke-linecap="round" stroke-linejoin="round" stroke-miterlimit="10" stroke-width="0.5"/>
      <path id="Path-98" data-name="Path" d="M11.209.351a8.757,8.757,0,0,0-9.19,14" transform="translate(6.424 34.498)" fill="#fff" stroke="#263238" stroke-linecap="round" stroke-linejoin="round" stroke-miterlimit="10" stroke-width="0.5"/>
      <path id="Shape-13" data-name="Shape" d="M1.625,11.845a.622.622,0,0,1-.515-.306.554.554,0,0,1,.028-.614l.874-1.419a5.983,5.983,0,0,1-1.948-2.4.859.859,0,0,1-.039-.531.811.811,0,0,1,.259-.42,1.14,1.14,0,0,1,.44-.232.689.689,0,0,1,.491.051,1.078,1.078,0,0,1,.436.42c.023.035.086.138.188.311s.189.319.264.437a3.506,3.506,0,0,0,.393.448,3.5,3.5,0,0,0,.581.487,2.6,2.6,0,0,0,.488.3,3.433,3.433,0,0,0,.542.216.93.93,0,0,0,.516,0,.648.648,0,0,0,.392-.307.564.564,0,0,0,0-.507,1.917,1.917,0,0,0-.5-.676l-.845-.893c-.315-.342-.563-.621-.743-.845a5.487,5.487,0,0,1-.507-.734,2.065,2.065,0,0,1-.283-.74,2.146,2.146,0,0,1,.04-.731,2.78,2.78,0,0,1,.357-.837A2.18,2.18,0,0,1,4.478,1.24a4.817,4.817,0,0,1,2.074.569L7.469.3A.576.576,0,0,1,7.862.01a.6.6,0,0,1,.428.083.618.618,0,0,1,.26.357A.559.559,0,0,1,8.48.918L7.538,2.472a5.584,5.584,0,0,1,.5.427,5.026,5.026,0,0,1,.508.546,6.82,6.82,0,0,1,.393.57.979.979,0,0,1,.176.571.784.784,0,0,1-.158.495,1.083,1.083,0,0,1-.392.314.594.594,0,0,1-.491.024,1.11,1.11,0,0,1-.491-.358A7.443,7.443,0,0,0,6.31,3.8c-.173-.118-.357-.236-.562-.35a1.358,1.358,0,0,0-.625-.184.454.454,0,0,0-.455.2.56.56,0,0,0-.059.53,2.088,2.088,0,0,0,.488.645l.852.864a10.26,10.26,0,0,1,.83.959,3.722,3.722,0,0,1,.491.88,1.893,1.893,0,0,1,.122.94,2.83,2.83,0,0,1-1.627,2.111A2.838,2.838,0,0,1,4.09,10.5a5.226,5.226,0,0,1-1.056-.373l-.874,1.419a.55.55,0,0,1-.488.3Z" transform="translate(10.026 37.307)" fill="#263238"/>
      <path id="Path-99" data-name="Path" d="M.2,0V1.3" transform="translate(6.466 49.019)" fill="none" stroke="#263238" stroke-linecap="round" stroke-linejoin="round" stroke-miterlimit="10" stroke-width="0.5"/>
      <path id="Path-100" data-name="Path" d="M.2,0V1.384" transform="translate(7.386 50.32)" fill="none" stroke="#263238" stroke-linecap="round" stroke-linejoin="round" stroke-miterlimit="10" stroke-width="0.5"/>
      <path id="Path-101" data-name="Path" d="M.2,0V1.3" transform="translate(9.225 51.857)" fill="none" stroke="#263238" stroke-linecap="round" stroke-linejoin="round" stroke-miterlimit="10" stroke-width="0.5"/>
      <path id="Path-102" data-name="Path" d="M.2,0V1.152" transform="translate(11.831 53.158)" fill="none" stroke="#263238" stroke-linecap="round" stroke-linejoin="round" stroke-miterlimit="10" stroke-width="0.5"/>
      <path id="Path-103" data-name="Path" d="M.2,0V.535" transform="translate(14.669 53.696)" fill="none" stroke="#263238" stroke-linecap="round" stroke-linejoin="round" stroke-miterlimit="10" stroke-width="0.5"/>
      <path id="Path-104" data-name="Path" d="M.2.841V0" transform="translate(20.266 52.623)" fill="none" stroke="#263238" stroke-linecap="round" stroke-linejoin="round" stroke-miterlimit="10" stroke-width="0.5"/>
      <path id="Path-105" data-name="Path" d="M.2,1.3V0" transform="translate(21.493 51.318)" fill="none" stroke="#263238" stroke-linecap="round" stroke-linejoin="round" stroke-miterlimit="10" stroke-width="0.5"/>
    </g>
  </g>
</svg>
