<svg xmlns="http://www.w3.org/2000/svg" width="177.959" height="161.135" viewBox="0 0 177.959 161.135">
  <g id="_403_Error_Forbidden-bro" data-name="403 Error Forbidden-bro" transform="translate(0.093 -0.407)">
    <g id="freepik--background-simple--inject-2" transform="translate(6.8)">
      <path id="Path" d="M.053,86.178s.986,30.6,26.533,51,60.949,21.858,89.607,23.8,50.673-14.288,53.975-38.811S151.586,90.445,139.7,62.527,128.9,25.433,103.757,8.263,39.289,1.637,18.672,31.043.053,86.178.053,86.178Z" transform="translate(0.151 0.407)" fill="#adc7f7"/>
      <path id="Path-2" data-name="Path" d="M.053,86.178s.986,30.6,26.533,51,60.949,21.858,89.607,23.8,50.673-14.288,53.975-38.811S151.586,90.445,139.7,62.527,128.9,25.433,103.757,8.263,39.289,1.637,18.672,31.043.053,86.178.053,86.178Z" transform="translate(0.151 0.407)" fill="#fff" opacity="0.7"/>
    </g>
    <g id="freepik--Padlock--inject-2" transform="translate(11.05 15.725)">
      <path id="Path-3" data-name="Path" d="M5.725,30.617V19.665A14.229,14.229,0,0,1,20.086,5.606,14.229,14.229,0,0,1,34.446,19.665V30.617h5.725V19.665A19.9,19.9,0,0,0,20.086,0,19.9,19.9,0,0,0,0,19.665V30.617Z" transform="translate(2.184 0.276)" fill="none" stroke="#263238" stroke-linecap="round" stroke-linejoin="round" stroke-miterlimit="10" stroke-width="0.5"/>
      <rect id="Rectangle" width="43.852" height="36.274" transform="translate(0.06 30.97)" fill="none" stroke="#263238" stroke-linecap="round" stroke-linejoin="round" stroke-miterlimit="10" stroke-width="0.5"/>
      <path id="Path-4" data-name="Path" d="M9.55,4.635a4.777,4.777,0,0,0-9.55,0A4.675,4.675,0,0,0,2.507,8.749l-.8,8.236H7.845l-.8-8.236A4.675,4.675,0,0,0,9.55,4.635Z" transform="translate(16.996 41.401)" fill="none" stroke="#263238" stroke-linecap="round" stroke-linejoin="round" stroke-miterlimit="10" stroke-width="0.5"/>
    </g>
    <g id="freepik--Padlock--inject-2-2" data-name="freepik--Padlock--inject-2" transform="translate(123 16)">
      <path id="Path-5" data-name="Path" d="M2.862,15.309V9.832A7.114,7.114,0,0,1,10.043,2.8a7.114,7.114,0,0,1,7.18,7.029v5.476h2.862V9.832A9.951,9.951,0,0,0,10.043,0,9.951,9.951,0,0,0,0,9.832v5.476Z" transform="translate(1.092 0.138)" fill="none" stroke="#263238" stroke-linecap="round" stroke-linejoin="round" stroke-miterlimit="10" stroke-width="0.5"/>
      <rect id="Rectangle-2" data-name="Rectangle" width="21.926" height="18.137" transform="translate(0.03 15.485)" fill="none" stroke="#263238" stroke-linecap="round" stroke-linejoin="round" stroke-miterlimit="10" stroke-width="0.5"/>
      <path id="Path-6" data-name="Path" d="M4.775,2.317A2.389,2.389,0,0,0,0,2.317,2.337,2.337,0,0,0,1.254,4.374l-.4,4.118H3.923l-.4-4.118A2.338,2.338,0,0,0,4.775,2.317Z" transform="translate(8.498 20.701)" fill="none" stroke="#263238" stroke-linecap="round" stroke-linejoin="round" stroke-miterlimit="10" stroke-width="0.5"/>
    </g>
    <g id="freepik--Character--inject-2" transform="translate(40.375 27.2)">
      <path id="Path-7" data-name="Path" d="M32.572.9,21.654.178V0L20.311.089,18.972,0V.178L8.054.9,0,67.112H8.054L20.043,14.318h.54L32.572,67.112h8.054L32.572.9Z" transform="translate(9.35 56.049)" fill="#263238" stroke="#263238" stroke-linecap="round" stroke-linejoin="round" stroke-miterlimit="10" stroke-width="0.5"/>
      <path id="Path-8" data-name="Path" d="M9.125,0,7.157,3.043,1.071,5.729A2.074,2.074,0,0,0,0,7.518V9.843H17.357a23.04,23.04,0,0,0,0-3.757C17.178,4.3,17.178,0,17.178,0Z" transform="translate(0.225 123.157)" fill="#4c4c4c" stroke="#263238" stroke-linecap="round" stroke-linejoin="round" stroke-miterlimit="10" stroke-width="0.5"/>
      <path id="Path-9" data-name="Path" d="M0,0V1.968H17.357s.081-.85.081-1.968Z" transform="translate(0.225 131.032)" fill="#263238" stroke="#263238" stroke-linecap="round" stroke-linejoin="round" stroke-miterlimit="10" stroke-width="0.5"/>
      <path id="Path-10" data-name="Path" d="M8.309,0l1.968,3.043,6.086,2.686a2.074,2.074,0,0,1,1.071,1.789V9.843H.077a23.039,23.039,0,0,1,0-3.757C.255,4.3.255,0,.255,0Z" transform="translate(41.633 123.157)" fill="#4c4c4c" stroke="#263238" stroke-linecap="round" stroke-linejoin="round" stroke-miterlimit="10" stroke-width="0.5"/>
      <path id="Path-11" data-name="Path" d="M17.446,0V1.968H.081S0,1.118,0,0Z" transform="translate(41.629 131.032)" fill="#263238" stroke="#263238" stroke-linecap="round" stroke-linejoin="round" stroke-miterlimit="10" stroke-width="0.5"/>
      <path id="Path-12" data-name="Path" d="M12.75,0S0,17.918,0,19.231,2.027,30.685,5.249,31.637s5.011-.714,5.606-4.054-1.432-8.113-1.432-8.113l5.95-5.368Z" transform="translate(0.03 26.142)" fill="#adc7f7" stroke="#263238" stroke-linecap="round" stroke-linejoin="round" stroke-miterlimit="10" stroke-width="0.5"/>
      <path id="Path-13" data-name="Path" d="M3.52.417A22.865,22.865,0,0,1,8.174.056c.956.238,1.67,2.508,1.67,2.508S10.2,5.9,9.6,6.618s-3.46,1.551-4.65,1.789S1.251,5.9.277,4.234A2.775,2.775,0,0,1,3.52.417Z" transform="translate(6.786 52.831)" fill="#ccc" stroke="#263238" stroke-linecap="round" stroke-linejoin="round" stroke-miterlimit="10" stroke-width="0.5"/>
      <path id="Path-14" data-name="Path" d="M2.682,3.09,0,3.9,4.225,32.1H29.333L33.154,4.063l-3.413-1.3L17.145,0,2.682,3.09Z" transform="translate(12.78 22.24)" fill="#adc7f7" stroke="#263238" stroke-linecap="round" stroke-linejoin="round" stroke-miterlimit="10" stroke-width="0.5"/>
      <path id="Path-15" data-name="Path" d="M9.427.327,8.861,4.39,4.471,5.444,0,3.659.327,0l9.1.327Z" transform="translate(34.068 34.429)" fill="#263238" stroke="#263238" stroke-linecap="round" stroke-linejoin="round" stroke-miterlimit="10" stroke-width="0.5"/>
      <circle id="Oval" cx="0.774" cy="0.774" r="0.774" transform="translate(38.05 37.272)" fill="#4c4c4c" stroke="#263238" stroke-linecap="round" stroke-linejoin="round" stroke-miterlimit="10" stroke-width="0.5"/>
      <path id="Path-16" data-name="Path" d="M.65,3.413,3.009,6.175,0,25.351l3.171,5.041,3.74-5.283L3.74,6.256l2.682-2.6L3.579,0,.65,3.413Z" transform="translate(26.592 24.029)" fill="#263238" stroke="#263238" stroke-linecap="round" stroke-linejoin="round" stroke-miterlimit="10" stroke-width="0.5"/>
      <path id="Path-17" data-name="Path" d="M10.808,0,0,2.682l.327,1.3L10.889,1.054,10.808,0Z" transform="translate(14.161 22.648)" fill="#263238" stroke="#263238" stroke-linecap="round" stroke-linejoin="round" stroke-miterlimit="10" stroke-width="0.5"/>
      <path id="Path-18" data-name="Path" d="M.081,0,10.889,2.682l-.323,1.3L0,1.058.081,0Z" transform="translate(33.745 22.321)" fill="#263238" stroke="#263238" stroke-linecap="round" stroke-linejoin="round" stroke-miterlimit="10" stroke-width="0.5"/>
      <path id="Path-19" data-name="Path" d="M1.976,0A29.359,29.359,0,0,1,8.567,2.355c2.5,1.432,3.1,4.654,1.67,8.232s-5.844,3.1-7.871,2.125S-.26,8.181.1,6.63" transform="translate(42.649 25.003)" fill="#adc7f7" stroke="#263238" stroke-linecap="round" stroke-linejoin="round" stroke-miterlimit="10" stroke-width="0.5"/>
      <path id="Path-20" data-name="Path" d="M1.22.247,0,1.058.323,9.265,5.606,5.529l5.525,3.816L11.62,1.22,10.158,0,1.22.247Z" transform="translate(24.238 21.021)" fill="#adc7f7" stroke="#263238" stroke-linecap="round" stroke-linejoin="round" stroke-miterlimit="10" stroke-width="0.5"/>
      <path id="Path-21" data-name="Path" d="M15.3,11.1a5,5,0,0,0,3.566-3.731c.565-3-4.841-6.651-8.589-7.3S1.034,3.314.141,5.992s2.593,5.351,6.324,5.92S15.3,11.1,15.3,11.1Z" transform="translate(20.824 0.405)" fill="#263238" stroke="#263238" stroke-linecap="round" stroke-linejoin="round" stroke-miterlimit="10" stroke-width="0.5"/>
      <path id="Path-22" data-name="Path" d="M2.088,1.222S.465-1.294.061.895A2.387,2.387,0,0,0,2.088,3.976C2.819,3.9,2.088,1.222,2.088,1.222Z" transform="translate(22.851 10.772)" fill="#ccc" stroke="#263238" stroke-linecap="round" stroke-linejoin="round" stroke-miterlimit="10" stroke-width="0.5"/>
      <path id="Path-23" data-name="Path" d="M.334,1.222S1.958-1.294,2.362.895A2.377,2.377,0,0,1,.334,3.976C-.418,3.9.334,1.222.334,1.222Z" transform="translate(35.149 10.772)" fill="#ccc" stroke="#263238" stroke-linecap="round" stroke-linejoin="round" stroke-miterlimit="10" stroke-width="0.5"/>
      <path id="Path-24" data-name="Path" d="M0,0V5.364L4.548,9.592,9.669,5.2V.166L0,0Z" transform="translate(25.296 16.958)" fill="#ccc" stroke="#263238" stroke-linecap="round" stroke-linejoin="round" stroke-miterlimit="10" stroke-width="0.5"/>
      <path id="Path-25" data-name="Path" d="M.074,3.655s-.247,5.028.162,6.651,3.081,5.028,5.189,5.759,5.028-3.651,5.678-5.1.4-7.625.4-7.625A5.383,5.383,0,0,0,8.833.587C7.048-.042,1.532-1.19.074,3.655Z" transform="translate(24.542 6.715)" fill="#ccc" stroke="#263238" stroke-linecap="round" stroke-linejoin="round" stroke-miterlimit="10" stroke-width="0.5"/>
      <path id="Path-26" data-name="Path" d="M.782.693c0,.383-.174.693-.391.693S0,1.075,0,.693.174,0,.391,0,.782.31.782.693Z" transform="translate(27.204 12.346)" fill="#263238"/>
      <path id="Path-27" data-name="Path" d="M.782.693c0,.383-.174.693-.391.693S0,1.075,0,.693.174,0,.391,0,.782.31.782.693Z" transform="translate(32.181 12.346)" fill="#263238"/>
      <path id="Path-28" data-name="Path" d="M.67.015a.544.544,0,1,0,0,1.058A.739.739,0,0,0,1.142.916,1.364,1.364,0,0,0,3.191.95a.765.765,0,0,0,.425.123.544.544,0,1,0,0-1.058" transform="translate(28.162 14.962)" fill="#ccc" stroke="#263238" stroke-linecap="round" stroke-linejoin="round" stroke-miterlimit="10" stroke-width="0.5"/>
      <path id="Path-29" data-name="Path" d="M0,.213H1.7" transform="translate(29.478 18.092)" fill="#ccc" stroke="#263238" stroke-linecap="round" stroke-linejoin="round" stroke-miterlimit="10" stroke-width="0.5"/>
      <path id="Path-30" data-name="Path" d="M0,2.4S.06,4.028.6,3.6,1.326.407.846.046,0,1.555,0,2.4Z" transform="translate(24.429 9.194)" fill="#263238" stroke="#263238" stroke-linecap="round" stroke-linejoin="round" stroke-miterlimit="10" stroke-width="0.5"/>
      <path id="Path-31" data-name="Path" d="M0,2.4S.064,4.028.6,3.6,1.33.407.846.046,0,1.555,0,2.4Z" transform="translate(34.897 9.194)" fill="#263238" stroke="#263238" stroke-linecap="round" stroke-linejoin="round" stroke-miterlimit="10" stroke-width="0.5"/>
      <path id="Path-32" data-name="Path" d="M.049,4.17s.183.149.179.221A13.119,13.119,0,0,0,5.752,5.755,11.288,11.288,0,0,0,11.7,4.3V3.949A4.024,4.024,0,0,0,8.472.3a8.317,8.317,0,0,0-5.2.259A5.1,5.1,0,0,0,1.116,2.109C.9,2.347-.249,3.932.049,4.17Z" transform="translate(24.38 6.094)" fill="#4c4c4c" stroke="#263238" stroke-linecap="round" stroke-linejoin="round" stroke-miterlimit="10" stroke-width="0.5"/>
      <path id="Path-33" data-name="Path" d="M0,0A19.206,19.206,0,0,0,5.525.4C9.014.242,11.441,0,11.441,0A9.622,9.622,0,0,1,5.576,2.576,6.435,6.435,0,0,1,0,0Z" transform="translate(24.616 10.37)" fill="#4c4c4c" stroke="#263238" stroke-linecap="round" stroke-linejoin="round" stroke-miterlimit="10" stroke-width="0.5"/>
      <path id="Path-34" data-name="Path" d="M0,.327.565,4.39l4.39,1.054L9.422,3.659,9.1,0,0,.327Z" transform="translate(15.708 34.429)" fill="#263238" stroke="#263238" stroke-linecap="round" stroke-linejoin="round" stroke-miterlimit="10" stroke-width="0.5"/>
      <circle id="Oval-2" data-name="Oval" cx="0.774" cy="0.774" r="0.774" transform="translate(19.605 37.272)" fill="#4c4c4c" stroke="#263238" stroke-linecap="round" stroke-linejoin="round" stroke-miterlimit="10" stroke-width="0.5"/>
      <rect id="Rectangle-3" data-name="Rectangle" width="25.768" height="4.055" transform="translate(16.63 54.081)" fill="#4c4c4c" stroke="#263238" stroke-linecap="round" stroke-linejoin="round" stroke-miterlimit="10" stroke-width="0.5"/>
      <rect id="Rectangle-4" data-name="Rectangle" width="7.875" height="5.011" rx="1.135" transform="translate(14.841 54.319)" fill="#4c4c4c" stroke="#263238" stroke-linecap="round" stroke-linejoin="round" stroke-miterlimit="10" stroke-width="0.5"/>
      <rect id="Rectangle-5" data-name="Rectangle" width="7.875" height="5.011" rx="1.135" transform="translate(35.36 54.319)" fill="#4c4c4c" stroke="#263238" stroke-linecap="round" stroke-linejoin="round" stroke-miterlimit="10" stroke-width="0.5"/>
      <rect id="Rectangle-6" data-name="Rectangle" width="5.606" height="3.579" transform="translate(27.128 54.319)" fill="#fff" stroke="#263238" stroke-linecap="round" stroke-linejoin="round" stroke-miterlimit="10" stroke-width="0.5"/>
      <path id="Path-35" data-name="Path" d="M4.892,2.507S1.313,2.27,0,0" transform="translate(4.577 43.104)" fill="none" stroke="#263238" stroke-linecap="round" stroke-linejoin="round" stroke-miterlimit="10" stroke-width="0.5"/>
      <ellipse id="Oval-3" data-name="Oval" cx="5.907" cy="6.205" rx="5.907" ry="6.205" transform="translate(43.35 22.704)" fill="#adc7f7" stroke="#263238" stroke-linecap="round" stroke-linejoin="round" stroke-miterlimit="10" stroke-width="0.5"/>
      <ellipse id="Oval-4" data-name="Oval" cx="4.624" cy="4.144" rx="4.624" ry="4.144" transform="translate(44.633 21.624)" fill="#adc7f7" stroke="#263238" stroke-linecap="round" stroke-linejoin="round" stroke-miterlimit="10" stroke-width="0.5"/>
      <ellipse id="Oval-5" data-name="Oval" cx="4.624" cy="4.144" rx="4.624" ry="4.144" transform="translate(44.633 18.577)" fill="#ccc" stroke="#263238" stroke-linecap="round" stroke-linejoin="round" stroke-miterlimit="10" stroke-width="0.5"/>
      <path id="Path-36" data-name="Path" d="M0,8.118s.081,6.111.391,7.914,1.568,4.152,3.294,4.152a10.85,10.85,0,0,0,3.37-.625,7.277,7.277,0,0,0,4,.782c1.959-.315,1.645-3.056,1.645-4.25s-.234-10.03-.234-10.03a.854.854,0,0,0-.629-1.016,6.715,6.715,0,0,0-1.173-.157V3A1.428,1.428,0,0,0,9.325,2.38c-1.016,0-1.1.234-1.1.234V.888S7.378-.484,6.269.183a1.564,1.564,0,0,0-.782,1.254L5.406,3.086S3.527,2.38,3.37,3.477,2.9,11.331,2.9,11.331a17.366,17.366,0,0,0-.625-3.137C1.883,7.174,0,7.174,0,8.118Z" transform="translate(41.828 5.669)" fill="#ccc" stroke="#263238" stroke-linecap="round" stroke-linejoin="round" stroke-miterlimit="10" stroke-width="0.5"/>
      <path id="Path-37" data-name="Path" d="M.134,0,.291,7.208" transform="translate(47.101 8.772)" fill="none" stroke="#263238" stroke-linecap="round" stroke-linejoin="round" stroke-miterlimit="10" stroke-width="0.5"/>
      <path id="Path-38" data-name="Path" d="M.172,0,.253,7.756" transform="translate(49.884 8.3)" fill="none" stroke="#263238" stroke-linecap="round" stroke-linejoin="round" stroke-miterlimit="10" stroke-width="0.5"/>
      <path id="Path-39" data-name="Path" d="M.291,0,.134,5.406" transform="translate(52.196 10.574)" fill="none" stroke="#263238" stroke-linecap="round" stroke-linejoin="round" stroke-miterlimit="10" stroke-width="0.5"/>
      <path id="Path-40" data-name="Path" d="M0,.057l7.131.31" transform="translate(46.219 15.846)" fill="none" stroke="#263238" stroke-linecap="round" stroke-linejoin="round" stroke-miterlimit="10" stroke-width="0.5"/>
      <path id="Path-41" data-name="Path" d="M0,0A1.917,1.917,0,0,0,.769,1.521,5.384,5.384,0,0,1,3.477,5.3" transform="translate(44.727 17)" fill="none" stroke="#263238" stroke-linecap="round" stroke-linejoin="round" stroke-miterlimit="10" stroke-width="0.5"/>
    </g>
    <g id="freepik--security-barrier--inject-2" transform="translate(6.8 94.775)">
      <path id="Path-42" data-name="Path" d="M6.061,56.317H0L8.079,0h6.06L6.061,56.317Z" transform="translate(7.484 8.921)" fill="#263238" stroke="#263238" stroke-miterlimit="10" stroke-width="0.5"/>
      <path id="Path-43" data-name="Path" d="M8.079,56.317h6.056L6.056,0H0L8.079,56.317Z" transform="translate(17.587 8.921)" fill="#fff" stroke="#263238" stroke-miterlimit="10" stroke-width="0.5"/>
      <path id="Path-44" data-name="Path" d="M6.056,56.317H0L8.075,0h6.061L6.056,56.317Z" transform="translate(93.47 8.921)" fill="#263238" stroke="#263238" stroke-miterlimit="10" stroke-width="0.5"/>
      <path id="Path-45" data-name="Path" d="M8.079,56.317h6.056L6.056,0H0L8.079,56.317Z" transform="translate(103.568 8.921)" fill="#fff" stroke="#263238" stroke-miterlimit="10" stroke-width="0.5"/>
      <rect id="Rectangle-7" data-name="Rectangle" width="115.57" height="11.203" transform="translate(0.31 0.089)" fill="#adc7f7" stroke="#263238" stroke-miterlimit="10" stroke-width="0.5"/>
      <rect id="Rectangle-8" data-name="Rectangle" width="115.57" height="11.203" transform="translate(3.128 0.089)" fill="#adc7f7" stroke="#263238" stroke-miterlimit="10" stroke-width="0.5"/>
      <path id="Path-46" data-name="Path" d="M0,11.2H9.809L14.879,0H5.07L0,11.2Z" transform="translate(5.019 0.089)" fill="#263238"/>
      <path id="Path-47" data-name="Path" d="M14.879,0H5.07L0,11.2H9.809L14.879,0Z" transform="translate(28.968 0.089)" fill="#263238"/>
      <path id="Path-48" data-name="Path" d="M14.875,0H5.066L0,11.2H9.809L14.875,0Z" transform="translate(100.814 0.089)" fill="#263238"/>
      <path id="Path-49" data-name="Path" d="M14.879,0H5.066L0,11.2H9.809L14.879,0Z" transform="translate(76.866 0.089)" fill="#263238"/>
      <path id="Path-50" data-name="Path" d="M14.879,0H5.07L0,11.2H9.809L14.879,0Z" transform="translate(52.917 0.089)" fill="#263238"/>
      <path id="Path-51" data-name="Path" d="M19.125.213H0" transform="translate(98.94 4.845)" fill="none" stroke="#263238" stroke-miterlimit="10" stroke-width="0.5"/>
      <path id="Path-52" data-name="Path" d="M3.017.213H0" transform="translate(114.712 6.719)" fill="none" stroke="#263238" stroke-miterlimit="10" stroke-width="0.5"/>
      <path id="Path-53" data-name="Path" d="M0,.213H19.125" transform="translate(2.639 6.252)" fill="none" stroke="#263238" stroke-miterlimit="10" stroke-width="0.5"/>
      <path id="Path-54" data-name="Path" d="M0,.213H24.157" transform="translate(2.975 4.144)" fill="none" stroke="#263238" stroke-miterlimit="10" stroke-width="0.5"/>
      <rect id="Rectangle-9" data-name="Rectangle" width="32.785" height="2.461" transform="translate(117.457 62.781)" fill="#263238" stroke="#263238" stroke-linecap="round" stroke-linejoin="round" stroke-miterlimit="10" stroke-width="0.5"/>
      <path id="Path-55" data-name="Path" d="M21.718,46.308H0L8.513,0H13.2l8.513,46.308Z" transform="translate(122.991 16.405)" fill="#adc7f7" stroke="#263238" stroke-linecap="round" stroke-linejoin="round" stroke-miterlimit="10" stroke-width="0.5"/>
      <path id="Path-56" data-name="Path" d="M0,5.738H11.02L9.962,0H1.054L0,5.738Z" transform="translate(128.342 27.88)" fill="#fff" stroke="#263238" stroke-linecap="round" stroke-linejoin="round" stroke-miterlimit="10" stroke-width="0.5"/>
      <path id="Path-57" data-name="Path" d="M0,0,.544,3.166" transform="translate(141.444 54.982)" fill="#adc7f7" stroke="#263238" stroke-linecap="round" stroke-linejoin="round" stroke-miterlimit="10" stroke-width="0.5"/>
      <path id="Path-58" data-name="Path" d="M0,0,5.516,32.036" transform="translate(135.243 18.963)" fill="#adc7f7" stroke="#263238" stroke-linecap="round" stroke-linejoin="round" stroke-miterlimit="10" stroke-width="0.5"/>
    </g>
    <g id="freepik--Floor--inject-2" transform="translate(0 159.8)">
      <path id="Path-59" data-name="Path" d="M0,.213H2.937" transform="translate(174.679)" fill="none" stroke="#263238" stroke-linecap="round" stroke-linejoin="round" stroke-miterlimit="10" stroke-width="0.5"/>
      <path id="Path-60" data-name="Path" d="M0,.213H170.421" transform="translate(0.157)" fill="none" stroke="#263238" stroke-linecap="round" stroke-linejoin="round" stroke-miterlimit="10" stroke-width="0.5"/>
    </g>
  </g>
</svg>
