<svg xmlns="http://www.w3.org/2000/svg" width="189.975" height="168.52" viewBox="0 0 189.975 168.52">
  <g id="Ok-bro" transform="translate(-0.32 -0.158)">
    <g id="freepik--background-simple--inject-81">
      <path id="Path" d="M179.88,28.874S167.534,4.152,140.266.488,93.941,14.679,73.889,23.838c-10.506,4.794-22.525,2.933-33.664,5.253C4.546,36.511-8.892,83.006,5.966,109.446c12.865,22.891,35.5,34.79,69.976,37.54s58.65,5.95,89.526-16.482S194.279,61.378,179.88,28.874Z" transform="translate(0.32 0.158)" fill="#adc7f7"/>
      <path id="Path-2" data-name="Path" d="M179.88,28.874S167.534,4.152,140.266.488,93.941,14.679,73.889,23.838c-10.506,4.794-22.525,2.933-33.664,5.253C4.546,36.511-8.892,83.006,5.966,109.446c12.865,22.891,35.5,34.79,69.976,37.54s58.65,5.95,89.526-16.482S194.279,61.378,179.88,28.874Z" transform="translate(0.32 0.158)" fill="#fff" opacity="0.7"/>
    </g>
    <g id="freepik--Plants--inject-81" transform="translate(138.975 62.475)">
      <path id="Path-3" data-name="Path" d="M35.479,75.459c1.471-8.453,15.436-24.625,11.394-34.548S32.9,62.586,29.228,62.964s-.365-14.335,4.781-28.3,9.189-28.67,0-34.183S25.186,38.705,22.98,37.235s1.47-19.847-1.1-31.242-8.453-2.206-8.453,11.05,4.042,20.583,1.1,21.675S2.563,35.7,2.767,50.112s11.394,31.612,7.348,29.406S-1.279,68.859.192,82.459c1.041,9.614,8.5,18.853,12.793,23.447H32.636a76.865,76.865,0,0,0,12.75-17.2C50.915,78.035,34.009,83.917,35.479,75.459Z" transform="translate(0.127 0.042)" fill="#adc7f7"/>
      <path id="Path-4" data-name="Path" d="M7.527,92.878C3.889,87.663,2.189,81.288.489,75.338c-.85-3.825-.85-8.075,2.125-10.625,2.975-2.125,4.675,1.7,6.375,3.4,1.275-.85.425-2.125.425-2.975a164.318,164.318,0,0,1-1.275-20.4c0-4.25,1.7-7.65,3.4-11.475.85-1.275,1.7-2.55,2.975-2.975a2.2,2.2,0,0,1,2.975,1.275c.85,2.975.85,5.95,1.275,8.925.85-.85.425-2.125.425-2.975,1.7-12.325.425-24.225,4.25-36.125.425-.85,1.7-1.7,2.55-1.275,2.975.425,2.975,4.25,2.975,6.8,1.7,12.325-2.125,24.225-3.4,36.55,0,.85-.425,1.7.425,2.55.425-2.975,2.125-5.95,2.975-8.925a7.644,7.644,0,0,1,2.55-3.825c.85-.425,1.7,0,2.55.85a10.881,10.881,0,0,1,1.7,8.075c-1.275,7.225-3.825,13.175-6.8,19.55l-1.275,3.825c-.425,2.55-2.125,5.525-.425,7.65,2.975-.425,3.825-3.825,6.375-5.525s3.4.425,3.825,2.125c1.7,8.5-1.275,16.15-5.559,23.048" transform="translate(4.186 12.212)" fill="none" stroke="#263238" stroke-linecap="round" stroke-linejoin="round" stroke-miterlimit="10" stroke-width="0.5"/>
      <path id="Path-5" data-name="Path" d="M.2,37.978S-.8,18.118,1.687,0" transform="translate(23.422 65.488)" fill="none" stroke="#263238" stroke-linecap="round" stroke-linejoin="round" stroke-miterlimit="10" stroke-width="0.5"/>
      <path id="Path-6" data-name="Path" d="M0,0,8.19,8.938l7.2-6.209" transform="translate(15.427 90.805)" fill="none" stroke="#263238" stroke-linecap="round" stroke-linejoin="round" stroke-miterlimit="10" stroke-width="0.5"/>
      <path id="Path-7" data-name="Path" d="M0,0,2.236,11.415,8.691,0" transform="translate(21.382 68.467)" fill="none" stroke="#263238" stroke-linecap="round" stroke-linejoin="round" stroke-miterlimit="10" stroke-width="0.5"/>
      <path id="Path-8" data-name="Path" d="M0,10.672,1.487,0" transform="translate(25.355 51.837)" fill="none" stroke="#263238" stroke-linecap="round" stroke-linejoin="round" stroke-miterlimit="10" stroke-width="0.5"/>
    </g>
    <g id="freepik--Window--inject-81" transform="translate(19.55 2.975)">
      <rect id="Rectangle" width="26.767" height="33.46" transform="translate(0.37 34.982)" fill="none" stroke="#263238" stroke-linecap="round" stroke-linejoin="round" stroke-miterlimit="10" stroke-width="0.5"/>
      <rect id="Rectangle-2" data-name="Rectangle" width="26.767" height="33.46" transform="translate(33.83 34.982)" fill="none" stroke="#263238" stroke-linecap="round" stroke-linejoin="round" stroke-miterlimit="10" stroke-width="0.5"/>
      <rect id="Rectangle-3" data-name="Rectangle" width="26.767" height="33.46" transform="translate(0.37 73.916)" fill="none" stroke="#263238" stroke-linecap="round" stroke-linejoin="round" stroke-miterlimit="10" stroke-width="0.5"/>
      <rect id="Rectangle-4" data-name="Rectangle" width="26.767" height="33.46" transform="translate(33.83 73.916)" fill="none" stroke="#263238" stroke-linecap="round" stroke-linejoin="round" stroke-miterlimit="10" stroke-width="0.5"/>
      <rect id="Rectangle-5" data-name="Rectangle" width="26.767" height="33.46" transform="translate(0.37 112.85)" fill="none" stroke="#263238" stroke-linecap="round" stroke-linejoin="round" stroke-miterlimit="10" stroke-width="0.5"/>
      <rect id="Rectangle-6" data-name="Rectangle" width="26.767" height="33.46" transform="translate(33.83 112.85)" fill="none" stroke="#263238" stroke-linecap="round" stroke-linejoin="round" stroke-miterlimit="10" stroke-width="0.5"/>
      <path id="Path-9" data-name="Path" d="M29.809,0h0A29.809,29.809,0,0,0,0,29.809H59.619A29.81,29.81,0,0,0,29.809,0Z" transform="translate(0.978 0.306)" fill="none" stroke="#263238" stroke-linecap="round" stroke-linejoin="round" stroke-miterlimit="10" stroke-width="0.5"/>
    </g>
    <g id="freepik--Character--inject-81" transform="translate(16.15 13.6)">
      <path id="Path-10" data-name="Path" d="M46.164,5.269s0-6.375-10.944-5.1S19.69,11.112,16.384,13.148,6.966,16.973,6.711,20.02s2.55,4.326-.255,6.617S-.65,30.977.349,34.033,4.174,40.14,2.9,42.18s-4.837,4.072-1.53,6.375,4.836,2.8,4.836,5.852-1.275,5.1,1.785,6.111,4.832-1.02,6.617,2.8,3.561,4.837,6.617,4.072,7.378-2.036,8.925-1.016,6.375,3.825,8.4,2.291,3.825-3.825,6.872-2.55,5.6,3.056,6.872.765,0-2.8,4.836-3.825,6.617-.761,6.617-4.832-.255-5.1,2.036-6.872,4.326-1.02,3.566-5.347-2.291-5.347-1.53-9.673-1.275-5.852-2.8-7.127-3.306-3.562-2.8-5.852,4.326-2.55.506-6.617-5.6-2.8-6.375-5.856S53.036,1.2,46.164,5.269Z" transform="translate(26.575 0.392)" fill="#263238" stroke="#263238" stroke-linecap="round" stroke-linejoin="round" stroke-miterlimit="10" stroke-width="0.5"/>
      <path id="Path-11" data-name="Path" d="M29,0c-1.568,2.482-2.779,5.283-5.3,7.65-3.646,3.4-12.988,6.375-13.443,9.571S11.39,22.232,8.2,24.965,0,28.365,0,31.118s1.364,3.646.684,5.695" transform="translate(33.97 13.324)" fill="none" stroke="#616161" stroke-miterlimit="10" stroke-width="0.5"/>
      <path id="Path-12" data-name="Path" d="M5.032,1.322S3.893-1.653.7,1.322c-.247.229-.48.467-.7.71" transform="translate(64.711 8.942)" fill="none" stroke="#616161" stroke-miterlimit="10" stroke-width="0.5"/>
      <path id="Path-13" data-name="Path" d="M13.209,0C10.4.68,8.19,1.169,7.961,3.158,7.5,7.03,8.186,9.533,5.453,10.676s-6.375,2.975-5.24,5.24,1.364,2.975,1.139,3.872" transform="translate(30.795 23.286)" fill="none" stroke="#616161" stroke-miterlimit="10" stroke-width="0.5"/>
      <path id="Path-14" data-name="Path" d="M21.454,1.963s-6.375-4.1-9.775-.455-1.823,8.2-7.063,13.217A13.3,13.3,0,0,1,0,17.527" transform="translate(47.821 4.654)" fill="none" stroke="#616161" stroke-miterlimit="10" stroke-width="0.5"/>
      <path id="Path-15" data-name="Path" d="M0,0A4.131,4.131,0,0,0,1.534,1.411" transform="translate(91.447 38.93)" fill="none" stroke="#616161" stroke-miterlimit="10" stroke-width="0.5"/>
      <path id="Path-16" data-name="Path" d="M0,.519S5.7-1.3,7.059,1.883s2.053,8.887,4.56,9.8,3.642,2.278,3.642,7.289a16.056,16.056,0,0,0,.714,4.764" transform="translate(73.844 11.806)" fill="none" stroke="#616161" stroke-miterlimit="10" stroke-width="0.5"/>
      <path id="Path-17" data-name="Path" d="M0,14.135c1.823-2.975,4.326-1.819,4.556-5.011s-1.594-4.1.225-6.15A12.107,12.107,0,0,1,9.567,0" transform="translate(36.932 38.735)" fill="none" stroke="#616161" stroke-miterlimit="10" stroke-width="0.5"/>
      <path id="Path-18" data-name="Path" d="M2.168,2.435A10.774,10.774,0,0,1,0,0" transform="translate(37.268 56.818)" fill="none" stroke="#616161" stroke-miterlimit="10" stroke-width="0.5"/>
      <path id="Path-19" data-name="Path" d="M99.739,104.406a48.98,48.98,0,0,0-3.825-20.872C91.329,73.1,90.3,72.343,90.3,69.288s3.068-6.622,3.578-13.494a76.476,76.476,0,0,0,.255-10.2S105.073,62.9,112.71,63.92s12.219-6.107,9.418-15.78-15.02-17.561-19.852-23.928-15.785-6.375-21.382-6.375-8.4-2.036-9.418-5.852S70.461.51,70.461.51,63.84,4.582,52.641,0c0,0,1.02,14-.255,16.035s-3.043,4.11-10.68,4.11-14,1.53-17.561,5.1S5.819,43.061,2,48.662s-1.785,11.709,2.8,14,9.163.251,12.474-2.8S31.017,47.132,31.017,47.132a49.82,49.82,0,0,0,2.8,14.255c2.8,8.4,5.1,7.382,3.051,13.49s-6.107,7.892-7.378,15.78a75,75,0,0,0-1.02,13.744" transform="translate(2.779 50.405)" fill="#adc7f7"/>
      <g id="Group" transform="translate(2.975 50.575)" opacity="0.2">
        <path id="Path-20" data-name="Path" d="M.4,0C.228,0-.409.425.4,1.662,1.214.433.577,0,.4,0Z" transform="translate(82.438 25.649)"/>
        <path id="Path-21" data-name="Path" d="M.4,0C.228,0-.409.425.4,1.662,1.214.433.577,0,.4,0Z" transform="translate(102.838 25.649)"/>
        <path id="Path-22" data-name="Path" d="M.4,0C.228,0-.409.425.4,1.662,1.214.433.577,0,.4,0Z" transform="translate(102.838 35.849)"/>
        <path id="Path-23" data-name="Path" d="M.4,0C.228,0-.409.425.4,1.662,1.214.433.577,0,.4,0Z" transform="translate(82.438 35.849)"/>
        <path id="Path-24" data-name="Path" d="M.4,0C.228,0-.409.425.4,1.662,1.214.433.577,0,.4,0Z" transform="translate(92.638 30.749)"/>
        <path id="Path-25" data-name="Path" d="M.4,0C.228,0-.409.425.4,1.662,1.214.433.577,0,.4,0Z" transform="translate(92.638 20.549)"/>
        <path id="Path-26" data-name="Path" d="M0,1c1.47.081,1.521-.689,1.436-.85S.633-.32,0,1Z" transform="translate(83.3 26.564)"/>
        <path id="Path-27" data-name="Path" d="M1.262.582.7,0A2.019,2.019,0,0,0,0,.876,1.7,1.7,0,0,0,1.262.582Z" transform="translate(103.683 26.69)"/>
        <path id="Path-28" data-name="Path" d="M0,1c1.47.081,1.521-.689,1.436-.85S.633-.32,0,1Z" transform="translate(93.5 31.664)"/>
        <path id="Path-29" data-name="Path" d="M0,1c1.47.081,1.521-.689,1.436-.85S.633-.32,0,1Z" transform="translate(93.5 21.464)"/>
        <path id="Path-30" data-name="Path" d="M.025.151C-.06.3,0,1.069,1.461,1,.811-.333.114,0,.025.151Z" transform="translate(101.338 26.577)"/>
        <path id="Path-31" data-name="Path" d="M.019.153A.527.527,0,0,0,.24.735h0A1.785,1.785,0,0,0,1.456.99,2.367,2.367,0,0,0,1.32.735C.712-.285.1.008.019.153Z" transform="translate(101.343 36.776)"/>
        <path id="Path-32" data-name="Path" d="M.025.151C-.06.3,0,1.069,1.461,1,.811-.333.114,0,.025.151Z" transform="translate(91.138 31.677)"/>
        <path id="Path-33" data-name="Path" d="M.025.151C-.06.3,0,1.069,1.461,1,.811-.333.114,0,.025.151Z" transform="translate(91.138 21.477)"/>
        <path id="Path-34" data-name="Path" d="M.4,0C.228,0-.409.425.4,1.662,1.214.433.577,0,.4,0Z" transform="translate(82.438 56.249)"/>
        <path id="Path-35" data-name="Path" d="M.4,0C.273,0-.093.229.022.82c.179.191.357.382.54.57C1.114.37.562,0,.4,0Z" transform="translate(102.841 56.249)"/>
        <path id="Path-36" data-name="Path" d="M.4,0C.228,0-.409.425.4,1.662,1.214.433.577,0,.4,0Z" transform="translate(82.438 66.449)"/>
        <path id="Path-37" data-name="Path" d="M.4,0C.228,0-.409.425.4,1.662,1.214.433.577,0,.4,0Z" transform="translate(113.038 61.349)"/>
        <path id="Path-38" data-name="Path" d="M.4,0C.228,0-.409.425.4,1.662,1.214.433.577,0,.4,0Z" transform="translate(82.438 46.049)"/>
        <path id="Path-39" data-name="Path" d="M.4,0C.228,0-.409.425.4,1.662,1.214.433.577,0,.4,0Z" transform="translate(102.838 46.049)"/>
        <path id="Path-40" data-name="Path" d="M.4,0C.228,0-.409.425.4,1.662,1.214.433.577,0,.4,0Z" transform="translate(92.638 51.149)"/>
        <path id="Path-41" data-name="Path" d="M.4,0C.228,0-.409.425.4,1.662,1.214.433.577,0,.4,0Z" transform="translate(113.038 51.149)"/>
        <path id="Path-42" data-name="Path" d="M.4,0C.228,0-.409.425.4,1.662,1.214.433.577,0,.4,0Z" transform="translate(92.638 40.949)"/>
        <path id="Path-43" data-name="Path" d="M.4,0C.228,0-.409.425.4,1.662,1.214.433.577,0,.4,0Z" transform="translate(113.038 40.949)"/>
        <path id="Path-44" data-name="Path" d="M0,1c1.47.081,1.521-.689,1.436-.85S.633-.32,0,1Z" transform="translate(83.3 57.164)"/>
        <path id="Path-45" data-name="Path" d="M0,.841.153,1C1.39,1,1.428.3,1.356.149S.625-.3,0,.841Z" transform="translate(103.764 57.171)"/>
        <path id="Path-46" data-name="Path" d="M1.1.005a.773.773,0,0,0-.51.179,1.7,1.7,0,0,0-.238.23A2.422,2.422,0,0,0,.119.74a.089.089,0,0,1,0,.025C.081.834.038.91,0,1A1.777,1.777,0,0,0,1.215.74h0A.765.765,0,0,0,1.3.664.663.663,0,0,0,1.407.511.31.31,0,0,0,1.113.005Z" transform="translate(83.3 67.37)"/>
        <path id="Path-47" data-name="Path" d="M0,1c1.466.081,1.521-.689,1.436-.85S.633-.32,0,1Z" transform="translate(113.9 62.264)"/>
        <path id="Path-48" data-name="Path" d="M0,1c1.47.081,1.521-.689,1.436-.85S.633-.32,0,1Z" transform="translate(83.3 46.964)"/>
        <path id="Path-49" data-name="Path" d="M1.436.151C1.347,0,.65-.333,0,1,1.466,1.069,1.521.3,1.436.151Z" transform="translate(103.683 46.977)"/>
        <path id="Path-50" data-name="Path" d="M.013.621a3.57,3.57,0,0,0,.37,0C.382.408.4.2.412,0A2.7,2.7,0,0,0,.013.621Z" transform="translate(93.487 52.445)"/>
        <path id="Path-51" data-name="Path" d="M0,1c1.466.081,1.521-.689,1.436-.85S.633-.32,0,1Z" transform="translate(113.9 52.064)"/>
        <path id="Path-52" data-name="Path" d="M0,1c1.47.081,1.521-.689,1.436-.85S.633-.32,0,1Z" transform="translate(93.5 41.864)"/>
        <path id="Path-53" data-name="Path" d="M0,1c1.466.081,1.521-.689,1.436-.85S.633-.32,0,1Z" transform="translate(113.9 41.864)"/>
        <path id="Path-54" data-name="Path" d="M.785.955,1.019.321C.526-.189.093.032.025.151S-.022.806.785.955Z" transform="translate(91.138 62.277)"/>
        <path id="Path-55" data-name="Path" d="M.018.158A.548.548,0,0,0,.3.787C.392.54.468.285.541.026A.5.5,0,0,0,.018.158Z" transform="translate(121.745 57.17)"/>
        <path id="Path-56" data-name="Path" d="M.026.151C-.063.3,0,1.069,1.463,1,.813-.333.116,0,.026.151Z" transform="translate(111.536 62.277)"/>
        <path id="Path-57" data-name="Path" d="M.025.151C-.06.3,0,1.069,1.461,1,.811-.333.114,0,.025.151Z" transform="translate(101.338 46.977)"/>
        <path id="Path-58" data-name="Path" d="M.025.151C-.06.3,0,1.069,1.461,1,.811-.333.114,0,.025.151Z" transform="translate(91.138 52.077)"/>
        <path id="Path-59" data-name="Path" d="M.026.151C-.063.3,0,1.069,1.463,1,.813-.333.116,0,.026.151Z" transform="translate(111.536 52.077)"/>
        <path id="Path-60" data-name="Path" d="M.025.151C-.06.3,0,1.069,1.461,1,.811-.333.114,0,.025.151Z" transform="translate(91.138 41.877)"/>
        <path id="Path-61" data-name="Path" d="M.026.151C-.063.3,0,1.069,1.463,1,.813-.333.116,0,.026.151Z" transform="translate(111.536 41.877)"/>
        <path id="Path-62" data-name="Path" d="M1.215.731h0A.527.527,0,0,0,1.436.149C1.352,0,.744-.276.136.731h0A2.367,2.367,0,0,0,0,.986,1.776,1.776,0,0,0,1.215.731Z" transform="translate(103.683 36.78)"/>
        <path id="Path-63" data-name="Path" d="M1.215.731h0A.527.527,0,0,0,1.436.149C1.352,0,.744-.276.136.731h0A2.367,2.367,0,0,0,0,.986,1.776,1.776,0,0,0,1.215.731Z" transform="translate(83.283 36.78)"/>
        <path id="Path-64" data-name="Path" d="M.4,0C.228,0-.409.425.4,1.662,1.214.433.577,0,.4,0Z" transform="translate(82.438 86.849)"/>
        <path id="Path-65" data-name="Path" d="M.4,0C.228,0-.409.425.4,1.662,1.214.433.577,0,.4,0Z" transform="translate(82.438 97.049)"/>
        <path id="Path-66" data-name="Path" d="M.4,0C.228,0-.409.425.4,1.662,1.214.433.577,0,.4,0Z" transform="translate(92.638 91.949)"/>
        <path id="Path-67" data-name="Path" d="M.4,0C.228,0-.409.425.4,1.662,1.214.433.577,0,.4,0Z" transform="translate(82.438 76.649)"/>
        <path id="Path-68" data-name="Path" d="M.4,0C.228,0-.409.425.4,1.662,1.214.433.577,0,.4,0Z" transform="translate(92.638 81.749)"/>
        <path id="Path-69" data-name="Path" d="M0,1c1.47.081,1.521-.689,1.436-.85S.633-.32,0,1Z" transform="translate(83.3 87.764)"/>
        <path id="Path-70" data-name="Path" d="M1.113,0H1.024a.705.705,0,0,0-.31.1L.6.174A1.963,1.963,0,0,0,.136.731h0A2.367,2.367,0,0,0,0,.986,1.776,1.776,0,0,0,1.215.731h0A.527.527,0,0,0,1.436.149.425.425,0,0,0,1.113,0Z" transform="translate(83.283 97.975)"/>
        <path id="Path-71" data-name="Path" d="M0,1c1.47.081,1.521-.689,1.436-.85S.633-.32,0,1Z" transform="translate(93.5 92.864)"/>
        <path id="Path-72" data-name="Path" d="M0,1c1.47.081,1.521-.689,1.436-.85S.633-.32,0,1Z" transform="translate(83.3 77.564)"/>
        <path id="Path-73" data-name="Path" d="M0,1c1.47.081,1.521-.689,1.436-.85S.633-.32,0,1Z" transform="translate(93.5 82.664)"/>
        <path id="Path-74" data-name="Path" d="M.025.151C-.06.3,0,1.069,1.461,1,.811-.333.114,0,.025.151Z" transform="translate(91.138 92.877)"/>
        <path id="Path-75" data-name="Path" d="M.025.151C-.06.3,0,1.069,1.461,1,.811-.333.114,0,.025.151Z" transform="translate(91.138 82.677)"/>
        <path id="Path-76" data-name="Path" d="M.4,0C.228,0-.409.425.4,1.662,1.214.433.577,0,.4,0Z" transform="translate(92.638 102.149)"/>
        <path id="Path-77" data-name="Path" d="M0,1c1.47.081,1.521-.689,1.436-.85S.633-.32,0,1Z" transform="translate(93.5 103.064)"/>
        <path id="Path-78" data-name="Path" d="M.025.151C-.06.3,0,1.069,1.461,1,.811-.333.114,0,.025.151Z" transform="translate(91.138 103.077)"/>
        <path id="Path-79" data-name="Path" d="M.4,0C.228,0-.409.425.4,1.662,1.214.433.577,0,.4,0Z" transform="translate(62.038 5.249)"/>
        <path id="Path-80" data-name="Path" d="M.128,0c0,.229.034.548.059.948A.888.888,0,0,0,.128,0Z" transform="translate(52.355 0.289)"/>
        <path id="Path-81" data-name="Path" d="M1.1,0a.774.774,0,0,0-.51.179A1.7,1.7,0,0,0,.349.408a2.422,2.422,0,0,0-.23.327V.761C.081.829.038.905,0,.99A1.776,1.776,0,0,0,1.215.735h0A.765.765,0,0,0,1.3.659.663.663,0,0,0,1.407.506a.425.425,0,0,0,.03-.353A.425.425,0,0,0,1.1,0Z" transform="translate(62.9 6.175)"/>
        <path id="Path-82" data-name="Path" d="M0,1c1.47.081,1.521-.689,1.436-.85S.633-.32,0,1Z" transform="translate(52.7 1.064)"/>
        <path id="Path-83" data-name="Path" d="M.786.459A.57.57,0,0,0,.731.272h0A.616.616,0,0,0,.688.2h0a.506.506,0,0,0-.1-.111h0a.4.4,0,0,0-.1-.064h0a.183.183,0,0,0-.17,0C.123.106-.2.446.161,1.236A3.506,3.506,0,0,0,.4,1.661a3.506,3.506,0,0,0,.242-.425A1.522,1.522,0,0,0,.807.595a1.046,1.046,0,0,0,0-.119Z" transform="translate(41.646 25.662)"/>
        <path id="Path-84" data-name="Path" d="M.4,0C.228,0-.409.425.4,1.662,1.214.433.577,0,.4,0Z" transform="translate(62.038 25.649)"/>
        <path id="Path-85" data-name="Path" d="M.4,0C.228,0-.409.425.4,1.662,1.214.433.577,0,.4,0Z" transform="translate(62.038 35.849)"/>
        <path id="Path-86" data-name="Path" d="M.786.459A.57.57,0,0,0,.731.272h0A.616.616,0,0,0,.688.2h0a.506.506,0,0,0-.1-.111h0a.4.4,0,0,0-.1-.064h0a.183.183,0,0,0-.17,0C.123.106-.2.446.161,1.236A3.506,3.506,0,0,0,.4,1.661a3.506,3.506,0,0,0,.242-.425A1.522,1.522,0,0,0,.807.595a1.046,1.046,0,0,0,0-.119Z" transform="translate(41.646 35.862)"/>
        <path id="Path-87" data-name="Path" d="M.4,0C.228,0-.409.425.4,1.662,1.214.433.577,0,.4,0Z" transform="translate(51.838 30.749)"/>
        <path id="Path-88" data-name="Path" d="M.4,0C.228,0-.409.425.4,1.662,1.214.433.577,0,.4,0Z" transform="translate(72.238 30.749)"/>
        <path id="Path-89" data-name="Path" d="M.4,0C.228,0-.409.425.4,1.662,1.214.433.577,0,.4,0Z" transform="translate(62.038 15.449)"/>
        <path id="Path-90" data-name="Path" d="M.4,0C.228,0-.409.425.4,1.662,1.214.433.577,0,.4,0Z" transform="translate(51.838 20.549)"/>
        <path id="Path-91" data-name="Path" d="M.4,0C.228,0-.409.425.4,1.662,1.214.433.577,0,.4,0Z" transform="translate(72.238 20.549)"/>
        <path id="Path-92" data-name="Path" d="M0,1c1.47.081,1.521-.689,1.436-.85S.633-.32,0,1Z" transform="translate(42.5 26.564)"/>
        <path id="Path-93" data-name="Path" d="M0,1c1.466.081,1.521-.689,1.436-.85S.633-.32,0,1Z" transform="translate(62.9 26.564)"/>
        <path id="Path-94" data-name="Path" d="M0,1c1.47.081,1.521-.689,1.436-.85S.633-.32,0,1Z" transform="translate(52.7 31.664)"/>
        <path id="Path-95" data-name="Path" d="M0,1c1.466.081,1.521-.689,1.436-.85S.633-.32,0,1Z" transform="translate(73.1 31.664)"/>
        <path id="Path-96" data-name="Path" d="M0,1c1.466.081,1.521-.689,1.436-.85S.633-.32,0,1Z" transform="translate(62.9 16.364)"/>
        <path id="Path-97" data-name="Path" d="M0,1c1.47.081,1.521-.689,1.436-.85S.633-.32,0,1Z" transform="translate(52.7 21.464)"/>
        <path id="Path-98" data-name="Path" d="M0,1c1.466.081,1.521-.689,1.436-.85S.633-.32,0,1Z" transform="translate(73.1 21.464)"/>
        <path id="Path-99" data-name="Path" d="M1.322.146C1.237,0,.616-.279,0,.762V.983C1.352,1.043,1.407.291,1.322.146Z" transform="translate(52.798 11.282)"/>
        <path id="Path-100" data-name="Path" d="M.025.151C-.06.3,0,1.069,1.461,1,.811-.333.114,0,.025.151Z" transform="translate(60.538 26.577)"/>
        <path id="Path-101" data-name="Path" d="M.019.153A.527.527,0,0,0,.24.735h0A1.785,1.785,0,0,0,1.456.99,2.367,2.367,0,0,0,1.32.735C.712-.285.1.008.019.153Z" transform="translate(60.543 36.776)"/>
        <path id="Path-102" data-name="Path" d="M.025.151C-.06.3,0,1.069,1.461,1,.811-.333.114,0,.025.151Z" transform="translate(50.338 31.677)"/>
        <path id="Path-103" data-name="Path" d="M.026.151C-.063.3,0,1.069,1.463,1,.813-.333.116,0,.026.151Z" transform="translate(80.936 26.577)"/>
        <path id="Path-104" data-name="Path" d="M1.32.735C.712-.285.1.008.019.153A.527.527,0,0,0,.24.735h0A1.776,1.776,0,0,0,1.456.99,2.367,2.367,0,0,0,1.32.735Z" transform="translate(80.943 36.776)"/>
        <path id="Path-105" data-name="Path" d="M.026.151C-.063.3,0,1.069,1.463,1,.813-.333.116,0,.026.151Z" transform="translate(70.736 31.677)"/>
        <path id="Path-106" data-name="Path" d="M.025.151C-.06.3,0,1.069,1.461,1,.811-.333.114,0,.025.151Z" transform="translate(60.538 16.377)"/>
        <path id="Path-107" data-name="Path" d="M.025.151C-.06.3,0,1.069,1.461,1,.811-.333.114,0,.025.151Z" transform="translate(50.338 21.477)"/>
        <path id="Path-108" data-name="Path" d="M.026.151C-.063.3,0,1.069,1.463,1,.813-.333.116,0,.026.151Z" transform="translate(70.736 21.477)"/>
        <path id="Path-109" data-name="Path" d="M.663.929C.625.81.587.7.553.572S.459.2.417,0A.45.45,0,0,0,.026.156C-.042.271-.021.755.663.929Z" transform="translate(70.737 11.272)"/>
        <path id="Path-110" data-name="Path" d="M1.326.735A2.422,2.422,0,0,0,1.1.408,1.487,1.487,0,0,0,.858.179.773.773,0,0,0,.348,0,.425.425,0,0,0,.025.153a.425.425,0,0,0,.03.353A.663.663,0,0,0,.161.659L.246.735h0A1.785,1.785,0,0,0,1.462.99C1.423.905,1.381.829,1.343.761Z" transform="translate(60.537 6.175)"/>
        <path id="Path-111" data-name="Path" d="M.786.459A.57.57,0,0,0,.731.272h0A.616.616,0,0,0,.688.2h0a.506.506,0,0,0-.1-.111h0a.4.4,0,0,0-.1-.064h0a.183.183,0,0,0-.17,0C.123.106-.2.446.161,1.236A3.506,3.506,0,0,0,.4,1.661a3.506,3.506,0,0,0,.242-.425A1.522,1.522,0,0,0,.807.595a1.046,1.046,0,0,0,0-.119Z" transform="translate(41.646 56.262)"/>
        <path id="Path-112" data-name="Path" d="M.4,0C.228,0-.409.425.4,1.662,1.214.433.577,0,.4,0Z" transform="translate(62.038 56.249)"/>
        <path id="Path-113" data-name="Path" d="M.4,0C.228,0-.409.425.4,1.662,1.214.433.577,0,.4,0Z" transform="translate(62.038 66.449)"/>
        <path id="Path-114" data-name="Path" d="M.786.459A.57.57,0,0,0,.731.272h0A.616.616,0,0,0,.688.2h0a.506.506,0,0,0-.1-.111h0a.4.4,0,0,0-.1-.064h0a.179.179,0,0,0-.17,0C.123.107-.2.447.161,1.237A3.506,3.506,0,0,0,.4,1.662a3.506,3.506,0,0,0,.242-.425A1.522,1.522,0,0,0,.807.6a1.046,1.046,0,0,0,0-.119Z" transform="translate(41.646 66.461)"/>
        <path id="Path-115" data-name="Path" d="M.4,0C.228,0-.409.425.4,1.662,1.214.433.577,0,.4,0Z" transform="translate(51.838 61.349)"/>
        <path id="Path-116" data-name="Path" d="M.4,0C.228,0-.409.425.4,1.662,1.214.433.577,0,.4,0Z" transform="translate(72.238 61.349)"/>
        <path id="Path-117" data-name="Path" d="M.786.459A.57.57,0,0,0,.731.272h0A.616.616,0,0,0,.688.2h0a.506.506,0,0,0-.1-.111h0a.4.4,0,0,0-.1-.064h0a.183.183,0,0,0-.17,0C.123.106-.2.446.161,1.236A3.506,3.506,0,0,0,.4,1.661a3.506,3.506,0,0,0,.242-.425A1.522,1.522,0,0,0,.807.595a1.046,1.046,0,0,0,0-.119Z" transform="translate(41.646 46.062)"/>
        <path id="Path-118" data-name="Path" d="M.4,0C.228,0-.409.425.4,1.662,1.214.433.577,0,.4,0Z" transform="translate(62.038 46.049)"/>
        <path id="Path-119" data-name="Path" d="M.4,0C.228,0-.409.425.4,1.662,1.214.433.577,0,.4,0Z" transform="translate(51.838 51.149)"/>
        <path id="Path-120" data-name="Path" d="M.4,0C.228,0-.409.425.4,1.662,1.214.433.577,0,.4,0Z" transform="translate(72.238 51.149)"/>
        <path id="Path-121" data-name="Path" d="M.4,0C.228,0-.409.425.4,1.662,1.214.433.577,0,.4,0Z" transform="translate(51.838 40.949)"/>
        <path id="Path-122" data-name="Path" d="M.4,0C.228,0-.409.425.4,1.662,1.214.433.577,0,.4,0Z" transform="translate(72.238 40.949)"/>
        <path id="Path-123" data-name="Path" d="M0,1c1.47.081,1.521-.689,1.436-.85S.633-.32,0,1Z" transform="translate(42.5 57.164)"/>
        <path id="Path-124" data-name="Path" d="M0,1c1.466.081,1.521-.689,1.436-.85S.633-.32,0,1Z" transform="translate(62.9 57.164)"/>
        <path id="Path-125" data-name="Path" d="M1.1,0a.774.774,0,0,0-.51.179A1.7,1.7,0,0,0,.349.408a2.422,2.422,0,0,0-.23.327V.761C.081.829.038.905,0,.99A1.776,1.776,0,0,0,1.215.735h0A.765.765,0,0,0,1.3.659.663.663,0,0,0,1.407.506a.425.425,0,0,0,.03-.353A.425.425,0,0,0,1.1,0Z" transform="translate(62.9 67.375)"/>
        <path id="Path-126" data-name="Path" d="M1.1.005a.773.773,0,0,0-.51.179,1.7,1.7,0,0,0-.238.23A2.422,2.422,0,0,0,.119.74V.766C.081.834.038.91,0,1A1.777,1.777,0,0,0,1.215.74h0A.765.765,0,0,0,1.3.664.663.663,0,0,0,1.407.511.31.31,0,0,0,1.113.005Z" transform="translate(42.5 67.37)"/>
        <path id="Path-127" data-name="Path" d="M0,1c1.47.081,1.521-.689,1.436-.85S.633-.32,0,1Z" transform="translate(52.7 62.264)"/>
        <path id="Path-128" data-name="Path" d="M0,1c1.466.081,1.521-.689,1.436-.85S.633-.32,0,1Z" transform="translate(73.1 62.264)"/>
        <path id="Path-129" data-name="Path" d="M0,1c1.47.081,1.521-.689,1.436-.85S.633-.32,0,1Z" transform="translate(42.5 46.964)"/>
        <path id="Path-130" data-name="Path" d="M0,1c1.466.081,1.521-.689,1.436-.85S.633-.32,0,1Z" transform="translate(62.9 46.964)"/>
        <path id="Path-131" data-name="Path" d="M0,1c1.47.081,1.521-.689,1.436-.85S.633-.32,0,1Z" transform="translate(52.7 52.064)"/>
        <path id="Path-132" data-name="Path" d="M0,1c1.466.081,1.521-.689,1.436-.85S.633-.32,0,1Z" transform="translate(73.1 52.064)"/>
        <path id="Path-133" data-name="Path" d="M0,1c1.47.081,1.521-.689,1.436-.85S.633-.32,0,1Z" transform="translate(52.7 41.864)"/>
        <path id="Path-134" data-name="Path" d="M0,1c1.466.081,1.521-.689,1.436-.85S.633-.32,0,1Z" transform="translate(73.1 41.864)"/>
        <path id="Path-135" data-name="Path" d="M.025.151C-.06.3,0,1.069,1.461,1,.811-.333.114,0,.025.151Z" transform="translate(60.538 57.177)"/>
        <path id="Path-136" data-name="Path" d="M.025.151C-.06.3,0,1.069,1.461,1,.811-.333.114,0,.025.151Z" transform="translate(50.338 62.277)"/>
        <path id="Path-137" data-name="Path" d="M.026.151C-.063.3,0,1.069,1.463,1,.813-.333.116,0,.026.151Z" transform="translate(80.936 57.177)"/>
        <path id="Path-138" data-name="Path" d="M.026.151C-.063.3,0,1.069,1.463,1,.813-.333.116,0,.026.151Z" transform="translate(70.736 62.277)"/>
        <path id="Path-139" data-name="Path" d="M0,14.414s11.05,2.835,24.931-7.931,19.27-6.519,18.7,1.13S31.165,22.349,26.065,23.2C17.68,24.6,10.2,26.883,0,14.414Z" transform="translate(44.451 54.972)"/>
        <path id="Path-140" data-name="Path" d="M.025.151C-.06.3,0,1.069,1.461,1,.811-.333.114,0,.025.151Z" transform="translate(60.538 46.977)"/>
        <path id="Path-141" data-name="Path" d="M.025.151C-.06.3,0,1.069,1.461,1,.811-.333.114,0,.025.151Z" transform="translate(50.338 52.077)"/>
        <path id="Path-142" data-name="Path" d="M.026.151C-.063.3,0,1.069,1.463,1,.813-.333.116,0,.026.151Z" transform="translate(80.936 46.977)"/>
        <path id="Path-143" data-name="Path" d="M.026.151C-.063.3,0,1.069,1.463,1,.813-.333.116,0,.026.151Z" transform="translate(70.736 52.077)"/>
        <path id="Path-144" data-name="Path" d="M.025.151C-.06.3,0,1.069,1.461,1,.811-.333.114,0,.025.151Z" transform="translate(50.338 41.877)"/>
        <path id="Path-145" data-name="Path" d="M.026.151C-.063.3,0,1.069,1.463,1,.813-.333.116,0,.026.151Z" transform="translate(70.736 41.877)"/>
        <path id="Path-146" data-name="Path" d="M1.215.731h0A.527.527,0,0,0,1.436.149C1.352,0,.744-.276.136.731h0A2.367,2.367,0,0,0,0,.986,1.776,1.776,0,0,0,1.215.731Z" transform="translate(62.883 36.78)"/>
        <path id="Path-147" data-name="Path" d="M1.215.731h0A.527.527,0,0,0,1.436.149C1.352,0,.744-.276.136.731h0A2.367,2.367,0,0,0,0,.986,1.776,1.776,0,0,0,1.215.731Z" transform="translate(42.483 36.78)"/>
        <path id="Path-148" data-name="Path" d="M.786.459A.57.57,0,0,0,.731.272h0A.616.616,0,0,0,.688.2h0a.506.506,0,0,0-.1-.111h0a.4.4,0,0,0-.1-.064h0a.179.179,0,0,0-.17,0C.123.107-.2.447.161,1.237A3.506,3.506,0,0,0,.4,1.662a3.506,3.506,0,0,0,.242-.425A1.522,1.522,0,0,0,.807.6a1.046,1.046,0,0,0,0-.119Z" transform="translate(41.646 86.861)"/>
        <path id="Path-149" data-name="Path" d="M.4,0C.228,0-.409.425.4,1.662,1.214.433.577,0,.4,0Z" transform="translate(62.038 86.849)"/>
        <path id="Path-150" data-name="Path" d="M.4,0C.228,0-.409.425.4,1.662,1.214.433.577,0,.4,0Z" transform="translate(62.038 97.049)"/>
        <path id="Path-151" data-name="Path" d="M.786.459A.57.57,0,0,0,.731.272h0A.616.616,0,0,0,.688.2h0a.506.506,0,0,0-.1-.111h0a.4.4,0,0,0-.1-.064h0a.179.179,0,0,0-.17,0C.123.107-.2.447.161,1.237A3.506,3.506,0,0,0,.4,1.662a3.506,3.506,0,0,0,.242-.425A1.522,1.522,0,0,0,.807.6a1.046,1.046,0,0,0,0-.119Z" transform="translate(41.646 97.061)"/>
        <path id="Path-152" data-name="Path" d="M.4,0C.228,0-.409.425.4,1.662,1.214.433.577,0,.4,0Z" transform="translate(51.838 91.949)"/>
        <path id="Path-153" data-name="Path" d="M.4,0C.228,0-.409.425.4,1.662,1.214.433.577,0,.4,0Z" transform="translate(72.238 91.949)"/>
        <path id="Path-154" data-name="Path" d="M.786.459A.57.57,0,0,0,.731.272h0A.616.616,0,0,0,.688.2h0a.506.506,0,0,0-.1-.111h0a.4.4,0,0,0-.1-.064h0a.179.179,0,0,0-.17,0C.123.107-.2.447.161,1.237A3.506,3.506,0,0,0,.4,1.662a3.506,3.506,0,0,0,.242-.425A1.522,1.522,0,0,0,.807.6a1.046,1.046,0,0,0,0-.119Z" transform="translate(41.646 76.661)"/>
        <path id="Path-155" data-name="Path" d="M.4,0C.228,0-.409.425.4,1.662,1.214.433.577,0,.4,0Z" transform="translate(62.038 76.649)"/>
        <path id="Path-156" data-name="Path" d="M.4,0C.228,0-.409.425.4,1.662,1.214.433.577,0,.4,0Z" transform="translate(51.838 81.749)"/>
        <path id="Path-157" data-name="Path" d="M.4,0C.228,0-.409.425.4,1.662,1.214.433.577,0,.4,0Z" transform="translate(72.238 81.749)"/>
        <path id="Path-158" data-name="Path" d="M.4,0C.228,0-.409.425.4,1.662,1.214.433.577,0,.4,0Z" transform="translate(51.838 71.549)"/>
        <path id="Path-159" data-name="Path" d="M.4,0C.228,0-.409.425.4,1.662,1.214.433.577,0,.4,0Z" transform="translate(72.238 71.549)"/>
        <path id="Path-160" data-name="Path" d="M0,1c1.47.081,1.521-.689,1.436-.85S.633-.32,0,1Z" transform="translate(42.5 87.764)"/>
        <path id="Path-161" data-name="Path" d="M0,1c1.466.081,1.521-.689,1.436-.85S.633-.32,0,1Z" transform="translate(62.9 87.764)"/>
        <path id="Path-162" data-name="Path" d="M1.113,0H1.024a.705.705,0,0,0-.31.1L.6.174A1.963,1.963,0,0,0,.136.731h0A2.367,2.367,0,0,0,0,.986,1.776,1.776,0,0,0,1.215.731h0A.527.527,0,0,0,1.436.149.425.425,0,0,0,1.113,0Z" transform="translate(62.883 97.975)"/>
        <path id="Path-163" data-name="Path" d="M1.113,0H1.024a.705.705,0,0,0-.31.1L.6.174A1.963,1.963,0,0,0,.136.731h0A2.367,2.367,0,0,0,0,.986,1.776,1.776,0,0,0,1.215.731h0A.527.527,0,0,0,1.436.149.425.425,0,0,0,1.113,0Z" transform="translate(42.483 97.975)"/>
        <path id="Path-164" data-name="Path" d="M0,1c1.47.081,1.521-.689,1.436-.85S.633-.32,0,1Z" transform="translate(52.7 92.864)"/>
        <path id="Path-165" data-name="Path" d="M0,1c1.466.081,1.521-.689,1.436-.85S.633-.32,0,1Z" transform="translate(73.1 92.864)"/>
        <path id="Path-166" data-name="Path" d="M0,1c1.47.081,1.521-.689,1.436-.85S.633-.32,0,1Z" transform="translate(42.5 77.564)"/>
        <path id="Path-167" data-name="Path" d="M0,1c1.466.081,1.521-.689,1.436-.85S.633-.32,0,1Z" transform="translate(62.9 77.564)"/>
        <path id="Path-168" data-name="Path" d="M0,1c1.47.081,1.521-.689,1.436-.85S.633-.32,0,1Z" transform="translate(52.7 82.664)"/>
        <path id="Path-169" data-name="Path" d="M0,1c1.466.081,1.521-.689,1.436-.85S.633-.32,0,1Z" transform="translate(73.1 82.664)"/>
        <path id="Path-170" data-name="Path" d="M0,1c1.47.081,1.521-.689,1.436-.85S.633-.32,0,1Z" transform="translate(52.7 72.464)"/>
        <path id="Path-171" data-name="Path" d="M0,1c1.466.081,1.521-.689,1.436-.85S.633-.32,0,1Z" transform="translate(73.1 72.464)"/>
        <path id="Path-172" data-name="Path" d="M.025.151C-.06.3,0,1.069,1.461,1,.811-.333.114,0,.025.151Z" transform="translate(60.538 87.777)"/>
        <path id="Path-173" data-name="Path" d="M.852.174.742.1A.689.689,0,0,0,.431,0H.342A.425.425,0,0,0,.019.153.527.527,0,0,0,.24.735h0A1.785,1.785,0,0,0,1.456.99,2.367,2.367,0,0,0,1.32.735,1.9,1.9,0,0,0,.852.174Z" transform="translate(60.543 98.001)"/>
        <path id="Path-174" data-name="Path" d="M.025.151C-.06.3,0,1.069,1.461,1,.811-.333.114,0,.025.151Z" transform="translate(50.338 92.877)"/>
        <path id="Path-175" data-name="Path" d="M.026.151C-.063.3,0,1.069,1.463,1,.813-.333.116,0,.026.151Z" transform="translate(80.936 87.777)"/>
        <path id="Path-176" data-name="Path" d="M1.32.731A1.963,1.963,0,0,0,.852.174L.742.1A.705.705,0,0,0,.431,0H.342A.425.425,0,0,0,.019.153.527.527,0,0,0,.24.735h0A1.777,1.777,0,0,0,1.456.99,2.367,2.367,0,0,0,1.32.735Z" transform="translate(80.943 97.979)"/>
        <path id="Path-177" data-name="Path" d="M.026.151C-.063.3,0,1.069,1.463,1,.813-.333.116,0,.026.151Z" transform="translate(70.736 92.877)"/>
        <path id="Path-178" data-name="Path" d="M.025.151C-.06.3,0,1.069,1.461,1,.811-.333.114,0,.025.151Z" transform="translate(60.538 77.577)"/>
        <path id="Path-179" data-name="Path" d="M.025.151C-.06.3,0,1.069,1.461,1,.811-.333.114,0,.025.151Z" transform="translate(50.338 82.677)"/>
        <path id="Path-180" data-name="Path" d="M.026.151C-.063.3,0,1.069,1.463,1,.813-.333.116,0,.026.151Z" transform="translate(80.936 77.577)"/>
        <path id="Path-181" data-name="Path" d="M.026.151C-.063.3,0,1.069,1.463,1,.813-.333.116,0,.026.151Z" transform="translate(70.736 82.677)"/>
        <path id="Path-182" data-name="Path" d="M.025.151C-.06.3,0,1.069,1.461,1,.811-.333.114,0,.025.151Z" transform="translate(50.338 72.477)"/>
        <path id="Path-183" data-name="Path" d="M.026.151C-.063.3,0,1.069,1.463,1,.813-.333.116,0,.026.151Z" transform="translate(70.736 72.477)"/>
        <path id="Path-184" data-name="Path" d="M1.326.735A2.422,2.422,0,0,0,1.1.408,1.487,1.487,0,0,0,.858.179.773.773,0,0,0,.348,0,.425.425,0,0,0,.025.153a.425.425,0,0,0,.03.353A.663.663,0,0,0,.161.659L.246.735h0A1.785,1.785,0,0,0,1.462.99C1.423.905,1.381.829,1.343.761Z" transform="translate(60.537 67.375)"/>
        <path id="Path-185" data-name="Path" d="M1.326.735A2.422,2.422,0,0,0,1.1.408,1.7,1.7,0,0,0,.858.179.773.773,0,0,0,.348,0,.425.425,0,0,0,.025.153a.425.425,0,0,0,.03.353A.663.663,0,0,0,.161.659.765.765,0,0,0,.246.735h0A1.776,1.776,0,0,0,1.462.99C1.423.905,1.381.829,1.343.761A.089.089,0,0,1,1.326.735Z" transform="translate(80.937 67.375)"/>
        <path id="Path-186" data-name="Path" d="M.4,0C.228,0-.409.425.4,1.662,1.214.433.577,0,.4,0Z" transform="translate(51.838 102.149)"/>
        <path id="Path-187" data-name="Path" d="M.4,0C.228,0-.409.425.4,1.662,1.214.433.577,0,.4,0Z" transform="translate(72.238 102.149)"/>
        <path id="Path-188" data-name="Path" d="M0,1c1.47.081,1.521-.689,1.436-.85S.633-.32,0,1Z" transform="translate(52.7 103.064)"/>
        <path id="Path-189" data-name="Path" d="M0,1c1.466.081,1.521-.689,1.436-.85S.633-.32,0,1Z" transform="translate(73.1 103.064)"/>
        <path id="Path-190" data-name="Path" d="M.025.151C-.06.3,0,1.069,1.461,1,.811-.333.114,0,.025.151Z" transform="translate(50.338 103.077)"/>
        <path id="Path-191" data-name="Path" d="M.026.151C-.063.3,0,1.069,1.463,1,.813-.333.116,0,.026.151Z" transform="translate(70.736 103.077)"/>
        <path id="Path-192" data-name="Path" d="M.4,0C.228,0-.409.425.4,1.662,1.214.433.577,0,.4,0Z" transform="translate(21.238 35.849)"/>
        <path id="Path-193" data-name="Path" d="M.4,0C.228,0-.409.425.4,1.662,1.214.433.577,0,.4,0Z" transform="translate(31.438 30.749)"/>
        <path id="Path-194" data-name="Path" d="M.778,0,0,.2A1.976,1.976,0,0,0,.4,1.271,1.566,1.566,0,0,0,.778,0Z" transform="translate(31.437 20.94)"/>
        <path id="Path-195" data-name="Path" d="M0,1c1.466.081,1.521-.689,1.436-.85S.633-.32,0,1Z" transform="translate(22.1 26.564)"/>
        <path id="Path-196" data-name="Path" d="M0,1c1.466.081,1.521-.689,1.436-.85S.633-.32,0,1Z" transform="translate(32.3 31.664)"/>
        <path id="Path-197" data-name="Path" d="M0,1c1.466.081,1.521-.689,1.436-.85S.633-.32,0,1Z" transform="translate(32.3 21.464)"/>
        <path id="Path-198" data-name="Path" d="M.019.153A.527.527,0,0,0,.24.735h0A1.785,1.785,0,0,0,1.456.99,2.367,2.367,0,0,0,1.32.735C.712-.285.1.008.019.153Z" transform="translate(19.743 36.776)"/>
        <path id="Path-199" data-name="Path" d="M.026.151C-.063.3,0,1.069,1.463,1,.813-.333.116,0,.026.151Z" transform="translate(40.136 26.577)"/>
        <path id="Path-200" data-name="Path" d="M1.32.735C.712-.285.1.008.019.153A.527.527,0,0,0,.24.735h0A1.776,1.776,0,0,0,1.456.99,2.367,2.367,0,0,0,1.32.735Z" transform="translate(40.143 36.776)"/>
        <path id="Path-201" data-name="Path" d="M.026.151C-.063.3,0,1.069,1.463,1,.813-.333.116,0,.026.151Z" transform="translate(29.936 31.677)"/>
        <path id="Path-202" data-name="Path" d="M.337,0,.116.07A.281.281,0,0,0,.026.151C-.063.3,0,1.069,1.463,1,1.051.147.621-.023.337,0Z" transform="translate(29.936 21.477)"/>
        <path id="Path-203" data-name="Path" d="M.4,0C.228,0-.409.425.4,1.662,1.214.433.577,0,.4,0Z" transform="translate(0.838 56.249)"/>
        <path id="Path-204" data-name="Path" d="M.4,0C.228,0-.409.425.4,1.662,1.214.433.577,0,.4,0Z" transform="translate(11.038 61.349)"/>
        <path id="Path-205" data-name="Path" d="M.4,0C.228,0-.409.425.4,1.662,1.214.433.577,0,.4,0Z" transform="translate(21.238 46.049)"/>
        <path id="Path-206" data-name="Path" d="M.4,0C.228,0-.409.425.4,1.662,1.214.433.577,0,.4,0Z" transform="translate(11.038 51.149)"/>
        <path id="Path-207" data-name="Path" d="M.4,0C.228,0-.409.425.4,1.662,1.214.433.577,0,.4,0Z" transform="translate(31.438 51.149)"/>
        <path id="Path-208" data-name="Path" d="M.4,0C.228,0-.409.425.4,1.662,1.214.433.577,0,.4,0Z" transform="translate(11.038 40.949)"/>
        <path id="Path-209" data-name="Path" d="M.4,0C.228,0-.409.425.4,1.662,1.214.433.577,0,.4,0Z" transform="translate(31.438 40.949)"/>
        <path id="Path-210" data-name="Path" d="M0,1c1.47.081,1.526-.689,1.436-.85S.633-.32,0,1Z" transform="translate(1.7 57.164)"/>
        <path id="Path-211" data-name="Path" d="M0,.556C.378.416.748.259,1.113.08.935-.039.476-.12,0,.556Z" transform="translate(12.134 62.276)"/>
        <path id="Path-212" data-name="Path" d="M.931.127A.357.357,0,0,0,.731,0C.468.336.217.655,0,.956.973.854,1.007.259.931.127Z" transform="translate(2.189 47.001)"/>
        <path id="Path-213" data-name="Path" d="M0,1c1.466.081,1.521-.689,1.436-.85S.633-.32,0,1Z" transform="translate(22.1 46.964)"/>
        <path id="Path-214" data-name="Path" d="M0,1c1.47.081,1.521-.689,1.436-.85S.633-.32,0,1Z" transform="translate(11.9 52.064)"/>
        <path id="Path-215" data-name="Path" d="M0,1c1.466.081,1.521-.689,1.436-.85S.633-.32,0,1Z" transform="translate(32.3 52.064)"/>
        <path id="Path-216" data-name="Path" d="M0,1c1.47.081,1.521-.689,1.436-.85S.633-.32,0,1Z" transform="translate(11.9 41.864)"/>
        <path id="Path-217" data-name="Path" d="M0,1c1.466.081,1.521-.689,1.436-.85S.633-.32,0,1Z" transform="translate(32.3 41.864)"/>
        <path id="Path-218" data-name="Path" d="M.026.149C-.055.285-.012.931,1.106,1L1.424.927C.787-.318.115,0,.026.149Z" transform="translate(9.536 62.279)"/>
        <path id="Path-219" data-name="Path" d="M.026.151C-.063.3,0,1.069,1.463,1,.813-.333.116,0,.026.151Z" transform="translate(40.136 57.177)"/>
        <path id="Path-220" data-name="Path" d="M.025.151C-.06.3,0,1.069,1.461,1,.811-.333.114,0,.025.151Z" transform="translate(19.738 46.977)"/>
        <path id="Path-221" data-name="Path" d="M.025.151C-.06.3,0,1.069,1.461,1,.811-.333.114,0,.025.151Z" transform="translate(9.538 52.077)"/>
        <path id="Path-222" data-name="Path" d="M.026.151C-.063.3,0,1.069,1.463,1,.813-.333.116,0,.026.151Z" transform="translate(40.136 46.977)"/>
        <path id="Path-223" data-name="Path" d="M.025.151C-.06.3,0,1.069,1.461,1,.811-.333.114,0,.025.151Z" transform="translate(9.538 41.877)"/>
        <path id="Path-224" data-name="Path" d="M.026.151C-.063.3,0,1.069,1.463,1,.813-.333.116,0,.026.151Z" transform="translate(29.936 41.877)"/>
        <path id="Path-225" data-name="Path" d="M1.215.731h0A.527.527,0,0,0,1.436.149C1.352,0,.744-.276.136.731h0A2.367,2.367,0,0,0,0,.986,1.776,1.776,0,0,0,1.215.731Z" transform="translate(22.083 36.78)"/>
        <path id="Path-226" data-name="Path" d="M.4,0C.228,0-.409.425.4,1.662,1.214.433.577,0,.4,0Z" transform="translate(31.438 91.949)"/>
        <path id="Path-227" data-name="Path" d="M.391,0,.034.6l.03.047A2.712,2.712,0,0,0,.391,0Z" transform="translate(31.777 82.765)"/>
        <path id="Path-228" data-name="Path" d="M0,1c1.466.081,1.521-.689,1.436-.85S.633-.32,0,1Z" transform="translate(32.3 92.864)"/>
        <path id="Path-229" data-name="Path" d="M0,1c1.466.081,1.521-.689,1.436-.85S.633-.32,0,1Z" transform="translate(32.3 82.664)"/>
        <path id="Path-230" data-name="Path" d="M.026.151C-.063.3,0,1.069,1.463,1,.813-.333.116,0,.026.151Z" transform="translate(40.136 87.777)"/>
        <path id="Path-231" data-name="Path" d="M1.32.731A1.963,1.963,0,0,0,.852.174L.742.1A.705.705,0,0,0,.431,0H.342A.425.425,0,0,0,.019.153.527.527,0,0,0,.24.735h0A1.777,1.777,0,0,0,1.456.99,2.367,2.367,0,0,0,1.32.735Z" transform="translate(40.143 97.979)"/>
        <path id="Path-232" data-name="Path" d="M.026.151C-.063.3,0,1.069,1.463,1,.813-.333.116,0,.026.151Z" transform="translate(29.936 92.877)"/>
        <path id="Path-233" data-name="Path" d="M.026.151C-.063.3,0,1.069,1.463,1,.813-.333.116,0,.026.151Z" transform="translate(40.136 77.577)"/>
        <path id="Path-234" data-name="Path" d="M1.326.735A2.422,2.422,0,0,0,1.1.408,1.7,1.7,0,0,0,.858.179.773.773,0,0,0,.348,0,.425.425,0,0,0,.025.153a.425.425,0,0,0,.03.353A.663.663,0,0,0,.161.659.765.765,0,0,0,.246.735h0A1.776,1.776,0,0,0,1.462.99C1.423.905,1.381.829,1.343.761Z" transform="translate(40.137 67.375)"/>
        <path id="Path-235" data-name="Path" d="M.4,0C.228,0-.409.425.4,1.662,1.214.433.577,0,.4,0Z" transform="translate(31.438 102.149)"/>
        <path id="Path-236" data-name="Path" d="M0,1c1.466.081,1.521-.689,1.436-.85S.633-.32,0,1Z" transform="translate(32.3 103.064)"/>
        <path id="Path-237" data-name="Path" d="M.026.151C-.063.3,0,1.069,1.463,1,.813-.333.116,0,.026.151Z" transform="translate(29.936 103.077)"/>
        <path id="Path-238" data-name="Path" d="M0,0A8.045,8.045,0,0,0,.293.774H.557A2.282,2.282,0,0,0,0,0Z" transform="translate(0.242 57.396)"/>
      </g>
      <path id="Path-239" data-name="Path" d="M99.739,104.406a48.98,48.98,0,0,0-3.825-20.872C91.329,73.1,90.3,72.343,90.3,69.288s3.068-6.622,3.578-13.494a76.476,76.476,0,0,0,.255-10.2S105.073,62.9,112.71,63.92s12.219-6.107,9.418-15.78-15.02-17.561-19.852-23.928-15.785-6.375-21.382-6.375-8.4-2.036-9.418-5.852S70.461.51,70.461.51,63.84,4.582,52.641,0c0,0,1.02,14-.255,16.035s-3.043,4.11-10.68,4.11-14,1.53-17.561,5.1S5.819,43.061,2,48.662s-1.785,11.709,2.8,14,9.163.251,12.474-2.8S31.017,47.132,31.017,47.132a49.82,49.82,0,0,0,2.8,14.255c2.8,8.4,5.1,7.382,3.051,13.49s-6.107,7.892-7.378,15.78a75,75,0,0,0-1.02,13.744" transform="translate(2.779 50.405)" fill="none" stroke="#263238" stroke-linecap="round" stroke-linejoin="round" stroke-miterlimit="10" stroke-width="0.5"/>
      <path id="Path-240" data-name="Path" d="M0,8.075A31.986,31.986,0,0,1,1.679,0" transform="translate(33.796 89.467)" fill="#fff" stroke="#263238" stroke-linecap="round" stroke-linejoin="round" stroke-miterlimit="10" stroke-width="0.5"/>
      <path id="Path-241" data-name="Path" d="M2.325,6.111A31.45,31.45,0,0,0,0,0" transform="translate(94.575 89.905)" fill="none" stroke="#263238" stroke-linecap="round" stroke-linejoin="round" stroke-miterlimit="10" stroke-width="0.5"/>
      <path id="Path-242" data-name="Path" d="M0,5.138,16.031,0" transform="translate(59.513 119.089)" fill="none" stroke="#263238" stroke-linecap="round" stroke-linejoin="round" stroke-miterlimit="10" stroke-width="0.5"/>
      <path id="Path-243" data-name="Path" d="M0,3.175A51.956,51.956,0,0,1,11.645,0" transform="translate(66.772 116.82)" fill="none" stroke="#263238" stroke-linecap="round" stroke-linejoin="round" stroke-miterlimit="10" stroke-width="0.5"/>
      <path id="Path-244" data-name="Path" d="M12.346,37.183c12.7,2.448,17.6-9.724,19.3-19.452-4.229-.468-6.456-2.435-7.34-5.746C23.294,8.16,23.294.51,23.294.51S16.673,4.582,5.474,0c0,0,1.02,14-.255,16.035A7.241,7.241,0,0,1,.009,19.6C-.106,23.97.774,34.948,12.346,37.183Z" transform="translate(49.954 50.435)" fill="#b2b2b2"/>
      <path id="Path-245" data-name="Path" d="M18.56,10.71A71.191,71.191,0,0,1,17.82.51S11.2,4.582,0,0C0,0,.425,5.852.382,10.54,10.021,13.889,15.6,12.469,18.56,10.71Z" transform="translate(55.429 50.452)" opacity="0.2"/>
      <path id="Path-246" data-name="Path" d="M12.346,37.183c12.7,2.448,17.6-9.724,19.3-19.452-4.229-.468-6.456-2.435-7.34-5.746C23.294,8.16,23.294.51,23.294.51S16.673,4.582,5.474,0c0,0,1.02,14-.255,16.035A7.241,7.241,0,0,1,.009,19.6C-.106,23.97.774,34.948,12.346,37.183Z" transform="translate(49.954 50.435)" fill="none" stroke="#263238" stroke-linecap="round" stroke-linejoin="round" stroke-miterlimit="10" stroke-width="0.5"/>
      <circle id="Oval" cx="3.154" cy="3.154" r="3.154" transform="translate(78.349 39.776)" fill="#adc7f7" stroke="#263238" stroke-linecap="round" stroke-linejoin="round" stroke-miterlimit="10" stroke-width="0.5"/>
      <circle id="Oval-2" data-name="Oval" cx="3.154" cy="3.154" r="3.154" transform="translate(44.663 39.776)" fill="#adc7f7" stroke="#263238" stroke-linecap="round" stroke-linejoin="round" stroke-miterlimit="10" stroke-width="0.5"/>
      <path id="Path-247" data-name="Path" d="M.87,3.522S2.446-1.353,4.312.368s-.574,8.313-1.866,9.89S-.133,11.835.011,9.684.87,3.522.87,3.522Z" transform="translate(80.344 28.659)" fill="#b2b2b2" stroke="#263238" stroke-linecap="round" stroke-linejoin="round" stroke-miterlimit="10" stroke-width="0.5"/>
      <path id="Path-248" data-name="Path" d="M0,22.342s.425,11.386,8.806,16.97,14.607,2.363,18.045-2.363S32.44,27.5,32.44,20.625s.85-9.885-1.5-14.182S20.409,0,20.409,0A128.962,128.962,0,0,1,9.452,12.032,92.28,92.28,0,0,0,0,22.342Z" transform="translate(48.616 14.743)" fill="#b2b2b2"/>
      <path id="Path-249" data-name="Path" d="M20.409,0A128.962,128.962,0,0,1,9.452,12.032,92.28,92.28,0,0,0,0,22.342a26.108,26.108,0,0,0,1.3,6.515C12.627,20.2,18.81,4.633,20.455.013Z" transform="translate(48.616 14.743)" opacity="0.2"/>
      <path id="Path-250" data-name="Path" d="M0,22.342s.425,11.386,8.806,16.97,14.607,2.363,18.045-2.363S32.44,27.5,32.44,20.625s.85-9.885-1.5-14.182S20.409,0,20.409,0A128.962,128.962,0,0,1,9.452,12.032,92.28,92.28,0,0,0,0,22.342Z" transform="translate(48.616 14.743)" fill="none" stroke="#263238" stroke-linecap="round" stroke-linejoin="round" stroke-miterlimit="10" stroke-width="0.5"/>
      <path id="Path-251" data-name="Path" d="M0,0,4.824.451" transform="translate(56.542 35.747)" fill="none" stroke="#263238" stroke-linecap="round" stroke-linejoin="round" stroke-miterlimit="10" stroke-width="0.5"/>
      <path id="Path-252" data-name="Path" d="M0,.347s3.166-.6,4.675,0" transform="translate(71.162 35.247)" fill="none" stroke="#263238" stroke-linecap="round" stroke-linejoin="round" stroke-miterlimit="10" stroke-width="0.5"/>
      <path id="Path-253" data-name="Path" d="M2.291,2.078c0,1.148-.514,2.078-1.148,2.078S0,3.226,0,2.078.51,0,1.143,0,2.291.931,2.291,2.078Z" transform="translate(58.425 31.463)" fill="#263238"/>
      <path id="Path-254" data-name="Path" d="M0,.425A4.19,4.19,0,0,0,5.019,0" transform="translate(63.295 40.375)" fill="none" stroke="#263238" stroke-linecap="round" stroke-linejoin="round" stroke-miterlimit="10" stroke-width="0.5"/>
      <path id="Path-255" data-name="Path" d="M0,4.156S4.441,6.022,7.021,0" transform="translate(64.6 41.497)" fill="none" stroke="#263238" stroke-linecap="round" stroke-linejoin="round" stroke-miterlimit="10" stroke-width="0.5"/>
      <path id="Path-256" data-name="Path" d="M0,1.091S2.724-.774,5.449.373" transform="translate(70.321 32.522)" fill="none" stroke="#263238" stroke-linecap="round" stroke-linejoin="round" stroke-miterlimit="10" stroke-width="0.85"/>
      <path id="Path-257" data-name="Path" d="M0,1.525A5.889,5.889,0,0,1,7.166.951" transform="translate(69.462 27.375)" fill="none" stroke="#263238" stroke-linecap="round" stroke-linejoin="round" stroke-miterlimit="10" stroke-width="0.85"/>
      <path id="Path-258" data-name="Path" d="M6.167,1.189A4.765,4.765,0,0,0,0,1.049" transform="translate(56.844 25.828)" fill="none" stroke="#263238" stroke-linecap="round" stroke-linejoin="round" stroke-miterlimit="10" stroke-width="0.85"/>
      <path id="Path-259" data-name="Path" d="M4.582,0S0,5.1,0,10.434s3.052,10.2,11.475,17.816,16.286,13.234,19.6,15.019,6.617-.51,6.617-.51,5.474,5.47,6.107,4.2-1.908-3.183-2.418-3.944a10.455,10.455,0,0,0-1.526-1.653s2.673.378,3.693,1.275,2.669,2.418,3.434,2.291.765-.765-.382-2.291a13.626,13.626,0,0,0-3.306-3.056c-.765-.506-3.311-1.908-3.311-1.908s3.689-.255,4.964.51,4.709,3.056,4.964,2.036.255-1.653-1.02-2.8a13.538,13.538,0,0,0-5.342-2.8,15.78,15.78,0,0,1-3.056-.888,21.089,21.089,0,0,1,3.944-1.02c1.016,0,5.1,2.036,6.235,1.785s.51-1.275-.378-1.912A21.512,21.512,0,0,0,43.8,30.29c-1.658-.127-10.944,3.056-12.087,3.056s-4.071-4.072-7.127-9.546-4.2-14-10.689-16.923" transform="translate(0.2 99.072)" fill="#adc7f7"/>
      <g id="Group-2" data-name="Group" transform="translate(2.125 106.675)" opacity="0.2">
        <path id="Path-260" data-name="Path" d="M.011,1.662C.823.433.185,0,.011,0,.185,0,.823.433.011,1.662Z" transform="translate(2.08 0.149)"/>
        <path id="Path-261" data-name="Path" d="M.011,0c.174,0,.812.425,0,1.662C.823.433.185,0,.011,0Z" transform="translate(2.08 10.349)"/>
        <path id="Path-262" data-name="Path" d="M.4,0C.228,0-.409.425.4,1.662,1.214.433.577,0,.4,0Z" transform="translate(11.888 5.249)"/>
        <path id="Path-263" data-name="Path" d="M1.436.151C1.347,0,.65-.333,0,1,1.47,1.069,1.526.3,1.436.151Z" transform="translate(2.533 1.077)"/>
        <path id="Path-264" data-name="Path" d="M1.164.664A.663.663,0,0,0,1.271.511.31.31,0,0,0,.978.005a.773.773,0,0,0-.51.179,1.7,1.7,0,0,0-.238.23A2.422,2.422,0,0,0,0,.74H1.079A.765.765,0,0,0,1.164.664Z" transform="translate(2.661 11.27)"/>
        <path id="Path-265" data-name="Path" d="M1.436.151C1.347,0,.65-.333,0,1,1.47,1.069,1.521.3,1.436.151Z" transform="translate(12.733 6.177)"/>
        <path id="Path-266" data-name="Path" d="M1.463.992C.813-.33.116,0,.026.142S0,1.073,1.463.992Z" transform="translate(10.386 6.173)"/>
        <path id="Path-267" data-name="Path" d="M.011,0V1.662C.823.433.185,0,.011,0Z" transform="translate(2.08 0.149)"/>
        <path id="Path-268" data-name="Path" d="M.011,0V1.662C.823.433.185,0,.011,0Z" transform="translate(2.08 10.349)"/>
        <path id="Path-269" data-name="Path" d="M.336,0A.459.459,0,0,0,0,.285L.718.812C.825.225.463,0,.336,0Z" transform="translate(22.155 30.749)"/>
        <path id="Path-270" data-name="Path" d="M.391,0A.514.514,0,0,0,0,.472,6.991,6.991,0,0,0,.761.37.489.489,0,0,0,.391,0Z" transform="translate(32.3 35.849)"/>
        <path id="Path-271" data-name="Path" d="M.4,0C.228,0-.409.425.4,1.662,1.214.433.577,0,.4,0Z" transform="translate(22.088 20.549)"/>
        <path id="Path-272" data-name="Path" d="M.4,1.662C1.216.433.579,0,.4,0S-.411.433.4,1.662Z" transform="translate(32.286 25.649)"/>
        <path id="Path-273" data-name="Path" d="M.4,1.662C1.216.433.579,0,.4,0S-.411.433.4,1.662Z" transform="translate(11.886 15.449)"/>
        <path id="Path-274" data-name="Path" d="M.948.153C.88.039.472-.178,0,.277c.229.17.459.331.684.489A.535.535,0,0,0,.948.153Z" transform="translate(23.422 31.675)"/>
        <path id="Path-275" data-name="Path" d="M0,1c1.466.081,1.521-.689,1.436-.85S.633-.32,0,1Z" transform="translate(22.95 21.464)"/>
        <path id="Path-276" data-name="Path" d="M0,1c1.466.081,1.521-.689,1.436-.85S.633-.32,0,1Z" transform="translate(33.15 26.564)"/>
        <path id="Path-277" data-name="Path" d="M0,1c1.47.081,1.521-.689,1.436-.85S.633-.32,0,1Z" transform="translate(12.75 16.364)"/>
        <path id="Path-278" data-name="Path" d="M1.313.884C.948.6.612.361.357.187L.06,0,.026.043C-.059.187,0,.905,1.313.884Z" transform="translate(40.987 31.786)"/>
        <path id="Path-279" data-name="Path" d="M1.463.992C.813-.33.116,0,.026.142S0,1.073,1.463.992Z" transform="translate(20.586 21.473)"/>
        <path id="Path-280" data-name="Path" d="M.026.151C-.063.3,0,1.069,1.463,1,.813-.333.116,0,.026.151Z" transform="translate(30.786 26.577)"/>
        <path id="Path-281" data-name="Path" d="M.025.151C-.06.3,0,1.069,1.461,1,.811-.333.114,0,.025.151Z" transform="translate(10.388 16.377)"/>
        <path id="Path-282" data-name="Path" d="M1.2.076H.119A.089.089,0,0,1,.119.1C.081.169.038.246,0,.331A1.777,1.777,0,0,0,1.2.076Z" transform="translate(2.55 11.935)"/>
        <path id="Path-283" data-name="Path" d="M.414,0C.24,0-.4.425.414,1.662Z" transform="translate(1.677 0.149)"/>
        <path id="Path-284" data-name="Path" d="M.415,1.662V0C.241,0-.4.433.415,1.662Z" transform="translate(1.676 10.349)"/>
        <path id="Path-285" data-name="Path" d="M1.463.992C.813-.33.116,0,.026.142S0,1.073,1.463.992Z" transform="translate(0.186 1.073)"/>
        <path id="Path-286" data-name="Path" d="M.268.251A1.7,1.7,0,0,0,.03.021L0,0A7.16,7.16,0,0,0,.425.578H.518A2.422,2.422,0,0,0,.268.251Z" transform="translate(1.007 11.432)"/>
        <path id="Path-287" data-name="Path" d="M.191.111a.089.089,0,0,1,0-.025H.1L.285.34H.327C.272.255.229.178.191.111Z" transform="translate(1.339 11.925)"/>
      </g>
      <path id="Path-288" data-name="Path" d="M4.582,0S0,5.1,0,10.434s3.052,10.2,11.475,17.816,16.286,13.234,19.6,15.019,6.617-.51,6.617-.51,5.474,5.47,6.107,4.2-1.908-3.183-2.418-3.944a10.455,10.455,0,0,0-1.526-1.653s2.673.378,3.693,1.275,2.669,2.418,3.434,2.291.765-.765-.382-2.291a13.626,13.626,0,0,0-3.306-3.056c-.765-.506-3.311-1.908-3.311-1.908s3.689-.255,4.964.51,4.709,3.056,4.964,2.036.255-1.653-1.02-2.8a13.538,13.538,0,0,0-5.342-2.8,15.78,15.78,0,0,1-3.056-.888,21.089,21.089,0,0,1,3.944-1.02c1.016,0,5.1,2.036,6.235,1.785s.51-1.275-.378-1.912A21.512,21.512,0,0,0,43.8,30.29c-1.658-.127-10.944,3.056-12.087,3.056s-4.071-4.072-7.127-9.546-4.2-14-10.689-16.923" transform="translate(0.2 99.072)" fill="none" stroke="#263238" stroke-linecap="round" stroke-linejoin="round" stroke-miterlimit="10" stroke-width="0.5"/>
      <path id="Path-289" data-name="Path" d="M45.488,19.428a21.67,21.67,0,0,0-6.494-2.291c-1.658-.128-10.944,3.056-12.087,3.056s-4.071-4.071-7.127-9.545c-1.7-3.039-2.8-7.021-4.569-10.459C5.861-1.086,1.853,4.379,0,8.31a68.281,68.281,0,0,0,6.673,6.8c8.4,7.65,16.286,13.234,19.6,15.019s6.617-.51,6.617-.51,5.474,5.47,6.107,4.2-1.908-3.183-2.418-3.944a10.455,10.455,0,0,0-1.526-1.653s2.673.378,3.693,1.275,2.669,2.418,3.434,2.291.765-.765-.382-2.291a13.625,13.625,0,0,0-3.306-3.056c-.765-.506-3.311-1.908-3.311-1.908s3.689-.255,4.964.51,4.709,3.056,4.964,2.036.255-1.653-1.02-2.8a13.538,13.538,0,0,0-5.342-2.8,15.78,15.78,0,0,1-3.056-.888,21.089,21.089,0,0,1,3.944-1.02c1.016,0,5.1,2.036,6.235,1.785S46.376,20.066,45.488,19.428Z" transform="translate(4.981 112.22)" fill="#b2b2b2" stroke="#263238" stroke-linecap="round" stroke-linejoin="round" stroke-miterlimit="10" stroke-width="0.5"/>
      <path id="Path-290" data-name="Path" d="M4.206,74.763c-1.063-2.427-.153-7.739.909-15.326S7.24,44.112,7.24,40.015s.676-9.775-.659-11.607S.389,21.608.028,19.3s2.911-5.827,2.911-5.827.973-1.823,1.823-.85.484,2.184,0,3.884-.973,3.035-.973,3.035,4.25,1.335,5.342.608.995-4.883.918-6.919C9.892,9.266,8.3,10.962,7.2,12.84c-.531.9-3.642.366-1.823-1.942s3.51-4.344,5.21-2.52A18.268,18.268,0,0,1,13.5,13.72s1.215-5.784,2.321-9.184S18.906-.211,19.62.027s.633,1.424-.081,3.086-2.3,6.248-2.69,7.752-.472,3.243.319,3.085,3.557-4.985,4.352-7.042a10.309,10.309,0,0,1,3.319-4.824c1.343-.871,2.452.238,1.9,1.662a72.365,72.365,0,0,1-3.731,7.514,32.47,32.47,0,0,0-2.214,4.9,55.781,55.781,0,0,1,4.114-3.957c1.9-1.581,3.957-1.9,4.586-1.343s.081.633-1.5,1.9a21.312,21.312,0,0,0-5.835,5.852,29.053,29.053,0,0,0-3.4,7.276,24.671,24.671,0,0,1-2.3,4.828s1.483,12.044,4.054,18.67,7.119,16.316,5.733,23.239S22.2,83.11,18.439,84.2a7.263,7.263,0,0,1-6.426-1.186" transform="translate(101.517 29.086)" fill="#adc7f7"/>
      <g id="Group-3" data-name="Group" transform="translate(104.125 31.45)" opacity="0.2">
        <path id="Path-291" data-name="Path" d="M.043.066a.472.472,0,0,1,.34.293h0A.459.459,0,0,0,.043.066Z" transform="translate(22.448 3.908)"/>
        <path id="Path-292" data-name="Path" d="M.043,0V.994l.34-.7A.472.472,0,0,0,.043,0Z" transform="translate(22.448 3.974)"/>
        <path id="Path-293" data-name="Path" d="M.011,1.662C.823.433.185,0,.011,0,.185,0,.823.433.011,1.662Z" transform="translate(22.48 65.174)"/>
        <path id="Path-294" data-name="Path" d="M.948.85Q.948.425.91,0C.646.068.315.319,0,.965A2.312,2.312,0,0,0,.948.85Z" transform="translate(22.933 66.13)"/>
        <path id="Path-295" data-name="Path" d="M.011,0V1.662C.823.433.185,0,.011,0Z" transform="translate(22.48 65.174)"/>
        <path id="Path-296" data-name="Path" d="M.4,0C.252,0-.215.31.116,1.13.223.786.337.408.452.009Z" transform="translate(1.69 14.174)"/>
        <path id="Path-297" data-name="Path" d="M.4,1.662C1.216.433.579,0,.4,0S-.411.433.4,1.662Z" transform="translate(11.886 19.274)"/>
        <path id="Path-298" data-name="Path" d="M.235,1.356.413.994V0C.252,0-.288.366.235,1.356Z" transform="translate(22.078 3.974)"/>
        <path id="Path-299" data-name="Path" d="M.4,0C.228,0-.409.425.4,1.662,1.214.433.577,0,.4,0Z" transform="translate(11.888 9.074)"/>
        <path id="Path-300" data-name="Path" d="M.527.506A.425.425,0,0,0,.557.153.425.425,0,0,0,.234,0,.693.693,0,0,0,0,.034c.174.213.331.4.459.574A.472.472,0,0,0,.527.506Z" transform="translate(3.413 25.3)"/>
        <path id="Path-301" data-name="Path" d="M1.436.151C1.347,0,.65-.333,0,1,1.466,1.069,1.521.3,1.436.151Z" transform="translate(12.733 20.202)"/>
        <path id="Path-302" data-name="Path" d="M1.241.726a4.93,4.93,0,0,1,0-.7C.969-.06.472.025,0,.99A1.755,1.755,0,0,0,1.241.726Z" transform="translate(12.72 10.001)"/>
        <path id="Path-303" data-name="Path" d="M.375,0C.26.191.154.4.043.616A.582.582,0,0,0,.375,0Z" transform="translate(13.807)"/>
        <path id="Path-304" data-name="Path" d="M.025.149C-.06.294,0,1.033,1.368,1l.038-.11C.773-.31.115,0,.025.149Z" transform="translate(0.187 15.104)"/>
        <path id="Path-305" data-name="Path" d="M.026.151C-.063.3,0,1.069,1.463,1,.813-.333.116,0,.026.151Z" transform="translate(10.386 20.202)"/>
        <path id="Path-306" data-name="Path" d="M.025.15C-.06.3,0,1.064,1.445,1h0C.807-.33.114,0,.025.15Z" transform="translate(20.587 4.903)"/>
        <path id="Path-307" data-name="Path" d="M.859.85A2,2,0,0,0,.17,0C.1.319.043.586,0,.79A2.478,2.478,0,0,0,.859.85Z" transform="translate(10.991 10.141)"/>
        <path id="Path-308" data-name="Path" d="M.349.621C.281.442.2.234.1,0h0A.54.54,0,0,0,.349.621Z" transform="translate(10.323 10.145)"/>
        <path id="Path-309" data-name="Path" d="M.4,1.662C1.216.433.579,0,.4,0S-.411.433.4,1.662Z" transform="translate(11.886 49.874)"/>
        <path id="Path-310" data-name="Path" d="M.4,0C.228,0-.409.425.4,1.662,1.214.433.577,0,.4,0Z" transform="translate(11.888 39.674)"/>
        <path id="Path-311" data-name="Path" d="M.4,0C.228,0-.409.425.4,1.662,1.214.433.577,0,.4,0Z" transform="translate(11.888 29.474)"/>
        <path id="Path-312" data-name="Path" d="M.226.076A1.982,1.982,0,0,1,.192.349.468.468,0,0,0,.226.076Z" transform="translate(3.76 45.824)"/>
        <path id="Path-313" data-name="Path" d="M1.3.149C1.215,0,.608-.276,0,.731H1.079A.527.527,0,0,0,1.3.149Z" transform="translate(2.669 55.905)"/>
        <path id="Path-314" data-name="Path" d="M0,1c1.466.081,1.521-.689,1.436-.85S.633-.32,0,1Z" transform="translate(12.75 50.789)"/>
        <path id="Path-315" data-name="Path" d="M1.436.151C1.347,0,.65-.333,0,1,1.466,1.069,1.521.3,1.436.151Z" transform="translate(12.733 40.602)"/>
        <path id="Path-316" data-name="Path" d="M0,.99C1.079,1.05,1.394.65,1.449.374L1.411.123C1.25-.034.6-.255,0,.99Z" transform="translate(12.75 30.4)"/>
        <path id="Path-317" data-name="Path" d="M.831.16C.406-.134.079.045.019.16A.527.527,0,0,0,.24.742h.791Z" transform="translate(20.593 55.902)"/>
        <path id="Path-318" data-name="Path" d="M.026.151C-.063.3,0,1.069,1.463,1,.813-.333.116,0,.026.151Z" transform="translate(10.386 50.802)"/>
        <path id="Path-319" data-name="Path" d="M.026.151C-.063.3,0,1.069,1.463,1,.813-.333.116,0,.026.151Z" transform="translate(10.386 40.602)"/>
        <path id="Path-320" data-name="Path" d="M.026.151C-.063.3,0,1.069,1.463,1,.813-.333.116,0,.026.151Z" transform="translate(10.386 30.402)"/>
        <path id="Path-321" data-name="Path" d="M.4,0C.237,0-.341.391.284,1.47L.5,1.513C1.159.4.568,0,.4,0Z" transform="translate(11.888 80.474)"/>
        <path id="Path-322" data-name="Path" d="M.4,1.662C1.216.433.579,0,.4,0S-.411.433.4,1.662Z" transform="translate(1.686 65.174)"/>
        <path id="Path-323" data-name="Path" d="M.414,0C.24,0-.4.425.414,1.662Z" transform="translate(22.077 65.174)"/>
        <path id="Path-324" data-name="Path" d="M.4,1.662C1.216.433.579,0,.4,0S-.411.433.4,1.662Z" transform="translate(11.886 70.274)"/>
        <path id="Path-325" data-name="Path" d="M.4,0C.228,0-.409.425.4,1.662,1.214.433.577,0,.4,0Z" transform="translate(11.888 60.074)"/>
        <path id="Path-326" data-name="Path" d="M1.275.152C1.194.012.612-.273,0,.667A7.051,7.051,0,0,0,1.054.722.523.523,0,0,0,1.275.152Z" transform="translate(12.894 81.401)"/>
        <path id="Path-327" data-name="Path" d="M0,1c1.466.081,1.521-.689,1.436-.85S.633-.32,0,1Z" transform="translate(2.55 66.089)"/>
        <path id="Path-328" data-name="Path" d="M0,1c1.466.081,1.521-.689,1.436-.85S.633-.32,0,1Z" transform="translate(12.75 71.189)"/>
        <path id="Path-329" data-name="Path" d="M1.436.151C1.347,0,.65-.333,0,1,1.466,1.069,1.521.3,1.436.151Z" transform="translate(12.733 61.002)"/>
        <path id="Path-330" data-name="Path" d="M.026.153C-.042.267-.021.748.659.926.774.722.889.5.995.3.515-.183.094.034.026.153Z" transform="translate(20.587 76.301)"/>
        <path id="Path-331" data-name="Path" d="M0,.063A7.9,7.9,0,0,0,.744.369.807.807,0,0,0,0,.063Z" transform="translate(10.655 81.35)"/>
        <path id="Path-332" data-name="Path" d="M.425.6A2.55,2.55,0,0,0,.047,0C.047.2.013.4,0,.591A3.476,3.476,0,0,0,.425.6Z" transform="translate(1.224 66.495)"/>
        <path id="Path-333" data-name="Path" d="M1.463.992C.813-.33.116,0,.026.142S0,1.073,1.463.992Z" transform="translate(20.586 66.098)"/>
        <path id="Path-334" data-name="Path" d="M.026.151C-.063.3,0,1.069,1.463,1,.813-.333.116,0,.026.151Z" transform="translate(10.386 71.202)"/>
        <path id="Path-335" data-name="Path" d="M.026.151C-.063.3,0,1.069,1.463,1,.813-.333.116,0,.026.151Z" transform="translate(10.386 61.002)"/>
        <path id="Path-336" data-name="Path" d="M.136.079C.089.156.047.241,0,.33H0A1.777,1.777,0,0,0,1.215.075H.136Z" transform="translate(2.533 56.556)"/>
        <path id="Path-337" data-name="Path" d="M.8.085H0A1.509,1.509,0,0,0,.88.34Z" transform="translate(20.825 56.551)"/>
      </g>
      <path id="Path-338" data-name="Path" d="M4.206,74.763c-1.063-2.427-.153-7.739.909-15.326S7.24,44.112,7.24,40.015s.676-9.775-.659-11.607S.389,21.608.028,19.3s2.911-5.827,2.911-5.827.973-1.823,1.823-.85.484,2.184,0,3.884-.973,3.035-.973,3.035,4.25,1.335,5.342.608.995-4.883.918-6.919C9.892,9.266,8.3,10.962,7.2,12.84c-.531.9-3.642.366-1.823-1.942s3.51-4.344,5.21-2.52A18.268,18.268,0,0,1,13.5,13.72s1.215-5.784,2.321-9.184S18.906-.211,19.62.027s.633,1.424-.081,3.086-2.3,6.248-2.69,7.752-.472,3.243.319,3.085,3.557-4.985,4.352-7.042a10.309,10.309,0,0,1,3.319-4.824c1.343-.871,2.452.238,1.9,1.662a72.365,72.365,0,0,1-3.731,7.514,32.47,32.47,0,0,0-2.214,4.9,55.781,55.781,0,0,1,4.114-3.957c1.9-1.581,3.957-1.9,4.586-1.343s.081.633-1.5,1.9a21.312,21.312,0,0,0-5.835,5.852,29.053,29.053,0,0,0-3.4,7.276,24.671,24.671,0,0,1-2.3,4.828s1.483,12.044,4.054,18.67,7.119,16.316,5.733,23.239S22.2,83.11,18.439,84.2a7.263,7.263,0,0,1-6.426-1.186" transform="translate(101.517 29.086)" fill="none" stroke="#263238" stroke-linecap="round" stroke-linejoin="round" stroke-miterlimit="10" stroke-width="0.5"/>
      <path id="Path-339" data-name="Path" d="M22.171,18.616a21.27,21.27,0,0,1,5.857-5.852c1.581-1.262,2.125-1.347,1.5-1.9s-2.686-.238-4.586,1.343a55.781,55.781,0,0,0-4.114,3.957,32.47,32.47,0,0,1,2.193-4.9A72.365,72.365,0,0,0,26.74,3.745c.552-1.424-.552-2.55-1.9-1.662a10.336,10.336,0,0,0-3.319,4.824c-.791,2.057-3.562,6.885-4.352,7.042s-.714-1.585-.319-3.085,1.981-6.09,2.69-7.752.791-2.847.081-3.085-2.69,1.105-3.8,4.509S13.5,13.72,13.5,13.72A18.214,18.214,0,0,0,10.59,8.378c-1.7-1.819-3.4.213-5.211,2.52S6.654,13.741,7.2,12.84c1.1-1.878,2.69-3.574,2.847.4.076,2.036.174,6.188-.918,6.919s-5.342-.608-5.342-.608.485-1.334.973-3.035.85-2.915,0-3.884-1.823.85-1.823.85S-.337,17,.028,19.3s5.219,7.28,6.553,9.1.659,7.51.659,11.607S6.178,51.851,5.116,59.437a2.215,2.215,0,0,1-.043.293,13.843,13.843,0,0,0,10.884,4.1A11.522,11.522,0,0,0,24.436,59.6c-1.233-3.668-2.779-7.225-3.927-10.2-2.571-6.626-4.054-18.67-4.054-18.67a24.671,24.671,0,0,0,2.3-4.828A29.053,29.053,0,0,1,22.171,18.616Z" transform="translate(101.504 29.086)" fill="#b2b2b2" stroke="#263238" stroke-linecap="round" stroke-linejoin="round" stroke-miterlimit="10" stroke-width="0.5"/>
      <path id="Path-340" data-name="Path" d="M.239,7.357s-.71-3,.319-4.9A5.334,5.334,0,0,1,3.086,0" transform="translate(111.8 51.973)" fill="none" stroke="#263238" stroke-linecap="round" stroke-linejoin="round" stroke-miterlimit="10" stroke-width="0.5"/>
    </g>
  </g>
</svg>
