<svg xmlns="http://www.w3.org/2000/svg" width="209.491" height="209.491" viewBox="0 0 209.491 209.491">
  <g>
    <g transform="rotate(90.000032 104.74536133 104.74536133)">
      <path fill="rgb(255,255,255)" fill-rule="evenodd" d="M157.30731403 183.5966922c12.921768-22.6367784 12.205728-49.2921936 11.280384-74.1442896-.429624-11.4610464-.396576-22.9309056-.969408-34.3886472-.561816-11.3002128-1.894752-22.7998152-5.959656-33.6836232-3.954744-10.5819696-10.773648-20.9876832-21.525264-27.5763528-10.388088-6.3595368-23.034456-9.4979952-35.592696-9.5112144-9.936432-.011016-20.941416 1.3516632-27.903528 7.8830496-7.017192 6.5809584-9.826272 16.6264488-11.985408 25.1528328-6.763824 26.6598216-1.81764 54.0874584-2.082024 81.1791072-.011016 1.1115144-1.145664 2.1503232-2.401488 2.3067504-6.642648.8250984-13.395456.682992-20.093184 1.0938888 5.320728 5.1026112 12.877704 8.6123088 19.850832 11.86974.143208-.501228.286416-1.002456.451656-1.5003792.352512-1.1258352 2.632824-.6885 2.36844.4703832-.16524.710532-.319464 1.4254704-.462672 2.1415104.154224.0738072.308448.1465128.462672.22032 2.53368 1.206252 1.057536 3.9018672-1.233792 4.2213312-1.828656 12.3907968-.859248 25.551612 3.80052 37.3849992 2.654856 6.7318776 6.71976 13.3249536 12.822624 18.2656296 6.323184 5.12244 14.970744 8.5770576 23.364936 10.0928592 21.932856 3.9624552 45.793512-3.9360168 55.807056-21.4778952"/>
      <path fill="rgb(255,255,255)" fill-rule="evenodd" d="M157.30731403 183.5966922c12.921768-22.6367784 12.205728-49.2921936 11.280384-74.1442896-.429624-11.4610464-.396576-22.9309056-.969408-34.3886472-.561816-11.3002128-1.894752-22.7998152-5.959656-33.6836232-3.954744-10.5819696-10.773648-20.9876832-21.525264-27.5763528-10.388088-6.3595368-23.034456-9.4979952-35.592696-9.5112144-9.936432-.011016-20.941416 1.3516632-27.903528 7.8830496-7.017192 6.5809584-9.826272 16.6264488-11.985408 25.1528328-6.763824 26.6598216-1.81764 54.0874584-2.082024 81.1791072-.011016 1.1115144-1.145664 2.1503232-2.401488 2.3067504-6.642648.8250984-13.395456.682992-20.093184 1.0938888 5.320728 5.1026112 12.877704 8.6123088 19.850832 11.86974.143208-.501228.286416-1.002456.451656-1.5003792.352512-1.1258352 2.632824-.6885 2.36844.4703832-.16524.710532-.319464 1.4254704-.462672 2.1415104.154224.0738072.308448.1465128.462672.22032 2.53368 1.206252 1.057536 3.9018672-1.233792 4.2213312-1.828656 12.3907968-.859248 25.551612 3.80052 37.3849992 2.654856 6.7318776 6.71976 13.3249536 12.822624 18.2656296 6.323184 5.12244 14.970744 8.5770576 23.364936 10.0928592 21.932856 3.9624552 45.793512-3.9360168 55.807056-21.4778952"/>
      <path fill="rgb(0,0,0)" fill-rule="evenodd" d="M172.78448486 110.02246094c.68469239 19.71923828 1.37145996 39.49365234-4.4501953 58.63867187-3.11755372 10.26464844-7.81030274 20.5625-16.81042481 27.99414063-7.64501954 6.32080078-17.57055664 10.57861328-28.11279297 12.1274414-21.3380127 3.1328125-45.41894532-4.16845703-56.51208496-21.1796875-9.45178223-14.50146484-11.63293457-32.7680664-8.18493653-48.9921875-11.00341797 3.62207032-16.79943847 6.22900391-21.694458 6.22900391-1.55493165 0-.46655274-8.52001953 1.0102539-11.40966797 4.64343262-9.08691406 11.05627442-16.7709961 18.55810547-17.4584961 0-7.65820312-.37023926-15.33349609-.74023437-23.00537109-.93029786-19.28857421-1.85961915-38.55566406 3.09765625-57.47851562 2.30236816-8.80175781 5.1776123-18.87841797 12.23876953-25.78417969C78.06915283 2.99023438 87.31158447.48779297 97.6005249.08105468c12.24987793-.48242187 24.95129395 1.14453126 36.11047364 6.01367188 11.45666503 4.99804688 20.24743652 12.75634766 26.27319335 22.50927735 12.33789063 19.97607422 12.1616211 43.3564453 12.37097168 65.15478515.05236817 5.40771485.24072266 10.8334961.4293213 16.26367188zm-94.64916992 84.95947265c6.32312012 5.1225586 14.97070313 8.57714844 23.36486817 10.09277344 21.93286132 3.96240234 45.7935791-3.93603516 55.8071289-21.47802734 12.92175293-22.63671875 12.20568848-49.29199219 11.28039551-74.14404297-.4296875-11.4609375-.39660645-22.93066406-.96948242-34.38867188-.56176758-11.30029296-1.89465332-22.79980468-5.95959473-33.68359375-3.95471191-10.58203125-10.77368164-20.98779296-21.52526855-27.57617187-10.38806153-6.35986328-23.03442383-9.49804688-35.59265137-9.51123047-9.93652344-.01123047-20.94152832 1.3515625-27.90356445 7.8828125-7.01721192 6.58105469-9.82629395 16.62646484-11.98547364 25.15283203-4.68078613 18.44970703-3.75354004 37.26708985-2.8260498 56.08642578.41271973 8.375.82543945 16.74951172.74401855 25.09277344-.01098632 1.11132813-1.14562988 2.15039063-2.40148925 2.30664063-6.64257813.8251953-16.52648926 9.70605468-20.84033204 19.41455078 8.22143555-3.79736328 14.19775391-6.4506836 20.59802247-6.4506836.14318847-.50146484.28637695-1.0024414.45166015-1.50048828.35253906-1.12597656 2.6328125-.68847656 2.3684082.47021484-.16516113.71044922-.319458 1.42578126-.46264648 2.14160157l.46264648.22021484c2.53369141 1.20654297 1.0576172 3.90185547-1.23376464 4.22167969-1.82861329 12.390625-.85925293 25.55126953 3.8005371 37.38476562 2.65478516 6.7319336 6.71972657 13.32519532 12.82263184 18.265625z"/>
    </g>
    <text font-size="0" style="white-space:pre">
      <tspan x="43.222" y="94" fill="rgb(11,2,18)" font-family="Arial" font-size="24" font-weight="400" style="white-space:pre;text-transform:uppercase">Become a </tspan> <tspan x="21.888" y="123" fill="rgb(11,2,18)" font-family="Arial" font-size="24" font-weight="400" style="white-space:pre;text-transform:uppercase">SplitCheker</tspan>
    </text>
  </g>
</svg>
