<svg xmlns="http://www.w3.org/2000/svg" width="226.916" height="199.802" viewBox="0 0 226.916 199.802">
  <g id="Catalogue-bro" transform="translate(-0.241 0.056)">
    <g id="freepik--background-simple--inject-2" transform="translate(0 10.152)">
      <path id="Path" d="M211,33.434S196.515,4.809,164.526.566,110.211,17,86.668,27.6c-12.33,5.553-26.4,3.4-39.492,6.091C5.343,42.276-10.434,96.114,7,126.733c15.086,26.508,41.624,40.289,82.081,43.467s68.807,6.893,105.025-19.081S227.9,71.073,211,33.434Z" transform="translate(0.241 0.216)" fill="#ffb76f"/>
      <path id="Path-2" data-name="Path" d="M211,33.434S196.515,4.809,164.526.566,110.211,17,86.668,27.6c-12.33,5.553-26.4,3.4-39.492,6.091C5.343,42.276-10.434,96.114,7,126.733c15.086,26.508,41.624,40.289,82.081,43.467s68.807,6.893,105.025-19.081S227.9,71.073,211,33.434Z" transform="translate(0.241 0.216)" fill="#f9fbff"/>
    </g>
    <g id="freepik--Plants--inject-2" transform="translate(184.772 122.843)">
      <path id="Path-3" data-name="Path" d="M13.435,64.951S-2.088,41.271.237,35.84s10.477,3.878,10.477,3.878S-1.286,7.891,6.836.906,17.7,29.627,17.7,29.627,25.075,9.058,30.9,16.819s-8.924,24.066-8.924,24.066,10.091.386,7.371,6.985S19.258,61.454,19.258,61.454Z" transform="translate(0.27 0.445)" fill="#ffb76f"/>
      <path id="Path-4" data-name="Path" d="M5.96,43.619s-9.315-13.2-4.655-15.914S8.29,33.142,8.29,33.142,8.681-2.568,16.051.147,20.711,24.6,20.711,24.6s9.315-6.208,8.929,2.716-12.812,16.7-12.812,16.7" transform="translate(3.476 16.34)" fill="none" stroke="#263238" stroke-linecap="round" stroke-linejoin="round" stroke-miterlimit="10" stroke-width="0.508"/>
      <path id="Path-5" data-name="Path" d="M8.152,8.929,0,0" transform="translate(9.827 51.807)" fill="none" stroke="#263238" stroke-linecap="round" stroke-linejoin="round" stroke-miterlimit="10" stroke-width="0.508"/>
      <path id="Path-6" data-name="Path" d="M.447,22.122.061,0" transform="translate(17.919 42.883)" fill="none" stroke="#263238" stroke-linecap="round" stroke-linejoin="round" stroke-miterlimit="10" stroke-width="0.508"/>
      <path id="Path-7" data-name="Path" d="M0,9.7,7.376,0" transform="translate(18.751 47.929)" fill="none" stroke="#263238" stroke-linecap="round" stroke-linejoin="round" stroke-miterlimit="10" stroke-width="0.508"/>
      <path id="Path-8" data-name="Path" d="M20.569,0H0L2.056,18.244H18.513L20.569,0Z" transform="translate(4.782 58.406)" fill="#263238" stroke="#263238" stroke-linecap="round" stroke-linejoin="round" stroke-miterlimit="10" stroke-width="0.508"/>
    </g>
    <g id="freepik--Device--inject-2" transform="translate(77.665)">
      <rect id="Rectangle" width="105.508" height="199.294" rx="3.893" transform="translate(0.005 0.198)" fill="#fff" stroke="#263238" stroke-linecap="round" stroke-linejoin="round" stroke-miterlimit="10" stroke-width="0.508"/>
      <path id="Path-9" data-name="Path" d="M22.325,2.853H1.426A1.426,1.426,0,0,1,0,1.426H0A1.426,1.426,0,0,1,1.426,0h20.9a1.426,1.426,0,0,1,1.426,1.426h0a1.426,1.426,0,0,1-1.426,1.426Z" transform="translate(40.883 8.345)" fill="#263238"/>
      <path id="Path-10" data-name="Path" d="M11.4,5.7a5.7,5.7,0,1,0-5.7,5.7A5.7,5.7,0,0,0,11.4,5.7Z" transform="translate(47.056 180.69)" fill="#fff" stroke="#263238" stroke-linecap="round" stroke-linejoin="round" stroke-miterlimit="10" stroke-width="0.5"/>
      <rect id="Rectangle-2" data-name="Rectangle" width="5.777" height="5.777" transform="translate(49.868 183.503)" fill="#263238"/>
      <rect id="Rectangle-3" data-name="Rectangle" width="96.127" height="155.528" transform="translate(4.695 22.081)" fill="#ffb76f" stroke="#263238" stroke-linecap="round" stroke-linejoin="round" stroke-miterlimit="10" stroke-width="0.508"/>
      <rect id="Rectangle-4" data-name="Rectangle" width="96.127" height="9.98" transform="translate(4.695 22.081)" fill="#263238" stroke="#263238" stroke-linecap="round" stroke-linejoin="round" stroke-miterlimit="10" stroke-width="0.508"/>
      <path id="Path-11" data-name="Path" d="M0,.254H10.782" transform="translate(48.203 34.259)" fill="none" stroke="#263238" stroke-linecap="round" stroke-linejoin="round" stroke-miterlimit="10" stroke-width="0.508"/>
      <path id="Path-12" data-name="Path" d="M0,.254H25.746" transform="translate(41.381 36.239)" fill="none" stroke="#263238" stroke-linecap="round" stroke-linejoin="round" stroke-miterlimit="10" stroke-width="0.508"/>
      <path id="Path-13" data-name="Path" d="M.567,17.964a.569.569,0,0,1-.508-.822L8.4.315A.558.558,0,0,1,8.908,0a.574.574,0,0,1,.508.33l7.614,16.533a.569.569,0,1,1-1.015.477L8.908,1.888,1.1,17.624a.574.574,0,0,1-.533.34Z" transform="translate(19.681 33.746)" fill="#263238"/>
      <path id="Path-14" data-name="Path" d="M5.028,0H25.657L30.84,17.193a5.584,5.584,0,0,1-.868,4.964h0a5.584,5.584,0,0,1-4.508,2.274H5.84A5.624,5.624,0,0,1,1.3,22.117l-.223-.31a5.614,5.614,0,0,1-.858-4.843Z" transform="translate(12.881 49.533)" fill="#fff" stroke="#263238" stroke-linecap="round" stroke-linejoin="round" stroke-miterlimit="10" stroke-width="0.508"/>
      <path id="Path-15" data-name="Path" d="M0,0H35.112V18.178A3.919,3.919,0,0,1,31.193,22.1H3.919A3.919,3.919,0,0,1,0,18.178V0Z" transform="translate(59.624 51.873)" fill="#fff" stroke="#263238" stroke-linecap="round" stroke-linejoin="round" stroke-miterlimit="10" stroke-width="0.508"/>
      <path id="Path-16" data-name="Path" d="M0,0,3.792,9.878a4.208,4.208,0,0,0,3.929,2.7h20.01a4.208,4.208,0,0,0,3.975-2.822L35.112,0" transform="translate(59.624 51.873)" fill="none" stroke="#263238" stroke-linecap="round" stroke-linejoin="round" stroke-miterlimit="10" stroke-width="0.508"/>
      <rect id="Rectangle-5" data-name="Rectangle" width="7.751" height="3.365" transform="translate(73.959 62.695)" fill="#fff" stroke="#263238" stroke-linecap="round" stroke-linejoin="round" stroke-miterlimit="10" stroke-width="0.508"/>
      <path id="Path-17" data-name="Path" d="M13.9,0,0,14.482.878,15.8,15.949.289,13.9,0Z" transform="translate(57.574 51.726)" fill="#fff" stroke="#263238" stroke-linecap="round" stroke-linejoin="round" stroke-miterlimit="10" stroke-width="0.508"/>
      <rect id="Rectangle-6" data-name="Rectangle" width="17.431" height="5.685" rx="2.538" transform="translate(19.421 77.467)" fill="#263238"/>
      <rect id="Rectangle-7" data-name="Rectangle" width="17.431" height="5.685" rx="2.538" transform="translate(67.69 77.467)" fill="#263238"/>
      <path id="Path-18" data-name="Path" d="M20.611,10.369a.574.574,0,0,1-.553-.437c0-.1-2.294-9.244-9.183-8.782C3.7,1.628,1.139,9.557,1.113,9.638a.574.574,0,0,1-.716.376A.563.563,0,0,1,.027,9.3C.027,9.211,2.834.547,10.8.019c7.832-.508,10.34,9.548,10.365,9.645a.563.563,0,0,1-.416.67.4.4,0,0,1-.137.036Z" transform="translate(17.831 90.174)" fill="#263238"/>
      <path id="Path-19" data-name="Path" d="M2.365,0S9.979,2.482,23.578,0l2.629,16.061a4.365,4.365,0,0,1-.761,3.254l-.274.376A4.355,4.355,0,0,1,21.619,21.5H4.36A4.355,4.355,0,0,1,.431,19.03h0A4.376,4.376,0,0,1,.04,16.543Z" transform="translate(15.279 98.365)" fill="#fff" stroke="#263238" stroke-linecap="round" stroke-linejoin="round" stroke-miterlimit="10" stroke-width="0.508"/>
      <path id="Path-20" data-name="Path" d="M21.213,0s-.279,11.279-10.1,11.279S0,.015,0,.015" transform="translate(17.645 98.365)" fill="none" stroke="#263238" stroke-linecap="round" stroke-linejoin="round" stroke-miterlimit="10" stroke-width="0.508"/>
      <rect id="Rectangle-8" data-name="Rectangle" width="5.269" height="4.533" transform="translate(25.98 107.289)" fill="none" stroke="#263238" stroke-linecap="round" stroke-linejoin="round" stroke-miterlimit="10" stroke-width="0.508"/>
      <path id="Path-21" data-name="Path" d="M.564,13.442a.574.574,0,0,1-.508-.822L8.4.315A.548.548,0,0,1,8.9,0a.574.574,0,0,1,.508.33l7.614,12.015a.569.569,0,0,1-1.036.472L8.884,1.888,1.072,13.127a.569.569,0,0,1-.508.315Z" transform="translate(67.42 84.172)" fill="#263238"/>
      <path id="Path-22" data-name="Path" d="M5.029,0h20.65l5.188,17.2A5.619,5.619,0,0,1,30,22.162h0a5.619,5.619,0,0,1-4.513,2.269H5.841A5.619,5.619,0,0,1,1.3,22.122l-.223-.31A5.619,5.619,0,0,1,.212,16.98Z" transform="translate(60.616 95.431)" fill="#fff" stroke="#263238" stroke-linecap="round" stroke-linejoin="round" stroke-miterlimit="10" stroke-width="0.508"/>
      <path id="Path-23" data-name="Path" d="M1.411,0,0,4.975H27.817L26.32,0Z" transform="translate(62.157 102.751)" fill="#263238"/>
      <path id="Path-24" data-name="Path" d="M.211.594A5.624,5.624,0,0,0,.779,4.975h29.68A5.584,5.584,0,0,0,30.84.812L30.591,0H.378Z" transform="translate(60.617 111.822)" fill="#263238"/>
      <path id="Path-25" data-name="Path" d="M.914,0,0,3.218H22.513L21.538,0Z" transform="translate(64.731 95.437)" fill="#263238"/>
      <rect id="Rectangle-9" data-name="Rectangle" width="17.431" height="5.685" rx="2.538" transform="translate(19.421 122.411)" fill="#263238"/>
      <rect id="Rectangle-10" data-name="Rectangle" width="17.431" height="5.685" rx="2.538" transform="translate(67.69 122.411)" fill="#263238"/>
      <path id="Path-26" data-name="Path" d="M.569,12.985A.569.569,0,0,1,0,12.416V7.223A7.234,7.234,0,0,1,7.239,0h.147A7.234,7.234,0,0,1,14.6,7.223v4.924a.569.569,0,1,1-1.137,0V7.223A6.091,6.091,0,0,0,7.371,1.132H7.239A6.091,6.091,0,0,0,1.147,7.223v5.193a.569.569,0,0,1-.579.569Z" transform="translate(20.68 133.538)" fill="#263238"/>
      <path id="Path-27" data-name="Path" d="M2.51,0s6.7,2.03,22.7,0l2.817,17.183a4.66,4.66,0,0,1-.817,3.477l-.289.406a4.665,4.665,0,0,1-3.787,1.939H4.662a4.67,4.67,0,0,1-4.2-2.645h0A4.711,4.711,0,0,1,.043,17.7Z" transform="translate(14.379 143.782)" fill="#fff" stroke="#263238" stroke-linecap="round" stroke-linejoin="round" stroke-miterlimit="10" stroke-width="0.508"/>
      <path id="Path-28" data-name="Path" d="M6.723,6A6,6,0,0,0,.728,0H.576L.043,3.817a4.711,4.711,0,0,0,.416,2.66h0a4.67,4.67,0,0,0,4.2,2.645H5.834A5.924,5.924,0,0,0,6.723,6Z" transform="translate(14.379 157.66)" fill="#263238"/>
      <path id="Path-29" data-name="Path" d="M0,5.98A5.924,5.924,0,0,0,.888,9.107H2.066A4.665,4.665,0,0,0,5.853,7.168l.289-.406a4.66,4.66,0,0,0,.817-3.477L6.421,0H5.995A6,6,0,0,0,0,5.98Z" transform="translate(35.442 157.68)" fill="#263238"/>
      <path id="Path-30" data-name="Path" d="M.254,0V22.091" transform="translate(27.579 144.787)" fill="none" stroke="#263238" stroke-linecap="round" stroke-linejoin="round" stroke-miterlimit="10" stroke-width="0.508"/>
      <rect id="Rectangle-11" data-name="Rectangle" width="31.893" height="18.579" rx="1.305" transform="translate(60.208 148.294)" fill="#fff" stroke="#263238" stroke-linecap="round" stroke-linejoin="round" stroke-miterlimit="10" stroke-width="0.508"/>
      <path id="Path-31" data-name="Path" d="M0,.254l14.239,10.66a2.315,2.315,0,0,0,2.812,0L31.162,0" transform="translate(60.355 148.919)" fill="none" stroke="#263238" stroke-linecap="round" stroke-linejoin="round" stroke-miterlimit="10" stroke-width="0.508"/>
      <path id="Path-32" data-name="Path" d="M0,0H3.218V13.2a1.437,1.437,0,0,1-1.437,1.437H1.437A1.437,1.437,0,0,1,0,13.2V0Z" transform="translate(74.254 148.442)" fill="#fff" stroke="#263238" stroke-linecap="round" stroke-linejoin="round" stroke-miterlimit="10" stroke-width="0.508"/>
      <rect id="Rectangle-12" data-name="Rectangle" width="17.431" height="5.685" rx="2.538" transform="translate(19.421 169.406)" fill="#263238"/>
      <rect id="Rectangle-13" data-name="Rectangle" width="17.431" height="5.685" rx="2.538" transform="translate(67.69 169.406)" fill="#263238"/>
    </g>
    <g id="freepik--Character--inject-2" transform="translate(21.32 41.117)">
      <path id="Path-33" data-name="Path" d="M4.508,0S1.1,5.97.1,17.909,5.645,41.355,9.2,47.041s-.853,10.8-1.421,14.213-.284,9.5,3.132,13.619,4.264,11.228,4.122,13.64.284,2.985,1.015,2.985,13.64.853,15.772,0l3.411-.284a1.409,1.409,0,0,0-.569-1.848c-1.137-.569-4.569-1.706-5.685-3.832A13.078,13.078,0,0,1,28.1,78c.437-1.7,3.127-10.234,3.7-15.492s.853-14.492.853-16.624,5.259-8.812,5.97-16.751-1.99-24.056-1.99-24.056Z" transform="translate(2.289 66.497)" fill="#fff" stroke="#263238" stroke-linecap="round" stroke-linejoin="round" stroke-miterlimit="10" stroke-width="0.508"/>
      <path id="Path-34" data-name="Path" d="M14.371,5.812C13.234,5.244,9.8,4.107,8.686,1.98A8.416,8.416,0,0,1,7.98,0C7.473.051,5.742.294,5.133,1.269a4.147,4.147,0,0,1-1.99,1.563L.016,2.548a14.344,14.344,0,0,0,.426,4.4c.162.4-.508.569.046,1.015,3.985.147,11.168.477,12.98.117l1.472-.406A1.416,1.416,0,0,0,14.371,5.812Z" transform="translate(22.553 150.051)" fill="#fb7d00" stroke="#263238" stroke-linecap="round" stroke-linejoin="round" stroke-miterlimit="10" stroke-width="0.508"/>
      <path id="Path-35" data-name="Path" d="M14.873,5.716A18.338,18.338,0,0,1,8.619,1.6,6.152,6.152,0,0,0,6.914.178S5.066-.533,4.5.888L3.929,2.31,0,1.98A17.289,17.289,0,0,1,.1,4.437C-.046,6.853.381,7.421,1.112,7.421c.629,0,10.98.68,14.721.223A1.463,1.463,0,0,0,14.873,5.716Z" transform="translate(17.218 150.574)" fill="#fb7d00" stroke="#263238" stroke-linecap="round" stroke-linejoin="round" stroke-miterlimit="10" stroke-width="0.508"/>
      <path id="Path-36" data-name="Path" d="M28.1,78c.426-1.706,3.127-10.234,3.7-15.492s.853-14.492.853-16.624,5.259-8.812,5.97-16.751-1.99-24.056-1.99-24.056L4.508,0S1.1,5.97.1,17.909,5.645,41.355,9.2,47.041s-.853,10.8-1.421,14.213-.284,9.5,3.132,13.619a15.954,15.954,0,0,1,2.538,4.614c1.523.716,3.99,1.015,7.7-1.061a7.556,7.556,0,0,0,6.787.751A7.437,7.437,0,0,1,28.1,78Z" transform="translate(2.289 66.497)" fill="#263238" stroke="#263238" stroke-linecap="round" stroke-linejoin="round" stroke-miterlimit="10" stroke-width="0.508"/>
      <path id="Path-37" data-name="Path" d="M7,0,3.166,2.127S2.6,21.315,2.6,28.137.75,36.964.191,46.345A80.775,80.775,0,0,0,.475,61.411" transform="translate(23.667 89.34)" fill="none" stroke="#7d7d7d" stroke-linecap="round" stroke-linejoin="round" stroke-miterlimit="10" stroke-width="0.508"/>
      <path id="Path-38" data-name="Path" d="M2.746.342s4.888,1.67,6.68,6.2,2.264,13,2.264,17.294,1.431,7.868-.477,10.614A4.566,4.566,0,0,1,3.7,34.331c-1.787-2.508-1.553-4.061-.838-9.645S3.34,8.347,2.746,6.2A37.633,37.633,0,0,0,0,.235,3.626,3.626,0,0,1,2.746.342Z" transform="translate(35.234 34.877)" fill="#fb7d00" stroke="#263238" stroke-linecap="round" stroke-linejoin="round" stroke-miterlimit="10" stroke-width="0.508"/>
      <path id="Path-39" data-name="Path" d="M9.594,2.195a5.421,5.421,0,0,0-.508-.457A7.183,7.183,0,0,0,2.36.3L.152,2.834C-.188,6.017-.03,7.4,1.371,9.357a4.569,4.569,0,0,0,7.513.122C10.284,7.469,9.9,5.027,9.594,2.195Z" transform="translate(37.553 59.866)" fill="#fff" stroke="#263238" stroke-linecap="round" stroke-linejoin="round" stroke-miterlimit="10" stroke-width="0.508"/>
      <path id="Path-40" data-name="Path" d="M.144,6.8S.977,3.22,2.768,2.621,8.017,3.7,9.21,5.844s-1.193,5.249-1.193,5.249S10.164,10.616,10.4,6.2,5.631.108,3.246,0-.455,5.129.144,6.8Z" transform="translate(38.313 58.714)" fill="#fff" stroke="#263238" stroke-linecap="round" stroke-linejoin="round" stroke-miterlimit="10" stroke-width="0.508"/>
      <path id="Path-41" data-name="Path" d="M34.56,12.41a52.137,52.137,0,0,1,1.193,11.675c-.117,4.294-2.386,7.274-2.5,9.538s.954,6.325.594,6.919S27.407,44.6,19.413,43.765,2,40.8.438,38.055s1.553-21.949,1.67-24.1S4.138,2.283,7.834,1.08,20.235,0,20.235,0s9.538,2.863,9.9,2.985-1.553-.716,1.071.477,3.1,4.888,3.223,5.487" transform="translate(6.161 31.514)" fill="#fb7d00" stroke="#263238" stroke-linecap="round" stroke-linejoin="round" stroke-miterlimit="10" stroke-width="0.508"/>
      <path id="Path-42" data-name="Path" d="M2.863.516S0,2.308,0,3.5,1.315,15.546,1.315,15.546L9.9,11.993l6.8,3.934A70.243,70.243,0,0,0,13.954,6.48,10.766,10.766,0,0,0,7.518.389,5.886,5.886,0,0,0,2.863.516Z" transform="translate(21.279 28.616)" fill="#fff" stroke="#263238" stroke-linecap="round" stroke-linejoin="round" stroke-miterlimit="10" stroke-width="0.508"/>
      <path id="Path-43" data-name="Path" d="M.08,1.965A55.438,55.438,0,0,0,1.989,9.579c1.193,2.98,3.579,8.467,3.579,8.467a27.734,27.734,0,0,0,3.1-7.036C9.385,7.792,10.1,2.538,10.1,2.538S2.106.274,1.75.036-.4.792.08,1.965Z" transform="translate(24.184 27.985)" fill="#fff" stroke="#263238" stroke-linecap="round" stroke-linejoin="round" stroke-miterlimit="10" stroke-width="0.508"/>
      <path id="Path-44" data-name="Path" d="M28.31,6.357S21.868-.562,16.127.037,3.944,9.1.98,14.25,2.173,29.275,8.137,31.184s8.822.716,8.822.716,4.294,3.223,8.35.838,4.178-5.848,3.817-8.827,3.1-3.457,4.294-7.157S28.31,6.357,28.31,6.357Z" transform="translate(18.259 0.354)" fill="#263238" stroke="#263238" stroke-linecap="round" stroke-linejoin="round" stroke-miterlimit="10" stroke-width="0.508"/>
      <path id="Path-45" data-name="Path" d="M11.309,0S10.832,1.548,12.5,4.888s1.909,5.249,1.67,7.4-1.792,4.274-3.482,5.843-4.061,2.746-6.32,2.386S.2,16.817.2,16.34-2.407,3.817,11.309,0Z" transform="translate(31.442 13.391)" fill="#fff" stroke="#263238" stroke-linecap="round" stroke-linejoin="round" stroke-miterlimit="10" stroke-width="0.508"/>
      <path id="Path-46" data-name="Path" d="M3.569,0,2.741,1.071s-.594,3.34-.954,3.34A12.213,12.213,0,0,1,0,3.934" transform="translate(39.898 22.218)" fill="none" stroke="#263238" stroke-linecap="round" stroke-linejoin="round" stroke-miterlimit="10" stroke-width="0.508"/>
      <path id="Path-47" data-name="Path" d="M1.927,1.787S-.22,1.67.019,0" transform="translate(36.768 26.868)" fill="none" stroke="#263238" stroke-linecap="round" stroke-linejoin="round" stroke-miterlimit="10" stroke-width="0.508"/>
      <path id="Path-48" data-name="Path" d="M1.388,1.441C1.1,2.07.606,2.456.276,2.314S-.095,1.532.19.9.966-.113,1.3.029,1.667.811,1.388,1.441Z" transform="translate(38.206 20.509)" fill="#263238"/>
      <path id="Path-49" data-name="Path" d="M1.388,1.441C1.1,2.07.606,2.456.276,2.314S-.095,1.532.19.9.971-.113,1.3.029,1.672.806,1.388,1.441Z" transform="translate(43.333 22.179)" fill="#263238"/>
      <path id="Path-50" data-name="Path" d="M0,.5A3.042,3.042,0,0,1,3.457.618" transform="translate(37.98 18.499)" fill="none" stroke="#263238" stroke-linecap="round" stroke-linejoin="round" stroke-miterlimit="10" stroke-width="0.508"/>
      <path id="Path-51" data-name="Path" d="M0,.142A1.076,1.076,0,0,1,1.431.5" transform="translate(43.944 21)" fill="none" stroke="#263238" stroke-linecap="round" stroke-linejoin="round" stroke-miterlimit="10" stroke-width="0.508"/>
      <path id="Path-52" data-name="Path" d="M16.074,0S9.318.178,5.5,1.487.613,9.482.613,12.817-.464,36.2.237,37.629s25.528-9.645,25.528-9.645a2.593,2.593,0,0,0,1.787.477,4.685,4.685,0,0,0,2.269-.594l-.239,1.548s-2.03.838-1.193,1.431,3.934-.594,4.289-.832,3.579-1.193,4.178-2.147-.477-3.579-.477-3.579a27.66,27.66,0,0,1,2.741,1.67c.954.716,1.792,1.315,2.269,0s-2.863-2.624-4.061-3.34a5.914,5.914,0,0,0-3.939-1.071c-1.787.117-9.9,2.98-9.9,2.98s-.457.107-3.553.36-10.152.477-10.152.477l3.1-13.122" transform="translate(2.301 32.178)" fill="#fff" stroke="#263238" stroke-linecap="round" stroke-linejoin="round" stroke-miterlimit="10" stroke-width="0.508"/>
      <path id="Path-53" data-name="Path" d="M.117.3s-.66,3.046,1.157,4.635l1.574-.508S1.391,1.965,2.162.2C2.269-.035.716-.131.117.3Z" transform="translate(23.65 56.477)" fill="#263238"/>
      <ellipse id="Oval" cx="1.325" cy="1.284" rx="1.325" ry="1.284" transform="translate(23.188 57.188)" fill="#fff" stroke="#263238" stroke-linecap="round" stroke-linejoin="round" stroke-miterlimit="10" stroke-width="0.508"/>
      <path id="Path-54" data-name="Path" d="M0,0S1.909,3.553.832,4.411" transform="translate(34.162 57.761)" fill="none" stroke="#263238" stroke-linecap="round" stroke-linejoin="round" stroke-miterlimit="10" stroke-width="0.508"/>
      <path id="Path-55" data-name="Path" d="M0,0S2.147,2.508,1.071,4.411" transform="translate(36.31 56.447)" fill="none" stroke="#263238" stroke-linecap="round" stroke-linejoin="round" stroke-miterlimit="10" stroke-width="0.508"/>
      <path id="Path-56" data-name="Path" d="M16.068,0C13.951.117,7.87.67,5.494,1.487,1.677,2.8.606,9.482.606,12.817c0,2.827-.772,17.614-.574,22.959C2.281,28.1,9.789,25.345,9.789,25.345L13.459,10.9" transform="translate(2.308 32.178)" fill="#fb7d00" stroke="#263238" stroke-linecap="round" stroke-linejoin="round" stroke-miterlimit="10" stroke-width="0.508"/>
      <path id="Path-57" data-name="Path" d="M11.739.448S7.678,3.905,6.374,7.961s-.716,4.061-.716,4.061A2.508,2.508,0,0,1,4.1,13.809c-1.31.477-3.817-.832-4.061-2.5S.521,8.2,3.506,4.149,10.3-.628,11.739.448Z" transform="translate(0.357 57.074)" fill="#fff" stroke="#263238" stroke-linecap="round" stroke-linejoin="round" stroke-miterlimit="10" stroke-width="0.508"/>
      <path id="Path-58" data-name="Path" d="M6.32,0,0,9.421,6.32,9.9,13.477.477,6.32,0Z" transform="translate(41.558 55.97)" fill="#263238" stroke="#263238" stroke-linecap="round" stroke-linejoin="round" stroke-miterlimit="10" stroke-width="0.508"/>
      <path id="Path-59" data-name="Path" d="M.964.068S-.944.783.609,1.976A3.429,3.429,0,0,0,5.5,1.144C6.325-.4.964.068.964.068Z" transform="translate(42.381 65.323)" fill="#fff" stroke="#263238" stroke-linecap="round" stroke-linejoin="round" stroke-miterlimit="10" stroke-width="0.508"/>
      <path id="Path-60" data-name="Path" d="M5.086.582S.792-.728.076.582,3.893,2.374,4.97,2.374,5.685.821,5.086.582Z" transform="translate(43.269 64.809)" fill="#fff" stroke="#263238" stroke-linecap="round" stroke-linejoin="round" stroke-miterlimit="10" stroke-width="0.508"/>
      <path id="Path-61" data-name="Path" d="M5.086.584S.792-.73.076.584,3.893,2.371,4.97,2.371,5.685.823,5.086.584Z" transform="translate(44.939 63.735)" fill="#fff" stroke="#263238" stroke-linecap="round" stroke-linejoin="round" stroke-miterlimit="10" stroke-width="0.508"/>
      <path id="Path-62" data-name="Path" d="M5.086.584S.792-.73.076.584,3.893,2.371,4.965,2.371,5.68.8,5.086.584Z" transform="translate(46.132 61.852)" fill="#fff" stroke="#263238" stroke-linecap="round" stroke-linejoin="round" stroke-miterlimit="10" stroke-width="0.508"/>
    </g>
    <g id="freepik--Floor--inject-2" transform="translate(4.061 198.985)">
      <path id="Path-63" data-name="Path" d="M0,.254H209.137" transform="translate(13.706 0.254)" fill="none" stroke="#263238" stroke-linecap="round" stroke-linejoin="round" stroke-miterlimit="10" stroke-width="0.508"/>
      <path id="Path-64" data-name="Path" d="M0,.254H6.6" transform="translate(0 0.254)" fill="none" stroke="#263238" stroke-linecap="round" stroke-linejoin="round" stroke-miterlimit="10" stroke-width="0.508"/>
    </g>
  </g>
</svg>
