<svg xmlns="http://www.w3.org/2000/svg" width="215.714" height="194.544" viewBox="0 0 215.714 194.544">
  <g id="Frozen_figure-bro" data-name="Frozen figure-bro" transform="translate(0.206 -0.16)">
    <g id="freepik--background-simple--inject-57" transform="translate(10.405)">
      <path id="Path" d="M58.826,193.867h88.292a94.142,94.142,0,0,0,9.414-7c43.143-36.424,52.027-107.552,17.838-152.954-19.235-25.573-51.4-35.9-82.911-33.6-34.1,2.477-69.865,20.2-84.73,52.394C-10.7,90.438,8.593,137.54,31.871,168.652A102.037,102.037,0,0,0,58.826,193.867Z" transform="translate(0.301 0.16)" fill="#f9fbff"/>
    </g>
    <g id="freepik--Character--inject-57" transform="translate(95.135 39.523)">
      <path id="Path-2" data-name="Path" d="M46.155,0s4.118,8.423,6.471,15.2A69.393,69.393,0,0,1,55.565,30.5H0V4.549Z" transform="translate(49.55 124.28)" fill="#fb7d00"/>
      <path id="Path-3" data-name="Path" d="M20.87,26.7V30.5H0V4.549L46.136,0S48.118,4.043,50.1,8.79C42.821,11.2,22.6,17.536,12.982,16.9c0,0,2.829,7.249,4.162,7.249l1.3.59A9.284,9.284,0,0,0,20.87,26.7Z" transform="translate(49.55 124.28)" fill="rgba(0,0,0,0.7)" opacity="0.2"/>
      <path id="Path-4" data-name="Path" d="M46.155,0s4.118,8.423,6.471,15.2A69.393,69.393,0,0,1,55.565,30.5H0V4.549Z" transform="translate(49.55 124.28)" fill="none" stroke="#263238" stroke-linecap="round" stroke-linejoin="round" stroke-miterlimit="10" stroke-width="0.55"/>
      <path id="Path-5" data-name="Path" d="M0,0A40.958,40.958,0,0,1,1.387,10.628" transform="translate(98.435 144.155)" fill="none" stroke="#263238" stroke-linecap="round" stroke-linejoin="round" stroke-miterlimit="10" stroke-width="0.55"/>
      <path id="Path-6" data-name="Path" d="M0,0C.238.723.466,1.447.679,2.175" transform="translate(97.241 140.091)" fill="none" stroke="#263238" stroke-linecap="round" stroke-linejoin="round" stroke-miterlimit="10" stroke-width="0.55"/>
      <path id="Path-7" data-name="Path" d="M0,0A80.028,80.028,0,0,1,8.309,16.728" transform="translate(88.258 121.421)" fill="none" stroke="#263238" stroke-linecap="round" stroke-linejoin="round" stroke-miterlimit="10" stroke-width="0.55"/>
      <path id="Path-8" data-name="Path" d="M0,0S4.459,8.072,13.938,8.542" transform="translate(82.703 129.82)" fill="none" stroke="#263238" stroke-linecap="round" stroke-linejoin="round" stroke-miterlimit="10" stroke-width="0.55"/>
      <path id="Path-9" data-name="Path" d="M0,0S1.382,13.819,5.5,16.758" transform="translate(62.571 131.673)" fill="none" stroke="#263238" stroke-linecap="round" stroke-linejoin="round" stroke-miterlimit="10" stroke-width="0.55"/>
      <path id="Path-10" data-name="Path" d="M0,.248H2.5" transform="translate(76.802 149.55)" fill="none" stroke="#263238" stroke-linecap="round" stroke-linejoin="round" stroke-miterlimit="10" stroke-width="0.55"/>
      <path id="Path-11" data-name="Path" d="M0,0C4.489,2.819,10.158,4.078,15.36,4.509" transform="translate(58.8 145.145)" fill="none" stroke="#263238" stroke-linecap="round" stroke-linejoin="round" stroke-miterlimit="10" stroke-width="0.55"/>
      <path id="Path-12" data-name="Path" d="M0,0S-.19,1.764,2.357,2.547V6.352" transform="translate(68.063 148.431)" fill="none" stroke="#263238" stroke-linecap="round" stroke-linejoin="round" stroke-miterlimit="10" stroke-width="0.55"/>
      <path id="Path-13" data-name="Path" d="M0,.411S6.278,1.472,9.414,0" transform="translate(90.413 139.12)" fill="none" stroke="#263238" stroke-linecap="round" stroke-linejoin="round" stroke-miterlimit="10" stroke-width="0.55"/>
      <path id="Path-14" data-name="Path" d="M21.864,0C17.37,4.316,3.709,36.7,3.709,36.7S-2.668,51.883,1.3,52.84c18.15,4.4,29.536-22.679,29.536-22.679Z" transform="translate(10.165 53.979)" fill="#dee8fb"/>
      <path id="Path-15" data-name="Path" d="M30.436,12.605C28.26,17.258,17.464,38.3,1.3,34.407c-3.969-.976,2.413-16.168,2.413-16.168s.793-1.883,2.066-4.806c2.933-.144,6.55,1.823,6.55,1.823L18.509,0Z" transform="translate(10.16 72.436)" fill="rgba(0,0,0,0.7)" opacity="0.2"/>
      <path id="Path-16" data-name="Path" d="M21.864,0C17.37,4.316,3.709,36.7,3.709,36.7S-2.668,51.883,1.3,52.84c18.15,4.4,29.536-22.679,29.536-22.679Z" transform="translate(10.165 53.979)" fill="none" stroke="#263238" stroke-linecap="round" stroke-linejoin="round" stroke-miterlimit="10" stroke-width="0.55"/>
      <path id="Path-17" data-name="Path" d="M15.915,22.3c-2.1,2.359-5.168,3.558-7.74,1.863-4.692-3.127-5.564-13.19-5.564-13.19A10.7,10.7,0,0,1,0,5.262S3.468-.267,8.314.01s4.91,5.822,4.91,5.822a18.088,18.088,0,0,1,5.069,9.276" transform="translate(0.649 81.871)" fill="#dee8fb" stroke="#263238" stroke-linecap="round" stroke-linejoin="round" stroke-miterlimit="10" stroke-width="0.55"/>
      <path id="Path-18" data-name="Path" d="M0,0S1.377,9.414,5.1,12.293" transform="translate(28.664 70.806)" fill="none" stroke="#263238" stroke-linecap="round" stroke-linejoin="round" stroke-miterlimit="10" stroke-width="0.55"/>
      <path id="Path-19" data-name="Path" d="M0,0S3.429.263,5.882,4.955" transform="translate(15.142 87.703)" fill="none" stroke="#263238" stroke-linecap="round" stroke-linejoin="round" stroke-miterlimit="10" stroke-width="0.55"/>
      <path id="Path-20" data-name="Path" d="M.867,16.1S19.75-4.583,30.433.937s18.135,13,20.454,21.093S55.664,62.6,55.664,62.6l13.809,30.9s-29.541,9.414-51.9.709L13.185,61.66A52.959,52.959,0,0,1,0,31.063" transform="translate(31.162 37.881)" fill="#dee8fb"/>
      <path id="Path-21" data-name="Path" d="M34.561,45.075c-9.112-.654-8.592,1.729-8.592,1.729-3.042-.912-7.755-3.805-11.4-6.238l-1.486-11a44.178,44.178,0,0,1-5.777-7.834C1.516,13.131,0,0,0,0A73.361,73.361,0,0,0,13.086,10.673c10.029,5.976,14.454,6.189,14.454,6.189L32.2,13.131l18.165-2.8C52.166,44.491,43.678,45.724,34.561,45.075Z" transform="translate(31.251 69.969)" fill="rgba(0,0,0,0.7)" opacity="0.2"/>
      <path id="Path-22" data-name="Path" d="M.867,16.1S19.75-4.583,30.433.937s18.135,13,20.454,21.093S55.664,62.6,55.664,62.6l13.809,30.9s-29.541,9.414-51.9.709L13.185,61.66A52.959,52.959,0,0,1,0,31.063" transform="translate(31.162 37.881)" fill="none" stroke="#263238" stroke-linecap="round" stroke-linejoin="round" stroke-miterlimit="10" stroke-width="0.55"/>
      <path id="Shape" d="M3.111,18.522A95.46,95.46,0,0,0,2.879,5.535C1.616,1.333,0,0,0,0L15.6,8.522l4.425,11.219a39.7,39.7,0,0,1-5.911,6.2c-.986,2.839-3.1,7.576-6.313,7.839-.094.008-.187.011-.277.011C3.168,33.794,2.6,25.2,3.111,18.522Z" transform="translate(24.324 29.358)" fill="#263238"/>
      <path id="Path-23" data-name="Path" d="M3.938,0S-1.141,9.608.237,20.375s0,13.18,0,13.18,2.046,2.061,3.7,1.4,2.973,2.155,2.973,2.155A37.41,37.41,0,0,0,7.466,27c-.54-4.8-.624-15.7,1.615-20.543S3.938,0,3.938,0Z" transform="translate(38.838 50.59)" fill="#fb7d00"/>
      <g id="Group" transform="translate(38.649 50.541)">
        <path id="Path-24" data-name="Path" d="M3.938,0S-1.141,9.608.237,20.375s0,13.18,0,13.18,2.046,2.061,3.7,1.4,2.973,2.155,2.973,2.155A37.41,37.41,0,0,0,7.466,27c-.54-4.8-.624-15.7,1.615-20.543S3.938,0,3.938,0Z" transform="translate(0.189 0.05)" fill="#fff" opacity="0.4"/>
        <path id="Path-25" data-name="Path" d="M1.037,0A10.509,10.509,0,0,0,.046,5.535C.393,8.508,1.706,9.36,1.706,9.36s1.749,1.982,3.468,1.026c0,0,.639-2.918.991-4.717S2.93,0,1.037,0Z" transform="translate(2.635 1.982)" fill="rgba(0,0,0,0.7)" opacity="0.2"/>
      </g>
      <path id="Path-26" data-name="Path" d="M3.938,0S-1.141,9.608.237,20.375s0,13.18,0,13.18,2.046,2.061,3.7,1.4,2.973,2.155,2.973,2.155A37.41,37.41,0,0,0,7.466,27c-.54-4.8-.624-15.7,1.615-20.543S3.938,0,3.938,0Z" transform="translate(38.838 50.59)" fill="none" stroke="#263238" stroke-linecap="round" stroke-linejoin="round" stroke-miterlimit="10" stroke-width="0.55"/>
      <path id="Path-27" data-name="Path" d="M3.824,5.449C8.427.425,17.847-1.26,20.081.96a4.586,4.586,0,0,1,1.486,4.489A11.094,11.094,0,0,1,24.8,11.633c.5,3.726-13.418,17.144-19.508,14.9s-3.355-7.7-3.355-7.7S-3.489,13.427,3.824,5.449Z" transform="translate(40.998 34.488)" fill="#fb7d00"/>
      <g id="Group-2" data-name="Group" transform="translate(40.631 34.189)">
        <path id="Path-28" data-name="Path" d="M3.824,5.449C8.427.425,17.847-1.26,20.081.96a4.586,4.586,0,0,1,1.486,4.489A11.094,11.094,0,0,1,24.8,11.633c.5,3.726-13.418,17.144-19.508,14.9s-3.355-7.7-3.355-7.7S-3.489,13.427,3.824,5.449Z" transform="translate(0.368 0.299)" fill="#fff" opacity="0.5"/>
        <path id="Path-29" data-name="Path" d="M1.931,14.426c-2.289-.5-2.537-4.459-.773-7.616S9.209-.488,13.8.047s4.35,5.118,4.35,5.118,2.1,5.4.738,8.077a5.083,5.083,0,0,1-6.01-2.056C10.656,7.7,4.879,15.09,1.931,14.426Z" transform="translate(3.049 1.975)" fill="rgba(0,0,0,0.7)" opacity="0.2"/>
      </g>
      <path id="Path-30" data-name="Path" d="M3.824,5.449C8.427.425,17.847-1.26,20.081.96a4.586,4.586,0,0,1,1.486,4.489A11.094,11.094,0,0,1,24.8,11.633c.5,3.726-13.418,17.144-19.508,14.9s-3.355-7.7-3.355-7.7S-3.489,13.427,3.824,5.449Z" transform="translate(40.998 34.488)" fill="none" stroke="#263238" stroke-linecap="round" stroke-linejoin="round" stroke-miterlimit="10" stroke-width="0.55"/>
      <path id="Path-31" data-name="Path" d="M3.468,0A6.977,6.977,0,0,1,0,1.868" transform="translate(50.169 52.523)" fill="none" stroke="#263238" stroke-linecap="round" stroke-linejoin="round" stroke-miterlimit="10" stroke-width="0.55"/>
      <path id="Path-32" data-name="Path" d="M1.417,0Q.733.847,0,1.645" transform="translate(55.144 49.406)" fill="rgba(0,0,0,0.7)" opacity="0.2"/>
      <path id="Path-33" data-name="Path" d="M4.682,0A60.535,60.535,0,0,1,0,7.74" transform="translate(57.889 39.937)" fill="none" stroke="#263238" stroke-linecap="round" stroke-linejoin="round" stroke-miterlimit="10" stroke-width="0.55"/>
      <path id="Path-34" data-name="Path" d="M.451,0A7.164,7.164,0,0,1,0,4.261" transform="translate(42.93 75.315)" fill="none" stroke="#263238" stroke-linecap="round" stroke-linejoin="round" stroke-miterlimit="10" stroke-width="0.55"/>
      <path id="Path-35" data-name="Path" d="M1.235,0a27.4,27.4,0,0,0-.56,14.067" transform="translate(42.368 59.336)" fill="none" stroke="#263238" stroke-linecap="round" stroke-linejoin="round" stroke-miterlimit="10" stroke-width="0.55"/>
      <path id="Path-36" data-name="Path" d="M10.1,0a6.085,6.085,0,0,1,.3,2.73c-.124,1.774-3.726,7.888-6.441,9.741s-3.964,0-3.964,0" transform="translate(44.362 37.341)" fill="none" stroke="#263238" stroke-linecap="round" stroke-linejoin="round" stroke-miterlimit="10" stroke-width="0.55"/>
      <path id="Path-37" data-name="Path" d="M8.166,16.995a26,26,0,0,0,4.578-4.068,8.85,8.85,0,0,0,1.65-3.369,10.9,10.9,0,0,0,.223-2.3,33.353,33.353,0,0,1-3.434-4.321A15.058,15.058,0,0,1,10,.455C8.79-2.8-2.824,12.421.644,12.654A9.246,9.246,0,0,1,4.98,14.2,15.92,15.92,0,0,1,8.166,16.995Z" transform="translate(40.15 32.817)" fill="#fff" stroke="#263238" stroke-linecap="round" stroke-linejoin="round" stroke-miterlimit="10" stroke-width="0.55"/>
      <path id="Path-38" data-name="Path" d="M10,1.441C9.008,8.561,7.14,12.986,4.98,14.2A9.246,9.246,0,0,0,.644,12.654C-2.824,12.421,8.79-2.8,10,.455,10.346,1.372,9.563.718,10,1.441Z" transform="translate(40.15 32.842)" fill="#263238"/>
      <path id="Path-39" data-name="Path" d="M0,3.558S5.45,16.4,14.781,18.051c4.6.818,11.659-1.744,14.776,2.72,0,0-1.982-8.423-8.186-11.892A135.141,135.141,0,0,1,8.077,0Z" transform="translate(49.054 31.761)" fill="#263238"/>
      <path id="Path-40" data-name="Path" d="M11.687.826C-4.545,6.251-2.722,26.958,10.116,39.291c3.518,3.384,13.5-4.549,16.48-12C31.888,14.065,26.418-4.1,11.687.826Z" transform="translate(24.791 8.063)" fill="#fff" stroke="#263238" stroke-linecap="round" stroke-linejoin="round" stroke-miterlimit="10" stroke-width="0.55"/>
      <path id="Path-41" data-name="Path" d="M0,.786S.872-.581,5.094.291" transform="translate(32.876 28.943)" fill="none" stroke="#263238" stroke-linecap="round" stroke-linejoin="round" stroke-miterlimit="10" stroke-width="0.55"/>
      <path id="Path-42" data-name="Path" d="M3.35.718S.748-.9,0,.718" transform="translate(25.181 29.012)" fill="none" stroke="#263238" stroke-linecap="round" stroke-linejoin="round" stroke-miterlimit="10" stroke-width="0.55"/>
      <path id="Path-43" data-name="Path" d="M.3,0a5.143,5.143,0,0,1,.748,3.558C.678,5.5-.566,6.248.3,7.115s3.107.644,3.107.644" transform="translate(29.468 30.964)" fill="none" stroke="#263238" stroke-linecap="round" stroke-linejoin="round" stroke-miterlimit="10" stroke-width="0.55"/>
      <path id="Path-44" data-name="Path" d="M1.377.853c.154.56,0,1.1-.382,1.2S.213,1.78.059,1.215s0-1.1.377-1.2S1.218.289,1.377.853Z" transform="translate(36.137 32.102)" fill="#263238"/>
      <path id="Path-45" data-name="Path" d="M1.377.855c.154.565,0,1.1-.382,1.2S.213,1.781.059,1.221s0-1.1.377-1.2S1.218.295,1.377.855Z" transform="translate(27.813 32.264)" fill="#263238"/>
      <path id="Path-46" data-name="Path" d="M4.243,11.1s14.4,8.919,25.672,4.39A32.4,32.4,0,0,1,6.894,11.1s18.19,7.864,23.422,2.77S20.476,0,20.476,0L1.345,5.8.18,11.634s-1.159,4.554,2.4,5.906C2.583,17.545.928,13.175,4.243,11.1Z" transform="translate(23.044 14.226)" fill="#263238"/>
      <path id="Path-47" data-name="Path" d="M3.045,23.833s11.322,1.516,15.673.9,7.076,8.478,7.7,15.162-.248,17.114-.248,17.114l1.264-.342s.823-13.814.312-16.773,8.557-5.118,8.612-7.715c0-.818-1.9-3.29-1.9-3.29s1.61-13.126-.788-16.847A39.912,39.912,0,0,0,28.4,5.6s3.85-1.368.867-4.227-8.7-.743-8.82,1.739c0,0-9.816-.124-13.666,3.107S2.435,18.64,2.435,18.64s-4.772,2.854-.956,7.2C1.494,25.82,2.2,23.739,3.045,23.833Z" transform="translate(21.73 0.045)" fill="#fb7d00"/>
      <path id="Path-48" data-name="Path" d="M14.508,31.147c0,1.016-1.427,1.982-3.1,2.923.193-.575.193-1.08-.208-1.3-1.244-.684-3.468,1.9-4.331.842s.5-2.973-.218-5.842S0,19.349,0,19.349c1.11-.788,3.33-.292,3.33-.292a24.792,24.792,0,0,1-.624-4.876C2.473,10.574,6.56,8.542,6.56,8.542,5.475,4.529.758,2.661.758,2.661c2.136-1.8,5.9-.753,5.9-.753A2.289,2.289,0,0,0,7.081,0a3.241,3.241,0,0,1,.347.3C10.4,3.156,6.56,4.524,6.56,4.524a39.912,39.912,0,0,1,5.257,6.441c2.4,3.731.788,16.847.788,16.847S14.528,30.344,14.508,31.147Z" transform="translate(43.589 1.06)" fill="rgba(0,0,0,0.7)" opacity="0.2"/>
      <path id="Path-49" data-name="Path" d="M3.045,23.833s11.322,1.516,15.673.9,7.076,8.478,7.7,15.162-.248,17.114-.248,17.114l1.264-.342s.823-13.814.312-16.773,8.557-5.118,8.612-7.715c0-.818-1.9-3.29-1.9-3.29s1.61-13.126-.788-16.847A39.912,39.912,0,0,0,28.4,5.6s3.85-1.368.867-4.227-8.7-.743-8.82,1.739c0,0-9.816-.124-13.666,3.107S2.435,18.64,2.435,18.64s-4.772,2.854-.956,7.2C1.494,25.82,2.2,23.739,3.045,23.833Z" transform="translate(21.73 0.045)" fill="none" stroke="#263238" stroke-linecap="round" stroke-linejoin="round" stroke-miterlimit="10" stroke-width="0.55"/>
      <path id="Path-50" data-name="Path" d="M0,0S6.709,1.368,11.243.5,22.114,2.973,22.114,2.973" transform="translate(24.18 18.66)" fill="none" stroke="#263238" stroke-linecap="round" stroke-linejoin="round" stroke-miterlimit="10" stroke-width="0.55"/>
      <path id="Path-51" data-name="Path" d="M2.834.832S2.339,1.987,0,0" transform="translate(53.36 28.1)" fill="none" stroke="#263238" stroke-linecap="round" stroke-linejoin="round" stroke-miterlimit="10" stroke-width="0.55"/>
      <path id="Path-52" data-name="Path" d="M3.855,1.486A6.238,6.238,0,0,0,0,0" transform="translate(46.294 4.132)" fill="none" stroke="#263238" stroke-linecap="round" stroke-linejoin="round" stroke-miterlimit="10" stroke-width="0.55"/>
      <path id="Path-53" data-name="Path" d="M0,1.864S12.581-1.337,15.6.65" transform="translate(24.324 15.28)" fill="none" stroke="#263238" stroke-linecap="round" stroke-linejoin="round" stroke-miterlimit="10" stroke-width="0.55"/>
      <path id="Path-54" data-name="Path" d="M0,0S1.591.471,3.4,4.593" transform="translate(52.879 23.506)" fill="none" stroke="#263238" stroke-linecap="round" stroke-linejoin="round" stroke-miterlimit="10" stroke-width="0.55"/>
      <path id="Path-55" data-name="Path" d="M0,.961A5.665,5.665,0,0,0,4.638,0" transform="translate(33.084 39.942)" fill="none" stroke="#263238" stroke-linecap="round" stroke-linejoin="round" stroke-miterlimit="10" stroke-width="0.55"/>
      <path id="Path-56" data-name="Path" d="M3.178,0S2.524,1.794,1.092,1.982C-.156,2.16.007,1.209.007,1.209" transform="translate(34.331 40.1)" fill="none" stroke="#263238" stroke-linecap="round" stroke-linejoin="round" stroke-miterlimit="10" stroke-width="0.55"/>
      <path id="Path-57" data-name="Path" d="M14.25,12.918,2,0,0,2.012,11.733,15.043l2.517-2.126Z" transform="translate(15.36 66.827)" fill="#263238"/>
      <path id="Path-58" data-name="Path" d="M24.668,10.791,16.146,5.212S13.108.381,12.638.133c-1.115-.59-9.122.917-10.47,1.789s-2.839,2.2-1.843,2.9S.919,7.263.87,7.759s.59,1.13,1.576,1.62,0,2.15.991,2.4.728,1.947,1.6,2.319,8.8-.738,8.8-.738l9.494,6.793Z" transform="translate(18.935 73.354)" fill="#fff" stroke="#263238" stroke-linecap="round" stroke-linejoin="round" stroke-miterlimit="10" stroke-width="0.55"/>
      <path id="Path-59" data-name="Path" d="M34.232,0c-3.726,4.212-6.541,35.022-6.541,35.022L7.376,26.028,2.614,22.064S-1.132,26.752.345,35.7L4.18,37.841,5.027,42.3S25.437,52.944,33.137,54.807s11.481-22.3,14.672-35.572" transform="translate(34.88 56.368)" fill="#dee8fb" stroke="#263238" stroke-linecap="round" stroke-linejoin="round" stroke-miterlimit="10" stroke-width="0.55"/>
      <path id="Path-60" data-name="Path" d="M0,6.778,5.465,1.6,11.852,0,2.567,9.717,0,6.778Z" transform="translate(10.633 61.967)" fill="#fb7d00" stroke="#263238" stroke-linecap="round" stroke-linejoin="round" stroke-miterlimit="10" stroke-width="0.55"/>
      <path id="Path-61" data-name="Path" d="M0,.345A4.317,4.317,0,0,1,4.058.731l-1.194.9L2.027,16.746.5,16.419,1.219,1.6Z" transform="translate(4.256 68.261)" fill="#757575" stroke="#263238" stroke-linecap="round" stroke-linejoin="round" stroke-miterlimit="10" stroke-width="0.55"/>
      <path id="Path-62" data-name="Path" d="M.346,3.193S1.59-.083,4.449,0L6.48,1.126a4.945,4.945,0,0,1,3.013,0c1.169.575.362,4.311.362,4.311l1.318,5.193s-1.754,5.3-6.06,4.489S-.769,9.153.346,3.193Z" transform="translate(0.303 74.858)" fill="#fff" stroke="#263238" stroke-linecap="round" stroke-linejoin="round" stroke-miterlimit="10" stroke-width="0.55"/>
      <path id="Path-63" data-name="Path" d="M1.043,0S-.542,4.687.2,8.582" transform="translate(38.879 85.607)" fill="none" stroke="#263238" stroke-linecap="round" stroke-linejoin="round" stroke-miterlimit="10" stroke-width="0.55"/>
      <path id="Path-64" data-name="Path" d="M0,.04S2.339-.351,3.33,1.309" transform="translate(62.571 91.349)" fill="none" stroke="#263238" stroke-linecap="round" stroke-linejoin="round" stroke-miterlimit="10" stroke-width="0.55"/>
      <path id="Path-65" data-name="Path" d="M1.744,0A3.761,3.761,0,0,0,0,1.407" transform="translate(40.527 82.396)" fill="none" stroke="#263238" stroke-linecap="round" stroke-linejoin="round" stroke-miterlimit="10" stroke-width="0.55"/>
      <path id="Path-66" data-name="Path" d="M0,.57A3.012,3.012,0,0,1,3.2.406" transform="translate(62.7 89.492)" fill="none" stroke="#263238" stroke-linecap="round" stroke-linejoin="round" stroke-miterlimit="10" stroke-width="0.55"/>
      <path id="Path-67" data-name="Path" d="M7.987,0S7.745,10.118,0,13.646" transform="translate(75.32 66.396)" fill="none" stroke="#263238" stroke-linecap="round" stroke-linejoin="round" stroke-miterlimit="10" stroke-width="0.55"/>
      <path id="Path-68" data-name="Path" d="M.418,0S-.251,8.7.285,12.516" transform="translate(64.318 61.833)" fill="none" stroke="#263238" stroke-linecap="round" stroke-linejoin="round" stroke-miterlimit="10" stroke-width="0.55"/>
      <path id="Path-69" data-name="Path" d="M11.505,0S6.055,16.292,0,16.292" transform="translate(75.32 100.482)" fill="none" stroke="#263238" stroke-linecap="round" stroke-linejoin="round" stroke-miterlimit="10" stroke-width="0.55"/>
      <path id="Path-70" data-name="Path" d="M0,0S16.074,25.677,28.808,24.111" transform="translate(46.507 102.954)" fill="none" stroke="#263238" stroke-linecap="round" stroke-linejoin="round" stroke-miterlimit="10" stroke-width="0.55"/>
      <path id="Path-71" data-name="Path" d="M13.542,0S4.385,13.274,0,13.378" transform="translate(49.029 51.849)" fill="none" stroke="#263238" stroke-linecap="round" stroke-linejoin="round" stroke-miterlimit="10" stroke-width="0.55"/>
    </g>
    <g id="freepik--frozen-fgiure--inject-57" transform="translate(7.928 38.036)">
      <path id="Path-72" data-name="Path" d="M12.838,4.786H0L2.938,0l7.645.491,2.255,4.3Z" transform="translate(0.223 151.607)" fill="#fb7d00"/>
      <g id="Group-3" data-name="Group" transform="translate(0 151.126)">
        <path id="Path-73" data-name="Path" d="M12.838,4.786H0L2.938,0l7.645.491,2.255,4.3Z" transform="translate(0.223 0.481)" fill="#fff" opacity="0.4"/>
        <path id="Path-74" data-name="Path" d="M.391,0,6.144,1.174,0,3.33.391,0Z" transform="translate(3.424 1.07)" fill="#fff" opacity="0.4"/>
      </g>
      <path id="Path-75" data-name="Path" d="M12.838,4.786H0L2.938,0l7.645.491,2.255,4.3Z" transform="translate(0.223 151.607)" fill="none" stroke="#263238" stroke-linecap="round" stroke-linejoin="round" stroke-miterlimit="10" stroke-width="0.55"/>
      <path id="Path-76" data-name="Path" d="M18.036,16.634H5.1L0,7,10.584,0,22.347,6,18.036,16.634Z" transform="translate(6.496 139.759)" fill="#fb7d00"/>
      <g id="Group-4" data-name="Group" transform="translate(6.441 139.73)">
        <path id="Path-77" data-name="Path" d="M18.036,16.634H5.1L0,7,10.584,0,22.347,6,18.036,16.634Z" transform="translate(0.055 0.03)" fill="#fff" opacity="0.6"/>
        <path id="Path-78" data-name="Path" d="M0,11.045,5.227,0l6.664,3.2-.456,7.586L0,11.045Z" transform="translate(6 5.148)" fill="#fb7d00" opacity="0.5"/>
        <path id="Path-79" data-name="Path" d="M0,6.065,9.771,7.536l9.7-1.472L9.182,0,0,6.065Z" transform="translate(1.457 0.03)" fill="#fff" opacity="0.4"/>
      </g>
      <path id="Path-80" data-name="Path" d="M18.036,16.634H5.1L0,7,10.584,0,22.347,6,18.036,16.634Z" transform="translate(6.496 139.759)" fill="none" stroke="#263238" stroke-linecap="round" stroke-linejoin="round" stroke-miterlimit="10" stroke-width="0.55"/>
      <path id="Path-81" data-name="Path" d="M0,0,11.173,1.318,14.112,7.6" transform="translate(6.496 146.756)" fill="none" stroke="#263238" stroke-linecap="round" stroke-linejoin="round" stroke-miterlimit="10" stroke-width="0.55"/>
      <path id="Path-82" data-name="Path" d="M133.189,54.083v25.84H0V37.088l8.225-5.535.069-.173,4.628-12.055,12.61-8.379L30.24,0,70.9,2.368,83.8,20.955,101.477,32.46l.282.183,2.586,13.274,28.209,7.992h0l.629.173Z" transform="translate(22.05 76.47)" fill="#fb7d00"/>
      <g id="Group-5" data-name="Group" transform="translate(21.802 76.306)">
        <path id="Path-83" data-name="Path" d="M133.189,54.083v25.84H0V37.088l8.225-5.535.069-.173,4.628-12.055,12.61-8.379L30.24,0,70.9,2.368,83.8,20.955,101.477,32.46l.282.183,2.586,13.274,28.209,7.992h0l.629.173Z" transform="translate(0.248 0.164)" fill="#fff" opacity="0.6"/>
        <path id="Path-84" data-name="Path" d="M46.978,7.175,104.346,0l-3.662,29.7,32.5,4.306H0l50.526-6.625L46.978,7.175Z" transform="translate(0.248 46.081)" fill="#fb7d00" opacity="0.5"/>
        <path id="Path-85" data-name="Path" d="M5.857,0,49.094,9.177,38.753,32.371,0,10.832,5.857,0Z" transform="translate(8.473 20.885)" fill="#fb7d00" opacity="0.5"/>
        <path id="Path-86" data-name="Path" d="M12.759,0,23.69,16.832.827,25.181,0,5.391,12.759,0Z" transform="translate(58.062 4.053)" fill="#fb7d00" opacity="0.5"/>
        <g id="Group-6" data-name="Group" opacity="0.5">
          <path id="Path-87" data-name="Path" d="M0,0,16.307,12.368l24.359-10L0,0Z" transform="translate(30.483 0.164)" fill="#fff"/>
          <path id="Path-88" data-name="Path" d="M33.4,7.616,52.775,0,33.159,13.914,0,10.534,10.945,3.26,33.4,7.616Z" transform="translate(14.067 8.364)" fill="#fff"/>
          <path id="Path-89" data-name="Path" d="M101.477,11.505,53.88,27.332,0,16.133,8.225,10.6l.069-.173,54.99,6.932L83.8,3.642V0l17.674,11.505Z" transform="translate(0.248 21.118)" fill="#fff"/>
          <path id="Path-90" data-name="Path" d="M52.215,7.992,0,11.476V7.338L24.007,0,52.215,7.992Z" transform="translate(80.587 46.081)" fill="#fff"/>
          <path id="Path-91" data-name="Path" d="M74.384,14.563,0,28.223V0L74.384,14.563Z" transform="translate(0.248 47.141)" fill="#fff"/>
        </g>
      </g>
      <path id="Path-92" data-name="Path" d="M133.189,54.083v25.84H0V37.088l8.225-5.535.069-.173,4.628-12.055,12.61-8.379L30.24,0,70.9,2.368,83.8,20.955,101.477,32.46l.282.183,2.586,13.274,28.209,7.992h0l.629.173Z" transform="translate(22.05 76.47)" fill="none" stroke="#263238" stroke-linecap="round" stroke-linejoin="round" stroke-miterlimit="10" stroke-width="0.55"/>
      <path id="Path-93" data-name="Path" d="M126.559,14.122,74.047,18.913,0,0" transform="translate(28.679 116.432)" fill="none" stroke="#263238" stroke-linecap="round" stroke-linejoin="round" stroke-miterlimit="10" stroke-width="0.55"/>
      <path id="Path-94" data-name="Path" d="M0,7.784l54.064,6.461L74.28,0" transform="translate(30.275 100.239)" fill="none" stroke="#263238" stroke-linecap="round" stroke-linejoin="round" stroke-miterlimit="10" stroke-width="0.55"/>
      <path id="Path-95" data-name="Path" d="M31.186,0,0,11.337" transform="translate(92.623 109.113)" fill="none" stroke="#263238" stroke-linecap="round" stroke-linejoin="round" stroke-miterlimit="10" stroke-width="0.55"/>
      <path id="Path-96" data-name="Path" d="M0,5.51l21.683,4.871L42.885,0" transform="translate(47.582 81.905)" fill="none" stroke="#263238" stroke-linecap="round" stroke-linejoin="round" stroke-miterlimit="10" stroke-width="0.55"/>
      <path id="Path-97" data-name="Path" d="M0,0,30.978,2.79" transform="translate(34.972 95.794)" fill="none" stroke="#263238" stroke-linecap="round" stroke-linejoin="round" stroke-miterlimit="10" stroke-width="0.55"/>
      <path id="Path-98" data-name="Path" d="M21.083,0S6.813.205,5.609,0-1.546,15.58.381,20.506C1,22.071,5.807,24.47,5.807,24.47l2.859-4.955-5.45-2.477L7.635,7.013l9.85,2.681Z" transform="translate(39.397 54.23)" fill="#fb7d00" stroke="#263238" stroke-linecap="round" stroke-linejoin="round" stroke-miterlimit="10" stroke-width="0.55"/>
      <path id="Path-99" data-name="Path" d="M66.842,31.142a51.032,51.032,0,0,1-5.133-11.059c-1.665-5.609-8.78-10.6-8.78-10.6a3.825,3.825,0,0,0,.659-3.191c-3.642,1.328-9.935-2.651-9.935-2.651A3.755,3.755,0,0,0,46.962.669c-3.81,1.982-15.737-2.973-21.2.783s-1.818,8.919-1.774,8.959c-.674,2.611-2.775,6.585-1.556,7.9A42.593,42.593,0,0,1,18.045,27.6c-.773,1.09,4.851,2.22,4.851,2.22,3.082-1.239,6.709-5.2,6.709-5.2,4.147-.624,4.306-4.038,4.306-4.038s3.6-.54,5.282,3.964c2.354,6.313-11.4,12.209-13.17,17.209a21.26,21.26,0,0,0-1.412,8.473L18.432,53.7s-7.844-5.4-9.355-5.322S-.442,62,.019,65.083s7.229,4.673,7.229,4.673L8.606,65.4l-4.35-2.235L9.572,54.98S18.293,66.238,21.023,67.7s9.449,1.6,9.449,1.6l5.753,11.03c10.985,3.751,27.138-1.219,27.138-1.219-6.659-8.681-5.812-24.279-4.415-35.755,2.879-1.219,2.76-4.578,2.76-4.578,2.22-.5,3.81-4.038,3.81-4.038A11.287,11.287,0,0,1,62.2,33.2,4.139,4.139,0,0,0,66.842,31.142Z" transform="translate(23.626 0.075)" fill="#fb7d00"/>
      <path id="Path-100" data-name="Path" d="M66.842,31.142a51.032,51.032,0,0,1-5.133-11.059c-1.665-5.609-8.78-10.6-8.78-10.6a3.825,3.825,0,0,0,.659-3.191c-3.642,1.328-9.935-2.651-9.935-2.651A3.755,3.755,0,0,0,46.962.669c-3.81,1.982-15.737-2.973-21.2.783s-1.818,8.919-1.774,8.959c-.674,2.611-2.775,6.585-1.556,7.9A42.593,42.593,0,0,1,18.045,27.6c-.773,1.09,4.851,2.22,4.851,2.22,3.082-1.239,6.709-5.2,6.709-5.2,4.147-.624,4.306-4.038,4.306-4.038s3.6-.54,5.282,3.964c2.354,6.313-11.4,12.209-13.17,17.209a21.26,21.26,0,0,0-1.412,8.473L18.432,53.7s-7.844-5.4-9.355-5.322S-.442,62,.019,65.083s7.229,4.673,7.229,4.673L8.606,65.4l-4.35-2.235L9.572,54.98S18.293,66.238,21.023,67.7s9.449,1.6,9.449,1.6l5.753,11.03c10.985,3.751,27.138-1.219,27.138-1.219-6.659-8.681-5.812-24.279-4.415-35.755,2.879-1.219,2.76-4.578,2.76-4.578,2.22-.5,3.81-4.038,3.81-4.038A11.287,11.287,0,0,1,62.2,33.2,4.139,4.139,0,0,0,66.842,31.142Z" transform="translate(23.626 0.075)" fill="#fff" opacity="0.6"/>
      <path id="Path-101" data-name="Path" d="M66.842,31.142a51.032,51.032,0,0,1-5.133-11.059c-1.665-5.609-8.78-10.6-8.78-10.6a3.825,3.825,0,0,0,.659-3.191c-3.642,1.328-9.935-2.651-9.935-2.651A3.755,3.755,0,0,0,46.962.669c-3.81,1.982-15.737-2.973-21.2.783s-1.818,8.919-1.774,8.959c-.674,2.611-2.775,6.585-1.556,7.9A42.593,42.593,0,0,1,18.045,27.6c-.773,1.09,4.851,2.22,4.851,2.22,3.082-1.239,6.709-5.2,6.709-5.2,4.147-.624,4.306-4.038,4.306-4.038s3.6-.54,5.282,3.964c2.354,6.313-11.4,12.209-13.17,17.209a21.26,21.26,0,0,0-1.412,8.473L18.432,53.7s-7.844-5.4-9.355-5.322S-.442,62,.019,65.083s7.229,4.673,7.229,4.673L8.606,65.4l-4.35-2.235L9.572,54.98S18.293,66.238,21.023,67.7s9.449,1.6,9.449,1.6l5.753,11.03c10.985,3.751,27.138-1.219,27.138-1.219-6.659-8.681-5.812-24.279-4.415-35.755,2.879-1.219,2.76-4.578,2.76-4.578,2.22-.5,3.81-4.038,3.81-4.038A11.287,11.287,0,0,1,62.2,33.2,4.139,4.139,0,0,0,66.842,31.142Z" transform="translate(23.626 0.075)" fill="none" stroke="#263238" stroke-linecap="round" stroke-linejoin="round" stroke-miterlimit="10" stroke-width="0.55"/>
      <path id="Path-102" data-name="Path" d="M0,0C2.671,4.673,3.508,13.314,9.182,15.479" transform="translate(74.82 16.351)" fill="none" stroke="#263238" stroke-linecap="round" stroke-linejoin="round" stroke-miterlimit="10" stroke-width="0.55"/>
      <path id="Path-103" data-name="Path" d="M0,0A19.9,19.9,0,0,1,9.444,6.07" transform="translate(63.503 7.546)" fill="none" stroke="#263238" stroke-linecap="round" stroke-linejoin="round" stroke-miterlimit="10" stroke-width="0.55"/>
      <path id="Path-104" data-name="Path" d="M0,0A18.259,18.259,0,0,1,3.241.57" transform="translate(57.056 6.05)" fill="none" stroke="#263238" stroke-linecap="round" stroke-linejoin="round" stroke-miterlimit="10" stroke-width="0.55"/>
      <path id="Path-105" data-name="Path" d="M0,2.279A9.514,9.514,0,0,1,4.123,0" transform="translate(48.35 6.441)" fill="none" stroke="#263238" stroke-linecap="round" stroke-linejoin="round" stroke-miterlimit="10" stroke-width="0.55"/>
      <path id="Path-106" data-name="Path" d="M.786,3.731A7.534,7.534,0,0,1,.038,0,15.418,15.418,0,0,0,3.646,2.24,1.532,1.532,0,0,1,4.77,3.726" transform="translate(52.286 3.374)" fill="none" stroke="#263238" stroke-linecap="round" stroke-linejoin="round" stroke-miterlimit="10" stroke-width="0.55"/>
      <path id="Path-107" data-name="Path" d="M.608,0S-.76,5.45.608,8.879" transform="translate(81.535 33.258)" fill="none" stroke="#263238" stroke-linecap="round" stroke-linejoin="round" stroke-miterlimit="10" stroke-width="0.55"/>
      <path id="Path-108" data-name="Path" d="M1.888,4.038A7.175,7.175,0,0,1,0,0" transform="translate(83.446 34.789)" fill="none" stroke="#263238" stroke-linecap="round" stroke-linejoin="round" stroke-miterlimit="10" stroke-width="0.55"/>
      <path id="Path-109" data-name="Path" d="M0,0A9.256,9.256,0,0,1,5.777,5.45c1.68,4.35,3.6,8.136,6.441,8.077" transform="translate(78.229 17.699)" fill="none" stroke="#263238" stroke-linecap="round" stroke-linejoin="round" stroke-miterlimit="10" stroke-width="0.55"/>
      <path id="Path-110" data-name="Path" d="M4.955,0S3.216,1.516,0,0" transform="translate(71.599 9.548)" fill="none" stroke="#263238" stroke-linecap="round" stroke-linejoin="round" stroke-miterlimit="10" stroke-width="0.55"/>
      <path id="Path-111" data-name="Path" d="M9.8.529c-2.091.5-8.423-1.407-9.8,0" transform="translate(57.482 3.177)" fill="none" stroke="#263238" stroke-linecap="round" stroke-linejoin="round" stroke-miterlimit="10" stroke-width="0.55"/>
      <path id="Path-112" data-name="Path" d="M.44,5.946S-1.339,1.858,2.258,0" transform="translate(48.887 1.982)" fill="none" stroke="#263238" stroke-linecap="round" stroke-linejoin="round" stroke-miterlimit="10" stroke-width="0.55"/>
      <path id="Path-113" data-name="Path" d="M.05,1.3S-.262.248.67,0" transform="translate(43.206 26.608)" fill="none" stroke="#263238" stroke-linecap="round" stroke-linejoin="round" stroke-miterlimit="10" stroke-width="0.55"/>
      <path id="Path-114" data-name="Path" d="M.022,1.714S-.271,1,1.3,0" transform="translate(47.586 15.985)" fill="none" stroke="#263238" stroke-linecap="round" stroke-linejoin="round" stroke-miterlimit="10" stroke-width="0.55"/>
      <path id="Path-115" data-name="Path" d="M0,.907S1.526,1.254.718,0" transform="translate(47.632 16.371)" fill="#263238"/>
      <path id="Path-116" data-name="Path" d="M1.858,3.315A4.039,4.039,0,0,0,0,0" transform="translate(55.679 17.323)" fill="none" stroke="#263238" stroke-linecap="round" stroke-linejoin="round" stroke-miterlimit="10" stroke-width="0.55"/>
      <path id="Path-117" data-name="Path" d="M5.738,0s3.31,5.064,2.973,10.5S0,20.172,0,20.172" transform="translate(55.991 16.763)" fill="none" stroke="#263238" stroke-linecap="round" stroke-linejoin="round" stroke-miterlimit="10" stroke-width="0.55"/>
      <path id="Path-118" data-name="Path" d="M0,5.173S1.15.912,3.716,0" transform="translate(48.236 45.12)" fill="none" stroke="#263238" stroke-linecap="round" stroke-linejoin="round" stroke-miterlimit="10" stroke-width="0.55"/>
      <path id="Path-119" data-name="Path" d="M0,4.018S5.8,5.049,6.382,0" transform="translate(54.098 65.351)" fill="none" stroke="#263238" stroke-linecap="round" stroke-linejoin="round" stroke-miterlimit="10" stroke-width="0.55"/>
      <path id="Path-120" data-name="Path" d="M1.6,0A7.477,7.477,0,0,0,0,3.523" transform="translate(28.679 64.459)" fill="none" stroke="#263238" stroke-linecap="round" stroke-linejoin="round" stroke-miterlimit="10" stroke-width="0.55"/>
      <path id="Path-121" data-name="Path" d="M1.889,0A5.666,5.666,0,0,0,0,3.761" transform="translate(43.543 72.585)" fill="none" stroke="#263238" stroke-linecap="round" stroke-linejoin="round" stroke-miterlimit="10" stroke-width="0.55"/>
      <path id="Path-122" data-name="Path" d="M15.227,0s.852,7.229-.9,11.7S6.61,19.815,5.45,19.627,0,16.609,0,16.609" transform="translate(60.5 44.188)" fill="none" stroke="#263238" stroke-linecap="round" stroke-linejoin="round" stroke-miterlimit="10" stroke-width="0.55"/>
      <path id="Path-123" data-name="Path" d="M5.179,0S3.93,8.542,1.571,12.556.209,17.441.209,17.441" transform="translate(71.375 60.029)" fill="none" stroke="#263238" stroke-linecap="round" stroke-linejoin="round" stroke-miterlimit="10" stroke-width="0.55"/>
      <path id="Path-124" data-name="Path" d="M29.314,0s7.71,5.976,7.333,15.286S25.1,33.4,25.1,33.4s-3.468-1.888-4.955,0-.758,7.105-.758,7.105S12,43.609,9.36,44.228,0,36.989,0,36.989l9.018,4.588,6.734-3.81s.134-8.2,7.6-6.085c0,0,7.626-7.2,8.423-12.734,0,0-4.459,5.45-9.34,5.569C22.421,24.517,37.014,17.268,29.314,0Z" transform="translate(34.189 14.31)" fill="#fff"/>
      <path id="Path-125" data-name="Path" d="M5.094,0s-1.115,3.122,0,4.068c0,0-3.964,1.343-5.094,2.73C0,6.806.372-.161,5.094,0Z" transform="translate(46.859 9.545)" fill="#fff"/>
      <path id="Path-126" data-name="Path" d="M3.355.471S2.111,3.34,0,2.721V4.762a25.685,25.685,0,0,0,4.99.317C6.085,4.831,7.031.124,7.031.124A6.441,6.441,0,0,0,3.355.471Z" transform="translate(47.295 15.88)" fill="#fff"/>
      <path id="Path-127" data-name="Path" d="M3.3,0l.436,2.735S1.264,5.465,1.264,6.149A2.051,2.051,0,0,0,0,6.521S1.977.991,3.3,0Z" transform="translate(43.554 19.651)" fill="#fff"/>
      <path id="Path-128" data-name="Path" d="M.955,3.929S.113.917,1.307,0A4.113,4.113,0,0,0,.316,4.737Z" transform="translate(47.281 3.176)" fill="#fff"/>
      <path id="Path-129" data-name="Path" d="M15.093.968S10.351.72,6.912.16.183.566,0,2.2L2.294,3.39S1.8.472,6.085.968,14.409,2.087,15.093.968Z" transform="translate(53.385 0.98)" fill="#fff"/>
      <path id="Path-130" data-name="Path" d="M0,.316S1.244-.64,5.842.772,14.117,2.8,14.85,2.13c0,0,.307,2.477-2.477,2.19S6.511,2.3,5.168,2.685A9.841,9.841,0,0,0,0,.316Z" transform="translate(61.704 5.228)" fill="#fff"/>
      <path id="Path-131" data-name="Path" d="M.7.142A20.92,20.92,0,0,1,13.5,2.749c6.03,3.667,7.522,11.491,8.949,15.281a12.085,12.085,0,0,0,4.038,5.53s-1.675,3.87-1.055,6.689a16.773,16.773,0,0,0,1.382,4.182s-.773,9.018-.823,11.679.124,6.709.124,6.709a80.894,80.894,0,0,1-2.477-9.2c-.867-4.459.56-9.811.56-9.811A71.118,71.118,0,0,1,19.838,20.7C17.6,11.826,11.885,3.556,6.955,2.253S.186,2.689.186,2.689-.478,1.009.7.142Z" transform="translate(54.73 8.578)" fill="#fff"/>
      <path id="Path-132" data-name="Path" d="M0,0A7.056,7.056,0,0,1,1.863,1.392L.5,1.888A4.658,4.658,0,0,1,0,0Z" transform="translate(53.385 5.227)" fill="#fff"/>
      <path id="Path-133" data-name="Path" d="M0,0,1.665,2.819a7.67,7.67,0,0,1,6,2.889,31.063,31.063,0,0,1,4.118,6.937S10.514,6.6,8.121,4.1A13.874,13.874,0,0,0,0,0Z" transform="translate(74.889 13.943)" fill="#fff"/>
      <path id="Path-134" data-name="Path" d="M4.243,0S5.615,10.941,9.619,14.275c0,0-7.631,2.973-9.538,1.486,0,0-.565-6.06,1.3-8.047S4.243,0,4.243,0Z" transform="translate(75.175 63.845)" fill="#fb7d00" opacity="0.5"/>
      <path id="Path-135" data-name="Path" d="M1.427,3.468S13.477,3.122,14.226,0c0,0,.386,4.459-2.6,5.218S0,4.638,0,4.638Z" transform="translate(45.432 62.75)" fill="#fb7d00" opacity="0.5"/>
      <path id="Path-136" data-name="Path" d="M5.95,0S.113,8,0,9.033s2.111,2.631,2.111,2.631l.867-2.017L1.243,9.033Z" transform="translate(25.876 54.812)" fill="#fb7d00" opacity="0.5"/>
      <path id="Path-137" data-name="Path" d="M0,25.042s7.606-2.477,9.33-6.01,2.1-12.6,2.1-12.6L9.855,4.38,11.426,0s3.062,8.582,1.486,16.312A15.014,15.014,0,0,1,4.42,26.782Z" transform="translate(61.521 34.987)" fill="#fb7d00" opacity="0.5"/>
      <path id="Path-138" data-name="Path" d="M0,1.486S2.155,3.81,3.439,3.538,8.889,0,8.889,0,8.205,6.09,6.541,7.1s-1.169,9.667-1.169,9.667L2.235,16.2,1,7.1H2.745S1,6.788,0,1.486Z" transform="translate(62.512 63.845)" fill="#fb7d00" opacity="0.5"/>
      <path id="Path-139" data-name="Path" d="M0,.133s2.354-.59,3.726.718S6.882,3.987,7.973,3.9c0,0-2.091,1.551-3.2.624S3.34,3.279,3.34,3.279A6.62,6.62,0,0,1,0,.133Z" transform="translate(81.048 27.927)" fill="#fb7d00" opacity="0.5"/>
      <path id="Path-140" data-name="Path" d="M0,0S2.056,1.486,3.691,1.115c0,0-.842,2.3-2.22,2.255S0,0,0,0Z" transform="translate(84.348 34.328)" fill="#fb7d00" opacity="0.5"/>
      <path id="Path-141" data-name="Path" d="M.247,0s1.174,1.288,1.6,1.135c0,0-.372,1.858-1.338,1.744S.247,0,.247,0Z" transform="translate(82.5 39.1)" fill="#fb7d00" opacity="0.5"/>
    </g>
    <g id="freepik--Table--inject-57" transform="translate(0 194.117)">
      <path id="Path-142" data-name="Path" d="M0,.248H215.164" transform="translate(0.069 0.064)" fill="none" stroke="#263238" stroke-linecap="round" stroke-linejoin="round" stroke-miterlimit="10" stroke-width="0.55"/>
    </g>
  </g>
</svg>
