<svg xmlns="http://www.w3.org/2000/svg" xmlns:xlink="http://www.w3.org/1999/xlink" width="240.193" height="197.483" viewBox="0 0 240.193 197.483">
  <defs>
    <clipPath id="clip-path">
      <rect id="Rectangle" width="60.568" height="74.448" transform="translate(5.453 8.839) rotate(-3.92)" fill="#fff"/>
    </clipPath>
    <clipPath id="clip-path-2">
      <rect id="Rectangle-2" data-name="Rectangle" width="66.454" height="13.88" transform="translate(2.144 15.566) rotate(-3.92)" fill="#fff"/>
    </clipPath>
  </defs>
  <g id="Gift-bro" transform="translate(-0.545 -0.397)">
    <g id="freepik--background-simple--inject-31">
      <path id="Path" d="M218.711,75.477c-4.492-17.218-11.987-33.268-19.785-44.278C180.137,4.739,136.465-6.908,106.263,4.177,80.54,13.641,71.562,42.183,49.07,55.855,28.4,68.474,9.644,78.7,2.414,102.682c-15.268,50.669,45.117,91.06,90.221,78.233,14.246-4.057,26.284-12.587,41.476-12.618,30.82-.107,41.672,4.12,66.606-12.524C225.323,139.319,226.585,105.6,218.711,75.477Z" transform="translate(0.545 0.397)" fill="#f9fbff"/>
      <path id="Path-2" data-name="Path" d="M55.659,15c-2.524-1.363-3.634-.227-4.543-1.363s2.524-4.088-4.322-7.041c0,0-.454-6.36-9.767-6.587s-6.814,6.36-9.312,7.95-3.155-.909-5.678.681-1.363,4.77-3.407,5.224-4.77-2.044-7.268-.454-2.524,2.953-3.634,2.953-3.407-.909-4.77,0S0,18.41,0,18.41H57.483S58.158,16.359,55.659,15Z" transform="translate(116.347 6.934)" fill="#fff"/>
      <path id="Path-3" data-name="Path" d="M55.666,15c-2.524-1.363-3.64-.227-4.549-1.363S53.64,9.545,46.8,6.592c0,0-.454-6.36-9.767-6.587s-6.795,6.36-9.319,7.95-3.155-.909-5.678.681-1.363,4.776-3.407,5.23-4.77-2.044-7.268-.454-2.524,2.953-3.634,2.953-3.413-.909-4.776,0S0,18.41,0,18.41H57.483S58.164,16.365,55.666,15Z" transform="translate(116.763 105.092)" fill="#fff"/>
      <path id="Path-4" data-name="Path" d="M38.5,10.363c-1.722-.94-2.524-.158-3.155-.94S37.079,6.6,32.366,4.558c0,0-.309-4.416-6.744-4.555S20.915,4.42,19.186,5.5s-2.2-.631-3.924.473-.94,3.293-2.353,3.609S9.615,8.167,7.861,9.265,6.139,11.3,5.338,11.3s-2.353-.631-3.293,0S0,12.716,0,12.716H39.7A1.951,1.951,0,0,0,38.5,10.363Z" transform="translate(169.912 70.022)" fill="#fff"/>
      <path id="Path-5" data-name="Path" d="M24.164,6.514c-1.085-.593-1.577-.1-1.975-.593S23.274,4.148,20.3,2.867c0,0-.2-2.763-4.24-2.864S13.1,2.766,12.013,3.454s-1.382-.391-2.467.3S8.953,5.826,8.063,6.022s-2.069-.89-3.155-.2S3.823,7.088,3.331,7.088s-1.476-.4-2.069,0S0,7.977,0,7.977H24.978A1.262,1.262,0,0,0,24.164,6.514Z" transform="translate(160.511 64.975)" fill="#fff"/>
      <path id="Path-6" data-name="Path" d="M102.5,27.632c-4.606-2.524-6.694-.416-8.372-2.524s4.606-7.527-7.95-12.965c0,0-.833-11.716-17.987-12.132S55.647,11.72,51.041,14.654s-5.855-1.678-10.461,1.262S38.057,24.7,34.3,25.544s-8.782-3.785-13.388-.839-4.6,5.438-6.694,5.438-6.271-1.672-8.782,0S0,33.928,0,33.928H105.874S107.129,30.143,102.5,27.632Z" transform="translate(8.536 56.766)" fill="#fff"/>
    </g>
    <g id="freepik--Floor--inject-31" transform="translate(0.631 196.382)">
      <rect id="Rectangle-3" data-name="Rectangle" width="237.924" height="1" transform="translate(0.177 0.498)" fill="#263238"/>
    </g>
    <g id="freepik--Plants--inject-31" transform="translate(123.659 116.719)">
      <path id="Path-7" data-name="Path" d="M1.374,11.186S4.756,8.517,5.626,6.8c.738-1.464,1.262-3.527.511-5.085A2.909,2.909,0,0,0,2.017.4C-.065,1.691-.285,6.113.245,8.239.289,8.422,1.336,11.23,1.374,11.186Z" transform="translate(48.374 3.281)" fill="#fb7d00"/>
      <path id="Path-8" data-name="Path" d="M3.1,9.142c.139.126,2.524,1.893,2.568,1.836S7.017,6.883,6.8,4.972C6.606,3.344,5.912,1.331,4.417.454A2.9,2.9,0,0,0,.259,1.622C-.769,3.849,1.483,7.659,3.1,9.142Z" transform="translate(15.349 27.596)" fill="#fb7d00"/>
      <path id="Path-9" data-name="Path" d="M12.322,0S-.082,12.789,0,28.5,12.568,56.9,12.568,56.9,24.959,44.107,24.89,28.4,12.322,0,12.322,0Z" transform="translate(77.053 18.517)" fill="#fb7d00"/>
      <path id="Shape" d="M69.791,72.724c-1.88-.884-4.308-2.069-7.091-3.559-1.041-.549-2.145-1.18-3.268-1.811-.3.366-2.72,3.37-4.328,4.183-1.464.738-3.527,1.274-5.085.511A2.9,2.9,0,0,1,48.7,67.935c1.293-2.082,5.71-2.309,7.842-1.779.12.032,1.444.524,2.278.846-.461-.266-.909-.518-1.375-.8-.94-.543-1.849-1.091-2.833-1.722l-1.407-.94c-.48-.309-.947-.688-1.42-1.035-1.091-.82-2.157-1.709-3.211-2.624-.472.814-2.22,3.7-3.551,4.638s-3.294,1.772-4.946,1.262a2.909,2.909,0,0,1-1.931-3.868c.965-2.258,5.3-3.154,7.483-2.952.126.013,1.678.334,2.524.53-.631-.555-1.262-1.111-1.893-1.691-1.786-1.685-3.533-3.445-5.294-5.193-.536-.535-1.079-1.059-1.622-1.589-.164.29-2.157,3.741-3.652,4.814-1.332.933-3.294,1.772-4.946,1.262a2.91,2.91,0,0,1-1.931-3.868c.959-2.258,5.3-3.155,7.477-2.952.17,0,2.4.479,2.958.631-1.193-1.167-2.391-2.322-3.615-3.407a51.182,51.182,0,0,0-5.224-4.094c-.076.139-2.138,3.748-3.672,4.845-1.331.934-3.293,1.773-4.946,1.262a2.908,2.908,0,0,1-1.931-3.867c.966-2.258,5.3-3.154,7.483-2.953.17,0,2.568.5,3,.631l-.316-.233A37.655,37.655,0,0,0,24.138,40c-1.129-.492-2.234-.9-3.312-1.262-.316.713-1.849,4-3.066,5.091s-3.079,2.146-4.776,1.811a2.909,2.909,0,0,1-2.347-3.634c.713-2.346,4.928-3.71,7.117-3.748.12-.006,1.331.108,2.214.2-.492-.158-1-.328-1.47-.473-1.754-.555-3.433-.934-4.909-1.262-.839-.183-1.6-.328-2.316-.454-.681.562-3.488,2.675-5.047,3.085s-3.691.486-5.047-.593a2.9,2.9,0,0,1-.41-4.3c1.735-1.754,6.082-1.021,8.044-.05.171.082,2.669,1.735,2.637,1.735h-.044c.695.113,1.433.239,2.234.391,1.482.3,3.155.644,4.953,1.141a52.27,52.27,0,0,1,5.716,1.893,37.8,37.8,0,0,1,6.026,3l.069.044c-.473-.549-1.729-2.119-1.811-2.245-1.167-1.855-2.335-6.114-.757-8.006a2.908,2.908,0,0,1,4.322,0c1.211,1.243,1.344,3.369,1.1,4.991-.278,1.823-2.461,5.173-2.638,5.445a51.751,51.751,0,0,1,5.5,4.107c1.016.865,2.012,1.767,3,2.682-.392-.486-.738-.922-.776-.991-1.167-1.855-2.335-6.114-.757-8.006a2.9,2.9,0,0,1,4.322,0c1.205,1.237,1.331,3.337,1.1,4.984s-2.038,4.542-2.524,5.3l1.13,1.084c1.8,1.71,3.584,3.42,5.388,5.048.631.573,1.293,1.116,1.924,1.665-.347-.435-.631-.8-.669-.858-1.167-1.855-2.335-6.114-.757-8.006a2.909,2.909,0,0,1,4.322-.032c1.2,1.243,1.337,3.425,1.1,4.991s-1.88,4.252-2.461,5.161c.681.536,1.357,1.079,2.038,1.571.472.334.9.669,1.394.965l1.4.909c.909.543,1.886,1.117,2.8,1.621.631.36,1.262.695,1.893,1.029-.637-.536-1.868-1.7-1.962-1.8a11.349,11.349,0,0,1-2.328-5.192,3.934,3.934,0,0,1-.379-.524,2.909,2.909,0,0,1,1.167-4.164c1.679-.776,4.29.354,6.095,1.616-.069-1.243-.038-2.012-.038-2.012l.473.044-.347-.821c-.246-.517-.423-1.1-.631-1.646-.461-1.287-.858-2.612-1.23-3.956-.845.4-3.886,1.836-5.521,1.893s-3.735-.321-4.833-1.665a2.9,2.9,0,0,1,.524-4.29c2.05-1.35,6.158.3,7.868,1.671.107.083,1.224,1.205,1.823,1.836-.221-.814-.442-1.621-.631-2.447-.562-2.385-1.054-4.82-1.553-7.25-.151-.738-.315-1.477-.472-2.221-.3.151-3.868,1.931-5.71,2-1.634.058-3.735-.321-4.826-1.665a2.9,2.9,0,0,1,.523-4.29c2.045-1.35,6.158.3,7.861,1.672.132.1,1.735,1.715,2.12,2.151-.347-1.634-.713-3.249-1.135-4.833a50.8,50.8,0,0,0-2.1-6.309C54.6,23.9,50.9,25.771,49,25.84c-1.634.057-3.735-.321-4.827-1.659a2.909,2.909,0,0,1,.517-4.3c2.05-1.35,6.158.3,7.868,1.671.139.108,1.861,1.849,2.151,2.183-.05-.113-.088-.246-.139-.36a37.177,37.177,0,0,0-3.2-5.829C50.7,16.528,50,15.582,49.3,14.679c-.656.423-3.741,2.316-5.362,2.555s-3.754.1-4.984-1.122A2.909,2.909,0,0,1,39,11.79c1.893-1.565,6.158-.379,8.006.795.1.063,1.047.826,1.735,1.394-.335-.4-.65-.826-.966-1.205-1.186-1.426-2.36-2.662-3.406-3.748-.6-.612-1.155-1.155-1.679-1.652-.865.076-4.366.328-5.912-.209S33.406,5.519,32.87,3.872A2.908,2.908,0,0,1,34.9.055c2.4-.5,5.64,2.524,6.738,4.416.113.164,1.306,2.9,1.262,2.9h-.05c.511.472,1.06.984,1.647,1.558C45.57,10,46.775,11.21,47.993,12.616a50.582,50.582,0,0,1,3.722,4.732,37.923,37.923,0,0,1,3.376,5.829.07.07,0,0,1,.029.046c-.089-.732-.269-2.691-.269-2.847.051-2.19,1.433-6.392,3.786-7.092a2.9,2.9,0,0,1,3.621,2.36c.322,1.7-.738,3.552-1.836,4.764-1.237,1.369-4.909,2.958-5.2,3.085a51.836,51.836,0,0,1,2.316,6.46c.4,1.281.707,2.58,1.028,3.893-.057-.631-.1-1.18-.1-1.262.05-2.189,1.439-6.391,3.785-7.091a2.9,2.9,0,0,1,3.622,2.36c.328,1.7-.713,3.532-1.83,4.763s-4.221,2.651-5.047,3.016c.113.5.239,1,.354,1.508.555,2.416,1.072,4.832,1.7,7.186.215.833.455,1.641.688,2.448-.051-.549-.083-1.016-.083-1.085.044-2.189,1.433-6.4,3.785-7.091a2.9,2.9,0,0,1,3.615,2.36c.328,1.7-.763,3.583-1.83,4.763s-3.918,2.511-4.9,2.953c.272.82.536,1.641.833,2.429.214.53.4,1.067.631,1.578s.448,1.015.675,1.514c.53.088,1.123.2,1.792.354.164-2.183,1-4.883,2.687-5.679a2.9,2.9,0,0,1,3.937,1.786c.574,1.634-.189,3.622-1.091,4.991a4.9,4.9,0,0,1-.448.562A21.293,21.293,0,0,1,78.9,61.493c6.076,6.789,5.621,17.1,5.621,17.1S75.91,78.017,69.791,72.724ZM55.122,23.247Z" transform="translate(0.373 0.223)" fill="#fb7d00"/>
      <path id="Path-10" data-name="Path" d="M22.883,0S12.562.322,6.24,6.883,0,23.779,0,23.779s10.322-.315,16.644-6.883S22.883,0,22.883,0Z" transform="translate(93.962 54.454)" fill="#fb7d00"/>
      <g id="Group" opacity="0.5">
        <path id="Path-11" data-name="Path" d="M1.374,11.186S4.756,8.517,5.626,6.8c.738-1.464,1.262-3.527.511-5.085A2.909,2.909,0,0,0,2.017.4C-.065,1.691-.285,6.113.245,8.239.289,8.422,1.336,11.23,1.374,11.186Z" transform="translate(48.374 3.281)" fill="#fff"/>
        <path id="Path-12" data-name="Path" d="M3.1,9.142c.139.126,2.524,1.893,2.568,1.836S7.017,6.883,6.8,4.972C6.606,3.344,5.912,1.331,4.417.454A2.9,2.9,0,0,0,.259,1.622C-.769,3.849,1.483,7.659,3.1,9.142Z" transform="translate(15.349 27.596)" fill="#fff"/>
        <path id="Path-13" data-name="Path" d="M12.322,0S-.082,12.789,0,28.5,12.568,56.9,12.568,56.9,24.959,44.107,24.89,28.4,12.322,0,12.322,0Z" transform="translate(77.053 18.517)" fill="#fff"/>
        <path id="Shape-2" data-name="Shape" d="M69.791,72.724c-1.88-.884-4.308-2.069-7.091-3.559-1.041-.549-2.145-1.18-3.268-1.811-.3.366-2.72,3.37-4.328,4.183-1.464.738-3.527,1.274-5.085.511A2.9,2.9,0,0,1,48.7,67.935c1.293-2.082,5.71-2.309,7.842-1.779.12.032,1.444.524,2.278.846-.461-.266-.909-.518-1.375-.8-.94-.543-1.849-1.091-2.833-1.722l-1.407-.94c-.48-.309-.947-.688-1.42-1.035-1.091-.82-2.157-1.709-3.211-2.624-.472.814-2.22,3.7-3.551,4.638s-3.294,1.772-4.946,1.262a2.909,2.909,0,0,1-1.931-3.868c.965-2.258,5.3-3.154,7.483-2.952.126.013,1.678.334,2.524.53-.631-.555-1.262-1.111-1.893-1.691-1.786-1.685-3.533-3.445-5.294-5.193-.536-.535-1.079-1.059-1.622-1.589-.164.29-2.157,3.741-3.652,4.814-1.332.933-3.294,1.772-4.946,1.262a2.91,2.91,0,0,1-1.931-3.868c.959-2.258,5.3-3.155,7.477-2.952.17,0,2.4.479,2.958.631-1.193-1.167-2.391-2.322-3.615-3.407a51.182,51.182,0,0,0-5.224-4.094c-.076.139-2.138,3.748-3.672,4.845-1.331.934-3.293,1.773-4.946,1.262a2.908,2.908,0,0,1-1.931-3.867c.966-2.258,5.3-3.154,7.483-2.953.17,0,2.568.5,3,.631l-.316-.233A37.655,37.655,0,0,0,24.138,40c-1.129-.492-2.234-.9-3.312-1.262-.316.713-1.849,4-3.066,5.091s-3.079,2.146-4.776,1.811a2.909,2.909,0,0,1-2.347-3.634c.713-2.346,4.928-3.71,7.117-3.748.12-.006,1.331.108,2.214.2-.492-.158-1-.328-1.47-.473-1.754-.555-3.433-.934-4.909-1.262-.839-.183-1.6-.328-2.316-.454-.681.562-3.488,2.675-5.047,3.085s-3.691.486-5.047-.593a2.9,2.9,0,0,1-.41-4.3c1.735-1.754,6.082-1.021,8.044-.05.171.082,2.669,1.735,2.637,1.735h-.044c.695.113,1.433.239,2.234.391,1.482.3,3.155.644,4.953,1.141a52.27,52.27,0,0,1,5.716,1.893,37.8,37.8,0,0,1,6.026,3l.069.044c-.473-.549-1.729-2.119-1.811-2.245-1.167-1.855-2.335-6.114-.757-8.006a2.908,2.908,0,0,1,4.322,0c1.211,1.243,1.344,3.369,1.1,4.991-.278,1.823-2.461,5.173-2.638,5.445a51.751,51.751,0,0,1,5.5,4.107c1.016.865,2.012,1.767,3,2.682-.392-.486-.738-.922-.776-.991-1.167-1.855-2.335-6.114-.757-8.006a2.9,2.9,0,0,1,4.322,0c1.205,1.237,1.331,3.337,1.1,4.984s-2.038,4.542-2.524,5.3l1.13,1.084c1.8,1.71,3.584,3.42,5.388,5.048.631.573,1.293,1.116,1.924,1.665-.347-.435-.631-.8-.669-.858-1.167-1.855-2.335-6.114-.757-8.006a2.909,2.909,0,0,1,4.322-.032c1.2,1.243,1.337,3.425,1.1,4.991s-1.88,4.252-2.461,5.161c.681.536,1.357,1.079,2.038,1.571.472.334.9.669,1.394.965l1.4.909c.909.543,1.886,1.117,2.8,1.621.631.36,1.262.695,1.893,1.029-.637-.536-1.868-1.7-1.962-1.8a11.349,11.349,0,0,1-2.328-5.192,3.934,3.934,0,0,1-.379-.524,2.909,2.909,0,0,1,1.167-4.164c1.679-.776,4.29.354,6.095,1.616-.069-1.243-.038-2.012-.038-2.012l.473.044-.347-.821c-.246-.517-.423-1.1-.631-1.646-.461-1.287-.858-2.612-1.23-3.956-.845.4-3.886,1.836-5.521,1.893s-3.735-.321-4.833-1.665a2.9,2.9,0,0,1,.524-4.29c2.05-1.35,6.158.3,7.868,1.671.107.083,1.224,1.205,1.823,1.836-.221-.814-.442-1.621-.631-2.447-.562-2.385-1.054-4.82-1.553-7.25-.151-.738-.315-1.477-.472-2.221-.3.151-3.868,1.931-5.71,2-1.634.058-3.735-.321-4.826-1.665a2.9,2.9,0,0,1,.523-4.29c2.045-1.35,6.158.3,7.861,1.672.132.1,1.735,1.715,2.12,2.151-.347-1.634-.713-3.249-1.135-4.833a50.8,50.8,0,0,0-2.1-6.309C54.6,23.9,50.9,25.771,49,25.84c-1.634.057-3.735-.321-4.827-1.659a2.909,2.909,0,0,1,.517-4.3c2.05-1.35,6.158.3,7.868,1.671.139.108,1.861,1.849,2.151,2.183-.05-.113-.088-.246-.139-.36a37.177,37.177,0,0,0-3.2-5.829C50.7,16.528,50,15.582,49.3,14.679c-.656.423-3.741,2.316-5.362,2.555s-3.754.1-4.984-1.122A2.909,2.909,0,0,1,39,11.79c1.893-1.565,6.158-.379,8.006.795.1.063,1.047.826,1.735,1.394-.335-.4-.65-.826-.966-1.205-1.186-1.426-2.36-2.662-3.406-3.748-.6-.612-1.155-1.155-1.679-1.652-.865.076-4.366.328-5.912-.209S33.406,5.519,32.87,3.872A2.908,2.908,0,0,1,34.9.055c2.4-.5,5.64,2.524,6.738,4.416.113.164,1.306,2.9,1.262,2.9h-.05c.511.472,1.06.984,1.647,1.558C45.57,10,46.775,11.21,47.993,12.616a50.582,50.582,0,0,1,3.722,4.732,37.923,37.923,0,0,1,3.376,5.829.07.07,0,0,1,.029.046c-.089-.732-.269-2.691-.269-2.847.051-2.19,1.433-6.392,3.786-7.092a2.9,2.9,0,0,1,3.621,2.36c.322,1.7-.738,3.552-1.836,4.764-1.237,1.369-4.909,2.958-5.2,3.085a51.836,51.836,0,0,1,2.316,6.46c.4,1.281.707,2.58,1.028,3.893-.057-.631-.1-1.18-.1-1.262.05-2.189,1.439-6.391,3.785-7.091a2.9,2.9,0,0,1,3.622,2.36c.328,1.7-.713,3.532-1.83,4.763s-4.221,2.651-5.047,3.016c.113.5.239,1,.354,1.508.555,2.416,1.072,4.832,1.7,7.186.215.833.455,1.641.688,2.448-.051-.549-.083-1.016-.083-1.085.044-2.189,1.433-6.4,3.785-7.091a2.9,2.9,0,0,1,3.615,2.36c.328,1.7-.763,3.583-1.83,4.763s-3.918,2.511-4.9,2.953c.272.82.536,1.641.833,2.429.214.53.4,1.067.631,1.578s.448,1.015.675,1.514c.53.088,1.123.2,1.792.354.164-2.183,1-4.883,2.687-5.679a2.9,2.9,0,0,1,3.937,1.786c.574,1.634-.189,3.622-1.091,4.991a4.9,4.9,0,0,1-.448.562A21.293,21.293,0,0,1,78.9,61.493c6.076,6.789,5.621,17.1,5.621,17.1S75.91,78.017,69.791,72.724ZM55.122,23.247Z" transform="translate(0.373 0.223)" fill="#fff"/>
        <path id="Path-14" data-name="Path" d="M22.883,0S12.562.322,6.24,6.883,0,23.779,0,23.779s10.322-.315,16.644-6.883S22.883,0,22.883,0Z" transform="translate(93.962 54.454)" fill="#fff"/>
      </g>
      <path id="Path-15" data-name="Path" d="M10.9,42.587l10.139-9.11-.435-.486L10.9,41.716l-.05-11.943.05.038L19.47,17.274l-.536-.366L10.839,28.744,10.713,0h-.65l.088,19.508L3.7,13.924l-.429.492,6.883,5.956.063,13.95L.429,25.666,0,26.151l10.215,9.041.057,12.7-7.35-5.767-.4.511,7.76,6.088.032,8.177.65-.006L10.9,42.587Z" transform="translate(78.984 18.517)" fill="#fff"/>
      <path id="Path-16" data-name="Path" d="M17.88,10.656l-.65-.076L16.41,17.8l-4.353-4.864h.013L10.965,4.2l-.644.082.984,7.817L.486,0,0,.429,7.344,8.637l-4.65.057.013.65,5.211-.063,5.148,5.754L5.8,15.041V15.7l7.849-.013,4.681,5.23-5.129.309.044.65,5.64-.341L22,25.022l.479-.435-5.489-6.139.89-7.792Z" transform="translate(62.669 53.968)" fill="#fff"/>
      <path id="Path-17" data-name="Path" d="M11.312,12.965l8.631-1.754-.132-.637-7.716,1.565L23.35.448,22.877,0,15.243,7.931l-.4-4.631-.644.057.448,5.2-5.35,5.558L8.738,6.871l-.65.05.6,7.823L3.817,19.8l-.688-5.091-.644.088.757,5.6L0,23.767l.467.454,5.71-5.937,7.842.3.025-.65-7.262-.278,4.53-4.707v.013Z" transform="translate(93.729 54.233)" fill="#fff"/>
    </g>
    <g id="freepik--character-2--inject-31" transform="translate(157.098 28.391)">
      <path id="Path-18" data-name="Path" d="M.646,16.267s7.571-3,11.672-6.467,5.205-9.306,3-9.779S3.17,7.434,3.17,7.434-1.719,8.38.646,16.267Z" transform="translate(2.704 40.144)" fill="#fff" stroke="#263238" stroke-linecap="round" stroke-linejoin="round" stroke-miterlimit="10" stroke-width="0.522"/>
      <path id="Path-19" data-name="Path" d="M11.549,5.848A49.325,49.325,0,0,1,12.18.927c.372-1.634-2.259-.8-2.662.164S6.994,2.454,6.7,3.141a10.871,10.871,0,0,0-.461,3.041,5.417,5.417,0,0,0,.991,2.965S.691,24.157.205,28.542C-.489,34.769.748,36.6,1.36,36.857s4.353-2.189,5.281-5.218S7.758,14.788,10.559,9.324a25.766,25.766,0,0,0,.991-3.476Z" transform="translate(1.908 19.673)" fill="#fff" stroke="#263238" stroke-linecap="round" stroke-linejoin="round" stroke-miterlimit="10" stroke-width="0.522"/>
      <path id="Path-20" data-name="Path" d="M1.025.028a1.079,1.079,0,0,0-.94.795c-.126.719-.227,1.956.587,2.05s1.167-.536,1.123-1.836S1.025.028,1.025.028Z" transform="translate(12.584 18.799)" fill="#fff" stroke="#263238" stroke-linecap="round" stroke-linejoin="round" stroke-miterlimit="10" stroke-width="0.522"/>
      <path id="Path-21" data-name="Path" d="M1.029.028a1.079,1.079,0,0,0-.94.795c-.132.719-.233,1.956.587,2.05S1.843,2.337,1.8,1.037,1.029.028,1.029.028Z" transform="translate(10.781 19.335)" fill="#fff" stroke="#263238" stroke-linecap="round" stroke-linejoin="round" stroke-miterlimit="10" stroke-width="0.522"/>
      <path id="Path-22" data-name="Path" d="M.981.026a1.035,1.035,0,0,0-.9.763c-.126.681-.221,1.861.562,1.95s1.11-.5,1.066-1.748S.981.026.981.026Z" transform="translate(8.073 21.955)" fill="#fff" stroke="#263238" stroke-linecap="round" stroke-linejoin="round" stroke-miterlimit="10" stroke-width="0.522"/>
      <path id="Path-23" data-name="Path" d="M.981.026a1.035,1.035,0,0,0-.9.763c-.126.681-.221,1.893.562,1.95s1.11-.5,1.066-1.748S.981.026.981.026Z" transform="translate(9.196 20.485)" fill="#fff" stroke="#263238" stroke-linecap="round" stroke-linejoin="round" stroke-miterlimit="10" stroke-width="0.522"/>
      <path id="Path-24" data-name="Path" d="M1.7,7.683S3.191,4.359,3.594,3.4s.032-1.609.562-2.845S3.077.422,2.724,1.242A16.7,16.7,0,0,0,2.093,3.09,2.4,2.4,0,0,0,.307,4.6,2.694,2.694,0,0,0,.181,6.825" transform="translate(11.03 20.512)" fill="#fff" stroke="#263238" stroke-linecap="round" stroke-linejoin="round" stroke-miterlimit="10" stroke-width="0.522"/>
      <path id="Path-25" data-name="Path" d="M0,18.618S.271,37.338,1.1,39.331s21.71,41.483,21.71,41.483l2.473-1.836L9.874,35.962,12.366,0Z" transform="translate(16.972 81.483)" fill="#263238" stroke="#263238" stroke-linecap="round" stroke-linejoin="round" stroke-miterlimit="10" stroke-width="0.522"/>
      <path id="Path-26" data-name="Path" d="M6.594.423S1.023,33.193.19,39.54,1.534,87.956,1.534,87.956l3.1-.095,5.678-47.905S19.2,16.417,21.975,13.2c3.192-3.691,4.795-8.1,2.946-11.754C23.654-1.028,6.594.423,6.594.423Z" transform="translate(6.107 75.413)" fill="#263238" stroke="#263238" stroke-linecap="round" stroke-linejoin="round" stroke-miterlimit="10" stroke-width="0.522"/>
      <path id="Path-27" data-name="Path" d="M7.428.095S-.389,3.672.015,4.41s9.855.574,10.486.379S10.5,0,10.5,0Z" transform="translate(0.212 163.249)" fill="#fff" stroke="#263238" stroke-miterlimit="10" stroke-width="0.522"/>
      <path id="Path-28" data-name="Path" d="M4.1,1.817A8.89,8.89,0,0,1,2.841,3.754C2.248,4.328-.08,5.647,0,6.278s5.047.353,6.006.063,1.855-2.4,2.751-3.186S6.557,0,6.557,0A28.568,28.568,0,0,1,4.1,1.817Z" transform="translate(35.682 160.479)" fill="#fff" stroke="#263238" stroke-linecap="round" stroke-linejoin="round" stroke-miterlimit="10" stroke-width="0.522"/>
      <path id="Path-29" data-name="Path" d="M0,21.451,8.833,0" transform="translate(17.022 90.53)" fill="none" stroke="#fff" stroke-linecap="round" stroke-linejoin="round" stroke-miterlimit="10" stroke-width="0.5"/>
      <path id="Path-30" data-name="Path" d="M3.02,17.294A34.183,34.183,0,0,1,5.1,12.713,41.9,41.9,0,0,1,13.55,2.12c.631-.631,1.7-1.956,2.669-2.069,1.571-.177.328.069,1.584,1.356s5.375,5.205,6.095,13.88c.221,2.669-.58,5.489-.984,8.107-.549,3.6-1.375,7.167-1.659,10.808-.347,4.372.738,9.016.921,13.42.12,2.972.322,5.95.555,8.921a38.507,38.507,0,0,0-5.95-3.968,11.987,11.987,0,0,0-10.915,1.5C2.843,56.089.408,57.861.08,57.054s.423-3.7.991-6.12c.662-2.808,1.861-12.259,1.861-12.259.416-1.95.4-12.24-.259-13.88A10.857,10.857,0,0,1,3.02,17.294Z" transform="translate(10.16 24.788)" fill="#ffb76f" stroke="#263238" stroke-linecap="round" stroke-linejoin="round" stroke-miterlimit="10" stroke-width="0.522"/>
      <path id="Path-31" data-name="Path" d="M7.767,5.88S1.905,2.726,0,0" transform="translate(16.953 54.833)" fill="none" stroke="#263238" stroke-linecap="round" stroke-linejoin="round" stroke-miterlimit="10" stroke-width="0.5"/>
      <path id="Path-32" data-name="Path" d="M3.035,1.521,0,0" transform="translate(20.953 60.978)" fill="none" stroke="#263238" stroke-linecap="round" stroke-linejoin="round" stroke-miterlimit="10" stroke-width="0.5"/>
      <path id="Path-33" data-name="Path" d="M14.569.288c-3,2.227-4.328,7.42-3.344,9.464.221.467-4.549,2.063-4.94,2.2A14.792,14.792,0,0,0,.745,14.945a.5.5,0,0,1-.631-.751c.808-.688,2.587-2.3,3-3.476.53-1.527.744-2.379.744-2.379a8.43,8.43,0,0,0-.631-4.984C4.872.793,15.831-.652,14.569.288Z" transform="translate(18.239 18.948)" fill="#fff" stroke="#263238" stroke-linecap="round" stroke-linejoin="round" stroke-miterlimit="10" stroke-width="0.522"/>
      <path id="Path-34" data-name="Path" d="M13.991.274c-2.58-.5-5.811-.511-7.571,1.741C3.36,5.965,3.758,8.753,2.988,9.744S-.11,11.006,0,11.9s1.388,1.6,1.388,1.6a44.467,44.467,0,0,0-.549,6.151C.938,21.548,4,21.327,7.152,21.378s5.129-.5,7.293-3.3,5.142-3.785,6.032-7.451A8.517,8.517,0,0,0,13.991.274Z" transform="translate(16.854 3.512)" fill="#fff" stroke="#263238" stroke-linecap="round" stroke-linejoin="round" stroke-miterlimit="10" stroke-width="0.522"/>
      <path id="Path-35" data-name="Path" d="M1.584,2.271S1.186.082,0,0" transform="translate(22.347 11.609)" fill="#fff" stroke="#263238" stroke-linecap="round" stroke-linejoin="round" stroke-miterlimit="10" stroke-width="0.522"/>
      <path id="Path-36" data-name="Path" d="M.854.873c-.177.372-.486.593-.688.5S-.055.892.116.526.6-.074.8.021,1.03.5.854.873Z" transform="translate(21.279 13.077)" fill="#263238"/>
      <path id="Path-37" data-name="Path" d="M0,.11A3.079,3.079,0,0,0,3.35.053" transform="translate(19.054 18.748)" fill="#fff" stroke="#263238" stroke-linecap="round" stroke-linejoin="round" stroke-miterlimit="10" stroke-width="0.522"/>
      <path id="Path-38" data-name="Path" d="M.12.278S-.423,2.17.8,2.17,2.158,0,2.158,0A2.524,2.524,0,0,1,.12.278Z" transform="translate(19.88 18.984)" fill="#263238"/>
      <path id="Path-39" data-name="Path" d="M24.006,38.5a29.805,29.805,0,0,1,.259-13.375,32.883,32.883,0,0,0,1.066-10.644l-.069.132a11.672,11.672,0,0,0-.24-3C23.659,5.541,18.852,2.027,14.543.57A9.628,9.628,0,0,0,9.678.134h0A33.285,33.285,0,0,0,0,3.617c0,1.8,1.893,4.864,3.47,7.426a14.133,14.133,0,0,1,1.792-4.3,37.71,37.71,0,0,0,4.2,6.852c3.565,4.852,4.416,5.091,4.416,5.091-.372,2.644-6.517,4.366-6.94,6.019a.439.439,0,0,1-.032.2c0,.221.032.442.044.631.334,1.262,1.924,2.24,2.461,2.656.631.5.631,3.785,1.779,4.726s1.262-.278,2.019.095c.631.328,2.347,3.968,3.552,4.3a23.186,23.186,0,0,0,1.968,1.647C20.82,40.588,24.511,40.778,24.006,38.5Z" transform="translate(17.035 0.169)" fill="#263238"/>
      <path id="Path-40" data-name="Path" d="M5.15,0C3.755.423-.081.669,0,2.227A8.2,8.2,0,0,0,.866,5.256" transform="translate(21.557 1.293)" fill="none" stroke="#fff" stroke-linecap="round" stroke-linejoin="round" stroke-miterlimit="10" stroke-width="0.5"/>
      <path id="Path-41" data-name="Path" d="M0,0S2.461,7.9,4.984,10.479a20.9,20.9,0,0,0,6.675,4.1" transform="translate(25.3 4.492)" fill="none" stroke="#fff" stroke-linecap="round" stroke-linejoin="round" stroke-miterlimit="10" stroke-width="0.5"/>
      <path id="Path-42" data-name="Path" d="M.049,0A20.379,20.379,0,0,0,1.242,8.423a14.025,14.025,0,0,0,4.416,6.2" transform="translate(29.761 1.987)" fill="none" stroke="#fff" stroke-linecap="round" stroke-linejoin="round" stroke-miterlimit="10" stroke-width="0.5"/>
      <path id="Path-43" data-name="Path" d="M.372,1.613S3.716-.816,4.328.288s-.473,2.77-1.893,3.785S.221,4.237,0,3.442" transform="translate(28.909 17.214)" fill="#fff" stroke="#263238" stroke-linecap="round" stroke-linejoin="round" stroke-miterlimit="10" stroke-width="0.522"/>
      <path id="Path-44" data-name="Path" d="M1.529.764C3.276-.713,6.015-.094,7.207,3.016,9.188,8.064,11.169,13.161,13.2,18.234c1.981,4.959,9.918,29.268,10.58,31.085s2.17,6.448,2.17,6.448,4.782,3.666,4.782,4.164-.826,2.315-1.489,2.479S25.617,60.9,24.961,60.4s-1-1.489-1.823-3.968c0,0-4.959-13.249-8.265-17.363S8.917,24.183,8.286,23.029a104.328,104.328,0,0,1-5.95-10.915C1.226,9.672-.263,6.739.04,3.969A5.047,5.047,0,0,1,1.529.764Z" transform="translate(23.26 31.003)" fill="#fff" stroke="#263238" stroke-linecap="round" stroke-linejoin="round" stroke-miterlimit="10" stroke-width="0.522"/>
      <path id="Path-45" data-name="Path" d="M0,1.1.675,0" transform="translate(50.864 90.511)" fill="none" stroke="#263238" stroke-linecap="round" stroke-linejoin="round" stroke-miterlimit="10" stroke-width="0.522"/>
      <path id="Path-46" data-name="Path" d="M0,1.943S1.95.927,2.372,0" transform="translate(51.621 90.934)" fill="none" stroke="#263238" stroke-linecap="round" stroke-linejoin="round" stroke-miterlimit="10" stroke-width="0.522"/>
      <path id="Path-47" data-name="Path" d="M2.479,2.139A18.274,18.274,0,0,0,4.132,3.956,4.9,4.9,0,0,1,5.293,6.6s-.328,1-.826.5S2.814,5.1,2.814,5.1A3.06,3.06,0,0,1,1.161,3.785,10.952,10.952,0,0,1,0,0" transform="translate(46.397 87.451)" fill="#fff" stroke="#263238" stroke-linecap="round" stroke-linejoin="round" stroke-miterlimit="10" stroke-width="0.522"/>
    </g>
    <g id="freepik--character-1--inject-31" transform="translate(39.117 11.987)">
      <path id="Path-48" data-name="Path" d="M19.695,2.189A59.8,59.8,0,0,0,18.723,8.5c0,1.451,8.013,29.148,8.013,33.281s3.4,40.076,3.4,40.076l-5.584,1.218s-4.618-17.249-6.8-23.565S14.6,42.265,14.6,42.265L9.5,24.044S5.367,15.785,3.423,12.631s-3.64-5.59-3.4-8.259S2.938,0,2.938,0Z" transform="translate(22.28 95.748)" fill="#263238"/>
      <path id="Path-49" data-name="Path" d="M14.577.6a24.025,24.025,0,0,0,.486,8.984c1.211,4.372,3.155,8.259,3.155,8.991s-1.457,21.861-1.7,22.587S-.243,79.055,0,79.787,3.889,81.97,3.889,81.97s24.29-33.76,25.5-35.464,5.59-32.063,6.309-33.76S37.157.128,37.157.128,20.646-.371,14.577.6Z" transform="translate(3.593 96.125)" fill="#263238"/>
      <path id="Path-50" data-name="Path" d="M4.076,0,0,22.833" transform="translate(36.17 105.243)" fill="none" stroke="#fff" stroke-linecap="round" stroke-linejoin="round" stroke-miterlimit="10" stroke-width="0.5"/>
      <path id="Path-51" data-name="Path" d="M6.03.4S-1.718-.619.351.6a23.975,23.975,0,0,0,5.1,2.044H.724" transform="translate(21.989 138.076)" fill="none" stroke="#fff" stroke-linecap="round" stroke-linejoin="round" stroke-miterlimit="10" stroke-width="0.5"/>
      <path id="Path-52" data-name="Path" d="M4.284,0A18.555,18.555,0,0,1,2.038,3.262,4.416,4.416,0,0,1,0,4.486" transform="translate(28.423 102.208)" fill="none" stroke="#fff" stroke-linecap="round" stroke-linejoin="round" stroke-miterlimit="10" stroke-width="0.5"/>
      <path id="Path-53" data-name="Path" d="M.631,0s.2,5.918.41,8.36a68.486,68.486,0,0,1-.41,12.233C0,26.5,0,29.363,0,29.363" transform="translate(26.978 101.773)" fill="none" stroke="#fff" stroke-linecap="round" stroke-linejoin="round" stroke-miterlimit="10" stroke-width="0.5"/>
      <path id="Path-54" data-name="Path" d="M5.892,0s8.991,1.457,8.991,2.429S1,8.019.308,6.8s0-5.584,0-5.584Z" transform="translate(46.524 177.609)" fill="#fff" stroke="#263238" stroke-linecap="round" stroke-linejoin="round" stroke-miterlimit="10" stroke-width="0.522"/>
      <path id="Path-55" data-name="Path" d="M3.167,0S-.233,3.886.013,4.858,4.145,7.773,6.088,8.013s6.309.246,7.527-.486-2.669-1.7-3.64-2.669S7.06,2.183,7.06,2.183Z" transform="translate(0.429 175.912)" fill="#fff" stroke="#263238" stroke-linecap="round" stroke-linejoin="round" stroke-miterlimit="10" stroke-width="0.522"/>
      <path id="Path-56" data-name="Path" d="M13.6,3.691A44.883,44.883,0,0,1,6.17,2.972,24.158,24.158,0,0,1,.669.114L.315,0A1.8,1.8,0,0,0,0,1.022c.246.972,4.132,2.915,6.076,3.155S12.391,4.423,13.6,3.691Z" transform="translate(0.435 179.748)" fill="#fb7d00" stroke="#263238" stroke-linecap="round" stroke-linejoin="round" stroke-miterlimit="10" stroke-width="0.5"/>
      <path id="Path-57" data-name="Path" d="M6.366,2.707c-2.448,1.022-5.5.631-6.114.631L0,3.375A3.4,3.4,0,0,0,.309,4.826c.726,1.218,14.574-3.4,14.574-4.372,0-.139-.2-.3-.53-.454l-.442.076S8.814,1.659,6.366,2.707Z" transform="translate(46.523 179.628)" fill="#fb7d00" stroke="#263238" stroke-linecap="round" stroke-linejoin="round" stroke-miterlimit="10" stroke-width="0.5"/>
      <path id="Path-58" data-name="Path" d="M20.56,9.047Q20,7.723,19.367,6.4C17.815,3.212,15.4.227,11.607.013S2.2,2.3.692,6.013a12.219,12.219,0,0,0,.858,9.912,7.842,7.842,0,0,0,2.94,3.2c1.174.808,3.028,1.426,3.47,2.959.511,1.76-.492,7.142-.492,7.142l6.467,2.593a15.274,15.274,0,0,1,1.76-4.959,8.782,8.782,0,0,1,3.64-3.577c2.3,0,4.511-.845,4.625-1.987.1-.991-.473-3.918-1.64-7.5a1.773,1.773,0,0,0,1.262-1.615C23.531,11.085,21.172,9.451,20.56,9.047Z" transform="translate(5.623 17.003)" fill="#fff" stroke="#263238" stroke-linecap="round" stroke-linejoin="round" stroke-miterlimit="10" stroke-width="0.522"/>
      <path id="Path-59" data-name="Path" d="M13.392,20.141s2.139-.89,1.893-1.968,0-1.785.909-3-1.186-1.432-2.215-2.6,3.2-3.628,6.095-4.416,5.546-2.328,2.89-5.388-4.921-.858-6.24-.088S16.584-.6,13.272.078s-2.921,2.58-2.65,3.659S9.569,5.585,8.382,6.261s-3.23-.076-6.726,4.252S.811,21.238,3.941,24.21s4.732,4.36,7.243,4.038,3.457-6,2.845-7.06Z" transform="translate(2.425 10.831)" fill="#263238"/>
      <path id="Path-60" data-name="Path" d="M4.789.113S4.562-.694,3.527,2.006,2.719,6.719,0,8.53" transform="translate(10.789 23.332)" fill="none" stroke="#fff" stroke-linecap="round" stroke-linejoin="round" stroke-miterlimit="10" stroke-width="0.5"/>
      <path id="Path-61" data-name="Path" d="M0,1.943S2.631,1.6,3.356,0" transform="translate(9.558 33.476)" fill="none" stroke="#fff" stroke-linecap="round" stroke-linejoin="round" stroke-miterlimit="10" stroke-width="0.5"/>
      <path id="Path-62" data-name="Path" d="M3.154,1.253s-2.1-3.022-2.991.322S2.24,6.382,3.451,6.029A1.691,1.691,0,0,0,4.58,4.319" transform="translate(14.511 29.41)" fill="#fff" stroke="#263238" stroke-linecap="round" stroke-linejoin="round" stroke-miterlimit="10" stroke-width="0.522"/>
      <path id="Path-63" data-name="Path" d="M2.94.1S.461,1,0,.209" transform="translate(25.205 34.15)" fill="#fff" stroke="#263238" stroke-linecap="round" stroke-linejoin="round" stroke-miterlimit="10" stroke-width="0.522"/>
      <path id="Path-64" data-name="Path" d="M0,1.512S.555-.576,2.038.156" transform="translate(21.262 23.296)" fill="#fff" stroke="#263238" stroke-linecap="round" stroke-linejoin="round" stroke-miterlimit="10" stroke-width="0.522"/>
      <path id="Path-65" data-name="Path" d="M0,0A12.874,12.874,0,0,0,3.785,3.521" transform="translate(17.981 35.438)" fill="none" stroke="#263238" stroke-linecap="round" stroke-linejoin="round" stroke-miterlimit="10" stroke-width="0.5"/>
      <path id="Path-66" data-name="Path" d="M.924.759c.208.5.2.978,0,1.073s-.562-.246-.77-.744S-.048.1.154.014.715.26.924.759Z" transform="translate(23.095 25.74)" fill="#263238"/>
      <path id="Path-67" data-name="Path" d="M5.832,0,15.87,6.309S23.441,23.88,29.555,37.066s7.464,18.107,7.464,18.107a88.265,88.265,0,0,1-14.511,3.968,97.161,97.161,0,0,1-15,1.325S.854,27.785.066,18.435,5.832,0,5.832,0Z" transform="translate(7.341 43.047)" fill="#ffb76f" stroke="#263238" stroke-linecap="round" stroke-linejoin="round" stroke-miterlimit="10" stroke-width="0.522"/>
      <path id="Path-68" data-name="Path" d="M0,3.335s8.524,7.237,9.42,7.748,2.726-4.77,2.726-4.77S3.407.136,2.107,0,0,3.335,0,3.335Z" transform="translate(11.066 43.056)" fill="#ffb76f" stroke="#263238" stroke-linecap="round" stroke-linejoin="round" stroke-miterlimit="10" stroke-width="0.522"/>
      <path id="Path-69" data-name="Path" d="M3.142,0,0,.858" transform="translate(25.079 61.243)" fill="none" stroke="#263238" stroke-linecap="round" stroke-linejoin="round" stroke-miterlimit="10" stroke-width="0.5"/>
      <path id="Path-70" data-name="Path" d="M3.142,0,0,.858" transform="translate(26.94 64.965)" fill="none" stroke="#263238" stroke-linecap="round" stroke-linejoin="round" stroke-miterlimit="10" stroke-width="0.5"/>
      <path id="Path-71" data-name="Path" d="M0,1.975a76.694,76.694,0,0,0,11.987-.953L18.044,0" transform="translate(15.218 98.341)" fill="none" stroke="#263238" stroke-linecap="round" stroke-linejoin="round" stroke-miterlimit="10" stroke-width="0.5"/>
      <path id="Path-72" data-name="Path" d="M0,2.025,5.249,0" transform="translate(35.64 95.659)" fill="none" stroke="#263238" stroke-linecap="round" stroke-linejoin="round" stroke-miterlimit="10" stroke-width="0.5"/>
      <path id="Path-73" data-name="Path" d="M0,0,4.637,10.782" transform="translate(35.274 80.877)" fill="none" stroke="#263238" stroke-linecap="round" stroke-linejoin="round" stroke-miterlimit="10" stroke-width="0.5"/>
      <path id="Path-74" data-name="Path" d="M0,0,4.568,1.009" transform="translate(12.006 73.066)" fill="none" stroke="#263238" stroke-linecap="round" stroke-linejoin="round" stroke-miterlimit="10" stroke-width="0.5"/>
      <path id="Path-75" data-name="Path" d="M0,2.183S3.785,1.363,4.9,0" transform="translate(12.347 75.23)" fill="none" stroke="#263238" stroke-linecap="round" stroke-linejoin="round" stroke-miterlimit="10" stroke-width="0.5"/>
      <path id="Path-76" data-name="Path" d="M0,7.047S-.1,2,1.037,0" transform="translate(13.341 50.019)" fill="none" stroke="#263238" stroke-linecap="round" stroke-linejoin="round" stroke-miterlimit="10" stroke-width="0.5"/>
      <path id="Path-77" data-name="Path" d="M1.23,0,0,2.448" transform="translate(14.902 51.022)" fill="none" stroke="#263238" stroke-linecap="round" stroke-linejoin="round" stroke-miterlimit="10" stroke-width="0.5"/>
      <g id="Group_3" data-name="Group 3" transform="translate(27.76 15.142)">
        <rect id="Rectangle-4" data-name="Rectangle" width="60.568" height="74.448" transform="translate(5.453 8.839) rotate(-3.92)" fill="#fff"/>
        <g id="Group_3-2" data-name="Group 3" clip-path="url(#clip-path)">
          <g id="Group-2" data-name="Group">
            <rect id="Rectangle-5" data-name="Rectangle" width="12.637" height="11.615" transform="translate(63.539 0.038)" fill="none"/>
            <path id="Path-78" data-name="Path" d="M4.58,1.2A1.205,1.205,0,0,0,2.29.681,1.205,1.205,0,0,0,0,1.2C0,1.968.852,2.688,1.438,3.1a5.123,5.123,0,0,1,.9.713A3.3,3.3,0,0,1,3.293,3,2.379,2.379,0,0,0,4.58,1.2Z" transform="translate(64.284 7.376)" fill="#fb7d00"/>
            <path id="Path-79" data-name="Path" d="M4.58,1.2A1.205,1.205,0,0,0,2.29.681,1.205,1.205,0,0,0,0,1.2C0,1.968.852,2.688,1.438,3.1a5.123,5.123,0,0,1,.9.713A3.3,3.3,0,0,1,3.293,3,2.379,2.379,0,0,0,4.58,1.2Z" transform="translate(70.637 1.022)" fill="#fb7d00"/>
            <rect id="Rectangle-6" data-name="Rectangle" width="12.637" height="11.615" transform="translate(63.539 0.038)" fill="none"/>
            <rect id="Rectangle-7" data-name="Rectangle" width="12.637" height="11.615" transform="translate(63.539 11.659)" fill="none"/>
            <path id="Path-80" data-name="Path" d="M4.58,1.2A1.205,1.205,0,0,0,2.29.681,1.205,1.205,0,0,0,0,1.2c0,.757.852,1.476,1.438,1.861a5.123,5.123,0,0,1,.9.713,3.3,3.3,0,0,1,.953-.808A2.366,2.366,0,0,0,4.58,1.2Z" transform="translate(64.284 18.984)" fill="#fb7d00"/>
            <path id="Path-81" data-name="Path" d="M4.555,1.2A1.205,1.205,0,0,0,2.265.681,1.205,1.205,0,0,0,0,1.2C0,1.962.852,2.681,1.438,3.1a5.123,5.123,0,0,1,.9.713A3.3,3.3,0,0,1,3.293,3,2.366,2.366,0,0,0,4.555,1.2Z" transform="translate(70.662 12.675)" fill="#fb7d00"/>
            <rect id="Rectangle-8" data-name="Rectangle" width="12.637" height="11.615" transform="translate(63.539 11.659)" fill="none"/>
            <rect id="Rectangle-9" data-name="Rectangle" width="12.637" height="11.615" transform="translate(63.539 23.274)" fill="none"/>
            <path id="Path-82" data-name="Path" d="M4.58,1.2A1.205,1.205,0,0,0,2.29.681,1.205,1.205,0,0,0,0,1.2C0,1.968.852,2.688,1.438,3.1a5.123,5.123,0,0,1,.9.713A3.3,3.3,0,0,1,3.293,3,2.379,2.379,0,0,0,4.58,1.2Z" transform="translate(64.284 30.612)" fill="#fb7d00"/>
            <path id="Path-83" data-name="Path" d="M4.58,1.2A1.205,1.205,0,0,0,2.29.681,1.205,1.205,0,0,0,0,1.2C0,1.968.852,2.688,1.438,3.1a5.123,5.123,0,0,1,.9.713A3.3,3.3,0,0,1,3.293,3,2.379,2.379,0,0,0,4.58,1.2Z" transform="translate(70.637 24.259)" fill="#fb7d00"/>
            <rect id="Rectangle-10" data-name="Rectangle" width="12.637" height="11.615" transform="translate(63.539 23.274)" fill="none"/>
            <rect id="Rectangle-11" data-name="Rectangle" width="12.637" height="11.615" transform="translate(63.539 34.896)" fill="none"/>
            <path id="Path-84" data-name="Path" d="M4.58,1.2A1.205,1.205,0,0,0,2.29.681,1.205,1.205,0,0,0,0,1.2C0,1.962.852,2.681,1.438,3.1a5.123,5.123,0,0,1,.9.713A3.3,3.3,0,0,1,3.293,3,2.366,2.366,0,0,0,4.58,1.2Z" transform="translate(64.284 42.234)" fill="#fb7d00"/>
            <path id="Path-85" data-name="Path" d="M4.58,1.2A1.205,1.205,0,0,0,2.29.681,1.205,1.205,0,0,0,0,1.2c0,.757.852,1.476,1.438,1.861a5.123,5.123,0,0,1,.9.713,3.3,3.3,0,0,1,.953-.808A2.366,2.366,0,0,0,4.58,1.2Z" transform="translate(70.637 35.88)" fill="#fb7d00"/>
            <rect id="Rectangle-12" data-name="Rectangle" width="12.637" height="11.615" transform="translate(63.539 34.896)" fill="none"/>
            <rect id="Rectangle-13" data-name="Rectangle" width="12.637" height="11.621" transform="translate(63.539 46.511)" fill="none"/>
            <path id="Path-86" data-name="Path" d="M4.58,1.2A1.205,1.205,0,0,0,2.29.681,1.205,1.205,0,0,0,0,1.2C0,1.968.852,2.688,1.438,3.1a5.123,5.123,0,0,1,.9.713A3.3,3.3,0,0,1,3.293,3,2.379,2.379,0,0,0,4.58,1.2Z" transform="translate(64.284 53.849)" fill="#fb7d00"/>
            <path id="Path-87" data-name="Path" d="M4.58,1.2A1.205,1.205,0,0,0,2.29.681,1.205,1.205,0,0,0,0,1.2C0,1.968.852,2.688,1.438,3.1a5.123,5.123,0,0,1,.9.713A3.3,3.3,0,0,1,3.293,3,2.379,2.379,0,0,0,4.58,1.2Z" transform="translate(70.637 47.495)" fill="#fb7d00"/>
            <rect id="Rectangle-14" data-name="Rectangle" width="12.637" height="11.621" transform="translate(63.539 46.511)" fill="none"/>
            <rect id="Rectangle-15" data-name="Rectangle" width="12.637" height="11.615" transform="translate(63.539 58.132)" fill="none"/>
            <path id="Path-88" data-name="Path" d="M4.58,1.2A1.205,1.205,0,0,0,2.29.681,1.205,1.205,0,0,0,0,1.2c0,.757.852,1.476,1.438,1.861a5.123,5.123,0,0,1,.9.713,3.3,3.3,0,0,1,.953-.808A2.366,2.366,0,0,0,4.58,1.2Z" transform="translate(64.284 65.47)" fill="#fb7d00"/>
            <path id="Path-89" data-name="Path" d="M4.58,1.2A1.205,1.205,0,0,0,2.29.681,1.205,1.205,0,0,0,0,1.2c0,.757.852,1.476,1.438,1.861a5.123,5.123,0,0,1,.9.713,3.3,3.3,0,0,1,.953-.808A2.366,2.366,0,0,0,4.58,1.2Z" transform="translate(70.637 59.117)" fill="#fb7d00"/>
            <rect id="Rectangle-16" data-name="Rectangle" width="12.637" height="11.615" transform="translate(63.539 58.132)" fill="none"/>
            <rect id="Rectangle-17" data-name="Rectangle" width="12.637" height="11.615" transform="translate(63.539 69.748)" fill="none"/>
            <path id="Path-90" data-name="Path" d="M4.58,1.2A1.205,1.205,0,0,0,2.29.681,1.205,1.205,0,0,0,0,1.2C0,1.968.852,2.688,1.438,3.1a5.123,5.123,0,0,1,.9.713A3.3,3.3,0,0,1,3.293,3,2.379,2.379,0,0,0,4.58,1.2Z" transform="translate(64.284 77.085)" fill="#fb7d00"/>
            <path id="Path-91" data-name="Path" d="M4.555,1.2A1.205,1.205,0,0,0,2.265.681,1.205,1.205,0,0,0,0,1.2C0,1.968.852,2.688,1.438,3.1a5.123,5.123,0,0,1,.9.713A3.3,3.3,0,0,1,3.293,3,2.379,2.379,0,0,0,4.555,1.2Z" transform="translate(70.662 70.719)" fill="#fb7d00"/>
            <rect id="Rectangle-18" data-name="Rectangle" width="12.637" height="11.615" transform="translate(63.539 69.748)" fill="none"/>
            <rect id="Rectangle-19" data-name="Rectangle" width="12.637" height="11.621" transform="translate(63.539 81.369)" fill="none"/>
            <path id="Path-92" data-name="Path" d="M4.58,1.2A1.205,1.205,0,0,0,2.29.681,1.205,1.205,0,0,0,0,1.2c0,.757.852,1.476,1.438,1.861a5.123,5.123,0,0,1,.9.713,3.3,3.3,0,0,1,.953-.808A2.366,2.366,0,0,0,4.58,1.2Z" transform="translate(64.284 88.707)" fill="#fb7d00"/>
            <path id="Path-93" data-name="Path" d="M4.58,1.2A1.205,1.205,0,0,0,2.29.681,1.205,1.205,0,0,0,0,1.2c0,.757.852,1.476,1.438,1.861a5.123,5.123,0,0,1,.9.713,3.3,3.3,0,0,1,.953-.808A2.366,2.366,0,0,0,4.58,1.2Z" transform="translate(70.637 82.354)" fill="#fb7d00"/>
            <rect id="Rectangle-20" data-name="Rectangle" width="12.637" height="11.621" transform="translate(63.539 81.369)" fill="none"/>
            <rect id="Rectangle-21" data-name="Rectangle" width="12.637" height="11.615" transform="translate(50.902 0.038)" fill="none"/>
            <path id="Path-94" data-name="Path" d="M4.58,1.2A1.205,1.205,0,0,0,2.29.681,1.205,1.205,0,0,0,0,1.2C0,1.968.852,2.688,1.438,3.1a5.123,5.123,0,0,1,.9.713A3.3,3.3,0,0,1,3.293,3,2.379,2.379,0,0,0,4.58,1.2Z" transform="translate(51.647 7.376)" fill="#fb7d00"/>
            <path id="Path-95" data-name="Path" d="M4.58,1.2A1.205,1.205,0,0,0,2.29.681,1.205,1.205,0,0,0,0,1.2C0,1.968.852,2.688,1.438,3.1a5.123,5.123,0,0,1,.9.713A3.3,3.3,0,0,1,3.293,3,2.379,2.379,0,0,0,4.58,1.2Z" transform="translate(58 1.022)" fill="#fb7d00"/>
            <rect id="Rectangle-22" data-name="Rectangle" width="12.637" height="11.615" transform="translate(50.902 0.038)" fill="none"/>
            <rect id="Rectangle-23" data-name="Rectangle" width="12.637" height="11.615" transform="translate(50.902 11.659)" fill="none"/>
            <path id="Path-96" data-name="Path" d="M4.58,1.2A1.205,1.205,0,0,0,2.29.681,1.205,1.205,0,0,0,0,1.2c0,.757.852,1.476,1.438,1.861a5.123,5.123,0,0,1,.9.713,3.3,3.3,0,0,1,.953-.808A2.366,2.366,0,0,0,4.58,1.2Z" transform="translate(51.647 18.984)" fill="#fb7d00"/>
            <path id="Path-97" data-name="Path" d="M4.58,1.2A1.205,1.205,0,0,0,2.29.681,1.205,1.205,0,0,0,0,1.2C0,1.962.852,2.681,1.438,3.1a5.123,5.123,0,0,1,.9.713A3.3,3.3,0,0,1,3.293,3,2.366,2.366,0,0,0,4.58,1.2Z" transform="translate(58 12.675)" fill="#fb7d00"/>
            <rect id="Rectangle-24" data-name="Rectangle" width="12.637" height="11.615" transform="translate(50.902 11.659)" fill="none"/>
            <rect id="Rectangle-25" data-name="Rectangle" width="12.637" height="11.615" transform="translate(50.902 23.274)" fill="none"/>
            <path id="Path-98" data-name="Path" d="M4.58,1.2A1.205,1.205,0,0,0,2.29.681,1.205,1.205,0,0,0,0,1.2C0,1.968.852,2.688,1.438,3.1a5.123,5.123,0,0,1,.9.713A3.3,3.3,0,0,1,3.293,3,2.379,2.379,0,0,0,4.58,1.2Z" transform="translate(51.647 30.612)" fill="#fb7d00"/>
            <path id="Path-99" data-name="Path" d="M4.58,1.2A1.205,1.205,0,0,0,2.29.681,1.205,1.205,0,0,0,0,1.2C0,1.968.852,2.688,1.438,3.1a5.123,5.123,0,0,1,.9.713A3.3,3.3,0,0,1,3.293,3,2.379,2.379,0,0,0,4.58,1.2Z" transform="translate(58 24.259)" fill="#fb7d00"/>
            <rect id="Rectangle-26" data-name="Rectangle" width="12.637" height="11.615" transform="translate(50.902 23.274)" fill="none"/>
            <rect id="Rectangle-27" data-name="Rectangle" width="12.637" height="11.615" transform="translate(50.902 34.896)" fill="none"/>
            <path id="Path-100" data-name="Path" d="M4.58,1.2A1.205,1.205,0,0,0,2.29.681,1.205,1.205,0,0,0,0,1.2C0,1.962.852,2.681,1.438,3.1a5.123,5.123,0,0,1,.9.713A3.3,3.3,0,0,1,3.293,3,2.366,2.366,0,0,0,4.58,1.2Z" transform="translate(51.647 42.234)" fill="#fb7d00"/>
            <path id="Path-101" data-name="Path" d="M4.58,1.2A1.205,1.205,0,0,0,2.29.681,1.205,1.205,0,0,0,0,1.2c0,.757.852,1.476,1.438,1.861a5.123,5.123,0,0,1,.9.713,3.3,3.3,0,0,1,.953-.808A2.366,2.366,0,0,0,4.58,1.2Z" transform="translate(58 35.88)" fill="#fb7d00"/>
            <rect id="Rectangle-28" data-name="Rectangle" width="12.637" height="11.615" transform="translate(50.902 34.896)" fill="none"/>
            <rect id="Rectangle-29" data-name="Rectangle" width="12.637" height="11.621" transform="translate(50.902 46.511)" fill="none"/>
            <path id="Path-102" data-name="Path" d="M4.58,1.2A1.205,1.205,0,0,0,2.29.681,1.205,1.205,0,0,0,0,1.2C0,1.968.852,2.688,1.438,3.1a5.123,5.123,0,0,1,.9.713A3.3,3.3,0,0,1,3.293,3,2.379,2.379,0,0,0,4.58,1.2Z" transform="translate(51.647 53.849)" fill="#fb7d00"/>
            <path id="Path-103" data-name="Path" d="M4.58,1.2A1.205,1.205,0,0,0,2.29.681,1.205,1.205,0,0,0,0,1.2C0,1.968.852,2.688,1.438,3.1a5.123,5.123,0,0,1,.9.713A3.3,3.3,0,0,1,3.293,3,2.379,2.379,0,0,0,4.58,1.2Z" transform="translate(58 47.495)" fill="#fb7d00"/>
            <rect id="Rectangle-30" data-name="Rectangle" width="12.637" height="11.621" transform="translate(50.902 46.511)" fill="none"/>
            <rect id="Rectangle-31" data-name="Rectangle" width="12.637" height="11.615" transform="translate(50.902 58.132)" fill="none"/>
            <path id="Path-104" data-name="Path" d="M4.58,1.2A1.205,1.205,0,0,0,2.29.681,1.205,1.205,0,0,0,0,1.2c0,.757.852,1.476,1.438,1.861a5.123,5.123,0,0,1,.9.713,3.3,3.3,0,0,1,.953-.808A2.366,2.366,0,0,0,4.58,1.2Z" transform="translate(51.647 65.47)" fill="#fb7d00"/>
            <path id="Path-105" data-name="Path" d="M4.58,1.2A1.205,1.205,0,0,0,2.29.681,1.205,1.205,0,0,0,0,1.2c0,.757.852,1.476,1.438,1.861a5.123,5.123,0,0,1,.9.713,3.3,3.3,0,0,1,.953-.808A2.366,2.366,0,0,0,4.58,1.2Z" transform="translate(58 59.117)" fill="#fb7d00"/>
            <rect id="Rectangle-32" data-name="Rectangle" width="12.637" height="11.615" transform="translate(50.902 58.132)" fill="none"/>
            <rect id="Rectangle-33" data-name="Rectangle" width="12.637" height="11.615" transform="translate(50.902 69.748)" fill="none"/>
            <path id="Path-106" data-name="Path" d="M4.58,1.2A1.205,1.205,0,0,0,2.29.681,1.205,1.205,0,0,0,0,1.2C0,1.968.852,2.688,1.438,3.1a5.123,5.123,0,0,1,.9.713A3.3,3.3,0,0,1,3.293,3,2.379,2.379,0,0,0,4.58,1.2Z" transform="translate(51.647 77.085)" fill="#fb7d00"/>
            <path id="Path-107" data-name="Path" d="M4.58,1.2A1.205,1.205,0,0,0,2.29.681,1.205,1.205,0,0,0,0,1.2C0,1.968.852,2.688,1.438,3.1a5.123,5.123,0,0,1,.9.713A3.3,3.3,0,0,1,3.293,3,2.379,2.379,0,0,0,4.58,1.2Z" transform="translate(58 70.719)" fill="#fb7d00"/>
            <rect id="Rectangle-34" data-name="Rectangle" width="12.637" height="11.615" transform="translate(50.902 69.748)" fill="none"/>
            <rect id="Rectangle-35" data-name="Rectangle" width="12.637" height="11.621" transform="translate(50.902 81.369)" fill="none"/>
            <path id="Path-108" data-name="Path" d="M4.58,1.2A1.205,1.205,0,0,0,2.29.681,1.205,1.205,0,0,0,0,1.2c0,.757.852,1.476,1.438,1.861a5.123,5.123,0,0,1,.9.713,3.3,3.3,0,0,1,.953-.808A2.366,2.366,0,0,0,4.58,1.2Z" transform="translate(51.647 88.707)" fill="#fb7d00"/>
            <path id="Path-109" data-name="Path" d="M4.58,1.2A1.205,1.205,0,0,0,2.29.681,1.205,1.205,0,0,0,0,1.2c0,.757.852,1.476,1.438,1.861a5.123,5.123,0,0,1,.9.713,3.3,3.3,0,0,1,.953-.808A2.366,2.366,0,0,0,4.58,1.2Z" transform="translate(58 82.354)" fill="#fb7d00"/>
            <rect id="Rectangle-36" data-name="Rectangle" width="12.637" height="11.621" transform="translate(50.902 81.369)" fill="none"/>
            <rect id="Rectangle-37" data-name="Rectangle" width="12.637" height="11.615" transform="translate(38.265 0.038)" fill="none"/>
            <path id="Path-110" data-name="Path" d="M4.58,1.2A1.205,1.205,0,0,0,2.29.681,1.205,1.205,0,0,0,0,1.2C0,1.968.852,2.688,1.438,3.1a5.123,5.123,0,0,1,.9.713A3.3,3.3,0,0,1,3.293,3,2.379,2.379,0,0,0,4.58,1.2Z" transform="translate(39.009 7.376)" fill="#fb7d00"/>
            <path id="Path-111" data-name="Path" d="M4.58,1.2A1.205,1.205,0,0,0,2.29.681,1.205,1.205,0,0,0,0,1.2C0,1.968.852,2.688,1.438,3.1a5.123,5.123,0,0,1,.9.713A3.3,3.3,0,0,1,3.293,3,2.379,2.379,0,0,0,4.58,1.2Z" transform="translate(45.363 1.022)" fill="#fb7d00"/>
            <rect id="Rectangle-38" data-name="Rectangle" width="12.637" height="11.615" transform="translate(38.265 0.038)" fill="none"/>
            <rect id="Rectangle-39" data-name="Rectangle" width="12.637" height="11.615" transform="translate(38.265 11.659)" fill="none"/>
            <path id="Path-112" data-name="Path" d="M4.58,1.2A1.205,1.205,0,0,0,2.29.681,1.205,1.205,0,0,0,0,1.2c0,.757.852,1.476,1.438,1.861a5.123,5.123,0,0,1,.9.713,3.3,3.3,0,0,1,.953-.808A2.366,2.366,0,0,0,4.58,1.2Z" transform="translate(39.009 18.984)" fill="#fb7d00"/>
            <path id="Path-113" data-name="Path" d="M4.58,1.2A1.205,1.205,0,0,0,2.29.681,1.205,1.205,0,0,0,0,1.2C0,1.962.852,2.681,1.438,3.1a5.123,5.123,0,0,1,.9.713A3.3,3.3,0,0,1,3.293,3,2.366,2.366,0,0,0,4.58,1.2Z" transform="translate(45.363 12.675)" fill="#fb7d00"/>
            <rect id="Rectangle-40" data-name="Rectangle" width="12.637" height="11.615" transform="translate(38.265 11.659)" fill="none"/>
            <rect id="Rectangle-41" data-name="Rectangle" width="12.637" height="11.615" transform="translate(38.265 23.274)" fill="none"/>
            <path id="Path-114" data-name="Path" d="M4.58,1.2A1.205,1.205,0,0,0,2.29.681,1.205,1.205,0,0,0,0,1.2C0,1.968.852,2.688,1.438,3.1a5.123,5.123,0,0,1,.9.713A3.3,3.3,0,0,1,3.293,3,2.379,2.379,0,0,0,4.58,1.2Z" transform="translate(39.009 30.612)" fill="#fb7d00"/>
            <path id="Path-115" data-name="Path" d="M4.58,1.2A1.205,1.205,0,0,0,2.29.681,1.205,1.205,0,0,0,0,1.2C0,1.968.852,2.688,1.438,3.1a5.123,5.123,0,0,1,.9.713A3.3,3.3,0,0,1,3.293,3,2.379,2.379,0,0,0,4.58,1.2Z" transform="translate(45.363 24.259)" fill="#fb7d00"/>
            <rect id="Rectangle-42" data-name="Rectangle" width="12.637" height="11.615" transform="translate(38.265 23.274)" fill="none"/>
            <rect id="Rectangle-43" data-name="Rectangle" width="12.637" height="11.615" transform="translate(38.265 34.896)" fill="none"/>
            <path id="Path-116" data-name="Path" d="M4.58,1.2A1.205,1.205,0,0,0,2.29.681,1.205,1.205,0,0,0,0,1.2C0,1.962.852,2.681,1.438,3.1a5.123,5.123,0,0,1,.9.713A3.3,3.3,0,0,1,3.293,3,2.366,2.366,0,0,0,4.58,1.2Z" transform="translate(39.009 42.234)" fill="#fb7d00"/>
            <path id="Path-117" data-name="Path" d="M4.58,1.2A1.205,1.205,0,0,0,2.29.681,1.205,1.205,0,0,0,0,1.2c0,.757.852,1.476,1.438,1.861a5.123,5.123,0,0,1,.9.713,3.3,3.3,0,0,1,.953-.808A2.366,2.366,0,0,0,4.58,1.2Z" transform="translate(45.363 35.88)" fill="#fb7d00"/>
            <rect id="Rectangle-44" data-name="Rectangle" width="12.637" height="11.615" transform="translate(38.265 34.896)" fill="none"/>
            <rect id="Rectangle-45" data-name="Rectangle" width="12.637" height="11.621" transform="translate(38.265 46.511)" fill="none"/>
            <path id="Path-118" data-name="Path" d="M4.58,1.2A1.205,1.205,0,0,0,2.29.681,1.205,1.205,0,0,0,0,1.2C0,1.968.852,2.688,1.438,3.1a5.123,5.123,0,0,1,.9.713A3.3,3.3,0,0,1,3.293,3,2.379,2.379,0,0,0,4.58,1.2Z" transform="translate(39.009 53.849)" fill="#fb7d00"/>
            <path id="Path-119" data-name="Path" d="M4.58,1.2A1.205,1.205,0,0,0,2.29.681,1.205,1.205,0,0,0,0,1.2C0,1.968.852,2.688,1.438,3.1a5.123,5.123,0,0,1,.9.713A3.3,3.3,0,0,1,3.293,3,2.379,2.379,0,0,0,4.58,1.2Z" transform="translate(45.363 47.495)" fill="#fb7d00"/>
            <rect id="Rectangle-46" data-name="Rectangle" width="12.637" height="11.621" transform="translate(38.265 46.511)" fill="none"/>
            <rect id="Rectangle-47" data-name="Rectangle" width="12.637" height="11.615" transform="translate(38.265 58.132)" fill="none"/>
            <path id="Path-120" data-name="Path" d="M4.58,1.2A1.205,1.205,0,0,0,2.29.681,1.205,1.205,0,0,0,0,1.2c0,.757.852,1.476,1.438,1.861a5.123,5.123,0,0,1,.9.713,3.3,3.3,0,0,1,.953-.808A2.366,2.366,0,0,0,4.58,1.2Z" transform="translate(39.009 65.47)" fill="#fb7d00"/>
            <path id="Path-121" data-name="Path" d="M4.58,1.2A1.205,1.205,0,0,0,2.29.681,1.205,1.205,0,0,0,0,1.2c0,.757.852,1.476,1.438,1.861a5.123,5.123,0,0,1,.9.713,3.3,3.3,0,0,1,.953-.808A2.366,2.366,0,0,0,4.58,1.2Z" transform="translate(45.363 59.117)" fill="#fb7d00"/>
            <rect id="Rectangle-48" data-name="Rectangle" width="12.637" height="11.615" transform="translate(38.265 58.132)" fill="none"/>
            <rect id="Rectangle-49" data-name="Rectangle" width="12.637" height="11.615" transform="translate(38.265 69.748)" fill="none"/>
            <path id="Path-122" data-name="Path" d="M4.58,1.2A1.205,1.205,0,0,0,2.29.681,1.205,1.205,0,0,0,0,1.2C0,1.968.852,2.688,1.438,3.1a5.123,5.123,0,0,1,.9.713A3.3,3.3,0,0,1,3.293,3,2.379,2.379,0,0,0,4.58,1.2Z" transform="translate(39.009 77.085)" fill="#fb7d00"/>
            <path id="Path-123" data-name="Path" d="M4.58,1.2A1.205,1.205,0,0,0,2.29.681,1.205,1.205,0,0,0,0,1.2C0,1.968.852,2.688,1.438,3.1a5.123,5.123,0,0,1,.9.713A3.3,3.3,0,0,1,3.293,3,2.379,2.379,0,0,0,4.58,1.2Z" transform="translate(45.363 70.719)" fill="#fb7d00"/>
            <rect id="Rectangle-50" data-name="Rectangle" width="12.637" height="11.615" transform="translate(38.265 69.748)" fill="none"/>
            <rect id="Rectangle-51" data-name="Rectangle" width="12.637" height="11.621" transform="translate(38.265 81.369)" fill="none"/>
            <path id="Path-124" data-name="Path" d="M4.58,1.2A1.205,1.205,0,0,0,2.29.681,1.205,1.205,0,0,0,0,1.2c0,.757.852,1.476,1.438,1.861a5.123,5.123,0,0,1,.9.713,3.3,3.3,0,0,1,.953-.808A2.366,2.366,0,0,0,4.58,1.2Z" transform="translate(39.009 88.707)" fill="#fb7d00"/>
            <path id="Path-125" data-name="Path" d="M4.58,1.2A1.205,1.205,0,0,0,2.29.681,1.205,1.205,0,0,0,0,1.2c0,.757.852,1.476,1.438,1.861a5.123,5.123,0,0,1,.9.713,3.3,3.3,0,0,1,.953-.808A2.366,2.366,0,0,0,4.58,1.2Z" transform="translate(45.363 82.354)" fill="#fb7d00"/>
            <rect id="Rectangle-52" data-name="Rectangle" width="12.637" height="11.621" transform="translate(38.265 81.369)" fill="none"/>
            <rect id="Rectangle-53" data-name="Rectangle" width="12.637" height="11.615" transform="translate(25.628 0.038)" fill="none"/>
            <path id="Path-126" data-name="Path" d="M4.58,1.2A1.205,1.205,0,0,0,2.29.681,1.205,1.205,0,0,0,0,1.2C0,1.968.852,2.688,1.438,3.1a5.123,5.123,0,0,1,.9.713A3.3,3.3,0,0,1,3.293,3,2.379,2.379,0,0,0,4.58,1.2Z" transform="translate(26.372 7.376)" fill="#fb7d00"/>
            <path id="Path-127" data-name="Path" d="M4.58,1.2A1.205,1.205,0,0,0,2.29.681,1.205,1.205,0,0,0,0,1.2C0,1.968.852,2.688,1.438,3.1a5.123,5.123,0,0,1,.9.713A3.3,3.3,0,0,1,3.293,3,2.379,2.379,0,0,0,4.58,1.2Z" transform="translate(32.726 1.022)" fill="#fb7d00"/>
            <rect id="Rectangle-54" data-name="Rectangle" width="12.637" height="11.615" transform="translate(25.628 0.038)" fill="none"/>
            <rect id="Rectangle-55" data-name="Rectangle" width="12.637" height="11.615" transform="translate(25.628 11.659)" fill="none"/>
            <path id="Path-128" data-name="Path" d="M4.58,1.2A1.205,1.205,0,0,0,2.29.681,1.205,1.205,0,0,0,0,1.2c0,.757.852,1.476,1.438,1.861a5.123,5.123,0,0,1,.9.713,3.3,3.3,0,0,1,.953-.808A2.366,2.366,0,0,0,4.58,1.2Z" transform="translate(26.372 18.984)" fill="#fb7d00"/>
            <path id="Path-129" data-name="Path" d="M4.58,1.2A1.205,1.205,0,0,0,2.29.681,1.205,1.205,0,0,0,0,1.2C0,1.962.852,2.681,1.438,3.1a5.123,5.123,0,0,1,.9.713A3.3,3.3,0,0,1,3.293,3,2.366,2.366,0,0,0,4.58,1.2Z" transform="translate(32.726 12.675)" fill="#fb7d00"/>
            <rect id="Rectangle-56" data-name="Rectangle" width="12.637" height="11.615" transform="translate(25.628 11.659)" fill="none"/>
            <rect id="Rectangle-57" data-name="Rectangle" width="12.637" height="11.615" transform="translate(25.628 23.274)" fill="none"/>
            <path id="Path-130" data-name="Path" d="M4.58,1.2A1.205,1.205,0,0,0,2.29.681,1.205,1.205,0,0,0,0,1.2C0,1.968.852,2.688,1.438,3.1a5.123,5.123,0,0,1,.9.713A3.3,3.3,0,0,1,3.293,3,2.379,2.379,0,0,0,4.58,1.2Z" transform="translate(26.372 30.612)" fill="#fb7d00"/>
            <path id="Path-131" data-name="Path" d="M4.58,1.2A1.205,1.205,0,0,0,2.29.681,1.205,1.205,0,0,0,0,1.2C0,1.968.852,2.688,1.438,3.1a5.123,5.123,0,0,1,.9.713A3.3,3.3,0,0,1,3.293,3,2.379,2.379,0,0,0,4.58,1.2Z" transform="translate(32.726 24.259)" fill="#fb7d00"/>
            <rect id="Rectangle-58" data-name="Rectangle" width="12.637" height="11.615" transform="translate(25.628 23.274)" fill="none"/>
            <rect id="Rectangle-59" data-name="Rectangle" width="12.637" height="11.615" transform="translate(25.628 34.896)" fill="none"/>
            <path id="Path-132" data-name="Path" d="M4.58,1.2A1.205,1.205,0,0,0,2.29.681,1.205,1.205,0,0,0,0,1.2C0,1.962.852,2.681,1.438,3.1a5.123,5.123,0,0,1,.9.713A3.3,3.3,0,0,1,3.293,3,2.366,2.366,0,0,0,4.58,1.2Z" transform="translate(26.372 42.234)" fill="#fb7d00"/>
            <path id="Path-133" data-name="Path" d="M4.58,1.2A1.205,1.205,0,0,0,2.29.681,1.205,1.205,0,0,0,0,1.2c0,.757.852,1.476,1.438,1.861a5.123,5.123,0,0,1,.9.713,3.3,3.3,0,0,1,.953-.808A2.366,2.366,0,0,0,4.58,1.2Z" transform="translate(32.726 35.88)" fill="#fb7d00"/>
            <rect id="Rectangle-60" data-name="Rectangle" width="12.637" height="11.615" transform="translate(25.628 34.896)" fill="none"/>
            <rect id="Rectangle-61" data-name="Rectangle" width="12.637" height="11.621" transform="translate(25.628 46.511)" fill="none"/>
            <path id="Path-134" data-name="Path" d="M4.58,1.2A1.205,1.205,0,0,0,2.29.681,1.205,1.205,0,0,0,0,1.2C0,1.968.852,2.688,1.438,3.1a5.123,5.123,0,0,1,.9.713A3.3,3.3,0,0,1,3.293,3,2.379,2.379,0,0,0,4.58,1.2Z" transform="translate(26.372 53.849)" fill="#fb7d00"/>
            <path id="Path-135" data-name="Path" d="M4.58,1.2A1.205,1.205,0,0,0,2.29.681,1.205,1.205,0,0,0,0,1.2C0,1.968.852,2.688,1.438,3.1a5.123,5.123,0,0,1,.9.713A3.3,3.3,0,0,1,3.293,3,2.379,2.379,0,0,0,4.58,1.2Z" transform="translate(32.726 47.495)" fill="#fb7d00"/>
            <rect id="Rectangle-62" data-name="Rectangle" width="12.637" height="11.621" transform="translate(25.628 46.511)" fill="none"/>
            <rect id="Rectangle-63" data-name="Rectangle" width="12.637" height="11.615" transform="translate(25.628 58.132)" fill="none"/>
            <path id="Path-136" data-name="Path" d="M4.58,1.2A1.205,1.205,0,0,0,2.29.681,1.205,1.205,0,0,0,0,1.2c0,.757.852,1.476,1.438,1.861a5.123,5.123,0,0,1,.9.713,3.3,3.3,0,0,1,.953-.808A2.366,2.366,0,0,0,4.58,1.2Z" transform="translate(26.372 65.47)" fill="#fb7d00"/>
            <path id="Path-137" data-name="Path" d="M4.58,1.2A1.205,1.205,0,0,0,2.29.681,1.205,1.205,0,0,0,0,1.2c0,.757.852,1.476,1.438,1.861a5.123,5.123,0,0,1,.9.713,3.3,3.3,0,0,1,.953-.808A2.366,2.366,0,0,0,4.58,1.2Z" transform="translate(32.726 59.117)" fill="#fb7d00"/>
            <rect id="Rectangle-64" data-name="Rectangle" width="12.637" height="11.615" transform="translate(25.628 58.132)" fill="none"/>
            <rect id="Rectangle-65" data-name="Rectangle" width="12.637" height="11.615" transform="translate(25.628 69.748)" fill="none"/>
            <path id="Path-138" data-name="Path" d="M4.58,1.2A1.205,1.205,0,0,0,2.29.681,1.205,1.205,0,0,0,0,1.2C0,1.968.852,2.688,1.438,3.1a5.123,5.123,0,0,1,.9.713,3.3,3.3,0,0,1,.94-.833A2.379,2.379,0,0,0,4.58,1.2Z" transform="translate(26.372 77.085)" fill="#fb7d00"/>
            <path id="Path-139" data-name="Path" d="M4.58,1.2A1.205,1.205,0,0,0,2.29.681,1.205,1.205,0,0,0,0,1.2C0,1.968.852,2.688,1.438,3.1a5.123,5.123,0,0,1,.9.713A3.3,3.3,0,0,1,3.293,3,2.379,2.379,0,0,0,4.58,1.2Z" transform="translate(32.726 70.719)" fill="#fb7d00"/>
            <rect id="Rectangle-66" data-name="Rectangle" width="12.637" height="11.615" transform="translate(25.628 69.748)" fill="none"/>
            <rect id="Rectangle-67" data-name="Rectangle" width="12.637" height="11.621" transform="translate(25.628 81.369)" fill="none"/>
            <path id="Path-140" data-name="Path" d="M4.58,1.2A1.205,1.205,0,0,0,2.29.681,1.205,1.205,0,0,0,0,1.2c0,.757.852,1.476,1.438,1.861a5.123,5.123,0,0,1,.9.713,3.3,3.3,0,0,1,.953-.808A2.366,2.366,0,0,0,4.58,1.2Z" transform="translate(26.372 88.707)" fill="#fb7d00"/>
            <path id="Path-141" data-name="Path" d="M4.58,1.2A1.205,1.205,0,0,0,2.29.681,1.205,1.205,0,0,0,0,1.2c0,.757.852,1.476,1.438,1.861a5.123,5.123,0,0,1,.9.713,3.3,3.3,0,0,1,.953-.808A2.366,2.366,0,0,0,4.58,1.2Z" transform="translate(32.726 82.354)" fill="#fb7d00"/>
            <rect id="Rectangle-68" data-name="Rectangle" width="12.637" height="11.621" transform="translate(25.628 81.369)" fill="none"/>
            <rect id="Rectangle-69" data-name="Rectangle" width="12.637" height="11.615" transform="translate(12.991 0.038)" fill="none"/>
            <path id="Path-142" data-name="Path" d="M4.58,1.2A1.205,1.205,0,0,0,2.29.681,1.205,1.205,0,0,0,0,1.2C0,1.968.852,2.688,1.438,3.1a5.123,5.123,0,0,1,.9.713A3.3,3.3,0,0,1,3.293,3,2.379,2.379,0,0,0,4.58,1.2Z" transform="translate(13.716 7.376)" fill="#fb7d00"/>
            <path id="Path-143" data-name="Path" d="M4.58,1.2A1.205,1.205,0,0,0,2.29.681,1.205,1.205,0,0,0,0,1.2C0,1.968.852,2.688,1.438,3.1a5.123,5.123,0,0,1,.9.713A3.3,3.3,0,0,1,3.293,3,2.391,2.391,0,0,0,4.58,1.2Z" transform="translate(20.088 1.022)" fill="#fb7d00"/>
            <rect id="Rectangle-70" data-name="Rectangle" width="12.637" height="11.615" transform="translate(12.991 0.038)" fill="none"/>
            <rect id="Rectangle-71" data-name="Rectangle" width="12.637" height="11.615" transform="translate(12.991 11.659)" fill="none"/>
            <path id="Path-144" data-name="Path" d="M4.58,1.2A1.205,1.205,0,0,0,2.29.681,1.205,1.205,0,0,0,0,1.2c0,.757.852,1.476,1.438,1.861a5.123,5.123,0,0,1,.9.713,3.3,3.3,0,0,1,.953-.808A2.366,2.366,0,0,0,4.58,1.2Z" transform="translate(13.716 18.984)" fill="#fb7d00"/>
            <path id="Path-145" data-name="Path" d="M4.58,1.2A1.205,1.205,0,0,0,2.29.681,1.205,1.205,0,0,0,0,1.2C0,1.962.852,2.681,1.438,3.1a5.123,5.123,0,0,1,.9.713A3.3,3.3,0,0,1,3.293,3,2.379,2.379,0,0,0,4.58,1.2Z" transform="translate(20.088 12.675)" fill="#fb7d00"/>
            <rect id="Rectangle-72" data-name="Rectangle" width="12.637" height="11.615" transform="translate(12.991 11.659)" fill="none"/>
            <rect id="Rectangle-73" data-name="Rectangle" width="12.637" height="11.615" transform="translate(12.991 23.274)" fill="none"/>
            <path id="Path-146" data-name="Path" d="M4.58,1.2A1.205,1.205,0,0,0,2.29.681,1.205,1.205,0,0,0,0,1.2C0,1.968.852,2.688,1.438,3.1a5.123,5.123,0,0,1,.9.713A3.3,3.3,0,0,1,3.293,3,2.379,2.379,0,0,0,4.58,1.2Z" transform="translate(13.716 30.612)" fill="#fb7d00"/>
            <path id="Path-147" data-name="Path" d="M4.58,1.2A1.205,1.205,0,0,0,2.29.681,1.205,1.205,0,0,0,0,1.2C0,1.968.852,2.688,1.438,3.1a5.123,5.123,0,0,1,.9.713A3.3,3.3,0,0,1,3.293,3,2.391,2.391,0,0,0,4.58,1.2Z" transform="translate(20.088 24.259)" fill="#fb7d00"/>
            <rect id="Rectangle-74" data-name="Rectangle" width="12.637" height="11.615" transform="translate(12.991 23.274)" fill="none"/>
            <rect id="Rectangle-75" data-name="Rectangle" width="12.637" height="11.615" transform="translate(12.991 34.896)" fill="none"/>
            <path id="Path-148" data-name="Path" d="M4.58,1.2A1.205,1.205,0,0,0,2.29.681,1.205,1.205,0,0,0,0,1.2C0,1.962.852,2.681,1.438,3.1a5.123,5.123,0,0,1,.9.713A3.3,3.3,0,0,1,3.293,3,2.366,2.366,0,0,0,4.58,1.2Z" transform="translate(13.716 42.234)" fill="#fb7d00"/>
            <path id="Path-149" data-name="Path" d="M4.58,1.2A1.205,1.205,0,0,0,2.29.681,1.205,1.205,0,0,0,0,1.2c0,.757.852,1.476,1.438,1.861a5.123,5.123,0,0,1,.9.713,3.3,3.3,0,0,1,.953-.808A2.379,2.379,0,0,0,4.58,1.2Z" transform="translate(20.088 35.88)" fill="#fb7d00"/>
            <rect id="Rectangle-76" data-name="Rectangle" width="12.637" height="11.615" transform="translate(12.991 34.896)" fill="none"/>
            <rect id="Rectangle-77" data-name="Rectangle" width="12.637" height="11.621" transform="translate(12.991 46.511)" fill="none"/>
            <path id="Path-150" data-name="Path" d="M4.58,1.2A1.205,1.205,0,0,0,2.29.681,1.205,1.205,0,0,0,0,1.2C0,1.968.852,2.688,1.438,3.1a5.123,5.123,0,0,1,.9.713A3.3,3.3,0,0,1,3.293,3,2.379,2.379,0,0,0,4.58,1.2Z" transform="translate(13.716 53.849)" fill="#fb7d00"/>
            <path id="Path-151" data-name="Path" d="M4.58,1.2A1.205,1.205,0,0,0,2.29.681,1.205,1.205,0,0,0,0,1.2C0,1.968.852,2.688,1.438,3.1a5.123,5.123,0,0,1,.9.713A3.3,3.3,0,0,1,3.293,3,2.391,2.391,0,0,0,4.58,1.2Z" transform="translate(20.088 47.495)" fill="#fb7d00"/>
            <rect id="Rectangle-78" data-name="Rectangle" width="12.637" height="11.621" transform="translate(12.991 46.511)" fill="none"/>
            <rect id="Rectangle-79" data-name="Rectangle" width="12.637" height="11.615" transform="translate(12.991 58.132)" fill="none"/>
            <path id="Path-152" data-name="Path" d="M4.58,1.2A1.205,1.205,0,0,0,2.29.681,1.205,1.205,0,0,0,0,1.2c0,.757.852,1.476,1.438,1.861a5.123,5.123,0,0,1,.9.713,3.3,3.3,0,0,1,.953-.808A2.366,2.366,0,0,0,4.58,1.2Z" transform="translate(13.716 65.47)" fill="#fb7d00"/>
            <path id="Path-153" data-name="Path" d="M4.58,1.2A1.205,1.205,0,0,0,2.29.681,1.205,1.205,0,0,0,0,1.2c0,.757.852,1.476,1.438,1.861a5.123,5.123,0,0,1,.9.713,3.3,3.3,0,0,1,.953-.808A2.379,2.379,0,0,0,4.58,1.2Z" transform="translate(20.088 59.117)" fill="#fb7d00"/>
            <rect id="Rectangle-80" data-name="Rectangle" width="12.637" height="11.615" transform="translate(12.991 58.132)" fill="none"/>
            <rect id="Rectangle-81" data-name="Rectangle" width="12.637" height="11.615" transform="translate(12.991 69.748)" fill="none"/>
            <path id="Path-154" data-name="Path" d="M4.58,1.2A1.205,1.205,0,0,0,2.29.681,1.205,1.205,0,0,0,0,1.2C0,1.968.852,2.688,1.438,3.1a5.123,5.123,0,0,1,.9.713,3.3,3.3,0,0,1,.978-.833A2.379,2.379,0,0,0,4.58,1.2Z" transform="translate(13.716 77.085)" fill="#fb7d00"/>
            <path id="Path-155" data-name="Path" d="M4.58,1.2A1.205,1.205,0,0,0,2.29.681,1.205,1.205,0,0,0,0,1.2C0,1.968.852,2.688,1.438,3.1a5.123,5.123,0,0,1,.9.713A3.3,3.3,0,0,1,3.293,3,2.391,2.391,0,0,0,4.58,1.2Z" transform="translate(20.088 70.719)" fill="#fb7d00"/>
            <rect id="Rectangle-82" data-name="Rectangle" width="12.637" height="11.615" transform="translate(12.991 69.748)" fill="none"/>
            <rect id="Rectangle-83" data-name="Rectangle" width="12.637" height="11.621" transform="translate(12.991 81.369)" fill="none"/>
            <path id="Path-156" data-name="Path" d="M4.58,1.2A1.205,1.205,0,0,0,2.29.681,1.205,1.205,0,0,0,0,1.2c0,.757.852,1.476,1.438,1.861a5.123,5.123,0,0,1,.9.713,3.3,3.3,0,0,1,.953-.808A2.366,2.366,0,0,0,4.58,1.2Z" transform="translate(13.716 88.707)" fill="#fb7d00"/>
            <path id="Path-157" data-name="Path" d="M4.58,1.2A1.205,1.205,0,0,0,2.29.681,1.205,1.205,0,0,0,0,1.2c0,.757.852,1.476,1.438,1.861a5.123,5.123,0,0,1,.9.713,3.3,3.3,0,0,1,.953-.808A2.379,2.379,0,0,0,4.58,1.2Z" transform="translate(20.088 82.354)" fill="#fb7d00"/>
            <rect id="Rectangle-84" data-name="Rectangle" width="12.637" height="11.621" transform="translate(12.991 81.369)" fill="none"/>
            <rect id="Rectangle-85" data-name="Rectangle" width="12.637" height="11.615" transform="translate(0.353 0.038)" fill="none"/>
            <path id="Path-158" data-name="Path" d="M4.58,1.2A1.205,1.205,0,0,0,2.29.681,1.205,1.205,0,0,0,0,1.2C0,1.968.852,2.688,1.438,3.1a5.123,5.123,0,0,1,.9.713A3.3,3.3,0,0,1,3.293,3,2.391,2.391,0,0,0,4.58,1.2Z" transform="translate(1.098 7.376)" fill="#fb7d00"/>
            <path id="Path-159" data-name="Path" d="M4.58,1.2A1.205,1.205,0,0,0,2.29.681,1.205,1.205,0,0,0,0,1.2C0,1.968.852,2.688,1.438,3.1a5.123,5.123,0,0,1,.9.713A3.3,3.3,0,0,1,3.293,3,2.391,2.391,0,0,0,4.58,1.2Z" transform="translate(7.451 1.022)" fill="#fb7d00"/>
            <rect id="Rectangle-86" data-name="Rectangle" width="12.637" height="11.615" transform="translate(0.353 0.038)" fill="none"/>
            <rect id="Rectangle-87" data-name="Rectangle" width="12.637" height="11.615" transform="translate(0.353 11.659)" fill="none"/>
            <path id="Path-160" data-name="Path" d="M4.58,1.2A1.205,1.205,0,0,0,2.29.681,1.205,1.205,0,0,0,0,1.2c0,.757.852,1.476,1.438,1.861a5.123,5.123,0,0,1,.9.713,3.3,3.3,0,0,1,.953-.808A2.379,2.379,0,0,0,4.58,1.2Z" transform="translate(1.098 18.984)" fill="#fb7d00"/>
            <path id="Path-161" data-name="Path" d="M4.58,1.2A1.205,1.205,0,0,0,2.29.681,1.205,1.205,0,0,0,0,1.2C0,1.962.852,2.681,1.438,3.1a5.123,5.123,0,0,1,.9.713A3.3,3.3,0,0,1,3.293,3,2.379,2.379,0,0,0,4.58,1.2Z" transform="translate(7.451 12.675)" fill="#fb7d00"/>
            <rect id="Rectangle-88" data-name="Rectangle" width="12.637" height="11.615" transform="translate(0.353 11.659)" fill="none"/>
            <rect id="Rectangle-89" data-name="Rectangle" width="12.637" height="11.615" transform="translate(0.353 23.274)" fill="none"/>
            <path id="Path-162" data-name="Path" d="M4.58,1.2A1.205,1.205,0,0,0,2.29.681,1.205,1.205,0,0,0,0,1.2C0,1.968.852,2.688,1.438,3.1a5.123,5.123,0,0,1,.9.713A3.3,3.3,0,0,1,3.293,3,2.391,2.391,0,0,0,4.58,1.2Z" transform="translate(1.098 30.612)" fill="#fb7d00"/>
            <path id="Path-163" data-name="Path" d="M4.58,1.2A1.205,1.205,0,0,0,2.29.681,1.205,1.205,0,0,0,0,1.2C0,1.968.852,2.688,1.438,3.1a5.123,5.123,0,0,1,.9.713A3.3,3.3,0,0,1,3.293,3,2.391,2.391,0,0,0,4.58,1.2Z" transform="translate(7.451 24.259)" fill="#fb7d00"/>
            <rect id="Rectangle-90" data-name="Rectangle" width="12.637" height="11.615" transform="translate(0.353 23.274)" fill="none"/>
            <rect id="Rectangle-91" data-name="Rectangle" width="12.637" height="11.615" transform="translate(0.353 34.896)" fill="none"/>
            <path id="Path-164" data-name="Path" d="M4.58,1.2A1.205,1.205,0,0,0,2.29.681,1.205,1.205,0,0,0,0,1.2C0,1.962.852,2.681,1.438,3.1a5.123,5.123,0,0,1,.9.713A3.3,3.3,0,0,1,3.293,3,2.379,2.379,0,0,0,4.58,1.2Z" transform="translate(1.098 42.234)" fill="#fb7d00"/>
            <path id="Path-165" data-name="Path" d="M4.58,1.2A1.205,1.205,0,0,0,2.29.681,1.205,1.205,0,0,0,0,1.2c0,.757.852,1.476,1.438,1.861a5.123,5.123,0,0,1,.9.713,3.3,3.3,0,0,1,.953-.808A2.379,2.379,0,0,0,4.58,1.2Z" transform="translate(7.451 35.88)" fill="#fb7d00"/>
            <rect id="Rectangle-92" data-name="Rectangle" width="12.637" height="11.615" transform="translate(0.353 34.896)" fill="none"/>
            <rect id="Rectangle-93" data-name="Rectangle" width="12.637" height="11.621" transform="translate(0.353 46.511)" fill="none"/>
            <path id="Path-166" data-name="Path" d="M4.58,1.2A1.205,1.205,0,0,0,2.29.681,1.205,1.205,0,0,0,0,1.2C0,1.968.852,2.688,1.438,3.1a5.123,5.123,0,0,1,.9.713A3.3,3.3,0,0,1,3.293,3,2.391,2.391,0,0,0,4.58,1.2Z" transform="translate(1.098 53.849)" fill="#fb7d00"/>
            <path id="Path-167" data-name="Path" d="M4.58,1.2A1.205,1.205,0,0,0,2.29.681,1.205,1.205,0,0,0,0,1.2C0,1.968.852,2.688,1.438,3.1a5.123,5.123,0,0,1,.9.713,3.3,3.3,0,0,1,.934-.833A2.391,2.391,0,0,0,4.58,1.2Z" transform="translate(7.451 47.495)" fill="#fb7d00"/>
            <rect id="Rectangle-94" data-name="Rectangle" width="12.637" height="11.621" transform="translate(0.353 46.511)" fill="none"/>
            <rect id="Rectangle-95" data-name="Rectangle" width="12.637" height="11.615" transform="translate(0.353 58.132)" fill="none"/>
            <path id="Path-168" data-name="Path" d="M4.58,1.2A1.205,1.205,0,0,0,2.29.681,1.205,1.205,0,0,0,0,1.2c0,.757.852,1.476,1.438,1.861a5.123,5.123,0,0,1,.9.713,3.3,3.3,0,0,1,.953-.808A2.379,2.379,0,0,0,4.58,1.2Z" transform="translate(1.098 65.47)" fill="#fb7d00"/>
            <path id="Path-169" data-name="Path" d="M4.58,1.2A1.205,1.205,0,0,0,2.29.681,1.205,1.205,0,0,0,0,1.2c0,.757.852,1.476,1.438,1.861a5.123,5.123,0,0,1,.9.713,3.3,3.3,0,0,1,.953-.808A2.379,2.379,0,0,0,4.58,1.2Z" transform="translate(7.451 59.117)" fill="#fb7d00"/>
            <rect id="Rectangle-96" data-name="Rectangle" width="12.637" height="11.615" transform="translate(0.353 58.132)" fill="none"/>
            <rect id="Rectangle-97" data-name="Rectangle" width="12.637" height="11.615" transform="translate(0.353 69.748)" fill="none"/>
            <path id="Path-170" data-name="Path" d="M4.58,1.2A1.205,1.205,0,0,0,2.29.681,1.205,1.205,0,0,0,0,1.2C0,1.968.852,2.688,1.438,3.1a5.123,5.123,0,0,1,.9.713,3.3,3.3,0,0,1,.978-.833A2.391,2.391,0,0,0,4.58,1.2Z" transform="translate(1.098 77.085)" fill="#fb7d00"/>
            <path id="Path-171" data-name="Path" d="M4.58,1.2A1.205,1.205,0,0,0,2.29.681,1.205,1.205,0,0,0,0,1.2C0,1.968.852,2.688,1.438,3.1a5.123,5.123,0,0,1,.9.713A3.3,3.3,0,0,1,3.293,3,2.391,2.391,0,0,0,4.58,1.2Z" transform="translate(7.451 70.719)" fill="#fb7d00"/>
            <rect id="Rectangle-98" data-name="Rectangle" width="12.637" height="11.615" transform="translate(0.353 69.748)" fill="none"/>
            <rect id="Rectangle-99" data-name="Rectangle" width="12.637" height="11.621" transform="translate(0.353 81.369)" fill="none"/>
            <path id="Path-172" data-name="Path" d="M4.58,1.2A1.205,1.205,0,0,0,2.29.681,1.205,1.205,0,0,0,0,1.2c0,.757.852,1.476,1.438,1.861a5.123,5.123,0,0,1,.9.713,3.3,3.3,0,0,1,.953-.808A2.379,2.379,0,0,0,4.58,1.2Z" transform="translate(1.098 88.707)" fill="#fb7d00"/>
            <path id="Path-173" data-name="Path" d="M4.58,1.2A1.205,1.205,0,0,0,2.29.681,1.205,1.205,0,0,0,0,1.2c0,.757.852,1.476,1.438,1.861a5.123,5.123,0,0,1,.9.713,3.3,3.3,0,0,1,.953-.808A2.379,2.379,0,0,0,4.58,1.2Z" transform="translate(7.451 82.354)" fill="#fb7d00"/>
            <rect id="Rectangle-100" data-name="Rectangle" width="12.637" height="11.621" transform="translate(0.353 81.369)" fill="none"/>
          </g>
        </g>
      </g>
      <rect id="Rectangle-101" data-name="Rectangle" width="60.568" height="74.448" transform="translate(33.213 23.98) rotate(-3.92)" fill="none" stroke="#263238" stroke-linecap="round" stroke-linejoin="round" stroke-miterlimit="10" stroke-width="0.522"/>
      <rect id="Rectangle-102" data-name="Rectangle" width="60.568" height="10.864" transform="translate(33.223 23.971) rotate(-3.92)" fill="#263238" stroke="#263238" stroke-linecap="round" stroke-linejoin="round" stroke-miterlimit="10" stroke-width="0.522"/>
      <g id="Group_2" data-name="Group 2" transform="translate(27.76 3.155)">
        <rect id="Rectangle-103" data-name="Rectangle" width="66.454" height="13.88" transform="translate(2.144 15.566) rotate(-3.92)" fill="#fff"/>
        <g id="Group_2-2" data-name="Group 2" clip-path="url(#clip-path-2)">
          <g id="Group-3" data-name="Group">
            <rect id="Rectangle-104" data-name="Rectangle" width="12.637" height="11.615" transform="translate(63.539 0.41)" fill="none"/>
            <path id="Path-174" data-name="Path" d="M4.58,1.2A1.205,1.205,0,0,0,2.29.681,1.205,1.205,0,0,0,0,1.2c0,.757.852,1.476,1.438,1.861a5.123,5.123,0,0,1,.9.713,3.3,3.3,0,0,1,.953-.808A2.379,2.379,0,0,0,4.58,1.2Z" transform="translate(64.284 7.748)" fill="#fb7d00"/>
            <path id="Path-175" data-name="Path" d="M4.58,1.2A1.205,1.205,0,0,0,2.29.681,1.205,1.205,0,0,0,0,1.2c0,.757.852,1.476,1.438,1.861a5.123,5.123,0,0,1,.9.713,3.3,3.3,0,0,1,.953-.808A2.366,2.366,0,0,0,4.58,1.2Z" transform="translate(70.637 1.395)" fill="#fb7d00"/>
            <rect id="Rectangle-105" data-name="Rectangle" width="12.637" height="11.615" transform="translate(63.539 0.41)" fill="none"/>
            <rect id="Rectangle-106" data-name="Rectangle" width="12.637" height="11.615" transform="translate(63.539 12.025)" fill="none"/>
            <path id="Path-176" data-name="Path" d="M4.58,1.2A1.205,1.205,0,0,0,2.29.681,1.205,1.205,0,0,0,0,1.2C0,1.968.852,2.688,1.438,3.1a5.123,5.123,0,0,1,.9.713A3.3,3.3,0,0,1,3.293,3,2.379,2.379,0,0,0,4.58,1.2Z" transform="translate(64.284 19.363)" fill="#fb7d00"/>
            <path id="Path-177" data-name="Path" d="M4.58,1.2A1.205,1.205,0,0,0,2.29.681,1.205,1.205,0,0,0,0,1.2C0,1.968.852,2.688,1.438,3.1a5.123,5.123,0,0,1,.9.713A3.3,3.3,0,0,1,3.293,3,2.379,2.379,0,0,0,4.58,1.2Z" transform="translate(70.637 13.01)" fill="#fb7d00"/>
            <rect id="Rectangle-107" data-name="Rectangle" width="12.637" height="11.615" transform="translate(63.539 12.025)" fill="none"/>
            <rect id="Rectangle-108" data-name="Rectangle" width="12.637" height="11.615" transform="translate(63.539 23.647)" fill="none"/>
            <path id="Path-178" data-name="Path" d="M4.58,1.2A1.205,1.205,0,0,0,2.29.681,1.205,1.205,0,0,0,0,1.2c0,.757.852,1.476,1.438,1.861a5.123,5.123,0,0,1,.9.713,3.3,3.3,0,0,1,.953-.808A2.366,2.366,0,0,0,4.58,1.2Z" transform="translate(64.284 30.972)" fill="#fb7d00"/>
            <path id="Path-179" data-name="Path" d="M4.555,1.2A1.205,1.205,0,0,0,2.265.681,1.205,1.205,0,0,0,0,1.2C0,1.962.852,2.681,1.438,3.1a5.123,5.123,0,0,1,.9.713A3.3,3.3,0,0,1,3.293,3,2.366,2.366,0,0,0,4.555,1.2Z" transform="translate(70.662 24.663)" fill="#fb7d00"/>
            <rect id="Rectangle-109" data-name="Rectangle" width="12.637" height="11.615" transform="translate(63.539 23.647)" fill="none"/>
            <rect id="Rectangle-110" data-name="Rectangle" width="12.637" height="11.615" transform="translate(50.902 0.41)" fill="none"/>
            <path id="Path-180" data-name="Path" d="M4.58,1.2A1.205,1.205,0,0,0,2.29.681,1.205,1.205,0,0,0,0,1.2c0,.757.852,1.476,1.438,1.861a5.123,5.123,0,0,1,.9.713,3.3,3.3,0,0,1,.953-.808A2.379,2.379,0,0,0,4.58,1.2Z" transform="translate(51.647 7.748)" fill="#fb7d00"/>
            <path id="Path-181" data-name="Path" d="M4.58,1.2A1.205,1.205,0,0,0,2.29.681,1.205,1.205,0,0,0,0,1.2c0,.757.852,1.476,1.438,1.861a5.123,5.123,0,0,1,.9.713,3.3,3.3,0,0,1,.953-.808A2.366,2.366,0,0,0,4.58,1.2Z" transform="translate(58 1.395)" fill="#fb7d00"/>
            <rect id="Rectangle-111" data-name="Rectangle" width="12.637" height="11.615" transform="translate(50.902 0.41)" fill="none"/>
            <rect id="Rectangle-112" data-name="Rectangle" width="12.637" height="11.615" transform="translate(50.902 12.025)" fill="none"/>
            <path id="Path-182" data-name="Path" d="M4.58,1.2A1.205,1.205,0,0,0,2.29.681,1.205,1.205,0,0,0,0,1.2C0,1.968.852,2.688,1.438,3.1a5.123,5.123,0,0,1,.9.713A3.3,3.3,0,0,1,3.293,3,2.379,2.379,0,0,0,4.58,1.2Z" transform="translate(51.647 19.363)" fill="#fb7d00"/>
            <path id="Path-183" data-name="Path" d="M4.58,1.2A1.205,1.205,0,0,0,2.29.681,1.205,1.205,0,0,0,0,1.2C0,1.968.852,2.688,1.438,3.1a5.123,5.123,0,0,1,.9.713A3.3,3.3,0,0,1,3.293,3,2.379,2.379,0,0,0,4.58,1.2Z" transform="translate(58 13.01)" fill="#fb7d00"/>
            <rect id="Rectangle-113" data-name="Rectangle" width="12.637" height="11.615" transform="translate(50.902 12.025)" fill="none"/>
            <rect id="Rectangle-114" data-name="Rectangle" width="12.637" height="11.615" transform="translate(50.902 23.647)" fill="none"/>
            <path id="Path-184" data-name="Path" d="M4.58,1.2A1.205,1.205,0,0,0,2.29.681,1.205,1.205,0,0,0,0,1.2c0,.757.852,1.476,1.438,1.861a5.123,5.123,0,0,1,.9.713,3.3,3.3,0,0,1,.953-.808A2.366,2.366,0,0,0,4.58,1.2Z" transform="translate(51.647 30.972)" fill="#fb7d00"/>
            <path id="Path-185" data-name="Path" d="M4.58,1.2A1.205,1.205,0,0,0,2.29.681,1.205,1.205,0,0,0,0,1.2C0,1.962.852,2.681,1.438,3.1a5.123,5.123,0,0,1,.9.713A3.3,3.3,0,0,1,3.293,3,2.366,2.366,0,0,0,4.58,1.2Z" transform="translate(58 24.663)" fill="#fb7d00"/>
            <rect id="Rectangle-115" data-name="Rectangle" width="12.637" height="11.615" transform="translate(50.902 23.647)" fill="none"/>
            <rect id="Rectangle-116" data-name="Rectangle" width="12.637" height="11.615" transform="translate(38.265 0.41)" fill="none"/>
            <path id="Path-186" data-name="Path" d="M4.58,1.2A1.205,1.205,0,0,0,2.29.681,1.205,1.205,0,0,0,0,1.2c0,.757.852,1.476,1.438,1.861a5.123,5.123,0,0,1,.9.713,3.3,3.3,0,0,1,.953-.808A2.379,2.379,0,0,0,4.58,1.2Z" transform="translate(39.009 7.748)" fill="#fb7d00"/>
            <path id="Path-187" data-name="Path" d="M4.58,1.2A1.205,1.205,0,0,0,2.29.681,1.205,1.205,0,0,0,0,1.2c0,.757.852,1.476,1.438,1.861a5.123,5.123,0,0,1,.9.713,3.3,3.3,0,0,1,.953-.808A2.366,2.366,0,0,0,4.58,1.2Z" transform="translate(45.363 1.395)" fill="#fb7d00"/>
            <rect id="Rectangle-117" data-name="Rectangle" width="12.637" height="11.615" transform="translate(38.265 0.41)" fill="none"/>
            <rect id="Rectangle-118" data-name="Rectangle" width="12.637" height="11.615" transform="translate(38.265 12.025)" fill="none"/>
            <path id="Path-188" data-name="Path" d="M4.58,1.2A1.205,1.205,0,0,0,2.29.681,1.205,1.205,0,0,0,0,1.2C0,1.968.852,2.688,1.438,3.1a5.123,5.123,0,0,1,.9.713A3.3,3.3,0,0,1,3.293,3,2.379,2.379,0,0,0,4.58,1.2Z" transform="translate(39.009 19.363)" fill="#fb7d00"/>
            <path id="Path-189" data-name="Path" d="M4.58,1.2A1.205,1.205,0,0,0,2.29.681,1.205,1.205,0,0,0,0,1.2C0,1.968.852,2.688,1.438,3.1a5.123,5.123,0,0,1,.9.713A3.3,3.3,0,0,1,3.293,3,2.379,2.379,0,0,0,4.58,1.2Z" transform="translate(45.363 13.01)" fill="#fb7d00"/>
            <rect id="Rectangle-119" data-name="Rectangle" width="12.637" height="11.615" transform="translate(38.265 12.025)" fill="none"/>
            <rect id="Rectangle-120" data-name="Rectangle" width="12.637" height="11.615" transform="translate(38.265 23.647)" fill="none"/>
            <path id="Path-190" data-name="Path" d="M4.58,1.2A1.205,1.205,0,0,0,2.29.681,1.205,1.205,0,0,0,0,1.2c0,.757.852,1.476,1.438,1.861a5.123,5.123,0,0,1,.9.713,3.3,3.3,0,0,1,.953-.808A2.366,2.366,0,0,0,4.58,1.2Z" transform="translate(39.009 30.972)" fill="#fb7d00"/>
            <path id="Path-191" data-name="Path" d="M4.58,1.2A1.205,1.205,0,0,0,2.29.681,1.205,1.205,0,0,0,0,1.2C0,1.962.852,2.681,1.438,3.1a5.123,5.123,0,0,1,.9.713A3.3,3.3,0,0,1,3.293,3,2.366,2.366,0,0,0,4.58,1.2Z" transform="translate(45.363 24.663)" fill="#fb7d00"/>
            <rect id="Rectangle-121" data-name="Rectangle" width="12.637" height="11.615" transform="translate(38.265 23.647)" fill="none"/>
            <rect id="Rectangle-122" data-name="Rectangle" width="12.637" height="11.615" transform="translate(25.628 0.41)" fill="none"/>
            <path id="Path-192" data-name="Path" d="M4.58,1.2A1.205,1.205,0,0,0,2.29.681,1.205,1.205,0,0,0,0,1.2c0,.757.852,1.476,1.438,1.861a5.123,5.123,0,0,1,.9.713,3.3,3.3,0,0,1,.94-.8A2.379,2.379,0,0,0,4.58,1.2Z" transform="translate(26.372 7.748)" fill="#fb7d00"/>
            <path id="Path-193" data-name="Path" d="M4.58,1.2A1.205,1.205,0,0,0,2.29.681,1.205,1.205,0,0,0,0,1.2c0,.757.852,1.476,1.438,1.861a5.123,5.123,0,0,1,.9.713,3.3,3.3,0,0,1,.953-.808A2.366,2.366,0,0,0,4.58,1.2Z" transform="translate(32.726 1.395)" fill="#fb7d00"/>
            <rect id="Rectangle-123" data-name="Rectangle" width="12.637" height="11.615" transform="translate(25.628 0.41)" fill="none"/>
            <rect id="Rectangle-124" data-name="Rectangle" width="12.637" height="11.615" transform="translate(25.628 12.025)" fill="none"/>
            <path id="Path-194" data-name="Path" d="M4.58,1.2A1.205,1.205,0,0,0,2.29.681,1.205,1.205,0,0,0,0,1.2C0,1.968.852,2.688,1.438,3.1a5.123,5.123,0,0,1,.9.713A3.3,3.3,0,0,1,3.293,3,2.379,2.379,0,0,0,4.58,1.2Z" transform="translate(26.372 19.363)" fill="#fb7d00"/>
            <path id="Path-195" data-name="Path" d="M4.58,1.2A1.205,1.205,0,0,0,2.29.681,1.205,1.205,0,0,0,0,1.2C0,1.968.852,2.688,1.438,3.1a5.123,5.123,0,0,1,.9.713A3.3,3.3,0,0,1,3.293,3,2.379,2.379,0,0,0,4.58,1.2Z" transform="translate(32.726 13.01)" fill="#fb7d00"/>
            <rect id="Rectangle-125" data-name="Rectangle" width="12.637" height="11.615" transform="translate(25.628 12.025)" fill="none"/>
            <rect id="Rectangle-126" data-name="Rectangle" width="12.637" height="11.615" transform="translate(25.628 23.647)" fill="none"/>
            <path id="Path-196" data-name="Path" d="M4.58,1.2A1.205,1.205,0,0,0,2.29.681,1.205,1.205,0,0,0,0,1.2c0,.757.852,1.476,1.438,1.861a5.123,5.123,0,0,1,.9.713,3.3,3.3,0,0,1,.953-.808A2.366,2.366,0,0,0,4.58,1.2Z" transform="translate(26.372 30.972)" fill="#fb7d00"/>
            <path id="Path-197" data-name="Path" d="M4.58,1.2A1.205,1.205,0,0,0,2.29.681,1.205,1.205,0,0,0,0,1.2C0,1.962.852,2.681,1.438,3.1a5.123,5.123,0,0,1,.9.713A3.3,3.3,0,0,1,3.293,3,2.366,2.366,0,0,0,4.58,1.2Z" transform="translate(32.726 24.663)" fill="#fb7d00"/>
            <rect id="Rectangle-127" data-name="Rectangle" width="12.637" height="11.615" transform="translate(25.628 23.647)" fill="none"/>
            <rect id="Rectangle-128" data-name="Rectangle" width="12.637" height="11.615" transform="translate(12.991 0.41)" fill="none"/>
            <path id="Path-198" data-name="Path" d="M4.58,1.2A1.205,1.205,0,0,0,2.29.681,1.205,1.205,0,0,0,0,1.2c0,.757.852,1.476,1.438,1.861a5.123,5.123,0,0,1,.9.713,3.3,3.3,0,0,1,.978-.8A2.379,2.379,0,0,0,4.58,1.2Z" transform="translate(13.716 7.748)" fill="#fb7d00"/>
            <path id="Path-199" data-name="Path" d="M4.58,1.2A1.205,1.205,0,0,0,2.29.681,1.205,1.205,0,0,0,0,1.2c0,.757.852,1.476,1.438,1.861a5.123,5.123,0,0,1,.9.713,3.3,3.3,0,0,1,.953-.808A2.379,2.379,0,0,0,4.58,1.2Z" transform="translate(20.088 1.395)" fill="#fb7d00"/>
            <rect id="Rectangle-129" data-name="Rectangle" width="12.637" height="11.615" transform="translate(12.991 0.41)" fill="none"/>
            <rect id="Rectangle-130" data-name="Rectangle" width="12.637" height="11.615" transform="translate(12.991 12.025)" fill="none"/>
            <path id="Path-200" data-name="Path" d="M4.58,1.2A1.205,1.205,0,0,0,2.29.681,1.205,1.205,0,0,0,0,1.2C0,1.968.852,2.688,1.438,3.1a5.123,5.123,0,0,1,.9.713A3.3,3.3,0,0,1,3.293,3,2.379,2.379,0,0,0,4.58,1.2Z" transform="translate(13.716 19.363)" fill="#fb7d00"/>
            <path id="Path-201" data-name="Path" d="M4.58,1.2A1.205,1.205,0,0,0,2.29.681,1.205,1.205,0,0,0,0,1.2C0,1.968.852,2.688,1.438,3.1a5.123,5.123,0,0,1,.9.713A3.3,3.3,0,0,1,3.293,3,2.391,2.391,0,0,0,4.58,1.2Z" transform="translate(20.088 13.01)" fill="#fb7d00"/>
            <rect id="Rectangle-131" data-name="Rectangle" width="12.637" height="11.615" transform="translate(12.991 12.025)" fill="none"/>
            <rect id="Rectangle-132" data-name="Rectangle" width="12.637" height="11.615" transform="translate(12.991 23.647)" fill="none"/>
            <path id="Path-202" data-name="Path" d="M4.58,1.2A1.205,1.205,0,0,0,2.29.681,1.205,1.205,0,0,0,0,1.2c0,.757.852,1.476,1.438,1.861a5.123,5.123,0,0,1,.9.713,3.3,3.3,0,0,1,.953-.808A2.366,2.366,0,0,0,4.58,1.2Z" transform="translate(13.716 30.972)" fill="#fb7d00"/>
            <path id="Path-203" data-name="Path" d="M4.58,1.2A1.205,1.205,0,0,0,2.29.681,1.205,1.205,0,0,0,0,1.2C0,1.962.852,2.681,1.438,3.1a5.123,5.123,0,0,1,.9.713A3.3,3.3,0,0,1,3.293,3,2.379,2.379,0,0,0,4.58,1.2Z" transform="translate(20.088 24.663)" fill="#fb7d00"/>
            <rect id="Rectangle-133" data-name="Rectangle" width="12.637" height="11.615" transform="translate(12.991 23.647)" fill="none"/>
            <rect id="Rectangle-134" data-name="Rectangle" width="12.637" height="11.615" transform="translate(0.353 0.41)" fill="none"/>
            <path id="Path-204" data-name="Path" d="M4.58,1.2A1.205,1.205,0,0,0,2.29.681,1.205,1.205,0,0,0,0,1.2c0,.757.852,1.476,1.438,1.861a5.123,5.123,0,0,1,.9.713,3.3,3.3,0,0,1,.978-.8A2.391,2.391,0,0,0,4.58,1.2Z" transform="translate(1.098 7.748)" fill="#fb7d00"/>
            <path id="Path-205" data-name="Path" d="M4.58,1.2A1.205,1.205,0,0,0,2.29.681,1.205,1.205,0,0,0,0,1.2c0,.757.852,1.476,1.438,1.861a5.123,5.123,0,0,1,.9.713,3.3,3.3,0,0,1,.953-.808A2.379,2.379,0,0,0,4.58,1.2Z" transform="translate(7.451 1.395)" fill="#fb7d00"/>
            <rect id="Rectangle-135" data-name="Rectangle" width="12.637" height="11.615" transform="translate(0.353 0.41)" fill="none"/>
            <rect id="Rectangle-136" data-name="Rectangle" width="12.637" height="11.615" transform="translate(0.353 12.025)" fill="none"/>
            <path id="Path-206" data-name="Path" d="M4.58,1.2A1.205,1.205,0,0,0,2.29.681,1.205,1.205,0,0,0,0,1.2C0,1.968.852,2.688,1.438,3.1a5.123,5.123,0,0,1,.9.713A3.3,3.3,0,0,1,3.293,3,2.391,2.391,0,0,0,4.58,1.2Z" transform="translate(1.098 19.363)" fill="#fb7d00"/>
            <path id="Path-207" data-name="Path" d="M4.58,1.2A1.205,1.205,0,0,0,2.29.681,1.205,1.205,0,0,0,0,1.2C0,1.968.852,2.688,1.438,3.1a5.123,5.123,0,0,1,.9.713A3.3,3.3,0,0,1,3.293,3,2.391,2.391,0,0,0,4.58,1.2Z" transform="translate(7.451 13.01)" fill="#fb7d00"/>
            <rect id="Rectangle-137" data-name="Rectangle" width="12.637" height="11.615" transform="translate(0.353 12.025)" fill="none"/>
            <rect id="Rectangle-138" data-name="Rectangle" width="12.637" height="11.615" transform="translate(0.353 23.647)" fill="none"/>
            <path id="Path-208" data-name="Path" d="M4.58,1.2A1.205,1.205,0,0,0,2.29.681,1.205,1.205,0,0,0,0,1.2c0,.757.852,1.476,1.438,1.861a5.123,5.123,0,0,1,.9.713,3.3,3.3,0,0,1,.953-.808A2.379,2.379,0,0,0,4.58,1.2Z" transform="translate(1.098 30.972)" fill="#fb7d00"/>
            <path id="Path-209" data-name="Path" d="M4.58,1.2A1.205,1.205,0,0,0,2.29.681,1.205,1.205,0,0,0,0,1.2C0,1.962.852,2.681,1.438,3.1a5.123,5.123,0,0,1,.9.713A3.3,3.3,0,0,1,3.293,3,2.379,2.379,0,0,0,4.58,1.2Z" transform="translate(7.451 24.663)" fill="#fb7d00"/>
            <rect id="Rectangle-139" data-name="Rectangle" width="12.637" height="11.615" transform="translate(0.353 23.647)" fill="none"/>
          </g>
        </g>
      </g>
      <rect id="Rectangle-140" data-name="Rectangle" width="66.454" height="13.88" transform="translate(29.905 18.721) rotate(-3.92)" fill="none" stroke="#263238" stroke-linecap="round" stroke-linejoin="round" stroke-miterlimit="10" stroke-width="0.522"/>
      <rect id="Rectangle-141" data-name="Rectangle" width="13.49" height="80.114" transform="translate(56.804 16.887) rotate(-4.004)" fill="#fb7d00" stroke="#263238" stroke-linecap="round" stroke-linejoin="round" stroke-miterlimit="10" stroke-width="0.523"/>
      <path id="Path-210" data-name="Path" d="M15.407,28.826,8.17,22.694l-6.2,7.054L0,.921,13.426,0l1.981,28.826Z" transform="translate(45.722 16.707)" fill="#fb7d00" stroke="#263238" stroke-linecap="round" stroke-linejoin="round" stroke-miterlimit="10" stroke-width="0.522"/>
      <path id="Shape-3" data-name="Shape" d="M3.449,14.635C.016,14-1.757,4.218,2.483.534c4.271-3.691,21.54,12.972,21.54,12.972S11.694,14.772,5.855,14.771A15.062,15.062,0,0,1,3.449,14.635Z" transform="translate(38.981 3.031)" fill="#fb7d00" stroke="#263238" stroke-linecap="round" stroke-linejoin="round" stroke-miterlimit="10" stroke-width="0.522"/>
      <path id="Shape-4" data-name="Shape" d="M19.571.338c4.738,3.073,4.283,13,.965,14.082S0,16.11,0,16.11,14.833-2.729,19.571.338Z" transform="translate(63.129 0.394)" fill="#fb7d00" stroke="#263238" stroke-linecap="round" stroke-linejoin="round" stroke-miterlimit="10" stroke-width="0.522"/>
      <rect id="Rectangle-142" data-name="Rectangle" width="8.146" height="4.478" rx="1.83" transform="translate(59.015 12.502) rotate(-4.004)" fill="#fb7d00" stroke="#263238" stroke-linecap="round" stroke-linejoin="round" stroke-miterlimit="10" stroke-width="0.523"/>
      <path id="Path-211" data-name="Path" d="M1.5.243A22.882,22.882,0,0,0,5.912.6C7.129.426,9.293-.66,10.183.6a14.669,14.669,0,0,0,3.022,2.669s.353.89-1.262.89A5.325,5.325,0,0,1,8.915,2.9l4.448,3.558S12.65,7.53,12.1,7.719a7.817,7.817,0,0,1-2.492-.36,4.826,4.826,0,0,1-1.956.89c-1.073.183-1.962.713-2.669.36S0,4.337,0,4.337Z" transform="translate(52.795 90.168)" fill="#fff" stroke="#263238" stroke-linecap="round" stroke-linejoin="round" stroke-miterlimit="10" stroke-width="0.522"/>
      <path id="Path-212" data-name="Path" d="M5.4,0S.212,2.524,0,8.3,9.347,29.476,11.631,31.136,40.9,42.763,40.9,42.763l2.492-9.754L18.262,18.864,10.994,2.259" transform="translate(12.262 56.215)" fill="#ffb76f" stroke="#263238" stroke-linecap="round" stroke-linejoin="round" stroke-miterlimit="10" stroke-width="0.522"/>
      <path id="Path-213" data-name="Path" d="M3.066,0,0,9" transform="translate(47.23 87.047)" fill="none" stroke="#263238" stroke-linecap="round" stroke-linejoin="round" stroke-miterlimit="10" stroke-width="0.5"/>
      <path id="Path-214" data-name="Path" d="M2.107,0,0,6.7" transform="translate(46.278 88.959)" fill="none" stroke="#263238" stroke-linecap="round" stroke-linejoin="round" stroke-miterlimit="10" stroke-width="0.5"/>
      <circle id="Oval" cx="0.864" cy="0.864" r="0.864" transform="translate(50.297 96.044)" fill="none" stroke="#263238" stroke-linecap="round" stroke-linejoin="round" stroke-miterlimit="10" stroke-width="0.5"/>
    </g>
  </g>
</svg>
