<svg xmlns="http://www.w3.org/2000/svg" width="221.527" height="198.592" viewBox="0 0 221.527 198.592">
  <g id="Ethnic_friendship-bro" data-name="Ethnic friendship-bro" transform="translate(-0.436 0.047)">
    <g id="freepik--background-simple--inject-4" transform="translate(0 14.569)">
      <path id="Path" d="M160.387,176.163s-34.509,16.91-71.743.437-59.1-55.081-77.639-85.89-13.112-64.9,12.17-83.044S68.99,9.711,106.749,6.53s47.335-9.752,80.756,8.168,44.217,67.989,23.383,108.268S160.387,176.163,160.387,176.163Z" transform="translate(0.436 0.167)" fill="#ffb76f"/>
      <path id="Path-2" data-name="Path" d="M160.387,176.163s-34.509,16.91-71.743.437-59.1-55.081-77.639-85.89-13.112-64.9,12.17-83.044S68.99,9.711,106.749,6.53s47.335-9.752,80.756,8.168,44.217,67.989,23.383,108.268S160.387,176.163,160.387,176.163Z" transform="translate(0.436 0.167)" fill="#f9fbff"/>
    </g>
    <g id="freepik--Clouds--inject-4" transform="translate(9.713)">
      <path id="Path-3" data-name="Path" d="M88.206,15.373S88.575,2.208,75.618.265,60.03,7.6,56.465,10.187s-4.21-5.182-12.306-2.263S39.3,17.316,35.417,19.579s-5.274-3.744-11.335-2.914S19.275,24,16.633,25.407,11.039,25.3,5.9,24.868,0,30.375,0,30.375H103.105s2.588-9.174-2.593-12.413S89.5,17.316,88.206,15.373Z" transform="translate(86.584 0.22)" fill="none" stroke="#263238" stroke-linecap="round" stroke-linejoin="round" stroke-miterlimit="10" stroke-width="0.541"/>
      <path id="Path-4" data-name="Path" d="M67.44,11.859S64.964,1.7,55.057.2,45.893,5.9,43.168,7.882s-3.215-3.963-9.407-1.734-3.715,7.2-6.707,8.926-4.031-2.86-8.669-2.229-3.657,5.629-5.672,6.692-4.278-.087-8.207-.418S0,23.33,0,23.33H78.829s1.981-7.013-1.981-9.489S68.431,13.346,67.44,11.859Z" transform="translate(0.141 82.053)" fill="none" stroke="#263238" stroke-linecap="round" stroke-linejoin="round" stroke-miterlimit="10" stroke-width="0.541"/>
      <path id="Path-5" data-name="Path" d="M39.327,6.788S41.488.96,35.709.115,26.759,3.32,25.171,4.486s-1.879-2.312-5.493-1.01-2.166,4.191-3.885,5.2-2.35-1.671-5.055-1.3S8.6,10.648,7.416,11.26s-2.491-.049-4.784-.243S0,13.475,0,13.475H45.985s1.141-4.074-1.17-5.531S39.9,7.657,39.327,6.788Z" transform="translate(164.495 42.563)" fill="none" stroke="#263238" stroke-linecap="round" stroke-linejoin="round" stroke-miterlimit="10" stroke-width="0.541"/>
    </g>
    <g id="freepik--characters-2--inject-4" transform="translate(78.187 17.969)">
      <path id="Path-6" data-name="Path" d="M0,3.108S3.8,21.659,4.779,24.894a26.71,26.71,0,0,1,1.127,4.919s.7,6.745,1.544,12.369,4.919,20.4,5.06,21.786-.84,4.215-1.967,5.905-5.483,4.919-5.483,5.9,4.638.971,7.168.971a29.71,29.71,0,0,0,7.309-.845c1-.423,1.268-1.122,1.268-2.53s-2.248-14.477-2.389-18.692,1.826-11.107.845-16.725-2.812-11.806-2.812-16.725S16.308,0,16.308,0,4.22,3.812,0,3.108Z" transform="translate(74.754 92.931)" fill="#fff" stroke="#263238" stroke-linecap="round" stroke-linejoin="round" stroke-miterlimit="10" stroke-width="0.541"/>
      <path id="Path-7" data-name="Path" d="M10.543.592c-1.685-1.544-3.375.423-3.375.423h0a14.166,14.166,0,0,1-1.685,3.8C4.361,6.5,0,9.731,0,10.712s4.638.971,7.168.971a29.709,29.709,0,0,0,7.309-.845c1-.423,1.268-1.122,1.268-2.53,0-.558-.355-2.962-.792-5.92l-1.739.578S12.228,2.141,10.543.592Z" transform="translate(79.814 157.993)" fill="#fff" stroke="#263238" stroke-linecap="round" stroke-linejoin="round" stroke-miterlimit="10" stroke-width="0.541"/>
      <path id="Path-8" data-name="Path" d="M9.715,0S7.613,8.091,5.67,15.055s-1.457,13.6-1.782,17.158S2.106,43.057,3.562,50.341s4.05,18.619,4.05,19.591A6.313,6.313,0,0,1,5.67,74.3C4.048,75.92,0,79.479,0,81.262a2.943,2.943,0,0,0,3.885,2.914,10.536,10.536,0,0,0,5.988-5.5c.971-2.263,3.885-3.079,4.05-5.342s-.651-4.371-.971-6.639-1.3-11.816,0-17.969.646-15.055.646-15.055,2.914-8.1,4.531-11.816,4.7-12.466,4.7-12.466Z" transform="translate(47.104 83.369)" fill="#fff" stroke="#263238" stroke-linecap="round" stroke-linejoin="round" stroke-miterlimit="10" stroke-width="0.541"/>
      <path id="Path-9" data-name="Path" d="M13.926,3.934A13.763,13.763,0,0,0,13.489,0a11.461,11.461,0,0,1-3.127,4.58A7.285,7.285,0,0,0,8.744,2.312c-.67-.558-1.268-.034-1.569.345A6.75,6.75,0,0,1,5.67,4.9C4.048,6.522,0,10.082,0,11.864a2.943,2.943,0,0,0,3.885,2.914,10.536,10.536,0,0,0,5.988-5.5C10.847,7.013,13.761,6.2,13.926,3.934Z" transform="translate(47.104 152.767)" fill="#fff" stroke="#263238" stroke-linecap="round" stroke-linejoin="round" stroke-miterlimit="10" stroke-width="0.541"/>
      <path id="Path-10" data-name="Path" d="M7.385,0A34.373,34.373,0,0,0,3.014,7.309C1.465,11.1-.361,16.444.062,17.022s4.215,6.046,6.745,7.731a38.708,38.708,0,0,0,7.027,3.234l1.549-1.549.558,4.5a46,46,0,0,0,8.576.971c5.905.267,13.913-3.234,13.913-3.234s-1.768-11.84-3.6-16.055a42.417,42.417,0,0,0-5.255-8.4S17.773,5.483,12.713,3.657,7.385,0,7.385,0Z" transform="translate(56.126 66.382)" fill="#263238" stroke="#263238" stroke-linecap="round" stroke-linejoin="round" stroke-miterlimit="10" stroke-width="0.541"/>
      <path id="Path-11" data-name="Path" d="M22.242,0A33,33,0,0,1,10.82,3.438,27.249,27.249,0,0,1,0,2.03L.277,4.278a46,46,0,0,0,8.576.971c5.905.267,13.913-3.234,13.913-3.234S22.568,1.248,22.242,0Z" transform="translate(71.806 93.024)" fill="#999" stroke="#263238" stroke-linecap="round" stroke-linejoin="round" stroke-miterlimit="10" stroke-width="0.541"/>
      <path id="Path-12" data-name="Path" d="M13.835,12.442l.418-.418a47.5,47.5,0,0,1-6.036-3.8C5.167,6.017,1.728,1.909.184,0,0,.777-.059,1.316.063,1.457.485,2.02,4.278,7.5,6.808,9.188A39.361,39.361,0,0,0,13.835,12.442Z" transform="translate(56.14 81.912)" fill="#999" stroke="#263238" stroke-linecap="round" stroke-linejoin="round" stroke-miterlimit="10" stroke-width="0.541"/>
      <path id="Path-13" data-name="Path" d="M0,8.436S4.919,2.389,8.436,0" transform="translate(72.506 80.858)" fill="none" stroke="#6b6b6b" stroke-linecap="round" stroke-linejoin="round" stroke-miterlimit="10" stroke-width="0.541"/>
      <path id="Path-14" data-name="Path" d="M39.942,0s.325,4.531-1.617,5.5-11.5,0-14.894.325S1.256,18.614.285,19.425s.646,5.5,3.234,6.474,17-6.148,17-6.148,4.7,11.816,5.342,12.787-3.074,10.2-5.5,14.083S15.34,59.573,15.175,65.236s2.914,17.648,4.7,21.208,1.457,4.856.811,9.227-1.229,11.17-.083,15.3c1.214,4.371,5.425,20.965,5.425,20.965s-4.536,4.206-6.964,6.148-5.177,2.428-4.691,3.565,15.7,0,16.672,0a2.428,2.428,0,0,0,2.268-2.268c0-1.3-.325-7.285-.325-8.741s.325-19.751.325-25.413V90.974s.646-10.844.646-13.272a74.046,74.046,0,0,1,1.3-8.9h2.428s8.416,15.215,10.2,18.289,3.56,6.313,3.56,6.313-.16,14.083,2.588,19.1,8.256,15.861,9.067,17.483,1.457,10.359,2.428,11.33,17.808,1.457,18.294,1.3.971-2.268-.486-3.4-7.77-3.725-9.392-5.021-2.943-1.457-3.885-5.017c-.223-.845-2.588-15.38-2.914-20.557s-3.72-17.648-3.72-17.648S60.825,72.52,59.533,66.858,52.408,45.65,52.248,44.679,49.98,38.04,49.98,38.04a16.6,16.6,0,0,1,1.782-4.045c.971-1.3,3.074-6.313,3.074-8.416a15.307,15.307,0,0,1,.325-3.4A11.291,11.291,0,0,1,57.59,19.1c1.3-.971,7.285-5.988,7.285-5.988s-.486-2.1-3.725-3.725-11.5-2.1-11.981-2.263-.806-3.4-.486-5.021S39.942,0,39.942,0Z" transform="translate(2.468 27.681)" fill="#fff" stroke="#263238" stroke-linecap="round" stroke-linejoin="round" stroke-miterlimit="10" stroke-width="0.541"/>
      <path id="Path-15" data-name="Path" d="M27.9,26.176c-1.457-1.136-7.77-3.725-9.392-5.021S15.57,19.7,14.627,16.138c-.175-.66-1.666-9.752-2.462-16.138A73.331,73.331,0,0,1,0,2.054c2.914,5.463,6.979,13.51,7.668,14.89C8.479,18.561,9.125,27.3,10.1,28.274S27.9,29.731,28.39,29.57,29.362,27.307,27.9,26.176Z" transform="translate(57.893 140.723)" fill="#999" stroke="#263238" stroke-linecap="round" stroke-linejoin="round" stroke-miterlimit="10" stroke-width="0.541"/>
      <path id="Path-16" data-name="Path" d="M7.249,0c1.695,6.454,4.463,17.366,4.463,17.366s-4.536,4.206-6.964,6.148S-.429,25.943.056,27.079s15.7,0,16.672,0A2.428,2.428,0,0,0,19,24.811c0-1.3-.325-7.285-.325-8.741,0-.908.126-8.363.219-15.22C14.135.626,10.046.277,7.249,0Z" transform="translate(16.781 142.248)" fill="#999" stroke="#263238" stroke-linecap="round" stroke-linejoin="round" stroke-miterlimit="10" stroke-width="0.541"/>
      <path id="Path-17" data-name="Path" d="M51.969,65.566c-.321-5.182-3.72-17.648-3.72-17.648S45.656,29.464,44.364,23.8C43.2,18.712,38.381,5.663,37.294,2.35,31.466,3.414,18.951,4.779,7.1,0A38.147,38.147,0,0,1,5.188,3.565C2.76,7.45.171,16.516.006,22.179S2.92,39.827,4.7,43.387s1.457,4.856.811,9.227-1.229,11.17-.083,15.3c.389,1.4,1.088,4.065,1.855,7.032a40.934,40.934,0,0,0,10.708.442c.073-5.157.146-10.572.146-13.219V47.918s.646-10.844.646-13.272a74.046,74.046,0,0,1,1.3-8.9h2.428s8.416,15.215,10.2,18.289,3.56,6.313,3.56,6.313-.16,14.083,2.588,19.1c.821,1.5,1.889,3.516,3.006,5.653a48.86,48.86,0,0,0,11.048-1.268C52.465,70.582,52.091,67.45,51.969,65.566Z" transform="translate(17.637 70.738)" fill="#263238" stroke="#263238" stroke-linecap="round" stroke-linejoin="round" stroke-miterlimit="10" stroke-width="0.541"/>
      <path id="Path-18" data-name="Path" d="M14.786,1.3C14.057-.643,11.712.168,11.712.168S7.176,4.374,4.748,6.316-.429,8.744.056,9.881s15.7,0,16.672,0A2.428,2.428,0,0,0,19,7.613c0-.656-.083-2.511-.165-4.371H15.514Z" transform="translate(16.781 159.446)" fill="#fb7d00" stroke="#263238" stroke-linecap="round" stroke-linejoin="round" stroke-miterlimit="10" stroke-width="0.541"/>
      <path id="Path-19" data-name="Path" d="M19.2,6.425C17.745,5.289,11.432,2.7,9.81,1.4,9.115.85,8.474.5,7.9,0A2.074,2.074,0,0,0,6.75.52c-.937.821-1.059,2.914-1.059,2.914S2.219,2.8,0,2.316C.423,5.094.86,7.994,1.394,8.528c.971.971,17.808,1.457,18.294,1.3S20.659,7.557,19.2,6.425Z" transform="translate(66.595 160.474)" fill="#fb7d00" stroke="#263238" stroke-linecap="round" stroke-linejoin="round" stroke-miterlimit="10" stroke-width="0.541"/>
      <path id="Path-20" data-name="Path" d="M2.965.783S-.264,5.421.017,7.388,2.125,10.9,2.266,12.871-.123,19.184.323,21.3s3.652,5.06,3.652,5.06S3,29.6,4.4,32.126s7.309,6.464,13.209,5.483,8.717-3.8,9.14-4.779a99.394,99.394,0,0,0,4.074-12.51c.981-4.5.141-8.436-2.53-10.966S18.452,3.6,14.1,1.764,3.388-.606,2.965.783Z" transform="translate(59.42 39.457)" fill="#fb7d00" stroke="#263238" stroke-linecap="round" stroke-linejoin="round" stroke-miterlimit="10" stroke-width="0.541"/>
      <path id="Path-21" data-name="Path" d="M0,3.108A8.57,8.57,0,0,0,6.886,4.371,10.869,10.869,0,0,0,13.491,0" transform="translate(73.914 66.085)" fill="none" stroke="#263238" stroke-linecap="round" stroke-linejoin="round" stroke-miterlimit="10" stroke-width="0.541"/>
      <path id="Path-22" data-name="Path" d="M.034,8.761c-.219,3.943.588,7.542,3.4,8.61A70.543,70.543,0,0,0,5.507,10.31C6.41,6.182,5.769,2.54,3.594,0,2.345,1.768.233,5.23.034,8.761Z" transform="translate(84.7 49.467)" fill="#fff" stroke="#263238" stroke-linecap="round" stroke-linejoin="round" stroke-miterlimit="10" stroke-width="0.541"/>
      <path id="Path-23" data-name="Path" d="M15.157,11.884A40.468,40.468,0,0,0,17.779,5.93C14.8,4.342,11.349,2.817,8.834,1.763A23.845,23.845,0,0,0,0,0,1.389,1.389,0,0,0,.257.359a8.476,8.476,0,0,1,1.69,3.234s1.4,1.4.282,4.215S.821,16.662,4.337,18.347,12.767,16.521,15.157,11.884Z" transform="translate(64.658 39.458)" fill="#fff" stroke="#263238" stroke-linecap="round" stroke-linejoin="round" stroke-miterlimit="10" stroke-width="0.541"/>
      <path id="Path-24" data-name="Path" d="M.471,11.035,15.613,24.147A37.681,37.681,0,0,0,13.9,31.8a125.009,125.009,0,0,1-3.283,15.147C10.3,47.57,4.842,50.066,3.278,51S.155,55.529.316,56.311,1.093,56,1.564,55.218a7.581,7.581,0,0,1,1.4-1.564l1.248-.782S2.656,56,2.656,56.933s-.486,3.123.155,3.123.782-1.4.937-1.875,1.4-4.055,1.4-4.055l-1.093,6.4s-.311,1.248.626.622,1.248-4.06,1.4-4.526a29.669,29.669,0,0,1,2.185-2.967,26.749,26.749,0,0,0-.937,4.06c0,.937-.486,2.652.155,2.03A11.569,11.569,0,0,0,8.9,56.622l1.4-3.433a11.107,11.107,0,0,0,2.5-2.967,9.713,9.713,0,0,0,.932-2.812s7.027-15.458,7.964-18.42a41.245,41.245,0,0,0,1.559-6.09c0-.486-3.589-5-7.178-9.684S7.654,3.071,5.153,1.041,0,.414,0,1.352" transform="translate(86.662 49.907)" fill="#fff" stroke="#263238" stroke-linecap="round" stroke-linejoin="round" stroke-miterlimit="10" stroke-width="0.541"/>
      <path id="Path-25" data-name="Path" d="M0,1.262S1.753-.5,2.268.14,1.947,4.025,1.4,4.54.816,4.574.821,3.6A4.512,4.512,0,0,0,.515,1.9S.486,2.195,0,1.262Z" transform="translate(91.703 49.395)" fill="#999" stroke="#263238" stroke-linecap="round" stroke-linejoin="round" stroke-miterlimit="10" stroke-width="0.541"/>
      <path id="Path-26" data-name="Path" d="M.6.017S2.188-.207,2.256.988.8,4.543.27,4.873.115,2.707.338,1.561.6.017.6.017Z" transform="translate(93.686 50.237)" fill="#999" stroke="#263238" stroke-linecap="round" stroke-linejoin="round" stroke-miterlimit="10" stroke-width="0.541"/>
      <path id="Path-27" data-name="Path" d="M.6.016S2.182-.2,2.25.987.793,4.542.268,4.872.113,2.706.331,1.555.6.016.6.016Z" transform="translate(95.271 51.87)" fill="#999" stroke="#263238" stroke-linecap="round" stroke-linejoin="round" stroke-miterlimit="10" stroke-width="0.541"/>
      <path id="Path-28" data-name="Path" d="M.5.014S1.833-.171,1.886.82A6.009,6.009,0,0,1,.225,4.088C-.212,4.37.089,2.267.279,1.305S.5.014.5.014Z" transform="translate(96.897 53.751)" fill="#999" stroke="#263238" stroke-linecap="round" stroke-linejoin="round" stroke-miterlimit="10" stroke-width="0.541"/>
      <path id="Path-29" data-name="Path" d="M9.174,0,0,21.4s7.445,6.915,16.22,6.915,12.5-3.06,12.5-3.06L28.055,5.706Z" transform="translate(30.809 13.598)" fill="#263238" stroke="#263238" stroke-linecap="round" stroke-linejoin="round" stroke-miterlimit="10" stroke-width="0.541"/>
      <path id="Path-30" data-name="Path" d="M8.115,0,0,23.539" transform="translate(33.465 14.117)" fill="none" stroke="#6b6b6b" stroke-linecap="round" stroke-linejoin="round" stroke-miterlimit="10" stroke-width="0.541"/>
      <path id="Path-31" data-name="Path" d="M7.047,0,0,24.2" transform="translate(37.059 14.783)" fill="none" stroke="#6b6b6b" stroke-linecap="round" stroke-linejoin="round" stroke-miterlimit="10" stroke-width="0.541"/>
      <path id="Path-32" data-name="Path" d="M.041,0l.4,21.281" transform="translate(57.094 18.503)" fill="none" stroke="#6b6b6b" stroke-linecap="round" stroke-linejoin="round" stroke-miterlimit="10" stroke-width="0.541"/>
      <path id="Path-33" data-name="Path" d="M.175,0,.311,23" transform="translate(54.435 17.842)" fill="none" stroke="#6b6b6b" stroke-linecap="round" stroke-linejoin="round" stroke-miterlimit="10" stroke-width="0.541"/>
      <path id="Path-34" data-name="Path" d="M53.623,48.753c-.782-2.21-1.326-3.788-1.374-4.074-.165-.971-2.268-6.639-2.268-6.639a16.6,16.6,0,0,1,1.782-4.045c.971-1.3,3.074-6.313,3.074-8.416a15.307,15.307,0,0,1,.325-3.4A11.291,11.291,0,0,1,57.59,19.1c1.3-.971,7.285-5.988,7.285-5.988s-.486-2.1-3.725-3.725-11.5-2.1-11.981-2.263-.806-3.4-.486-5.021S39.942,0,39.942,0s.325,4.531-1.617,5.5-11.5,0-14.894.325S1.256,18.614.285,19.425s.646,5.5,3.234,6.474,17-6.148,17-6.148,4.7,11.816,5.342,12.787S23.217,41.663,20.8,45.868C24.7,49.156,34.819,54.94,53.623,48.753Z" transform="translate(2.468 27.681)" fill="#fff" stroke="#263238" stroke-linecap="round" stroke-linejoin="round" stroke-miterlimit="10" stroke-width="0.541"/>
      <path id="Path-35" data-name="Path" d="M1.316,0C.879.257.442.524,0,.792a36.525,36.525,0,0,0,4.065,10.2l1.326-.617A35.567,35.567,0,0,1,1.316,0Z" transform="translate(15.458 38.079)" fill="#263238"/>
      <path id="Path-36" data-name="Path" d="M5.429,9.737,6.8,9.125A59.821,59.821,0,0,1,1.243,0C.826.262.408.52,0,.782A60.491,60.491,0,0,0,5.429,9.737Z" transform="translate(11.743 40.395)" fill="#263238"/>
      <path id="Path-37" data-name="Path" d="M3.652,14.389A105.325,105.325,0,0,1,1.394,0C.947.233.481.486,0,.758A106.942,106.942,0,0,0,1.768,12.593l.971-.486Z" transform="translate(20.241 35.311)" fill="#263238"/>
      <path id="Path-38" data-name="Path" d="M.524,0C.364.447.185.908,0,1.379A33.577,33.577,0,0,0,12.826,3.744,45.305,45.305,0,0,0,25.991,1.7L25.714.942s.092-.306.248-.762C13.3,4.1,4.157,1.476.524,0Z" transform="translate(26.734 64.779)" fill="#263238"/>
      <path id="Path-39" data-name="Path" d="M.7.02A.733.733,0,0,0,0,.229c.17.408.34.826.51,1.243A97.958,97.958,0,0,0,21.557,4.007,53.809,53.809,0,0,0,31.887,3.09a11.126,11.126,0,0,0,.335-1.549C18.7,4.425.9.069.7.02Z" transform="translate(25.035 52.326)" fill="#263238"/>
      <path id="Path-40" data-name="Path" d="M0,.686a.728.728,0,0,0,.685.767L44.233,4.076a6.8,6.8,0,0,0-1.457-1.549L.773,0A.733.733,0,0,0,0,.686Z" transform="translate(22.576 35.635)" fill="#263238"/>
      <path id="Path-41" data-name="Path" d="M0,0A12.253,12.253,0,0,0,.622,1.3a.889.889,0,0,1,.073.486,44.863,44.863,0,0,0,13.515,2A51.516,51.516,0,0,0,26.89,2.171,19.426,19.426,0,0,0,27.764.423,46.824,46.824,0,0,1,0,0Z" transform="translate(27.706 58.922)" fill="#263238"/>
      <path id="Path-42" data-name="Path" d="M.768,0A.729.729,0,1,0,.691,1.458L40.421,3.59l1.656-1.36Z" transform="translate(22.367 40.992)" fill="#263238"/>
      <path id="Path-43" data-name="Path" d="M30.158,2.579V2.535a12.087,12.087,0,0,0-.4-1.365A41.794,41.794,0,0,1,.622,0C.418.452.209.889,0,1.316A43.251,43.251,0,0,0,30.182,2.579Z" transform="translate(24.563 69.825)" fill="#263238"/>
      <path id="Path-44" data-name="Path" d="M20.935,1.855A155.835,155.835,0,0,1,.854.009.738.738,0,0,0,.621,1.466c.117,0,11.7,1.865,20.314,1.865,5.2,0,10.2-.151,13.37-.267a13.811,13.811,0,0,1,1.044-1.5C32.362,1.665,26.763,1.855,20.935,1.855Z" transform="translate(23.597 46.349)" fill="#263238"/>
      <path id="Path-45" data-name="Path" d="M7.137,0C3.515,2.326.649,4.274.285,4.575c-.971.811.646,5.5,3.234,6.474,1.34.486,5.828-1.151,9.854-2.875Z" transform="translate(2.468 42.532)" fill="#999" stroke="#263238" stroke-linecap="round" stroke-linejoin="round" stroke-miterlimit="10" stroke-width="0.541"/>
      <path id="Path-46" data-name="Path" d="M.3,2.108S-.283.253.179.02,1.223,1.642,1.223,1.642L2.612,3.148s.583,1.044-.694,1.044S.3,2.108.3,2.108Z" transform="translate(16.702 73.092)" fill="#999" stroke="#263238" stroke-linecap="round" stroke-linejoin="round" stroke-miterlimit="10" stroke-width="0.541"/>
      <path id="Path-47" data-name="Path" d="M.912,2.935S-.361.274.1.021,1.723,1.876,1.723,1.876L3.578,3.382Z" transform="translate(15.25 73.31)" fill="#999" stroke="#263238" stroke-linecap="round" stroke-linejoin="round" stroke-miterlimit="10" stroke-width="0.541"/>
      <path id="Path-48" data-name="Path" d="M2.428,0S0,2.1,0,3.725,19.586,23.752,19.586,23.752a3.4,3.4,0,0,0-1.136,2.263c0,1.3-.16,2.914-.16,2.914l-2.1-.321s-1.3-1.3-1.943-1.3,1.617,2.914,1.943,3.4,4.045.16,4.045.16,3.725-4.856,3.725-7.119S10.752,2.992,10.266,2.02" transform="translate(0.325 47.107)" fill="#999" stroke="#263238" stroke-linecap="round" stroke-linejoin="round" stroke-miterlimit="10" stroke-width="0.541"/>
      <path id="Path-49" data-name="Path" d="M20.688,7.726c-2.584-.355-4.856-.52-5.094-.6-.486-.165-.806-3.4-.486-5.021S6.367,0,6.367,0,6.692,4.531,4.75,5.5A14.215,14.215,0,0,1,0,5.949C.617,9.737,1.36,16.483,7.989,17.323,16.4,18.391,20.042,11.6,20.688,7.726Z" transform="translate(36.044 27.681)" fill="#999" stroke="#263238" stroke-linecap="round" stroke-linejoin="round" stroke-miterlimit="10" stroke-width="0.541"/>
      <path id="Path-50" data-name="Path" d="M2.936,1.554S.949-1.359.182.792,1.255,6.3,2.324,6.62,2.936,1.554,2.936,1.554Z" transform="translate(37.567 12.184)" fill="#999" stroke="#263238" stroke-linecap="round" stroke-linejoin="round" stroke-miterlimit="10" stroke-width="0.541"/>
      <path id="Path-51" data-name="Path" d="M1.268.939s2.773-2.176,2.86.1S1.443,5.97.331,5.936,1.268.939,1.268.939Z" transform="translate(57.348 16.131)" fill="#999" stroke="#263238" stroke-linecap="round" stroke-linejoin="round" stroke-miterlimit="10" stroke-width="0.541"/>
      <path id="Path-52" data-name="Path" d="M.762,10.966S0,18.775,0,21.223s3.365,7.96,5.051,9.489,4.133,1.685,8.11-1.073a18.981,18.981,0,0,0,5.051-7.654c.612-2.452,2.3-8.11,2.3-13.01S18.211.719,12.855.1,2.142,1.477.762,10.966Z" transform="translate(39.74 0.325)" fill="#999" stroke="#263238" stroke-linecap="round" stroke-linejoin="round" stroke-miterlimit="10" stroke-width="0.541"/>
      <path id="Shape" d="M17.857,8.825C11.17,11.549,3.3,11.972,0,12.035c.063-.656.1-1.068.1-1.068C1.481,1.477,6.853-.514,12.194.1c5.357.612,7.654,3.977,7.654,8.872a37.384,37.384,0,0,1-.971,7.663C17.745,14.686,17.857,8.825,17.857,8.825Z" transform="translate(40.4 0.325)" fill="#263238" stroke="#263238" stroke-linecap="round" stroke-linejoin="round" stroke-miterlimit="10" stroke-width="0.541"/>
      <path id="Path-53" data-name="Path" d="M0,3.769S5.978-1.466,16.07.4" transform="translate(42.173 6.289)" fill="none" stroke="#6b6b6b" stroke-linecap="round" stroke-linejoin="round" stroke-miterlimit="10" stroke-width="0.541"/>
      <path id="Path-54" data-name="Path" d="M0,2.074s8.78-4.667,14.569,0" transform="translate(43.668 3.496)" fill="none" stroke="#6b6b6b" stroke-linecap="round" stroke-linejoin="round" stroke-miterlimit="10" stroke-width="0.541"/>
      <path id="Path-55" data-name="Path" d="M0,.153S2.6-.459,3.521.765" transform="translate(43.411 16.956)" fill="none" stroke="#263238" stroke-linecap="round" stroke-linejoin="round" stroke-miterlimit="10" stroke-width="1.083"/>
      <path id="Path-56" data-name="Path" d="M0,.135S2.292-.477,3.365.9" transform="translate(52.138 18.805)" fill="none" stroke="#263238" stroke-linecap="round" stroke-linejoin="round" stroke-miterlimit="10" stroke-width="1.083"/>
      <path id="Path-57" data-name="Path" d="M0,.983A3.276,3.276,0,0,1,3.982.5" transform="translate(43.411 13.678)" fill="none" stroke="#263238" stroke-linecap="round" stroke-linejoin="round" stroke-miterlimit="10" stroke-width="0.541"/>
      <path id="Path-58" data-name="Path" d="M0,.382s2.452-1.53,3.521,1.53" transform="translate(53.206 15.503)" fill="none" stroke="#263238" stroke-linecap="round" stroke-linejoin="round" stroke-miterlimit="10" stroke-width="0.541"/>
      <path id="Path-59" data-name="Path" d="M0,0S.918,2.428,3.671,1.068" transform="translate(46.932 20.018)" fill="none" stroke="#263238" stroke-linecap="round" stroke-linejoin="round" stroke-miterlimit="10" stroke-width="0.541"/>
      <path id="Path-60" data-name="Path" d="M0,0S.073,2.452,1.753,2.972c2.21.685,3.5-1.525,3.5-1.525S3.351,1.6,0,0Z" transform="translate(45.242 24.029)" fill="#787878" stroke="#263238" stroke-linecap="round" stroke-linejoin="round" stroke-miterlimit="10" stroke-width="0.541"/>
      <path id="Path-61" data-name="Path" d="M0,0A11.835,11.835,0,0,0,2.967,1.675a8.65,8.65,0,0,0,3.652.155A6.362,6.362,0,0,1,4.643,1.3a2.079,2.079,0,0,0-1.369-.228S2.588.306,1.977.306A13.651,13.651,0,0,1,0,0Z" transform="translate(44.713 23.573)" fill="#595959" stroke="#263238" stroke-linecap="round" stroke-linejoin="round" stroke-miterlimit="10" stroke-width="0.541"/>
      <path id="Path-62" data-name="Path" d="M5.877,0s0,1.136-3.647,4.682a6.868,6.868,0,0,0-1.141,8.78,5.648,5.648,0,0,0,1.845,1.2l.2-1.816s.418,1.321,2.637,1.714S8.509,14.166,7.3,12.33a6.936,6.936,0,0,1-.121-6.391A12.1,12.1,0,0,1,9.16,3.511Z" transform="translate(56.012 38.739)" fill="#ffb76f" stroke="#263238" stroke-linecap="round" stroke-linejoin="round" stroke-miterlimit="10" stroke-width="0.541"/>
      <path id="Path-63" data-name="Path" d="M4.6,1.429S2.811,4.392,2.679,5.509s.617,2.049.539,2.749-.874,1.457-1.671,2.215S-.458,11.929.178,12.58a12.539,12.539,0,0,0,1.685,1.326s.16,1.593.4,3.22c.262,1.739,1.3,5.459,2.137,5.556s5.138-.4,7.115-1.593,4.419-2.613,5.585-5.6S19.531,9.112,15.287,4.1,6.147-.712,4.6,1.429Z" transform="translate(59.336 20.939)" fill="#fff" stroke="#263238" stroke-linecap="round" stroke-linejoin="round" stroke-miterlimit="10" stroke-width="0.541"/>
      <path id="Path-64" data-name="Path" d="M0,.563A5.259,5.259,0,0,0,3.744,0s-1.418,1.967-2.3,1.967S0,.563,0,.563Z" transform="translate(62.249 35.859)" fill="#fff" stroke="#263238" stroke-linecap="round" stroke-linejoin="round" stroke-miterlimit="10" stroke-width="0.541"/>
      <path id="Path-65" data-name="Path" d="M1.268,1.052c-.063.544-.393.971-.743.908S-.053,1.474.01.911.4-.036.749,0,1.327.513,1.268,1.052Z" transform="translate(65.041 28.713)" fill="#263238"/>
      <path id="Path-66" data-name="Path" d="M0,.8S1.17-.765,3.433.483" transform="translate(64.327 26.479)" fill="none" stroke="#263238" stroke-linecap="round" stroke-linejoin="round" stroke-miterlimit="10" stroke-width="0.541"/>
      <path id="Path-67" data-name="Path" d="M4.506,0S3.72,10.66,1.874,15.686-.637,24.029.713,24.607s2.132-1.316,2.132-1.316,1.243,5.235,5.444,6.847,4.191-.8,4.191-.8,1.535,1.457,5.633.219,5.512-6.168,5.745-7.979a29.264,29.264,0,0,0,.058-4.24s-.7,1.195-2.8.971S15.7,15.006,15.7,15.006a9.107,9.107,0,0,1,2.656.306c.389.306-2.666-3.443-2.666-3.443S6.862.267,4.506,0Z" transform="translate(67.926 25.656)" fill="#ffb76f" stroke="#263238" stroke-linecap="round" stroke-linejoin="round" stroke-miterlimit="10" stroke-width="0.541"/>
      <path id="Path-68" data-name="Path" d="M1.395,0S-1.174,9.713.661,14.491" transform="translate(73.355 30.109)" fill="none" stroke="#263238" stroke-linecap="round" stroke-linejoin="round" stroke-miterlimit="10" stroke-width="0.541"/>
      <path id="Path-69" data-name="Path" d="M.792,0s-2.2,10.645.733,16.512,9.174,3.851,9.713,3.667" transform="translate(76.342 31.96)" fill="none" stroke="#263238" stroke-linecap="round" stroke-linejoin="round" stroke-miterlimit="10" stroke-width="0.541"/>
      <path id="Path-70" data-name="Path" d="M.416,0A7.561,7.561,0,0,0,3.641,8.936" transform="translate(80.467 35.685)" fill="none" stroke="#263238" stroke-linecap="round" stroke-linejoin="round" stroke-miterlimit="10" stroke-width="0.541"/>
      <path id="Path-71" data-name="Path" d="M.087,3.705S3.55,1.064,5.119.612,13.112.384,14.156.126s4.206-.277,5.269,1.486.092,6.969.2,8.256S19.693,14.812,19,16.5s-1.355,3.011-1.355,3.011a34.518,34.518,0,0,0-8.178-9.285A65.25,65.25,0,0,0,0,4.473Z" transform="translate(66.93 15.089)" fill="#263238" stroke="#263238" stroke-linecap="round" stroke-linejoin="round" stroke-miterlimit="10" stroke-width="0.541"/>
      <path id="Path-72" data-name="Path" d="M.044,4.111a6.3,6.3,0,0,1,5.1,1.845C7.659,8.287,15.39,15.98,16.993,17.427a9.057,9.057,0,0,0,2.7,1.826,14.032,14.032,0,0,0,1.632-3.229c.1-.874-4.89-8.149-8.659-11.738S4.065-.114,2.914.012-.33,2.931.044,4.111Z" transform="translate(63.89 18.257)" fill="#263238" stroke="#263238" stroke-linecap="round" stroke-linejoin="round" stroke-miterlimit="10" stroke-width="0.541"/>
    </g>
    <g id="freepik--character-1--inject-4" transform="translate(44.679 12.627)">
      <path id="Path-73" data-name="Path" d="M.252.006S2.258-.149,2.258,1.094.412,2.784.106,2.017A3.548,3.548,0,0,1,.252.006Z" transform="translate(41.935 69.323)" fill="#999" stroke="#263238" stroke-miterlimit="10" stroke-width="0.541"/>
      <path id="Path-74" data-name="Path" d="M.26.006s2-.151,2,1.078S.411,2.774.1,2.007A3.48,3.48,0,0,1,.26.006Z" transform="translate(42.092 67.643)" fill="#fff" stroke="#263238" stroke-miterlimit="10" stroke-width="0.541"/>
      <path id="Path-75" data-name="Path" d="M.26.006s2-.155,2,1.078S.411,2.774.1,2.007A3.48,3.48,0,0,1,.26.006Z" transform="translate(42.476 65.914)" fill="#999" stroke="#263238" stroke-miterlimit="10" stroke-width="0.541"/>
      <path id="Path-76" data-name="Path" d="M.262.006s2-.151,2,1.078S.418,2.774.107,2.007A3.437,3.437,0,0,1,.262.006Z" transform="translate(42.144 64.831)" fill="#999" stroke="#263238" stroke-miterlimit="10" stroke-width="0.541"/>
      <path id="Path-77" data-name="Path" d="M.151,5.464S0,7.431,0,8.339a10.767,10.767,0,0,0,.3,2.117H28.58A4.515,4.515,0,0,0,27.065,7.13C25.4,5.469,20.11,4.1,18.75,4.1S13.005.476,12.248.025.151,5.464.151,5.464Z" transform="translate(0.864 165.063)" fill="#ffb76f" stroke="#263238" stroke-linecap="round" stroke-linejoin="round" stroke-miterlimit="10" stroke-width="0.541"/>
      <path id="Path-78" data-name="Path" d="M0,4.56c.087.563.2,1.015.2,1.015H28.478a4.515,4.515,0,0,0-1.515-3.327A12.611,12.611,0,0,0,22.334,0a13.6,13.6,0,0,1-.8,4.56Z" transform="translate(0.971 169.944)" fill="#fff" stroke="#263238" stroke-linecap="round" stroke-linejoin="round" stroke-miterlimit="10" stroke-width="0.541"/>
      <path id="Path-79" data-name="Path" d="M10.8,11.672S7.476,32.234,6.432,35.41,1.575,45.084.837,49.319s-1.209,6.8-.452,8.771.3,17.842.3,17.842a43.772,43.772,0,0,0-.452,5.9C.39,83.187.686,85,.686,85a4.045,4.045,0,0,0,2.72.452,16.281,16.281,0,0,0,4.235-2.268s4.371-2.268,5.143-3.327-.151-8.921-.151-12.549,1.51-19.8,2.569-22.072A116.186,116.186,0,0,0,21.554,23.92c2.117-10.431,3.667-15.234.452-21.625S11.254,4.111,10.8,11.672Z" transform="translate(0.042 86.13)" fill="#263238" stroke="#263238" stroke-linecap="round" stroke-linejoin="round" stroke-miterlimit="10" stroke-width="0.541"/>
      <path id="Path-80" data-name="Path" d="M12.088,0s6.182,3.011,8.018,3.633S25.545,4.842,26.6,6.2a4.782,4.782,0,0,1,.607,3.477H.6A9.043,9.043,0,0,1,.147,4.822C.6,1.967,12.088,0,12.088,0Z" transform="translate(6.011 165.991)" fill="#ffb76f" stroke="#263238" stroke-linecap="round" stroke-linejoin="round" stroke-miterlimit="10" stroke-width="0.541"/>
      <path id="Path-81" data-name="Path" d="M.335,5.779H26.948A4.782,4.782,0,0,0,26.341,2.3C25.438,1.141,22.67.529,20.746,0V4.72H0A6.313,6.313,0,0,0,.335,5.779Z" transform="translate(6.274 169.89)" fill="#fff" stroke="#263238" stroke-linecap="round" stroke-linejoin="round" stroke-miterlimit="10" stroke-width="0.541"/>
      <path id="Path-82" data-name="Path" d="M2.507.8s-1.457,6.236-.568,9.64a35.32,35.32,0,0,0,3.516,8.615c.811,1.107.68,14.516.568,18.94S2.624,49.9.807,54.775s0,12.476,0,16.9-.117,7.144,0,9.756.34,5.342.34,5.342a15.433,15.433,0,0,0-.34,2.156,1.934,1.934,0,0,0,1.132,1.811,11.879,11.879,0,0,1,.117,1.816,3.229,3.229,0,0,0,.68,1.943s6.8-2.724,8.615-3.744S15.323,88.6,15.323,88.6a20.105,20.105,0,0,1,.112-3.516c.228-1.02-1.457-2.948-1.457-2.948s.117-6.124.228-8.508,4.633-18.289,5.978-27.356,4.2-20.528,4.856-27.332a173.471,173.471,0,0,0,.34-17.352c0-.355-16.215-.452-17.692-.68S2.925,0,2.925,0Z" transform="translate(3.612 77.726)" fill="#263238" stroke="#263238" stroke-linecap="round" stroke-linejoin="round" stroke-miterlimit="10" stroke-width="0.541"/>
      <path id="Path-83" data-name="Path" d="M0,0,8.508,1.02,8.62,5.9l-7.935.34L0,0Z" transform="translate(28.91 64.687)" fill="#999" stroke="#263238" stroke-miterlimit="10" stroke-width="0.541"/>
      <path id="Path-84" data-name="Path" d="M9.876,0S7.837,1.02,7.5,2.5,1.825,9.64.7,13.608.018,25.4.581,28.8,2.038,39,1.829,41.731s-1.36,6.692-.68,8.052,8.168,2.268,13.5,2.156,10.2.792,11.228-1.136.452-6.915.112-10.771S22.79,20.3,22.013,16.084a25.837,25.837,0,0,0-4.2-9.64C16.229,3.948,11.921.228,9.876,0Z" transform="translate(4.406 29.08)" fill="#fb7d00" stroke="#263238" stroke-linecap="round" stroke-linejoin="round" stroke-miterlimit="10" stroke-width="0.541"/>
      <path id="Path-85" data-name="Path" d="M20.414,4.563a13.823,13.823,0,0,1,3.4,4.56c.85,2.331.107,4.458.85,5.522s2.015,1.8,2.229,2.972-1.486,1.695-1.486,1.695v1.379s.636.214.636.641a2.37,2.37,0,0,1-.529,1.059,1.7,1.7,0,0,1,.107,1.272,1.457,1.457,0,0,1-.85.971,5.968,5.968,0,0,1-.743,2.428c-.636.971-2.545,1.486-4.031,1.486a14.291,14.291,0,0,1-3.929-.971,16.409,16.409,0,0,0-1.379,4.987c0,1.909.107,5.731.107,5.731s-4.779-4.138-5.944-5.41A19.246,19.246,0,0,0,6.2,30.55a15.825,15.825,0,0,0,.423-6.158c-.549-2.656-4.667-4.458-6.051-8.6S.255,5.928,4.5,3.063A19.8,19.8,0,0,1,16.81.091C19.462.411,23.065,3.077,20.414,4.563Z" transform="translate(7.928 0.016)" fill="#999" stroke="#263238" stroke-linecap="round" stroke-linejoin="round" stroke-miterlimit="10" stroke-width="0.541"/>
      <path id="Path-86" data-name="Path" d="M20.416,4.547C23.068,3.061,19.445.4,16.808.089A19.853,19.853,0,0,0,4.5,3.061C.253,5.926-.811,11.657.568,15.794c1.219,3.652,4.575,5.483,5.721,7.688,1.719-.345,1.8-1.641,1.6-3.123-.209-1.593.743-3.293,1.807-3.5s2.336-.971,2.122-1.913-.636-2.229.423-3.181,2.229-2.02,1.913-3.822-1.913-2.122.209-3.079S20.416,4.547,20.416,4.547Z" transform="translate(7.925 0.033)" fill="#263238" stroke="#263238" stroke-linecap="round" stroke-linejoin="round" stroke-miterlimit="10" stroke-width="0.541"/>
      <path id="Path-87" data-name="Path" d="M6.688.369A10.083,10.083,0,0,0,0,.791S-.106,5.162,2.55,5.249,7.324,4.739,6.688.369Z" transform="translate(25.262 12.258)" fill="none" stroke="#263238" stroke-linecap="round" stroke-linejoin="round" stroke-miterlimit="10" stroke-width="0.541"/>
      <path id="Path-88" data-name="Path" d="M0,0S1.909,0,2.122.316a2.769,2.769,0,0,1-.214,2.55" transform="translate(31.95 12.627)" fill="none" stroke="#263238" stroke-linecap="round" stroke-linejoin="round" stroke-miterlimit="10" stroke-width="0.541"/>
      <path id="Path-89" data-name="Path" d="M9.125,0,0,3.186l.107.423,4.987-1.7.85.214,3.2-.709L9.125,0Z" transform="translate(16.138 13.068)" fill="#263238" stroke="#263238" stroke-linecap="round" stroke-linejoin="round" stroke-miterlimit="10" stroke-width="0.541"/>
      <path id="Path-90" data-name="Path" d="M4.716,2.23A3.021,3.021,0,0,0,1.744,0C-.684,0-.063,3.293.573,4.672s2.336,2.972,4.036,1.7" transform="translate(13.738 15.613)" fill="#999" stroke="#263238" stroke-linecap="round" stroke-linejoin="round" stroke-miterlimit="10" stroke-width="0.541"/>
      <path id="Path-91" data-name="Path" d="M0,.921A4.788,4.788,0,0,1,3.176.013" transform="translate(26.87 11.035)" fill="none" stroke="#263238" stroke-linecap="round" stroke-linejoin="round" stroke-miterlimit="10" stroke-width="0.541"/>
      <path id="Path-92" data-name="Path" d="M2.475,1.136S1.349,2.268.533,1.36.081,0,.081,0" transform="translate(30.854 18.192)" fill="none" stroke="#263238" stroke-linecap="round" stroke-linejoin="round" stroke-miterlimit="10" stroke-width="0.541"/>
      <path id="Path-93" data-name="Path" d="M0,.2a2.822,2.822,0,0,0,1.583,2.04C3.04,3.04,4.609,2,4.628,1.272A5.609,5.609,0,0,0,4.521,0,8.518,8.518,0,0,1,0,.2Z" transform="translate(28.915 22.412)" fill="#787878" stroke="#263238" stroke-linecap="round" stroke-linejoin="round" stroke-miterlimit="10" stroke-width="0.541"/>
      <path id="Path-94" data-name="Path" d="M5.735.641C5.735.214,5.1,0,5.1,0A22.339,22.339,0,0,1,2.953,1.112,6.313,6.313,0,0,1,0,1.452a15.132,15.132,0,0,0,2.5.8A3.652,3.652,0,0,0,5.206,1.7,2.37,2.37,0,0,0,5.735.641Z" transform="translate(28.23 20.727)" fill="#595959" stroke="#263238" stroke-linecap="round" stroke-linejoin="round" stroke-miterlimit="10" stroke-width="0.541"/>
      <path id="Path-95" data-name="Path" d="M0,.413A6.469,6.469,0,0,1,2.045.073" transform="translate(27.89 14.04)" fill="none" stroke="#263238" stroke-linecap="round" stroke-linejoin="round" stroke-miterlimit="10" stroke-width="1.083"/>
      <path id="Path-96" data-name="Path" d="M0,4.992s6.8,8.164,8.168,9.752a24.282,24.282,0,0,1,2.38,3.4l1.136,1.7,2.38-4.759a29.624,29.624,0,0,1-1.457-3.856C11.816,8.732,8.528,0,8.528,0S5.1,4.992,0,4.992Z" transform="translate(6.231 70.811)" fill="#999" stroke="#263238" stroke-linecap="round" stroke-linejoin="round" stroke-miterlimit="10" stroke-width="0.541"/>
      <path id="Path-97" data-name="Path" d="M13.529.251a4.648,4.648,0,0,0-5.1,1.457,12.841,12.841,0,0,0-3.4,7.26C4.686,11.464.261,24.615.033,27.335a7.316,7.316,0,0,0,.8,4.312,1.8,1.8,0,0,0,.228,2.268c1.02,1.248,1.457,1.36,1.457,1.36a2.108,2.108,0,0,0,.923,1.253c.68.34,4.2-.34,6.692-1.7s2.948-2.724,2.948-3.856a4.371,4.371,0,0,0-.34-1.816,3.467,3.467,0,0,1,0-1.248,6.354,6.354,0,0,0-.8-2.491s6.24-12.588,6.124-16.9" transform="translate(2.682 39.717)" fill="#fb7d00" stroke="#263238" stroke-linecap="round" stroke-linejoin="round" stroke-miterlimit="10" stroke-width="0.541"/>
      <path id="Path-98" data-name="Path" d="M4.3,7.826a.452.452,0,0,1-.452-.418L3.547,3.9.148.789A.454.454,0,1,1,.76.119L4.3,3.348a.447.447,0,0,1,.146.3l.311,3.691a.486.486,0,0,1-.418.486Z" transform="translate(35.109 54.477)" fill="#fff" stroke="#263238" stroke-miterlimit="10" stroke-width="0.541"/>
      <path id="Path-99" data-name="Path" d="M7.153,12.6H1.127L0,0H8.285L7.153,12.6Z" transform="translate(35.223 62.001)" fill="#fb7d00" stroke="#263238" stroke-linecap="round" stroke-linejoin="round" stroke-miterlimit="10" stroke-width="0.541"/>
      <rect id="Rectangle" width="9.222" height="2.307" transform="translate(34.752 61.234)" fill="#fff" stroke="#263238" stroke-linecap="round" stroke-linejoin="round" stroke-miterlimit="10" stroke-width="0.541"/>
      <path id="Path-100" data-name="Path" d="M1.845.008S0-.148,0,.93s.306,3.841,1.535,4S2.307,2.159,1.845.008Z" transform="translate(33.562 64.762)" fill="#999" stroke="#263238" stroke-miterlimit="10" stroke-width="0.541"/>
    </g>
    <g id="freepik--Floor--inject-4" transform="translate(15.055 187.941)">
      <path id="Path-101" data-name="Path" d="M0,.271H192.8" transform="translate(0 0.125)" fill="none" stroke="#263238" stroke-linecap="round" stroke-linejoin="round" stroke-miterlimit="10" stroke-width="0.541"/>
    </g>
  </g>
</svg>
