<svg width="206" height="160" viewBox="0 0 206 160" fill="none" xmlns="http://www.w3.org/2000/svg">
<path d="M47.8974 154.868C47.8974 154.868 69.41 166.041 93.9658 154.263C118.521 142.485 126.49 119.664 139.254 102.499C145.932 93.535 156.859 88.5154 165.19 80.9591C191.839 56.8112 182.221 16.4213 157.845 5.35576C136.74 -4.23527 112.359 -0.797737 82.1473 15.4398C51.9355 31.6773 30.1585 42.1558 14.3064 74.5143C-1.54573 106.873 21.168 139.213 47.8974 154.868Z" fill="#ADC7F7"/>
<path opacity="0.7" d="M47.8974 154.868C47.8974 154.868 69.41 166.041 93.9658 154.263C118.521 142.485 126.49 119.664 139.254 102.499C145.932 93.535 156.859 88.5154 165.19 80.9591C191.839 56.8112 182.221 16.4213 157.845 5.35576C136.74 -4.23527 112.359 -0.797737 82.1473 15.4398C51.9355 31.6773 30.1585 42.1558 14.3064 74.5143C-1.54573 106.873 21.168 139.213 47.8974 154.868Z" fill="white"/>
<path d="M178.613 140.787C178.613 140.787 177.134 134.454 178.237 128.829C179.339 123.205 181.974 126.96 184.959 123.222C187.944 119.485 186.456 112.385 189.817 109.396C193.179 106.407 198.042 106.779 199.162 101.172C200.282 95.5653 201.031 91.0835 203.272 91.832C205.513 92.5804 201.403 99.3031 201.403 103.417C201.403 107.532 203.644 110.14 202.151 114.254C200.659 118.369 194.304 116.867 194.304 121.726C194.304 126.584 196.921 131.442 194.676 134.808C192.43 138.174 186.456 138.918 185.712 140.787C184.968 142.655 183.095 146.017 181.23 146.017C179.366 146.017 178.613 140.787 178.613 140.787Z" fill="#BFBFBF"/>
<path d="M177.394 140.854C177.771 139.733 177.022 130.017 173.661 128.148C170.3 126.279 166.557 127.027 164.697 123.666C162.837 120.305 162.829 118.808 160.964 118.436C159.1 118.064 150.123 116.567 151.248 118.436C152.372 120.305 159.095 117.315 159.095 121.049C159.095 124.782 158.347 130.765 160.588 132.253C162.829 133.741 168.812 133.374 168.435 136.735C168.059 140.096 166.943 141.217 168.812 142.337C170.681 143.458 175.911 148.32 176.659 144.578L177.394 140.854Z" fill="#BFBFBF"/>
<path d="M181.553 149.091C181.553 149.091 179.814 143.655 184.601 133.643C189.387 123.63 192.87 116.016 195.048 112.099" stroke="#263238" stroke-width="0.5"/>
<path d="M177.636 149.965C177.636 149.965 176.987 147.352 174.808 140.173C172.63 132.993 170.022 131.03 166.32 128.636C162.618 126.243 162.403 122.326 161.753 121.237" stroke="#263238" stroke-width="0.5"/>
<path d="M186.779 146.048C186.779 146.048 187.227 142.131 190.696 141.042C194.165 139.953 197.441 140.388 198.096 137.994C198.75 135.601 198.746 133.208 200.269 131.899C201.793 130.59 203.752 129.941 203.971 130.595C204.191 131.249 201.793 131.684 201.793 133.858C201.793 136.031 205.056 141.477 200.269 143.655C195.483 145.833 191.566 143.87 189.827 145.394C188.088 146.918 186.994 148.007 186.994 148.007L186.779 146.048Z" fill="#BFBFBF"/>
<path d="M186.344 149.965C186.344 149.965 187.89 144.314 191.565 143.001C195.24 141.687 199.399 144.524 201.138 141.911C202.877 139.299 201.586 136.69 201.358 134.947" stroke="#263238" stroke-width="0.5"/>
<path d="M188.787 149.091H175.297C175.008 149.091 174.732 149.206 174.528 149.411C174.324 149.615 174.211 149.892 174.212 150.18C174.211 150.469 174.324 150.746 174.528 150.95C174.732 151.155 175.008 151.269 175.297 151.269H175.409L176.457 154.026C176.624 154.462 177.043 154.751 177.511 154.752H186.577C187.045 154.751 187.463 154.462 187.63 154.026L188.684 151.269H188.787C189.388 151.269 189.876 150.782 189.876 150.18C189.876 149.579 189.388 149.091 188.787 149.091Z" fill="#263238"/>
<circle cx="43.9039" cy="43.1821" r="14.3014" stroke="#263238" stroke-width="0.5" stroke-linecap="round" stroke-linejoin="round"/>
<circle cx="43.9092" cy="43.1767" r="11.8499" transform="rotate(-8.96 43.9092 43.1767)" stroke="#263238" stroke-width="0.5" stroke-linecap="round" stroke-linejoin="round"/>
<path d="M36.3438 43.1821H43.9045V54.0863" stroke="#263238" stroke-width="0.5" stroke-linecap="round" stroke-linejoin="round"/>
<path d="M109.796 152.354C109.796 151.03 110.869 149.956 112.194 149.956C113.518 149.956 114.591 151.03 114.591 152.354C114.591 153.678 113.518 154.752 112.194 154.752C111.557 154.753 110.947 154.501 110.497 154.051C110.047 153.601 109.795 152.99 109.796 152.354Z" fill="#263238" stroke="#263238" stroke-width="0.5" stroke-linecap="round" stroke-linejoin="round"/>
<path d="M110.992 152.354C110.99 151.868 111.282 151.429 111.731 151.241C112.179 151.054 112.697 151.156 113.041 151.499C113.385 151.842 113.489 152.359 113.303 152.808C113.118 153.258 112.68 153.551 112.193 153.551C111.532 153.551 110.995 153.016 110.992 152.354Z" fill="white" stroke="#263238" stroke-width="0.5" stroke-linecap="round" stroke-linejoin="round"/>
<path d="M84.1104 152.354C84.1104 151.03 85.1839 149.956 86.5081 149.956C87.8324 149.956 88.9059 151.03 88.9059 152.354C88.9059 153.678 87.8324 154.752 86.5081 154.752C85.8722 154.752 85.2623 154.499 84.8126 154.05C84.363 153.6 84.1104 152.99 84.1104 152.354H84.1104Z" fill="#263238" stroke="#263238" stroke-width="0.5" stroke-linecap="round" stroke-linejoin="round"/>
<path d="M85.3115 152.354C85.3097 151.867 85.6017 151.428 86.0509 151.241C86.5002 151.054 87.0179 151.156 87.362 151.5C87.7061 151.844 87.8085 152.362 87.6215 152.811C87.4344 153.261 86.9948 153.553 86.5082 153.551C85.8483 153.548 85.314 153.014 85.3115 152.354Z" fill="white" stroke="#263238" stroke-width="0.5" stroke-linecap="round" stroke-linejoin="round"/>
<path d="M75.7207 152.354C75.7207 151.03 76.7942 149.956 78.1185 149.956C79.4427 149.956 80.5162 151.03 80.5162 152.354C80.5162 153.678 79.4427 154.752 78.1185 154.752C77.4822 154.753 76.8716 154.501 76.4217 154.051C75.9718 153.601 75.7195 152.99 75.7207 152.354Z" fill="#263238" stroke="#263238" stroke-width="0.5" stroke-linecap="round" stroke-linejoin="round"/>
<path d="M76.917 152.354C76.9152 151.868 77.2067 151.429 77.6554 151.241C78.104 151.054 78.6214 151.156 78.9658 151.499C79.3103 151.842 79.4139 152.359 79.2282 152.808C79.0426 153.258 78.6043 153.551 78.1181 153.551C77.4565 153.551 76.9195 153.016 76.917 152.354Z" fill="white" stroke="#263238" stroke-width="0.5" stroke-linecap="round" stroke-linejoin="round"/>
<path d="M95.2969 149.611H90.228V123.662H95.2834V149.611H95.2969Z" fill="#263238" stroke="#263238" stroke-width="0.5" stroke-linecap="round" stroke-linejoin="round"/>
<rect x="96.6504" y="149.611" width="7.77143" height="18.335" transform="rotate(180 96.6504 149.611)" fill="#263238" stroke="#263238" stroke-width="0.5" stroke-linecap="round" stroke-linejoin="round"/>
<path d="M104.448 119.31H97.9588V105.354H104.462V119.287L104.448 119.31Z" fill="#263238" stroke="#263238" stroke-width="0.5" stroke-linecap="round" stroke-linejoin="round"/>
<path d="M88.3596 105.322H113.753C114.953 105.321 116.101 104.837 116.938 103.978C117.775 103.119 118.23 101.959 118.199 100.76L117.59 75.9709C117.529 73.5568 115.554 71.6317 113.139 71.6325H92.1736C89.976 71.6313 88.1066 73.2342 87.7724 75.4062L83.9629 100.195C83.7655 101.478 84.1382 102.783 84.9832 103.769C85.8282 104.754 87.0614 105.322 88.3596 105.322Z" fill="#ADC7F7" stroke="#263238" stroke-width="0.5" stroke-linecap="round" stroke-linejoin="round"/>
<path d="M96.6592 124.553L107.796 131.89" stroke="#263238" stroke-width="0.5" stroke-linecap="round" stroke-linejoin="round"/>
<path d="M108.218 130.779L110.118 132.056C110.427 132.266 110.626 132.604 110.66 132.976C110.693 133.348 110.559 133.716 110.293 133.979L110.159 134.104C109.706 134.548 108.99 134.579 108.501 134.176L106.771 132.737C106.506 132.521 106.345 132.204 106.325 131.864C106.306 131.523 106.43 131.189 106.668 130.945C107.077 130.523 107.729 130.453 108.218 130.779Z" fill="#263238" stroke="#263238" stroke-width="0.5" stroke-linecap="round" stroke-linejoin="round"/>
<path d="M72.1122 125.822H113.412C115.612 125.822 117.396 124.038 117.396 121.838C117.396 119.637 115.612 117.853 113.412 117.853H72.1122C69.9118 117.853 68.1279 119.637 68.1279 121.838C68.1279 124.038 69.9118 125.822 72.1122 125.822Z" fill="#ADC7F7" stroke="#263238" stroke-width="0.5" stroke-linecap="round" stroke-linejoin="round"/>
<path d="M68.155 121.354C68.4615 119.33 70.2141 117.844 72.2603 117.871H93.6832C95.7421 117.836 97.5072 119.334 97.8065 121.371C97.9478 122.506 97.5953 123.647 96.8383 124.505C96.0813 125.362 94.9927 125.853 93.8491 125.853H72.1124C70.9652 125.854 69.8733 125.36 69.1157 124.499C68.358 123.637 68.008 122.491 68.155 121.354Z" fill="#ADC7F7" stroke="#263238" stroke-width="0.5" stroke-linecap="round" stroke-linejoin="round"/>
<path d="M74.9492 151.059H114.604C114.602 149.86 113.629 148.89 112.43 148.89H77.1184C75.9204 148.89 74.9492 149.861 74.9492 151.059Z" fill="#263238" stroke="#263238" stroke-width="0.5" stroke-linecap="round" stroke-linejoin="round"/>
<path d="M82.0087 151.059H94.9163V148.89H84.16C82.9613 148.89 81.9888 149.86 81.9863 151.059H82.0087Z" fill="#263238" stroke="#263238" stroke-width="0.5" stroke-linecap="round" stroke-linejoin="round"/>
<path d="M79.2384 101.19L76.3791 105.9C76.3791 105.9 66.3802 106.904 60.6659 108.186C54.9516 109.468 53.8087 115.76 53.5219 117.047C53.2037 118.481 51.4334 148.459 52.0026 148.603C52.5718 148.746 56.8608 149.172 56.8608 149.172C56.8608 149.172 64.0945 120.04 66.2368 119.615C68.3791 119.189 100.092 119.901 104.807 117.329C109.522 114.756 110.665 107.33 107.944 102.189C105.224 97.0487 79.2384 101.19 79.2384 101.19Z" fill="#263238" stroke="#263238" stroke-width="0.5" stroke-linecap="round" stroke-linejoin="round"/>
<path d="M98.6677 106.904C98.6677 106.904 85.3792 106.904 78.9478 107.473C72.5164 108.043 68.5187 112.901 68.8055 117.19C69.0923 121.479 74.2867 149.602 74.2867 149.602L79.2839 149.154L81.973 119.018C81.973 119.018 86.4548 121.923 103.84 117.459" fill="#263238"/>
<path d="M98.6677 106.904C98.6677 106.904 85.3792 106.904 78.9478 107.473C72.5164 108.043 68.5187 112.901 68.8055 117.19C69.0923 121.479 74.2867 149.602 74.2867 149.602L79.2839 149.154L81.973 119.018C81.973 119.018 86.4548 121.923 103.84 117.459" stroke="#263238" stroke-width="0.5" stroke-linecap="round" stroke-linejoin="round"/>
<path d="M129.95 61.0465C129.502 60.7597 128.095 64.4751 128.095 64.4751C127.19 64.4266 126.283 64.4266 125.379 64.4751C123.81 64.6185 122.524 66.7608 122.524 68.1905C122.524 69.6202 115.949 81.0443 115.949 81.0443C115.949 81.0443 110.235 71.6325 108.236 70.0459C106.237 68.4594 98.8239 67.0476 98.8239 67.0476C95.7903 66.5724 92.7012 66.5724 89.6676 67.0476C89.6676 67.0476 82.2413 68.4728 80.2559 70.0459C78.2704 71.619 72.5382 81.0443 72.5382 81.0443C72.5382 81.0443 65.9679 69.6157 65.9679 68.1905C65.9679 66.7653 64.6816 64.605 63.113 64.4751C62.2083 64.4266 61.3017 64.4266 60.397 64.4751C60.397 64.4751 58.9673 60.7597 58.5416 61.0465C58.1158 61.3333 58.8239 65.9048 59.2542 66.9042C59.6844 67.9036 63.2564 68.6162 63.2564 68.6162C63.2564 68.6162 67.6844 85.4723 69.1096 87.758C70.5349 90.0437 72.1124 92.9031 75.9668 91.1866C79.8211 89.47 84.6839 83.9036 84.6839 83.9036L92.8363 84.0291H93.4503H93.9657L103.826 83.9036C103.826 83.9036 108.684 89.4745 112.538 91.1866C116.393 92.8986 117.97 90.0437 119.395 87.758C120.821 85.4723 125.235 68.6162 125.235 68.6162C125.235 68.6162 128.821 67.9036 129.237 66.9042C129.654 65.9048 130.38 61.3333 129.95 61.0465Z" fill="#9C9C9C" stroke="#263238" stroke-width="0.5" stroke-linecap="round" stroke-linejoin="round"/>
<path d="M118.261 76.9344C117.002 79.2201 115.949 81.0442 115.949 81.0442C115.949 81.0442 110.234 71.6325 108.236 70.0459C106.237 68.4594 98.8238 67.0476 98.8238 67.0476C95.7902 66.5724 92.7011 66.5724 89.6675 67.0476C89.6675 67.0476 82.2412 68.4728 80.2557 70.0459C78.2703 71.619 72.5381 81.0442 72.5381 81.0442C72.5381 81.0442 71.3997 79.0678 70.0731 76.6521L66.1426 79.0454C67.2899 82.9848 68.4866 86.763 69.1095 87.758C70.5392 90.0437 72.1123 92.9031 75.9667 91.1865C79.821 89.47 84.6838 83.9036 84.6838 83.9036L92.8361 84.0291H93.4501H93.9655L103.825 83.9036C103.825 83.9036 108.684 89.4745 112.538 91.1865C116.392 92.8986 117.97 90.0437 119.395 87.758C120.023 86.7585 121.224 82.9669 122.376 79.014L118.261 76.9344Z" fill="white"/>
<path d="M114.838 83.6885C114.762 82.7518 114.69 81.8644 115.071 81.2952C115.248 81.0289 115.443 80.7744 115.654 80.5333L115.089 79.637C114.757 79.9745 114.457 80.3421 114.193 80.735C113.614 81.6045 113.7 82.7115 113.789 83.7871C113.861 84.7238 113.933 85.6067 113.552 86.1804C113.224 86.6689 112.906 86.6286 112.032 86.4493C111.204 86.2105 110.324 86.2105 109.496 86.4493C108.762 86.7177 108.208 87.3318 108.017 88.0896C108.299 88.3361 108.59 88.5826 108.886 88.8202C109.007 88.1793 109.276 87.6101 109.823 87.4308C110.48 87.2514 111.173 87.2592 111.826 87.4532C112.696 87.6325 113.686 87.8386 114.412 86.7451C114.999 85.8711 114.91 84.7641 114.838 83.6885Z" fill="#ADC7F7"/>
<path d="M103.808 83.9036L104.149 84.2846C104.456 84.1577 104.749 83.9985 105.023 83.8095C105.337 83.7409 105.663 83.7409 105.977 83.8095C107.043 83.951 108.126 83.8794 109.164 83.5989C110.898 83.1014 110.957 81.219 111.019 79.5652C111.051 78.642 111.082 77.6829 111.4 77.1047C111.709 76.5191 112.389 76.2337 113.023 76.4235C112.794 76.0695 112.574 75.7154 112.319 75.3613C111.533 75.4258 110.838 75.899 110.49 76.6073C110.042 77.4005 110.02 78.4851 109.984 79.5294C109.926 81.2638 109.818 82.3395 108.882 82.6039C107.966 82.8512 107.011 82.9121 106.071 82.7832C105.395 82.7249 104.812 82.6711 104.373 83.0207C103.697 83.387 102.987 83.6872 102.253 83.9171L103.808 83.9036Z" fill="#ADC7F7"/>
<path d="M79.2385 86.4449C78.4098 86.206 77.5305 86.206 76.7018 86.4449C75.8279 86.6241 75.5096 86.6645 75.1825 86.1759C74.8015 85.6023 74.8732 84.7194 74.9494 83.7827C75.0346 82.707 75.1197 81.6 74.5416 80.7306C74.2435 80.269 73.8931 79.8434 73.4973 79.4622L72.9326 80.3586C73.2106 80.647 73.4611 80.9605 73.6811 81.2953C74.062 81.8645 73.9903 82.7519 73.9141 83.6885C73.829 84.7642 73.7393 85.8712 74.322 86.7407C75.048 87.8342 76.0385 87.637 76.908 87.4488C77.5606 87.2547 78.2545 87.247 78.9113 87.4264C79.4011 87.6405 79.7418 88.097 79.8077 88.6275C80.099 88.3899 80.3814 88.1479 80.6592 87.9014C80.4368 87.2221 79.9121 86.6842 79.2385 86.4449Z" fill="#ADC7F7"/>
<path d="M82.6722 82.7697C81.7314 82.8987 80.7744 82.8377 79.8576 82.5905C78.9209 82.326 78.8133 81.2459 78.7551 79.5159C78.7192 78.4717 78.6834 77.3871 78.2486 76.5938C77.8544 75.8013 77.0359 75.3099 76.1512 75.3344C75.8912 75.7244 75.6357 76.1143 75.3848 76.4997C75.9091 76.3204 76.8413 76.1725 77.3388 77.0913C77.657 77.6694 77.6884 78.6286 77.7198 79.5518C77.778 81.2101 77.8453 83.0924 79.5752 83.5854C80.613 83.866 81.6961 83.9376 82.7618 83.7961C83.0763 83.7275 83.4019 83.7275 83.7164 83.7961C83.928 83.9465 84.1548 84.0742 84.3932 84.177L84.6576 83.8857L86.5131 83.9126C85.7696 83.6742 85.0507 83.3651 84.3663 82.9893C83.9136 82.6577 83.3444 82.7115 82.6722 82.7697Z" fill="#ADC7F7"/>
<g opacity="0.5">
<path d="M114.838 83.6885C114.762 82.7518 114.69 81.8644 115.071 81.2952C115.248 81.0289 115.443 80.7744 115.654 80.5333L115.089 79.637C114.757 79.9745 114.457 80.3421 114.193 80.735C113.614 81.6045 113.7 82.7115 113.789 83.7871C113.861 84.7238 113.933 85.6067 113.552 86.1804C113.224 86.6689 112.906 86.6286 112.032 86.4493C111.204 86.2105 110.324 86.2105 109.496 86.4493C108.762 86.7177 108.208 87.3318 108.017 88.0896C108.299 88.3361 108.59 88.5826 108.886 88.8202C109.007 88.1793 109.276 87.6101 109.823 87.4308C110.48 87.2514 111.173 87.2592 111.826 87.4532C112.696 87.6325 113.686 87.8386 114.412 86.7451C114.999 85.8711 114.91 84.7641 114.838 83.6885Z" fill="white"/>
<path d="M103.808 83.9036L104.149 84.2846C104.456 84.1577 104.749 83.9985 105.023 83.8095C105.337 83.7409 105.663 83.7409 105.977 83.8095C107.043 83.951 108.126 83.8794 109.164 83.5989C110.898 83.1014 110.957 81.219 111.019 79.5652C111.051 78.642 111.082 77.6829 111.4 77.1047C111.709 76.5191 112.389 76.2337 113.023 76.4235C112.794 76.0695 112.574 75.7154 112.319 75.3613C111.533 75.4258 110.838 75.899 110.49 76.6073C110.042 77.4005 110.02 78.4851 109.984 79.5294C109.926 81.2638 109.818 82.3395 108.882 82.6039C107.966 82.8512 107.011 82.9121 106.071 82.7832C105.395 82.7249 104.812 82.6711 104.373 83.0207C103.697 83.387 102.987 83.6872 102.253 83.9171L103.808 83.9036Z" fill="white"/>
<path d="M79.2385 86.4449C78.4098 86.206 77.5305 86.206 76.7018 86.4449C75.8279 86.6241 75.5096 86.6645 75.1825 86.1759C74.8015 85.6023 74.8732 84.7194 74.9494 83.7827C75.0346 82.707 75.1197 81.6 74.5416 80.7306C74.2435 80.269 73.8931 79.8434 73.4973 79.4622L72.9326 80.3586C73.2106 80.647 73.4611 80.9605 73.6811 81.2953C74.062 81.8645 73.9903 82.7519 73.9141 83.6885C73.829 84.7642 73.7393 85.8712 74.322 86.7407C75.048 87.8342 76.0385 87.637 76.908 87.4488C77.5606 87.2547 78.2545 87.247 78.9113 87.4264C79.4011 87.6405 79.7418 88.097 79.8077 88.6275C80.099 88.3899 80.3814 88.1479 80.6592 87.9014C80.4368 87.2221 79.9121 86.6842 79.2385 86.4449Z" fill="white"/>
<path d="M82.6722 82.7697C81.7314 82.8987 80.7744 82.8377 79.8576 82.5905C78.9209 82.326 78.8133 81.2459 78.7551 79.5159C78.7192 78.4717 78.6834 77.3871 78.2486 76.5938C77.8544 75.8013 77.0359 75.3099 76.1512 75.3344C75.8912 75.7244 75.6357 76.1143 75.3848 76.4997C75.9091 76.3204 76.8413 76.1725 77.3388 77.0913C77.657 77.6694 77.6884 78.6286 77.7198 79.5518C77.778 81.2101 77.8453 83.0924 79.5752 83.5854C80.613 83.866 81.6961 83.9376 82.7618 83.7961C83.0763 83.7275 83.4019 83.7275 83.7164 83.7961C83.928 83.9465 84.1548 84.0742 84.3932 84.177L84.6576 83.8857L86.5131 83.9126C85.7696 83.6742 85.0507 83.3651 84.3663 82.9893C83.9136 82.6577 83.3444 82.7115 82.6722 82.7697Z" fill="white"/>
</g>
<path fill-rule="evenodd" clip-rule="evenodd" d="M118.261 76.9344C117.002 79.2201 115.949 81.0442 115.949 81.0442C115.949 81.0442 110.234 71.6325 108.236 70.0459C106.237 68.4594 98.8238 67.0476 98.8238 67.0476C95.7902 66.5724 92.7011 66.5724 89.6675 67.0476C89.6675 67.0476 82.2412 68.4728 80.2557 70.0459C78.2703 71.619 72.5381 81.0442 72.5381 81.0442C72.5381 81.0442 71.3997 79.0678 70.0731 76.6521L66.1426 79.0454C67.2899 82.9849 68.4866 86.763 69.1095 87.758C70.5392 90.0437 72.1123 92.9031 75.9667 91.1865C79.821 89.47 84.6838 83.9036 84.6838 83.9036L92.8361 84.0291V84.0291H93.4501H93.9655V84.0291L103.825 83.9036C103.825 83.9036 108.684 89.4745 112.538 91.1865C116.392 92.8986 117.97 90.0437 119.395 87.758C120.023 86.7585 121.224 82.9669 122.376 79.014L118.261 76.9344Z" stroke="#263238" stroke-width="0.5" stroke-linecap="round" stroke-linejoin="round"/>
<path d="M81.9501 77.0465C81.9501 77.0465 80.0947 81.0442 80.5249 83.6168C80.7276 84.6534 80.8698 85.7009 80.9507 86.754C80.9507 86.754 78.2616 94.1849 77.8134 96.8963C77.416 99.1959 78.3575 101.522 80.2426 102.897C81.8157 104.04 103.243 104.327 106.528 103.471C109.813 102.615 109.527 99.4689 109.383 96.614C109.24 93.7591 108.115 87.619 108.115 87.619C108.115 87.619 108.563 78.9019 106.69 76.7596" fill="white"/>
<path fill-rule="evenodd" clip-rule="evenodd" d="M96.3457 81.8689C96.8696 82.4226 97.5876 82.7519 98.349 82.7877C99.3717 82.7877 100.303 82.094 101.285 81.3633L101.334 81.3266C101.364 81.3038 101.395 81.281 101.425 81.258C101.701 81.0507 101.986 80.8368 102.293 80.623L102.459 80.5109C103.126 80.0481 103.512 79.7803 103.924 79.7295C104.49 79.6598 105.106 79.9986 106.569 80.8022L107.331 81.2235C109.728 82.5457 110.033 82.6353 111.521 80.9457C111.741 80.6947 111.996 80.4078 112.305 80.0717C114.233 78.0101 114.51 78.1356 116.052 78.8392L116.2 78.9064C116.368 78.9825 116.564 78.9631 116.714 78.8555C116.864 78.7479 116.945 78.5686 116.927 78.3849C116.909 78.2013 116.794 78.0413 116.626 77.9653L116.478 77.898C114.618 77.051 113.861 76.8852 111.548 79.3636C111.225 79.7087 110.961 80.0045 110.741 80.2599C110.673 80.3375 110.61 80.4097 110.551 80.4767C110.146 80.9402 109.957 81.1558 109.71 81.1832C109.446 81.2126 108.894 80.9075 108.01 80.419C107.951 80.3862 107.89 80.3526 107.828 80.3182L107.062 79.8969C104.207 78.3149 103.974 78.1938 101.863 79.6594L101.701 79.7714C101.423 79.9619 101.161 80.158 100.909 80.3464C100.841 80.3974 100.773 80.4479 100.706 80.4975C99.0706 81.73 98.2908 82.2275 97.0583 81.098C95.409 79.5877 93.4146 78.27 91.1199 79.9417C91.0221 80.0171 90.9197 80.0925 90.8173 80.1679C90.6944 80.2583 90.5715 80.3488 90.4566 80.4392L90.4518 80.4429C89.0698 81.4939 88.2364 82.1278 86.7278 81.1966C86.2796 80.9188 85.8762 80.6275 85.4863 80.3451C84.1238 79.3501 82.8376 78.4269 81.1659 79.7983C80.5429 80.3048 80.1664 80.5064 79.9289 80.4796C79.5128 80.4309 78.9175 79.639 78.0133 78.4363L77.9793 78.391L77.9031 78.2835C77.3797 77.4847 76.5264 76.9619 75.5771 76.8583C74.5999 76.8506 73.6592 77.2291 72.9597 77.9115C72.8614 78.0076 72.806 78.1393 72.806 78.2768C72.806 78.4142 72.8614 78.5459 72.9597 78.642C73.0564 78.7392 73.1879 78.7938 73.325 78.7938C73.4621 78.7938 73.5935 78.7392 73.6902 78.642C74.1786 78.171 74.827 77.9021 75.5054 77.8891C76.1515 77.9835 76.7243 78.355 77.074 78.9064L77.1546 79.014C78.3468 80.6095 78.9474 81.4028 79.8034 81.5059C80.4757 81.5955 81.0628 81.228 81.8202 80.6095C82.8376 79.7759 83.456 80.1614 84.8768 81.1922C85.2622 81.4745 85.7014 81.7927 86.1855 82.0885C88.3009 83.3927 89.6544 82.3619 91.0841 81.2684L91.716 80.7843C93.0964 79.7804 94.3961 80.0762 96.3457 81.8689ZM101.487 86.1726C101.43 86.2159 101.373 86.2589 101.316 86.3014L101.3 86.3137C100.324 87.0444 99.383 87.749 98.3446 87.7445C97.5861 87.7156 96.8683 87.3944 96.3412 86.8482C94.4006 85.0644 93.0919 84.7597 91.7115 85.7636L91.0661 86.2476C89.6364 87.3412 88.2829 88.372 86.1675 87.0678C85.6835 86.772 85.2443 86.4538 84.8589 86.1714C83.4381 85.1361 82.8196 84.7552 81.8023 85.5843C81.0448 86.1938 80.4398 86.5614 79.7855 86.4807C78.9294 86.3776 78.3289 85.5798 77.1367 83.9888L77.0561 83.8812C76.7099 83.3263 76.1353 82.9536 75.4874 82.8639C74.8091 82.8769 74.1607 83.1458 73.6723 83.6168C73.5756 83.714 73.4441 83.7686 73.307 83.7686C73.1699 83.7686 73.0385 83.714 72.9418 83.6168C72.8435 83.5207 72.7881 83.389 72.7881 83.2515C72.7881 83.1141 72.8435 82.9824 72.9418 82.8863C73.6413 82.2039 74.5819 81.8254 75.5591 81.8331C76.5085 81.9367 77.3618 82.4595 77.8852 83.2583L77.9614 83.3658L77.9954 83.4111C78.8995 84.6138 79.4949 85.4057 79.911 85.4543C80.1619 85.4857 80.525 85.2796 81.1479 84.7731C82.8196 83.4017 84.1238 84.3339 85.4684 85.3199C85.8583 85.6022 86.2617 85.8936 86.7098 86.1714C88.2184 87.1026 89.0519 86.4687 90.4338 85.4177L90.4387 85.414C90.6538 85.2482 90.8689 85.0824 91.102 84.9121C93.3967 83.2403 95.3911 84.5625 97.0404 86.0728C98.2729 87.2022 99.0527 86.7048 100.689 85.4723C101.002 85.2347 101.329 84.9882 101.684 84.7462L101.845 84.6342C103.955 83.1695 104.189 83.2985 107.039 84.8689L107.044 84.8717L107.81 85.293C108.796 85.8398 109.473 86.1849 109.692 86.158C109.912 86.1311 110.181 85.8487 110.723 85.2347C110.943 84.9793 111.207 84.6835 111.53 84.3384C113.847 81.86 114.609 82.0258 116.46 82.8728L116.608 82.9401C116.868 83.0576 116.983 83.3636 116.866 83.6235C116.748 83.8834 116.442 83.9988 116.182 83.8812L116.034 83.814L116.029 83.8118C114.492 83.1101 114.213 82.9826 112.287 85.0465C111.978 85.3782 111.723 85.6695 111.503 85.9205C110.002 87.6101 109.701 87.5205 107.313 86.1983L106.551 85.777L106.534 85.7676C104.023 84.3877 104.019 84.3857 102.441 85.4857L102.275 85.5978C101.998 85.7875 101.738 85.9831 101.487 86.1726Z" fill="#ADC7F7"/>
<path opacity="0.5" fill-rule="evenodd" clip-rule="evenodd" d="M96.3457 81.8689C96.8696 82.4226 97.5876 82.7519 98.349 82.7877C99.3717 82.7877 100.303 82.094 101.285 81.3633L101.334 81.3266C101.364 81.3038 101.395 81.281 101.425 81.258C101.701 81.0507 101.986 80.8368 102.293 80.623L102.459 80.5109C103.126 80.0481 103.512 79.7803 103.924 79.7295C104.49 79.6598 105.106 79.9986 106.569 80.8022L107.331 81.2235C109.728 82.5457 110.033 82.6353 111.521 80.9457C111.741 80.6947 111.996 80.4078 112.305 80.0717C114.233 78.0101 114.51 78.1356 116.052 78.8392L116.2 78.9064C116.368 78.9825 116.564 78.9631 116.714 78.8555C116.864 78.7479 116.945 78.5686 116.927 78.3849C116.909 78.2013 116.794 78.0413 116.626 77.9653L116.478 77.898C114.618 77.051 113.861 76.8852 111.548 79.3636C111.225 79.7087 110.961 80.0045 110.741 80.2599C110.673 80.3375 110.61 80.4097 110.551 80.4767C110.146 80.9402 109.957 81.1558 109.71 81.1832C109.446 81.2126 108.894 80.9075 108.01 80.419C107.951 80.3862 107.89 80.3526 107.828 80.3182L107.062 79.8969C104.207 78.3149 103.974 78.1938 101.863 79.6594L101.701 79.7714C101.423 79.9619 101.161 80.158 100.909 80.3464C100.841 80.3974 100.773 80.4479 100.706 80.4975C99.0706 81.73 98.2908 82.2275 97.0583 81.098C95.409 79.5877 93.4146 78.27 91.1199 79.9417C91.0221 80.0171 90.9197 80.0925 90.8173 80.1679C90.6944 80.2583 90.5715 80.3488 90.4566 80.4392L90.4518 80.4429C89.0698 81.4939 88.2364 82.1278 86.7278 81.1966C86.2796 80.9188 85.8762 80.6275 85.4863 80.3451C84.1238 79.3501 82.8376 78.4269 81.1659 79.7983C80.5429 80.3048 80.1664 80.5064 79.9289 80.4796C79.5128 80.4309 78.9175 79.639 78.0133 78.4363L77.9793 78.391L77.9031 78.2835C77.3797 77.4847 76.5264 76.9619 75.5771 76.8583C74.5999 76.8506 73.6592 77.2291 72.9597 77.9115C72.8614 78.0076 72.806 78.1393 72.806 78.2768C72.806 78.4142 72.8614 78.5459 72.9597 78.642C73.0564 78.7392 73.1879 78.7938 73.325 78.7938C73.4621 78.7938 73.5935 78.7392 73.6902 78.642C74.1786 78.171 74.827 77.9021 75.5054 77.8891C76.1515 77.9835 76.7243 78.355 77.074 78.9064L77.1546 79.014C78.3468 80.6095 78.9474 81.4028 79.8034 81.5059C80.4757 81.5955 81.0628 81.228 81.8202 80.6095C82.8376 79.7759 83.456 80.1614 84.8768 81.1922C85.2622 81.4745 85.7014 81.7927 86.1855 82.0885C88.3009 83.3927 89.6544 82.3619 91.0841 81.2684L91.716 80.7843C93.0964 79.7804 94.3961 80.0762 96.3457 81.8689ZM101.487 86.1726C101.43 86.2159 101.373 86.2589 101.316 86.3014L101.3 86.3137C100.324 87.0444 99.383 87.749 98.3446 87.7445C97.5861 87.7156 96.8683 87.3944 96.3412 86.8482C94.4006 85.0644 93.0919 84.7597 91.7115 85.7636L91.0661 86.2476C89.6364 87.3412 88.2829 88.372 86.1675 87.0678C85.6835 86.772 85.2443 86.4538 84.8589 86.1714C83.4381 85.1361 82.8196 84.7552 81.8023 85.5843C81.0448 86.1938 80.4398 86.5614 79.7855 86.4807C78.9294 86.3776 78.3289 85.5798 77.1367 83.9888L77.0561 83.8812C76.7099 83.3263 76.1353 82.9536 75.4874 82.8639C74.8091 82.8769 74.1607 83.1458 73.6723 83.6168C73.5756 83.714 73.4441 83.7686 73.307 83.7686C73.1699 83.7686 73.0385 83.714 72.9418 83.6168C72.8435 83.5207 72.7881 83.389 72.7881 83.2515C72.7881 83.1141 72.8435 82.9824 72.9418 82.8863C73.6413 82.2039 74.5819 81.8254 75.5591 81.8331C76.5085 81.9367 77.3618 82.4595 77.8852 83.2583L77.9614 83.3658L77.9954 83.4111C78.8995 84.6138 79.4949 85.4057 79.911 85.4543C80.1619 85.4857 80.525 85.2796 81.1479 84.7731C82.8196 83.4017 84.1238 84.3339 85.4684 85.3199C85.8583 85.6022 86.2617 85.8936 86.7098 86.1714C88.2184 87.1026 89.0519 86.4687 90.4338 85.4177L90.4387 85.414C90.6538 85.2482 90.8689 85.0824 91.102 84.9121C93.3967 83.2403 95.3911 84.5625 97.0404 86.0728C98.2729 87.2022 99.0527 86.7048 100.689 85.4723C101.002 85.2347 101.329 84.9882 101.684 84.7462L101.845 84.6342C103.955 83.1695 104.189 83.2985 107.039 84.8689L107.044 84.8717L107.81 85.293C108.796 85.8398 109.473 86.1849 109.692 86.158C109.912 86.1311 110.181 85.8487 110.723 85.2347C110.943 84.9793 111.207 84.6835 111.53 84.3384C113.847 81.86 114.609 82.0258 116.46 82.8728L116.608 82.9401C116.868 83.0576 116.983 83.3636 116.866 83.6235C116.748 83.8834 116.442 83.9988 116.182 83.8812L116.034 83.814L116.029 83.8118C114.492 83.1101 114.213 82.9826 112.287 85.0465C111.978 85.3782 111.723 85.6695 111.503 85.9205C110.002 87.6101 109.701 87.5205 107.313 86.1983L106.551 85.777L106.534 85.7676C104.023 84.3877 104.019 84.3857 102.441 85.4857L102.275 85.5978C101.998 85.7875 101.738 85.9831 101.487 86.1726Z" fill="white"/>
<path d="M81.9501 77.0465C81.9501 77.0465 80.0947 81.0442 80.5249 83.6168C80.7276 84.6534 80.8698 85.7009 80.9507 86.754C80.9507 86.754 78.2616 94.1849 77.8134 96.8963C77.416 99.1959 78.3575 101.522 80.2426 102.897C81.8157 104.04 103.243 104.327 106.528 103.471C109.813 102.615 109.527 99.4689 109.383 96.614C109.24 93.7591 108.115 87.619 108.115 87.619C108.115 87.619 108.563 78.9019 106.69 76.7596" stroke="#263238" stroke-width="0.5" stroke-linecap="round" stroke-linejoin="round"/>
<path d="M89.6548 67.0476L89.0453 67.1687C88.9869 67.4337 88.9553 67.704 88.9512 67.9754C88.9512 70.6958 91.8643 72.9053 95.4543 72.9053C99.0442 72.9053 101.953 70.6958 101.953 67.9754C101.953 67.8947 101.953 67.823 101.953 67.7423C100.218 67.2941 98.8156 67.0476 98.8156 67.0476C95.7805 66.5719 92.6899 66.5719 89.6548 67.0476Z" fill="#ADC7F7" stroke="#263238" stroke-width="0.5" stroke-linecap="round" stroke-linejoin="round"/>
<path d="M91.084 64.3317C91.084 64.3317 90.6358 67.7602 91.084 68.9031C91.5321 70.046 94.2212 72.1883 96.9417 71.3322C98.7624 70.7606 100.022 69.0986 100.079 67.1911V63.1933L91.2229 63.4801L91.084 64.3317Z" fill="#9C9C9C" stroke="#263238" stroke-width="0.5" stroke-linecap="round" stroke-linejoin="round"/>
<ellipse cx="95.6648" cy="52.9748" rx="10.1423" ry="9.92717" fill="#263238" stroke="#263238" stroke-width="0.5" stroke-linecap="round" stroke-linejoin="round"/>
<path d="M89.2379 56.3316C89.2379 56.3316 88.3819 54.3327 87.8083 56.1882C87.2346 58.0437 88.5253 60.3339 89.3814 60.4728C90.2374 60.6117 89.2379 56.3316 89.2379 56.3316Z" fill="#9C9C9C" stroke="#263238" stroke-width="0.5" stroke-linecap="round" stroke-linejoin="round"/>
<path d="M101.585 56.3316C101.585 56.3316 102.441 54.3327 103.014 56.1882C103.588 58.0437 102.297 60.3339 101.441 60.4728C100.585 60.6117 101.585 56.3316 101.585 56.3316Z" fill="#9C9C9C" stroke="#263238" stroke-width="0.5" stroke-linecap="round" stroke-linejoin="round"/>
<path d="M99.8859 49.6583C99.1109 49.0684 98.1245 48.8295 97.1655 48.9995C96.295 49.1698 95.407 49.233 94.5212 49.1877C93.096 49.0488 91.9531 48.4751 90.8103 49.6359C89.6674 50.7967 89.0938 56.0628 89.0938 58.7787C89.0938 61.4947 91.0837 65.3311 92.5223 66.3305C93.961 67.33 97.9498 67.1911 98.9492 66.3305C99.9487 65.47 101.522 62.3328 101.809 59.7602C102.095 57.1877 101.522 52.1905 100.953 50.9042C100.701 50.4102 100.335 49.9831 99.8859 49.6583Z" fill="#9C9C9C" stroke="#263238" stroke-width="0.5" stroke-linecap="round" stroke-linejoin="round"/>
<ellipse cx="93.5314" cy="55.8835" rx="0.533333" ry="0.87395" fill="#263238"/>
<path d="M98.2776 55.8835C98.2776 56.3675 98.0401 56.7574 97.7443 56.7574C97.4485 56.7574 97.2109 56.3675 97.2109 55.8835C97.2109 55.3994 97.453 55.0095 97.7443 55.0095C98.0356 55.0095 98.2776 55.4039 98.2776 55.8835Z" fill="#263238"/>
<path d="M96.2923 60.8269C96.2923 61.3064 96.0547 61.6964 95.7589 61.6964C95.4631 61.6964 95.2256 61.3064 95.2256 60.8269C95.2256 60.3473 95.4631 59.9529 95.7589 59.9529C96.0547 59.9529 96.2923 60.3429 96.2923 60.8269Z" fill="#263238"/>
<path d="M94.6918 56.9501C93.7954 58.3529 95.4985 59.2538 96.6324 58.4022C97.4077 57.8196 96.6324 56.9501 96.6324 56.9501" fill="#9C9C9C"/>
<path d="M94.6918 56.9501C93.7954 58.3529 95.4985 59.2538 96.6324 58.4022C97.4077 57.8196 96.6324 56.9501 96.6324 56.9501" stroke="#263238" stroke-width="0.5" stroke-linecap="round" stroke-linejoin="round"/>
<path d="M91.6895 53.9473C91.6895 53.9473 93.1416 52.6028 94.5981 53.2661" stroke="#263238" stroke-width="0.5" stroke-linecap="round" stroke-linejoin="round"/>
<path d="M97.0176 53.3647C97.0176 53.3647 98.3621 52.4908 99.6349 54.1401" stroke="#263238" stroke-width="0.5" stroke-linecap="round" stroke-linejoin="round"/>
<path d="M52.0026 148.603C52.0026 148.603 43.4199 150.283 43.4199 151.157C43.4199 152.031 54.3555 154.514 55.5208 154.658C56.686 154.801 56.8653 149.172 56.8653 149.172L52.0026 148.603Z" fill="white" stroke="#263238" stroke-width="0.5" stroke-linecap="round" stroke-linejoin="round"/>
<path d="M56.2378 153.82L43.9936 150.682C43.635 150.848 43.4199 151.01 43.4199 151.131C43.4199 152.027 54.3555 154.487 55.5208 154.631C55.821 154.694 56.0541 154.348 56.2378 153.82Z" fill="#ADC7F7" stroke="#263238" stroke-width="0.5" stroke-linecap="round" stroke-linejoin="round"/>
<path d="M74.2912 149.602C74.2912 149.602 65.583 153.345 66.1657 154.223C66.7483 155.101 78.1231 154.671 79.2884 154.514C80.4536 154.357 79.2884 149.172 79.2884 149.172L74.2912 149.602Z" fill="white" stroke="#263238" stroke-width="0.5" stroke-linecap="round" stroke-linejoin="round"/>
<path d="M66.4345 153.672C66.1791 153.9 66.0626 154.093 66.1477 154.223C66.7303 155.097 78.1051 154.671 79.2704 154.514C79.5527 154.478 79.6962 154.147 79.7544 153.672H66.4345Z" fill="#ADC7F7" stroke="#263238" stroke-width="0.5" stroke-linecap="round" stroke-linejoin="round"/>
<rect x="71.5479" y="92.1949" width="32.865" height="1.32661" transform="rotate(180 71.5479 92.1949)" fill="white" stroke="#263238" stroke-width="0.5" stroke-linecap="round" stroke-linejoin="round"/>
<rect x="62.2793" y="92.1949" width="32.865" height="1.32661" transform="rotate(180 62.2793 92.1949)" fill="white" stroke="#263238" stroke-width="0.5" stroke-linecap="round" stroke-linejoin="round"/>
<path d="M33.0765 88.5109H60.4827L57.5292 67.5899H30.123L33.0765 88.5109Z" fill="white" stroke="#263238" stroke-width="0.5" stroke-linecap="round" stroke-linejoin="round"/>
<path d="M31.9428 88.5109H59.3489L56.3954 67.5899H28.9893L31.9428 88.5109Z" fill="#263238" stroke="#263238" stroke-width="0.5" stroke-linecap="round" stroke-linejoin="round"/>
<path fill-rule="evenodd" clip-rule="evenodd" d="M37.5898 92.195L40.3417 78.7855H47.4139L44.6621 92.195H37.5898ZM44.8952 82.958C45.0105 82.957 45.1104 82.8775 45.1372 82.7653L45.5002 81.2549C45.518 81.1818 45.5014 81.1045 45.4551 81.0451C45.4088 80.9857 45.338 80.9508 45.2627 80.9502L41.256 80.9098C41.1389 80.9087 41.0366 80.9887 41.0095 81.1025L40.6464 82.6039C40.6287 82.6783 40.6458 82.7567 40.6929 82.8169C40.74 82.8771 40.812 82.9126 40.8884 82.9132L44.8952 82.958Z" fill="white"/>
<path d="M40.3417 78.7855V78.5355C40.223 78.5355 40.1206 78.6189 40.0968 78.7352L40.3417 78.7855ZM37.5898 92.195L37.3449 92.1447C37.3298 92.2183 37.3486 92.2948 37.3961 92.353C37.4436 92.4112 37.5147 92.445 37.5898 92.445V92.195ZM47.4139 78.7855L47.6588 78.8357C47.6739 78.7621 47.6551 78.6857 47.6077 78.6274C47.5602 78.5692 47.4891 78.5355 47.4139 78.5355V78.7855ZM44.6621 92.195V92.445C44.7808 92.445 44.8831 92.3615 44.907 92.2452L44.6621 92.195ZM45.1372 82.7653L44.8941 82.7069L44.894 82.7073L45.1372 82.7653ZM44.8952 82.958L44.8924 83.208L44.8973 83.208L44.8952 82.958ZM45.5002 81.2549L45.2573 81.1958L45.2571 81.1965L45.5002 81.2549ZM45.4551 81.0451L45.6523 80.8914L45.6523 80.8914L45.4551 81.0451ZM45.2627 80.9502L45.2602 81.2002L45.2607 81.2002L45.2627 80.9502ZM41.256 80.9098L41.2585 80.6598L41.2583 80.6598L41.256 80.9098ZM41.0095 81.1025L41.2525 81.1613L41.2526 81.1606L41.0095 81.1025ZM40.6464 82.6039L40.4034 82.5452L40.4033 82.5459L40.6464 82.6039ZM40.6929 82.8169L40.8898 82.6628L40.8898 82.6628L40.6929 82.8169ZM40.8884 82.9132L40.8912 82.6632L40.8905 82.6632L40.8884 82.9132ZM40.0968 78.7352L37.3449 92.1447L37.8347 92.2452L40.5866 78.8357L40.0968 78.7352ZM47.4139 78.5355H40.3417V79.0355H47.4139V78.5355ZM44.907 92.2452L47.6588 78.8357L47.169 78.7352L44.4172 92.1447L44.907 92.2452ZM37.5898 92.445H44.6621V91.945H37.5898V92.445ZM44.894 82.7073C44.8939 82.7077 44.8935 82.708 44.8931 82.708L44.8973 83.208C45.1276 83.2061 45.3269 83.0473 45.3804 82.8233L44.894 82.7073ZM45.2571 81.1965L44.8941 82.7069L45.3803 82.8237L45.7433 81.3134L45.2571 81.1965ZM45.2579 81.1988C45.2573 81.198 45.257 81.1969 45.2573 81.1958L45.7431 81.314C45.779 81.1667 45.7455 81.011 45.6523 80.8914L45.2579 81.1988ZM45.2607 81.2002C45.2596 81.2002 45.2586 81.1997 45.2579 81.1988L45.6523 80.8914C45.5591 80.7718 45.4163 80.7014 45.2647 80.7002L45.2607 81.2002ZM41.2534 81.1598L45.2602 81.2002L45.2652 80.7002L41.2585 80.6598L41.2534 81.1598ZM41.2526 81.1606C41.2527 81.1601 41.2531 81.1598 41.2536 81.1598L41.2583 80.6598C41.0247 80.6576 40.8205 80.8172 40.7663 81.0445L41.2526 81.1606ZM40.8894 82.6627L41.2524 81.1613L40.7665 81.0438L40.4034 82.5452L40.8894 82.6627ZM40.8898 82.6628L40.8896 82.662L40.4033 82.5459C40.3678 82.6943 40.402 82.8508 40.496 82.971L40.8898 82.6628ZM40.8905 82.6632L40.8898 82.6628L40.496 82.971C40.5901 83.0911 40.7338 83.1619 40.8863 83.1632L40.8905 82.6632ZM44.898 82.708L40.8912 82.6632L40.8856 83.1632L44.8924 83.208L44.898 82.708Z" fill="#263238"/>
<circle cx="29.6147" cy="66.0792" r="5.0465" transform="rotate(-76.72 29.6147 66.0792)" fill="#ADC7F7" stroke="#263238" stroke-width="0.5" stroke-linecap="round" stroke-linejoin="round"/>
<path d="M29.5447 67.1104L28.0567 68.8045C27.9916 68.89 27.9129 68.9642 27.8237 69.0241C27.6163 69.1818 27.3439 69.2255 27.0976 69.1406C26.9073 69.0841 26.7545 68.9413 26.6853 68.7552C26.5829 68.4457 26.6725 68.1049 26.9139 67.8857L28.6394 66.0572L26.9945 64.1479C26.8685 63.9962 26.7961 63.8072 26.7884 63.6101C26.7746 63.446 26.8298 63.2836 26.9408 63.1619C27.0477 63.0502 27.1799 62.9656 27.3262 62.9154C27.487 62.8576 27.6629 62.8576 27.8237 62.9154C28.0169 62.9891 28.1849 63.1166 28.3077 63.2829L29.7374 64.986L31.0819 63.4219C31.1515 63.3226 31.2362 63.2349 31.3329 63.1619C31.5389 62.9694 31.8377 62.9135 32.0993 63.0185C32.2852 63.0859 32.4335 63.2294 32.5071 63.4129C32.6052 63.6263 32.5645 63.8778 32.4041 64.0493L30.6113 66.0079L32.4041 68.1098C32.461 68.1806 32.5078 68.2591 32.543 68.3429C32.6314 68.5647 32.5881 68.8174 32.431 68.9972C32.2921 69.1743 32.0821 69.2809 31.8573 69.2885C31.5215 69.2946 31.207 69.1246 31.0282 68.8404L29.5447 67.1104Z" fill="#263238"/>
<path d="M94.2211 99.823L92.7958 153.475C92.7788 154.185 92.1979 154.752 91.4872 154.752C90.7741 154.745 90.1971 154.17 90.1874 153.457L89.4883 99.823L94.2211 99.823Z" fill="white" stroke="#263238" stroke-width="0.5" stroke-linecap="round" stroke-linejoin="round"/>
<path d="M76.8947 99.823L75.4739 153.475C75.4569 154.187 74.8732 154.754 74.1608 154.752C73.4432 154.752 72.8595 154.174 72.8521 153.457L72.1484 99.823L76.8947 99.823Z" fill="white" stroke="#263238" stroke-width="0.5" stroke-linecap="round" stroke-linejoin="round"/>
<path d="M34.0402 99.823L32.6194 153.475C32.6024 154.187 32.0187 154.754 31.3063 154.752C30.5887 154.752 30.005 154.174 29.9976 153.457L29.2939 99.823H34.0402Z" fill="white" stroke="#263238" stroke-width="0.5" stroke-linecap="round" stroke-linejoin="round"/>
<path d="M16.6867 99.823L15.2839 153.475C15.2672 154.176 14.6996 154.74 13.9976 154.752C13.647 154.76 13.3076 154.628 13.0551 154.385C12.8025 154.141 12.6578 153.807 12.6531 153.457L11.9629 99.823H16.6867Z" fill="white" stroke="#263238" stroke-width="0.5" stroke-linecap="round" stroke-linejoin="round"/>
<rect x="95.915" y="100.388" width="85.535" height="6.42241" transform="rotate(180 95.915 100.388)" fill="white" stroke="#263238" stroke-width="0.5" stroke-linecap="round" stroke-linejoin="round"/>
<rect x="95.915" y="100.388" width="23.8924" height="6.42241" transform="rotate(180 95.915 100.388)" fill="white" stroke="#263238" stroke-width="0.5" stroke-linecap="round" stroke-linejoin="round"/>
<rect x="95.915" y="97.1743" width="85.535" height="3.20896" transform="rotate(180 95.915 97.1743)" fill="#263238" stroke="#263238" stroke-width="0.5" stroke-linecap="round" stroke-linejoin="round"/>
<rect x="97.2422" y="95.2919" width="88.1882" height="3.53613" transform="rotate(180 97.2422 95.2919)" fill="#ADC7F7" stroke="#263238" stroke-width="0.5" stroke-linecap="round" stroke-linejoin="round"/>
<rect x="70.4365" y="95.2919" width="61.3826" height="3.53613" transform="rotate(180 70.4365 95.2919)" fill="#ADC7F7" stroke="#263238" stroke-width="0.5" stroke-linecap="round" stroke-linejoin="round"/>
<path d="M201.682 154.752H205.37" stroke="#263238" stroke-width="0.5" stroke-linecap="round" stroke-linejoin="round"/>
<path d="M1 154.752H195.68" stroke="#263238" stroke-width="0.5" stroke-linecap="round" stroke-linejoin="round"/>
</svg>
