<svg width="191" height="170" viewBox="0 0 191 170" fill="none" xmlns="http://www.w3.org/2000/svg">
<path d="M180.2 29.0318C180.2 29.0318 167.854 4.30955 140.586 0.646053C113.318 -3.01745 94.2611 14.8368 74.2096 23.9956C63.7036 28.7896 51.6846 26.9281 40.5453 29.2486C4.86657 36.6691 -8.57194 83.164 6.28606 109.603C19.1508 132.494 41.7863 144.394 76.2623 147.144C110.738 149.893 134.912 153.094 165.789 130.662C196.665 108.231 194.599 61.5358 180.2 29.0318Z" fill="#ADC7F7"/>
<path opacity="0.7" d="M180.2 29.0318C180.2 29.0318 167.854 4.30955 140.586 0.646053C113.318 -3.01745 94.2611 14.8368 74.2096 23.9956C63.7036 28.7896 51.6846 26.9281 40.5453 29.2486C4.86657 36.6691 -8.57194 83.164 6.28606 109.603C19.1508 132.494 41.7863 144.394 76.2623 147.144C110.738 149.893 134.912 153.094 165.789 130.662C196.665 108.231 194.599 61.5358 180.2 29.0318Z" fill="white"/>
<path d="M174.581 137.976C176.051 129.523 190.017 113.352 185.975 103.428C181.933 93.5042 172.005 125.103 168.329 125.481C164.653 125.859 167.964 111.146 173.11 97.1805C178.257 83.215 182.299 68.51 173.11 62.9977C163.922 57.4855 164.287 101.222 162.082 99.7517C159.876 98.2812 163.552 79.9042 160.981 68.51C158.41 57.1157 152.528 66.3042 152.528 79.56C152.528 92.8157 156.569 100.143 153.628 101.235C150.687 102.327 141.665 98.2175 141.869 112.629C142.073 127.041 153.263 144.241 149.217 142.035C145.171 139.829 137.823 131.376 139.293 144.976C140.334 154.589 147.793 163.829 152.086 168.423H171.738C174.734 165.342 180.556 158.848 184.488 151.223C190.017 140.552 173.11 146.434 174.581 137.976Z" fill="#ADC7F7"/>
<path d="M150.687 167.565C147.049 162.35 145.349 155.975 143.649 150.025C142.799 146.2 142.799 141.95 145.774 139.4C148.749 137.275 150.449 141.1 152.149 142.8C153.424 141.95 152.574 140.675 152.574 139.825C151.726 133.058 151.3 126.245 151.299 119.425C151.299 115.175 152.999 111.775 154.699 107.95C155.549 106.675 156.399 105.4 157.674 104.975C158.949 104.55 160.224 104.975 160.649 106.25C161.499 109.225 161.499 112.2 161.924 115.175C162.774 114.325 162.349 113.05 162.349 112.2C164.049 99.8749 162.774 87.9749 166.599 76.0749C167.024 75.2249 168.299 74.3749 169.149 74.7999C172.124 75.2249 172.124 79.0499 172.124 81.5999C173.824 93.9249 169.999 105.825 168.724 118.15C168.724 119 168.299 119.85 169.149 120.7C169.574 117.725 171.274 114.75 172.124 111.775C172.549 110.5 173.399 108.8 174.674 107.95C175.524 107.525 176.374 107.95 177.224 108.8C178.924 111.35 179.349 113.9 178.924 116.875C177.649 124.1 175.099 130.05 172.124 136.425L170.849 140.25C170.424 142.8 168.724 145.775 170.424 147.9C173.399 147.475 174.249 144.075 176.799 142.375C179.349 140.675 180.199 142.8 180.624 144.5C182.324 153 179.349 160.65 175.065 167.548" stroke="#263238" stroke-width="0.5" stroke-linecap="round" stroke-linejoin="round"/>
<path d="M162.592 165.941C162.592 165.941 161.601 146.081 164.083 127.963" stroke="#263238" stroke-width="0.5" stroke-linecap="round" stroke-linejoin="round"/>
<path d="M154.402 153.281L162.592 162.218L169.792 156.009" stroke="#263238" stroke-width="0.5" stroke-linecap="round" stroke-linejoin="round"/>
<path d="M160.356 130.943L162.592 142.358L169.048 130.943" stroke="#263238" stroke-width="0.5" stroke-linecap="round" stroke-linejoin="round"/>
<path d="M164.33 124.984L165.818 114.312" stroke="#263238" stroke-width="0.5" stroke-linecap="round" stroke-linejoin="round"/>
<rect x="19.9199" y="37.9568" width="26.7665" height="33.4603" stroke="#263238" stroke-width="0.5" stroke-linecap="round" stroke-linejoin="round"/>
<rect x="53.3799" y="37.9568" width="26.7665" height="33.4603" stroke="#263238" stroke-width="0.5" stroke-linecap="round" stroke-linejoin="round"/>
<rect x="19.9199" y="76.891" width="26.7665" height="33.4603" stroke="#263238" stroke-width="0.5" stroke-linecap="round" stroke-linejoin="round"/>
<rect x="53.3799" y="76.891" width="26.7665" height="33.4603" stroke="#263238" stroke-width="0.5" stroke-linecap="round" stroke-linejoin="round"/>
<rect x="19.9199" y="115.825" width="26.7665" height="33.4603" stroke="#263238" stroke-width="0.5" stroke-linecap="round" stroke-linejoin="round"/>
<rect x="53.3799" y="115.825" width="26.7665" height="33.4603" stroke="#263238" stroke-width="0.5" stroke-linecap="round" stroke-linejoin="round"/>
<path fill-rule="evenodd" clip-rule="evenodd" d="M50.3368 3.28101V3.28101C33.8735 3.28101 20.5273 16.6272 20.5273 33.0905H80.1463C80.1463 16.6272 66.8002 3.28101 50.3368 3.28101Z" stroke="#263238" stroke-width="0.5" stroke-linecap="round" stroke-linejoin="round"/>
<path d="M88.8893 19.261C88.8893 19.261 88.8893 12.886 77.9455 14.161C67.0018 15.436 62.416 25.1048 59.1095 27.1405C55.803 29.1763 49.6915 30.9655 49.4365 34.0128C49.1815 37.06 51.9865 38.3393 49.1815 40.63C46.3765 42.9208 42.0755 44.9693 43.0743 48.025C44.073 51.0808 46.8993 54.1323 45.6243 56.1723C44.3493 58.2123 40.7878 60.2438 44.0943 62.5473C47.4008 64.8508 48.9308 65.348 48.9308 68.3995C48.9308 71.451 47.6558 73.4995 50.7158 74.511C53.7758 75.5225 55.548 73.491 57.333 77.3075C59.118 81.124 60.8945 82.144 63.9503 81.379C67.006 80.614 71.3283 79.3433 72.8753 80.3633C74.4223 81.3833 79.2503 84.1883 81.2733 82.654C83.2963 81.1198 85.0983 78.829 88.1455 80.104C91.1928 81.379 93.747 83.1598 95.0178 80.869C96.2885 78.5783 95.0178 78.0683 99.8543 77.044C104.691 76.0198 106.472 76.2833 106.472 72.2118C106.472 68.1403 106.217 67.1118 108.507 65.3395C110.798 63.5673 112.834 64.3195 112.073 59.993C111.312 55.6665 109.782 54.6465 110.543 50.32C111.304 45.9935 109.268 44.4678 107.742 43.1928C106.217 41.9178 104.436 39.6313 104.946 37.3405C105.456 35.0498 109.272 34.7905 105.452 30.7233C101.631 26.656 99.8543 27.9225 99.0765 24.8668C98.2988 21.811 95.7615 15.1895 88.8893 19.261Z" fill="#263238" stroke="#263238" stroke-width="0.5" stroke-linecap="round" stroke-linejoin="round"/>
<path d="M79.1188 26.9237C77.5506 29.4057 76.3393 32.2065 73.8148 34.5737C70.1683 37.9737 60.8268 40.9487 60.3721 44.1447C59.9173 47.3407 61.5111 49.1555 58.3236 51.8882C55.1361 54.621 50.1211 55.2882 50.1211 58.0422C50.1211 60.7962 51.4853 61.6887 50.8053 63.7372" stroke="#616161" stroke-width="0.5"/>
<path d="M85.8933 23.8637C85.8933 23.8637 84.7543 20.8887 81.5626 23.8637C81.3161 24.0932 81.0823 24.3312 80.8613 24.5735" stroke="#616161" stroke-width="0.5"/>
<path d="M60.1547 36.8857C57.3497 37.5657 55.1354 38.0545 54.9059 40.0435C54.4469 43.9152 55.1312 46.4185 52.3984 47.5617C49.6657 48.705 46.0234 50.5367 47.1582 52.802C48.2929 55.0672 48.5224 55.777 48.2972 56.6737" stroke="#616161" stroke-width="0.5"/>
<path d="M85.4257 20.2173C85.4257 20.2173 79.0507 16.1203 75.6507 19.7625C72.2507 23.4048 73.8274 27.965 68.5872 32.98C67.2563 34.2193 65.6854 35.1725 63.9717 35.7808" stroke="#616161" stroke-width="0.5"/>
<path d="M107.598 52.53C107.98 53.1238 108.508 53.6096 109.132 53.941" stroke="#616161" stroke-width="0.5"/>
<path d="M89.9941 25.925C89.9941 25.925 95.6891 24.1017 97.0534 27.2892C98.4176 30.4767 99.1061 36.176 101.614 37.0897C104.121 38.0035 105.256 39.3677 105.256 44.3785C105.253 45.9934 105.494 47.5996 105.97 49.1427" stroke="#616161" stroke-width="0.5"/>
<path d="M53.083 66.47C54.9063 63.495 57.4095 64.651 57.639 61.4592C57.8685 58.2675 56.0453 57.358 57.8643 55.3095C59.6833 53.261 62.6498 52.3345 62.6498 52.3345" stroke="#616161" stroke-width="0.5"/>
<path d="M55.5864 72.8535C54.7446 72.1564 54.0137 71.3352 53.4189 70.4182" stroke="#616161" stroke-width="0.5"/>
<path d="M118.669 168.411C118.669 168.411 119.43 157.977 114.844 147.539C110.258 137.101 109.226 136.349 109.226 133.293C109.226 130.237 112.294 126.671 112.804 119.799C113.314 112.927 113.059 109.599 113.059 109.599C113.059 109.599 124.003 126.905 131.64 127.925C139.277 128.945 143.859 121.818 141.058 112.145C138.257 102.472 126.039 94.5838 121.206 88.2173C116.374 81.8508 105.422 81.8423 99.8246 81.8423C94.2274 81.8423 91.4266 79.8065 90.4066 75.99C89.3866 72.1735 89.3909 64.515 89.3909 64.515C89.3909 64.515 82.7694 68.5865 71.5706 64.005C71.5706 64.005 72.5906 78.0045 71.3156 80.0403C70.0406 82.076 68.2726 84.15 60.6354 84.15C52.9981 84.15 46.6359 85.68 43.0744 89.25C39.5129 92.82 24.7484 107.066 20.9319 112.668C17.1154 118.269 19.1469 124.376 23.7284 126.667C28.3099 128.958 32.8914 126.918 36.2021 123.866C39.5129 120.815 49.9466 111.138 49.9466 111.138C49.9466 111.138 49.9466 116.994 52.7474 125.392C55.5481 133.79 57.8474 132.774 55.7989 138.882C53.7504 144.989 49.6916 146.774 48.4209 154.662C47.6597 159.202 47.3183 163.803 47.4009 168.406" fill="#ADC7F7"/>
<g opacity="0.2">
<path d="M101.966 89.8237C101.792 89.8237 101.154 90.2487 101.966 91.4855C102.778 90.2572 102.14 89.8237 101.966 89.8237Z" fill="black"/>
<path d="M122.366 89.8237C122.191 89.8237 121.554 90.2487 122.366 91.4855C123.177 90.2572 122.54 89.8237 122.366 89.8237Z" fill="black"/>
<path d="M122.366 100.024C122.191 100.024 121.554 100.449 122.366 101.685C123.177 100.457 122.54 100.024 122.366 100.024Z" fill="black"/>
<path d="M101.966 100.024C101.792 100.024 101.154 100.449 101.966 101.685C102.778 100.457 102.14 100.024 101.966 100.024Z" fill="black"/>
<path d="M112.166 94.9237C111.992 94.9237 111.355 95.3487 112.166 96.5855C112.978 95.3572 112.341 94.9237 112.166 94.9237Z" fill="black"/>
<path d="M112.166 84.7236C111.992 84.7236 111.355 85.1486 112.166 86.3854C112.978 85.1571 112.341 84.7236 112.166 84.7236Z" fill="black"/>
<path d="M102.425 91.7404C103.895 91.8211 103.946 91.0519 103.861 90.8904C103.776 90.7289 103.058 90.4186 102.425 91.7404Z" fill="black"/>
<path d="M124.07 91.4471L123.505 90.8649C123.194 91.0852 122.953 91.3887 122.808 91.7404C123.251 91.8131 123.704 91.7077 124.07 91.4471Z" fill="black"/>
<path d="M112.625 96.8404C114.095 96.9211 114.146 96.1519 114.061 95.9904C113.976 95.8289 113.258 95.5186 112.625 96.8404Z" fill="black"/>
<path d="M112.625 86.6404C114.095 86.7212 114.146 85.9519 114.061 85.7904C113.976 85.6289 113.258 85.3187 112.625 86.6404Z" fill="black"/>
<path d="M120.488 90.9032C120.403 91.0519 120.458 91.8212 121.924 91.7532C121.274 90.4187 120.577 90.7502 120.488 90.9032Z" fill="black"/>
<path d="M120.488 101.103C120.427 101.325 120.516 101.56 120.709 101.685C121.07 101.913 121.502 102.004 121.924 101.94C121.884 101.853 121.839 101.768 121.788 101.685C121.181 100.665 120.573 100.959 120.488 101.103Z" fill="black"/>
<path d="M110.288 96.0032C110.203 96.1519 110.258 96.9212 111.724 96.8532C111.074 95.5187 110.377 95.8502 110.288 96.0032Z" fill="black"/>
<path d="M110.288 85.8032C110.203 85.952 110.258 86.7212 111.724 86.6532C111.074 85.3187 110.377 85.6502 110.288 85.8032Z" fill="black"/>
<path d="M101.966 120.424C101.792 120.424 101.154 120.849 101.966 122.085C102.778 120.857 102.14 120.424 101.966 120.424Z" fill="black"/>
<path d="M122.366 120.424C122.239 120.424 121.873 120.653 121.988 121.244C122.166 121.435 122.345 121.626 122.528 121.813C123.08 120.793 122.528 120.424 122.366 120.424Z" fill="black"/>
<path d="M101.966 130.624C101.792 130.624 101.154 131.049 101.966 132.285C102.778 131.057 102.14 130.624 101.966 130.624Z" fill="black"/>
<path d="M132.566 125.524C132.392 125.524 131.754 125.949 132.566 127.185C133.378 125.957 132.74 125.524 132.566 125.524Z" fill="black"/>
<path d="M101.966 110.224C101.792 110.224 101.154 110.649 101.966 111.885C102.778 110.657 102.14 110.224 101.966 110.224Z" fill="black"/>
<path d="M122.366 110.224C122.191 110.224 121.554 110.649 122.366 111.885C123.177 110.657 122.54 110.224 122.366 110.224Z" fill="black"/>
<path d="M112.166 115.324C111.992 115.324 111.355 115.749 112.166 116.985C112.978 115.757 112.341 115.324 112.166 115.324Z" fill="black"/>
<path d="M132.566 115.324C132.392 115.324 131.754 115.749 132.566 116.985C133.378 115.757 132.74 115.324 132.566 115.324Z" fill="black"/>
<path d="M112.166 105.124C111.992 105.124 111.355 105.549 112.166 106.785C112.978 105.557 112.341 105.124 112.166 105.124Z" fill="black"/>
<path d="M132.566 105.124C132.392 105.124 131.754 105.549 132.566 106.785C133.378 105.557 132.74 105.124 132.566 105.124Z" fill="black"/>
<path d="M102.425 122.34C103.895 122.421 103.946 121.652 103.861 121.49C103.776 121.329 103.058 121.019 102.425 122.34Z" fill="black"/>
<path d="M122.889 122.187L123.042 122.345C124.278 122.345 124.317 121.643 124.244 121.495C124.172 121.346 123.513 121.048 122.889 122.187Z" fill="black"/>
<path d="M103.521 131.55C103.335 131.546 103.154 131.61 103.011 131.729C102.925 131.797 102.845 131.874 102.773 131.958C102.688 132.061 102.611 132.17 102.544 132.285C102.545 132.294 102.545 132.302 102.544 132.311C102.506 132.379 102.463 132.455 102.425 132.54C102.847 132.604 103.279 132.514 103.64 132.285C103.671 132.262 103.699 132.236 103.725 132.209C103.768 132.163 103.804 132.112 103.832 132.056C103.916 131.956 103.929 131.813 103.863 131.7C103.798 131.586 103.667 131.526 103.538 131.55H103.521Z" fill="black"/>
<path d="M133.025 127.44C134.492 127.521 134.547 126.752 134.462 126.59C134.377 126.429 133.659 126.119 133.025 127.44Z" fill="black"/>
<path d="M102.425 112.14C103.895 112.221 103.946 111.452 103.861 111.29C103.776 111.129 103.058 110.819 102.425 112.14Z" fill="black"/>
<path d="M124.244 111.303C124.155 111.15 123.458 110.819 122.808 112.153C124.274 112.221 124.329 111.452 124.244 111.303Z" fill="black"/>
<path d="M112.625 117.24C112.748 117.247 112.872 117.247 112.995 117.24C112.995 117.028 113.016 116.815 113.025 116.62C112.864 116.807 112.729 117.016 112.625 117.24Z" fill="black"/>
<path d="M133.025 117.24C134.492 117.321 134.547 116.552 134.462 116.39C134.377 116.229 133.659 115.919 133.025 117.24Z" fill="black"/>
<path d="M112.625 107.04C114.095 107.121 114.146 106.352 114.061 106.19C113.976 106.029 113.258 105.719 112.625 107.04Z" fill="black"/>
<path d="M133.025 107.04C134.492 107.121 134.547 106.352 134.462 106.19C134.377 106.029 133.659 105.719 133.025 107.04Z" fill="black"/>
<path d="M111.048 127.406L111.282 126.773C110.789 126.263 110.355 126.484 110.287 126.603C110.219 126.722 110.241 127.258 111.048 127.406Z" fill="black"/>
<path d="M140.887 121.503C140.821 121.754 140.94 122.016 141.172 122.132C141.261 121.886 141.338 121.631 141.41 121.371C141.225 121.309 141.02 121.36 140.887 121.503Z" fill="black"/>
<path d="M130.688 126.603C130.598 126.752 130.658 127.521 132.124 127.453C131.474 126.119 130.777 126.45 130.688 126.603Z" fill="black"/>
<path d="M120.488 111.303C120.403 111.452 120.458 112.221 121.924 112.153C121.274 110.819 120.577 111.15 120.488 111.303Z" fill="black"/>
<path d="M110.288 116.403C110.203 116.552 110.258 117.321 111.724 117.253C111.074 115.919 110.377 116.25 110.288 116.403Z" fill="black"/>
<path d="M130.688 116.403C130.598 116.552 130.658 117.321 132.124 117.253C131.474 115.919 130.777 116.25 130.688 116.403Z" fill="black"/>
<path d="M110.288 106.203C110.203 106.352 110.258 107.121 111.724 107.053C111.074 105.719 110.377 106.05 110.288 106.203Z" fill="black"/>
<path d="M130.688 106.203C130.598 106.352 130.658 107.121 132.124 107.053C131.474 105.719 130.777 106.05 130.688 106.203Z" fill="black"/>
<path d="M124.023 101.685C124.216 101.56 124.305 101.325 124.244 101.103C124.159 100.959 123.551 100.678 122.944 101.685C122.893 101.768 122.848 101.853 122.808 101.94C123.23 102.004 123.662 101.914 124.023 101.685Z" fill="black"/>
<path d="M103.624 101.685C103.816 101.56 103.906 101.325 103.845 101.103C103.76 100.959 103.152 100.678 102.544 101.685C102.494 101.768 102.448 101.853 102.408 101.94C102.831 102.004 103.262 101.914 103.624 101.685Z" fill="black"/>
<path d="M101.966 151.024C101.792 151.024 101.154 151.449 101.966 152.685C102.778 151.457 102.14 151.024 101.966 151.024Z" fill="black"/>
<path d="M101.966 161.224C101.792 161.224 101.154 161.649 101.966 162.885C102.778 161.657 102.14 161.224 101.966 161.224Z" fill="black"/>
<path d="M112.166 156.124C111.992 156.124 111.355 156.549 112.166 157.785C112.978 156.557 112.341 156.124 112.166 156.124Z" fill="black"/>
<path d="M101.966 140.824C101.792 140.824 101.154 141.249 101.966 142.485C102.778 141.257 102.14 140.824 101.966 140.824Z" fill="black"/>
<path d="M112.166 145.924C111.992 145.924 111.355 146.349 112.166 147.585C112.978 146.357 112.341 145.924 112.166 145.924Z" fill="black"/>
<path d="M102.425 152.94C103.895 153.021 103.946 152.252 103.861 152.09C103.776 151.929 103.058 151.619 102.425 152.94Z" fill="black"/>
<path d="M103.522 162.15H103.432C103.323 162.158 103.217 162.192 103.122 162.248L103.012 162.324C102.823 162.479 102.664 162.668 102.544 162.881C102.494 162.963 102.448 163.048 102.408 163.136C102.831 163.2 103.262 163.11 103.624 162.881C103.816 162.756 103.906 162.52 103.845 162.299C103.764 162.204 103.646 162.15 103.522 162.15Z" fill="black"/>
<path d="M112.625 158.04C114.095 158.121 114.146 157.352 114.061 157.19C113.976 157.029 113.258 156.719 112.625 158.04Z" fill="black"/>
<path d="M102.425 142.74C103.895 142.821 103.946 142.052 103.861 141.89C103.776 141.729 103.058 141.419 102.425 142.74Z" fill="black"/>
<path d="M112.625 147.84C114.095 147.921 114.146 147.152 114.061 146.99C113.976 146.829 113.258 146.519 112.625 147.84Z" fill="black"/>
<path d="M110.288 157.203C110.203 157.352 110.258 158.121 111.724 158.053C111.074 156.719 110.377 157.05 110.288 157.203Z" fill="black"/>
<path d="M110.288 147.003C110.203 147.152 110.258 147.921 111.724 147.853C111.074 146.519 110.377 146.85 110.288 147.003Z" fill="black"/>
<path d="M112.166 166.324C111.992 166.324 111.355 166.749 112.166 167.985C112.978 166.757 112.341 166.324 112.166 166.324Z" fill="black"/>
<path d="M112.625 168.24C114.095 168.321 114.146 167.552 114.061 167.39C113.976 167.229 113.258 166.919 112.625 168.24Z" fill="black"/>
<path d="M110.288 167.403C110.203 167.552 110.258 168.321 111.724 168.253C111.074 166.919 110.377 167.25 110.288 167.403Z" fill="black"/>
<path d="M81.5658 69.4237C81.3915 69.4237 80.754 69.8487 81.5658 71.0855C82.3775 69.8572 81.74 69.4237 81.5658 69.4237Z" fill="black"/>
<path d="M71.6086 64.4639C71.6086 64.6934 71.6426 65.0121 71.6681 65.4116C71.833 65.1107 71.8098 64.7418 71.6086 64.4639Z" fill="black"/>
<path d="M83.1219 70.3502C82.936 70.3464 82.7549 70.4098 82.6119 70.5287C82.5253 70.5973 82.4456 70.6741 82.3739 70.7582C82.2885 70.8608 82.2117 70.9702 82.1444 71.0854V71.1109C82.1061 71.1789 82.0636 71.2554 82.0254 71.3404C82.448 71.4044 82.8796 71.3139 83.2409 71.0854C83.2711 71.0621 83.2995 71.0365 83.3259 71.0089C83.3683 70.9632 83.4041 70.9117 83.4321 70.8559C83.4929 70.7483 83.5037 70.6195 83.4619 70.5032C83.3782 70.4025 83.2527 70.3461 83.1219 70.3502Z" fill="black"/>
<path d="M71.8252 66.2404C73.2957 66.3211 73.3467 65.5519 73.2617 65.3904C73.1767 65.2289 72.4584 64.9186 71.8252 66.2404Z" fill="black"/>
<path d="M61.5566 90.2954C61.5491 90.2303 61.5304 90.1671 61.5014 90.1084C61.4891 90.0819 61.4749 90.0564 61.4589 90.0319C61.4319 89.9905 61.399 89.9532 61.3611 89.9214C61.3306 89.8951 61.2962 89.8736 61.2591 89.8576C61.2059 89.8297 61.1424 89.8297 61.0891 89.8576C60.8936 89.9426 60.5749 90.2826 60.9319 91.0731C61.0026 91.2203 61.0836 91.3623 61.1741 91.4981C61.2647 91.3623 61.3456 91.2203 61.4164 91.0731C61.5167 90.8737 61.5718 90.6546 61.5779 90.4314C61.5802 90.3918 61.5802 90.352 61.5779 90.3124L61.5566 90.2954Z" fill="black"/>
<path d="M81.5658 89.8237C81.3915 89.8237 80.754 90.2487 81.5658 91.4855C82.3775 90.2572 81.74 89.8237 81.5658 89.8237Z" fill="black"/>
<path d="M81.5658 100.024C81.3915 100.024 80.754 100.449 81.5658 101.685C82.3775 100.457 81.74 100.024 81.5658 100.024Z" fill="black"/>
<path d="M61.5566 100.495C61.5491 100.43 61.5304 100.367 61.5014 100.308C61.4891 100.282 61.4749 100.256 61.4589 100.232C61.4319 100.191 61.399 100.153 61.3611 100.121C61.3306 100.095 61.2962 100.074 61.2591 100.058C61.2059 100.03 61.1424 100.03 61.0891 100.058C60.8936 100.143 60.5749 100.483 60.9319 101.273C61.0026 101.42 61.0836 101.562 61.1741 101.698C61.2647 101.562 61.3456 101.42 61.4164 101.273C61.5167 101.074 61.5718 100.855 61.5779 100.631C61.5802 100.592 61.5802 100.552 61.5779 100.512L61.5566 100.495Z" fill="black"/>
<path d="M71.3656 94.9237C71.1914 94.9237 70.5539 95.3487 71.3656 96.5855C72.1774 95.3572 71.5399 94.9237 71.3656 94.9237Z" fill="black"/>
<path d="M91.766 94.9237C91.5917 94.9237 90.9542 95.3487 91.766 96.5855C92.5777 95.3572 91.9402 94.9237 91.766 94.9237Z" fill="black"/>
<path d="M81.5658 79.6237C81.3915 79.6237 80.754 80.0487 81.5658 81.2854C82.3775 80.0572 81.74 79.6237 81.5658 79.6237Z" fill="black"/>
<path d="M71.3656 84.7236C71.1914 84.7236 70.5539 85.1486 71.3656 86.3854C72.1774 85.1571 71.5399 84.7236 71.3656 84.7236Z" fill="black"/>
<path d="M91.766 84.7236C91.5917 84.7236 90.9542 85.1486 91.766 86.3854C92.5777 85.1571 91.9402 84.7236 91.766 84.7236Z" fill="black"/>
<path d="M61.625 91.7404C63.0955 91.8211 63.1465 91.0519 63.0615 90.8904C62.9765 90.7289 62.2582 90.4186 61.625 91.7404Z" fill="black"/>
<path d="M82.0254 91.7404C83.4916 91.8211 83.5469 91.0519 83.4619 90.8904C83.3769 90.7289 82.6586 90.4186 82.0254 91.7404Z" fill="black"/>
<path d="M71.8252 96.8404C73.2957 96.9211 73.3467 96.1519 73.2617 95.9904C73.1767 95.8289 72.4584 95.5186 71.8252 96.8404Z" fill="black"/>
<path d="M92.2246 96.8404C93.6909 96.9211 93.7461 96.1519 93.6611 95.9904C93.5761 95.8289 92.8579 95.5186 92.2246 96.8404Z" fill="black"/>
<path d="M82.0254 81.5404C83.4916 81.6212 83.5469 80.8519 83.4619 80.6904C83.3769 80.5289 82.6586 80.2187 82.0254 81.5404Z" fill="black"/>
<path d="M71.8252 86.6404C73.2957 86.7212 73.3467 85.9519 73.2617 85.7904C73.1767 85.6289 72.4584 85.3187 71.8252 86.6404Z" fill="black"/>
<path d="M92.2246 86.6404C93.6909 86.7212 93.7461 85.9519 93.6611 85.7904C93.5761 85.6289 92.8579 85.3187 92.2246 86.6404Z" fill="black"/>
<path d="M73.2446 75.6032C73.1596 75.4587 72.5391 75.1782 71.9229 76.2194C71.9229 76.2959 71.9229 76.3682 71.9229 76.4404C73.2744 76.4999 73.3296 75.7477 73.2446 75.6032Z" fill="black"/>
<path d="M79.6871 90.9032C79.6021 91.0519 79.6573 91.8212 81.1236 91.7532C80.4733 90.4187 79.7763 90.7502 79.6871 90.9032Z" fill="black"/>
<path d="M79.687 101.103C79.6259 101.325 79.7153 101.56 79.908 101.685C80.2696 101.913 80.7009 102.004 81.1235 101.94C81.0834 101.853 81.038 101.768 80.9875 101.685C80.3798 100.665 79.772 100.959 79.687 101.103Z" fill="black"/>
<path d="M69.4878 96.0032C69.4028 96.1519 69.4581 96.9212 70.9243 96.8532C70.2741 95.5187 69.5771 95.8502 69.4878 96.0032Z" fill="black"/>
<path d="M100.088 90.9032C99.9987 91.0519 100.058 91.8212 101.524 91.7532C100.874 90.4187 100.177 90.7502 100.088 90.9032Z" fill="black"/>
<path d="M101.388 101.685C100.78 100.665 100.172 100.959 100.087 101.103C100.026 101.325 100.116 101.56 100.308 101.685C100.67 101.914 101.101 102.004 101.524 101.94C101.484 101.853 101.438 101.768 101.388 101.685Z" fill="black"/>
<path d="M89.8878 96.0032C89.7985 96.1519 89.858 96.9212 91.3243 96.8532C90.674 95.5187 89.977 95.8502 89.8878 96.0032Z" fill="black"/>
<path d="M79.6871 80.7032C79.6021 80.852 79.6573 81.6212 81.1236 81.5532C80.4733 80.2187 79.7763 80.5502 79.6871 80.7032Z" fill="black"/>
<path d="M69.4878 85.8032C69.4028 85.952 69.4581 86.7212 70.9243 86.6532C70.2741 85.3187 69.5771 85.6502 69.4878 85.8032Z" fill="black"/>
<path d="M89.8878 85.8032C89.7985 85.952 89.858 86.7212 91.3243 86.6532C90.674 85.3187 89.977 85.6502 89.8878 85.8032Z" fill="black"/>
<path d="M90.5246 76.3767C90.4864 76.2577 90.4481 76.143 90.4141 76.0197C90.3801 75.8965 90.3206 75.65 90.2781 75.4502C90.1306 75.4336 89.9843 75.4909 89.8871 75.6032C89.8191 75.718 89.8404 76.2025 90.5246 76.3767Z" fill="black"/>
<path d="M80.9877 71.0854C80.9204 70.9702 80.8436 70.8607 80.7582 70.7581C80.6877 70.673 80.6078 70.5961 80.5202 70.5286C80.3772 70.4098 80.1961 70.3464 80.0102 70.3501C79.8853 70.3512 79.7672 70.4071 79.6872 70.5031C79.6454 70.6194 79.6562 70.7482 79.717 70.8559C79.745 70.9116 79.7808 70.9631 79.8232 71.0089L79.9082 71.0854C80.2698 71.3131 80.7011 71.4036 81.1237 71.3404C81.0855 71.2554 81.043 71.1789 81.0047 71.1109L80.9877 71.0854Z" fill="black"/>
<path d="M61.5566 120.895C61.5491 120.83 61.5304 120.767 61.5014 120.708C61.4891 120.682 61.4749 120.656 61.4589 120.632C61.4319 120.591 61.399 120.553 61.3611 120.521C61.3306 120.495 61.2962 120.474 61.2591 120.458C61.2059 120.43 61.1424 120.43 61.0891 120.458C60.8936 120.543 60.5749 120.883 60.9319 121.673C61.0026 121.82 61.0836 121.962 61.1741 122.098C61.2647 121.962 61.3456 121.82 61.4164 121.673C61.5167 121.474 61.5718 121.255 61.5779 121.031C61.5802 120.992 61.5802 120.952 61.5779 120.912L61.5566 120.895Z" fill="black"/>
<path d="M81.5658 120.424C81.3915 120.424 80.754 120.849 81.5658 122.085C82.3775 120.857 81.74 120.424 81.5658 120.424Z" fill="black"/>
<path d="M81.5658 130.624C81.3915 130.624 80.754 131.049 81.5658 132.285C82.3775 131.057 81.74 130.624 81.5658 130.624Z" fill="black"/>
<path d="M61.5566 131.095C61.5491 131.03 61.5304 130.967 61.5014 130.908C61.4891 130.882 61.4749 130.856 61.4589 130.832C61.4319 130.79 61.399 130.753 61.3611 130.721C61.3306 130.695 61.2962 130.674 61.2591 130.658C61.2061 130.629 61.1422 130.629 61.0891 130.658C60.8936 130.743 60.5749 131.083 60.9319 131.873C61.0026 132.02 61.0836 132.162 61.1741 132.298C61.2647 132.162 61.3456 132.02 61.4164 131.873C61.5167 131.674 61.5718 131.455 61.5779 131.231C61.5802 131.192 61.5802 131.152 61.5779 131.112L61.5566 131.095Z" fill="black"/>
<path d="M71.3656 125.524C71.1914 125.524 70.5539 125.949 71.3656 127.185C72.1774 125.957 71.5399 125.524 71.3656 125.524Z" fill="black"/>
<path d="M91.766 125.524C91.5917 125.524 90.9542 125.949 91.766 127.185C92.5777 125.957 91.9402 125.524 91.766 125.524Z" fill="black"/>
<path d="M61.5566 110.695C61.5491 110.63 61.5304 110.567 61.5014 110.508C61.4891 110.482 61.4749 110.456 61.4589 110.432C61.4319 110.391 61.399 110.353 61.3611 110.321C61.3306 110.295 61.2962 110.274 61.2591 110.258C61.2059 110.23 61.1424 110.23 61.0891 110.258C60.8936 110.343 60.5749 110.683 60.9319 111.473C61.0026 111.62 61.0836 111.762 61.1741 111.898C61.2647 111.762 61.3456 111.62 61.4164 111.473C61.5167 111.274 61.5718 111.055 61.5779 110.831C61.5802 110.792 61.5802 110.752 61.5779 110.712L61.5566 110.695Z" fill="black"/>
<path d="M81.5658 110.224C81.3915 110.224 80.754 110.649 81.5658 111.885C82.3775 110.657 81.74 110.224 81.5658 110.224Z" fill="black"/>
<path d="M71.3656 115.324C71.1914 115.324 70.5539 115.749 71.3656 116.985C72.1774 115.757 71.5399 115.324 71.3656 115.324Z" fill="black"/>
<path d="M91.766 115.324C91.5917 115.324 90.9542 115.749 91.766 116.985C92.5777 115.757 91.9402 115.324 91.766 115.324Z" fill="black"/>
<path d="M71.3656 105.124C71.1914 105.124 70.5539 105.549 71.3656 106.785C72.1774 105.557 71.5399 105.124 71.3656 105.124Z" fill="black"/>
<path d="M91.766 105.124C91.5917 105.124 90.9542 105.549 91.766 106.785C92.5777 105.557 91.9402 105.124 91.766 105.124Z" fill="black"/>
<path d="M61.625 122.34C63.0955 122.421 63.1465 121.652 63.0615 121.49C62.9765 121.329 62.2582 121.019 61.625 122.34Z" fill="black"/>
<path d="M82.0254 122.34C83.4916 122.421 83.5469 121.652 83.4619 121.49C83.3769 121.329 82.6586 121.019 82.0254 122.34Z" fill="black"/>
<path d="M83.1219 131.55C82.936 131.546 82.7549 131.61 82.6119 131.729C82.5253 131.797 82.4456 131.874 82.3739 131.958C82.2885 132.061 82.2117 132.17 82.1444 132.285V132.311C82.1061 132.379 82.0636 132.455 82.0254 132.54C82.448 132.604 82.8796 132.514 83.2409 132.285C83.2711 132.262 83.2995 132.236 83.3259 132.209C83.3683 132.163 83.4041 132.112 83.4321 132.056C83.4929 131.948 83.5037 131.819 83.4619 131.703C83.3782 131.602 83.2527 131.546 83.1219 131.55Z" fill="black"/>
<path d="M62.7215 131.55C62.5356 131.546 62.3545 131.61 62.2115 131.729C62.1249 131.797 62.0452 131.874 61.9735 131.958C61.8881 132.061 61.8114 132.17 61.744 132.285V132.311C61.7058 132.379 61.6632 132.455 61.625 132.54C62.0477 132.604 62.4792 132.514 62.8405 132.285C62.8707 132.262 62.8991 132.236 62.9255 132.209C62.9679 132.163 63.0037 132.112 63.0317 132.056C63.1167 131.956 63.1294 131.813 63.0636 131.7C62.9977 131.586 62.8676 131.526 62.7385 131.55H62.7215Z" fill="black"/>
<path d="M71.8252 127.44C73.2957 127.521 73.3467 126.752 73.2617 126.59C73.1767 126.429 72.4584 126.119 71.8252 127.44Z" fill="black"/>
<path d="M92.2246 127.44C93.6909 127.521 93.7461 126.752 93.6611 126.59C93.5761 126.429 92.8579 126.119 92.2246 127.44Z" fill="black"/>
<path d="M61.625 112.14C63.0955 112.221 63.1465 111.452 63.0615 111.29C62.9765 111.129 62.2582 110.819 61.625 112.14Z" fill="black"/>
<path d="M82.0254 112.14C83.4916 112.221 83.5469 111.452 83.4619 111.29C83.3769 111.129 82.6586 110.819 82.0254 112.14Z" fill="black"/>
<path d="M71.8252 117.24C73.2957 117.321 73.3467 116.552 73.2617 116.39C73.1767 116.229 72.4584 115.919 71.8252 117.24Z" fill="black"/>
<path d="M92.2246 117.24C93.6909 117.321 93.7461 116.552 93.6611 116.39C93.5761 116.229 92.8579 115.919 92.2246 117.24Z" fill="black"/>
<path d="M71.8252 107.04C73.2957 107.121 73.3467 106.352 73.2617 106.19C73.1767 106.029 72.4584 105.719 71.8252 107.04Z" fill="black"/>
<path d="M92.2246 107.04C93.6909 107.121 93.7461 106.352 93.6611 106.19C93.5761 106.029 92.8579 105.719 92.2246 107.04Z" fill="black"/>
<path d="M79.6871 121.503C79.6021 121.652 79.6573 122.421 81.1236 122.353C80.4733 121.019 79.7763 121.35 79.6871 121.503Z" fill="black"/>
<path d="M69.4878 126.603C69.4028 126.752 69.4581 127.521 70.9243 127.453C70.2741 126.119 69.5771 126.45 69.4878 126.603Z" fill="black"/>
<path d="M100.088 121.503C99.9987 121.652 100.058 122.421 101.524 122.353C100.874 121.019 100.177 121.35 100.088 121.503Z" fill="black"/>
<path d="M89.8878 126.603C89.7985 126.752 89.858 127.521 91.3243 127.453C90.674 126.119 89.977 126.45 89.8878 126.603Z" fill="black"/>
<path d="M63.5762 133.56C63.5762 133.56 74.6262 136.395 88.5067 125.63C102.387 114.865 107.776 119.11 107.207 126.76C106.637 134.41 94.7414 141.495 89.6414 142.345C81.2562 143.743 73.7762 146.03 63.5762 133.56Z" fill="black"/>
<path d="M79.6871 111.303C79.6021 111.452 79.6573 112.221 81.1236 112.153C80.4733 110.819 79.7763 111.15 79.6871 111.303Z" fill="black"/>
<path d="M69.4878 116.403C69.4028 116.552 69.4581 117.321 70.9243 117.253C70.2741 115.919 69.5771 116.25 69.4878 116.403Z" fill="black"/>
<path d="M100.088 111.303C99.9987 111.452 100.058 112.221 101.524 112.153C100.874 110.819 100.177 111.15 100.088 111.303Z" fill="black"/>
<path d="M89.8878 116.403C89.7985 116.552 89.858 117.321 91.3243 117.253C90.674 115.919 89.977 116.25 89.8878 116.403Z" fill="black"/>
<path d="M69.4878 106.203C69.4028 106.352 69.4581 107.121 70.9243 107.053C70.2741 105.719 69.5771 106.05 69.4878 106.203Z" fill="black"/>
<path d="M89.8878 106.203C89.7985 106.352 89.858 107.121 91.3243 107.053C90.674 105.719 89.977 106.05 89.8878 106.203Z" fill="black"/>
<path d="M83.2233 101.685C83.416 101.56 83.5055 101.325 83.4443 101.103C83.3593 100.959 82.7516 100.678 82.1438 101.685C82.0933 101.768 82.0479 101.853 82.0078 101.94C82.4305 102.004 82.862 101.914 83.2233 101.685Z" fill="black"/>
<path d="M62.8239 101.685C63.0166 101.56 63.1061 101.325 63.0449 101.103C62.9599 100.959 62.3521 100.678 61.7444 101.685C61.6939 101.768 61.6485 101.853 61.6084 101.94C62.031 102.004 62.4626 101.914 62.8239 101.685Z" fill="black"/>
<path d="M61.5566 151.495C61.5491 151.43 61.5304 151.367 61.5014 151.308C61.4891 151.282 61.4749 151.256 61.4589 151.232C61.4319 151.191 61.399 151.153 61.3611 151.121C61.3306 151.095 61.2962 151.074 61.2591 151.058C61.2061 151.029 61.1422 151.029 61.0891 151.058C60.8936 151.143 60.5749 151.483 60.9319 152.273C61.0026 152.42 61.0836 152.562 61.1741 152.698C61.2647 152.562 61.3456 152.42 61.4164 152.273C61.5167 152.074 61.5718 151.855 61.5779 151.631C61.5802 151.592 61.5802 151.552 61.5779 151.512L61.5566 151.495Z" fill="black"/>
<path d="M81.5658 151.024C81.3915 151.024 80.754 151.449 81.5658 152.685C82.3775 151.457 81.74 151.024 81.5658 151.024Z" fill="black"/>
<path d="M81.5658 161.224C81.3915 161.224 80.754 161.649 81.5658 162.885C82.3775 161.657 81.74 161.224 81.5658 161.224Z" fill="black"/>
<path d="M61.5566 161.695C61.5491 161.63 61.5304 161.567 61.5014 161.508C61.4891 161.482 61.4749 161.456 61.4589 161.432C61.4319 161.39 61.399 161.353 61.3611 161.321C61.3306 161.295 61.2962 161.274 61.2591 161.258C61.2061 161.229 61.1422 161.229 61.0891 161.258C60.8936 161.343 60.5749 161.683 60.9319 162.473C61.0026 162.62 61.0836 162.762 61.1741 162.898C61.2647 162.762 61.3456 162.62 61.4164 162.473C61.5167 162.274 61.5718 162.055 61.5779 161.831C61.5802 161.792 61.5802 161.752 61.5779 161.712L61.5566 161.695Z" fill="black"/>
<path d="M71.3656 156.124C71.1914 156.124 70.5539 156.549 71.3656 157.785C72.1774 156.557 71.5399 156.124 71.3656 156.124Z" fill="black"/>
<path d="M91.766 156.124C91.5917 156.124 90.9542 156.549 91.766 157.785C92.5777 156.557 91.9402 156.124 91.766 156.124Z" fill="black"/>
<path d="M61.5566 141.295C61.5491 141.23 61.5304 141.167 61.5014 141.108C61.4891 141.082 61.4749 141.056 61.4589 141.032C61.4319 140.991 61.399 140.953 61.3611 140.921C61.3306 140.895 61.2962 140.874 61.2591 140.858C61.2061 140.829 61.1422 140.829 61.0891 140.858C60.8936 140.943 60.5749 141.283 60.9319 142.073C61.0026 142.22 61.0836 142.362 61.1741 142.498C61.2647 142.362 61.3456 142.22 61.4164 142.073C61.5167 141.874 61.5718 141.655 61.5779 141.431C61.5802 141.392 61.5802 141.352 61.5779 141.312L61.5566 141.295Z" fill="black"/>
<path d="M81.5658 140.824C81.3915 140.824 80.754 141.249 81.5658 142.485C82.3775 141.257 81.74 140.824 81.5658 140.824Z" fill="black"/>
<path d="M71.3656 145.924C71.1914 145.924 70.5539 146.349 71.3656 147.585C72.1774 146.357 71.5399 145.924 71.3656 145.924Z" fill="black"/>
<path d="M91.766 145.924C91.5917 145.924 90.9542 146.349 91.766 147.585C92.5777 146.357 91.9402 145.924 91.766 145.924Z" fill="black"/>
<path d="M71.3656 135.724C71.1914 135.724 70.5539 136.149 71.3656 137.385C72.1774 136.157 71.5399 135.724 71.3656 135.724Z" fill="black"/>
<path d="M91.766 135.724C91.5917 135.724 90.9542 136.149 91.766 137.385C92.5777 136.157 91.9402 135.724 91.766 135.724Z" fill="black"/>
<path d="M61.625 152.94C63.0955 153.021 63.1465 152.252 63.0615 152.09C62.9765 151.929 62.2582 151.619 61.625 152.94Z" fill="black"/>
<path d="M82.0254 152.94C83.4916 153.021 83.5469 152.252 83.4619 152.09C83.3769 151.929 82.6586 151.619 82.0254 152.94Z" fill="black"/>
<path d="M83.1213 162.15H83.0321C82.9224 162.158 82.8162 162.192 82.7218 162.248L82.6113 162.324C82.4222 162.479 82.2636 162.668 82.1438 162.881C82.0933 162.963 82.0479 163.048 82.0078 163.136C82.4305 163.2 82.862 163.11 83.2233 162.881C83.416 162.756 83.5055 162.52 83.4443 162.299C83.3636 162.204 83.2455 162.15 83.1213 162.15Z" fill="black"/>
<path d="M62.7219 162.15H62.6326C62.523 162.158 62.4168 162.192 62.3224 162.248L62.2119 162.324C62.0228 162.479 61.8642 162.668 61.7444 162.881C61.6939 162.963 61.6485 163.048 61.6084 163.136C62.031 163.2 62.4626 163.11 62.8239 162.881C63.0166 162.756 63.1061 162.52 63.0449 162.299C62.9641 162.204 62.8461 162.15 62.7219 162.15Z" fill="black"/>
<path d="M71.8252 158.04C73.2957 158.121 73.3467 157.352 73.2617 157.19C73.1767 157.029 72.4584 156.719 71.8252 158.04Z" fill="black"/>
<path d="M92.2246 158.04C93.6909 158.121 93.7461 157.352 93.6611 157.19C93.5761 157.029 92.8579 156.719 92.2246 158.04Z" fill="black"/>
<path d="M61.625 142.74C63.0955 142.821 63.1465 142.052 63.0615 141.89C62.9765 141.729 62.2582 141.419 61.625 142.74Z" fill="black"/>
<path d="M82.0254 142.74C83.4916 142.821 83.5469 142.052 83.4619 141.89C83.3769 141.729 82.6586 141.419 82.0254 142.74Z" fill="black"/>
<path d="M71.8252 147.84C73.2957 147.921 73.3467 147.152 73.2617 146.99C73.1767 146.829 72.4584 146.519 71.8252 147.84Z" fill="black"/>
<path d="M92.2246 147.84C93.6909 147.921 93.7461 147.152 93.6611 146.99C93.5761 146.829 92.8579 146.519 92.2246 147.84Z" fill="black"/>
<path d="M71.8252 137.64C73.2957 137.721 73.3467 136.952 73.2617 136.79C73.1767 136.629 72.4584 136.319 71.8252 137.64Z" fill="black"/>
<path d="M92.2246 137.64C93.6909 137.721 93.7461 136.952 93.6611 136.79C93.5761 136.629 92.8579 136.319 92.2246 137.64Z" fill="black"/>
<path d="M79.6871 152.103C79.6021 152.252 79.6573 153.021 81.1236 152.953C80.4733 151.619 79.7763 151.95 79.6871 152.103Z" fill="black"/>
<path d="M80.52 162.35L80.4095 162.273C80.3154 162.217 80.209 162.183 80.0993 162.176H80.01C79.8851 162.177 79.767 162.233 79.687 162.329C79.6259 162.55 79.7153 162.786 79.908 162.911C80.2696 163.139 80.7009 163.229 81.1235 163.166C81.0834 163.078 81.038 162.993 80.9875 162.911C80.8695 162.695 80.7107 162.505 80.52 162.35Z" fill="black"/>
<path d="M69.4878 157.203C69.4028 157.352 69.4581 158.121 70.9243 158.053C70.2741 156.719 69.5771 157.05 69.4878 157.203Z" fill="black"/>
<path d="M100.088 152.103C99.9987 152.252 100.058 153.021 101.524 152.953C100.874 151.619 100.177 151.95 100.088 152.103Z" fill="black"/>
<path d="M101.388 162.885C101.268 162.672 101.11 162.484 100.92 162.329L100.81 162.252C100.716 162.196 100.609 162.162 100.5 162.154H100.41C100.285 162.155 100.167 162.211 100.087 162.307C100.026 162.529 100.116 162.765 100.308 162.89C100.67 163.118 101.101 163.209 101.524 163.145C101.484 163.057 101.438 162.972 101.388 162.89V162.885Z" fill="black"/>
<path d="M89.8878 157.203C89.7985 157.352 89.858 158.121 91.3243 158.053C90.674 156.719 89.977 157.05 89.8878 157.203Z" fill="black"/>
<path d="M79.6871 141.903C79.6021 142.052 79.6573 142.821 81.1236 142.753C80.4733 141.419 79.7763 141.75 79.6871 141.903Z" fill="black"/>
<path d="M69.4878 147.003C69.4028 147.152 69.4581 147.921 70.9243 147.853C70.2741 146.519 69.5771 146.85 69.4878 147.003Z" fill="black"/>
<path d="M100.088 141.903C99.9987 142.052 100.058 142.821 101.524 142.753C100.874 141.419 100.177 141.75 100.088 141.903Z" fill="black"/>
<path d="M89.8878 147.003C89.7985 147.152 89.858 147.921 91.3243 147.853C90.674 146.519 89.977 146.85 89.8878 147.003Z" fill="black"/>
<path d="M69.4878 136.803C69.4028 136.952 69.4581 137.721 70.9243 137.653C70.2741 136.319 69.5771 136.65 69.4878 136.803Z" fill="black"/>
<path d="M89.8878 136.803C89.7985 136.952 89.858 137.721 91.3243 137.653C90.674 136.319 89.977 136.65 89.8878 136.803Z" fill="black"/>
<path d="M80.9877 132.285C80.9204 132.17 80.8436 132.061 80.7582 131.958C80.6877 131.873 80.6078 131.796 80.5202 131.729C80.3772 131.61 80.1961 131.546 80.0102 131.55C79.8853 131.551 79.7672 131.607 79.6872 131.703C79.6454 131.82 79.6562 131.948 79.717 132.056C79.745 132.112 79.7808 132.163 79.8232 132.209L79.9082 132.285C80.2698 132.513 80.7011 132.604 81.1237 132.54C81.0855 132.455 81.043 132.379 81.0047 132.311L80.9877 132.285Z" fill="black"/>
<path d="M101.388 132.285C101.321 132.17 101.244 132.061 101.159 131.958C101.087 131.874 101.007 131.797 100.921 131.729C100.778 131.61 100.597 131.546 100.411 131.55C100.286 131.551 100.168 131.607 100.088 131.703C100.046 131.82 100.057 131.948 100.117 132.056C100.145 132.112 100.181 132.163 100.224 132.209C100.25 132.237 100.278 132.262 100.309 132.285C100.67 132.514 101.101 132.604 101.524 132.54C101.486 132.455 101.443 132.379 101.405 132.311C101.398 132.303 101.392 132.295 101.388 132.285Z" fill="black"/>
<path d="M71.3656 166.324C71.1914 166.324 70.5539 166.749 71.3656 167.985C72.1774 166.757 71.5399 166.324 71.3656 166.324Z" fill="black"/>
<path d="M91.766 166.324C91.5917 166.324 90.9542 166.749 91.766 167.985C92.5777 166.757 91.9402 166.324 91.766 166.324Z" fill="black"/>
<path d="M71.8252 168.24C73.2957 168.321 73.3467 167.552 73.2617 167.39C73.1767 167.229 72.4584 166.919 71.8252 168.24Z" fill="black"/>
<path d="M92.2246 168.24C93.6909 168.321 93.7461 167.552 93.6611 167.39C93.5761 167.229 92.8579 166.919 92.2246 168.24Z" fill="black"/>
<path d="M69.4878 167.403C69.4028 167.552 69.4581 168.321 70.9243 168.253C70.2741 166.919 69.5771 167.25 69.4878 167.403Z" fill="black"/>
<path d="M89.8878 167.403C89.7985 167.552 89.858 168.321 91.3243 168.253C90.674 166.919 89.977 167.25 89.8878 167.403Z" fill="black"/>
<path d="M40.766 100.024C40.5917 100.024 39.9542 100.449 40.766 101.685C41.5777 100.457 40.9402 100.024 40.766 100.024Z" fill="black"/>
<path d="M50.9662 94.9237C50.7919 94.9237 50.1544 95.3487 50.9662 96.5855C51.7779 95.3572 51.1404 94.9237 50.9662 94.9237Z" fill="black"/>
<path d="M51.3403 85.1146L50.5625 85.3144C50.5885 85.7034 50.729 86.076 50.9663 86.3854C51.3615 85.7904 51.4252 85.3781 51.3403 85.1146Z" fill="black"/>
<path d="M41.2246 91.7404C42.6909 91.8211 42.7461 91.0519 42.6611 90.8904C42.5761 90.7289 41.8579 90.4186 41.2246 91.7404Z" fill="black"/>
<path d="M51.4248 96.8404C52.8911 96.9211 52.9463 96.1519 52.8613 95.9904C52.7763 95.8289 52.0581 95.5186 51.4248 96.8404Z" fill="black"/>
<path d="M51.4248 86.6404C52.8911 86.7212 52.9463 85.9519 52.8613 85.7904C52.7763 85.6289 52.0581 85.3187 51.4248 86.6404Z" fill="black"/>
<path d="M38.8872 101.103C38.8261 101.325 38.9155 101.56 39.1082 101.685C39.4698 101.913 39.9011 102.004 40.3237 101.94C40.2836 101.853 40.2382 101.768 40.1877 101.685C39.58 100.665 38.9722 100.959 38.8872 101.103Z" fill="black"/>
<path d="M59.2872 90.9032C59.1979 91.0519 59.2574 91.8212 60.7237 91.7532C60.0734 90.4187 59.3764 90.7502 59.2872 90.9032Z" fill="black"/>
<path d="M60.5881 101.685C59.9803 100.665 59.3726 100.959 59.2876 101.103C59.2264 101.325 59.3159 101.56 59.5086 101.685C59.8699 101.914 60.3014 102.004 60.7241 101.94C60.684 101.853 60.6386 101.768 60.5881 101.685Z" fill="black"/>
<path d="M49.088 96.0032C48.9987 96.1519 49.0582 96.9212 50.5245 96.8532C49.8742 95.5187 49.1772 95.8502 49.088 96.0032Z" fill="black"/>
<path d="M49.3982 85.6545L49.1772 85.7225C49.142 85.7426 49.1115 85.7702 49.088 85.8032C48.9987 85.952 49.0582 86.7212 50.5245 86.6532C50.1122 85.799 49.683 85.629 49.3982 85.6545Z" fill="black"/>
<path d="M20.3656 120.424C20.1914 120.424 19.5539 120.849 20.3656 122.085C21.1774 120.857 20.5399 120.424 20.3656 120.424Z" fill="black"/>
<path d="M30.5658 125.524C30.3915 125.524 29.754 125.949 30.5658 127.185C31.3775 125.957 30.74 125.524 30.5658 125.524Z" fill="black"/>
<path d="M40.766 110.224C40.5917 110.224 39.9542 110.649 40.766 111.885C41.5777 110.657 40.9402 110.224 40.766 110.224Z" fill="black"/>
<path d="M30.5658 115.324C30.3915 115.324 29.754 115.749 30.5658 116.985C31.3775 115.757 30.74 115.324 30.5658 115.324Z" fill="black"/>
<path d="M50.9662 115.324C50.7919 115.324 50.1544 115.749 50.9662 116.985C51.7779 115.757 51.1404 115.324 50.9662 115.324Z" fill="black"/>
<path d="M30.5658 105.124C30.3915 105.124 29.754 105.549 30.5658 106.785C31.3775 105.557 30.74 105.124 30.5658 105.124Z" fill="black"/>
<path d="M50.9662 105.124C50.7919 105.124 50.1544 105.549 50.9662 106.785C51.7779 105.557 51.1404 105.124 50.9662 105.124Z" fill="black"/>
<path d="M20.8252 122.34C22.2957 122.421 22.3509 121.652 22.2617 121.49C22.1724 121.329 21.4584 121.019 20.8252 122.34Z" fill="black"/>
<path d="M31.2588 127.007C31.637 126.867 32.0068 126.709 32.3723 126.531C32.1938 126.412 31.7348 126.331 31.2588 127.007Z" fill="black"/>
<path d="M22.2442 111.303C22.1941 111.239 22.1236 111.194 22.0445 111.176C21.781 111.511 21.5302 111.83 21.3135 112.132C22.2867 112.03 22.3207 111.435 22.2442 111.303Z" fill="black"/>
<path d="M41.2246 112.14C42.6909 112.221 42.7461 111.452 42.6611 111.29C42.5761 111.129 41.8579 110.819 41.2246 112.14Z" fill="black"/>
<path d="M31.0254 117.24C32.4959 117.321 32.5469 116.552 32.4619 116.39C32.3769 116.229 31.6586 115.919 31.0254 117.24Z" fill="black"/>
<path d="M51.4248 117.24C52.8911 117.321 52.9463 116.552 52.8613 116.39C52.7763 116.229 52.0581 115.919 51.4248 117.24Z" fill="black"/>
<path d="M31.0254 107.04C32.4959 107.121 32.5469 106.352 32.4619 106.19C32.3769 106.029 31.6586 105.719 31.0254 107.04Z" fill="black"/>
<path d="M51.4248 107.04C52.8911 107.121 52.9463 106.352 52.8613 106.19C52.7763 106.029 52.0581 105.719 51.4248 107.04Z" fill="black"/>
<path d="M28.6873 126.603C28.6065 126.739 28.649 127.385 29.7668 127.453L30.0855 127.381C29.448 126.136 28.7765 126.454 28.6873 126.603Z" fill="black"/>
<path d="M59.2872 121.503C59.1979 121.652 59.2574 122.421 60.7237 122.353C60.0734 121.019 59.3764 121.35 59.2872 121.503Z" fill="black"/>
<path d="M38.8873 111.303C38.8023 111.452 38.8575 112.221 40.3238 112.153C39.6735 110.819 38.9765 111.15 38.8873 111.303Z" fill="black"/>
<path d="M28.6871 116.403C28.6021 116.552 28.6573 117.321 30.1236 117.253C29.4733 115.919 28.7763 116.25 28.6871 116.403Z" fill="black"/>
<path d="M59.2872 111.303C59.1979 111.452 59.2574 112.221 60.7237 112.153C60.0734 110.819 59.3764 111.15 59.2872 111.303Z" fill="black"/>
<path d="M28.6871 106.203C28.6021 106.352 28.6573 107.121 30.1236 107.053C29.4733 105.719 28.7763 106.05 28.6871 106.203Z" fill="black"/>
<path d="M49.088 106.203C48.9987 106.352 49.0582 107.121 50.5245 107.053C49.8742 105.719 49.1772 106.05 49.088 106.203Z" fill="black"/>
<path d="M42.4235 101.685C42.6162 101.56 42.7057 101.325 42.6445 101.103C42.5595 100.959 41.9518 100.678 41.344 101.685C41.2935 101.768 41.2481 101.853 41.208 101.94C41.6307 102.004 42.0622 101.914 42.4235 101.685Z" fill="black"/>
<path d="M50.9662 156.124C50.7919 156.124 50.1544 156.549 50.9662 157.785C51.7779 156.557 51.1404 156.124 50.9662 156.124Z" fill="black"/>
<path d="M51.2933 146.939L50.9363 147.539L50.9661 147.585C51.1036 147.386 51.2136 147.168 51.2933 146.939V146.939Z" fill="black"/>
<path d="M51.4248 158.04C52.8911 158.121 52.9463 157.352 52.8613 157.19C52.7763 157.029 52.0581 156.719 51.4248 158.04Z" fill="black"/>
<path d="M51.4248 147.84C52.8911 147.921 52.9463 147.152 52.8613 146.99C52.7763 146.829 52.0581 146.519 51.4248 147.84Z" fill="black"/>
<path d="M59.2872 152.103C59.1979 152.252 59.2574 153.021 60.7237 152.953C60.0734 151.619 59.3764 151.95 59.2872 152.103Z" fill="black"/>
<path d="M60.5881 162.885C60.4683 162.672 60.3097 162.484 60.1206 162.329L60.0101 162.252C59.9157 162.196 59.8095 162.162 59.6998 162.154H59.6106C59.4857 162.155 59.3675 162.211 59.2876 162.307C59.2264 162.529 59.3159 162.765 59.5086 162.89C59.8699 163.118 60.3014 163.209 60.7241 163.145C60.684 163.057 60.6386 162.972 60.5881 162.89V162.885Z" fill="black"/>
<path d="M49.088 157.203C48.9987 157.352 49.0582 158.121 50.5245 158.053C49.8742 156.719 49.1772 157.05 49.088 157.203Z" fill="black"/>
<path d="M59.2872 141.903C59.1979 142.052 59.2574 142.821 60.7237 142.753C60.0734 141.419 59.3764 141.75 59.2872 141.903Z" fill="black"/>
<path d="M60.5883 132.285C60.5209 132.17 60.4442 132.061 60.3588 131.958C60.2871 131.874 60.2074 131.797 60.1208 131.729C59.9778 131.61 59.7967 131.546 59.6108 131.55C59.4859 131.551 59.3677 131.607 59.2878 131.703C59.2459 131.82 59.2568 131.948 59.3176 132.056C59.3456 132.112 59.3814 132.163 59.4238 132.209C59.4502 132.237 59.4786 132.262 59.5088 132.285C59.8701 132.514 60.3016 132.604 60.7243 132.54C60.6861 132.455 60.6436 132.379 60.6053 132.311L60.5883 132.285Z" fill="black"/>
<path d="M50.9662 166.324C50.7919 166.324 50.1544 166.749 50.9662 167.985C51.7779 166.757 51.1404 166.324 50.9662 166.324Z" fill="black"/>
<path d="M51.4248 168.24C52.8911 168.321 52.9463 167.552 52.8613 167.39C52.7763 167.229 52.0581 166.919 51.4248 168.24Z" fill="black"/>
<path d="M49.088 167.403C48.9987 167.552 49.0582 168.321 50.5245 168.253C49.8742 166.919 49.1772 167.25 49.088 167.403Z" fill="black"/>
<path d="M19.3672 121.571C19.4516 121.834 19.5495 122.092 19.6604 122.345H19.9239C19.7949 122.051 19.6051 121.787 19.3672 121.571H19.3672Z" fill="black"/>
</g>
<path d="M118.669 168.411C118.669 168.411 119.43 157.977 114.844 147.539C110.258 137.101 109.226 136.349 109.226 133.293C109.226 130.237 112.294 126.671 112.804 119.799C113.314 112.927 113.059 109.599 113.059 109.599C113.059 109.599 124.003 126.905 131.64 127.925C139.277 128.945 143.859 121.818 141.058 112.145C138.257 102.472 126.039 94.5838 121.206 88.2173C116.374 81.8508 105.422 81.8423 99.8246 81.8423C94.2274 81.8423 91.4266 79.8065 90.4066 75.99C89.3866 72.1735 89.3909 64.515 89.3909 64.515C89.3909 64.515 82.7694 68.5865 71.5706 64.005C71.5706 64.005 72.5906 78.0045 71.3156 80.0403C70.0406 82.076 68.2726 84.15 60.6354 84.15C52.9981 84.15 46.6359 85.68 43.0744 89.25C39.5129 92.82 24.7484 107.066 20.9319 112.668C17.1154 118.269 19.1469 124.376 23.7284 126.667C28.3099 128.958 32.8914 126.918 36.2021 123.866C39.5129 120.815 49.9466 111.138 49.9466 111.138C49.9466 111.138 49.9466 116.994 52.7474 125.392C55.5481 133.79 57.8474 132.774 55.7989 138.882C53.7504 144.989 49.6916 146.774 48.4209 154.662C47.6597 159.202 47.3183 163.803 47.4009 168.406" stroke="#263238" stroke-width="0.5" stroke-linecap="round" stroke-linejoin="round"/>
<path d="M49.9463 111.142C50.155 108.389 50.7193 105.675 51.625 103.067L49.9463 111.142Z" fill="white"/>
<path d="M49.9463 111.142C50.155 108.389 50.7193 105.675 51.625 103.067" stroke="#263238" stroke-width="0.5" stroke-linecap="round" stroke-linejoin="round"/>
<path d="M113.05 109.616C112.49 107.504 111.711 105.455 110.726 103.505" stroke="#263238" stroke-width="0.5" stroke-linecap="round" stroke-linejoin="round"/>
<path d="M75.6631 137.827L91.6941 132.689" stroke="#263238" stroke-width="0.5" stroke-linecap="round" stroke-linejoin="round"/>
<path d="M82.9219 133.594C86.667 132.087 90.5751 131.022 94.5669 130.42" stroke="#263238" stroke-width="0.5" stroke-linecap="round" stroke-linejoin="round"/>
<path d="M78.4508 101.218C91.1498 103.666 96.0501 91.4939 97.7543 81.7657C93.5256 81.2982 91.2986 79.3304 90.4146 76.0197C89.3988 72.1947 89.3988 64.5447 89.3988 64.5447C89.3988 64.5447 82.7773 68.6162 71.5786 64.0347C71.5786 64.0347 72.5986 78.0342 71.3236 80.0699C70.4396 81.4894 69.3006 82.9089 66.1131 83.6357C65.9983 88.0047 66.8781 98.9824 78.4508 101.218Z" fill="#B2B2B2"/>
<path opacity="0.2" d="M90.1389 74.7618C89.3994 70.7413 89.3994 64.5618 89.3994 64.5618C89.3994 64.5618 82.7779 68.6333 71.5791 64.0518C71.5791 64.0518 72.0041 69.904 71.9616 74.5918C81.6006 77.9408 87.1766 76.5213 90.1389 74.7618Z" fill="black"/>
<path fill-rule="evenodd" clip-rule="evenodd" d="M78.4508 101.218C91.1498 103.666 96.0501 91.4939 97.7543 81.7657C93.5256 81.2982 91.2986 79.3304 90.4146 76.0197C89.3988 72.1947 89.3988 64.5447 89.3988 64.5447C89.3988 64.5447 82.7773 68.6162 71.5786 64.0347C71.5786 64.0347 72.5986 78.0342 71.3236 80.0699C70.4396 81.4894 69.3006 82.9089 66.1131 83.6357C65.9983 88.0047 66.8781 98.9824 78.4508 101.218Z" stroke="#263238" stroke-width="0.5" stroke-linecap="round" stroke-linejoin="round"/>
<circle cx="97.6525" cy="56.5292" r="3.1535" fill="#ADC7F7" stroke="#263238" stroke-width="0.5" stroke-linecap="round" stroke-linejoin="round"/>
<circle cx="63.967" cy="56.5292" r="3.1535" fill="#ADC7F7" stroke="#263238" stroke-width="0.5" stroke-linecap="round" stroke-linejoin="round"/>
<path d="M97.3638 45.7809C97.3638 45.7809 98.9405 40.9062 100.806 42.6274C102.672 44.3487 100.233 50.9404 98.9405 52.5172C97.6485 54.0939 96.3608 54.0939 96.5053 51.9434C96.6498 49.7929 97.3638 45.7809 97.3638 45.7809Z" fill="#B2B2B2" stroke="#263238" stroke-width="0.5" stroke-linecap="round" stroke-linejoin="round"/>
<path d="M64.7666 50.6855C64.7666 50.6855 65.1916 62.0713 73.5726 67.6558C81.9536 73.2403 88.1799 70.0188 91.6181 65.2928C95.0564 60.5668 97.2069 55.8408 97.2069 48.9685C97.2069 42.0963 98.0569 39.083 95.7024 34.7863C93.3479 30.4895 85.1751 28.3433 85.1751 28.3433C81.7799 32.5805 78.1204 36.5991 74.2186 40.375C67.7714 46.6013 64.7666 50.6855 64.7666 50.6855Z" fill="#B2B2B2"/>
<path opacity="0.2" d="M85.1751 28.3433C81.7799 32.5805 78.1204 36.5991 74.2186 40.375C67.7714 46.6013 64.7666 50.6855 64.7666 50.6855C64.9223 52.904 65.3607 55.0934 66.0714 57.2008C77.3934 48.5393 83.5771 32.9758 85.2219 28.356L85.1751 28.3433Z" fill="black"/>
<path fill-rule="evenodd" clip-rule="evenodd" d="M64.7666 50.6855C64.7666 50.6855 65.1916 62.0713 73.5726 67.6558C81.9536 73.2403 88.1799 70.0188 91.6181 65.2928C95.0564 60.5668 97.2069 55.8408 97.2069 48.9685C97.2069 42.0963 98.0569 39.083 95.7024 34.7863C93.3479 30.4895 85.1751 28.3433 85.1751 28.3433C81.7799 32.5805 78.1204 36.5991 74.2186 40.375C67.7714 46.6013 64.7666 50.6855 64.7666 50.6855Z" stroke="#263238" stroke-width="0.5" stroke-linecap="round" stroke-linejoin="round"/>
<path d="M72.6924 49.3467L77.5161 49.7972" stroke="#263238" stroke-width="0.5" stroke-linecap="round" stroke-linejoin="round"/>
<path d="M87.3125 49.1938C87.3125 49.1938 90.4788 48.5903 91.9875 49.1938" stroke="#263238" stroke-width="0.5" stroke-linecap="round" stroke-linejoin="round"/>
<path d="M76.8659 47.141C76.8659 48.2885 76.3517 49.2192 75.7184 49.2192C75.0852 49.2192 74.5752 48.2885 74.5752 47.141C74.5752 45.9935 75.0852 45.0627 75.7184 45.0627C76.3517 45.0627 76.8659 45.9935 76.8659 47.141Z" fill="#263238"/>
<path d="M79.4453 54.4C81.0263 55.3919 83.0728 55.2186 84.4646 53.975" stroke="#263238" stroke-width="0.5" stroke-linecap="round" stroke-linejoin="round"/>
<path d="M80.75 59.2534C80.75 59.2534 85.1912 61.1192 87.771 55.0969" stroke="#263238" stroke-width="0.5" stroke-linecap="round" stroke-linejoin="round"/>
<path d="M86.4707 47.2132C86.4707 47.2132 89.195 45.3474 91.9192 46.4949" stroke="#263238" stroke-width="0.85" stroke-linecap="round" stroke-linejoin="round"/>
<path d="M85.6123 42.5C85.6123 42.5 88.6213 39.491 92.7778 41.9263" stroke="#263238" stroke-width="0.85" stroke-linecap="round" stroke-linejoin="round"/>
<path d="M79.1609 40.6172C79.1609 40.6172 76.5811 38.0375 72.9941 40.477" stroke="#263238" stroke-width="0.85" stroke-linecap="round" stroke-linejoin="round"/>
<path d="M20.9321 112.672C20.9321 112.672 16.3506 117.772 16.3506 123.106C16.3506 128.439 19.4021 133.306 27.8256 140.922C36.2491 148.538 44.1116 154.156 47.4223 155.941C50.7331 157.726 54.0396 155.431 54.0396 155.431C54.0396 155.431 59.5136 160.901 60.1468 159.63C60.7801 158.359 58.2386 156.447 57.7286 155.686C57.2809 155.082 56.7694 154.527 56.2028 154.033C56.2028 154.033 58.8761 154.411 59.8961 155.308C60.9161 156.205 62.5651 157.726 63.3301 157.599C64.0951 157.471 64.0951 156.834 62.9476 155.308C62.0225 154.113 60.9051 153.08 59.6411 152.252C58.8761 151.746 56.3303 150.344 56.3303 150.344C56.3303 150.344 60.0193 150.089 61.2943 150.854C62.5693 151.619 66.0033 153.91 66.2583 152.89C66.5133 151.87 66.5133 151.236 65.2383 150.089C63.9633 148.941 61.4133 147.539 59.8961 147.288C58.8502 147.096 57.8264 146.798 56.8403 146.4C56.8403 146.4 59.7686 145.38 60.7843 145.38C61.8001 145.38 65.8843 147.416 67.0191 147.165C68.1538 146.914 67.5291 145.89 66.6408 145.252C65.7526 144.615 61.8043 143.089 60.1468 142.962C58.4893 142.834 49.2031 146.017 48.0598 146.017C46.9166 146.017 43.9883 141.946 40.9326 136.472C37.8768 130.998 36.7336 122.472 30.2438 119.548" fill="#ADC7F7"/>
<g opacity="0.2">
<path d="M20.3666 122.086C21.1784 120.857 20.5409 120.424 20.3666 120.424C20.5409 120.424 21.1784 120.857 20.3666 122.086Z" fill="black"/>
<path d="M20.3666 130.624C20.5409 130.624 21.1784 131.049 20.3666 132.286C21.1784 131.057 20.5409 130.624 20.3666 130.624Z" fill="black"/>
<path d="M30.5668 125.524C30.3925 125.524 29.755 125.949 30.5668 127.186C31.3785 125.957 30.741 125.524 30.5668 125.524Z" fill="black"/>
<path d="M22.2451 121.503C22.1558 121.35 21.4588 121.019 20.8086 122.353C22.2791 122.421 22.3343 121.652 22.2451 121.503Z" fill="black"/>
<path d="M22.1 132.209C22.1425 132.163 22.1783 132.112 22.2063 132.056C22.2912 131.956 22.304 131.813 22.2381 131.7C22.1723 131.586 22.0421 131.526 21.913 131.55C21.7271 131.547 21.5461 131.61 21.403 131.729C21.3164 131.797 21.2367 131.874 21.165 131.958C21.0797 132.061 21.0029 132.17 20.9355 132.286H22.015C22.0452 132.262 22.0737 132.237 22.1 132.209Z" fill="black"/>
<path d="M32.4453 126.603C32.356 126.45 31.659 126.119 31.0088 127.453C32.4793 127.521 32.5303 126.752 32.4453 126.603Z" fill="black"/>
<path d="M30.1241 127.441C29.4738 126.119 28.7768 126.45 28.6876 126.591C28.5983 126.731 28.6578 127.521 30.1241 127.441Z" fill="black"/>
<path d="M20.3666 120.424V122.086C21.1784 120.857 20.5409 120.424 20.3666 120.424Z" fill="black"/>
<path d="M20.3666 130.624V132.286C21.1784 131.057 20.5409 130.624 20.3666 130.624Z" fill="black"/>
<path d="M40.7664 151.024C40.6133 151.055 40.4868 151.163 40.4307 151.309L41.1489 151.836C41.2552 151.249 40.8939 151.024 40.7664 151.024Z" fill="black"/>
<path d="M50.9662 156.124C50.7462 156.178 50.5874 156.369 50.5752 156.596C50.8305 156.575 51.0844 156.541 51.3359 156.494C51.2945 156.309 51.1506 156.165 50.9662 156.124Z" fill="black"/>
<path d="M40.766 140.824C40.5917 140.824 39.9542 141.249 40.766 142.485C41.5777 141.257 40.9402 140.824 40.766 140.824Z" fill="black"/>
<path d="M50.9661 147.586C51.7779 146.357 51.1404 145.924 50.9661 145.924C50.7919 145.924 50.1501 146.357 50.9661 147.586Z" fill="black"/>
<path d="M30.5667 137.386C31.3784 136.157 30.7409 135.724 30.5667 135.724C30.3924 135.724 29.7507 136.157 30.5667 137.386Z" fill="black"/>
<path d="M42.645 152.103C42.577 151.989 42.169 151.772 41.6973 152.227C41.9268 152.397 42.1563 152.558 42.3815 152.715C42.601 152.597 42.7102 152.344 42.645 152.103Z" fill="black"/>
<path d="M41.2256 142.741C42.6918 142.821 42.7471 142.052 42.6621 141.891C42.5771 141.729 41.8588 141.419 41.2256 142.741Z" fill="black"/>
<path d="M51.4258 147.84C52.892 147.921 52.9473 147.152 52.8623 146.99C52.7773 146.829 52.059 146.519 51.4258 147.84Z" fill="black"/>
<path d="M31.0254 137.641C32.4959 137.721 32.5469 136.952 32.4619 136.791C32.3769 136.629 31.6586 136.319 31.0254 137.641Z" fill="black"/>
<path d="M60.5752 152.945C60.2097 152.656 59.874 152.422 59.619 152.248L59.3215 152.061L59.2875 152.103C59.2025 152.248 59.2577 152.966 60.5752 152.945Z" fill="black"/>
<path d="M40.3243 142.74C39.674 141.419 38.977 141.75 38.8878 141.89C38.7985 142.031 38.858 142.821 40.3243 142.74Z" fill="black"/>
<path d="M49.088 147.003C48.9987 147.152 49.0582 147.921 50.5245 147.853C49.8742 146.519 49.1772 146.85 49.088 147.003Z" fill="black"/>
<path d="M28.688 136.803C28.603 136.952 28.6583 137.721 30.1245 137.653C29.4743 136.319 28.7773 136.65 28.688 136.803Z" fill="black"/>
<path d="M22.0237 132.285H20.9442C20.9454 132.294 20.9454 132.303 20.9442 132.311C20.9059 132.379 20.8634 132.455 20.8252 132.54C21.2423 132.6 21.6671 132.51 22.0237 132.285Z" fill="black"/>
<path d="M20.366 120.424C20.1918 120.424 19.5543 120.849 20.366 122.086V120.424Z" fill="black"/>
<path d="M20.366 132.286V130.624C20.1917 130.624 19.55 131.057 20.366 132.286Z" fill="black"/>
<path d="M19.9249 122.341C19.2746 121.019 18.5776 121.35 18.4884 121.491C18.3991 121.631 18.4586 122.421 19.9249 122.341Z" fill="black"/>
<path d="M19.55 131.958C19.4783 131.874 19.3986 131.797 19.312 131.729L19.2822 131.708C19.414 131.899 19.5457 132.094 19.7072 132.286H19.8007C19.7266 132.17 19.6427 132.06 19.55 131.958Z" fill="black"/>
<path d="M19.8055 132.311C19.8043 132.303 19.8043 132.294 19.8055 132.286H19.712L19.899 132.541H19.9415C19.8863 132.456 19.8438 132.379 19.8055 132.311Z" fill="black"/>
</g>
<path d="M20.9321 112.672C20.9321 112.672 16.3506 117.772 16.3506 123.106C16.3506 128.439 19.4021 133.306 27.8256 140.922C36.2491 148.538 44.1116 154.156 47.4223 155.941C50.7331 157.726 54.0396 155.431 54.0396 155.431C54.0396 155.431 59.5136 160.901 60.1468 159.63C60.7801 158.359 58.2386 156.447 57.7286 155.686C57.2809 155.082 56.7694 154.527 56.2028 154.033C56.2028 154.033 58.8761 154.411 59.8961 155.308C60.9161 156.205 62.5651 157.726 63.3301 157.599C64.0951 157.471 64.0951 156.834 62.9476 155.308C62.0225 154.113 60.9051 153.08 59.6411 152.252C58.8761 151.746 56.3303 150.344 56.3303 150.344C56.3303 150.344 60.0193 150.089 61.2943 150.854C62.5693 151.619 66.0033 153.91 66.2583 152.89C66.5133 151.87 66.5133 151.236 65.2383 150.089C63.9633 148.941 61.4133 147.539 59.8961 147.288C58.8502 147.096 57.8264 146.798 56.8403 146.4C56.8403 146.4 59.7686 145.38 60.7843 145.38C61.8001 145.38 65.8843 147.416 67.0191 147.165C68.1538 146.914 67.5291 145.89 66.6408 145.252C65.7526 144.615 61.8043 143.089 60.1468 142.962C58.4893 142.834 49.2031 146.017 48.0598 146.017C46.9166 146.017 43.9883 141.946 40.9326 136.472C37.8768 130.998 36.7336 122.472 30.2438 119.548" stroke="#263238" stroke-width="0.5" stroke-linecap="round" stroke-linejoin="round"/>
<path d="M66.6196 145.248C65.7271 144.615 61.7831 143.085 60.1256 142.957C58.4681 142.83 49.1818 146.013 48.0386 146.013C46.8953 146.013 43.9671 141.942 40.9113 136.468C39.2113 133.429 38.1063 129.447 36.3426 126.008C26.9926 124.733 22.9848 130.199 21.1318 134.13C23.195 136.549 25.4246 138.821 27.8043 140.93C36.2023 148.58 44.0903 154.165 47.4011 155.95C50.7118 157.735 54.0183 155.44 54.0183 155.44C54.0183 155.44 59.4923 160.909 60.1256 159.639C60.7588 158.368 58.2173 156.455 57.7073 155.695C57.2597 155.09 56.7482 154.536 56.1816 154.041C56.1816 154.041 58.8548 154.42 59.8748 155.316C60.8948 156.213 62.5438 157.735 63.3088 157.607C64.0738 157.48 64.0738 156.842 62.9263 155.316C62.0012 154.121 60.8838 153.089 59.6198 152.261C58.8548 151.755 56.3091 150.352 56.3091 150.352C56.3091 150.352 59.9981 150.097 61.2731 150.862C62.5481 151.627 65.9821 153.918 66.2371 152.898C66.4921 151.878 66.4921 151.245 65.2171 150.097C63.9421 148.95 61.3921 147.547 59.8748 147.297C58.8289 147.104 57.8051 146.807 56.8191 146.408C56.8191 146.408 59.7473 145.388 60.7631 145.388C61.7788 145.388 65.8631 147.424 66.9978 147.173C68.1326 146.923 67.5078 145.886 66.6196 145.248Z" fill="#B2B2B2" stroke="#263238" stroke-width="0.5" stroke-linecap="round" stroke-linejoin="round"/>
<path d="M121.874 117.449C120.811 115.022 121.721 109.71 122.783 102.123C123.846 94.537 124.908 86.7978 124.908 82.7008C124.908 78.6038 125.584 72.9258 124.249 71.094C122.915 69.2623 118.057 64.294 117.696 61.9905C117.335 59.687 120.607 56.1638 120.607 56.1638C120.607 56.1638 121.58 54.3405 122.43 55.3138C123.28 56.287 122.915 57.4983 122.43 59.1983C121.946 60.8983 121.457 62.2328 121.457 62.2328C121.457 62.2328 125.707 63.5673 126.799 62.8405C127.892 62.1138 127.794 57.9573 127.717 55.9215C127.56 51.952 125.971 53.6478 124.87 55.5263C124.339 56.4273 121.228 55.8918 123.047 53.584C124.866 51.2763 126.557 49.2405 128.257 51.0638C129.957 52.887 131.168 56.406 131.168 56.406C131.168 56.406 132.384 50.6218 133.489 47.2218C134.594 43.8218 136.574 42.4745 137.288 42.7125C138.002 42.9505 137.922 44.1363 137.208 45.798C136.494 47.4598 134.913 52.0455 134.517 53.55C134.122 55.0545 134.046 56.7928 134.836 56.6355C135.627 56.4783 138.393 51.6503 139.188 49.5933C139.983 47.5363 141.164 45.6408 142.507 44.7695C143.85 43.8983 144.96 45.0075 144.407 46.4313C143.31 49.006 142.064 51.5149 140.676 53.9453C139.803 55.516 139.062 57.1565 138.461 58.8498C139.764 57.4615 141.137 56.1409 142.575 54.893C144.475 53.312 146.532 52.9975 147.161 53.55C147.79 54.1025 147.242 54.1833 145.661 55.4498C144.08 56.7163 141.717 58.225 139.826 61.302C138.361 63.5583 137.217 66.007 136.426 68.578C135.838 70.2657 135.068 71.8846 134.131 73.406C134.131 73.406 135.614 85.4505 138.185 92.0763C140.756 98.702 145.304 108.392 143.918 115.315C142.533 122.239 139.864 125.796 136.107 126.884C133.898 127.529 131.514 127.089 129.681 125.698" fill="#ADC7F7"/>
<g opacity="0.2">
<path d="M142.766 49.0236C142.922 49.0577 143.05 49.168 143.106 49.3169C143.052 49.1666 142.923 49.0555 142.766 49.0236Z" fill="black"/>
<path d="M142.766 49.0237V50.0182L143.106 49.3169C143.05 49.1681 142.922 49.0578 142.766 49.0237Z" fill="black"/>
<path d="M142.766 111.885C143.578 110.657 142.94 110.224 142.766 110.224C142.94 110.224 143.578 110.657 142.766 111.885Z" fill="black"/>
<path d="M144.156 112.03C144.156 111.747 144.143 111.463 144.118 111.18C143.854 111.248 143.523 111.499 143.208 112.145C143.528 112.173 143.851 112.134 144.156 112.03Z" fill="black"/>
<path d="M142.766 110.224V111.885C143.578 110.657 142.94 110.224 142.766 110.224Z" fill="black"/>
<path d="M122.367 59.2236C122.218 59.2236 121.751 59.5339 122.082 60.3541C122.188 60.0099 122.303 59.6316 122.418 59.2321L122.367 59.2236Z" fill="black"/>
<path d="M132.567 65.9855C133.378 64.7572 132.741 64.3237 132.567 64.3237C132.392 64.3237 131.751 64.7572 132.567 65.9855Z" fill="black"/>
<path d="M142.588 50.3794L142.767 50.0182V49.0237C142.605 49.0237 142.065 49.3892 142.588 50.3794Z" fill="black"/>
<path d="M132.567 54.1237C132.393 54.1237 131.755 54.5487 132.567 55.7854C133.379 54.5572 132.741 54.1237 132.567 54.1237Z" fill="black"/>
<path d="M124.215 70.856C124.276 70.7483 124.287 70.6195 124.245 70.5032C124.165 70.4072 124.047 70.3513 123.922 70.3502C123.843 70.3481 123.764 70.3596 123.688 70.3842C123.863 70.5967 124.02 70.788 124.147 70.958C124.174 70.9271 124.197 70.8928 124.215 70.856Z" fill="black"/>
<path d="M134.445 65.4032C134.356 65.2502 133.659 64.9187 133.009 66.2532C134.475 66.3212 134.53 65.5519 134.445 65.4032Z" fill="black"/>
<path d="M134.237 55.7769C134.22 55.5434 134.22 55.3091 134.237 55.0757C133.965 54.9907 133.468 55.0757 132.996 56.0404C133.428 56.1104 133.871 56.0164 134.237 55.7769Z" fill="black"/>
<path d="M134.458 45.0499C134.343 45.2412 134.237 45.4494 134.126 45.6662C134.362 45.5575 134.497 45.3062 134.458 45.0499Z" fill="black"/>
<path d="M120.488 60.3032C120.403 60.4477 120.459 61.1872 121.831 61.1532L121.87 61.0427C121.236 59.8442 120.578 60.1545 120.488 60.3032Z" fill="black"/>
<path d="M130.688 65.4032C130.598 65.5519 130.658 66.3212 132.124 66.2532C131.474 64.9187 130.777 65.2502 130.688 65.4032Z" fill="black"/>
<path d="M140.888 50.1031C140.803 50.2519 140.859 51.0169 142.308 50.9531C141.67 49.6229 140.978 49.9501 140.888 50.1031Z" fill="black"/>
<path d="M132.124 56.0404C131.978 55.6987 131.74 55.4043 131.436 55.1904C131.368 55.5092 131.308 55.7769 131.266 55.9809C131.546 56.0507 131.837 56.0708 132.124 56.0404Z" fill="black"/>
<path d="M130.947 55.8152C130.879 55.6367 130.794 55.4285 130.697 55.1947C130.626 55.4346 130.73 55.6914 130.947 55.8152Z" fill="black"/>
<path d="M132.567 96.5855C133.378 95.3572 132.741 94.9237 132.567 94.9237C132.392 94.9237 131.751 95.3572 132.567 96.5855Z" fill="black"/>
<path d="M132.567 84.7236C132.393 84.7236 131.755 85.1486 132.567 86.3854C133.379 85.1571 132.741 84.7236 132.567 84.7236Z" fill="black"/>
<path d="M132.567 74.5237C132.393 74.5237 131.755 74.9487 132.567 76.1854C133.379 74.9572 132.741 74.5237 132.567 74.5237Z" fill="black"/>
<path d="M124.262 90.9499C124.262 91.0392 124.241 91.1327 124.228 91.2219C124.266 91.1367 124.278 91.0419 124.262 90.9499Z" fill="black"/>
<path d="M124.245 101.103C124.16 100.959 123.552 100.678 122.944 101.685H124.024C124.217 101.56 124.306 101.325 124.245 101.103Z" fill="black"/>
<path d="M133.025 96.8404C134.492 96.9211 134.547 96.1519 134.462 95.9904C134.377 95.8289 133.659 95.5186 133.025 96.8404Z" fill="black"/>
<path d="M134.445 85.8032C134.356 85.6502 133.659 85.3187 133.009 86.6532C134.475 86.7212 134.53 85.952 134.445 85.8032Z" fill="black"/>
<path d="M133.025 76.4405C134.105 76.5 134.419 76.1005 134.475 75.8242L134.436 75.5735C134.275 75.4162 133.62 75.1952 133.025 76.4405Z" fill="black"/>
<path d="M141.7 101.112C141.275 100.818 140.948 100.997 140.888 101.112C140.827 101.333 140.916 101.569 141.109 101.694H141.9L141.7 101.112Z" fill="black"/>
<path d="M130.688 96.0032C130.598 96.1519 130.658 96.9212 132.124 96.8532C131.474 95.5187 130.777 95.8502 130.688 96.0032Z" fill="black"/>
<path d="M130.688 85.8032C130.598 85.952 130.658 86.7212 132.124 86.6532C131.474 85.3187 130.777 85.6502 130.688 85.8032Z" fill="black"/>
<path d="M130.688 75.6031C130.598 75.7519 130.658 76.5211 132.124 76.4531C131.474 75.1186 130.777 75.4501 130.688 75.6031Z" fill="black"/>
<path d="M132.567 125.524C132.401 125.524 131.823 125.915 132.448 126.994L132.66 127.037C133.323 125.923 132.732 125.524 132.567 125.524Z" fill="black"/>
<path d="M122.366 111.885C123.178 110.657 122.541 110.224 122.366 110.224C122.192 110.224 121.55 110.657 122.366 111.885Z" fill="black"/>
<path d="M142.766 110.224C142.592 110.224 141.955 110.649 142.766 111.885V110.224Z" fill="black"/>
<path d="M132.567 116.985C133.378 115.757 132.741 115.324 132.567 115.324C132.392 115.324 131.751 115.757 132.567 116.985Z" fill="black"/>
<path d="M132.567 105.124C132.393 105.124 131.755 105.549 132.567 106.785C133.379 105.557 132.741 105.124 132.567 105.124Z" fill="black"/>
<path d="M134.445 126.603C134.364 126.463 133.782 126.178 133.17 127.117C133.519 127.162 133.872 127.181 134.224 127.173C134.412 127.05 134.501 126.821 134.445 126.603Z" fill="black"/>
<path d="M122.825 112.14C124.291 112.221 124.347 111.452 124.262 111.29C124.177 111.129 123.458 110.819 122.825 112.14Z" fill="black"/>
<path d="M133.025 117.24C134.492 117.321 134.547 116.552 134.462 116.39C134.377 116.229 133.659 115.919 133.025 117.24Z" fill="black"/>
<path d="M134.445 106.203C134.356 106.05 133.659 105.719 133.009 107.053C134.475 107.121 134.53 106.352 134.445 106.203Z" fill="black"/>
<path d="M140.888 121.503C140.82 121.618 140.841 122.098 141.521 122.277C141.636 122.073 141.751 121.852 141.857 121.652C141.377 121.167 140.956 121.384 140.888 121.503Z" fill="black"/>
<path d="M130.93 126.463C131.172 126.577 131.42 126.68 131.673 126.769C131.498 126.542 131.214 126.425 130.93 126.463Z" fill="black"/>
<path d="M121.924 112.14C121.826 111.926 121.699 111.725 121.546 111.545C121.546 111.745 121.512 111.941 121.499 112.136C121.64 112.146 121.782 112.148 121.924 112.14Z" fill="black"/>
<path d="M142.324 112.14C141.674 110.819 140.977 111.15 140.888 111.29C140.799 111.431 140.858 112.221 142.324 112.14Z" fill="black"/>
<path d="M130.688 116.403C130.598 116.552 130.658 117.321 132.124 117.253C131.474 115.919 130.777 116.25 130.688 116.403Z" fill="black"/>
<path d="M130.688 106.203C130.598 106.352 130.658 107.121 132.124 107.053C131.474 105.719 130.777 106.05 130.688 106.203Z" fill="black"/>
<path d="M122.945 101.685C122.898 101.762 122.855 101.847 122.809 101.936C123.231 102 123.663 101.91 124.024 101.681H122.945V101.685Z" fill="black"/>
<path d="M141.9 101.685H141.101C141.36 101.86 141.668 101.949 141.98 101.94L141.9 101.685Z" fill="black"/>
</g>
<path d="M121.874 117.449C120.811 115.022 121.721 109.71 122.783 102.123C123.846 94.537 124.908 86.7978 124.908 82.7008C124.908 78.6038 125.584 72.9258 124.249 71.094C122.915 69.2623 118.057 64.294 117.696 61.9905C117.335 59.687 120.607 56.1638 120.607 56.1638C120.607 56.1638 121.58 54.3405 122.43 55.3138C123.28 56.287 122.915 57.4983 122.43 59.1983C121.946 60.8983 121.457 62.2328 121.457 62.2328C121.457 62.2328 125.707 63.5673 126.799 62.8405C127.892 62.1138 127.794 57.9573 127.717 55.9215C127.56 51.952 125.971 53.6478 124.87 55.5263C124.339 56.4273 121.228 55.8918 123.047 53.584C124.866 51.2763 126.557 49.2405 128.257 51.0638C129.957 52.887 131.168 56.406 131.168 56.406C131.168 56.406 132.384 50.6218 133.489 47.2218C134.594 43.8218 136.574 42.4745 137.288 42.7125C138.002 42.9505 137.922 44.1363 137.208 45.798C136.494 47.4598 134.913 52.0455 134.517 53.55C134.122 55.0545 134.046 56.7928 134.836 56.6355C135.627 56.4783 138.393 51.6503 139.188 49.5933C139.983 47.5363 141.164 45.6408 142.507 44.7695C143.85 43.8983 144.96 45.0075 144.407 46.4313C143.31 49.006 142.064 51.5149 140.676 53.9453C139.803 55.516 139.062 57.1565 138.461 58.8498C139.764 57.4615 141.137 56.1409 142.575 54.893C144.475 53.312 146.532 52.9975 147.161 53.55C147.79 54.1025 147.242 54.1833 145.661 55.4498C144.08 56.7163 141.717 58.225 139.826 61.302C138.361 63.5583 137.217 66.007 136.426 68.578C135.838 70.2657 135.068 71.8846 134.131 73.406C134.131 73.406 135.614 85.4505 138.185 92.0763C140.756 98.702 145.304 108.392 143.918 115.315C142.533 122.239 139.864 125.796 136.107 126.884C133.898 127.529 131.514 127.089 129.681 125.698" stroke="#263238" stroke-width="0.5" stroke-linecap="round" stroke-linejoin="round"/>
<path d="M139.825 61.302C141.725 58.2165 144.101 56.712 145.682 55.4497C147.263 54.1875 147.807 54.1025 147.182 53.55C146.557 52.9975 144.496 53.312 142.596 54.893C141.158 56.1408 139.785 57.4614 138.482 58.8497C139.077 57.1571 139.81 55.5167 140.675 53.9452C142.059 51.5145 143.301 49.0056 144.394 46.4312C144.946 45.0075 143.841 43.8812 142.494 44.7695C141.147 45.6577 139.965 47.5362 139.175 49.5932C138.384 51.6502 135.613 56.4782 134.823 56.6355C134.032 56.7927 134.109 55.0502 134.504 53.55C134.899 52.0497 136.485 47.4597 137.194 45.798C137.904 44.1362 137.985 42.9505 137.275 42.7125C136.565 42.4745 134.585 43.8175 133.476 47.2217C132.366 50.626 131.155 56.406 131.155 56.406C131.155 56.406 129.944 52.8827 128.244 51.0637C126.544 49.2447 124.844 51.2762 123.033 53.584C121.223 55.8917 124.308 56.4272 124.857 55.5262C125.957 53.6477 127.547 51.952 127.704 55.9215C127.781 57.9572 127.878 62.1095 126.786 62.8405C125.694 63.5715 121.444 62.2327 121.444 62.2327C121.444 62.2327 121.928 60.8982 122.417 59.1982C122.906 57.4982 123.267 56.2827 122.417 55.3137C121.567 54.3447 120.594 56.1637 120.594 56.1637C120.594 56.1637 117.317 59.6827 117.683 61.9905C118.048 64.2982 122.902 69.2707 124.236 71.094C125.571 72.9172 124.895 78.6037 124.895 82.7007C124.895 86.7977 123.832 94.537 122.77 102.123C122.77 102.225 122.74 102.319 122.727 102.416C124.406 104.18 127.827 106.709 133.612 106.513C137.488 106.382 140.233 104.431 142.09 102.285C140.858 98.617 139.311 95.0597 138.163 92.0847C135.592 85.459 134.109 73.4145 134.109 73.4145C135.047 71.893 135.816 70.2742 136.404 68.5865C137.201 66.0113 138.352 63.5597 139.825 61.302Z" fill="#B2B2B2" stroke="#263238" stroke-width="0.5" stroke-linecap="round" stroke-linejoin="round"/>
<path d="M128.189 72.93C128.189 72.93 127.479 69.9252 128.508 68.0255C129.048 66.9453 129.94 66.0807 131.036 65.5732" stroke="#263238" stroke-width="0.5" stroke-linecap="round" stroke-linejoin="round"/>
</svg>
