<svg xmlns="http://www.w3.org/2000/svg" width="343.2" height="583.963" viewBox="0 0 343.2 583.963">
  <g id="Teddy_bear-bro" data-name="Teddy bear-bro" transform="translate(-0.163 153.706)">
    <g id="freepik--background-simple--inject-48" transform="translate(18.938)">
      <path id="Path" d="M76.7,209.5c-4.825-1.954-9.537-3.977-14.112-6.007-16.1-7.136-32.845-16.362-44.867-29.861C1.812,155.805-1.059,129.626.3,106.719c1.03-17.18,6.265-34.4,16.961-47.92C30.8,41.7,53.08,33.127,74.07,28.37c24.164-5.484,49.238-4.947,73.448-10.029,23.695-5,44.39-19.4,69.494-18.279C249.41,1.5,288.369,24.082,297.8,56.117c4.386,14.938,2.507,31.058-2.447,45.791-12.4,36.762-38.277,70.062-69.191,93.65-18.142,13.84-39.345,24.24-62.017,28.467C134.027,229.6,104.446,220.693,76.7,209.5Z" transform="translate(0.09 0.597)" fill="#f9fbff"/>
    </g>
    <g id="freepik--Floor--inject-48" transform="translate(21.968 228.009)">
      <path id="Path-2" data-name="Path" d="M29.391.379H0" transform="translate(273.346 0.386)" fill="none" stroke="#263238" stroke-linecap="round" stroke-linejoin="round" stroke-miterlimit="10" stroke-width="0.758"/>
      <path id="Path-3" data-name="Path" d="M29.391.379H0" transform="translate(0.629 0.386)" fill="none" stroke="#263238" stroke-linecap="round" stroke-linejoin="round" stroke-miterlimit="10" stroke-width="0.758"/>
    </g>
    <g id="freepik--Shape--inject-48" transform="translate(21.968 235.584)">
      <ellipse id="Oval" cx="152.562" cy="24.763" rx="152.562" ry="24.763" transform="translate(0.455 0.371)" fill="#dee8fb"/>
    </g>
    <g id="freepik--Plant--inject-48" transform="translate(185.589 98.476)">
      <path id="Path-4" data-name="Path" d="M0,0,8.09,58.843c0,4.545,20.907,8.2,46.693,8.2s46.7-3.666,46.7-8.2L109.573,0Z" transform="translate(0.068 81.811)" fill="#fff" stroke="#263238" stroke-linecap="round" stroke-linejoin="round" stroke-miterlimit="10" stroke-width="0.758"/>
      <ellipse id="Oval-2" data-name="Oval" cx="54.783" cy="8.189" rx="54.783" ry="8.189" transform="translate(0.068 73.592)" fill="#fff" stroke="#263238" stroke-linecap="round" stroke-linejoin="round" stroke-miterlimit="10" stroke-width="0.758"/>
      <path id="Path-5" data-name="Path" d="M87.515,6.537c0,1.129-1.909,2.189-5.3,3.113C74.8,11.7,60.366,13.075,43.754,13.075S12.7,11.7,5.3,9.651C1.939,8.726,0,7.666,0,6.537,0,2.924,19.574,0,43.723,0S87.515,2.894,87.515,6.537Z" transform="translate(11.067 75.273)" fill="#fff" stroke="#263238" stroke-linecap="round" stroke-linejoin="round" stroke-miterlimit="10" stroke-width="0.758"/>
      <path id="Path-6" data-name="Path" d="M76.91,4.9C69.5,6.946,55.063,8.325,38.451,8.325S7.393,6.946,0,4.9C4.424,2.083,19.968,0,38.451,0S72.486,2.083,76.91,4.9Z" transform="translate(16.4 79.993)" fill="#263238"/>
      <g id="freepik--freepik--Plant--inject-303--inject-48" transform="translate(28.785)">
        <path id="Path-7" data-name="Path" d="M6.572,12.051c.038,0,.864-3.128.894-3.363C7.8,6.286,7.034,1.461,4.594.279A3.219,3.219,0,0,0,.352,1.892c-.045.106-.083.22-.121.326-.651,1.8.182,4,1.159,5.515C2.542,9.551,6.564,12.051,6.572,12.051Z" transform="translate(45.878 11.432)" fill="#263238"/>
        <path id="Path-8" data-name="Path" d="M4.14,8c1.939.841,6.689.758,6.7.758S9.814,5.625,9.731,5.443C8.678,3.261,5.383-.345,2.693.027A3.2,3.2,0,0,0,.042,3.708a1.253,1.253,0,0,0,.076.333C.55,5.882,2.481,7.268,4.14,8Z" transform="translate(0.208 14.48)" fill="#263238"/>
        <path id="Path-9" data-name="Path" d="M66.21,5.659l-.3-.061c-2.7-.3-5.893,3.4-6.886,5.606-.083.2-1.068,3.333-1.023,3.333h.061c-.508.576-1.045,1.2-1.621,1.9-1.061,1.3-2.273,2.765-3.409,4.454-.447.636-.886,1.273-1.31,1.924h0q-1.174,1.81-2.219,3.7a41.663,41.663,0,0,0-3.03,6.818V30.225c-.311-2.394-2.341-6.855-4.984-7.348a3.219,3.219,0,0,0-3.674,2.689V25.9c-.152,1.9,1.227,3.788,2.576,5.015,1.515,1.356,5.742,2.674,6.06,2.772a57.07,57.07,0,0,0-1.78,7.371c-.258,1.447-.47,2.916-.667,4.386a10.605,10.605,0,0,0-.038-1.386c-.311-2.4-2.348-6.818-4.992-7.34a3.212,3.212,0,0,0-3.666,2.674v.333c-.159,1.909,1.227,3.788,2.583,5.022s4.939,2.416,5.886,2.719c-.068.568-.152,1.129-.212,1.7-.326,2.719-.644,5.439-1.023,8.09-.144.932-.3,1.856-.477,2.765v-1.2c-.311-2.4-2.348-6.818-4.984-7.34a3.212,3.212,0,0,0-3.666,2.674v.341c-.159,1.9,1.227,3.788,2.576,5.015s4.59,2.273,5.719,2.666c-.2.932-.394,1.871-.629,2.765-.174.606-.3,1.212-.5,1.8s-.394,1.2-.583,1.788c-.4,1.114-.818,2.273-1.242,3.363-.288.758-.576,1.462-.871,2.182.144-.932.394-2.757.4-2.909a12.461,12.461,0,0,0-1.674-6.06,4.439,4.439,0,0,0,0-.7,3.212,3.212,0,0,0-3.6-2.78l-.311.053c-2.621.7-4.28,5.3-4.409,7.711,0,.144.091,1.7.167,2.674l-.394-1.7c-.28-1.159-.583-2.273-.909-3.538-.182-.591-.364-1.189-.538-1.8s-.432-1.212-.636-1.826c-.523-1.417-1.114-2.825-1.742-4.234,1.015-.242,4.6-1.159,6.06-2.273s2.954-2.894,2.939-4.81a3.2,3.2,0,0,0-3.1-3.3,2.765,2.765,0,0,0-.356,0c-2.7.3-5.037,4.583-5.522,6.954,0,.144-.2,1.894-.258,2.848-.394-.848-.758-1.682-1.189-2.53-1.2-2.424-2.5-4.84-3.788-7.257l-1.159-2.219c.364-.091,4.644-1.083,6.257-2.348,1.439-1.1,2.954-2.9,2.939-4.818a3.2,3.2,0,0,0-3.106-3.288,1.788,1.788,0,0,0-.348,0c-2.7.288-5.037,4.545-5.522,6.946,0,.182-.265,2.682-.288,3.318-.856-1.629-1.682-3.265-2.432-4.909a57.366,57.366,0,0,1-2.644-6.818c.167,0,4.644-1.053,6.257-2.341,1.439-1.106,2.954-2.9,2.939-4.818a3.219,3.219,0,0,0-3.136-3.3h-.326c-2.7.3-5.03,4.59-5.522,6.961,0,.152-.2,2.068-.265,2.969h-.152A41.208,41.208,0,0,1,11.14,26.7c-.144-1.348-.22-2.644-.258-3.909.856-.106,4.75-.629,6.371-1.56s3.25-2.56,3.447-4.462a3.2,3.2,0,0,0-2.788-3.583,3.03,3.03,0,0,0-.371,0c-2.7,0-5.477,4.007-6.257,6.3-.038.129-.311,1.447-.5,2.409V20.2c0-2.045.129-3.909.258-5.583.083-.947.174-1.8.265-2.591.758-.538,3.909-2.75,4.886-4.333s1.7-3.788,1-5.553A3.2,3.2,0,0,0,13.109.182C13,.22,12.9.273,12.784.326,10.375,1.568,9.754,6.386,10.14,8.8c.038.2.939,3.341.985,3.341h.045c-.1.758-.2,1.56-.3,2.485-.167,1.659-.333,3.538-.379,5.59a55.707,55.707,0,0,0,.152,6.651,42.89,42.89,0,0,0,1.235,7.325v.091c-.417-.667-1.682-2.507-1.788-2.629-1.568-1.833-5.719-4.439-8.211-3.378A3.212,3.212,0,0,0,.292,32.535c.045.106.106.2.159.3.924,1.674,3.128,2.5,4.916,2.757,2.015.3,6.257-.939,6.6-1.03a58.972,58.972,0,0,0,2.568,7.113c.591,1.356,1.22,2.7,1.871,4.038a10.039,10.039,0,0,1-.758-1.136c-1.568-1.826-5.719-4.431-8.211-3.378a3.219,3.219,0,0,0-1.583,4.265c.045.1.106.2.159.3.924,1.674,3.128,2.507,4.916,2.765s5.477-.712,6.416-.977c.258.508.5,1.023.758,1.56,1.227,2.447,2.462,4.878,3.606,7.31.409.856.758,1.72,1.136,2.568-.348-.5-.636-.924-.689-.985-1.568-1.833-5.719-4.431-8.211-3.371a3.2,3.2,0,0,0-1.583,4.25c.053.106.106.212.159.3.924,1.674,3.128,2.5,4.916,2.765s5.106-.614,6.257-.932c.356.886.7,1.773,1,2.651.2.606.417,1.167.583,1.788s.333,1.2.5,1.8c.28,1.159.568,2.348.758,3.492.174.757.333,1.56.485,2.273-.386-.856-1.189-2.515-1.273-2.651-1.288-2.038-4.984-5.242-7.613-4.545a3.2,3.2,0,0,0-2.189,3.962,1.833,1.833,0,0,0,.091.265c.651,1.8,2.7,2.947,4.431,3.477,1.909.583,6.113.053,6.651,0,.25,1.265.485,2.492.682,3.651.689,3.947,1.129,7.272,1.4,9.62h1.841v-.083c-.333-2.386-.848-5.787-1.651-9.848-.25-1.28-.538-2.644-.864-4.03a33.285,33.285,0,0,0,3.712-1.765c1.386,1.515,4.939,3.265,5.4,3.485-.477,1.212-.97,2.356-1.439,3.439-1.583,3.666-3.03,6.674-4.136,8.779h1.977c.985-2.083,2.273-4.84,3.575-8.105.492-1.212,1-2.515,1.515-3.848.508.106,4.7.954,6.628.515,1.757-.4,3.909-1.394,4.689-3.129A3.189,3.189,0,0,0,49,67.911c-.1-.053-.212-.1-.318-.144-2.576-.856-6.492,2.06-7.931,4.007-.076.121-.856,1.462-1.333,2.348.2-.553.4-1.083.606-1.644.409-1.121.758-2.273,1.2-3.454.174-.6.348-1.189.53-1.8s.326-1.25.485-1.879c.356-1.47.636-2.969.886-4.492.977.356,4.469,1.56,6.257,1.447s4.06-.758,5.106-2.394a3.2,3.2,0,0,0-.758-4.462l-.3-.182c-2.409-1.25-6.727,1.045-8.439,2.75-.114.106-1.2,1.47-1.788,2.227.144-.917.288-1.826.409-2.757.326-2.682.583-5.416.848-8.136.083-.833.174-1.667.258-2.492.348.121,4.469,1.667,6.5,1.515,1.8-.136,4.06-.758,5.113-2.394a3.212,3.212,0,0,0-.758-4.477,3.288,3.288,0,0,0-.348-.212c-2.409-1.242-6.727,1.045-8.439,2.757-.129.129-1.7,2.091-2.068,2.606.182-1.833.394-3.651.674-5.477a55.078,55.078,0,0,1,1.568-7.158c.152.068,4.454,1.682,6.53,1.568,1.8-.129,4.068-.758,5.113-2.394a3.212,3.212,0,0,0-.758-4.469l-.288-.174c-2.409-1.242-6.727,1.045-8.439,2.75-.121.121-1.318,1.613-1.871,2.348l-.136-.068a41.474,41.474,0,0,1,2.841-6.818c.621-1.2,1.273-2.341,1.939-3.394.758.386,4.3,2.106,6.189,2.174s4.128-.333,5.34-1.81a3.219,3.219,0,0,0-.288-4.545c-.091-.068-.182-.152-.273-.212-2.273-1.515-6.818.3-8.689,1.818-.106.076-1.061,1.023-1.75,1.727.311-.477.621-.977.917-1.432,1.136-1.712,2.273-3.2,3.3-4.545.591-.758,1.136-1.4,1.659-2.007.947,0,4.78-.136,6.462-.924s3.5-2.2,3.909-4.075A3.212,3.212,0,0,0,66.21,5.659Z" transform="translate(0.73 0.689)" fill="#263238"/>
      </g>
    </g>
    <g id="freepik--Boxes--inject-48" transform="translate(0 3.03)">
      <path id="Path-10" data-name="Path" d="M0,34.83,31.194,54.245l8.923-34.83L8.923,0,0,34.83Z" transform="translate(0.545 118.481)" fill="none" stroke="#263238" stroke-linecap="round" stroke-linejoin="round" stroke-miterlimit="10" stroke-width="0.764"/>
      <path id="Path-11" data-name="Path" d="M8.923,2.939,42.042,0,33.118,34.838,0,37.769,8.923,2.939Z" transform="translate(31.739 134.957)" fill="none" stroke="#263238" stroke-linecap="round" stroke-linejoin="round" stroke-miterlimit="10" stroke-width="0.764"/>
      <path id="Path-12" data-name="Path" d="M64.312,19.415,33.118,0,0,2.939,31.194,22.354l33.118-2.939Z" transform="translate(9.469 115.542)" fill="none" stroke="#263238" stroke-linecap="round" stroke-linejoin="round" stroke-miterlimit="10" stroke-width="0.764"/>
      <path id="Path-13" data-name="Path" d="M6.923,3.8A3.469,3.469,0,1,1,3.809.017,3.469,3.469,0,0,1,6.923,3.8Z" transform="translate(34.611 93.467)" fill="none" stroke="#263238" stroke-linecap="round" stroke-linejoin="round" stroke-miterlimit="10" stroke-width="0.764"/>
      <path id="Path-14" data-name="Path" d="M3.461,1.907A1.735,1.735,0,1,1,1.946.013,1.735,1.735,0,0,1,3.461,1.907Z" transform="translate(63.063 75.154)" fill="none" stroke="#263238" stroke-linecap="round" stroke-linejoin="round" stroke-miterlimit="10" stroke-width="0.764"/>
      <path id="Path-15" data-name="Path" d="M9.4,5.174A4.712,4.712,0,1,1,5.174.023,4.712,4.712,0,0,1,9.4,5.174Z" transform="translate(60.547 95.93)" fill="none" stroke="#263238" stroke-linecap="round" stroke-linejoin="round" stroke-miterlimit="10" stroke-width="0.764"/>
      <path id="Path-16" data-name="Path" d="M4.247,2.336A2.121,2.121,0,1,1,3.776.776a2.129,2.129,0,0,1,.471,1.56Z" transform="translate(295.915 106.745)" fill="none" stroke="#263238" stroke-linecap="round" stroke-linejoin="round" stroke-miterlimit="10" stroke-width="0.764"/>
      <circle id="Oval-3" data-name="Oval" cx="4.204" cy="4.204" r="4.204" transform="translate(259.037 77.887)" fill="none" stroke="#263238" stroke-linecap="round" stroke-linejoin="round" stroke-miterlimit="10" stroke-width="0.764"/>
      <path id="Path-17" data-name="Path" d="M46.193,44.534,4.045,62.184,0,17.642,42.148,0l4.045,44.534Z" transform="translate(277.293 10.514)" fill="none" stroke="#263238" stroke-linecap="round" stroke-linejoin="round" stroke-miterlimit="10" stroke-width="0.764"/>
      <path id="Path-18" data-name="Path" d="M40.08,10.173,0,0,4.053,44.541,44.125,54.715,40.08,10.173Z" transform="translate(237.213 17.983)" fill="none" stroke="#263238" stroke-linecap="round" stroke-linejoin="round" stroke-miterlimit="10" stroke-width="0.764"/>
      <path id="Path-19" data-name="Path" d="M0,17.65,42.155,0,82.227,10.181,40.08,27.823,0,17.65Z" transform="translate(237.213 0.333)" fill="none" stroke="#263238" stroke-linecap="round" stroke-linejoin="round" stroke-miterlimit="10" stroke-width="0.764"/>
    </g>
    <g id="freepik--teddy-bear--inject-48" transform="translate(56.813 48.48)">
      <path id="Path-20" data-name="Path" d="M185.414,203.23c-3.894,7.348-7.613,12.12-11.279,15.271a23.541,23.541,0,0,1-14.635,5.727c-8.431.576-24.074-1.9-39.224-12.249l-.659-.447a20.867,20.867,0,0,1-2.015.758,48.178,48.178,0,0,1-8,1.848h0a63.168,63.168,0,0,1-20.892-.576,72.479,72.479,0,0,1-7.105-1.727,38.633,38.633,0,0,1-5.969,7.87c-4.6,4.689-11.719,9.439-20.839,7.7C38,224.228,34.087,217.274,31.77,206.957a55.987,55.987,0,0,1-.932-16.6c.212-2.439.485-3.947.485-3.947s-6.06,2.356-9.257-6.234c0,0-.28,18.771-8.507,20.733-3.962.939-6.9-.757-9.007-3.6C2.212,194.133.886,189.474.325,185.285c-.136-1.015-.22-2.007-.273-2.947-.439-8.249,1.886-22.589,6.227-35.906s17.665-31,28.823-40.989S53.381,91.5,53.381,91.5s-5.9-12.772-6.492-26.081a39.89,39.89,0,0,1,.348-7.848s-14.309-.917-19.528-13.5c-4.007-9.688-4.166-18.438-1.454-24.854a18.3,18.3,0,0,1,3.189-5.128c5.651-6.371,18.869-12.181,35.1,3.03l.348-.152h0c2.735-1.151,20.453-8.166,39.936-5.6a59.35,59.35,0,0,1,6.886,1.348h.068a51.965,51.965,0,0,1,8.886,3.121S125.011,1.211,140.494.052a13.565,13.565,0,0,1,11.832,4.621c4.871,5.545,5.689,14.393,5.409,16.809-.432,3.788-1.568,15.355-15.908,18.544a56.949,56.949,0,0,0,1.061,8.333c.811,3.409,7.037,10.507,5.734,20.937s-5.954,18.423-14.9,23.786a.091.091,0,0,1-.053.038h0l.136.144c.235.273.758.848,1.462,1.7,4.2,5,15.643,19.385,22.3,35.126,7.151,16.953,7.014,28.672,6.818,31.5a3.629,3.629,0,0,1-.045.659,6.6,6.6,0,0,1,4.484,4.545s7.53-10.8,15.347-6.022,4.8,16.074,4.8,16.074S194.542,186,185.414,203.23Z" transform="translate(0.402 1.675)" fill="#f77d0e"/>
      <path id="Path-21" data-name="Path" d="M33.929,70.463c-.712,22.521-10.84,36.731-23.081,43.693-.22-.144-.614.833-.833.682A20.871,20.871,0,0,1,8,115.6a48.178,48.178,0,0,1-8,1.848c4.394-4.038,13.734-13.718,17.354-25.846,4.8-16.089,4.8-39.875,2.4-55.722s-7.924-34.6-7.924-34.6L18.65,0S34.891,40.2,33.929,70.463Z" transform="translate(109.997 98.37)" opacity="0.2"/>
      <path id="Path-22" data-name="Path" d="M49.974,10.206s-4.386-4.712-7.469-6.333l.811,3.25S32.764,4.032,22.537,14.918c0,0-7.636-10.067-13.635-6.5S7.766,19.463,7.766,19.463L4.2,17.19s1.136,6.166,4.545,8.439c0,0-8.605,17.377-6.333,37.345,0,0-6.2-18.18,1.28-35.944,0,0-7.318-13.325,1.629-21.081s16.748,4.56,16.748,4.56S30.332-2.513,41.21.434A12.243,12.243,0,0,1,49.974,10.206Z" transform="translate(31.026 149.325)" fill="#fff" opacity="0.6"/>
      <path id="Path-23" data-name="Path" d="M38.307,66.842a8.718,8.718,0,0,0-6.666,2.432,88.946,88.946,0,0,1-15.15,11.044s1.151-21.907-1.659-35.209S0,2.689,0,2.689L8.689,0c4.2,5,15.642,19.385,22.3,35.126C38.148,52.063,38.466,64.017,38.307,66.842Z" transform="translate(126.988 96.658)" opacity="0.2"/>
      <path id="Path-24" data-name="Path" d="M59.161,21.884C54.23,26.088,46.9,29.459,42,29.838c-8.552.583-24.528-1.977-39.883-12.7A20.869,20.869,0,0,1,.106,17.9L0,17.764s11.438-4.7,17.93-14.347L16.809,9.022S38.186,6.272,44.238,0C44.208,0,43.451,26.816,59.161,21.884Z" transform="translate(117.898 196.065)" opacity="0.2"/>
      <path id="Path-25" data-name="Path" d="M75.788,69.092s-12.749,0-19.528-3.9c0,0-15.415,15-23.43,28.785s-9.454,22.195-9.454,22.195l-2.053-9.045a130.572,130.572,0,0,0-6.583,17.279c-1.826,6.06-2.674,12.355-4.916,18.263-2.136,5.628-5.772,10.605-9.5,15.294-.136-1.015-.22-2.007-.273-2.947-.439-8.249,1.886-22.589,6.227-35.906s17.665-31,28.823-40.989S53.374,64.146,53.374,64.146s-5.9-12.772-6.492-26.081l.348-7.848S51.018,6.787,59.214,0l1.75,1.31s-1.03,5.749,5.553,19.316c0,0-6.378-3.083-7.575-5.969a48.018,48.018,0,0,0,4.28,10.491S61.07,26.217,57.616,23.6C57.585,23.6,55.646,58.411,75.788,69.092Z" transform="translate(0.409 29.028)" fill="#fff" opacity="0.6"/>
      <path id="Path-26" data-name="Path" d="M42.867,16.277,35.6,10.792l-.152,4.151S28.475,6.785,23.733,5.452L26.1,9A32.677,32.677,0,0,0,0,11.739,18.3,18.3,0,0,1,3.189,6.611C8.84.24,22.059-5.57,38.284,9.641l.348-.152h0L39,10.8Z" transform="translate(26.657 9.153)" fill="#fff" opacity="0.6"/>
      <path id="Path-27" data-name="Path" d="M5.926.489S-.285,5.375.01,12.169l3.106-3.7a26.846,26.846,0,0,0,.447,11.363l1.326-3.7S7.108,26.335,17.9,27.963c0,0,4.227-15.483,10.605-21.1C28.485,6.89,16.433-2.17,5.926.489Z" transform="translate(31.29 21.979)" opacity="0.2"/>
      <path id="Path-28" data-name="Path" d="M54.639,17c-.432,3.788-1.568,15.355-15.908,18.544a56.95,56.95,0,0,0,1.061,8.333c.811,3.409,7.037,10.507,5.734,20.937S39.572,83.24,30.626,88.6c9-25.142-7.333-37.444-11.06-40.367S15.976,42.7,15.976,36.017s-3.6-15.332-3.6-15.332C9.242,12.353,4.3,8.444,1.712,6.891A11.484,11.484,0,0,0,0,6.02,46.208,46.208,0,0,1,8.59,8.247h.068c6.575,2.166,13.8,5.113,13.8,5.113C32.444.21,43.443-.555,49.208.2,54.1,5.74,54.919,14.557,54.639,17Z" transform="translate(103.521 6.146)" opacity="0.2"/>
      <path id="Path-29" data-name="Path" d="M15.756,3.385S26.528-2.743,33.489,1.491s10.787,12.014,9.7,22.665-8.605,31.565-26.9,30.171S-.379,34.534.447,29.618,5.537,9.241,15.756,3.385Z" transform="translate(37.891 168.501)" opacity="0.4"/>
      <path id="Path-30" data-name="Path" d="M27.659,8.335S22.357-2.452,15.153.517-.164,14.433,0,25.841,2.192,43.5,8.131,46.627s12.188-6.719,12.188-6.719S31.1,20.523,27.659,8.335Z" transform="translate(162.376 171.535)" opacity="0.4"/>
      <path id="Path-31" data-name="Path" d="M0,0A64.388,64.388,0,0,1,13.506,1.651c14.082,3.272,28.846,12.673,31.626,27.77.515,2.8.561,5.757,1.28,8.492C47.738,42.92,51,47,51.927,52.154c2.432,13.415-6.977,31.49-21.816,32.5" transform="translate(96.885 12.12)" fill="none" stroke="#263238" stroke-linecap="round" stroke-linejoin="round" stroke-miterlimit="10" stroke-width="0.758"/>
      <path id="Path-32" data-name="Path" d="M0,5.818A77.425,77.425,0,0,1,18.688,0" transform="translate(65.017 13.12)" fill="none" stroke="#263238" stroke-linecap="round" stroke-linejoin="round" stroke-miterlimit="10" stroke-width="0.758"/>
      <path id="Path-33" data-name="Path" d="M3.81,3.666c0,2.023-.856,3.666-1.909,3.666S0,5.689,0,3.666.848,0,1.9,0,3.81,1.644,3.81,3.666Z" transform="translate(106.028 50.624)" fill="#263238"/>
      <path id="Path-34" data-name="Path" d="M3.81,3.666c0,2.023-.848,3.659-1.9,3.659S0,5.689,0,3.666.856,0,1.909,0,3.81,1.636,3.81,3.666Z" transform="translate(129.753 47.549)" fill="#263238"/>
      <path id="Path-35" data-name="Path" d="M1.343.751A1.909,1.909,0,0,0,.313,3.622C1.684,5.735,4.192,8.924,7.01,9c4.257.182,4.969-6.916,4.083-8.158C10.365-.166,4.964-.355,1.343.751Z" transform="translate(121.221 57.221)" fill="#263238"/>
      <path id="Path-36" data-name="Path" d="M23.628,0C8.735,17.885-.613,40.61.031,64.191.137,67.766.418,71.584,1.849,74.9,6.47,85.583,11.954,85.3,16.575,82.409s5.189-20.2,5.189-20.2,2.273,6.348,6.643,7.211A4.068,4.068,0,0,0,31.536,68.4" transform="translate(0.393 119.004)" fill="none" stroke="#263238" stroke-linecap="round" stroke-linejoin="round" stroke-miterlimit="10" stroke-width="0.758"/>
      <path id="Path-37" data-name="Path" d="M16.2,0c-1.886,16.377,6.249,33.436,6.249,33.436C22.3,33.126,3.515,47.988,1.8,49.586L0,51.313" transform="translate(31.33 59.737)" fill="none" stroke="#263238" stroke-linecap="round" stroke-linejoin="round" stroke-miterlimit="10" stroke-width="0.758"/>
      <path id="Path-38" data-name="Path" d="M0,2.012A11.832,11.832,0,0,1,10.552.679" transform="translate(119.239 54.429)" fill="none" stroke="#263238" stroke-linecap="round" stroke-linejoin="round" stroke-miterlimit="10" stroke-width="0.758"/>
      <path id="Path-39" data-name="Path" d="M0,.3a17.476,17.476,0,0,1,3.788-.3C17.779.539,22.149,19.067,17.9,29.93c-2.439,6.212-8.052,9.128-14.484,10.037" transform="translate(138.624 1.552)" fill="none" stroke="#263238" stroke-linecap="round" stroke-linejoin="round" stroke-miterlimit="10" stroke-width="0.758"/>
      <path id="Path-40" data-name="Path" d="M0,12.779C.992,7.59,4.78,2.932,9.537,0" transform="translate(121.549 4.833)" fill="none" stroke="#263238" stroke-linecap="round" stroke-linejoin="round" stroke-miterlimit="10" stroke-width="0.758"/>
      <path id="Path-41" data-name="Path" d="M0,14.65S3.9-3.129,16.483.485" transform="translate(134.836 12.696)" fill="none" stroke="#263238" stroke-linecap="round" stroke-linejoin="round" stroke-miterlimit="10" stroke-width="0.758"/>
      <path id="Path-42" data-name="Path" d="M0,.325s10.295-2.273,11.885,5.2-8.893,9.787-8.893,9.787" transform="translate(137.571 20.514)" fill="none" stroke="#263238" stroke-linecap="round" stroke-linejoin="round" stroke-miterlimit="10" stroke-width="0.758"/>
      <path id="Path-43" data-name="Path" d="M0,4.166S0,1.273,1.151,0" transform="translate(130.958 2.144)" fill="none" stroke="#263238" stroke-linecap="round" stroke-linejoin="round" stroke-miterlimit="10" stroke-width="0.758"/>
      <path id="Path-44" data-name="Path" d="M.762,0A7.348,7.348,0,0,0,0,3.515" transform="translate(133.847 1.379)" fill="none" stroke="#263238" stroke-linecap="round" stroke-linejoin="round" stroke-miterlimit="10" stroke-width="0.758"/>
      <path id="Path-45" data-name="Path" d="M.663,0A7.393,7.393,0,0,0,.1,3.189" transform="translate(137.309 0.242)" fill="none" stroke="#263238" stroke-linecap="round" stroke-linejoin="round" stroke-miterlimit="10" stroke-width="0.758"/>
      <path id="Path-46" data-name="Path" d="M.97.674A5.916,5.916,0,0,1,0,.083" transform="translate(122.67 53.866)" fill="none" stroke="#263238" stroke-linecap="round" stroke-linejoin="round" stroke-miterlimit="10" stroke-width="0.758"/>
      <path id="Path-47" data-name="Path" d="M16.862,39.163a7.454,7.454,0,0,1-1.379-4.681C15.627,29.641,14.574,5.81,0,0" transform="translate(104.187 13.188)" fill="none" stroke="#263238" stroke-linecap="round" stroke-linejoin="round" stroke-miterlimit="10" stroke-width="0.758" stroke-dasharray="2.302 2.302"/>
      <path id="Path-48" data-name="Path" d="M1.1.534C.735.42.341.314,0,.223" transform="translate(102.006 12.26)" fill="none" stroke="#263238" stroke-linecap="round" stroke-linejoin="round" stroke-miterlimit="10" stroke-width="0.758"/>
      <path id="Path-49" data-name="Path" d="M19.841,0a20.453,20.453,0,0,0-2.894.341C1.2,3.318-4.929,20.96,4.4,37.784c5.825,10.529,15.658,12.5,21.528,12.643" transform="translate(24.404 9.09)" fill="none" stroke="#263238" stroke-linecap="round" stroke-linejoin="round" stroke-miterlimit="10" stroke-width="0.758"/>
      <path id="Path-50" data-name="Path" d="M11.893,11A37.686,37.686,0,0,0,0,0" transform="translate(56.055 12.052)" fill="none" stroke="#263238" stroke-linecap="round" stroke-linejoin="round" stroke-miterlimit="10" stroke-width="0.758"/>
      <path id="Path-51" data-name="Path" d="M32.573,10.271S16.9-7.606,0,3.81" transform="translate(30.747 21.809)" fill="none" stroke="#263238" stroke-linecap="round" stroke-linejoin="round" stroke-miterlimit="10" stroke-width="0.758"/>
      <path id="Path-52" data-name="Path" d="M5.7,0s-13.415,12.006.9,23.218" transform="translate(43.39 23.051)" fill="none" stroke="#263238" stroke-linecap="round" stroke-linejoin="round" stroke-miterlimit="10" stroke-width="0.758"/>
      <path id="Path-53" data-name="Path" d="M0,22.808S.909,9.045,10.507,0" transform="translate(49.238 28.944)" fill="none" stroke="#263238" stroke-linecap="round" stroke-linejoin="round" stroke-miterlimit="10" stroke-width="0.758"/>
      <path id="Path-54" data-name="Path" d="M0,0A7.575,7.575,0,0,1,1.47,3.553" transform="translate(51.313 8.469)" fill="none" stroke="#263238" stroke-linecap="round" stroke-linejoin="round" stroke-miterlimit="10" stroke-width="0.758"/>
      <path id="Path-55" data-name="Path" d="M0,0A8.03,8.03,0,0,1,1.106,4.348" transform="translate(53.7 8.249)" fill="none" stroke="#263238" stroke-linecap="round" stroke-linejoin="round" stroke-miterlimit="10" stroke-width="0.758"/>
      <path id="Path-56" data-name="Path" d="M0,0A6.242,6.242,0,0,1,2.273,4" transform="translate(46.511 7.454)" fill="none" stroke="#263238" stroke-linecap="round" stroke-linejoin="round" stroke-miterlimit="10" stroke-width="0.758"/>
      <path id="Path-57" data-name="Path" d="M0,0S28.672,9.249,53.874,3.7" transform="translate(63.487 95.34)" fill="none" stroke="#263238" stroke-linecap="round" stroke-linejoin="round" stroke-miterlimit="10" stroke-width="0.758"/>
      <path id="Path-58" data-name="Path" d="M0,115.141c18.642,5.234,28.982,4.068,40.352-1.962C53.487,106.2,59.888,91.969,61.608,77.75,64.759,51.51,55.919,24.142,46.685,0" transform="translate(82 98.37)" fill="none" stroke="#263238" stroke-linecap="round" stroke-linejoin="round" stroke-miterlimit="10" stroke-width="0.758"/>
      <path id="Path-59" data-name="Path" d="M0,114.717C0,114.9,38.565,95.271,13.15,0" transform="translate(109.528 100.892)" fill="none" stroke="#263238" stroke-linecap="round" stroke-linejoin="round" stroke-miterlimit="10" stroke-width="0.758" stroke-dasharray="2.273 2.273"/>
      <path id="Path-60" data-name="Path" d="M0,51.5S23,68.866,44.731,63.5,74.145,21.453,68.925,16.976c0,0,1.97-16.559-7.621-16.961S48.821,6.955,48.821,6.955,47.041.539,42,2.41,28.982,13.015,23.74,15.151" transform="translate(120.481 161.537)" fill="none" stroke="#263238" stroke-linecap="round" stroke-linejoin="round" stroke-miterlimit="10" stroke-width="0.758"/>
      <path id="Path-61" data-name="Path" d="M24.2,4.38C21.364-1.134,16.19-.725,11.743,1.7S4.335,8.615,2.509,13.334a37.731,37.731,0,0,0-.894,24.452,15.362,15.362,0,0,0,3.318,6.28A7.074,7.074,0,0,0,11.4,46.339a13.075,13.075,0,0,0,5.113-2.659" transform="translate(162.551 172.043)" fill="none" stroke="#263238" stroke-linecap="round" stroke-linejoin="round" stroke-miterlimit="10" stroke-width="0.758"/>
      <path id="Path-62" data-name="Path" d="M0,0S14.044,8.666,35.36.9" transform="translate(128.927 212.193)" fill="none" stroke="#263238" stroke-linecap="round" stroke-linejoin="round" stroke-miterlimit="10" stroke-width="0.758" stroke-dasharray="2.273 2.273"/>
      <path id="Path-63" data-name="Path" d="M0,99.794c1.9-.288,3.371-1.8,4.545-3.3,6.408-8.09,9.09-18.415,11.658-28.414.758.939,2.174.174,3.083-.651,3.219-2.916,4.545-7.325,5.8-11.476,3.469-11.166,7.878-22.127,14.249-31.936S54.124,5.553,64.418,0" transform="translate(5.128 98.832)" fill="none" stroke="#263238" stroke-linecap="round" stroke-linejoin="round" stroke-miterlimit="10" stroke-width="0.758" stroke-dasharray="2.273 2.273"/>
      <path id="Path-64" data-name="Path" d="M0,0S29.831,30.24,31,67.736" transform="translate(134.025 95.128)" fill="none" stroke="#263238" stroke-linecap="round" stroke-linejoin="round" stroke-miterlimit="10" stroke-width="0.758"/>
      <path id="Path-65" data-name="Path" d="M3.591,27.125s-14.87,43.5,15.908,51.616S60.313,43.336,58.684,37.389c0,0,11.363-6.484,6.757-15.4-3.606-7.007-14.052-3.242-14.052-3.242S52.2,3.067,40.315.37,21.968,10.6,21.968,10.6s-8.5-10.7-16.733-4.545C-4.249,13.066,3.591,27.125,3.591,27.125Z" transform="translate(31.125 149.23)" fill="none" stroke="#263238" stroke-linecap="round" stroke-linejoin="round" stroke-miterlimit="10" stroke-width="0.758"/>
      <path id="Path-66" data-name="Path" d="M6.217,12.986C.5,22.44-1.964,35.424,1.793,43.976a17.2,17.2,0,0,0,10.529,9.378C31.26,59.2,42.857,37.113,43.228,21.713c.121-5.25-.553-10.726-3.386-15.15-5.234-8.2-16.529-7.931-24.187-3.492-.477.273-.947.576-1.409.9" transform="translate(37.991 168.815)" fill="none" stroke="#263238" stroke-linecap="round" stroke-linejoin="round" stroke-miterlimit="10" stroke-width="0.758"/>
      <path id="Path-67" data-name="Path" d="M0,40.655A143.478,143.478,0,0,1,12.968,0" transform="translate(47.859 114.012)" fill="none" stroke="#263238" stroke-linecap="round" stroke-linejoin="round" stroke-miterlimit="10" stroke-width="0.758"/>
      <path id="Path-68" data-name="Path" d="M0,1.125A12.7,12.7,0,0,1,8.408.405" transform="translate(25.596 111.744)" fill="none" stroke="#263238" stroke-linecap="round" stroke-linejoin="round" stroke-miterlimit="10" stroke-width="0.758"/>
      <path id="Path-69" data-name="Path" d="M0,.619A11.128,11.128,0,0,1,5.136.3" transform="translate(24.361 115.279)" fill="none" stroke="#263238" stroke-linecap="round" stroke-linejoin="round" stroke-miterlimit="10" stroke-width="0.758"/>
      <path id="Path-70" data-name="Path" d="M0,0A21.286,21.286,0,0,1,5.053,1.977" transform="translate(47.23 172.613)" fill="none" stroke="#263238" stroke-linecap="round" stroke-linejoin="round" stroke-miterlimit="10" stroke-width="0.758"/>
      <path id="Path-71" data-name="Path" d="M0,0A20.877,20.877,0,0,1,3.424,1.076" transform="translate(47.405 175.347)" fill="none" stroke="#263238" stroke-linecap="round" stroke-linejoin="round" stroke-miterlimit="10" stroke-width="0.758"/>
      <path id="Path-72" data-name="Path" d="M0,.33l2.841.1" transform="translate(43.178 180.207)" fill="none" stroke="#263238" stroke-linecap="round" stroke-linejoin="round" stroke-miterlimit="10" stroke-width="0.758"/>
      <path id="Path-73" data-name="Path" d="M.062,2.887S-.7,7.993,3.092,8.258s8.514-.265,7.34-5.371S1.88.532.062,2.887Z" transform="translate(118.564 96.846)" fill="#263238"/>
      <path id="Path-74" data-name="Path" d="M0,10S1.515,21.362,8.908,22.392,37.86,3.856,37.86,3.856L38.383,0Z" transform="translate(83.386 97.877)" fill="#263238"/>
      <path id="Path-75" data-name="Path" d="M38.437.159S5.751,15.764.448,10.681,38.627,0,38.627,0Z" transform="translate(83.332 97.718)" fill="#263238"/>
      <path id="Path-76" data-name="Path" d="M0,10S1.515,21.362,8.908,22.392,37.86,3.856,37.86,3.856L38.383,0Z" transform="translate(83.386 97.877)" fill="#263238"/>
      <path id="Path-77" data-name="Path" d="M38.437.159S5.751,15.764.448,10.681,38.627,0,38.627,0Z" transform="translate(83.332 97.718)" opacity="0.2"/>
      <path id="Path-78" data-name="Path" d="M.72,0,0,2.985S11.878,14.211,24.672,16.945s8.484-13.7,8.484-13.7Z" transform="translate(125.428 96.347)" fill="#263238"/>
      <path id="Path-79" data-name="Path" d="M.72,0,0,2.985S11.878,14.211,24.672,16.945s8.484-13.7,8.484-13.7Z" transform="translate(125.428 96.347)" fill="#263238"/>
      <path id="Path-80" data-name="Path" d="M0,1.317S26.46,9.892,31.641,6.2,15.968-2.379,0,1.317Z" transform="translate(126.147 95.03)" fill="#263238"/>
      <path id="Path-81" data-name="Path" d="M0,1.317S26.46,9.892,31.641,6.2,15.968-2.379,0,1.317Z" transform="translate(126.147 95.03)" opacity="0.2"/>
      <path id="Path-82" data-name="Path" d="M10.264.841S4.553,22.937,0,32.777l11.711,7.151S16.256,11.3,13.143,0Z" transform="translate(110.679 101.339)" fill="#263238"/>
      <path id="Path-83" data-name="Path" d="M1.31,3.078S11.839,26.75,12.279,44.642l11.544-9.378S11.12,4.669,4.052,1.177,1.31,3.078,1.31,3.078Z" transform="translate(122.3 99.307)" fill="#263238"/>
      <path id="Path-84" data-name="Path" d="M.33.307.466.451.292.413A.17.17,0,0,1,.33.307Z" transform="translate(133.787 94.495)" opacity="0.2"/>
      <path id="Path-85" data-name="Path" d="M0,0A6.893,6.893,0,0,1,3.644,3.984" transform="translate(83.454 10.264)" fill="none" stroke="#263238" stroke-linecap="round" stroke-linejoin="round" stroke-miterlimit="10" stroke-width="0.758"/>
      <path id="Path-86" data-name="Path" d="M0,0A19.938,19.938,0,0,1,2.227,3.31" transform="translate(87.348 10.317)" fill="none" stroke="#263238" stroke-linecap="round" stroke-linejoin="round" stroke-miterlimit="10" stroke-width="0.758"/>
      <path id="Path-87" data-name="Path" d="M0,0A17.423,17.423,0,0,1,1.75,4.416" transform="translate(92.158 10.029)" fill="none" stroke="#263238" stroke-linecap="round" stroke-linejoin="round" stroke-miterlimit="10" stroke-width="0.758"/>
      <path id="Path-88" data-name="Path" d="M65.668,0c-15.362,16.347-23.1,56.525-23.1,56.525s-6.166-4.59-12.7,1.576c-6.969,6.575-.106,20.15-.106,20.15L26.505,93.461s-.068.174-.22.492c.212-2.439.485-3.947.485-3.947s-6.06,2.356-9.257-6.234c0,0-.28,18.771-8.507,20.733-3.962.939-6.9-.757-9.007-3.6,9.946-3.742,16.408-32.1,16.408-32.1,7.727-.174,12.946-25.945,18.536-36.466C46.049,11.446,65.138.3,65.668,0Z" transform="translate(4.947 98.105)" opacity="0.2"/>
      <path id="Path-89" data-name="Path" d="M0,0S11.052,1.992,12.817,11.5c0,0,8.62-4.424,14.15,2.871s4.2,16.8-3.318,22.99c0,0-1.326,18.347-11.272,26.74L8.03,63.085s7.8-17,7.84-26.891c0,0,9.09-5.25,6.9-14.529S8.6,17.551,8.6,17.551,8.4,5.083,0,0Z" transform="translate(73.97 150.425)" opacity="0.2"/>
    </g>
  </g>
  <g id="local" transform="translate(219.837 471.706)">
    <g id="Group_14" data-name="Group 14" transform="matrix(0.966, -0.259, 0.259, 0.966, 0.073, 26.999)">
      <path id="Fill_81" data-name="Fill 81" d="M45.675,66.94c-.28-1.882,2.461-3.258,3.414-1.292a65.94,65.94,0,0,1,3.221,8.769c.419,1.31.844,2.657,1.383,3.95.835-3.849,1.473-7.744,2.414-11.57a1.89,1.89,0,0,1,1.771-1.349c18.61-2.41,45.868-18.428,38.7-40.922C90.844,6.526,69.72.4,52.821.043c-8.465-.178-17.5.091-25.6,2.782A42.015,42.015,0,0,0,8.2,15.407C-1.231,26.662-3.613,45.455,6.85,56.961c9.458,10.4,25.658,11.976,38.825,9.979" transform="translate(3.091 3.157)" fill="#fff"/>
      <path id="Fill_82" data-name="Fill 82" d="M57.383,88.266h0a1.477,1.477,0,0,1-1.19-.563c-2.43-3.037-3.6-6.728-4.741-10.3-.555-1.743-1.129-3.545-1.842-5.254l-.027.009a.923.923,0,0,1-.113.031,69.173,69.173,0,0,1-12.511,1.2c-8.706,0-16.258-1.909-22.445-5.674A29.654,29.654,0,0,1,2.716,54.1a33.964,33.964,0,0,1-2.407-18A38.356,38.356,0,0,1,9.583,15.9,44.363,44.363,0,0,1,28.13,3.4,56.1,56.1,0,0,1,40.51.643,109.12,109.12,0,0,1,53.215,0h.134C63.616,0,72.094,1.367,79.268,4.18c6.49,2.545,15.312,7.385,20.487,15.994a27.881,27.881,0,0,1,3.084,22.553,31.359,31.359,0,0,1-6.148,10.979A48.017,48.017,0,0,1,87.2,62.078a59.612,59.612,0,0,1-24.718,9.98c-.445,1.942-.831,3.931-1.2,5.855-.575,2.96-1.169,6.019-1.989,8.973A2.028,2.028,0,0,1,57.383,88.266ZM50.755,67.847h0a1.551,1.551,0,0,1,1.426.958,60.013,60.013,0,0,1,2.97,7.987l.011.034.239.749.061.19c.4,1.243.809,2.529,1.322,3.759.33-1.519.633-3.07.927-4.569.451-2.3.917-4.685,1.487-7A1.9,1.9,0,0,1,60.969,68.6c12.3-1.593,28.6-9.244,35.946-20.784A23.011,23.011,0,0,0,99.67,27.682C94.1,10.19,73.411,3.567,55.912,3.2c-1.384-.029-2.639-.043-3.835-.043-5.694,0-14.144.293-21.766,2.825A41.835,41.835,0,0,0,11.3,18.564C2.266,29.336-.82,48.286,9.941,60.118,18,68.984,30.186,70.845,38.986,70.845a65.475,65.475,0,0,0,9.779-.748,1.871,1.871,0,0,1,.459-1.511A2.1,2.1,0,0,1,50.755,67.847Z" transform="translate(0 0)"/>
      <text id="Local-2" data-name="Local" transform="matrix(0.998, -0.07, 0.07, 0.998, 17.073, 43.932)" fill="#0b0212" font-size="21" font-family="SegoeUI, Segoe UI"><tspan x="0" y="0">LOCAL</tspan></text>
    </g>
  </g>
  <g id="quality" transform="translate(-0.163 -0.294)">
    <g id="Group_32" data-name="Group 32" transform="matrix(0.985, 0.174, -0.174, 0.985, 18.985, 0.294)">
      <path id="Fill_41" data-name="Fill 41" d="M49.291,84.892c-.079-2.057,3.463-2.742,4.434-.418a84.856,84.856,0,0,1,3.5,10.84c1.115-3.567,2.007-7.211,2.919-10.822A2.132,2.132,0,0,1,61.639,83a72.8,72.8,0,0,1,8.755-1.731c11.065-1.488,22.222-1.182,33.348-1.758,9.982-.515,20.384-1.63,29.444-6.169A60.684,60.684,0,0,0,152.626,58c4.959-5.969,9.009-13.464,9.193-21.389.347-14.921-11.9-25.737-24.881-30.6C123.16.85,108.13-.336,93.528.075a197.8,197.8,0,0,0-46.35,6.8A136.53,136.53,0,0,0,27.9,13.506c-5.45,2.4-11.033,5.2-15.433,9.285C1.735,32.764-3.7,49.972,2.818,63.742,6.692,71.932,13.9,77.3,22.465,79.959c8.746,2.716,17.964,2.857,26.826,4.933" transform="translate(3.389 3.591)" fill="#fff"/>
      <path id="Fill_42" data-name="Fill 42" d="M60.119,108.214h0a1.966,1.966,0,0,1-1.924-1.551c-.42-1.475-.824-2.983-1.215-4.44a111.831,111.831,0,0,0-3.567-11.6c-3.475-.56-7.032-.913-10.471-1.255-7.609-.756-15.477-1.537-22.824-4.61A33.905,33.905,0,0,1,9.906,78.165a29.745,29.745,0,0,1-7.012-9.9A36.437,36.437,0,0,1,.741,46.628,42.929,42.929,0,0,1,4.4,35.9a41.155,41.155,0,0,1,6.378-9.374c3.849-4.237,8.753-7.715,15.434-10.945C37.536,10.1,50.736,6.076,66.571,3.268A201.167,201.167,0,0,1,101.485,0c4.15,0,8.27.158,12.245.468a123.326,123.326,0,0,1,20.32,3.079,62.985,62.985,0,0,1,18.911,7.822,37.508,37.508,0,0,1,14.528,16.456,29.079,29.079,0,0,1,2.377,11.73,31.886,31.886,0,0,1-2.306,11.773,53.88,53.88,0,0,1-14.32,19.954,58.652,58.652,0,0,1-21.378,12.242,82.371,82.371,0,0,1-16.936,3.19c-5.717.531-11.584.666-17.257.8-10.031.23-20.4.469-30.3,2.907a110.158,110.158,0,0,1-4.977,16.247A2.506,2.506,0,0,1,60.119,108.214ZM54.876,86.605h0a2.346,2.346,0,0,1,2.238,1.46,83.775,83.775,0,0,1,3.5,10.84c1-3.2,1.83-6.5,2.634-9.693l.03-.121.254-1.008a2.128,2.128,0,0,1,1.494-1.493,73.082,73.082,0,0,1,8.755-1.731,208.182,208.182,0,0,1,22.342-1.38c3.611-.093,7.341-.188,11.006-.378,9.918-.512,20.35-1.613,29.444-6.169A60.851,60.851,0,0,0,156.015,61.6c4.081-4.912,8.989-12.611,9.194-21.389.362-15.555-12.616-26.007-24.881-30.6-10.8-4.047-23.3-6.014-38.22-6.014-1.68,0-3.426.025-5.189.075a197.56,197.56,0,0,0-46.35,6.8A134.667,134.667,0,0,0,31.291,17.1c-5.38,2.374-10.974,5.142-15.433,9.285C5.838,35.692-.695,52.748,6.207,67.333,9.877,75.09,16.671,80.7,25.854,83.55a95.448,95.448,0,0,0,15.29,2.974c3.8.525,7.734,1.069,11.536,1.959a1.6,1.6,0,0,1,.459-1.2A2.436,2.436,0,0,1,54.876,86.605Z" transform="translate(0 0)"/>
    </g>
    <text id="Only_quality_product" data-name="Only quality product" transform="matrix(0.995, 0.105, -0.105, 0.995, 33.472, 24.492)" fill="#0b0212" font-size="18" font-family="SegoeUI, Segoe UI"><tspan x="0" y="19">ONLY QUALITY</tspan><tspan x="0" y="43">PRODUCTS</tspan></text>
  </g>
</svg>
