<svg xmlns="http://www.w3.org/2000/svg" width="1081.229" height="463.758" viewBox="0 0 1081.229 463.758">
  <g id="Teddy_bear-bro" data-name="Teddy bear-bro" transform="translate(352.744 86.888)">
    <g id="freepik--background-simple--inject-48" transform="translate(25)">
      <path id="Path" d="M101.252,276.562c-6.37-2.58-12.59-5.25-18.63-7.93-21.26-9.42-43.36-21.6-59.23-39.42-21-23.53-24.79-58.09-23-88.33,1.36-22.68,8.27-45.41,22.39-63.26,17.88-22.57,47.29-33.89,75-40.17,31.9-7.24,65-6.53,96.96-13.24,31.28-6.6,58.6-25.61,91.74-24.13,42.77,1.9,94.2,31.71,106.65,74,5.79,19.72,3.31,41-3.23,60.45-16.37,48.53-50.53,92.49-91.34,123.63-23.95,18.27-51.94,32-81.87,37.58C176.932,303.1,137.882,291.342,101.252,276.562Z" transform="translate(0.118 0.788)" fill="#f9fbff"/>
    </g>
    <g id="freepik--Floor--inject-48" transform="translate(29 301)">
      <path id="Path-2" data-name="Path" d="M38.8.5H0" transform="translate(360.85 0.51)" fill="none" stroke="#263238" stroke-linecap="round" stroke-linejoin="round" stroke-miterlimit="10" stroke-width="1"/>
      <path id="Path-3" data-name="Path" d="M38.8.5H0" transform="translate(0.83 0.51)" fill="none" stroke="#263238" stroke-linecap="round" stroke-linejoin="round" stroke-miterlimit="10" stroke-width="1"/>
    </g>
    <g id="freepik--Shape--inject-48" transform="translate(29 311)">
      <ellipse id="Oval" cx="201.4" cy="32.69" rx="201.4" ry="32.69" transform="translate(0.6 0.49)" fill="#dee8fb"/>
    </g>
    <g id="freepik--Plant--inject-48" transform="translate(245 130)">
      <path id="Path-4" data-name="Path" d="M0,0,10.68,77.68c0,6,27.6,10.82,61.64,10.82s61.65-4.84,61.65-10.82L144.65,0Z" transform="translate(0.09 108)" fill="#fff" stroke="#263238" stroke-linecap="round" stroke-linejoin="round" stroke-miterlimit="10" stroke-width="1"/>
      <ellipse id="Oval-2" data-name="Oval" cx="72.32" cy="10.81" rx="72.32" ry="10.81" transform="translate(0.09 97.15)" fill="#fff" stroke="#263238" stroke-linecap="round" stroke-linejoin="round" stroke-miterlimit="10" stroke-width="1"/>
      <path id="Path-5" data-name="Path" d="M115.53,8.63c0,1.49-2.52,2.89-7,4.11-9.78,2.7-28.84,4.52-50.77,4.52S16.76,15.44,7,12.74c-4.44-1.22-7-2.62-7-4.11C0,3.86,25.84,0,57.72,0S115.53,3.82,115.53,8.63Z" transform="translate(14.61 99.37)" fill="#fff" stroke="#263238" stroke-linecap="round" stroke-linejoin="round" stroke-miterlimit="10" stroke-width="1"/>
      <path id="Path-6" data-name="Path" d="M101.53,6.47c-9.78,2.7-28.84,4.52-50.77,4.52S9.76,9.17,0,6.47C5.84,2.75,26.36,0,50.76,0S95.69,2.75,101.53,6.47Z" transform="translate(21.65 105.6)" fill="#263238"/>
      <g id="freepik--freepik--Plant--inject-303--inject-48" transform="translate(38)">
        <path id="Path-7" data-name="Path" d="M8.675,15.908c.05,0,1.14-4.13,1.18-4.44.44-3.17-.57-9.54-3.79-11.1A4.25,4.25,0,0,0,.465,2.5c-.06.14-.11.29-.16.43-.86,2.37.24,5.28,1.53,7.28C3.355,12.608,8.665,15.908,8.675,15.908Z" transform="translate(60.565 15.092)" fill="#263238"/>
        <path id="Path-8" data-name="Path" d="M5.466,10.555c2.56,1.11,8.83,1,8.84,1s-1.35-4.13-1.46-4.37c-1.39-2.88-5.74-7.64-9.29-7.15A4.23,4.23,0,0,0,.056,4.9a1.654,1.654,0,0,0,.1.44C.726,7.765,3.276,9.6,5.466,10.555Z" transform="translate(0.274 19.115)" fill="#263238"/>
        <path id="Path-9" data-name="Path" d="M87.406,7.47l-.39-.08c-3.56-.39-7.78,4.49-9.09,7.4-.11.26-1.41,4.4-1.35,4.4h.08c-.67.76-1.38,1.59-2.14,2.51-1.4,1.71-3,3.65-4.5,5.88-.59.84-1.17,1.68-1.73,2.54h0q-1.55,2.39-2.93,4.88a55,55,0,0,0-4,9V39.9c-.41-3.16-3.09-9.05-6.58-9.7a4.25,4.25,0,0,0-4.85,3.55v.44c-.2,2.51,1.62,5,3.4,6.62,2,1.79,7.58,3.53,8,3.66a75.34,75.34,0,0,0-2.35,9.73c-.34,1.91-.62,3.85-.88,5.79a14,14,0,0,0-.05-1.83c-.41-3.17-3.1-9-6.59-9.69A4.24,4.24,0,0,0,46.616,52v.44c-.21,2.52,1.62,5,3.41,6.63s6.52,3.19,7.77,3.59c-.09.75-.2,1.49-.28,2.24-.43,3.59-.85,7.18-1.35,10.68-.19,1.23-.4,2.45-.63,3.65V77.64c-.41-3.17-3.1-9-6.58-9.69a4.24,4.24,0,0,0-4.84,3.53v.45c-.21,2.51,1.62,5,3.4,6.62s6.06,3,7.55,3.52c-.27,1.23-.52,2.47-.83,3.65-.23.8-.4,1.6-.66,2.38s-.52,1.58-.77,2.36c-.53,1.47-1.08,3-1.64,4.44-.38,1-.76,1.93-1.15,2.88.19-1.23.52-3.64.53-3.84a16.45,16.45,0,0,0-2.21-8,5.86,5.86,0,0,0,0-.93,4.24,4.24,0,0,0-4.75-3.67l-.41.07c-3.46.92-5.65,7-5.82,10.18,0,.19.12,2.24.22,3.53l-.52-2.25c-.37-1.53-.77-3-1.2-4.67-.24-.78-.48-1.57-.71-2.37s-.57-1.6-.84-2.41c-.69-1.87-1.47-3.73-2.3-5.59,1.34-.32,6.07-1.53,8-3s3.9-3.82,3.88-6.35a4.22,4.22,0,0,0-4.09-4.35,3.648,3.648,0,0,0-.47,0c-3.57.39-6.65,6.05-7.29,9.18,0,.19-.26,2.5-.34,3.76-.52-1.12-1-2.22-1.57-3.34-1.59-3.2-3.3-6.39-5-9.58L23.6,61.22c.48-.12,6.13-1.43,8.26-3.1,1.9-1.45,3.9-3.83,3.88-6.36a4.22,4.22,0,0,0-4.1-4.34,2.36,2.36,0,0,0-.46,0c-3.56.38-6.65,6-7.29,9.17,0,.24-.35,3.54-.38,4.38-1.13-2.15-2.22-4.31-3.21-6.48a75.73,75.73,0,0,1-3.49-9c.22,0,6.13-1.39,8.26-3.09,1.9-1.46,3.9-3.83,3.88-6.36a4.25,4.25,0,0,0-4.14-4.35h-.43c-3.56.39-6.64,6.06-7.29,9.19,0,.2-.27,2.73-.35,3.92h-.2a54.4,54.4,0,0,1-1.83-9.55c-.19-1.78-.29-3.49-.34-5.16,1.13-.14,6.27-.83,8.41-2.06s4.29-3.38,4.55-5.89a4.23,4.23,0,0,0-3.68-4.73,4,4,0,0,0-.49,0c-3.57,0-7.23,5.29-8.26,8.32-.05.17-.41,1.91-.66,3.18V26.66c0-2.7.17-5.16.34-7.37.11-1.25.23-2.37.35-3.42,1-.71,5.16-3.63,6.45-5.72s2.25-5,1.32-7.33A4.23,4.23,0,0,0,17.306.24c-.14.05-.28.12-.43.19-3.18,1.64-4,8-3.49,11.19.05.27,1.24,4.41,1.3,4.41h.06c-.13,1-.27,2.06-.4,3.28-.22,2.19-.44,4.67-.5,7.38a73.54,73.54,0,0,0,.2,8.78,56.62,56.62,0,0,0,1.63,9.67v.12c-.55-.88-2.22-3.31-2.36-3.47-2.07-2.42-7.55-5.86-10.84-4.46a4.24,4.24,0,0,0-2.09,5.62c.06.14.14.27.21.4,1.22,2.21,4.13,3.3,6.49,3.64,2.66.39,8.26-1.24,8.71-1.36a77.85,77.85,0,0,0,3.39,9.39c.78,1.79,1.61,3.56,2.47,5.33a13.252,13.252,0,0,1-1-1.5c-2.07-2.41-7.55-5.85-10.84-4.46a4.25,4.25,0,0,0-2.09,5.63c.06.13.14.27.21.39,1.22,2.21,4.13,3.31,6.49,3.65s7.23-.94,8.47-1.29c.34.67.66,1.35,1,2.06,1.62,3.23,3.25,6.44,4.76,9.65.54,1.13,1,2.27,1.5,3.39-.46-.66-.84-1.22-.91-1.3-2.07-2.42-7.55-5.85-10.84-4.45a4.23,4.23,0,0,0-2.09,5.61c.07.14.14.28.21.4,1.22,2.21,4.13,3.3,6.49,3.65s6.74-.81,8.26-1.23c.47,1.17.93,2.34,1.32,3.5.26.8.55,1.54.77,2.36s.44,1.59.66,2.37c.37,1.53.75,3.1,1,4.61.23,1,.44,2.06.64,3-.51-1.13-1.57-3.32-1.68-3.5-1.7-2.69-6.58-6.92-10.05-6a4.22,4.22,0,0,0-2.89,5.23,2.42,2.42,0,0,0,.12.35c.86,2.37,3.57,3.89,5.85,4.59,2.52.77,8.07.07,8.78,0,.33,1.67.64,3.29.9,4.82.91,5.21,1.49,9.6,1.85,12.7h2.43v-.11c-.44-3.15-1.12-7.64-2.18-13-.33-1.69-.71-3.49-1.14-5.32a43.94,43.94,0,0,0,4.9-2.33c1.83,2,6.52,4.31,7.13,4.6-.63,1.6-1.28,3.11-1.9,4.54-2.09,4.84-4,8.81-5.46,11.59h2.61c1.3-2.75,3-6.39,4.72-10.7.65-1.6,1.32-3.32,2-5.08.67.14,6.2,1.26,8.75.68,2.32-.53,5.16-1.84,6.19-4.13a4.21,4.21,0,0,0-1.91-5.67c-.13-.07-.28-.13-.42-.19-3.4-1.13-8.57,2.72-10.47,5.29-.1.16-1.13,1.93-1.76,3.1.26-.73.53-1.43.8-2.17.54-1.48,1-3,1.58-4.56.23-.79.46-1.57.7-2.37s.43-1.65.64-2.48c.47-1.94.84-3.92,1.17-5.93,1.29.47,5.9,2.06,8.26,1.91s5.36-1,6.74-3.16a4.23,4.23,0,0,0-1-5.89l-.4-.24c-3.18-1.65-8.88,1.38-11.14,3.63-.15.14-1.59,1.94-2.36,2.94.19-1.21.38-2.41.54-3.64.43-3.54.77-7.15,1.12-10.74.11-1.1.23-2.2.34-3.29.46.16,5.9,2.2,8.58,2,2.38-.18,5.36-1,6.75-3.16a4.24,4.24,0,0,0-1-5.91,4.341,4.341,0,0,0-.46-.28c-3.18-1.64-8.88,1.38-11.14,3.64-.17.17-2.24,2.76-2.73,3.44.24-2.42.52-4.82.89-7.23a72.709,72.709,0,0,1,2.07-9.45c.2.09,5.88,2.22,8.62,2.07,2.38-.17,5.37-1,6.75-3.16a4.24,4.24,0,0,0-1-5.9l-.38-.23c-3.18-1.64-8.88,1.38-11.14,3.63-.16.16-1.74,2.13-2.47,3.1l-.18-.09a54.75,54.75,0,0,1,3.75-9c.82-1.59,1.68-3.09,2.56-4.48,1,.51,5.68,2.78,8.17,2.87s5.45-.44,7.05-2.39a4.25,4.25,0,0,0-.38-6c-.12-.09-.24-.2-.36-.28-3-2-9,.4-11.47,2.4-.14.1-1.4,1.35-2.31,2.28.41-.63.82-1.29,1.21-1.89,1.5-2.26,3-4.23,4.36-6,.78-1,1.5-1.85,2.19-2.65,1.25,0,6.31-.18,8.53-1.22s4.62-2.9,5.16-5.38a4.24,4.24,0,0,0-3.24-5.12Z" transform="translate(0.964 0.91)" fill="#263238"/>
      </g>
    </g>
    <g id="freepik--Boxes--inject-48" transform="translate(0 4)">
      <path id="Path-10" data-name="Path" d="M0,45.98,41.18,71.61,52.96,25.63,11.78,0,0,45.98Z" transform="translate(0.72 156.41)" fill="none" stroke="#263238" stroke-linecap="round" stroke-linejoin="round" stroke-miterlimit="10" stroke-width="1.009"/>
      <path id="Path-11" data-name="Path" d="M11.78,3.88,55.5,0,43.72,45.99,0,49.86,11.78,3.88Z" transform="translate(41.9 178.16)" fill="none" stroke="#263238" stroke-linecap="round" stroke-linejoin="round" stroke-miterlimit="10" stroke-width="1.009"/>
      <path id="Path-12" data-name="Path" d="M84.9,25.63,43.72,0,0,3.88,41.18,29.51,84.9,25.63Z" transform="translate(12.5 152.53)" fill="none" stroke="#263238" stroke-linecap="round" stroke-linejoin="round" stroke-miterlimit="10" stroke-width="1.009"/>
      <path id="Path-13" data-name="Path" d="M9.139,5.022a4.58,4.58,0,1,1-4.11-5,4.58,4.58,0,0,1,4.11,5Z" transform="translate(45.691 123.388)" fill="none" stroke="#263238" stroke-linecap="round" stroke-linejoin="round" stroke-miterlimit="10" stroke-width="1.009"/>
      <path id="Path-14" data-name="Path" d="M4.569,2.517a2.29,2.29,0,1,1-2-2.5,2.29,2.29,0,0,1,2,2.5Z" transform="translate(83.251 99.213)" fill="none" stroke="#263238" stroke-linecap="round" stroke-linejoin="round" stroke-miterlimit="10" stroke-width="1.009"/>
      <path id="Path-15" data-name="Path" d="M12.41,6.83A6.22,6.22,0,1,1,6.83.03a6.22,6.22,0,0,1,5.58,6.8Z" transform="translate(79.93 126.64)" fill="none" stroke="#263238" stroke-linecap="round" stroke-linejoin="round" stroke-miterlimit="10" stroke-width="1.009"/>
      <path id="Path-16" data-name="Path" d="M5.607,3.084a2.8,2.8,0,1,1-.621-2.059,2.81,2.81,0,0,1,.621,2.059Z" transform="translate(390.643 140.916)" fill="none" stroke="#263238" stroke-linecap="round" stroke-linejoin="round" stroke-miterlimit="10" stroke-width="1.009"/>
      <circle id="Oval-3" data-name="Oval" cx="5.55" cy="5.55" r="5.55" transform="translate(341.96 102.82)" fill="none" stroke="#263238" stroke-linecap="round" stroke-linejoin="round" stroke-miterlimit="10" stroke-width="1.009"/>
      <path id="Path-17" data-name="Path" d="M60.98,58.79,5.34,82.09,0,23.29,55.64,0l5.34,58.79Z" transform="translate(366.06 13.88)" fill="none" stroke="#263238" stroke-linecap="round" stroke-linejoin="round" stroke-miterlimit="10" stroke-width="1.009"/>
      <path id="Path-18" data-name="Path" d="M52.91,13.43,0,0,5.35,58.8l52.9,13.43-5.34-58.8Z" transform="translate(313.15 23.74)" fill="none" stroke="#263238" stroke-linecap="round" stroke-linejoin="round" stroke-miterlimit="10" stroke-width="1.009"/>
      <path id="Path-19" data-name="Path" d="M0,23.3,55.65,0l52.9,13.44L52.91,36.73,0,23.3Z" transform="translate(313.15 0.44)" fill="none" stroke="#263238" stroke-linecap="round" stroke-linejoin="round" stroke-miterlimit="10" stroke-width="1.009"/>
    </g>
    <g id="freepik--teddy-bear--inject-48" transform="translate(75 64)">
      <path id="Path-20" data-name="Path" d="M244.77,268.289c-5.14,9.7-10.05,16-14.89,20.16-6.51,5.55-12.86,7.11-19.32,7.56-11.13.76-31.78-2.51-51.78-16.17l-.87-.59a27.557,27.557,0,0,1-2.66,1,63.6,63.6,0,0,1-10.56,2.44h0a83.389,83.389,0,0,1-27.58-.76,95.682,95.682,0,0,1-9.38-2.28,51,51,0,0,1-7.88,10.39c-6.07,6.19-15.47,12.46-27.51,10.17-22.17-4.2-27.34-13.38-30.4-27a73.91,73.91,0,0,1-1.23-21.92c.28-3.22.64-5.21.64-5.21s-8,3.11-12.22-8.23c0,0-.37,24.78-11.23,27.37-5.23,1.24-9.11-1-11.89-4.75-3.09-4.19-4.84-10.34-5.58-15.87-.18-1.34-.29-2.65-.36-3.89-.58-10.89,2.49-29.82,8.22-47.4s23.32-40.92,38.05-54.11,24.13-18.41,24.13-18.41-7.79-16.86-8.57-34.43A52.66,52.66,0,0,1,62.36,76s-18.89-1.21-25.78-17.82c-5.29-12.79-5.5-24.34-1.92-32.81a24.16,24.16,0,0,1,4.21-6.77c7.46-8.41,24.91-16.08,46.33,4l.46-.2h0c3.61-1.52,27-10.78,52.72-7.39a78.35,78.35,0,0,1,9.09,1.78h.09a68.6,68.6,0,0,1,11.73,4.12S165.03,1.6,185.47.069c7.16-.54,12.17,2.16,15.62,6.1,6.43,7.32,7.51,19,7.14,22.19-.57,5-2.07,20.27-21,24.48a75.181,75.181,0,0,0,1.4,11c1.07,4.5,9.29,13.87,7.57,27.64s-7.86,24.32-19.67,31.4a.12.12,0,0,1-.07.05h0l.18.19c.31.36,1,1.12,1.93,2.24,5.54,6.6,20.65,25.59,29.44,46.37,9.44,22.38,9.26,37.85,9,41.58a4.792,4.792,0,0,1-.06.87,8.71,8.71,0,0,1,5.92,6s9.94-14.26,20.26-7.95,6.34,21.22,6.34,21.22S256.82,245.539,244.77,268.289Z" transform="translate(0.53 2.211)" fill="#f77d0e"/>
      <path id="Path-21" data-name="Path" d="M44.79,93.02c-.94,29.73-14.31,48.49-30.47,57.68-.29-.19-.81,1.1-1.1.9a27.554,27.554,0,0,1-2.66,1A63.6,63.6,0,0,1,0,155.04c5.8-5.33,18.13-18.11,22.91-34.12,6.34-21.24,6.34-52.64,3.17-73.56S15.62,1.69,15.62,1.69l9-1.69S46.06,53.07,44.79,93.02Z" transform="translate(145.21 129.86)" opacity="0.2"/>
      <path id="Path-22" data-name="Path" d="M65.972,13.473s-5.79-6.22-9.86-8.36l1.07,4.29s-13.93-4.08-27.43,10.29c0,0-10.08-13.29-18-8.58s-1.5,14.58-1.5,14.58l-4.71-3s1.5,8.14,6,11.14c0,0-11.36,22.94-8.36,49.3,0,0-8.18-24,1.69-47.45,0,0-9.66-17.59,2.15-27.83s22.11,6.02,22.11,6.02S40.042-3.317,54.4.573C64.692,3.4,65.972,13.473,65.972,13.473Z" transform="translate(40.958 197.127)" fill="#fff" opacity="0.6"/>
      <path id="Path-23" data-name="Path" d="M50.57,88.24c-2.07-.39-5.84.51-8.8,3.21a117.42,117.42,0,0,1-20,14.58s1.52-28.92-2.19-46.48S0,3.55,0,3.55L11.47,0c5.54,6.6,20.65,25.59,29.44,46.37C50.36,68.73,50.78,84.51,50.57,88.24Z" transform="translate(167.64 127.6)" opacity="0.2"/>
      <path id="Path-24" data-name="Path" d="M78.1,28.89c-6.51,5.55-16.19,10-22.65,10.5-11.29.77-32.38-2.61-52.65-16.76a27.549,27.549,0,0,1-2.66,1L0,23.45S15.1,17.24,23.67,4.51l-1.48,7.4S50.41,8.28,58.4,0C58.36,0,57.36,35.4,78.1,28.89Z" transform="translate(155.64 258.83)" opacity="0.2"/>
      <path id="Path-25" data-name="Path" d="M100.05,91.21s-16.83,0-25.78-5.15c0,0-20.35,19.8-30.93,38s-12.48,29.3-12.48,29.3l-2.71-11.94a172.37,172.37,0,0,0-8.69,22.81c-2.41,8-3.53,16.31-6.49,24.11-2.82,7.43-7.62,14-12.54,20.19-.18-1.34-.29-2.65-.36-3.89-.58-10.89,2.49-29.82,8.22-47.4s23.32-40.92,38.05-54.11S70.46,84.68,70.46,84.68s-7.79-16.86-8.57-34.43l.46-10.36S67.35,8.96,78.17,0l2.31,1.73s-1.36,7.59,7.33,25.5c0,0-8.42-4.07-10-7.88A63.39,63.39,0,0,0,83.46,33.2s-2.84,1.41-7.4-2.05C76.02,31.15,73.46,77.11,100.05,91.21Z" transform="translate(0.54 38.32)" fill="#fff" opacity="0.6"/>
      <path id="Path-26" data-name="Path" d="M56.59,21.487,47,14.247l-.2,5.48S37.59,8.957,31.33,7.2l3.12,4.68c-.59-.21-17.47-6.3-34.45,3.62a24.16,24.16,0,0,1,4.21-6.77c7.46-8.41,24.91-16.08,46.33,4l.46-.2h0l.49,1.73Z" transform="translate(35.19 12.083)" fill="#fff" opacity="0.6"/>
      <path id="Path-27" data-name="Path" d="M7.823.645S-.377,7.1.013,16.065l4.1-4.88a35.44,35.44,0,0,0,.59,15l1.75-4.88s2.93,13.46,17.18,15.61c0,0,5.58-20.44,14-27.86C37.6,9.1,21.693-2.865,7.823.645Z" transform="translate(41.307 29.015)" opacity="0.2"/>
      <path id="Path-28" data-name="Path" d="M72.13,22.447c-.57,5-2.07,20.27-21,24.48a75.18,75.18,0,0,0,1.4,11c1.07,4.5,9.29,13.87,7.57,27.64s-7.86,24.32-19.67,31.4c11.88-33.19-9.68-49.43-14.6-53.29s-4.74-7.31-4.74-16.13-4.75-20.24-4.75-20.24C12.2,16.307,5.67,11.147,2.26,9.1A15.16,15.16,0,0,0,0,7.947a61,61,0,0,1,11.34,2.94h.09c8.68,2.86,18.22,6.75,18.22,6.75C42.83.277,57.35-.733,64.96.267,71.42,7.577,72.5,19.217,72.13,22.447Z" transform="translate(136.66 8.113)" opacity="0.2"/>
      <path id="Path-29" data-name="Path" d="M20.8,4.469s14.22-8.09,23.41-2.5,14.24,15.86,12.8,29.92S45.65,73.559,21.5,71.719-.5,45.589.59,39.1,7.31,12.2,20.8,4.469Z" transform="translate(50.02 222.441)" opacity="0.4"/>
      <path id="Path-30" data-name="Path" d="M36.513,11S29.513-3.237,20,.683-.217,19.053,0,34.113s2.89,23.31,10.73,27.44,16.09-8.87,16.09-8.87S41.053,27.093,36.513,11Z" transform="translate(214.357 226.447)" opacity="0.4"/>
      <path id="Path-31" data-name="Path" d="M0,0A85,85,0,0,1,17.83,2.18C36.42,6.5,55.91,18.91,59.58,38.84c.68,3.69.74,7.6,1.69,11.21,1.75,6.61,6.05,12,7.28,18.8,3.21,17.71-9.21,41.57-28.8,42.91" transform="translate(127.9 16)" fill="none" stroke="#263238" stroke-linecap="round" stroke-linejoin="round" stroke-miterlimit="10" stroke-width="1"/>
      <path id="Path-32" data-name="Path" d="M0,7.68A102.21,102.21,0,0,1,24.67,0" transform="translate(85.83 17.32)" fill="none" stroke="#263238" stroke-linecap="round" stroke-linejoin="round" stroke-miterlimit="10" stroke-width="1"/>
      <path id="Path-33" data-name="Path" d="M5.03,4.84c0,2.67-1.13,4.84-2.52,4.84S0,7.51,0,4.84,1.12,0,2.51,0,5.03,2.17,5.03,4.84Z" transform="translate(139.97 66.83)" fill="#263238"/>
      <path id="Path-34" data-name="Path" d="M5.03,4.84c0,2.67-1.12,4.83-2.51,4.83S0,7.51,0,4.84,1.13,0,2.52,0,5.03,2.16,5.03,4.84Z" transform="translate(171.29 62.77)" fill="#263238"/>
      <path id="Path-35" data-name="Path" d="M1.773.991a2.52,2.52,0,0,0-1.36,3.79c1.81,2.79,5.12,7,8.84,7.1,5.62.24,6.56-9.13,5.39-10.77C13.683-.219,6.553-.469,1.773.991Z" transform="translate(160.027 75.539)" fill="#263238"/>
      <path id="Path-36" data-name="Path" d="M31.191,0C11.531,23.61-.809,53.61.041,84.74c.14,4.72.51,9.76,2.4,14.14,6.1,14.1,13.34,13.72,19.44,9.91s6.85-26.67,6.85-26.67,3,8.38,8.77,9.52a5.37,5.37,0,0,0,4.13-1.35" transform="translate(0.519 157.1)" fill="none" stroke="#263238" stroke-linecap="round" stroke-linejoin="round" stroke-miterlimit="10" stroke-width="1"/>
      <path id="Path-37" data-name="Path" d="M21.39,0c-2.49,21.62,8.25,44.14,8.25,44.14-.2-.41-25,19.21-27.27,21.32L0,67.74" transform="translate(41.36 78.86)" fill="none" stroke="#263238" stroke-linecap="round" stroke-linejoin="round" stroke-miterlimit="10" stroke-width="1"/>
      <path id="Path-38" data-name="Path" d="M0,2.657A15.62,15.62,0,0,1,13.93.9" transform="translate(157.41 71.853)" fill="none" stroke="#263238" stroke-linecap="round" stroke-linejoin="round" stroke-miterlimit="10" stroke-width="1"/>
      <path id="Path-39" data-name="Path" d="M0,.4a23.07,23.07,0,0,1,5-.39c18.47.7,24.24,25.16,18.63,39.5-3.22,8.2-10.63,12.05-19.12,13.25" transform="translate(183 2.049)" fill="none" stroke="#263238" stroke-linecap="round" stroke-linejoin="round" stroke-miterlimit="10" stroke-width="1"/>
      <path id="Path-40" data-name="Path" d="M0,16.87C1.31,10.02,6.31,3.87,12.59,0" transform="translate(160.46 6.38)" fill="none" stroke="#263238" stroke-linecap="round" stroke-linejoin="round" stroke-miterlimit="10" stroke-width="1"/>
      <path id="Path-41" data-name="Path" d="M0,19.34S5.15-4.13,21.76.64" transform="translate(178 16.76)" fill="none" stroke="#263238" stroke-linecap="round" stroke-linejoin="round" stroke-miterlimit="10" stroke-width="1"/>
      <path id="Path-42" data-name="Path" d="M0,.429s13.59-3,15.69,6.87S3.95,20.219,3.95,20.219" transform="translate(181.61 27.081)" fill="none" stroke="#263238" stroke-linecap="round" stroke-linejoin="round" stroke-miterlimit="10" stroke-width="1"/>
      <path id="Path-43" data-name="Path" d="M0,5.5S0,1.68,1.52,0" transform="translate(172.88 2.83)" fill="none" stroke="#263238" stroke-linecap="round" stroke-linejoin="round" stroke-miterlimit="10" stroke-width="1"/>
      <path id="Path-44" data-name="Path" d="M1.006,0a9.7,9.7,0,0,0-1,4.64" transform="translate(176.694 1.82)" fill="none" stroke="#263238" stroke-linecap="round" stroke-linejoin="round" stroke-miterlimit="10" stroke-width="1"/>
      <path id="Path-45" data-name="Path" d="M.875,0a9.76,9.76,0,0,0-.74,4.21" transform="translate(181.265 0.32)" fill="none" stroke="#263238" stroke-linecap="round" stroke-linejoin="round" stroke-miterlimit="10" stroke-width="1"/>
      <path id="Path-46" data-name="Path" d="M1.28.89A7.81,7.81,0,0,1,0,.11" transform="translate(161.94 71.11)" fill="none" stroke="#263238" stroke-linecap="round" stroke-linejoin="round" stroke-miterlimit="10" stroke-width="1"/>
      <path id="Path-47" data-name="Path" d="M22.26,51.7a9.84,9.84,0,0,1-1.82-6.18C20.63,39.13,19.24,7.67,0,0" transform="translate(137.54 17.41)" fill="none" stroke="#263238" stroke-linecap="round" stroke-linejoin="round" stroke-miterlimit="10" stroke-width="1" stroke-dasharray="3.038 3.038"/>
      <path id="Path-48" data-name="Path" d="M1.45.7C.97.555.45.415,0,.295" transform="translate(134.66 16.185)" fill="none" stroke="#263238" stroke-linecap="round" stroke-linejoin="round" stroke-miterlimit="10" stroke-width="1"/>
      <path id="Path-49" data-name="Path" d="M26.193,0a27,27,0,0,0-3.82.45C1.583,4.38-6.507,27.67,5.8,49.88c7.69,13.9,20.67,16.5,28.42,16.69" transform="translate(32.217 12)" fill="none" stroke="#263238" stroke-linecap="round" stroke-linejoin="round" stroke-miterlimit="10" stroke-width="1"/>
      <path id="Path-50" data-name="Path" d="M15.7,14.52A49.75,49.75,0,0,0,0,0" transform="translate(74 15.91)" fill="none" stroke="#263238" stroke-linecap="round" stroke-linejoin="round" stroke-miterlimit="10" stroke-width="1"/>
      <path id="Path-51" data-name="Path" d="M43,13.559s-20.69-23.6-43-8.53" transform="translate(40.59 28.791)" fill="none" stroke="#263238" stroke-linecap="round" stroke-linejoin="round" stroke-miterlimit="10" stroke-width="1"/>
      <path id="Path-52" data-name="Path" d="M7.53,0S-10.18,15.85,8.72,30.65" transform="translate(57.28 30.43)" fill="none" stroke="#263238" stroke-linecap="round" stroke-linejoin="round" stroke-miterlimit="10" stroke-width="1"/>
      <path id="Path-53" data-name="Path" d="M0,30.11S1.2,11.94,13.87,0" transform="translate(65 38.21)" fill="none" stroke="#263238" stroke-linecap="round" stroke-linejoin="round" stroke-miterlimit="10" stroke-width="1"/>
      <path id="Path-54" data-name="Path" d="M0,0A10,10,0,0,1,1.94,4.69" transform="translate(67.74 11.18)" fill="none" stroke="#263238" stroke-linecap="round" stroke-linejoin="round" stroke-miterlimit="10" stroke-width="1"/>
      <path id="Path-55" data-name="Path" d="M0,0A10.6,10.6,0,0,1,1.46,5.74" transform="translate(70.89 10.89)" fill="none" stroke="#263238" stroke-linecap="round" stroke-linejoin="round" stroke-miterlimit="10" stroke-width="1"/>
      <path id="Path-56" data-name="Path" d="M0,0A8.24,8.24,0,0,1,3,5.28" transform="translate(61.4 9.84)" fill="none" stroke="#263238" stroke-linecap="round" stroke-linejoin="round" stroke-miterlimit="10" stroke-width="1"/>
      <path id="Path-57" data-name="Path" d="M0,0S37.85,12.21,71.12,4.89" transform="translate(83.81 125.86)" fill="none" stroke="#263238" stroke-linecap="round" stroke-linejoin="round" stroke-miterlimit="10" stroke-width="1"/>
      <path id="Path-58" data-name="Path" d="M0,152c24.61,6.91,38.26,5.37,53.27-2.59,17.34-9.21,25.79-28,28.06-46.77C85.49,68,73.82,31.87,61.63,0" transform="translate(108.25 129.86)" fill="none" stroke="#263238" stroke-linecap="round" stroke-linejoin="round" stroke-miterlimit="10" stroke-width="1"/>
      <path id="Path-59" data-name="Path" d="M0,151.44C0,151.68,50.91,125.77,17.36,0" transform="translate(144.59 133.19)" fill="none" stroke="#263238" stroke-linecap="round" stroke-linejoin="round" stroke-miterlimit="10" stroke-width="1" stroke-dasharray="3 3"/>
      <path id="Path-60" data-name="Path" d="M0,67.981s30.36,22.93,59.05,15.85,38.83-55.51,31.94-61.42c0,0,2.6-21.86-10.06-22.39s-16.48,9.16-16.48,9.16-2.35-8.47-9-6S38.26,17.181,31.34,20" transform="translate(159.05 213.249)" fill="none" stroke="#263238" stroke-linecap="round" stroke-linejoin="round" stroke-miterlimit="10" stroke-width="1"/>
      <path id="Path-61" data-name="Path" d="M31.943,5.783C28.2-1.5,21.373-.957,15.5,2.243s-9.78,9.13-12.19,15.36a49.81,49.81,0,0,0-1.18,32.28,20.28,20.28,0,0,0,4.38,8.29c2.18,2.28,5.46,3.71,8.54,3a17.26,17.26,0,0,0,6.75-3.51" transform="translate(214.587 227.117)" fill="none" stroke="#263238" stroke-linecap="round" stroke-linejoin="round" stroke-miterlimit="10" stroke-width="1"/>
      <path id="Path-62" data-name="Path" d="M0,0S18.54,11.44,46.68,1.19" transform="translate(170.2 280.12)" fill="none" stroke="#263238" stroke-linecap="round" stroke-linejoin="round" stroke-miterlimit="10" stroke-width="1" stroke-dasharray="3 3"/>
      <path id="Path-63" data-name="Path" d="M0,131.74c2.51-.38,4.45-2.37,6-4.36,8.46-10.68,12-24.31,15.39-37.51,1,1.24,2.87.23,4.07-.86,4.25-3.85,6-9.67,7.66-15.15C37.7,59.12,43.52,44.65,51.93,31.7S71.45,7.33,85.04,0" transform="translate(6.77 130.47)" fill="none" stroke="#263238" stroke-linecap="round" stroke-linejoin="round" stroke-miterlimit="10" stroke-width="1" stroke-dasharray="3 3"/>
      <path id="Path-64" data-name="Path" d="M0,0S39.38,39.92,40.93,89.42" transform="translate(176.93 125.58)" fill="none" stroke="#263238" stroke-linecap="round" stroke-linejoin="round" stroke-miterlimit="10" stroke-width="1"/>
      <path id="Path-65" data-name="Path" d="M4.741,35.808s-19.63,57.43,21,68.14,53.88-46.74,51.73-54.59c0,0,15-8.56,8.92-20.33-4.76-9.25-18.55-4.28-18.55-4.28s1.07-20.7-14.62-24.26S29,14,29,14,17.781-.122,6.911,8C-5.609,17.248,4.741,35.808,4.741,35.808Z" transform="translate(41.089 197.002)" fill="none" stroke="#263238" stroke-linecap="round" stroke-linejoin="round" stroke-miterlimit="10" stroke-width="1"/>
      <path id="Path-66" data-name="Path" d="M8.207,17.144c-7.54,12.48-10.8,29.62-5.84,40.91a22.71,22.71,0,0,0,13.9,12.38c25,7.72,40.31-21.44,40.8-41.77.16-6.93-.73-14.16-4.47-20-6.91-10.82-21.82-10.47-31.93-4.61-.63.36-1.25.76-1.86,1.19" transform="translate(50.153 222.856)" fill="none" stroke="#263238" stroke-linecap="round" stroke-linejoin="round" stroke-miterlimit="10" stroke-width="1"/>
      <path id="Path-67" data-name="Path" d="M0,53.67S3.7,26.37,17.12,0" transform="translate(63.18 150.51)" fill="none" stroke="#263238" stroke-linecap="round" stroke-linejoin="round" stroke-miterlimit="10" stroke-width="1"/>
      <path id="Path-68" data-name="Path" d="M0,1.485A16.77,16.77,0,0,1,11.1.535" transform="translate(33.79 147.515)" fill="none" stroke="#263238" stroke-linecap="round" stroke-linejoin="round" stroke-miterlimit="10" stroke-width="1"/>
      <path id="Path-69" data-name="Path" d="M0,.818A14.69,14.69,0,0,1,6.78.4" transform="translate(32.16 152.182)" fill="none" stroke="#263238" stroke-linecap="round" stroke-linejoin="round" stroke-miterlimit="10" stroke-width="1"/>
      <path id="Path-70" data-name="Path" d="M0,0A28.1,28.1,0,0,1,6.67,2.61" transform="translate(62.35 227.87)" fill="none" stroke="#263238" stroke-linecap="round" stroke-linejoin="round" stroke-miterlimit="10" stroke-width="1"/>
      <path id="Path-71" data-name="Path" d="M0,0A27.56,27.56,0,0,1,4.52,1.42" transform="translate(62.58 231.48)" fill="none" stroke="#263238" stroke-linecap="round" stroke-linejoin="round" stroke-miterlimit="10" stroke-width="1"/>
      <path id="Path-72" data-name="Path" d="M0,.435l3.75.13" transform="translate(57 237.895)" fill="none" stroke="#263238" stroke-linecap="round" stroke-linejoin="round" stroke-miterlimit="10" stroke-width="1"/>
      <path id="Path-73" data-name="Path" d="M.082,3.812s-1,6.74,4,7.09,11.24-.35,9.69-7.09S2.482.7.082,3.812Z" transform="translate(156.518 127.848)" fill="#263238"/>
      <path id="Path-74" data-name="Path" d="M0,13.2s2,15,11.76,16.36S49.98,5.09,49.98,5.09L50.67,0Z" transform="translate(110.08 129.21)" fill="#263238"/>
      <path id="Path-75" data-name="Path" d="M50.742.21S7.592,20.81.592,14.1,50.992,0,50.992,0Z" transform="translate(110.008 129)" fill="#263238"/>
      <path id="Path-76" data-name="Path" d="M0,13.2s2,15,11.76,16.36S49.98,5.09,49.98,5.09L50.67,0Z" transform="translate(110.08 129.21)" fill="#263238"/>
      <path id="Path-77" data-name="Path" d="M50.742.21S7.592,20.81.592,14.1,50.992,0,50.992,0Z" transform="translate(110.008 129)" opacity="0.2"/>
      <path id="Path-78" data-name="Path" d="M.95,0,0,3.94S15.68,18.76,32.57,22.37,43.77,4.28,43.77,4.28Z" transform="translate(165.58 127.19)" fill="#263238"/>
      <path id="Path-79" data-name="Path" d="M.95,0,0,3.94S15.68,18.76,32.57,22.37,43.77,4.28,43.77,4.28Z" transform="translate(165.58 127.19)" fill="#263238"/>
      <path id="Path-80" data-name="Path" d="M0,1.739s34.93,11.32,41.77,6.44S21.08-3.141,0,1.739Z" transform="translate(166.53 125.451)" fill="#263238"/>
      <path id="Path-81" data-name="Path" d="M0,1.739s34.93,11.32,41.77,6.44S21.08-3.141,0,1.739Z" transform="translate(166.53 125.451)" opacity="0.2"/>
      <path id="Path-82" data-name="Path" d="M13.55,1.11S6.01,30.28,0,43.27l15.46,9.44s6-37.79,1.89-52.71Z" transform="translate(146.11 133.78)" fill="#263238"/>
      <path id="Path-83" data-name="Path" d="M1.73,4.063s13.9,31.25,14.48,54.87l15.24-12.38s-16.77-40.39-26.1-45S1.73,4.063,1.73,4.063Z" transform="translate(161.45 131.097)" fill="#263238"/>
      <path id="Path-84" data-name="Path" d="M.435.405.615.6.385.545A.225.225,0,0,1,.435.405Z" transform="translate(176.615 124.745)" opacity="0.2"/>
      <path id="Path-85" data-name="Path" d="M0,0A9.1,9.1,0,0,1,4.81,5.26" transform="translate(110.17 13.55)" fill="none" stroke="#263238" stroke-linecap="round" stroke-linejoin="round" stroke-miterlimit="10" stroke-width="1"/>
      <path id="Path-86" data-name="Path" d="M0,0A26.32,26.32,0,0,1,2.94,4.37" transform="translate(115.31 13.62)" fill="none" stroke="#263238" stroke-linecap="round" stroke-linejoin="round" stroke-miterlimit="10" stroke-width="1"/>
      <path id="Path-87" data-name="Path" d="M0,0A23,23,0,0,1,2.31,5.83" transform="translate(121.66 13.24)" fill="none" stroke="#263238" stroke-linecap="round" stroke-linejoin="round" stroke-miterlimit="10" stroke-width="1"/>
      <path id="Path-88" data-name="Path" d="M86.69,0c-20.28,21.58-30.5,74.62-30.5,74.62s-8.14-6.06-16.76,2.08c-9.2,8.68-.14,26.6-.14,26.6l-4.3,20.08s-.09.23-.29.65c.28-3.22.64-5.21.64-5.21s-8,3.11-12.22-8.23c0,0-.37,24.78-11.23,27.37-5.23,1.24-9.11-1-11.89-4.75,13.13-4.94,21.66-42.38,21.66-42.38,10.2-.23,17.09-34.25,24.47-48.14C60.79,15.11,85.99.39,86.69,0Z" transform="translate(6.53 129.51)" opacity="0.2"/>
      <path id="Path-89" data-name="Path" d="M0,0S14.59,2.63,16.92,15.18c0,0,11.38-5.84,18.68,3.79s5.54,22.18-4.38,30.35c0,0-1.75,24.22-14.88,35.3L10.6,83.28s10.3-22.44,10.35-35.5c0,0,12-6.93,9.11-19.18s-18.71-5.43-18.71-5.43S11.09,6.71,0,0Z" transform="translate(97.65 198.58)" opacity="0.2"/>
    </g>
  </g>
  <g id="local" transform="translate(916.744 -0.112)">
    <g id="Group_14" data-name="Group 14" transform="matrix(0.966, -0.259, 0.259, 0.966, 0.098, 35.998)">
      <path id="Fill_81" data-name="Fill 81" d="M60.9,89.254c-.374-2.51,3.281-4.344,4.552-1.723a87.92,87.92,0,0,1,4.294,11.692c.559,1.747,1.126,3.543,1.844,5.266,1.114-5.132,1.964-10.326,3.219-15.427a2.52,2.52,0,0,1,2.362-1.8c24.813-3.213,61.157-24.571,51.6-54.563C121.125,8.7,92.96.529,70.428.058,59.142-.18,47.091.179,36.292,3.767A56.02,56.02,0,0,0,10.939,20.543C-1.641,35.55-4.818,60.607,9.133,75.948,21.744,89.815,43.343,91.916,60.9,89.254" transform="translate(4.121 4.209)" fill="#fff"/>
      <path id="Fill_82" data-name="Fill 82" d="M76.51,117.688h0a1.97,1.97,0,0,1-1.587-.751c-3.239-4.049-4.807-8.971-6.322-13.732-.74-2.323-1.5-4.726-2.456-7l-.045.014a1.043,1.043,0,0,1-.141.039,92.256,92.256,0,0,1-16.682,1.6c-11.609,0-21.677-2.545-29.927-7.565A39.534,39.534,0,0,1,3.622,72.131,45.287,45.287,0,0,1,.413,48.125,49.839,49.839,0,0,1,4.657,33.612a52.786,52.786,0,0,1,8.12-12.418A59.15,59.15,0,0,1,37.507,4.538,74.8,74.8,0,0,1,54.014.857,145.481,145.481,0,0,1,70.954,0h.183c13.686,0,24.989,1.823,34.555,5.572,8.653,3.393,20.415,9.847,27.316,21.326,5.639,9.382,7.138,20.342,4.112,30.071a39.759,39.759,0,0,1-3.4,7.813,44.8,44.8,0,0,1-4.8,6.825A64.017,64.017,0,0,1,116.264,82.77,79.49,79.49,0,0,1,83.309,96.076c-.594,2.591-1.109,5.244-1.607,7.81-.766,3.944-1.558,8.023-2.652,11.962A2.7,2.7,0,0,1,76.51,117.688ZM67.673,90.463h0a2.067,2.067,0,0,1,1.9,1.277,79.72,79.72,0,0,1,3.951,10.617q.171.538.344,1.076l.069.216c.534,1.67,1.086,3.4,1.774,5.05.44-2.027.846-4.1,1.238-6.1.6-3.068,1.222-6.241,1.981-9.327a2.529,2.529,0,0,1,2.362-1.8c16.4-2.124,38.134-12.324,47.926-27.71,5.408-8.5,6.644-17.532,3.675-26.853C125.461,13.587,97.881,4.755,74.549,4.267c-1.847-.039-3.519-.058-5.113-.058-7.592,0-18.86.39-29.024,3.767A55.792,55.792,0,0,0,15.06,24.752C3.021,39.114-1.092,64.381,13.254,80.157c10.751,11.822,26.995,14.3,38.729,14.3a87.278,87.278,0,0,0,13.039-1,2.493,2.493,0,0,1,.611-2.014A2.8,2.8,0,0,1,67.673,90.463Z" transform="translate(0 0)"/>
      <text id="Local-2" data-name="Local" transform="matrix(0.998, -0.07, 0.07, 0.998, 22.718, 57.911)" fill="#0b0212" font-size="28" font-family="SegoeUI, Segoe UI"><tspan x="0" y="0">LOCAL</tspan></text>
    </g>
  </g>
  <g id="quality" transform="translate(-0.256 74.888)">
    <g id="Group_32" data-name="Group 32" transform="matrix(0.985, 0.174, -0.174, 0.985, 25.314, 0.392)">
      <path id="Fill_41" data-name="Fill 41" d="M65.722,113.189c-.106-2.742,4.618-3.656,5.912-.557A113.14,113.14,0,0,1,76.3,127.085c1.487-4.756,2.676-9.614,3.892-14.429a2.843,2.843,0,0,1,1.992-1.991,97.074,97.074,0,0,1,11.674-2.308c14.753-1.984,29.629-1.576,44.464-2.344,13.309-.686,27.179-2.173,39.259-8.225A80.912,80.912,0,0,0,203.5,77.34c6.612-7.958,12.012-17.952,12.258-28.519.463-19.895-15.862-34.316-33.175-40.8C164.213,1.134,144.173-.448,124.7.1A263.74,263.74,0,0,0,62.9,9.173a182.04,182.04,0,0,0-25.7,8.836c-7.266,3.206-14.711,6.93-20.578,12.38C2.314,43.685-4.931,66.63,3.757,84.99c5.166,10.919,14.776,18.074,26.2,21.622,11.662,3.622,23.952,3.81,35.768,6.577" transform="translate(4.519 4.787)" fill="#fff"/>
      <path id="Fill_42" data-name="Fill 42" d="M80.159,144.285h0a2.622,2.622,0,0,1-2.566-2.068c-.56-1.966-1.1-3.977-1.62-5.922a149.128,149.128,0,0,0-4.755-15.469c-4.633-.746-9.375-1.217-13.961-1.673-5.078-.5-10.327-1.025-15.419-1.922a70.046,70.046,0,0,1-15.014-4.226,45.214,45.214,0,0,1-13.616-8.786,39.659,39.659,0,0,1-9.35-13.206A48.582,48.582,0,0,1,.987,62.17,57.232,57.232,0,0,1,5.87,47.861,53.539,53.539,0,0,1,23.952,27.078a82.166,82.166,0,0,1,11-6.309c15.1-7.3,32.7-12.67,53.808-16.412,7.893-1.4,15.688-2.476,23.169-3.2C119.91.39,127.777,0,135.313,0c5.533,0,11.026.21,16.327.625A164.443,164.443,0,0,1,178.733,4.73a83.978,83.978,0,0,1,25.215,10.429A54.951,54.951,0,0,1,215.273,24.7a45.941,45.941,0,0,1,8.046,12.4,38.777,38.777,0,0,1,3.169,15.639,42.515,42.515,0,0,1-3.074,15.7,71.839,71.839,0,0,1-19.093,26.6,78.205,78.205,0,0,1-28.5,16.323,109.831,109.831,0,0,1-22.581,4.252c-7.623.708-15.445.888-23.01,1.062-13.374.307-27.2.625-40.408,3.876-1.943,7.825-3.785,14.856-6.636,21.662A3.342,3.342,0,0,1,80.159,144.285Zm-6.99-28.812h0a3.126,3.126,0,0,1,2.984,1.946,111.614,111.614,0,0,1,4.668,14.453c1.329-4.252,2.436-8.648,3.506-12.9q.193-.767.386-1.53a2.838,2.838,0,0,1,1.992-1.991,97.4,97.4,0,0,1,11.674-2.308c9.892-1.33,20.01-1.589,29.794-1.84,4.81-.123,9.783-.251,14.67-.5,13.225-.682,27.134-2.151,39.259-8.225A81.142,81.142,0,0,0,208.02,82.128c5.442-6.55,11.986-16.815,12.258-28.519.483-20.74-16.82-34.676-33.175-40.8-14.4-5.4-31.066-8.019-50.96-8.019-2.241,0-4.569.033-6.92.1a263.417,263.417,0,0,0-61.8,9.073,179.549,179.549,0,0,0-25.7,8.836c-7.173,3.165-14.63,6.855-20.578,12.38C7.783,47.589-.927,70.33,8.276,89.778c4.893,10.341,13.951,17.818,26.2,21.622,6.659,2.068,13.638,3.032,20.386,3.965,5.071.7,10.313,1.425,15.382,2.612a2.137,2.137,0,0,1,.613-1.6A3.248,3.248,0,0,1,73.169,115.473Z" transform="translate(0 0)"/>
    </g>
    <text id="Only_quality_product" data-name="Only quality product" transform="matrix(0.995, 0.105, -0.105, 0.995, 44.63, 32.656)" fill="#0b0212" font-size="24" font-family="SegoeUI, Segoe UI"><tspan x="0" y="26">ONLY QUALITY</tspan><tspan x="0" y="58">PRODUCTS</tspan></text>
  </g>
</svg>
