<svg xmlns="http://www.w3.org/2000/svg" width="491" height="347" viewBox="0 0 491 347">
  <g id="Gifts-bro" transform="translate(0.5)">
    <g id="freepik--background-simple--inject-33" transform="translate(10)">
      <path id="Path" d="M447.481,266.031c28.2-44.915,30.134-104.762,10.638-152.74-16.767-41.3-54.08-72.826-97.172-91.58-50-21.762-109.589-28.24-163.279-14.5-14.107,3.61-27.855,6.923-41.162,12.862-54.55,24.333-43.992,84.3-63.158,105.161-16.107,17.55-46.891,12.377-66.308,25.825C-25.29,187.367,5,280.893,61.174,314.462,126.572,353.548,377.634,377.247,447.481,266.031Z" fill="#f9fbff"/>
    </g>
    <g id="freepik--Floor--inject-33" transform="translate(0 345)">
      <path id="Path-2" data-name="Path" d="M0,.5H490" transform="translate(0 0.74)" fill="none" stroke="#263238" stroke-linecap="round" stroke-linejoin="round" stroke-miterlimit="10" stroke-width="1"/>
    </g>
    <g id="freepik--Plant--inject-33" transform="translate(12 87)">
      <path id="Path-3" data-name="Path" d="M.5,121.94V0" transform="translate(37.52 41.87)" fill="none" stroke="#dee8fb" stroke-linecap="round" stroke-linejoin="round" stroke-miterlimit="10" stroke-width="1"/>
      <path id="Path-4" data-name="Path" d="M36.67,18.34S30.25,9.17,22,4.59,0,0,0,0,7.33,26.59,36.67,18.34Z" transform="translate(0.44 134.47)" fill="#dee8fb"/>
      <path id="Path-5" data-name="Path" d="M0,18.34S6.42,9.17,14.67,4.59,36.67,0,36.67,0,29.36,26.59,0,18.34Z" transform="translate(38 134.47)" fill="#dee8fb"/>
      <path id="Path-6" data-name="Path" d="M36.67,18.33S30.25,9.16,22,4.58,0,0,0,0,7.33,26.58,36.67,18.33Z" transform="translate(0.44 101.47)" fill="#dee8fb"/>
      <path id="Path-7" data-name="Path" d="M0,18.33S6.42,9.16,14.67,4.58,36.67,0,36.67,0,29.36,26.58,0,18.33Z" transform="translate(38 101.47)" fill="#dee8fb"/>
      <path id="Path-8" data-name="Path" d="M36.67,18.38S30.25,9.21,22,4.58,0,0,0,0,7.33,26.63,36.67,18.38Z" transform="translate(0.44 68.42)" fill="#dee8fb"/>
      <path id="Path-9" data-name="Path" d="M0,18.34S6.42,9.17,14.67,4.58,36.67,0,36.67,0,29.36,26.59,0,18.34Z" transform="translate(38 68.46)" fill="#dee8fb"/>
      <path id="Path-10" data-name="Path" d="M36.67,18.37S30.25,9.2,22,4.58,0,0,0,0,7.33,26.58,36.67,18.37Z" transform="translate(0.44 35.42)" fill="#dee8fb"/>
      <path id="Path-11" data-name="Path" d="M0,18.34S6.42,9.17,14.67,4.58,36.67,0,36.67,0,29.36,26.55,0,18.34Z" transform="translate(38 35.45)" fill="#dee8fb"/>
      <path id="Path-12" data-name="Path" d="M7.716,41.01S.386,31.14.016,21.7,5.846,0,5.846,0,28.336,18.54,7.716,41.01Z" transform="translate(30.284 0.86)" fill="#dee8fb"/>
      <path id="Path-13" data-name="Path" d="M0,0H35.58l-8.9,97.31H8.89L0,0Z" transform="translate(19.66 161.53)" fill="#dee8fb"/>
    </g>
    <g id="freepik--Character--inject-33" transform="translate(76 85)">
      <path id="Path-14" data-name="Path" d="M15.59,3.561S8.39-1,6,.2,0,5,0,6.921s2.64,2.16,4.08,1.44S15.59,3.561,15.59,3.561Z" transform="translate(96.18 5.199)" fill="#fff" stroke="#263238" stroke-linecap="round" stroke-linejoin="round" stroke-miterlimit="10" stroke-width="1"/>
      <path id="Path-15" data-name="Path" d="M15.6,3.561S8.4-1,6,.2,0,5,0,6.921s2.63,2.16,4.07,1.44S15.6,3.561,15.6,3.561Z" transform="translate(100.49 4.719)" fill="#fff" stroke="#263238" stroke-linecap="round" stroke-linejoin="round" stroke-miterlimit="10" stroke-width="1"/>
      <path id="Path-16" data-name="Path" d="M54.953,22.633s-20.88-3.36-23.28-4.8a34.69,34.69,0,0,1-7.68-7.2c-2.64-3.12-5.76-9.84-8.88-10.56S-.237,4.153,0,6.313s18,16.8,21.35,18.72,10.8,3.12,11.76,4.08,18.24,11.28,18.24,11.28Z" transform="translate(101.457 7.007)" fill="#fff" stroke="#263238" stroke-linecap="round" stroke-linejoin="round" stroke-miterlimit="10" stroke-width="1"/>
      <path id="Path-17" data-name="Path" d="M139.4,17.689s-17.52,22.63-34.38,31.69-43,9.33-60.83,4.52-42-26.31-44-33.1,12.56-15.28,17.19-17.26,50.25.28,63.15-2.27,23.47.85,35-.84S144.357,1.559,139.4,17.689Z" transform="translate(45.033 194.971)" fill="#263238" stroke="#263238" stroke-linecap="round" stroke-linejoin="round" stroke-miterlimit="10" stroke-width="1"/>
      <path id="Path-18" data-name="Path" d="M2.655,9.6s31.32,14.42,49.22,14.42S93.645,5.66,95.135,3.66s0-5-15.91-3S30,4.66,16.575,2.15-4.305-.34,2.655,9.6Z" transform="translate(59.615 192.34)" fill="#ffb76f" stroke="#263238" stroke-linecap="round" stroke-linejoin="round" stroke-miterlimit="10" stroke-width="1"/>
      <path id="Path-19" data-name="Path" d="M1,0S2.31,3.26,0,5.54" transform="translate(82.14 202.49)" fill="none" stroke="#263238" stroke-linecap="round" stroke-linejoin="round" stroke-miterlimit="10" stroke-width="1"/>
      <path id="Path-20" data-name="Path" d="M2.28,0C1.28,0,0,6.52,0,6.52" transform="translate(88.36 204.77)" fill="none" stroke="#263238" stroke-linecap="round" stroke-linejoin="round" stroke-miterlimit="10" stroke-width="1"/>
      <path id="Path-21" data-name="Path" d="M.985,0,.015,3.58" transform="translate(94.535 205.75)" fill="none" stroke="#263238" stroke-linecap="round" stroke-linejoin="round" stroke-miterlimit="10" stroke-width="1"/>
      <path id="Path-22" data-name="Path" d="M.66,8.14.34,0" transform="translate(104.31 207.38)" fill="none" stroke="#263238" stroke-linecap="round" stroke-linejoin="round" stroke-miterlimit="10" stroke-width="1"/>
      <path id="Path-23" data-name="Path" d="M.26,0,.74,4.17" transform="translate(113.35 207.45)" fill="none" stroke="#263238" stroke-linecap="round" stroke-linejoin="round" stroke-miterlimit="10" stroke-width="1"/>
      <path id="Path-24" data-name="Path" d="M75.914,59.54s-14.08,0-19.2-1-14.4-3.2-14.4-3.2l-7.67-17.28S11.924,53.42,4.884,58.54s-5.12,18.88-2.56,25.28,13.76,7.37,26.56,7.37,29.75,4.47,29.75,4.47.64,39-.64,50.24-4.48,15.67,4.8,19.51,40.63,12.16,50.23,11.2,35.52-13.12,39.68-15.68,1-10.23-1.28-15.35-11.2-56.95-11.2-56.95,45.75-48.32,50.55-57.59-3.2-20.48-7-24.64S166.494,0,166.494,0l-16.95,24.32,5.8,5.16s-18,14-22.12,16.91-17.92,9-24.32,9.92S75.914,59.54,75.914,59.54Z" transform="translate(0.586 30.81)" fill="#dee8fb" stroke="#263238" stroke-linecap="round" stroke-linejoin="round" stroke-miterlimit="10" stroke-width="1"/>
      <path id="Path-25" data-name="Path" d="M12.209,0a33.74,33.74,0,0,1-7.62,14.15c-6,6.53-5.44,9.8-2.18,9.8s19.6-6,19.6-9.8S12.209,0,12.209,0Z" transform="translate(91.221 121.69)" fill="#ffb76f"/>
      <path id="Path-26" data-name="Path" d="M8.928,7.08a35.76,35.76,0,0,1-4.9,9.8c-3.26,4.35-8.71,8.71,3.81,7.62s26.13-12.52,24-17.42S28.578,0,28.578,0Z" transform="translate(84.702 138.56)" fill="#ffb76f"/>
      <path id="Path-27" data-name="Path" d="M26.3.646s-9.8,8.16-17.42,9.79-10.89,4.36-7.62,7.08,19.59-4.35,26.13-8.71S33.373-2.084,26.3.646Z" transform="translate(86.927 131.934)" fill="#fff"/>
      <path id="Path-28" data-name="Path" d="M10.578,10.34a17,17,0,0,1-6,10.89c-5.45,4.35-8.17,10.34,4.35,10.34s30.48-2.18,36.47-12.52S39.938,0,39.938,0,18.748,9.25,10.578,10.34Z" transform="translate(77.062 153.26)" fill="#ffb76f"/>
      <path id="Path-29" data-name="Path" d="M36.618,0a93.92,93.92,0,0,1-16.87,10.89c-9.8,4.9-21.23,2.72-19.59,6s1.63,4.35,17.41-1.09S36.618,8.18,38.8,4.37,36.618,0,36.618,0Z" transform="translate(82.592 147.27)" fill="#fff"/>
      <path id="Path-30" data-name="Path" d="M50.551.3s-2.18,6.53-15.79,10.89-27.21,6-31,6-6.54,3.81,1.08,6,30.49-1.63,43-8.16S56.531-1.884,50.551.3Z" transform="translate(75.199 163.304)" fill="#fff"/>
      <path id="Path-31" data-name="Path" d="M7.08,3.54A3.54,3.54,0,1,1,3.54,0,3.54,3.54,0,0,1,7.08,3.54Z" transform="translate(83.83 167.46)" fill="#263238"/>
      <circle id="Oval" cx="3.54" cy="3.54" r="3.54" transform="translate(100.71 158.7)" fill="#263238"/>
      <circle id="Oval-2" data-name="Oval" cx="3.54" cy="3.54" r="3.54" transform="translate(87.91 148.09)" fill="#263238"/>
      <circle id="Oval-3" data-name="Oval" cx="3.54" cy="3.54" r="3.54" transform="translate(114.04 133.39)" fill="#263238"/>
      <path id="Path-32" data-name="Path" d="M7.08,3.54a3.54,3.54,0,1,1-1.037-2.5A3.54,3.54,0,0,1,7.08,3.54Z" transform="translate(99.34 114.34)" fill="#263238"/>
      <path id="Path-33" data-name="Path" d="M7.08,3.54A3.54,3.54,0,1,1,3.54,0,3.54,3.54,0,0,1,7.08,3.54Z" transform="translate(118.92 149.99)" fill="#263238"/>
      <circle id="Oval-4" data-name="Oval" cx="3.54" cy="3.54" r="3.54" transform="translate(123.29 172.04)" fill="#263238"/>
      <circle id="Oval-5" data-name="Oval" cx="3.54" cy="3.54" r="3.54" transform="translate(105.33 180.75)" fill="#263238"/>
      <path id="Path-34" data-name="Path" d="M7.08,3.54a3.54,3.54,0,1,1-1.037-2.5A3.54,3.54,0,0,1,7.08,3.54Z" transform="translate(84.1 183.46)" fill="#263238"/>
      <path id="Path-35" data-name="Path" d="M15.87,0,0,17.52" transform="translate(26.74 90.66)" fill="none" stroke="#263238" stroke-linecap="round" stroke-linejoin="round" stroke-miterlimit="10" stroke-width="1"/>
      <path id="Path-36" data-name="Path" d="M7.27,0,0,17.2" transform="translate(32.69 93.96)" fill="none" stroke="#263238" stroke-linecap="round" stroke-linejoin="round" stroke-miterlimit="10" stroke-width="1"/>
      <path id="Path-37" data-name="Path" d="M10.33,13.69,0,0,3.54,11.7l6.79,1.99Z" transform="translate(48.89 112.81)" fill="#263238" stroke="#263238" stroke-linecap="round" stroke-linejoin="round" stroke-miterlimit="10" stroke-width="1"/>
      <path id="Path-38" data-name="Path" d="M.35,20.88,0,0,3.39,17.49.35,20.88Z" transform="translate(140.46 98.59)" fill="#263238" stroke="#263238" stroke-linecap="round" stroke-linejoin="round" stroke-miterlimit="10" stroke-width="1"/>
      <path id="Path-39" data-name="Path" d="M0,0S5.46,6.62,10.09,8.93s14.22-3,15.54-6.61" transform="translate(156.49 61.56)" fill="none" stroke="#263238" stroke-linecap="round" stroke-linejoin="round" stroke-miterlimit="10" stroke-width="1"/>
      <path id="Path-40" data-name="Path" d="M0,0S6.61,10.57,11.57,10.24" transform="translate(158 66.53)" fill="none" stroke="#263238" stroke-linecap="round" stroke-linejoin="round" stroke-miterlimit="10" stroke-width="1"/>
      <path id="Path-41" data-name="Path" d="M70.727,16.1S41.917.5,36.417.015s-19,10.32-26.64,17.28S-.783,33.135.177,38.9,4.5,66.485,4.5,66.485s3.12,1,4.8.24,3.6-13.91,4.56-16.31,6.72-6.24,6.72-6.24Z" transform="translate(46.083 0.825)" fill="#ffb76f" stroke="#263238" stroke-linecap="round" stroke-linejoin="round" stroke-miterlimit="10" stroke-width="1"/>
      <path id="Path-42" data-name="Path" d="M6.96.031S1.2-.209,1.2,1.471,0,13.471,0,16.111s5.52,12.72,19,13.2,20.15-5.28,21.83-9.36.72-8.88.24-11l-.48-2.16s-19.43-2.88-24.23-5A20.09,20.09,0,0,0,6.96.031Z" transform="translate(75.3 76.159)" fill="#ffb76f" stroke="#263238" stroke-linecap="round" stroke-linejoin="round" stroke-miterlimit="10" stroke-width="1"/>
      <path id="Path-43" data-name="Path" d="M0,0V15.36s7.68,7.92,18.72,7,14.15-5.52,14.15-5.52L33.11,13Z" transform="translate(81.3 68.75)" fill="#fff" stroke="#263238" stroke-linecap="round" stroke-linejoin="round" stroke-miterlimit="10" stroke-width="1"/>
      <path id="Path-44" data-name="Path" d="M33.11,13,0,0V10.42c8.83,8.22,20.36,13.22,31.26,5.26l1.77-1.32Z" transform="translate(81.3 68.71)" fill="#263238" stroke="#263238" stroke-linecap="round" stroke-linejoin="round" stroke-miterlimit="10" stroke-width="1"/>
      <path id="Path-45" data-name="Path" d="M1,0A14,14,0,0,0,0,4.89V11.4" transform="translate(80.51 86.18)" fill="none" stroke="#263238" stroke-linecap="round" stroke-linejoin="round" stroke-miterlimit="10" stroke-width="1"/>
      <path id="Path-46" data-name="Path" d="M.5,0V8.47" transform="translate(82.97 91.39)" fill="none" stroke="#263238" stroke-linecap="round" stroke-linejoin="round" stroke-miterlimit="10" stroke-width="1"/>
      <path id="Path-47" data-name="Path" d="M.5,0V10.1" transform="translate(86.55 91.07)" fill="none" stroke="#263238" stroke-linecap="round" stroke-linejoin="round" stroke-miterlimit="10" stroke-width="1"/>
      <path id="Path-48" data-name="Path" d="M.5,0V5.86" transform="translate(89.81 96.61)" fill="none" stroke="#263238" stroke-linecap="round" stroke-linejoin="round" stroke-miterlimit="10" stroke-width="1"/>
      <path id="Path-49" data-name="Path" d="M2.29,0S0,1.95,0,2.93V8.8" transform="translate(77.6 81.62)" fill="none" stroke="#263238" stroke-linecap="round" stroke-linejoin="round" stroke-miterlimit="10" stroke-width="1"/>
      <path id="Path-50" data-name="Path" d="M51.83,8.45c.9,8.33,4,16.77,5.75,25,2.15,10.15-4.88,16.76-12.47,22.3C28.99,67.53,11.47,50.92,3.36,37.51,1.63,34.65,0,29.84,0,28.4s.48-13,14.4-19.68S34.55.32,41.27.08,50.87-.43,51.83,8.45Z" transform="translate(72.66 27.91)" fill="#fff" stroke="#263238" stroke-linecap="round" stroke-linejoin="round" stroke-miterlimit="10" stroke-width="1"/>
      <path id="Path-51" data-name="Path" d="M10.32,1.564s-6.31-3.31-9-.3-1.21,9.92,3.9,12.62a8.66,8.66,0,0,0,10.22-1.5" transform="translate(69.22 58.866)" fill="#fff" stroke="#263238" stroke-linecap="round" stroke-linejoin="round" stroke-miterlimit="10" stroke-width="1"/>
      <path id="Path-52" data-name="Path" d="M11.79,0s-1.68,7.2.24,11.28a12.75,12.75,0,0,0,5.52,5.76s-4.56,1.43-5.52.72a21.07,21.07,0,0,1-1.92-1.68,6.19,6.19,0,0,0,2.4,3.83,36.38,36.38,0,0,0,3.84,2.64s-3.12,1.2-5.52-.24a35.9,35.9,0,0,1-3.6-2.4l2.64,4.08a35,35,0,0,1-5.28-2.16,16.81,16.81,0,0,1-2.16-2.16v3.6c0,.72-1.68-7.67-2.4-9.11S11.79,0,11.79,0Z" transform="translate(75.03 43.8)" fill="#263238" stroke="#263238" stroke-linecap="round" stroke-linejoin="round" stroke-miterlimit="10" stroke-width="1"/>
      <path id="Path-53" data-name="Path" d="M0,0S.72,4.8,1.68,5.28s7.2-.24,7.2,2.88-4.56,4.32-4.56,4.32" transform="translate(114.41 44.76)" fill="none" stroke="#263238" stroke-linecap="round" stroke-linejoin="round" stroke-miterlimit="10" stroke-width="1"/>
      <path id="Path-54" data-name="Path" d="M21.35,1.43s-6,4.56-13.2,3.12S0,0,0,0" transform="translate(99.54 60.57)" fill="none" stroke="#263238" stroke-linecap="round" stroke-linejoin="round" stroke-miterlimit="10" stroke-width="1"/>
      <path id="Path-55" data-name="Path" d="M3.36,0,0,2.87" transform="translate(97.86 59.16)" fill="none" stroke="#263238" stroke-linecap="round" stroke-linejoin="round" stroke-miterlimit="10" stroke-width="1"/>
      <path id="Path-56" data-name="Path" d="M0,0A99,99,0,0,0,5.94,10.11c2.88,4.08,5.52,3.36,6.48.72s.08-8.32.08-8.32S6.73,4.08,0,0Z" transform="translate(101.27 62.72)" fill="#263238" stroke="#263238" stroke-linecap="round" stroke-linejoin="round" stroke-miterlimit="10" stroke-width="1"/>
      <path id="Path-57" data-name="Path" d="M2.558,2.449c.44,1.53.28,2.92-.36,3.1s-1.51-.9-1.95-2.43S-.032.2.608.019,2.118.929,2.558,2.449Z" transform="translate(105.332 45.811)" fill="#263238" stroke="#263238" stroke-linecap="round" stroke-linejoin="round" stroke-miterlimit="10" stroke-width="1"/>
      <path id="Path-58" data-name="Path" d="M2.558,2.459c.44,1.52.28,2.91-.36,3.09s-1.51-.9-1.95-2.43S-.032.2.608.019,2.108.929,2.558,2.459Z" transform="translate(117.092 41.971)" fill="#263238" stroke="#263238" stroke-linecap="round" stroke-linejoin="round" stroke-miterlimit="10" stroke-width="1"/>
      <path id="Path-59" data-name="Path" d="M0,6.24S1.44.48,9.35,0" transform="translate(97.86 38.76)" fill="none" stroke="#263238" stroke-linecap="round" stroke-linejoin="round" stroke-miterlimit="10" stroke-width="1"/>
      <path id="Path-60" data-name="Path" d="M0,1.858s3.12-3.84,8.16-.48" transform="translate(114.17 36.422)" fill="none" stroke="#263238" stroke-linecap="round" stroke-linejoin="round" stroke-miterlimit="10" stroke-width="1"/>
      <path id="Path-61" data-name="Path" d="M8.435,47.624,26.2,30.354c8.88-8.64,18.71-10.56,26.39-12.24s7.68-.48,7.68-.48l1.68,4.32a13.37,13.37,0,0,0,3.36-1.92c1.44-1.2-.48-6-1.68-8.64s-5.52-9.36-7.2-10.8-9.12-.24-20.15,3.36S13.435,19.824,8.9,23.9.255,32.3.015,35.424s2.4,7.2,3.6,10.08S5.055,48.624,8.435,47.624Z" transform="translate(62.565 14.376)" fill="#fff" stroke="#263238" stroke-linecap="round" stroke-linejoin="round" stroke-miterlimit="10" stroke-width="1"/>
      <path id="Path-62" data-name="Path" d="M0,52.075l17.83-16.79s1-14.31,1.45-16.59,3.32-3.94,3.94-6.22,1.66-2.9,2.49-3.11,1,1.87,1,1.87,8.71-6.64,11.41-8.5,3.94-1.45,4.56-1,.21,1.66.21,1.66,6-4.56,7.87-3.11,1,3.11-2.07,5-9.33,7.46-10.16,8.7a11.7,11.7,0,0,0-1.24,2.49s10.36-4.14,13.06-5.39,5.39-1.86,5.8-.62-.2,2.69-2.48,3.94-9.75,4.77-10.37,5.18a14.63,14.63,0,0,1-1.45.83s7.25-.21,8.91,0,5.81-.62,5.19,1-.63,1.66-3.32,2.28-10.78,1.24-10.78,1.24-5,8.92-7.26,11.61-7.25,5.39-7.88,6S6.19,66.595,6.19,66.595Z" transform="translate(47.9 11.865)" fill="#fff" stroke="#263238" stroke-linecap="round" stroke-linejoin="round" stroke-miterlimit="10" stroke-width="1"/>
      <path id="Path-63" data-name="Path" d="M11,0S1.67,5.6,0,8.71" transform="translate(79.82 15.22)" fill="none" stroke="#263238" stroke-linecap="round" stroke-linejoin="round" stroke-miterlimit="10" stroke-width="1"/>
      <path id="Path-64" data-name="Path" d="M3.52,0S.62,4.77,0,7.46" transform="translate(71.12 23.1)" fill="none" stroke="#263238" stroke-linecap="round" stroke-linejoin="round" stroke-miterlimit="10" stroke-width="1"/>
      <path id="Path-65" data-name="Path" d="M68.91,10.768l-1.81,1.14c-8.36,5.24-43.49,27.18-51.83,30.67C5.8,46.578,0,48.828,0,48.828l15.88,21.43s1.8-.68,20.64-2.58,50.27-21,62.25-31.2,15.19-20.39,10.46-29.33-23.08-8-28-5.17a129.059,129.059,0,0,0-12.32,8.79Z" transform="translate(90.9 180.092)" fill="#263238" stroke="#263238" stroke-linecap="round" stroke-linejoin="round" stroke-miterlimit="10" stroke-width="1"/>
      <path id="Path-66" data-name="Path" d="M19.666,1.372S6.926-.628,2.4.2s-1.56,8.45.17,15.49,8.95,13.42,15.45,14.62,16.57-2.32,21.33-4.46S19.666,1.372,19.666,1.372Z" transform="translate(41.154 230.378)" fill="#ffb76f" stroke="#263238" stroke-linecap="round" stroke-linejoin="round" stroke-miterlimit="10" stroke-width="1"/>
      <path id="Path-67" data-name="Path" d="M18.012,30.32a23.72,23.72,0,0,0,8.36-.32c-4.4-1.43-9.88-4.16-13.62-9.39C7.542,13.35,5.622,4.42,4.952,0a16.3,16.3,0,0,0-2.56.21c-4.52.84-1.56,8.45.17,15.49S11.512,29.12,18.012,30.32Z" transform="translate(41.158 230.37)" fill="#fff" stroke="#263238" stroke-linecap="round" stroke-linejoin="round" stroke-miterlimit="10" stroke-width="1"/>
      <path id="Path-68" data-name="Path" d="M3.17,26.065s35,3.93,45.45,2.41,22.77.37,28-2.73,1.78-20-2.16-24.07-15.33.22-22.29,2.9-27.34,5-34.36,5a68.49,68.49,0,0,1-11.13-.72L0,27.205Z" transform="translate(115.19 232.525)" fill="#fff" stroke="#263238" stroke-linecap="round" stroke-linejoin="round" stroke-miterlimit="10" stroke-width="1"/>
      <path id="Path-69" data-name="Path" d="M12.279,4.552a60.63,60.63,0,0,1-10.31,2.46,16.05,16.05,0,0,0-1.21,12.58,15,15,0,0,0,7.11,9l.86-.11c10.47-1.52,22.77.37,28-2.73s1.78-20-2.16-24.07S19.239,1.872,12.279,4.552Z" transform="translate(155.081 232.548)" fill="#dee8fb" stroke="#263238" stroke-linecap="round" stroke-linejoin="round" stroke-miterlimit="10" stroke-width="1"/>
      <path id="Path-70" data-name="Path" d="M11,1.7C8.89-.51,4.62-.3,0,.83c1.9.52,8.41,3,10.66,12.6,1.62,6.92-1.11,11.46-3.47,13.95a15.33,15.33,0,0,0,5.93-1.61C18.35,22.67,14.94,5.8,11,1.7Z" transform="translate(178.65 232.5)" fill="#fff" stroke="#263238" stroke-linecap="round" stroke-linejoin="round" stroke-miterlimit="10" stroke-width="1"/>
      <path id="Path-71" data-name="Path" d="M16.863,41.383c11.37,4.7,42.45,20.89,56.31,28.9q2.72,1.57,5.36,3h31.25a61.14,61.14,0,0,0,5.78-7.8c4.85-8.06,1.87-19.32,1.87-19.32s-35.75-13.84-53.59-24S37.383,3.293,24.943.423,3.6,9.873.633,19.323,5.483,36.693,16.863,41.383Z" transform="translate(8.067 188.017)" fill="#263238" stroke="#263238" stroke-linecap="round" stroke-linejoin="round" stroke-miterlimit="10" stroke-width="1"/>
      <path id="Path-72" data-name="Path" d="M21.318,1.179s12.64,17,13.06,18.45a3.17,3.17,0,0,1-1.25,3.94c-1.65,1.24-14.51,11.4-16.79,11.4S.788,16.309.168,14.649s.62-2.9,1.45-3.73S17.788.759,18.828.139,21.318,1.179,21.318,1.179Z" transform="translate(28.452 56.751)" fill="#ffb76f" stroke="#263238" stroke-linecap="round" stroke-linejoin="round" stroke-miterlimit="10" stroke-width="1"/>
      <path id="Path-73" data-name="Path" d="M16.47,0,0,10.98" transform="translate(33.3 57.93)" fill="none" stroke="#263238" stroke-linecap="round" stroke-linejoin="round" stroke-miterlimit="10" stroke-width="1"/>
      <path id="Path-74" data-name="Path" d="M12.32,0,0,7.91" transform="translate(35.58 63.94)" fill="none" stroke="#263238" stroke-linecap="round" stroke-linejoin="round" stroke-miterlimit="10" stroke-width="1"/>
      <path id="Path-75" data-name="Path" d="M0,10.1,15.64,0" transform="translate(36.23 67.94)" fill="none" stroke="#263238" stroke-linecap="round" stroke-linejoin="round" stroke-miterlimit="10" stroke-width="1"/>
      <path id="Path-76" data-name="Path" d="M0,4.56,7.17,0" transform="translate(38.18 79.99)" fill="none" stroke="#263238" stroke-linecap="round" stroke-linejoin="round" stroke-miterlimit="10" stroke-width="1"/>
      <path id="Path-77" data-name="Path" d="M9.63.55A.85.85,0,0,0,9.25,1C7.34,4.38,9.14,7.78,4.99,13.82-1.55,23.34-.2,26.17.99,27.69s7,5.55,9.76,5.55,9.18-4.55,12.88-13.35S27.28,5.62,25.46,4.11c-1.24-1-6.84-2.76-10.3-3.77A8.75,8.75,0,0,0,9.69.55Z" transform="translate(145.37 26.51)" fill="#ffb76f" stroke="#263238" stroke-linecap="round" stroke-linejoin="round" stroke-miterlimit="10" stroke-width="1"/>
      <path id="Path-78" data-name="Path" d="M0,0,12.06,5.87" transform="translate(146.67 50.99)" fill="none" stroke="#263238" stroke-linecap="round" stroke-linejoin="round" stroke-miterlimit="10" stroke-width="1"/>
      <path id="Path-79" data-name="Path" d="M0,0,9.13,4.89" transform="translate(152.21 49.04)" fill="none" stroke="#263238" stroke-linecap="round" stroke-linejoin="round" stroke-miterlimit="10" stroke-width="1"/>
      <path id="Path-80" data-name="Path" d="M0,0,13.68,5.86" transform="translate(150.91 45.13)" fill="none" stroke="#263238" stroke-linecap="round" stroke-linejoin="round" stroke-miterlimit="10" stroke-width="1"/>
      <path id="Path-81" data-name="Path" d="M0,0,6.84,1.96" transform="translate(160.03 45.78)" fill="none" stroke="#263238" stroke-linecap="round" stroke-linejoin="round" stroke-miterlimit="10" stroke-width="1"/>
    </g>
    <g id="freepik--Gifts--inject-33" transform="translate(18 84)">
      <rect id="Rectangle" width="179.39" height="221.6" transform="translate(262.03 40.64)" fill="#fff" stroke="#263238" stroke-linecap="round" stroke-linejoin="round" stroke-miterlimit="10" stroke-width="1"/>
      <path id="Path-82" data-name="Path" d="M1.25.61l.3-.22H0V.61Z" transform="translate(422.32 40.25)" fill="#263238"/>
      <path id="Path-83" data-name="Path" d="M3.64,2.14,2.94,0,2.25,2.14H0L1.82,3.46,1.12,5.6,2.94,4.28,4.77,5.6l-.7-2.14L5.89,2.14Z" transform="translate(432.87 50.9)" fill="#263238"/>
      <path id="Path-84" data-name="Path" d="M0,3.2H1.25L2.9,2H.65L0,0H0V3.2Z" transform="translate(422.32 64.57)" fill="#263238"/>
      <path id="Path-85" data-name="Path" d="M0,0V.97L1.78,2.26,1.08.12,1.25,0Z" transform="translate(422.32 40.86)" fill="#263238"/>
      <path id="Path-86" data-name="Path" d="M3.64,2.14,2.94,0,2.25,2.14H0L1.82,3.46l-.7,2.15L2.94,4.28,4.77,5.61l-.7-2.15L5.89,2.14Z" transform="translate(432.87 77.81)" fill="#263238"/>
      <path id="Path-87" data-name="Path" d="M0,3.21H1.25L2.9,2.01H.65L0,0H0V3.21Z" transform="translate(422.32 91.48)" fill="#263238"/>
      <path id="Path-88" data-name="Path" d="M0,0V.98L1.78,2.27,1.08.12,1.25,0Z" transform="translate(422.32 67.77)" fill="#263238"/>
      <path id="Path-89" data-name="Path" d="M3.64,2.14,2.94,0,2.25,2.14H0L1.82,3.46,1.12,5.6,2.94,4.28,4.77,5.6l-.7-2.14L5.89,2.14Z" transform="translate(432.87 104.73)" fill="#263238"/>
      <path id="Path-90" data-name="Path" d="M0,3.2H1.25L2.9,2H.65L0,0H0V3.2Z" transform="translate(422.32 118.4)" fill="#263238"/>
      <path id="Path-91" data-name="Path" d="M0,0V.97L1.78,2.26,1.08.12,1.25,0Z" transform="translate(422.32 94.69)" fill="#263238"/>
      <path id="Path-92" data-name="Path" d="M3.64,2.14,2.94,0,2.25,2.14H0L1.82,3.47l-.7,2.14L2.94,4.28,4.77,5.61l-.7-2.14L5.89,2.14Z" transform="translate(432.87 131.64)" fill="#263238"/>
      <path id="Path-93" data-name="Path" d="M0,3.21H1.25L2.9,2.01H.65L0,0H0V3.21Z" transform="translate(422.32 145.31)" fill="#263238"/>
      <path id="Path-94" data-name="Path" d="M0,0V.98L1.78,2.27,1.08.13,1.25,0Z" transform="translate(422.32 121.6)" fill="#263238"/>
      <path id="Path-95" data-name="Path" d="M3.64,2.14,2.94,0,2.25,2.14H0L1.82,3.46,1.12,5.6,2.94,4.28,4.77,5.6l-.7-2.14L5.89,2.14Z" transform="translate(432.87 158.56)" fill="#263238"/>
      <path id="Path-96" data-name="Path" d="M0,3.2H1.25L2.9,2H.65L0,0H0V3.2Z" transform="translate(422.32 172.23)" fill="#263238"/>
      <path id="Path-97" data-name="Path" d="M0,0V.97L1.78,2.26,1.08.12,1.25,0Z" transform="translate(422.32 148.52)" fill="#263238"/>
      <path id="Path-98" data-name="Path" d="M3.64,2.14,2.94,0,2.25,2.14H0L1.82,3.47l-.7,2.14L2.94,4.28,4.77,5.61l-.7-2.14L5.89,2.14Z" transform="translate(432.87 185.47)" fill="#263238"/>
      <path id="Path-99" data-name="Path" d="M0,3.21H1.25L2.9,2.01H.65L0,0V3.21Z" transform="translate(422.32 199.14)" fill="#263238"/>
      <path id="Path-100" data-name="Path" d="M0,0V.98L1.78,2.27,1.08.13,1.25,0Z" transform="translate(422.32 175.43)" fill="#263238"/>
      <path id="Path-101" data-name="Path" d="M3.64,2.14,2.94,0,2.25,2.14H0L1.82,3.46,1.12,5.6,2.94,4.28,4.77,5.6l-.7-2.14L5.89,2.14Z" transform="translate(432.87 212.39)" fill="#263238"/>
      <path id="Path-102" data-name="Path" d="M0,3.2H1.25L2.9,2H.65L0,0H0V3.2Z" transform="translate(422.32 226.06)" fill="#263238"/>
      <path id="Path-103" data-name="Path" d="M0,0V.97L1.78,2.26,1.08.12,1.25,0Z" transform="translate(422.32 202.35)" fill="#263238"/>
      <path id="Path-104" data-name="Path" d="M3.64,2.14,2.94,0,2.25,2.14H0L1.82,3.47l-.7,2.14L2.94,4.29,4.77,5.61l-.7-2.14L5.89,2.14Z" transform="translate(432.87 239.3)" fill="#263238"/>
      <path id="Path-105" data-name="Path" d="M2.9,2H.65L0,0H0V3.2H1.25L2.9,2Z" transform="translate(422.32 252.98)" fill="#263238"/>
      <path id="Path-106" data-name="Path" d="M0,0V.98L1.78,2.27,1.08.13,1.25,0Z" transform="translate(422.32 229.26)" fill="#263238"/>
      <path id="Path-107" data-name="Path" d="M0,0V.97L1.78,2.26,1.08.12,1.25,0Z" transform="translate(422.32 256.18)" fill="#263238"/>
      <path id="Path-108" data-name="Path" d="M1.63.61V.39H0L.29.61Z" transform="translate(420.69 40.25)" fill="#263238"/>
      <path id="Path-109" data-name="Path" d="M1.24.61l.3-.22H0V.61Z" transform="translate(395.41 40.25)" fill="#263238"/>
      <path id="Path-110" data-name="Path" d="M3.65,2.14,2.95,0l-.7,2.14H0L1.82,3.46,1.13,5.6,2.95,4.28,4.77,5.6,4.08,3.46,5.9,2.14Z" transform="translate(405.95 50.9)" fill="#263238"/>
      <path id="Path-111" data-name="Path" d="M0,2.14l1.65,1.2H2.99V.14L2.95,0l-.7,2.14Z" transform="translate(419.33 64.43)" fill="#263238"/>
      <path id="Path-112" data-name="Path" d="M1.87,0H.53L.7.12,0,2.26,1.83.94l.04.03h0V0Z" transform="translate(420.45 40.86)" fill="#263238"/>
      <path id="Path-113" data-name="Path" d="M0,3.2H1.24L2.9,2H.65L0,0H0V3.2Z" transform="translate(395.41 64.57)" fill="#263238"/>
      <path id="Path-114" data-name="Path" d="M0,0V.97L1.77,2.26,1.08.12,1.24,0Z" transform="translate(395.41 40.86)" fill="#263238"/>
      <path id="Path-115" data-name="Path" d="M3.65,2.14,2.95,0l-.7,2.14H0L1.82,3.46,1.13,5.61,2.95,4.28,4.77,5.61,4.08,3.46,5.9,2.14Z" transform="translate(405.95 77.81)" fill="#263238"/>
      <path id="Path-116" data-name="Path" d="M0,2.14l1.65,1.2H2.99V.13L2.95,0l-.7,2.14Z" transform="translate(419.33 91.35)" fill="#263238"/>
      <path id="Path-117" data-name="Path" d="M1.87,0H.53L.7.12,0,2.27,1.83.94l.04.04h0V0Z" transform="translate(420.45 67.77)" fill="#263238"/>
      <path id="Path-118" data-name="Path" d="M0,3.21H1.24L2.9,2.01H.65L0,0H0V3.21Z" transform="translate(395.41 91.48)" fill="#263238"/>
      <path id="Path-119" data-name="Path" d="M0,0V.98L1.77,2.27,1.08.12,1.24,0Z" transform="translate(395.41 67.77)" fill="#263238"/>
      <path id="Path-120" data-name="Path" d="M3.65,2.14,2.95,0l-.7,2.14H0L1.82,3.46,1.13,5.6,2.95,4.28,4.77,5.6,4.08,3.46,5.9,2.14Z" transform="translate(405.95 104.73)" fill="#263238"/>
      <path id="Path-121" data-name="Path" d="M0,2.14l1.65,1.2H2.99V.14L2.95,0l-.7,2.14Z" transform="translate(419.33 118.26)" fill="#263238"/>
      <path id="Path-122" data-name="Path" d="M1.87,0H.53L.7.12,0,2.26,1.83.94l.04.03h0V0Z" transform="translate(420.45 94.69)" fill="#263238"/>
      <path id="Path-123" data-name="Path" d="M0,3.2H1.24L2.9,2H.65L0,0H0V3.2Z" transform="translate(395.41 118.4)" fill="#263238"/>
      <path id="Path-124" data-name="Path" d="M0,0V.97L1.77,2.26,1.08.12,1.24,0Z" transform="translate(395.41 94.69)" fill="#263238"/>
      <path id="Path-125" data-name="Path" d="M3.65,2.14,2.95,0l-.7,2.14H0L1.82,3.47,1.13,5.61,2.95,4.28,4.77,5.61,4.08,3.47,5.9,2.14Z" transform="translate(405.95 131.64)" fill="#263238"/>
      <path id="Path-126" data-name="Path" d="M0,2.14l1.65,1.2H2.99V.13L2.95,0l-.7,2.14Z" transform="translate(419.33 145.18)" fill="#263238"/>
      <path id="Path-127" data-name="Path" d="M1.87,0H.53L.7.13,0,2.27,1.83.94l.04.04h0V0Z" transform="translate(420.45 121.6)" fill="#263238"/>
      <path id="Path-128" data-name="Path" d="M0,3.21H1.24L2.9,2.01H.65L0,0H0V3.21Z" transform="translate(395.41 145.31)" fill="#263238"/>
      <path id="Path-129" data-name="Path" d="M0,0V.98L1.77,2.27,1.08.13,1.24,0Z" transform="translate(395.41 121.6)" fill="#263238"/>
      <path id="Path-130" data-name="Path" d="M3.65,2.14,2.95,0l-.7,2.14H0L1.82,3.46,1.13,5.6,2.95,4.28,4.77,5.6,4.08,3.46,5.9,2.14Z" transform="translate(405.95 158.56)" fill="#263238"/>
      <path id="Path-131" data-name="Path" d="M0,2.14l1.65,1.2H2.99V.14L2.95,0l-.7,2.14Z" transform="translate(419.33 172.09)" fill="#263238"/>
      <path id="Path-132" data-name="Path" d="M1.87,0H.53L.7.12,0,2.26,1.83.94l.04.03h0V0Z" transform="translate(420.45 148.52)" fill="#263238"/>
      <path id="Path-133" data-name="Path" d="M0,3.2H1.24L2.9,2H.65L0,0H0V3.2Z" transform="translate(395.41 172.23)" fill="#263238"/>
      <path id="Path-134" data-name="Path" d="M0,0V.97L1.77,2.26,1.08.12,1.24,0Z" transform="translate(395.41 148.52)" fill="#263238"/>
      <path id="Path-135" data-name="Path" d="M3.65,2.14,2.95,0l-.7,2.14H0L1.82,3.47,1.13,5.61,2.95,4.28,4.77,5.61,4.08,3.47,5.9,2.14Z" transform="translate(405.95 185.47)" fill="#263238"/>
      <path id="Path-136" data-name="Path" d="M0,2.14l1.65,1.2H2.99V.14L2.95,0l-.7,2.14Z" transform="translate(419.33 199.01)" fill="#263238"/>
      <path id="Path-137" data-name="Path" d="M1.87,0H.53L.7.13,0,2.27,1.83.95l.04.03h0V0Z" transform="translate(420.45 175.43)" fill="#263238"/>
      <path id="Path-138" data-name="Path" d="M0,3.21H1.24L2.9,2.01H.65L0,0V3.21Z" transform="translate(395.41 199.14)" fill="#263238"/>
      <path id="Path-139" data-name="Path" d="M0,0V.98L1.77,2.27,1.08.13,1.24,0Z" transform="translate(395.41 175.43)" fill="#263238"/>
      <path id="Path-140" data-name="Path" d="M3.65,2.14,2.95,0l-.7,2.14H0L1.82,3.46,1.13,5.6,2.95,4.28,4.77,5.6,4.08,3.46,5.9,2.14Z" transform="translate(405.95 212.39)" fill="#263238"/>
      <path id="Path-141" data-name="Path" d="M2.99,3.34V.14L2.95,0l-.7,2.14H0l1.65,1.2Z" transform="translate(419.33 225.92)" fill="#263238"/>
      <path id="Path-142" data-name="Path" d="M1.87,0H.53L.7.12,0,2.26,1.83.94l.04.03h0V0Z" transform="translate(420.45 202.35)" fill="#263238"/>
      <path id="Path-143" data-name="Path" d="M2.9,2H.65L0,0H0V3.2H1.24L2.9,2Z" transform="translate(395.41 226.06)" fill="#263238"/>
      <path id="Path-144" data-name="Path" d="M0,0V.97L1.77,2.26,1.08.12,1.24,0Z" transform="translate(395.41 202.35)" fill="#263238"/>
      <path id="Path-145" data-name="Path" d="M3.65,2.14,2.95,0l-.7,2.14H0L1.82,3.47,1.13,5.61,2.95,4.29,4.77,5.61,4.08,3.47,5.9,2.14Z" transform="translate(405.95 239.3)" fill="#263238"/>
      <path id="Path-146" data-name="Path" d="M2.99.14,2.95,0l-.7,2.14H0l1.65,1.2H2.99V.14Z" transform="translate(419.33 252.84)" fill="#263238"/>
      <path id="Path-147" data-name="Path" d="M1.87,0H.53L.7.13,0,2.27,1.83.95l.04.03h0V0Z" transform="translate(420.45 229.26)" fill="#263238"/>
      <path id="Path-148" data-name="Path" d="M0,3.2H1.24L2.9,2H.65L0,0H0V3.2Z" transform="translate(395.41 252.98)" fill="#263238"/>
      <path id="Path-149" data-name="Path" d="M0,0V.98L1.77,2.27,1.08.13,1.24,0Z" transform="translate(395.41 229.26)" fill="#263238"/>
      <path id="Path-150" data-name="Path" d="M1.87,0H.53L.7.12,0,2.26,1.83.94l.04.03h0V0Z" transform="translate(420.45 256.18)" fill="#263238"/>
      <path id="Path-151" data-name="Path" d="M0,0V.97L1.77,2.26,1.08.12,1.24,0Z" transform="translate(395.41 256.18)" fill="#263238"/>
      <path id="Path-152" data-name="Path" d="M1.64.61V.39H0L.3.61Z" transform="translate(393.77 40.25)" fill="#263238"/>
      <path id="Path-153" data-name="Path" d="M1.25.61l.3-.22H0V.61Z" transform="translate(368.49 40.25)" fill="#263238"/>
      <path id="Path-154" data-name="Path" d="M3.64,2.14,2.94,0,2.25,2.14H0L1.82,3.46,1.12,5.6,2.94,4.28,4.77,5.6l-.7-2.14L5.89,2.14Z" transform="translate(379.04 50.9)" fill="#263238"/>
      <path id="Path-155" data-name="Path" d="M0,2.14l1.66,1.2H3V.14L2.95,0,2.26,2.14Z" transform="translate(392.41 64.43)" fill="#263238"/>
      <path id="Path-156" data-name="Path" d="M1.87,0H.53L.69.12,0,2.26,1.82.94l.05.03h0V0Z" transform="translate(393.54 40.86)" fill="#263238"/>
      <path id="Path-157" data-name="Path" d="M0,3.2H1.25L2.9,2H.65L0,0V3.2Z" transform="translate(368.49 64.57)" fill="#263238"/>
      <path id="Path-158" data-name="Path" d="M0,.97,1.78,2.26,1.08.12,1.25,0H0V.97Z" transform="translate(368.49 40.86)" fill="#263238"/>
      <path id="Path-159" data-name="Path" d="M3.64,2.14,2.94,0,2.25,2.14H0L1.82,3.46l-.7,2.15L2.94,4.28,4.77,5.61l-.7-2.15L5.89,2.14Z" transform="translate(379.04 77.81)" fill="#263238"/>
      <path id="Path-160" data-name="Path" d="M0,2.14l1.66,1.2H3V.13L2.95,0,2.26,2.14Z" transform="translate(392.41 91.35)" fill="#263238"/>
      <path id="Path-161" data-name="Path" d="M1.87,0H.53L.69.12,0,2.27,1.82.94l.05.04h0V0Z" transform="translate(393.54 67.77)" fill="#263238"/>
      <path id="Path-162" data-name="Path" d="M0,3.21H1.25L2.9,2.01H.65L0,0V3.21Z" transform="translate(368.49 91.48)" fill="#263238"/>
      <path id="Path-163" data-name="Path" d="M0,0V.98L1.78,2.27,1.08.12,1.25,0Z" transform="translate(368.49 67.77)" fill="#263238"/>
      <path id="Path-164" data-name="Path" d="M3.64,2.14,2.94,0,2.25,2.14H0L1.82,3.46,1.12,5.6,2.94,4.28,4.77,5.6l-.7-2.14L5.89,2.14Z" transform="translate(379.04 104.73)" fill="#263238"/>
      <path id="Path-165" data-name="Path" d="M0,2.14l1.66,1.2H3V.14L2.95,0,2.26,2.14Z" transform="translate(392.41 118.26)" fill="#263238"/>
      <path id="Path-166" data-name="Path" d="M1.87,0H.53L.69.12,0,2.26,1.82.94l.05.03h0V0Z" transform="translate(393.54 94.69)" fill="#263238"/>
      <path id="Path-167" data-name="Path" d="M2.9,2H.65L0,0V3.2H1.25L2.9,2Z" transform="translate(368.49 118.4)" fill="#263238"/>
      <path id="Path-168" data-name="Path" d="M0,0V.97L1.78,2.26,1.08.12,1.25,0Z" transform="translate(368.49 94.69)" fill="#263238"/>
      <path id="Path-169" data-name="Path" d="M3.64,2.14,2.94,0,2.25,2.14H0L1.82,3.47l-.7,2.14L2.94,4.28,4.77,5.61l-.7-2.14L5.89,2.14Z" transform="translate(379.04 131.64)" fill="#263238"/>
      <path id="Path-170" data-name="Path" d="M0,2.14l1.66,1.2H3V.13L2.95,0,2.26,2.14Z" transform="translate(392.41 145.18)" fill="#263238"/>
      <path id="Path-171" data-name="Path" d="M1.87,0H.53L.69.13,0,2.27,1.82.94l.05.04h0V0Z" transform="translate(393.54 121.6)" fill="#263238"/>
      <path id="Path-172" data-name="Path" d="M2.9,2.01H.65L0,0V3.21H1.25L2.9,2.01Z" transform="translate(368.49 145.31)" fill="#263238"/>
      <path id="Path-173" data-name="Path" d="M0,0V.98L1.78,2.27,1.08.13,1.25,0Z" transform="translate(368.49 121.6)" fill="#263238"/>
      <path id="Path-174" data-name="Path" d="M3.64,2.14,2.94,0,2.25,2.14H0L1.82,3.46,1.12,5.6,2.94,4.28,4.77,5.6l-.7-2.14L5.89,2.14Z" transform="translate(379.04 158.56)" fill="#263238"/>
      <path id="Path-175" data-name="Path" d="M0,2.14l1.66,1.2H3V.14L2.95,0,2.26,2.14Z" transform="translate(392.41 172.09)" fill="#263238"/>
      <path id="Path-176" data-name="Path" d="M1.87,0H.53L.69.12,0,2.26,1.82.94l.05.03h0V0Z" transform="translate(393.54 148.52)" fill="#263238"/>
      <path id="Path-177" data-name="Path" d="M2.9,2H.65L0,0V3.2H1.25L2.9,2Z" transform="translate(368.49 172.23)" fill="#263238"/>
      <path id="Path-178" data-name="Path" d="M0,0V.97L1.78,2.26,1.08.12,1.25,0Z" transform="translate(368.49 148.52)" fill="#263238"/>
      <path id="Path-179" data-name="Path" d="M3.64,2.14,2.94,0,2.25,2.14H0L1.82,3.47l-.7,2.14L2.94,4.28,4.77,5.61l-.7-2.14L5.89,2.14Z" transform="translate(379.04 185.47)" fill="#263238"/>
      <path id="Path-180" data-name="Path" d="M3,3.34V.14L2.95,0,2.26,2.14H0l1.66,1.2Z" transform="translate(392.41 199.01)" fill="#263238"/>
      <path id="Path-181" data-name="Path" d="M1.87,0H.53L.69.13,0,2.27,1.82.95l.05.03h0V0Z" transform="translate(393.54 175.43)" fill="#263238"/>
      <path id="Path-182" data-name="Path" d="M2.9,2.01H.65L0,0V3.21H1.25L2.9,2.01Z" transform="translate(368.49 199.14)" fill="#263238"/>
      <path id="Path-183" data-name="Path" d="M0,0V.98L1.78,2.27,1.08.13,1.25,0Z" transform="translate(368.49 175.43)" fill="#263238"/>
      <path id="Path-184" data-name="Path" d="M3.64,2.14,2.94,0,2.25,2.14H0L1.82,3.46,1.12,5.6,2.94,4.28,4.77,5.6l-.7-2.14L5.89,2.14Z" transform="translate(379.04 212.39)" fill="#263238"/>
      <path id="Path-185" data-name="Path" d="M3,.14,2.95,0,2.26,2.14H0l1.66,1.2H3V.14Z" transform="translate(392.41 225.92)" fill="#263238"/>
      <path id="Path-186" data-name="Path" d="M1.87,0H.53L.69.12,0,2.26,1.82.94l.05.03h0V0Z" transform="translate(393.54 202.35)" fill="#263238"/>
      <path id="Path-187" data-name="Path" d="M1.25,3.2,2.9,2H.65L0,0V3.2Z" transform="translate(368.49 226.06)" fill="#263238"/>
      <path id="Path-188" data-name="Path" d="M0,0V.97L1.78,2.26,1.08.12,1.25,0Z" transform="translate(368.49 202.35)" fill="#263238"/>
      <path id="Path-189" data-name="Path" d="M3.64,2.14,2.94,0,2.25,2.14H0L1.82,3.47l-.7,2.14L2.94,4.29,4.77,5.61l-.7-2.14L5.89,2.14Z" transform="translate(379.04 239.3)" fill="#263238"/>
      <path id="Path-190" data-name="Path" d="M3,3.34V.14L2.95,0,2.26,2.14H0l1.66,1.2Z" transform="translate(392.41 252.84)" fill="#263238"/>
      <path id="Path-191" data-name="Path" d="M1.87,0H.53L.69.13,0,2.27,1.82.95l.05.03h0V0Z" transform="translate(393.54 229.26)" fill="#263238"/>
      <path id="Path-192" data-name="Path" d="M1.25,3.2,2.9,2H.65L0,0V3.2Z" transform="translate(368.49 252.98)" fill="#263238"/>
      <path id="Path-193" data-name="Path" d="M0,0V.98L1.78,2.27,1.08.13,1.25,0Z" transform="translate(368.49 229.26)" fill="#263238"/>
      <path id="Path-194" data-name="Path" d="M1.87,0H.53L.69.12,0,2.26,1.82.94l.05.03h0V0Z" transform="translate(393.54 256.18)" fill="#263238"/>
      <path id="Path-195" data-name="Path" d="M0,0V.97L1.78,2.26,1.08.12,1.25,0Z" transform="translate(368.49 256.18)" fill="#263238"/>
      <path id="Path-196" data-name="Path" d="M1.64.61V.39H0L.3.61Z" transform="translate(366.85 40.25)" fill="#263238"/>
      <path id="Path-197" data-name="Path" d="M1.25.61l.3-.22H0V.61Z" transform="translate(341.57 40.25)" fill="#263238"/>
      <path id="Path-198" data-name="Path" d="M3.64,2.14,2.95,0l-.7,2.14H0L1.82,3.46,1.13,5.6,2.95,4.28,4.77,5.6l-.7-2.14L5.9,2.14Z" transform="translate(352.12 50.9)" fill="#263238"/>
      <path id="Path-199" data-name="Path" d="M0,2.14l1.65,1.2H2.99V.14L2.94,0,2.25,2.14Z" transform="translate(365.5 64.43)" fill="#263238"/>
      <path id="Path-200" data-name="Path" d="M.53,0,.7.12,0,2.26,1.82.94l.05.03V0Z" transform="translate(366.62 40.86)" fill="#263238"/>
      <path id="Path-201" data-name="Path" d="M0,3.2H1.25L2.91,2H.66L0,0H0V3.2Z" transform="translate(341.57 64.57)" fill="#263238"/>
      <path id="Path-202" data-name="Path" d="M0,0V.97L1.78,2.26,1.09.12,1.25,0Z" transform="translate(341.57 40.86)" fill="#263238"/>
      <path id="Path-203" data-name="Path" d="M3.64,2.14,2.95,0l-.7,2.14H0L1.82,3.46,1.13,5.61,2.95,4.28,4.77,5.61l-.7-2.15L5.9,2.14Z" transform="translate(352.12 77.81)" fill="#263238"/>
      <path id="Path-204" data-name="Path" d="M0,2.14l1.65,1.2H2.99V.13L2.94,0,2.25,2.14Z" transform="translate(365.5 91.35)" fill="#263238"/>
      <path id="Path-205" data-name="Path" d="M.53,0,.7.12,0,2.27,1.82.94l.05.04V0Z" transform="translate(366.62 67.77)" fill="#263238"/>
      <path id="Path-206" data-name="Path" d="M0,3.21H1.25l1.66-1.2H.66L0,0H0V3.21Z" transform="translate(341.57 91.48)" fill="#263238"/>
      <path id="Path-207" data-name="Path" d="M0,0V.98L1.78,2.27,1.09.12,1.25,0Z" transform="translate(341.57 67.77)" fill="#263238"/>
      <path id="Path-208" data-name="Path" d="M3.64,2.14,2.95,0l-.7,2.14H0L1.82,3.46,1.13,5.6,2.95,4.28,4.77,5.6l-.7-2.14L5.9,2.14Z" transform="translate(352.12 104.73)" fill="#263238"/>
      <path id="Path-209" data-name="Path" d="M2.99,3.34V.14L2.94,0,2.25,2.14H0l1.65,1.2Z" transform="translate(365.5 118.26)" fill="#263238"/>
      <path id="Path-210" data-name="Path" d="M.53,0,.7.12,0,2.26,1.82.94l.05.03V0Z" transform="translate(366.62 94.69)" fill="#263238"/>
      <path id="Path-211" data-name="Path" d="M0,3.2H1.25L2.91,2H.66L0,0H0V3.2Z" transform="translate(341.57 118.4)" fill="#263238"/>
      <path id="Path-212" data-name="Path" d="M0,.97,1.78,2.26,1.09.12,1.25,0H0V.97Z" transform="translate(341.57 94.69)" fill="#263238"/>
      <path id="Path-213" data-name="Path" d="M3.64,2.14,2.95,0l-.7,2.14H0L1.82,3.47,1.13,5.61,2.95,4.28,4.77,5.61l-.7-2.14L5.9,2.14Z" transform="translate(352.12 131.64)" fill="#263238"/>
      <path id="Path-214" data-name="Path" d="M2.99,3.34V.13L2.94,0,2.25,2.14H0l1.65,1.2Z" transform="translate(365.5 145.18)" fill="#263238"/>
      <path id="Path-215" data-name="Path" d="M.7.13,0,2.27,1.82.94l.05.04V0H.53L.7.13Z" transform="translate(366.62 121.6)" fill="#263238"/>
      <path id="Path-216" data-name="Path" d="M0,3.21H1.25l1.66-1.2H.66L0,0H0V3.21Z" transform="translate(341.57 145.31)" fill="#263238"/>
      <path id="Path-217" data-name="Path" d="M0,.98,1.78,2.27,1.09.13,1.25,0H0V.98Z" transform="translate(341.57 121.6)" fill="#263238"/>
      <path id="Path-218" data-name="Path" d="M3.64,2.14,2.95,0l-.7,2.14H0L1.82,3.46,1.13,5.6,2.95,4.28,4.77,5.6l-.7-2.14L5.9,2.14Z" transform="translate(352.12 158.56)" fill="#263238"/>
      <path id="Path-219" data-name="Path" d="M2.99,3.34V.14L2.94,0,2.25,2.14H0l1.65,1.2Z" transform="translate(365.5 172.09)" fill="#263238"/>
      <path id="Path-220" data-name="Path" d="M.7.12,0,2.26,1.82.94l.05.03V0H.53L.7.12Z" transform="translate(366.62 148.52)" fill="#263238"/>
      <path id="Path-221" data-name="Path" d="M0,3.2H1.25L2.91,2H.66L0,0H0V3.2Z" transform="translate(341.57 172.23)" fill="#263238"/>
      <path id="Path-222" data-name="Path" d="M0,.97,1.78,2.26,1.09.12,1.25,0H0V.97Z" transform="translate(341.57 148.52)" fill="#263238"/>
      <path id="Path-223" data-name="Path" d="M3.64,2.14,2.95,0l-.7,2.14H0L1.82,3.47,1.13,5.61,2.95,4.28,4.77,5.61l-.7-2.14L5.9,2.14Z" transform="translate(352.12 185.47)" fill="#263238"/>
      <path id="Path-224" data-name="Path" d="M2.99,3.34V.14L2.94,0,2.25,2.14H0l1.65,1.2Z" transform="translate(365.5 199.01)" fill="#263238"/>
      <path id="Path-225" data-name="Path" d="M.7.13,0,2.27,1.82.95l.05.03V0H.53L.7.13Z" transform="translate(366.62 175.43)" fill="#263238"/>
      <path id="Path-226" data-name="Path" d="M0,3.21H1.25l1.66-1.2H.66L0,0V3.21Z" transform="translate(341.57 199.14)" fill="#263238"/>
      <path id="Path-227" data-name="Path" d="M0,.98,1.78,2.27,1.09.13,1.25,0H0V.98Z" transform="translate(341.57 175.43)" fill="#263238"/>
      <path id="Path-228" data-name="Path" d="M3.64,2.14,2.95,0l-.7,2.14H0L1.82,3.46,1.13,5.6,2.95,4.28,4.77,5.6l-.7-2.14L5.9,2.14Z" transform="translate(352.12 212.39)" fill="#263238"/>
      <path id="Path-229" data-name="Path" d="M2.99,3.34V.14L2.94,0,2.25,2.14H0l1.65,1.2Z" transform="translate(365.5 225.92)" fill="#263238"/>
      <path id="Path-230" data-name="Path" d="M1.87,0H.53L.7.12,0,2.26,1.82.94l.05.03V0Z" transform="translate(366.62 202.35)" fill="#263238"/>
      <path id="Path-231" data-name="Path" d="M0,3.2H1.25L2.91,2H.66L0,0H0V3.2Z" transform="translate(341.57 226.06)" fill="#263238"/>
      <path id="Path-232" data-name="Path" d="M0,0V.97L1.78,2.26,1.09.12,1.25,0Z" transform="translate(341.57 202.35)" fill="#263238"/>
      <path id="Path-233" data-name="Path" d="M3.64,2.14,2.95,0l-.7,2.14H0L1.82,3.47,1.13,5.61,2.95,4.29,4.77,5.61l-.7-2.14L5.9,2.14Z" transform="translate(352.12 239.3)" fill="#263238"/>
      <path id="Path-234" data-name="Path" d="M2.99,3.34V.14L2.94,0,2.25,2.14H0l1.65,1.2Z" transform="translate(365.5 252.84)" fill="#263238"/>
      <path id="Path-235" data-name="Path" d="M1.87,0H.53L.7.13,0,2.27,1.82.95l.05.03V0Z" transform="translate(366.62 229.26)" fill="#263238"/>
      <path id="Path-236" data-name="Path" d="M0,3.2H1.25L2.91,2H.66L0,0H0V3.2Z" transform="translate(341.57 252.98)" fill="#263238"/>
      <path id="Path-237" data-name="Path" d="M0,0V.98L1.78,2.27,1.09.13,1.25,0Z" transform="translate(341.57 229.26)" fill="#263238"/>
      <path id="Path-238" data-name="Path" d="M1.87,0H.53L.7.12,0,2.26,1.82.94l.05.03V0Z" transform="translate(366.62 256.18)" fill="#263238"/>
      <path id="Path-239" data-name="Path" d="M0,0V.97L1.78,2.26,1.09.12,1.25,0Z" transform="translate(341.57 256.18)" fill="#263238"/>
      <path id="Path-240" data-name="Path" d="M1.63.61V.39H0L.3.61Z" transform="translate(339.94 40.25)" fill="#263238"/>
      <path id="Path-241" data-name="Path" d="M1.25.61,1.54.39H0V.61Z" transform="translate(314.66 40.25)" fill="#263238"/>
      <path id="Path-242" data-name="Path" d="M3.64,2.14,2.94,0,2.25,2.14H0L1.82,3.46,1.12,5.6,2.94,4.28,4.77,5.6l-.7-2.14L5.89,2.14Z" transform="translate(325.21 50.9)" fill="#263238"/>
      <path id="Path-243" data-name="Path" d="M0,2.14l1.66,1.2H2.99V.14L2.95,0l-.7,2.14Z" transform="translate(338.58 64.43)" fill="#263238"/>
      <path id="Path-244" data-name="Path" d="M1.86,0H.53L.69.12,0,2.26,1.82.94l.04.03h0V0Z" transform="translate(339.71 40.86)" fill="#263238"/>
      <path id="Path-245" data-name="Path" d="M0,3.2H1.25L2.9,2H.65L0,0H0V3.2Z" transform="translate(314.66 64.57)" fill="#263238"/>
      <path id="Path-246" data-name="Path" d="M0,0V.97L1.78,2.26,1.08.12,1.25,0Z" transform="translate(314.66 40.86)" fill="#263238"/>
      <path id="Path-247" data-name="Path" d="M3.64,2.14,2.94,0,2.25,2.14H0L1.82,3.46l-.7,2.15L2.94,4.28,4.77,5.61l-.7-2.15L5.89,2.14Z" transform="translate(325.21 77.81)" fill="#263238"/>
      <path id="Path-248" data-name="Path" d="M0,2.14l1.66,1.2H2.99V.13L2.95,0l-.7,2.14Z" transform="translate(338.58 91.35)" fill="#263238"/>
      <path id="Path-249" data-name="Path" d="M1.86,0H.53L.69.12,0,2.27,1.82.94l.04.04h0V0Z" transform="translate(339.71 67.77)" fill="#263238"/>
      <path id="Path-250" data-name="Path" d="M0,3.21H1.25L2.9,2.01H.65L0,0H0V3.21Z" transform="translate(314.66 91.48)" fill="#263238"/>
      <path id="Path-251" data-name="Path" d="M0,0V.98L1.78,2.27,1.08.12,1.25,0Z" transform="translate(314.66 67.77)" fill="#263238"/>
      <path id="Path-252" data-name="Path" d="M3.64,2.14,2.94,0,2.25,2.14H0L1.82,3.46,1.12,5.6,2.94,4.28,4.77,5.6l-.7-2.14L5.89,2.14Z" transform="translate(325.21 104.73)" fill="#263238"/>
      <path id="Path-253" data-name="Path" d="M2.99,3.34V.14L2.95,0l-.7,2.14H0l1.66,1.2Z" transform="translate(338.58 118.26)" fill="#263238"/>
      <path id="Path-254" data-name="Path" d="M.69.12,0,2.26,1.82.94l.04.03h0V0H.53L.69.12Z" transform="translate(339.71 94.69)" fill="#263238"/>
      <path id="Path-255" data-name="Path" d="M0,3.2H1.25L2.9,2H.65L0,0H0V3.2Z" transform="translate(314.66 118.4)" fill="#263238"/>
      <path id="Path-256" data-name="Path" d="M0,.97,1.78,2.26,1.08.12,1.25,0H0V.97Z" transform="translate(314.66 94.69)" fill="#263238"/>
      <path id="Path-257" data-name="Path" d="M3.64,2.14,2.94,0,2.25,2.14H0L1.82,3.47l-.7,2.14L2.94,4.28,4.77,5.61l-.7-2.14L5.89,2.14Z" transform="translate(325.21 131.64)" fill="#263238"/>
      <path id="Path-258" data-name="Path" d="M2.99,3.34V.13L2.95,0l-.7,2.14H0l1.66,1.2Z" transform="translate(338.58 145.18)" fill="#263238"/>
      <path id="Path-259" data-name="Path" d="M.69.13,0,2.27,1.82.94l.04.04h0V0H.53L.69.13Z" transform="translate(339.71 121.6)" fill="#263238"/>
      <path id="Path-260" data-name="Path" d="M0,3.21H1.25L2.9,2.01H.65L0,0H0V3.21Z" transform="translate(314.66 145.31)" fill="#263238"/>
      <path id="Path-261" data-name="Path" d="M0,.98,1.78,2.27,1.08.13,1.25,0H0V.98Z" transform="translate(314.66 121.6)" fill="#263238"/>
      <path id="Path-262" data-name="Path" d="M3.64,2.14,2.94,0,2.25,2.14H0L1.82,3.46,1.12,5.6,2.94,4.28,4.77,5.6l-.7-2.14L5.89,2.14Z" transform="translate(325.21 158.56)" fill="#263238"/>
      <path id="Path-263" data-name="Path" d="M2.99,3.34V.14L2.95,0l-.7,2.14H0l1.66,1.2Z" transform="translate(338.58 172.09)" fill="#263238"/>
      <path id="Path-264" data-name="Path" d="M.69.12,0,2.26,1.82.94l.04.03h0V0H.53L.69.12Z" transform="translate(339.71 148.52)" fill="#263238"/>
      <path id="Path-265" data-name="Path" d="M0,3.2H1.25L2.9,2H.65L0,0H0V3.2Z" transform="translate(314.66 172.23)" fill="#263238"/>
      <path id="Path-266" data-name="Path" d="M0,.97,1.78,2.26,1.08.12,1.25,0H0V.97Z" transform="translate(314.66 148.52)" fill="#263238"/>
      <path id="Path-267" data-name="Path" d="M3.64,2.14,2.94,0,2.25,2.14H0L1.82,3.47l-.7,2.14L2.94,4.28,4.77,5.61l-.7-2.14L5.89,2.14Z" transform="translate(325.21 185.47)" fill="#263238"/>
      <path id="Path-268" data-name="Path" d="M2.99,3.34V.14L2.95,0l-.7,2.14H0l1.66,1.2Z" transform="translate(338.58 199.01)" fill="#263238"/>
      <path id="Path-269" data-name="Path" d="M.69.13,0,2.27,1.82.95l.04.03h0V0H.53L.69.13Z" transform="translate(339.71 175.43)" fill="#263238"/>
      <path id="Path-270" data-name="Path" d="M0,3.21H1.25L2.9,2.01H.65L0,0V3.21Z" transform="translate(314.66 199.14)" fill="#263238"/>
      <path id="Path-271" data-name="Path" d="M0,.98,1.78,2.27,1.08.13,1.25,0H0V.98Z" transform="translate(314.66 175.43)" fill="#263238"/>
      <path id="Path-272" data-name="Path" d="M3.64,2.14,2.94,0,2.25,2.14H0L1.82,3.46,1.12,5.6,2.94,4.28,4.77,5.6l-.7-2.14L5.89,2.14Z" transform="translate(325.21 212.39)" fill="#263238"/>
      <path id="Path-273" data-name="Path" d="M2.99,3.34V.14L2.95,0l-.7,2.14H0l1.66,1.2Z" transform="translate(338.58 225.92)" fill="#263238"/>
      <path id="Path-274" data-name="Path" d="M1.86,0H.53L.69.12,0,2.26,1.82.94l.04.03h0V0Z" transform="translate(339.71 202.35)" fill="#263238"/>
      <path id="Path-275" data-name="Path" d="M0,3.2H1.25L2.9,2H.65L0,0H0V3.2Z" transform="translate(314.66 226.06)" fill="#263238"/>
      <path id="Path-276" data-name="Path" d="M0,.97,1.78,2.26,1.08.12,1.25,0H0V.97Z" transform="translate(314.66 202.35)" fill="#263238"/>
      <path id="Path-277" data-name="Path" d="M3.64,2.14,2.94,0,2.25,2.14H0L1.82,3.47l-.7,2.14L2.94,4.29,4.77,5.61l-.7-2.14L5.89,2.14Z" transform="translate(325.21 239.3)" fill="#263238"/>
      <path id="Path-278" data-name="Path" d="M2.99,3.34V.14L2.95,0l-.7,2.14H0l1.66,1.2Z" transform="translate(338.58 252.84)" fill="#263238"/>
      <path id="Path-279" data-name="Path" d="M1.86,0H.53L.69.13,0,2.27,1.82.95l.04.03h0V0Z" transform="translate(339.71 229.26)" fill="#263238"/>
      <path id="Path-280" data-name="Path" d="M0,3.2H1.25L2.9,2H.65L0,0H0V3.2Z" transform="translate(314.66 252.98)" fill="#263238"/>
      <path id="Path-281" data-name="Path" d="M0,0V.98L1.78,2.27,1.08.13,1.25,0Z" transform="translate(314.66 229.26)" fill="#263238"/>
      <path id="Path-282" data-name="Path" d="M1.86,0H.53L.69.12,0,2.26,1.82.94l.04.03h0V0Z" transform="translate(339.71 256.18)" fill="#263238"/>
      <path id="Path-283" data-name="Path" d="M0,0V.97L1.78,2.26,1.08.12,1.25,0Z" transform="translate(314.66 256.18)" fill="#263238"/>
      <path id="Path-284" data-name="Path" d="M1.64.61V.39H0L.3.61Z" transform="translate(313.02 40.25)" fill="#263238"/>
      <path id="Path-285" data-name="Path" d="M1.25.61l.3-.22H0V.61Z" transform="translate(287.74 40.25)" fill="#263238"/>
      <path id="Path-286" data-name="Path" d="M3.64,2.14,2.95,0l-.7,2.14H0L1.82,3.46,1.13,5.6,2.95,4.28,4.77,5.6l-.7-2.14L5.9,2.14Z" transform="translate(298.29 50.9)" fill="#263238"/>
      <path id="Path-287" data-name="Path" d="M0,2.14l1.65,1.2H2.99V.14L2.94,0,2.25,2.14Z" transform="translate(311.67 64.43)" fill="#263238"/>
      <path id="Path-288" data-name="Path" d="M1.87,0H.53L.7.12,0,2.26,1.82.94l.05.03h0V0Z" transform="translate(312.79 40.86)" fill="#263238"/>
      <path id="Path-289" data-name="Path" d="M1.25,3.2,2.91,2H.65L0,0V3.2Z" transform="translate(287.74 64.57)" fill="#263238"/>
      <path id="Path-290" data-name="Path" d="M0,.97,1.78,2.26,1.08.12,1.25,0H0V.97Z" transform="translate(287.74 40.86)" fill="#263238"/>
      <path id="Path-291" data-name="Path" d="M1.13,5.61,2.95,4.28,4.77,5.61l-.7-2.15L5.9,2.14H3.64L2.95,0l-.7,2.14H0L1.82,3.46,1.13,5.61Z" transform="translate(298.29 77.81)" fill="#263238"/>
      <path id="Path-292" data-name="Path" d="M2.99,3.34V.13L2.94,0,2.25,2.14H0l1.65,1.2Z" transform="translate(311.67 91.35)" fill="#263238"/>
      <path id="Path-293" data-name="Path" d="M1.87,0H.53L.7.12,0,2.27,1.82.94l.05.04h0V0Z" transform="translate(312.79 67.77)" fill="#263238"/>
      <path id="Path-294" data-name="Path" d="M1.25,3.21l1.66-1.2H.65L0,0V3.21Z" transform="translate(287.74 91.48)" fill="#263238"/>
      <path id="Path-295" data-name="Path" d="M0,.98,1.78,2.27,1.08.12,1.25,0H0V.98Z" transform="translate(287.74 67.77)" fill="#263238"/>
      <path id="Path-296" data-name="Path" d="M1.13,5.6,2.95,4.28,4.77,5.6l-.7-2.14L5.9,2.14H3.64L2.95,0l-.7,2.14H0L1.82,3.46,1.13,5.6Z" transform="translate(298.29 104.73)" fill="#263238"/>
      <path id="Path-297" data-name="Path" d="M2.99,3.34V.14L2.94,0,2.25,2.14H0l1.65,1.2Z" transform="translate(311.67 118.26)" fill="#263238"/>
      <path id="Path-298" data-name="Path" d="M.7.12,0,2.26,1.82.94l.05.03h0V0H.53L.7.12Z" transform="translate(312.79 94.69)" fill="#263238"/>
      <path id="Path-299" data-name="Path" d="M1.25,3.2,2.91,2H.65L0,0V3.2Z" transform="translate(287.74 118.4)" fill="#263238"/>
      <path id="Path-300" data-name="Path" d="M0,.97,1.78,2.26,1.08.12,1.25,0H0V.97Z" transform="translate(287.74 94.69)" fill="#263238"/>
      <path id="Path-301" data-name="Path" d="M1.13,5.61,2.95,4.28,4.77,5.61l-.7-2.14L5.9,2.14H3.64L2.95,0l-.7,2.14H0L1.82,3.47,1.13,5.61Z" transform="translate(298.29 131.64)" fill="#263238"/>
      <path id="Path-302" data-name="Path" d="M2.99,3.34V.13L2.94,0,2.25,2.14H0l1.65,1.2Z" transform="translate(311.67 145.18)" fill="#263238"/>
      <path id="Path-303" data-name="Path" d="M.7.13,0,2.27,1.82.94l.05.04h0V0H.53L.7.13Z" transform="translate(312.79 121.6)" fill="#263238"/>
      <path id="Path-304" data-name="Path" d="M1.25,3.21l1.66-1.2H.65L0,0V3.21Z" transform="translate(287.74 145.31)" fill="#263238"/>
      <path id="Path-305" data-name="Path" d="M0,.98,1.78,2.27,1.08.13,1.25,0H0V.98Z" transform="translate(287.74 121.6)" fill="#263238"/>
      <path id="Path-306" data-name="Path" d="M1.13,5.6,2.95,4.28,4.77,5.6l-.7-2.14L5.9,2.14H3.64L2.95,0l-.7,2.14H0L1.82,3.46,1.13,5.6Z" transform="translate(298.29 158.56)" fill="#263238"/>
      <path id="Path-307" data-name="Path" d="M2.99,3.34V.14L2.94,0,2.25,2.14H0l1.65,1.2Z" transform="translate(311.67 172.09)" fill="#263238"/>
      <path id="Path-308" data-name="Path" d="M.7.12,0,2.26,1.82.94l.05.03h0V0H.53L.7.12Z" transform="translate(312.79 148.52)" fill="#263238"/>
      <path id="Path-309" data-name="Path" d="M1.25,3.2,2.91,2H.65L0,0V3.2Z" transform="translate(287.74 172.23)" fill="#263238"/>
      <path id="Path-310" data-name="Path" d="M0,.97,1.78,2.26,1.08.12,1.25,0H0V.97Z" transform="translate(287.74 148.52)" fill="#263238"/>
      <path id="Path-311" data-name="Path" d="M1.13,5.61,2.95,4.28,4.77,5.61l-.7-2.14L5.9,2.14H3.64L2.95,0l-.7,2.14H0L1.82,3.47,1.13,5.61Z" transform="translate(298.29 185.47)" fill="#263238"/>
      <path id="Path-312" data-name="Path" d="M2.99,3.34V.14L2.94,0,2.25,2.14H0l1.65,1.2Z" transform="translate(311.67 199.01)" fill="#263238"/>
      <path id="Path-313" data-name="Path" d="M.7.13,0,2.27,1.82.95l.05.03h0V0H.53L.7.13Z" transform="translate(312.79 175.43)" fill="#263238"/>
      <path id="Path-314" data-name="Path" d="M1.25,3.21l1.66-1.2H.65L0,0V3.21Z" transform="translate(287.74 199.14)" fill="#263238"/>
      <path id="Path-315" data-name="Path" d="M0,.98,1.78,2.27,1.08.13,1.25,0H0V.98Z" transform="translate(287.74 175.43)" fill="#263238"/>
      <path id="Path-316" data-name="Path" d="M1.13,5.6,2.95,4.28,4.77,5.6l-.7-2.14L5.9,2.14H3.64L2.95,0l-.7,2.14H0L1.82,3.46,1.13,5.6Z" transform="translate(298.29 212.39)" fill="#263238"/>
      <path id="Path-317" data-name="Path" d="M2.99,3.34V.14L2.94,0,2.25,2.14H0l1.65,1.2Z" transform="translate(311.67 225.92)" fill="#263238"/>
      <path id="Path-318" data-name="Path" d="M.7.12,0,2.26,1.82.94l.05.03h0V0H.53L.7.12Z" transform="translate(312.79 202.35)" fill="#263238"/>
      <path id="Path-319" data-name="Path" d="M1.25,3.2,2.91,2H.65L0,0V3.2Z" transform="translate(287.74 226.06)" fill="#263238"/>
      <path id="Path-320" data-name="Path" d="M0,.97,1.78,2.26,1.08.12,1.25,0H0V.97Z" transform="translate(287.74 202.35)" fill="#263238"/>
      <path id="Path-321" data-name="Path" d="M3.64,2.14,2.95,0l-.7,2.14H0L1.82,3.47,1.13,5.61,2.95,4.29,4.77,5.61l-.7-2.14L5.9,2.14Z" transform="translate(298.29 239.3)" fill="#263238"/>
      <path id="Path-322" data-name="Path" d="M2.99,3.34V.14L2.94,0,2.25,2.14H0l1.65,1.2Z" transform="translate(311.67 252.84)" fill="#263238"/>
      <path id="Path-323" data-name="Path" d="M1.87,0H.53L.7.13,0,2.27,1.82.95l.05.03h0V0Z" transform="translate(312.79 229.26)" fill="#263238"/>
      <path id="Path-324" data-name="Path" d="M1.25,3.2,2.91,2H.65L0,0V3.2Z" transform="translate(287.74 252.98)" fill="#263238"/>
      <path id="Path-325" data-name="Path" d="M0,0V.98L1.78,2.27,1.08.13,1.25,0Z" transform="translate(287.74 229.26)" fill="#263238"/>
      <path id="Path-326" data-name="Path" d="M1.87,0H.53L.7.12,0,2.26,1.82.94l.05.03h0V0Z" transform="translate(312.79 256.18)" fill="#263238"/>
      <path id="Path-327" data-name="Path" d="M0,0V.97L1.78,2.26,1.08.12,1.25,0Z" transform="translate(287.74 256.18)" fill="#263238"/>
      <path id="Path-328" data-name="Path" d="M1.63.61V.39H0L.29.61Z" transform="translate(286.11 40.25)" fill="#263238"/>
      <path id="Path-329" data-name="Path" d="M.33.39V.61H.38L.67.39Z" transform="translate(261.7 40.25)" fill="#263238"/>
      <path id="Path-330" data-name="Path" d="M1.12,5.6,2.94,4.28,4.76,5.6,4.07,3.46,5.89,2.14H3.64L2.94,0,2.25,2.14H0L1.82,3.46,1.12,5.6Z" transform="translate(271.38 50.9)" fill="#263238"/>
      <path id="Path-331" data-name="Path" d="M2.99,3.34V.14L2.95,0l-.7,2.14H0l1.65,1.2Z" transform="translate(284.75 64.43)" fill="#263238"/>
      <path id="Path-332" data-name="Path" d="M.52,0,.69.12,0,2.26,1.82.94l.04.03V0Z" transform="translate(285.88 40.86)" fill="#263238"/>
      <path id="Path-333" data-name="Path" d="M1.7,0H0V1.2H.05L1.7,0Z" transform="translate(262.03 66.57)" fill="#263238"/>
      <path id="Path-334" data-name="Path" d="M.475.52.525.48H.475V.52Z" transform="translate(261.555 40.38)" fill="#263238"/>
      <path id="Path-335" data-name="Path" d="M.79,1.78.21,0V1.36l.58.42Z" transform="translate(261.82 41.34)" fill="#263238"/>
      <path id="Path-336" data-name="Path" d="M1.12,5.61,2.94,4.28,4.76,5.61,4.07,3.46,5.89,2.14H3.64L2.94,0,2.25,2.14H0L1.82,3.46l-.7,2.15Z" transform="translate(271.38 77.81)" fill="#263238"/>
      <path id="Path-337" data-name="Path" d="M2.99,3.34V.13L2.95,0l-.7,2.14H0l1.65,1.2Z" transform="translate(284.75 91.35)" fill="#263238"/>
      <path id="Path-338" data-name="Path" d="M.69.12,0,2.27,1.82.94l.04.04V0H.52L.69.12Z" transform="translate(285.88 67.77)" fill="#263238"/>
      <path id="Path-339" data-name="Path" d="M1.7,0H0V1.2H.05L1.7,0Z" transform="translate(262.03 93.49)" fill="#263238"/>
      <path id="Path-340" data-name="Path" d="M.79,1.79.21,0V1.37l.58.42Z" transform="translate(261.82 68.25)" fill="#263238"/>
      <path id="Path-341" data-name="Path" d="M.475.52.525.48H.475V.52Z" transform="translate(261.555 67.29)" fill="#263238"/>
      <path id="Path-342" data-name="Path" d="M1.12,5.6,2.94,4.28,4.76,5.6,4.07,3.46,5.89,2.14H3.64L2.94,0,2.25,2.14H0L1.82,3.46,1.12,5.6Z" transform="translate(271.38 104.73)" fill="#263238"/>
      <path id="Path-343" data-name="Path" d="M2.99,3.34V.14L2.95,0l-.7,2.14H0l1.65,1.2Z" transform="translate(284.75 118.26)" fill="#263238"/>
      <path id="Path-344" data-name="Path" d="M.69.12,0,2.26,1.82.94l.04.03V0H.52L.69.12Z" transform="translate(285.88 94.69)" fill="#263238"/>
      <path id="Path-345" data-name="Path" d="M1.7,0H0V1.2H.05L1.7,0Z" transform="translate(262.03 120.4)" fill="#263238"/>
      <path id="Path-346" data-name="Path" d="M.475.52.525.48H.475V.52Z" transform="translate(261.555 94.21)" fill="#263238"/>
      <path id="Path-347" data-name="Path" d="M.79,1.78.21,0V1.36l.58.42Z" transform="translate(261.82 95.17)" fill="#263238"/>
      <path id="Path-348" data-name="Path" d="M1.12,5.61,2.94,4.28,4.76,5.61,4.07,3.47,5.89,2.14H3.64L2.94,0,2.25,2.14H0L1.82,3.47l-.7,2.14Z" transform="translate(271.38 131.64)" fill="#263238"/>
      <path id="Path-349" data-name="Path" d="M2.99,3.34V.13L2.95,0l-.7,2.14H0l1.65,1.2Z" transform="translate(284.75 145.18)" fill="#263238"/>
      <path id="Path-350" data-name="Path" d="M.69.13,0,2.27,1.82.94l.04.04V0H.52L.69.13Z" transform="translate(285.88 121.6)" fill="#263238"/>
      <path id="Path-351" data-name="Path" d="M1.7,0H0V1.2H.05L1.7,0Z" transform="translate(262.03 147.32)" fill="#263238"/>
      <path id="Path-352" data-name="Path" d="M.79,1.79.21,0V1.37l.58.42Z" transform="translate(261.82 122.08)" fill="#263238"/>
      <path id="Path-353" data-name="Path" d="M.475.52.525.48H.475V.52Z" transform="translate(261.555 121.12)" fill="#263238"/>
      <path id="Path-354" data-name="Path" d="M1.12,5.6,2.94,4.28,4.76,5.6,4.07,3.46,5.89,2.14H3.64L2.94,0,2.25,2.14H0L1.82,3.46,1.12,5.6Z" transform="translate(271.38 158.56)" fill="#263238"/>
      <path id="Path-355" data-name="Path" d="M2.99,3.34V.14L2.95,0l-.7,2.14H0l1.65,1.2Z" transform="translate(284.75 172.09)" fill="#263238"/>
      <path id="Path-356" data-name="Path" d="M.69.12,0,2.26,1.82.94l.04.03V0H.52L.69.12Z" transform="translate(285.88 148.52)" fill="#263238"/>
      <path id="Path-357" data-name="Path" d="M1.7,0H0V1.2H.05L1.7,0Z" transform="translate(262.03 174.23)" fill="#263238"/>
      <path id="Path-358" data-name="Path" d="M.79,1.78.21,0V1.36l.58.42Z" transform="translate(261.82 149)" fill="#263238"/>
      <path id="Path-359" data-name="Path" d="M.475.52.525.48H.475V.52Z" transform="translate(261.555 148.04)" fill="#263238"/>
      <path id="Path-360" data-name="Path" d="M1.12,5.61,2.94,4.28,4.76,5.61,4.07,3.47,5.89,2.14H3.64L2.94,0,2.25,2.14H0L1.82,3.47l-.7,2.14Z" transform="translate(271.38 185.47)" fill="#263238"/>
      <path id="Path-361" data-name="Path" d="M2.99,3.34V.14L2.95,0l-.7,2.14H0l1.65,1.2Z" transform="translate(284.75 199.01)" fill="#263238"/>
      <path id="Path-362" data-name="Path" d="M.69.13,0,2.27,1.82.95l.04.03V0H.52L.69.13Z" transform="translate(285.88 175.43)" fill="#263238"/>
      <path id="Path-363" data-name="Path" d="M1.7,0H0V1.2H.05L1.7,0Z" transform="translate(262.03 201.15)" fill="#263238"/>
      <path id="Path-364" data-name="Path" d="M.79,1.79.21,0V1.37l.58.42Z" transform="translate(261.82 175.91)" fill="#263238"/>
      <path id="Path-365" data-name="Path" d="M.475.52.525.48H.475V.52Z" transform="translate(261.555 174.95)" fill="#263238"/>
      <path id="Path-366" data-name="Path" d="M1.12,5.6,2.94,4.28,4.76,5.6,4.07,3.46,5.89,2.14H3.64L2.94,0,2.25,2.14H0L1.82,3.46,1.12,5.6Z" transform="translate(271.38 212.39)" fill="#263238"/>
      <path id="Path-367" data-name="Path" d="M2.99,3.34V.14L2.95,0l-.7,2.14H0l1.65,1.2Z" transform="translate(284.75 225.92)" fill="#263238"/>
      <path id="Path-368" data-name="Path" d="M.69.12,0,2.26,1.82.94l.04.03V0H.52L.69.12Z" transform="translate(285.88 202.35)" fill="#263238"/>
      <path id="Path-369" data-name="Path" d="M1.7,0H0V1.2H.05L1.7,0Z" transform="translate(262.03 228.06)" fill="#263238"/>
      <path id="Path-370" data-name="Path" d="M.475.52.525.48H.475V.52Z" transform="translate(261.555 201.87)" fill="#263238"/>
      <path id="Path-371" data-name="Path" d="M.79,1.78.21,0V1.36l.58.42Z" transform="translate(261.82 202.83)" fill="#263238"/>
      <path id="Path-372" data-name="Path" d="M1.12,5.61,2.94,4.29,4.76,5.61,4.07,3.47,5.89,2.14H3.64L2.94,0,2.25,2.14H0L1.82,3.47l-.7,2.14Z" transform="translate(271.38 239.3)" fill="#263238"/>
      <path id="Path-373" data-name="Path" d="M2.99,3.34V.14L2.95,0l-.7,2.14H0l1.65,1.2Z" transform="translate(284.75 252.84)" fill="#263238"/>
      <path id="Path-374" data-name="Path" d="M.69.13,0,2.27,1.82.95l.04.03V0H.52L.69.13Z" transform="translate(285.88 229.26)" fill="#263238"/>
      <path id="Path-375" data-name="Path" d="M1.7,0H0V1.2H.05L1.7,0Z" transform="translate(262.03 254.98)" fill="#263238"/>
      <path id="Path-376" data-name="Path" d="M.79,1.78.21,0V1.36l.58.42Z" transform="translate(261.82 229.75)" fill="#263238"/>
      <path id="Path-377" data-name="Path" d="M.475.52.525.48H.475V.52Z" transform="translate(261.555 228.78)" fill="#263238"/>
      <path id="Path-378" data-name="Path" d="M1.86,0H.52L.69.12,0,2.26,1.82.94l.04.03V0Z" transform="translate(285.88 256.18)" fill="#263238"/>
      <path id="Path-379" data-name="Path" d="M.21,0V1.36l.58.42L.21,0Z" transform="translate(261.82 256.66)" fill="#263238"/>
      <path id="Path-380" data-name="Path" d="M.475.48V.52L.525.48Z" transform="translate(261.555 255.7)" fill="#263238"/>
      <rect id="Rectangle-2" data-name="Rectangle" width="61.81" height="221.6" transform="translate(379.61 40.64)" fill="none" stroke="#263238" stroke-linecap="round" stroke-linejoin="round" stroke-miterlimit="10" stroke-width="1"/>
      <path id="Path-381" data-name="Path" d="M35.084,19.633S16.994,9.843,9.454,2.3s-8.29,5.27-8.29,12.06-3.77,12.06,2.26,12.81,31.66-2.26,31.66-2.26Z" transform="translate(315.916 0.907)" fill="#fb7d00" stroke="#263238" stroke-linecap="round" stroke-linejoin="round" stroke-miterlimit="10" stroke-width="1"/>
      <path id="Path-382" data-name="Path" d="M0,19.633S18.09,9.843,25.63,2.3s8.29,5.27,8.29,12.06,3.77,12.06-2.26,12.81S0,24.913,0,24.913Z" transform="translate(357.2 0.907)" fill="#fb7d00" stroke="#263238" stroke-linecap="round" stroke-linejoin="round" stroke-miterlimit="10" stroke-width="1"/>
      <rect id="Rectangle-3" data-name="Rectangle" width="7.13" height="7.13" transform="translate(350.47 19.23)" fill="#fb7d00" stroke="#263238" stroke-linecap="round" stroke-linejoin="round" stroke-miterlimit="10" stroke-width="1"/>
      <rect id="Rectangle-4" data-name="Rectangle" width="189.94" height="18.84" transform="translate(256.75 25.57)" fill="#263238" stroke="#263238" stroke-linecap="round" stroke-linejoin="round" stroke-miterlimit="10" stroke-width="1"/>
      <rect id="Rectangle-5" data-name="Rectangle" width="23" height="236.65" transform="translate(297.67 25.46)" fill="#fb7d00" stroke="#263238" stroke-linecap="round" stroke-linejoin="round" stroke-miterlimit="10" stroke-width="1"/>
      <rect id="Rectangle-6" data-name="Rectangle" width="37.64" height="22.11" transform="translate(326.868 99.041) rotate(-12.19)" fill="#fb7d00" stroke="#263238" stroke-linecap="round" stroke-linejoin="round" stroke-miterlimit="10" stroke-width="1"/>
      <rect id="Rectangle-7" data-name="Rectangle" width="23" height="236.65" transform="translate(426.18 262.12) rotate(180)" fill="#fb7d00" stroke="#263238" stroke-linecap="round" stroke-linejoin="round" stroke-miterlimit="10" stroke-width="1"/>
      <path id="Path-383" data-name="Path" d="M9,0A35.16,35.16,0,0,0,3.25,6.49c-3,4.25-1.75,11.75-1.75,16.5S0,43.49,0,43.49l9.25-10.5s8.5,12.25,8.5,11.25V13.54a17.66,17.66,0,0,1,2.75-10C22,1.29,25.75.04,25.75.04Z" transform="translate(311.67 25.46)" fill="#fb7d00" stroke="#263238" stroke-linecap="round" stroke-linejoin="round" stroke-miterlimit="10" stroke-width="1"/>
      <path id="Path-384" data-name="Path" d="M9,0A35.16,35.16,0,0,0,3.25,6.49c-3,4.25-1.75,11.75-1.75,16.5S0,43.49,0,43.49l9.25-10.5s8.5,12.25,8.5,11.25V13.54a17.66,17.66,0,0,1,2.75-10C22,1.29,25.75.04,25.75.04Z" transform="translate(332.34 25.46)" fill="#fb7d00" stroke="#263238" stroke-linecap="round" stroke-linejoin="round" stroke-miterlimit="10" stroke-width="1"/>
      <rect id="Rectangle-8" data-name="Rectangle" width="82.65" height="42.13" transform="translate(0.32 220.12)" fill="#fff" stroke="#263238" stroke-linecap="round" stroke-linejoin="round" stroke-miterlimit="10" stroke-width="1"/>
      <rect id="Rectangle-9" data-name="Rectangle" width="9.75" height="42.13" transform="translate(21.87 220.12)" fill="#ffb76f" stroke="#263238" stroke-linecap="round" stroke-linejoin="round" stroke-miterlimit="10" stroke-width="1"/>
      <rect id="Rectangle-10" data-name="Rectangle" width="28.48" height="42.13" transform="translate(54.5 220.12)" fill="#fff" stroke="#263238" stroke-linecap="round" stroke-linejoin="round" stroke-miterlimit="10" stroke-width="1"/>
      <rect id="Rectangle-11" data-name="Rectangle" width="9.75" height="42.13" transform="translate(62.33 220.12)" fill="#fff" stroke="#263238" stroke-linecap="round" stroke-linejoin="round" stroke-miterlimit="10" stroke-width="1"/>
      <rect id="Rectangle-12" data-name="Rectangle" width="82.65" height="42.13" transform="translate(59.05 220.12)" fill="#fff"/>
      <path id="Path-385" data-name="Path" d="M31.06,0,0,23.11H5.03L31.06,3.74Z" transform="translate(110.63 239.13)" fill="#ffb76f"/>
      <path id="Path-386" data-name="Path" d="M0,11.45,15.39,0H10.37L0,7.71Z" transform="translate(59.05 220.12)" fill="#ffb76f"/>
      <path id="Path-387" data-name="Path" d="M29.93,0,0,22.27v3.74L34.96,0Z" transform="translate(59.05 220.12)" fill="#ffb76f"/>
      <path id="Path-388" data-name="Path" d="M49.5,0,0,36.83v3.74L54.52,0Z" transform="translate(59.05 220.12)" fill="#ffb76f"/>
      <path id="Path-389" data-name="Path" d="M5.02,37.67,50.62,3.74V0L0,37.67Z" transform="translate(91.07 224.57)" fill="#ffb76f"/>
      <path id="Path-390" data-name="Path" d="M5.03,42.12,61.63,0H56.61L0,42.12Z" transform="translate(71.5 220.12)" fill="#ffb76f"/>
      <path id="Path-391" data-name="Path" d="M11.5,3.74V0L0,8.55H5.03L11.5,3.74Z" transform="translate(130.19 253.69)" fill="#ffb76f"/>
      <rect id="Rectangle-13" data-name="Rectangle" width="9.75" height="42.13" transform="translate(80.59 220.12)" fill="#263238" stroke="#263238" stroke-linecap="round" stroke-linejoin="round" stroke-miterlimit="10" stroke-width="1"/>
      <rect id="Rectangle-14" data-name="Rectangle" width="28.48" height="42.13" transform="translate(113.22 220.12)" fill="none" stroke="#263238" stroke-linecap="round" stroke-linejoin="round" stroke-miterlimit="10" stroke-width="1"/>
      <rect id="Rectangle-15" data-name="Rectangle" width="9.75" height="42.13" transform="translate(121.05 220.12)" fill="#263238" stroke="#263238" stroke-linecap="round" stroke-linejoin="round" stroke-miterlimit="10" stroke-width="1"/>
      <rect id="Rectangle-16" data-name="Rectangle" width="82.65" height="42.13" transform="translate(59.05 220.12)" fill="none" stroke="#263238" stroke-linecap="round" stroke-linejoin="round" stroke-miterlimit="10" stroke-width="1"/>
      <rect id="Rectangle-17" data-name="Rectangle" width="82.65" height="13.43" transform="translate(115.06 248.81)" fill="#ffb76f" stroke="#263238" stroke-linecap="round" stroke-linejoin="round" stroke-miterlimit="10" stroke-width="1"/>
      <rect id="Rectangle-18" data-name="Rectangle" width="9.75" height="13.43" transform="translate(136.6 248.81)" fill="#fff" stroke="#263238" stroke-linecap="round" stroke-linejoin="round" stroke-miterlimit="10" stroke-width="1"/>
      <rect id="Rectangle-19" data-name="Rectangle" width="28.48" height="13.43" transform="translate(169.23 248.81)" fill="#ffb76f" stroke="#263238" stroke-linecap="round" stroke-linejoin="round" stroke-miterlimit="10" stroke-width="1"/>
      <rect id="Rectangle-20" data-name="Rectangle" width="9.75" height="13.43" transform="translate(177.07 248.81)" fill="#fff" stroke="#263238" stroke-linecap="round" stroke-linejoin="round" stroke-miterlimit="10" stroke-width="1"/>
      <path id="Path-392" data-name="Path" d="M17.1,12.908s-5.76-15-15-12.66S17.1,12.908,17.1,12.908Z" transform="translate(131.41 223.812)" fill="none" stroke="#fff" stroke-linecap="round" stroke-linejoin="round" stroke-miterlimit="10" stroke-width="1"/>
      <path id="Path-393" data-name="Path" d="M0,14.5S6.91-5.07,16.69,1.26,0,14.5,0,14.5Z" transform="translate(148.51 222.22)" fill="none" stroke="#fff" stroke-linecap="round" stroke-linejoin="round" stroke-miterlimit="10" stroke-width="1"/>
      <rect id="Rectangle-21" data-name="Rectangle" width="82.65" height="13.43" transform="translate(111.68 235.57)" fill="#ffb76f" stroke="#263238" stroke-linecap="round" stroke-linejoin="round" stroke-miterlimit="10" stroke-width="1"/>
      <rect id="Rectangle-22" data-name="Rectangle" width="9.75" height="13.43" transform="translate(133.22 235.57)" fill="#fff" stroke="#263238" stroke-linecap="round" stroke-linejoin="round" stroke-miterlimit="10" stroke-width="1"/>
      <rect id="Rectangle-23" data-name="Rectangle" width="28.48" height="13.43" transform="translate(165.85 235.57)" fill="#ffb76f" stroke="#263238" stroke-linecap="round" stroke-linejoin="round" stroke-miterlimit="10" stroke-width="1"/>
      <rect id="Rectangle-24" data-name="Rectangle" width="9.75" height="13.43" transform="translate(173.69 235.57)" fill="#fff" stroke="#263238" stroke-linecap="round" stroke-linejoin="round" stroke-miterlimit="10" stroke-width="1"/>
      <rect id="Rectangle-25" data-name="Rectangle" width="12.3" height="8.13" transform="translate(25.87 182.19)" fill="#ffb76f" stroke="#263238" stroke-linecap="round" stroke-linejoin="round" stroke-miterlimit="10" stroke-width="1"/>
      <path id="Path-394" data-name="Path" d="M10.69,4.93,3.91,0,0,5.3,3.39,7.77l7.3-2.84Z" transform="translate(20.53 186.87)" fill="#fff" stroke="#263238" stroke-linecap="round" stroke-linejoin="round" stroke-miterlimit="10" stroke-width="1"/>
      <path id="Path-395" data-name="Path" d="M6.78,0,0,4.93,7.3,7.77l3.39-2.46L6.78,0Z" transform="translate(33.23 186.51)" fill="#fff" stroke="#263238" stroke-linecap="round" stroke-linejoin="round" stroke-miterlimit="10" stroke-width="1"/>
      <path id="Path-396" data-name="Path" d="M9.59,0H0L2.4,5.77H7.2L9.59,0Z" transform="translate(27.34 189.14)" fill="#fff" stroke="#263238" stroke-linecap="round" stroke-linejoin="round" stroke-miterlimit="10" stroke-width="1"/>
      <path id="Path-397" data-name="Path" d="M3.91,7.77,0,2.46,3.39,0l7.3,2.84Z" transform="translate(20.53 177.56)" fill="#ffb76f" stroke="#263238" stroke-linecap="round" stroke-linejoin="round" stroke-miterlimit="10" stroke-width="1"/>
      <path id="Path-398" data-name="Path" d="M6.77,7.77,0,2.84,7.29,0l3.39,2.47L6.77,7.77Z" transform="translate(33.58 178.11)" fill="#ffb76f" stroke="#263238" stroke-linecap="round" stroke-linejoin="round" stroke-miterlimit="10" stroke-width="1"/>
      <path id="Path-399" data-name="Path" d="M9.59,5.77H0L2.4,0H7.2L9.59,5.77Z" transform="translate(27.34 177.2)" fill="#ffb76f" stroke="#263238" stroke-linecap="round" stroke-linejoin="round" stroke-miterlimit="10" stroke-width="1"/>
      <path id="Path-400" data-name="Path" d="M7.92,0V6.97L0,5.23V1.74L7.92,0Z" transform="translate(19.63 182.57)" fill="#ffb76f" stroke="#263238" stroke-linecap="round" stroke-linejoin="round" stroke-miterlimit="10" stroke-width="1"/>
      <path id="Path-401" data-name="Path" d="M0,0V6.97L7.92,5.23V1.74L0,0Z" transform="translate(36.5 182.57)" fill="#ffb76f" stroke="#263238" stroke-linecap="round" stroke-linejoin="round" stroke-miterlimit="10" stroke-width="1"/>
      <rect id="Rectangle-26" data-name="Rectangle" width="62.99" height="32.11" transform="translate(1.54 187.56)" fill="#263238" stroke="#263238" stroke-linecap="round" stroke-linejoin="round" stroke-miterlimit="10" stroke-width="1"/>
      <rect id="Rectangle-27" data-name="Rectangle" width="7.43" height="32.11" transform="translate(17.96 187.56)" fill="#ffb76f" stroke="#263238" stroke-linecap="round" stroke-linejoin="round" stroke-miterlimit="10" stroke-width="1"/>
      <rect id="Rectangle-28" data-name="Rectangle" width="21.7" height="32.11" transform="translate(42.83 187.56)" fill="#263238" stroke="#263238" stroke-linecap="round" stroke-linejoin="round" stroke-miterlimit="10" stroke-width="1"/>
      <rect id="Rectangle-29" data-name="Rectangle" width="7.43" height="32.11" transform="translate(48.8 187.56)" fill="#ffb76f" stroke="#263238" stroke-linecap="round" stroke-linejoin="round" stroke-miterlimit="10" stroke-width="1"/>
      <rect id="Rectangle-30" data-name="Rectangle" width="17.56" height="11.6" transform="translate(306.36 208.77)" fill="#fff" stroke="#263238" stroke-linecap="round" stroke-linejoin="round" stroke-miterlimit="10" stroke-width="1"/>
      <path id="Path-402" data-name="Path" d="M15.25,7.04,5.57,0,0,7.57,4.83,11.1,15.25,7.04Z" transform="translate(298.75 215.44)" fill="#fff" stroke="#263238" stroke-linecap="round" stroke-linejoin="round" stroke-miterlimit="10" stroke-width="1"/>
      <path id="Path-403" data-name="Path" d="M9.68,0,0,7.04,10.41,11.1l4.84-3.52L9.68,0Z" transform="translate(316.87 214.93)" fill="#fff" stroke="#263238" stroke-linecap="round" stroke-linejoin="round" stroke-miterlimit="10" stroke-width="1"/>
      <path id="Path-404" data-name="Path" d="M13.68,0H0L3.42,8.23h6.84L13.68,0Z" transform="translate(308.47 218.69)" fill="#fff" stroke="#263238" stroke-linecap="round" stroke-linejoin="round" stroke-miterlimit="10" stroke-width="1"/>
      <path id="Path-405" data-name="Path" d="M15.25,4.05,5.57,11.09,0,3.52,4.83,0,15.25,4.05Z" transform="translate(298.75 202.16)" fill="#fff" stroke="#263238" stroke-linecap="round" stroke-linejoin="round" stroke-miterlimit="10" stroke-width="1"/>
      <path id="Path-406" data-name="Path" d="M9.68,11.09,0,4.05,10.41,0l4.84,3.52L9.68,11.09Z" transform="translate(317.36 202.95)" fill="#fff" stroke="#263238" stroke-linecap="round" stroke-linejoin="round" stroke-miterlimit="10" stroke-width="1"/>
      <path id="Path-407" data-name="Path" d="M13.68,8.22H0L3.42,0h6.84l3.42,8.22Z" transform="translate(308.47 201.66)" fill="#fff" stroke="#263238" stroke-linecap="round" stroke-linejoin="round" stroke-miterlimit="10" stroke-width="1"/>
      <path id="Path-408" data-name="Path" d="M11.3,0V9.95L0,7.46V2.49L11.3,0Z" transform="translate(297.46 209.31)" fill="#fff" stroke="#263238" stroke-linecap="round" stroke-linejoin="round" stroke-miterlimit="10" stroke-width="1"/>
      <path id="Path-409" data-name="Path" d="M0,0V9.95L11.3,7.46V2.49L0,0Z" transform="translate(321.54 209.31)" fill="#fff" stroke="#263238" stroke-linecap="round" stroke-linejoin="round" stroke-miterlimit="10" stroke-width="1"/>
      <rect id="Rectangle-31" data-name="Rectangle" width="89.88" height="45.82" transform="translate(271.65 216.43)" fill="#ffb76f" stroke="#263238" stroke-linecap="round" stroke-linejoin="round" stroke-miterlimit="10" stroke-width="1"/>
      <rect id="Rectangle-32" data-name="Rectangle" width="10.6" height="45.82" transform="translate(295.08 216.43)" fill="#fff" stroke="#263238" stroke-linecap="round" stroke-linejoin="round" stroke-miterlimit="10" stroke-width="1"/>
      <rect id="Rectangle-33" data-name="Rectangle" width="30.97" height="45.82" transform="translate(330.57 216.43)" fill="#ffb76f" stroke="#263238" stroke-linecap="round" stroke-linejoin="round" stroke-miterlimit="10" stroke-width="1"/>
      <rect id="Rectangle-34" data-name="Rectangle" width="10.6" height="45.82" transform="translate(339.09 216.43)" fill="#fff" stroke="#263238" stroke-linecap="round" stroke-linejoin="round" stroke-miterlimit="10" stroke-width="1"/>
      <path id="Path-410" data-name="Path" d="M27.392,20.534s-9-21.5-18.5-20.5-12,13-4.5,16.5S27.392,20.534,27.392,20.534Z" transform="translate(389.918 173.916)" fill="none" stroke="#263238" stroke-linecap="round" stroke-linejoin="round" stroke-miterlimit="10" stroke-width="3"/>
      <path id="Path-411" data-name="Path" d="M0,20.075s5.5-21.5,16.5-20,7.36,18.5,1.86,19.5S0,20.075,0,20.075Z" transform="translate(417.31 174.375)" fill="none" stroke="#263238" stroke-linecap="round" stroke-linejoin="round" stroke-miterlimit="10" stroke-width="3"/>
      <rect id="Rectangle-35" data-name="Rectangle" width="82.65" height="68.3" transform="translate(373.67 193.95)" fill="#fff"/>
      <path id="Path-412" data-name="Path" d="M19.54,22.37A279.421,279.421,0,0,0,42.38,4.11V0c-7.8,7.48-16.75,14.12-24.63,20C9.67,26,3.16,30.83,0,35H3.95C7.39,31.39,13.35,26.97,19.54,22.37Z" transform="translate(413.93 227.29)" fill="#ffb76f"/>
      <path id="Path-413" data-name="Path" d="M22.26,18.12C12.94,25.92,5.26,32.5,0,37.95v4.44c5.8-6.58,16-15.11,24.19-22,8.9-7.44,17.3-14.48,20.66-19A9.1,9.1,0,0,0,45.74,0h-9c-3.33,1.87-8,4.69-14.58,8.75-7.15,4.4-15.3,9.4-22.12,13.12v3.4c7.09-3.76,15.7-9.05,23.69-14C30.31,7.22,37.56,2.76,41.5.79,37.79,5.13,30.23,11.46,22.26,18.12Z" transform="translate(373.67 193.95)" fill="#ffb76f"/>
      <path id="Path-414" data-name="Path" d="M25.73,0c-3.82,3.35-8,7.53-12.43,11.94C9.04,16.18,4.36,20.85,0,24.63H4.53c3.49-3.19,7.16-6.85,10.88-10.56,3.3-3.29,6.9-6.87,10.32-10Z" transform="translate(430.58 237.61)" fill="#ffb76f"/>
      <path id="Path-415" data-name="Path" d="M0,12.92C4.07,8.92,8.84,4.5,13.87,0H9.43C7.32,1.9,5.12,3.92,2.94,6L0,8.79Z" transform="translate(373.67 193.95)" fill="#ffb76f"/>
      <path id="Path-416" data-name="Path" d="M72.78,3.71V0c-5.3,3.84-12,8.9-20.29,15.3C35.24,28.54,13.16,45.47,0,51.57H6.53c11.84-6.6,28.21-18.87,47.78-33.89C60.3,13.08,66.89,8.03,72.78,3.71Z" transform="translate(383.53 210.67)" fill="#ffb76f"/>
      <path id="Path-417" data-name="Path" d="M59.83,0h-5c-6,4.63-14.72,12.28-27.41,23.71C18.32,31.92,6.76,42.34,0,47.29v3.59c5.55-3.61,14.7-11.66,29.43-24.94C39.56,16.78,52.43,5.18,59.83,0Z" transform="translate(373.65 194)" fill="#ffb76f"/>
      <path id="Path-418" data-name="Path" d="M65.79,3.65A31.46,31.46,0,0,0,67.33,0h-3.2c-.26.66-.6,1.45-1.05,2.41C55.16,19,34.39,34.55,17.71,47,9.66,53,3.71,57.54,0,61.21v4.4c3.26-4.07,11.48-10.21,19.5-16.2C36.45,36.75,57.55,21,65.79,3.65Z" transform="translate(373.67 194)" fill="#ffb76f"/>
      <rect id="Rectangle-36" data-name="Rectangle" width="82.65" height="68.3" transform="translate(373.67 193.95)" fill="none" stroke="#263238" stroke-linecap="round" stroke-linejoin="round" stroke-miterlimit="10" stroke-width="1"/>
      <rect id="Rectangle-37" data-name="Rectangle" width="9.75" height="68.3" transform="translate(395.21 193.95)" fill="#263238" stroke="#263238" stroke-linecap="round" stroke-linejoin="round" stroke-miterlimit="10" stroke-width="1"/>
      <rect id="Rectangle-38" data-name="Rectangle" width="28.48" height="68.3" transform="translate(427.84 193.95)" fill="none" stroke="#263238" stroke-linecap="round" stroke-linejoin="round" stroke-miterlimit="10" stroke-width="1"/>
      <rect id="Rectangle-39" data-name="Rectangle" width="9.75" height="68.3" transform="translate(435.67 193.95)" fill="#263238" stroke="#263238" stroke-linecap="round" stroke-linejoin="round" stroke-miterlimit="10" stroke-width="1"/>
      <path id="Path-419" data-name="Path" d="M0,43.037v-30c0-10,4-13,4-13s3.23-.77,5,4.7,0,26.91,0,26.91" transform="translate(413.34 194.413)" fill="none" stroke="#263238" stroke-linecap="round" stroke-linejoin="round" stroke-miterlimit="10" stroke-width="3"/>
    </g>
  </g>
</svg>
