<svg xmlns="http://www.w3.org/2000/svg" width="484.103" height="385" viewBox="0 0 484.103 385">
  <g id="Address-bro" transform="translate(0 0)">
    <g id="freepik--background-simple--inject-1--inject-46" transform="translate(53)">
      <path id="Path" d="M403.347,216.052c-6.24-4.82-12.61-9.49-16.36-16.46-19-35.27,20.55-76.53-1.4-114.75-11.14-19.39-33.11-33.58-54.55-25.52-22.85,8.6-44.42,17.58-69,10.47-43-12.46-65.33-70.76-112.17-69.78-38.45.8-81.24,41.3-59,83.33,16.85,31.8,6.32,58.12-32.65,63.6s-55.73,51.51-44.18,71.28,33.69,40.57,12.63,49.34-28.43,37.28-26.32,57,6.31,27.41,6.31,27.41h404.22s17.05-21.93,19.15-72.36c.92-21.86-3.61-43.27-20.13-58.22C407.807,219.532,405.587,217.782,403.347,216.052Z" transform="translate(0.963 0.548)" fill="#f9fbff"/>
    </g>
    <g id="freepik--Shadow--inject-1--inject-46" transform="translate(190 369)">
      <ellipse id="Oval" cx="76.5" cy="8" rx="76.5" ry="8" transform="translate(0.06)" fill="#dee8fb"/>
    </g>
    <g id="freepik--Buildings--inject-1--inject-46" transform="translate(85 178)">
      <path id="Path-2" data-name="Path" d="M353.98,132.12V119.91H340.36V96.22H320.79V0H302.07V58.16H285.05V37.34H262.08V91.19h-9.36v17.23H230.6v-6.46h6.8V98.37H209.32v4.31h3.41v18.67H198.26V86.16H147.21v25.13h-36.6V92.62H97v20.83H68.07V75.39H56.16V62.47H34.88v58.88H13.61v12.92H0v39.49H380.36V132.12Z" transform="translate(0.45 0.78)" fill="none" stroke="#2e353a" stroke-miterlimit="10" stroke-width="1"/>
      <rect id="Rectangle" width="4.6" height="4.6" transform="translate(39.1 76)" fill="#2e353a"/>
      <rect id="Rectangle-2" data-name="Rectangle" width="4.6" height="4.6" transform="translate(48.68 76)" fill="#2e353a"/>
      <rect id="Rectangle-3" data-name="Rectangle" width="4.6" height="4.6" transform="translate(39.1 85.59)" fill="#2e353a"/>
      <rect id="Rectangle-4" data-name="Rectangle" width="4.6" height="4.6" transform="translate(48.68 85.59)" fill="#2e353a"/>
      <rect id="Rectangle-5" data-name="Rectangle" width="4.6" height="4.6" transform="translate(59.03 85.59)" fill="#2e353a"/>
      <rect id="Rectangle-6" data-name="Rectangle" width="4.6" height="4.6" transform="translate(59.03 95.17)" fill="#2e353a"/>
      <rect id="Rectangle-7" data-name="Rectangle" width="4.6" height="4.6" transform="translate(59.03 104.76)" fill="#2e353a"/>
      <rect id="Rectangle-8" data-name="Rectangle" width="4.6" height="4.6" transform="translate(59.03 114.34)" fill="#2e353a"/>
      <rect id="Rectangle-9" data-name="Rectangle" width="4.6" height="4.6" transform="translate(59.03 123.93)" fill="#2e353a"/>
      <rect id="Rectangle-10" data-name="Rectangle" width="4.6" height="4.6" transform="translate(59.03 133.52)" fill="#2e353a"/>
      <rect id="Rectangle-11" data-name="Rectangle" width="4.6" height="4.6" transform="translate(39.1 95.17)" fill="#2e353a"/>
      <rect id="Rectangle-12" data-name="Rectangle" width="4.6" height="4.6" transform="translate(48.68 95.17)" fill="#2e353a"/>
      <rect id="Rectangle-13" data-name="Rectangle" width="4.6" height="4.6" transform="translate(39.1 104.76)" fill="#2e353a"/>
      <rect id="Rectangle-14" data-name="Rectangle" width="4.6" height="4.6" transform="translate(48.68 104.76)" fill="#2e353a"/>
      <rect id="Rectangle-15" data-name="Rectangle" width="4.6" height="4.6" transform="translate(39.1 114.34)" fill="#2e353a"/>
      <rect id="Rectangle-16" data-name="Rectangle" width="4.6" height="4.6" transform="translate(48.68 114.34)" fill="#2e353a"/>
      <rect id="Rectangle-17" data-name="Rectangle" width="4.6" height="4.6" transform="translate(39.1 123.93)" fill="#2e353a"/>
      <rect id="Rectangle-18" data-name="Rectangle" width="4.6" height="4.6" transform="translate(18.01 129.3)" fill="#2e353a"/>
      <rect id="Rectangle-19" data-name="Rectangle" width="4.6" height="4.6" transform="translate(84.34 118.94)" fill="#2e353a"/>
      <rect id="Rectangle-20" data-name="Rectangle" width="4.6" height="4.6" transform="translate(93.54 118.94)" fill="#2e353a"/>
      <rect id="Rectangle-21" data-name="Rectangle" width="4.6" height="4.6" transform="translate(305.58 6.21)" fill="#2e353a"/>
      <rect id="Rectangle-22" data-name="Rectangle" width="4.6" height="4.6" transform="translate(311.33 6.21)" fill="#2e353a"/>
      <rect id="Rectangle-23" data-name="Rectangle" width="4.6" height="4.6" transform="translate(305.58 15.8)" fill="#2e353a"/>
      <rect id="Rectangle-24" data-name="Rectangle" width="4.6" height="4.6" transform="translate(311.33 15.8)" fill="#2e353a"/>
      <rect id="Rectangle-25" data-name="Rectangle" width="4.6" height="4.6" transform="translate(305.58 25.39)" fill="#2e353a"/>
      <rect id="Rectangle-26" data-name="Rectangle" width="4.6" height="4.6" transform="translate(311.33 25.39)" fill="#2e353a"/>
      <rect id="Rectangle-27" data-name="Rectangle" width="4.6" height="4.6" transform="translate(305.58 34.97)" fill="#2e353a"/>
      <rect id="Rectangle-28" data-name="Rectangle" width="4.6" height="4.6" transform="translate(311.33 34.97)" fill="#2e353a"/>
      <rect id="Rectangle-29" data-name="Rectangle" width="4.6" height="4.6" transform="translate(305.58 44.56)" fill="#2e353a"/>
      <rect id="Rectangle-30" data-name="Rectangle" width="4.6" height="4.6" transform="translate(311.33 44.56)" fill="#2e353a"/>
      <rect id="Rectangle-31" data-name="Rectangle" width="4.6" height="4.6" transform="translate(305.58 54.14)" fill="#2e353a"/>
      <rect id="Rectangle-32" data-name="Rectangle" width="4.6" height="4.6" transform="translate(311.33 54.14)" fill="#2e353a"/>
      <rect id="Rectangle-33" data-name="Rectangle" width="4.6" height="4.6" transform="translate(305.58 63.73)" fill="#2e353a"/>
      <rect id="Rectangle-34" data-name="Rectangle" width="4.6" height="4.6" transform="translate(311.33 63.73)" fill="#2e353a"/>
      <rect id="Rectangle-35" data-name="Rectangle" width="4.6" height="4.6" transform="translate(305.58 73.32)" fill="#2e353a"/>
      <rect id="Rectangle-36" data-name="Rectangle" width="4.6" height="4.6" transform="translate(311.33 73.32)" fill="#2e353a"/>
      <rect id="Rectangle-37" data-name="Rectangle" width="4.6" height="4.6" transform="translate(305.58 82.9)" fill="#2e353a"/>
      <rect id="Rectangle-38" data-name="Rectangle" width="4.6" height="4.6" transform="translate(311.33 82.9)" fill="#2e353a"/>
      <rect id="Rectangle-39" data-name="Rectangle" width="4.6" height="4.6" transform="translate(266.47 82.9)" fill="#2e353a"/>
      <rect id="Rectangle-40" data-name="Rectangle" width="4.6" height="4.6" transform="translate(276.44 82.9)" fill="#2e353a"/>
      <rect id="Rectangle-41" data-name="Rectangle" width="4.6" height="4.6" transform="translate(286.41 82.9)" fill="#2e353a"/>
      <rect id="Rectangle-42" data-name="Rectangle" width="4.6" height="4.6" transform="translate(266.47 103.61)" fill="#2e353a"/>
      <rect id="Rectangle-43" data-name="Rectangle" width="4.6" height="4.6" transform="translate(276.44 103.61)" fill="#2e353a"/>
      <rect id="Rectangle-44" data-name="Rectangle" width="4.6" height="4.6" transform="translate(286.41 103.61)" fill="#2e353a"/>
      <rect id="Rectangle-45" data-name="Rectangle" width="4.6" height="4.6" transform="translate(266.47 124.31)" fill="#2e353a"/>
      <rect id="Rectangle-46" data-name="Rectangle" width="4.6" height="4.6" transform="translate(276.44 124.31)" fill="#2e353a"/>
      <rect id="Rectangle-47" data-name="Rectangle" width="4.6" height="4.6" transform="translate(286.41 124.31)" fill="#2e353a"/>
      <rect id="Rectangle-48" data-name="Rectangle" width="4.6" height="4.6" transform="translate(305.58 92.49)" fill="#2e353a"/>
      <rect id="Rectangle-49" data-name="Rectangle" width="4.6" height="4.6" transform="translate(311.33 92.49)" fill="#2e353a"/>
      <rect id="Rectangle-50" data-name="Rectangle" width="4.6" height="4.6" transform="translate(305.58 102.07)" fill="#2e353a"/>
      <rect id="Rectangle-51" data-name="Rectangle" width="4.6" height="4.6" transform="translate(311.33 102.07)" fill="#2e353a"/>
      <rect id="Rectangle-52" data-name="Rectangle" width="4.6" height="4.6" transform="translate(305.58 111.66)" fill="#2e353a"/>
      <rect id="Rectangle-53" data-name="Rectangle" width="4.6" height="4.6" transform="translate(311.33 111.66)" fill="#2e353a"/>
      <rect id="Rectangle-54" data-name="Rectangle" width="4.6" height="4.6" transform="translate(320.92 102.07)" fill="#2e353a"/>
      <rect id="Rectangle-55" data-name="Rectangle" width="4.6" height="4.6" transform="translate(331.66 102.07)" fill="#2e353a"/>
      <rect id="Rectangle-56" data-name="Rectangle" width="4.6" height="4.6" transform="translate(320.92 111.28)" fill="#2e353a"/>
      <rect id="Rectangle-57" data-name="Rectangle" width="4.6" height="4.6" transform="translate(331.66 111.28)" fill="#2e353a"/>
      <rect id="Rectangle-58" data-name="Rectangle" width="4.6" height="4.6" transform="translate(320.92 120.48)" fill="#2e353a"/>
      <rect id="Rectangle-59" data-name="Rectangle" width="4.6" height="4.6" transform="translate(331.66 120.48)" fill="#2e353a"/>
      <rect id="Rectangle-60" data-name="Rectangle" width="4.6" height="4.6" transform="translate(320.92 129.68)" fill="#2e353a"/>
      <rect id="Rectangle-61" data-name="Rectangle" width="4.6" height="4.6" transform="translate(331.66 129.68)" fill="#2e353a"/>
      <rect id="Rectangle-62" data-name="Rectangle" width="4.6" height="4.6" transform="translate(305.58 121.25)" fill="#2e353a"/>
      <rect id="Rectangle-63" data-name="Rectangle" width="4.6" height="4.6" transform="translate(311.33 121.25)" fill="#2e353a"/>
      <rect id="Rectangle-64" data-name="Rectangle" width="4.6" height="4.6" transform="translate(305.58 130.83)" fill="#2e353a"/>
      <rect id="Rectangle-65" data-name="Rectangle" width="4.6" height="4.6" transform="translate(311.33 130.83)" fill="#2e353a"/>
      <rect id="Rectangle-66" data-name="Rectangle" width="4.6" height="4.6" transform="translate(48.68 123.93)" fill="#2e353a"/>
      <rect id="Rectangle-67" data-name="Rectangle" width="4.6" height="4.6" transform="translate(39.1 133.52)" fill="#2e353a"/>
      <rect id="Rectangle-68" data-name="Rectangle" width="4.6" height="4.6" transform="translate(48.68 133.52)" fill="#2e353a"/>
      <rect id="Rectangle-69" data-name="Rectangle" width="4.6" height="4.6" transform="translate(39.1 143.1)" fill="#2e353a"/>
      <rect id="Rectangle-70" data-name="Rectangle" width="4.6" height="4.6" transform="translate(48.68 143.1)" fill="#2e353a"/>
      <rect id="Rectangle-71" data-name="Rectangle" width="4.6" height="4.6" transform="translate(39.1 152.69)" fill="#2e353a"/>
      <rect id="Rectangle-72" data-name="Rectangle" width="4.6" height="4.6" transform="translate(48.68 152.69)" fill="#2e353a"/>
      <path id="Path-3" data-name="Path" d="M38.34,18.75V37.72H0V0H38.34V15.37" transform="translate(257.27 136.82)" fill="none" stroke="#2e353a" stroke-miterlimit="10" stroke-width="1"/>
      <path id="Path-4" data-name="Path" d="M38.35,14.21v5.73H0V0H7.92" transform="translate(327.82 154.6)" fill="none" stroke="#2e353a" stroke-miterlimit="10" stroke-width="1"/>
      <path id="Path-5" data-name="Path" d="M0,0H25.76V11.1" transform="translate(340.41 154.6)" fill="none" stroke="#2e353a" stroke-miterlimit="10" stroke-width="1"/>
      <path id="Path-6" data-name="Path" d="M11.11,0H38.35V19.94H0V0H7.47" transform="translate(72.45 154.6)" fill="none" stroke="#2e353a" stroke-miterlimit="10" stroke-width="1"/>
      <path id="Path-7" data-name="Path" d="M10.55,0h3.64V19.94H0V0H7.69" transform="translate(13.02 154.6)" fill="none" stroke="#2e353a" stroke-miterlimit="10" stroke-width="1"/>
      <rect id="Rectangle-73" data-name="Rectangle" width="6.13" height="37.72" transform="translate(273.37 136.82)" fill="none" stroke="#2e353a" stroke-miterlimit="10" stroke-width="1"/>
      <path id="Path-8" data-name="Path" d="M6.02,9.97H0V0H20.32V9.97H11.48" transform="translate(225.83 131.98)" fill="none" stroke="#2e353a" stroke-miterlimit="10" stroke-width="1"/>
      <rect id="Rectangle-74" data-name="Rectangle" width="23.39" height="8.44" transform="translate(100.83 125.08)" fill="none" stroke="#2e353a" stroke-miterlimit="10" stroke-width="1"/>
      <rect id="Rectangle-75" data-name="Rectangle" width="2.3" height="49.46" transform="translate(111.95 125.08)" fill="none" stroke="#2e353a" stroke-miterlimit="10" stroke-width="1"/>
    </g>
    <g id="freepik--Location--inject-1--inject-46" transform="translate(132 2)">
      <path id="Shape" d="M119,345S0,193.35,0,129a129,129,0,0,1,258,0c0,71.24-129,216-129,216Z" transform="translate(10 0.63)" fill="#2e353a" stroke="#2e353a" stroke-linecap="round" stroke-linejoin="round" stroke-miterlimit="10" stroke-width="1"/>
      <path id="Shape-2" data-name="Shape" d="M0,129a129,129,0,0,1,258,0c0,71.24-129,216-129,216S0,200.24,0,129Z" transform="translate(0 0.63)" fill="#f77d0e" stroke="#2e353a" stroke-linecap="round" stroke-linejoin="round" stroke-miterlimit="10" stroke-width="1"/>
    </g>
    <g id="freepik--Character--inject-1--inject-46" transform="translate(207 92)">
      <path id="Path-9" data-name="Path" d="M0,24.25,14.25,0l.25,8.75L6,25.75l-6-1.5Z" transform="translate(13.43 94)" fill="#fff" stroke="#2e353a" stroke-linecap="round" stroke-linejoin="round" stroke-miterlimit="10" stroke-width="1"/>
      <path id="Path-10" data-name="Path" d="M27.463,0A25.86,25.86,0,0,1,22.1,11.51c-4.55,5.63-10.71,16.61-11,27.05S-1.227,77.89.1,80.03s13.12,5.09,17.67,5.09c2.39,0,6.35.92,7.93-1.41.09-.13-9.35-5-10-5.47s-5.91-4.17-5.74-4.64c0,0,12.34-33.44,18.5-42s10.71-15,12.58-20.35S44.593.83,44.593.83Z" transform="translate(0.467 200.17)" fill="#fff"/>
      <path id="Path-11" data-name="Path" d="M0,8.64a66.29,66.29,0,0,0,16.2,4.61c.3-.69.57-1.36.8-2C18.88,5.89,20.48.8,20.48.8L3.35,0A25.16,25.16,0,0,1,0,8.64Z" transform="translate(24.58 200.18)" fill="#ffb76f" style="mix-blend-mode: multiply;isolation: isolate"/>
      <path id="Path-12" data-name="Path" d="M27.463,0A25.86,25.86,0,0,1,22.1,11.51c-4.55,5.63-10.71,16.61-11,27.05S-1.227,77.89.1,80.03s13.12,5.09,17.67,5.09c2.39,0,6.35.92,7.93-1.41.09-.13-9.35-5-10-5.47s-5.91-4.17-5.74-4.64c0,0,12.34-33.44,18.5-42s10.71-15,12.58-20.35S44.593.83,44.593.83Z" transform="translate(0.467 200.17)" fill="none" stroke="#2e353a" stroke-linecap="round" stroke-linejoin="round" stroke-miterlimit="10" stroke-width="1"/>
      <path id="Path-13" data-name="Path" d="M0,12.23A25.87,25.87,0,0,1,5,23.91c1.13,7.15,5.17,19.07,12.76,26.26s21,37.43,23.48,37.86c2.91.52,7.35-3.2,9.51-4.71,2.75-1.92,9.06-5.84,10-9.23,1.13-3.9-2.88-1.94-4.57-.68-2.19,1.63-13.12,3-13.12,3S26.45,42.87,24.21,32.57s-4-18-6.71-23S12.07,0,12.07,0Z" transform="translate(66.68 190.13)" fill="#fff"/>
      <path id="Path-14" data-name="Path" d="M17.5,9.57C14.77,4.57,12.06,0,12.06,0L0,12.2a25.34,25.34,0,0,1,4.39,9,99.46,99.46,0,0,0,16-4.25A38.92,38.92,0,0,0,17.5,9.57Z" transform="translate(66.68 190.16)" fill="#ffb76f" style="mix-blend-mode: multiply;isolation: isolate"/>
      <path id="Path-15" data-name="Path" d="M0,12.23A25.87,25.87,0,0,1,5,23.91c1.13,7.15,5.17,19.07,12.76,26.26s21,37.43,23.48,37.86c2.91.52,7.35-3.2,9.51-4.71,2.75-1.92,9.06-5.84,10-9.23,1.13-3.9-2.88-1.94-4.57-.68-2.19,1.63-13.12,3-13.12,3S26.45,42.87,24.21,32.57s-4-18-6.71-23S12.07,0,12.07,0Z" transform="translate(66.68 190.13)" fill="none" stroke="#2e353a" stroke-linecap="round" stroke-linejoin="round" stroke-miterlimit="10" stroke-width="1"/>
      <path id="Path-16" data-name="Path" d="M27.59,4.2c1.13-3.9-2.88-1.94-4.57-.68-2.19,1.63-13.12,3-13.12,3S8.72,3.92,7,0A29,29,0,0,1,0,4.09c3.75,7.39,6.86,13.88,8.08,14.09,2.91.52,7.35-3.2,9.51-4.71C20.31,11.51,26.62,7.59,27.59,4.2Z" transform="translate(99.85 260.02)" fill="#fff" stroke="#2e353a" stroke-linecap="round" stroke-linejoin="round" stroke-miterlimit="10" stroke-width="1"/>
      <path id="Path-17" data-name="Path" d="M9.29,2.29,0,53.56a70.74,70.74,0,0,0,13.31,6.66c7.32,2.66,20,2,20,2l5-24.95,2,23.29s9.65,1,16.64-.33,18.3-8.66,18.3-8.66l-22-40.92L48.25,1,9.32,0Z" transform="translate(19 144.44)" fill="#fff"/>
      <path id="Path-18" data-name="Path" d="M33.58,31.67c3.38-4.23,4.6-29.1,4.6-29.1L4.24,0V2.24L0,25.51C9.5,28.57,30.95,34.95,33.58,31.67Z" transform="translate(24.05 144.49)" fill="#ffb76f" style="mix-blend-mode: multiply;isolation: isolate"/>
      <path id="Path-19" data-name="Path" d="M9.29,2.29,0,53.56a70.74,70.74,0,0,0,13.31,6.66c7.32,2.66,20,2,20,2l5-24.95,2,23.29s9.65,1,16.64-.33,18.3-8.66,18.3-8.66l-22-40.92L48.25,1,9.32,0Z" transform="translate(19 144.44)" fill="none" stroke="#2e353a" stroke-miterlimit="10" stroke-width="1"/>
      <path id="Path-20" data-name="Path" d="M8.75,23.5l19,5,7.75-23L6.5,0,0,21.25,8.75,23.5Z" transform="translate(76.93 82.75)" fill="#2e353a" stroke="#2e353a" stroke-linecap="round" stroke-linejoin="round" stroke-miterlimit="10" stroke-width="1"/>
      <path id="Path-21" data-name="Path" d="M0,0,12.08,2.95" transform="translate(89.39 95.61)" fill="none" stroke="#fff" stroke-linecap="round" stroke-linejoin="round" stroke-miterlimit="10" stroke-width="1"/>
      <path id="Path-22" data-name="Path" d="M0,0,12.08,2.95" transform="translate(88.22 98.56)" fill="none" stroke="#fff" stroke-linecap="round" stroke-linejoin="round" stroke-miterlimit="10" stroke-width="1"/>
      <path id="Path-23" data-name="Path" d="M1,18.449s6-3.25,8-6,4.25-7.5,5.25-8.25,6-3.25,7-4,2.5.75.75,2.25S16.5,7.2,16.5,7.2s1,4.5-.25,6A15.13,15.13,0,0,1,14,15.449l6.75,1.75s-4.5,3.25-6.5,3.75a46,46,0,0,1-6,.75L0,28.2Z" transform="translate(64.93 89.051)" fill="#fff" stroke="#2e353a" stroke-linecap="round" stroke-linejoin="round" stroke-miterlimit="10" stroke-width="1"/>
      <path id="Path-24" data-name="Path" d="M11.1,3.259s-8,11.65-10,25.29S.439,97.1.439,97.1s10.64,4.32,19,4.32,20.63.67,21-4-2.33-58.23-6-71.21a95.83,95.83,0,0,0-11-24S15.1-3.4,11.1,3.259Z" transform="translate(27.831 49.631)" fill="#2e353a" stroke="#2e353a" stroke-linecap="round" stroke-linejoin="round" stroke-miterlimit="10" stroke-width="1"/>
      <path id="Path-25" data-name="Path" d="M10.75,0,0,68.5,9.5,72,13.75,6.25,10.75,0Z" transform="translate(46.43 63)" fill="#fff" stroke="#2e353a" stroke-linecap="round" stroke-linejoin="round" stroke-miterlimit="10" stroke-width="1"/>
      <path id="Path-26" data-name="Path" d="M0,7.65s1.33,6.32,4,9.65,7.65,5,7.65,5l-1.43,7.57,9.32,5.66L22.96,19.3l1-19.3S.62,3.99,0,7.65Z" transform="translate(33.38 18.7)" fill="#fff" stroke="#2e353a" stroke-linecap="round" stroke-linejoin="round" stroke-miterlimit="10" stroke-width="1"/>
      <path id="Path-27" data-name="Path" d="M0,6.82s1.33,6.32,4,9.65,7.65,5,7.65,5,8-2.33,8.65-7.65c.48-3.84-.24-10.43-.69-13.82C12.82,1.34.48,4.17,0,6.82Z" transform="translate(33.38 19.53)" fill="#2e353a" stroke="#2e353a" stroke-linecap="round" stroke-linejoin="round" stroke-miterlimit="10" stroke-width="1"/>
      <path id="Path-28" data-name="Path" d="M6.5,9s-3.33-4-5.32-2.33-1.34,6.33,1,8.66,5.33.33,5.33.33,1.33,4.32,3.66,6.32,10.31,3.33,13,1.33,1.66-9.32,1.66-9.32,4.66-2.33,4.33-4-3.67-3-3.67-4.32a18.49,18.49,0,0,0-.33-3V0l-15.3,3.33S8.852,11,6.5,9Z" transform="translate(40.498 19)" fill="#fff"/>
      <g id="Group" transform="translate(49 19)" opacity="0.5" style="mix-blend-mode: multiply;isolation: isolate">
        <path id="Path-29" data-name="Path" d="M1.86,3.36A20.36,20.36,0,0,1,0,7.97c6-.27,12.41-.65,18.15-1.15a1.81,1.81,0,0,1-.66-1.13,18.49,18.49,0,0,0-.33-3V0Z" transform="translate(0.49)" fill="#ffb76f" style="mix-blend-mode: multiply;isolation: isolate"/>
      </g>
      <path id="Path-30" data-name="Path" d="M6.5,9s-3.33-4-5.32-2.33-1.34,6.33,1,8.66,5.33.33,5.33.33,1.33,4.32,3.66,6.32,10.31,3.33,13,1.33,1.66-9.32,1.66-9.32,4.66-2.33,4.33-4-3.67-3-3.67-4.32a18.49,18.49,0,0,0-.33-3V0l-15.3,3.33S8.852,11,6.5,9Z" transform="translate(40.498 19)" fill="none" stroke="#2e353a" stroke-linecap="round" stroke-linejoin="round" stroke-miterlimit="10" stroke-width="1"/>
      <path id="Path-31" data-name="Path" d="M2.421,25.891l33.27-7.35S31.031,2.231,25.381.9s-16.64-2-22.63,4S2.421,25.891,2.421,25.891Z" transform="translate(30.959 0.459)" fill="#fff" stroke="#2e353a" stroke-linecap="round" stroke-linejoin="round" stroke-miterlimit="10" stroke-width="1"/>
      <path id="Path-32" data-name="Path" d="M0,3.4a97.07,97.07,0,0,0,13.31,2c6,.33,19.63-5,16.31-5.33s-18.64.67-18.64.67Z" transform="translate(55.67 18.293)" fill="#2e353a" stroke="#2e353a" stroke-linecap="round" stroke-linejoin="round" stroke-miterlimit="10" stroke-width="1"/>
      <path id="Path-33" data-name="Path" d="M3,0,0,6.66l14.98,9.31,2.99-9.31L3,0Z" transform="translate(37.27 45.9)" fill="#fff" stroke="#2e353a" stroke-linecap="round" stroke-linejoin="round" stroke-miterlimit="10" stroke-width="1"/>
      <path id="Path-34" data-name="Path" d="M9.069,0l53.25,13.75-5.53,38.94a4.56,4.56,0,0,1-5.67,3.77L2.709,43.88a3.61,3.61,0,0,1-2.62-4.29Z" transform="translate(0.361 115.5)" fill="#fff" stroke="#2e353a" stroke-linecap="round" stroke-linejoin="round" stroke-miterlimit="10" stroke-width="1"/>
      <path id="Path-35" data-name="Path" d="M0,0S12.57,30.5,20.27,34.5s33-20.72,33-20.72" transform="translate(9.43 115.5)" fill="none" stroke="#2e353a" stroke-linecap="round" stroke-linejoin="round" stroke-miterlimit="10" stroke-width="1"/>
      <path id="Path-36" data-name="Path" d="M2.517,0S-.813,7.32.187,10s42.26,17.64,42.26,17.64.33,5.65,1.33,7a20.57,20.57,0,0,1,2,4.66s-2,4.66-1,5.66,4-4.66,4-6.32.33-10.65-.66-13S18.827,6.01,18.827,6.01Z" transform="translate(17.483 102.14)" fill="#fff" stroke="#2e353a" stroke-linecap="round" stroke-linejoin="round" stroke-miterlimit="10" stroke-width="1"/>
      <path id="Path-37" data-name="Path" d="M19.3,0,0,40.92l17.3,5L31.28,13.31" transform="translate(18.97 62.21)" fill="#2e353a" stroke="#2e353a" stroke-linecap="round" stroke-linejoin="round" stroke-miterlimit="10" stroke-width="1"/>
      <path id="Path-38" data-name="Path" d="M0,28.57,12.74,0" transform="translate(36.27 79.56)" fill="none" stroke="#fff" stroke-linecap="round" stroke-linejoin="round" stroke-miterlimit="10" stroke-width="1"/>
      <path id="Path-39" data-name="Path" d="M0,6.41,6.41,0" transform="translate(44.64 83.64)" fill="none" stroke="#fff" stroke-linecap="round" stroke-linejoin="round" stroke-miterlimit="10" stroke-width="1"/>
      <path id="Path-40" data-name="Path" d="M0,0A48.92,48.92,0,0,0,25.94,5.37" transform="translate(25.64 196.93)" fill="none" stroke="#2e353a" stroke-linecap="round" stroke-linejoin="round" stroke-miterlimit="10" stroke-width="1"/>
      <path id="Path-41" data-name="Path" d="M0,0S.77.58,2.2,1.44" transform="translate(21.3 194.31)" fill="none" stroke="#2e353a" stroke-linecap="round" stroke-linejoin="round" stroke-miterlimit="10" stroke-width="1"/>
      <path id="Path-42" data-name="Path" d="M0,2.27A39.82,39.82,0,0,0,3.69,0" transform="translate(86.16 192.31)" fill="none" stroke="#2e353a" stroke-linecap="round" stroke-linejoin="round" stroke-miterlimit="10" stroke-width="1"/>
      <path id="Path-43" data-name="Path" d="M0,4.92A58.21,58.21,0,0,0,22.66,0" transform="translate(60.56 196.08)" fill="none" stroke="#2e353a" stroke-linecap="round" stroke-linejoin="round" stroke-miterlimit="10" stroke-width="1"/>
      <path id="Path-44" data-name="Path" d="M0,12.43,7.18,0" transform="translate(57.24 169.24)" fill="none" stroke="#2e353a" stroke-linecap="round" stroke-linejoin="round" stroke-miterlimit="10" stroke-width="1"/>
      <path id="Path-45" data-name="Path" d="M0,13.57,11.97,0" transform="translate(57.63 167.45)" fill="none" stroke="#2e353a" stroke-linecap="round" stroke-linejoin="round" stroke-miterlimit="10" stroke-width="1"/>
      <path id="Path-46" data-name="Path" d="M1,0,0,7.38a30.55,30.55,0,0,0,8,4c4.79,1.6,15,1.4,15,1.4l1.4-7s-17.76-2-21.35-5" transform="translate(26.1 175.63)" fill="none" stroke="#2e353a" stroke-linecap="round" stroke-linejoin="round" stroke-miterlimit="10" stroke-width="1"/>
      <path id="Path-47" data-name="Path" d="M1.6,0S-1.2,6.79.6,8.39s14.56,6.38,18,6,5.38-8.78,5.38-8.78" transform="translate(24.306 185.8)" fill="none" stroke="#2e353a" stroke-linecap="round" stroke-linejoin="round" stroke-miterlimit="10" stroke-width="1"/>
      <path id="Path-48" data-name="Path" d="M25.8,2.3c1.13-3.9-2.88-1.94-4.57-.68-2.19,1.63-13.12,3-13.12,3l-1.33-3A23.1,23.1,0,0,1,0,5.763c2.91,5.78,5.24,10.32,6.26,10.49,2.91.52,7.35-3.2,9.51-4.71C18.52,9.613,24.83,5.693,25.8,2.3Z" transform="translate(101.64 261.917)" fill="#2e353a" stroke="#2e353a" stroke-linecap="round" stroke-linejoin="round" stroke-miterlimit="10" stroke-width="1"/>
      <path id="Path-49" data-name="Path" d="M12.78,7.75C8.28,10.09,3.03,12.93,0,14.52c.66,1,1.19,1.65,1.55,1.71,2.91.52,7.35-3.2,9.51-4.71,2.75-1.92,9.06-5.84,10-9.23.48-1.64,0-2.24-.75-2.29C18.65,2.78,16.07,6.07,12.78,7.75Z" transform="translate(106.35 261.93)" fill="#fff" stroke="#2e353a" stroke-linecap="round" stroke-linejoin="round" stroke-miterlimit="10" stroke-width="1"/>
      <path id="Path-50" data-name="Path" d="M15.753,14.15c-.48-.36-5.91-4.17-5.74-4.64,0,0,1.09-2.93,2.76-7.27A31.2,31.2,0,0,1,4.453,0c-2.66,8.08-5,14.94-4.34,15.94,1.33,2.14,13.12,5.09,17.67,5.09,2.39,0,6.35.92,7.93-1.41C25.8,19.49,16.363,14.6,15.753,14.15Z" transform="translate(0.487 264.26)" fill="#fff" stroke="#2e353a" stroke-linecap="round" stroke-linejoin="round" stroke-miterlimit="10" stroke-width="1"/>
      <path id="Path-51" data-name="Path" d="M25.745,15.24c.09-.13-9.35-5-10-5.47S9.835,5.6,10,5.13l1.06-2.83A42.59,42.59,0,0,1,3,0C1,6.06-.405,10.74.1,11.56c1.33,2.14,13.12,5.09,17.67,5.09C20.2,16.65,24.165,17.57,25.745,15.24Z" transform="translate(0.455 268.64)" fill="#2e353a" stroke="#2e353a" stroke-linecap="round" stroke-linejoin="round" stroke-miterlimit="10" stroke-width="1"/>
      <path id="Path-52" data-name="Path" d="M16.37,4.27C10.24,3.9,3.43,1.38.1,0a2.46,2.46,0,0,0,0,1.39C1.43,3.53,13.22,6.48,17.77,6.48c2.39,0,6.35.92,7.93-1.41a9.82,9.82,0,0,0-1.41-.83A57.05,57.05,0,0,1,16.37,4.27Z" transform="translate(0.47 278.81)" fill="#fff" stroke="#2e353a" stroke-linecap="round" stroke-linejoin="round" stroke-miterlimit="10" stroke-width="1"/>
      <path id="Path-53" data-name="Path" d="M5.34,12.69,0,0" transform="translate(48.6 9.03)" fill="none" stroke="#000" stroke-linecap="round" stroke-linejoin="round" stroke-miterlimit="10" stroke-width="1"/>
      <path id="Path-54" data-name="Path" d="M.925,5.35S-.745,1.67.6,0" transform="translate(47.005 1.35)" fill="none" stroke="#000" stroke-linecap="round" stroke-linejoin="round" stroke-miterlimit="10" stroke-width="1"/>
    </g>
    <g id="Group_17" data-name="Group 17">
      <path id="Fill_289" data-name="Fill 289" d="M3.209,33.512A264.661,264.661,0,0,1,4.653,61.3c6.3-1.708,13.075-2,19.55-2.38,7.189-.417,14.384-.6,21.585-.668,14.366-.14,28.755.073,43.107-.72,26.5-1.463,53-4.045,79.557-4.112a2.067,2.067,0,0,1,1.841.972c3.827,3.023,6.2,9.356,8.266,13.484,2.247,4.481,4.328,9.052,6.37,13.633,1.234-6.511,1.048-13.613,1.1-20.135.06-7.164-.085-14.324-.2-21.486-.114-7.111-.241-14.235.049-21.344.219-5.365.262-11.114,1.247-16.51-6.6,1.184-13.784.911-20.428,1.11q-12.151.363-24.311.106c-16.2-.324-32.379-1.242-48.563-2.031C77.7.432,61.55-.232,45.4.077c-8.054.156-16.1.512-24.133,1.2C14.156,1.882,7.1,3.069,0,3.7c.841,4.535,1,9.25,1.5,13.826.575,5.328,1.2,10.652,1.713,15.987" transform="translate(2.944 3.903)" fill="#fff"/>
      <path id="Fill_290" data-name="Fill 290" d="M3.209,33.512A264.661,264.661,0,0,1,4.653,61.3c6.3-1.708,13.075-2,19.55-2.38,7.189-.417,14.384-.6,21.585-.668,14.366-.14,28.755.073,43.107-.72,26.5-1.463,53-4.045,79.557-4.112a2.067,2.067,0,0,1,1.841.972c3.827,3.023,6.2,9.356,8.266,13.484,2.247,4.481,4.328,9.052,6.37,13.633,1.234-6.511,1.048-13.613,1.1-20.135.06-7.164-.085-14.324-.2-21.486-.114-7.111-.241-14.235.049-21.344.219-5.365.262-11.114,1.247-16.51-6.6,1.184-13.784.911-20.428,1.11q-12.151.363-24.311.106c-16.2-.324-32.379-1.242-48.563-2.031C77.7.432,61.55-.232,45.4.077c-8.054.156-16.1.512-24.133,1.2C14.156,1.882,7.1,3.069,0,3.7c.841,4.535,1,9.25,1.5,13.826.575,5.328,1.2,10.652,1.713,15.987" transform="translate(2.944 3.903)" fill="#fff"/>
      <path id="Fill_291" data-name="Fill 291" d="M187.111,91.609a1.749,1.749,0,0,1-1.6-1.1c-1.205-2.522-2.4-5.1-3.552-7.6-1.36-2.941-2.764-5.978-4.2-8.941-1.421-2.936-2.829-5.8-4.424-8.541-.353-.608-.75-1.216-1.134-1.8-.366-.561-.745-1.141-1.089-1.726-18.628.021-37.516,1.119-55.781,2.182-7.7.448-15.659.911-23.495,1.287-10.5.5-21.178.525-31.507.544-3.8.007-7.734.015-11.6.046-6.8.054-14.124.158-21.586.542-2.431.125-4.912.335-7.311.538C15.982,67.36,12,67.7,8.091,67.7l-.531,0c0,.04,0,.079,0,.119s0,.08,0,.118a1.87,1.87,0,0,1-1.972,1.85,1.939,1.939,0,0,1-1.4-.551,1.732,1.732,0,0,1-.46-1.3,249.5,249.5,0,0,0-1.2-30.515c-.249-2.755-.51-5.555-.762-8.264v-.013l0-.033c-.234-2.517-.476-5.119-.708-7.678-.1-1.089-.217-2.2-.332-3.284A66.648,66.648,0,0,1,.165,6.976a1.763,1.763,0,0,1-.013-1.46,1.386,1.386,0,0,1,.924-.78C8.3,2.788,16.008,2.1,23.461,1.432l.75-.067C31.917.675,40.036.245,48.345.087,51.415.029,54.621,0,57.876,0,71.045,0,84.245.482,95.421.953c3.4.143,6.829.3,10.15.443,12.588.559,25.6,1.136,38.412,1.308,3.153.042,6.028.062,8.791.062,5.616,0,10.692-.086,15.518-.261,4.494-.165,8.47-.364,12.157-.611,1.051-.07,2.114-.1,3.142-.122a35.584,35.584,0,0,0,6.607-.58,2.574,2.574,0,0,1,.531-.057,2.215,2.215,0,0,1,1.138.31,1.507,1.507,0,0,1,.329-.036,1.433,1.433,0,0,1,1.019.406,1.255,1.255,0,0,1,.353.922c-.047,3.544-.365,7.147-.672,10.632-.3,3.407-.611,6.929-.67,10.4-.1,6.232-.078,12.82.087,21.359q.023,1.192.047,2.384l0,.116c.123,6.223.251,12.658.158,18.989-.049,3.276-.281,6.616-.505,9.846-.264,3.8-.537,7.732-.513,11.578a1.942,1.942,0,0,1-.525,1.421,2.037,2.037,0,0,1-1.466.564,2.5,2.5,0,0,1-.253-.013A2.418,2.418,0,0,1,187.111,91.609ZM171.4,57.323h.009a2.049,2.049,0,0,1,1.833.972c3.078,2.432,5.257,7.1,7.008,10.85.439.94.853,1.827,1.258,2.634,2.316,4.618,4.43,9.281,6.37,13.633,1.053-5.555,1.072-11.489,1.09-17.228,0-.962.006-1.951.015-2.908.052-6.327-.056-12.756-.161-18.973l0-.145q-.02-1.184-.04-2.368l-.01-.616c-.11-6.8-.223-13.825.059-20.728.036-.888.069-1.806.1-2.693v-.007A96.42,96.42,0,0,1,190.07,5.936a95.209,95.209,0,0,1-15.435,1.02c-1.65.02-3.355.041-4.993.09-4.633.138-9.4.209-14.156.209-3.335,0-6.752-.035-10.155-.1-13.3-.266-26.8-.943-39.866-1.6-2.848-.143-5.793-.291-8.7-.432C84.678,4.532,70.613,3.9,56.672,3.9c-2.837,0-5.638.026-8.327.078-8.793.17-16.687.562-24.134,1.2-3.632.31-7.309.779-10.865,1.232-3.406.434-6.928.883-10.4,1.192.563,3.035.825,6.2,1.079,9.251.125,1.5.254,3.06.417,4.575.178,1.646.364,3.32.543,4.938l0,.02c.4,3.613.817,7.349,1.168,11.029A268.129,268.129,0,0,1,7.6,65.2c5.9-1.6,12.208-1.96,18.308-2.308l1.242-.071c6.5-.377,13.357-.59,21.586-.668,3.738-.037,7.538-.049,11.214-.062,10.459-.035,21.274-.072,31.893-.658,8.151-.45,16.438-1.015,24.453-1.562C134.342,58.642,153.006,57.369,171.4,57.323Z" transform="translate(0 0)"/>
      <path id="Fill_292" data-name="Fill 292" d="M14.286,22.754c-1.946-4.13-7.866-4.7-9.618-8.891A16.983,16.983,0,0,1,3.443,7.31c.01-4.432,3.692-4.416,7.152-3.942,1.085.149,1.948-1.306.806-1.914C1.536-3.8-1.721,6.272.834,14.2c1.468,4.555,5.547,6.074,8.944,8.929a4.3,4.3,0,0,1-1.634,7.651c-1.4.327-3.359-.183-4.372,1.11a1.706,1.706,0,0,0,.351,2.575l-.018.015c.081.037.162.065.243.1a.913.913,0,0,0,.086.035c7.161,2.934,12.826-5.547,9.852-11.858" transform="translate(30.29 15.782)"/>
      <path id="Fill_293" data-name="Fill 293" d="M8.29,25.982A33.82,33.82,0,0,1,5.129,16.9C3.848,11.589,3.45,6.135,2.241.817a1.145,1.145,0,0,0-2.24.3,86.182,86.182,0,0,0,1.783,16.7c.677,3.5,2.082,11.135,6.117,12.171a.909.909,0,0,0,1.114-.634,3.965,3.965,0,0,0-.725-3.378" transform="translate(49.022 19.02)"/>
      <path id="Fill_294" data-name="Fill 294" d="M20.316,30.091c-.014-.015-.4-3.437-.474-4.115-.287-2.733-.334-5.5-.442-8.24-.209-5.371-.06-11.37-2.018-16.466A1.805,1.805,0,0,0,14.126.845a75.96,75.96,0,0,0-6.17,8.944A37.337,37.337,0,0,0,3.1.9,1.677,1.677,0,0,0,0,1.743c.052,5.884.4,11.764.836,17.63.247,3.306.027,9.152,2.475,11.724a.507.507,0,0,0,.836-.221c1.452-3.517.035-9.148-.213-12.835q-.34-5.052-.5-10.121A32.218,32.218,0,0,1,6,15.2c.389,1.744,2.828,1.542,3.32,0,1.133-3.553,3.337-6.651,5.617-9.624,1.263,5.657.841,11.963,1.135,17.586.1,1.924.01,10.179,4.053,8.376a.931.931,0,0,0,.187-1.448" transform="translate(67.499 16.396)"/>
      <path id="Fill_295" data-name="Fill 295" d="M7.022,34.329h0A1.9,1.9,0,0,1,5.1,32.684c-.324-2.53-.689-5.114-1.041-7.612-.273-1.939-.555-3.941-.819-5.914l-.009,0-.007,0a1.517,1.517,0,0,1-.275.025,1.792,1.792,0,0,1-1.671-1.4,1.2,1.2,0,0,1,.766-1.422c.257-.115.524-.231.793-.347C2.228,11.057,1.883,7,1.753,3.25c-.235.068-.477.142-.718.219A.741.741,0,0,1,.812,3.5.874.874,0,0,1,.019,2.78a.665.665,0,0,1,.39-.8A24.033,24.033,0,0,1,9.1,0a8.589,8.589,0,0,1,4.654,1.141,5.91,5.91,0,0,1,2.6,4.156c.988,5.483-4.329,10.469-9.688,12.781.911,5.605,1.5,10.247,1.87,14.607a1.5,1.5,0,0,1-.351,1.178A1.573,1.573,0,0,1,7.022,34.329ZM8.252,2.15a20.357,20.357,0,0,0-4.323.542q.193,1.053.388,2.108c.589,3.2,1.2,6.5,1.762,9.767,3.533-1.7,7.571-4.2,7.415-8.491C13.4,3.471,11.636,2.15,8.252,2.15Z" transform="translate(92.344 17.455)"/>
      <path id="Fill_296" data-name="Fill 296" d="M17,29.707c-1.681-1.33-2.4-.881-4.651-.6a68.66,68.66,0,0,1-8.142.4C4.354,20.1,5.465,10,2.709.961,2.274-.466-.153-.27.008,1.326c1.016,10.061.674,19.91.565,30a1.827,1.827,0,0,0,1.81,1.811c3.621.02,12.8,1.481,14.756-2.369A.877.877,0,0,0,17,29.707" transform="translate(112.78 16.814)"/>
      <path id="Fill_297" data-name="Fill 297" d="M17.951,32.343c.805-.584,1.113-2.051,0-2.563a.368.368,0,0,0-.093-.039A1.986,1.986,0,0,0,16.253,29c-3.689.329-7.393.686-11.1.838-.312-3.485-.488-6.979-.628-10.474.35,0,.7-.008,1.049-.008,1.878,0,3.747-.285,5.625-.307,2.558-.031,2.561-4,0-3.969a33.264,33.264,0,0,0-5.678.647c-.334.062-.724.132-1.125.225l-.084-2.4c-.077-2.2.623-7.218-.6-9.856,2.18.214,4.381.245,6.567.275,2.558.034,5.792.87,7.73-1.1a1.154,1.154,0,0,0,0-1.613C16.253-.534,13.776.1,11.433.137A67.9,67.9,0,0,0,1.815.66,1.484,1.484,0,0,0,1.1,3.026C-.673,5.378.231,11.147.227,13.552a183.272,183.272,0,0,0,.822,18.509A2.195,2.195,0,0,0,3.2,34.215c4.361-.04,8.715-.47,13.051-.9a2.167,2.167,0,0,0,1.862-1.069q-.411.277-.164.1" transform="translate(131.961 15.078)"/>
    </g>
  </g>
</svg>
