<svg xmlns="http://www.w3.org/2000/svg" width="188.742" height="120.238" viewBox="0 0 188.742 120.238">
  <g id="hello" transform="translate(0.002 0)">
    <g id="Group_12" data-name="Group 12" transform="translate(0 0)">
      <path id="Fill_41" data-name="Fill 41" d="M54.768,94.324c-.088-2.285,3.848-3.047,4.927-.464a94.285,94.285,0,0,1,3.89,12.044c1.239-3.963,2.23-8.012,3.243-12.024a2.369,2.369,0,0,1,1.66-1.659A80.894,80.894,0,0,1,78.216,90.3c12.294-1.653,24.691-1.313,37.053-1.953,11.091-.572,22.649-1.811,32.716-6.854a67.426,67.426,0,0,0,21.6-17.041c5.51-6.632,10.01-14.96,10.215-23.766.386-16.579-13.218-28.6-27.646-34C136.844.945,120.144-.373,103.92.083a219.783,219.783,0,0,0-51.5,7.561A151.7,151.7,0,0,0,31,15.007c-6.055,2.672-12.259,5.775-17.148,10.317C1.928,36.4-4.109,55.525,3.131,70.825c4.3,9.1,12.313,15.062,21.83,18.018,9.718,3.018,19.96,3.175,29.807,5.481" transform="translate(3.766 3.99)" fill="#fff"/>
      <path id="Fill_42" data-name="Fill 42" d="M66.8,120.238h0a2.185,2.185,0,0,1-2.138-1.723c-.466-1.636-.914-3.309-1.348-4.927a124.323,124.323,0,0,0-3.965-12.9c-3.86-.622-7.811-1.014-11.632-1.394-8.456-.84-17.2-1.708-25.363-5.123A37.664,37.664,0,0,1,11.006,86.85,33.056,33.056,0,0,1,3.215,75.845,40.482,40.482,0,0,1,.823,51.808,47.694,47.694,0,0,1,4.892,39.884a45.729,45.729,0,0,1,7.087-10.415C16.256,24.761,21.7,20.9,29.128,17.308,41.708,11.223,56.375,6.75,73.967,3.631A223.49,223.49,0,0,1,112.762,0c4.61,0,9.187.175,13.6.52a137.072,137.072,0,0,1,22.578,3.422,69.983,69.983,0,0,1,21.013,8.691A41.672,41.672,0,0,1,186.1,30.917a32.309,32.309,0,0,1,2.641,13.033,35.425,35.425,0,0,1-2.562,13.081A59.867,59.867,0,0,1,170.267,79.2a65.166,65.166,0,0,1-23.753,13.6A91.521,91.521,0,0,1,127.7,96.348c-6.353.591-12.871.74-19.176.885-11.145.256-22.668.521-33.671,3.23a122.292,122.292,0,0,1-5.53,18.052A2.785,2.785,0,0,1,66.8,120.238Zm-5.825-24.01h0a2.606,2.606,0,0,1,2.487,1.622,92.976,92.976,0,0,1,3.89,12.044c1.109-3.546,2.032-7.211,2.924-10.756q.16-.635.32-1.268a2.362,2.362,0,0,1,1.66-1.659,81.09,81.09,0,0,1,9.728-1.923,231.241,231.241,0,0,1,24.826-1.533c4.012-.1,8.155-.209,12.227-.42,11.021-.569,22.613-1.793,32.716-6.854a67.6,67.6,0,0,0,21.6-17.041c4.535-5.458,9.988-14.012,10.215-23.766.4-17.282-14.017-28.9-27.646-34-12-4.5-25.889-6.682-42.465-6.682-1.868,0-3.809.028-5.768.083a219.474,219.474,0,0,0-51.5,7.561A149.573,149.573,0,0,0,34.768,19C28.79,21.634,22.575,24.71,17.62,29.314,6.486,39.657-.772,58.607,6.9,74.814c4.077,8.619,11.626,14.849,21.83,18.018a106,106,0,0,0,16.991,3.3c4.224.584,8.592,1.187,12.816,2.176a1.78,1.78,0,0,1,.51-1.33A2.705,2.705,0,0,1,60.973,96.228Z" transform="translate(0 0)"/>
    </g>
    <path id="Fill_43" data-name="Fill 43" d="M25.135,49.138c-.567-8.254-.6-16.545-.768-24.813-.081-3.986-.009-7.991-.2-11.97-.064-1.339.152-3.279-.3-4.545a3.149,3.149,0,0,0-1.076-1.788c.663.421.314.052.212-.585a1.108,1.108,0,0,0-2.124,0c-.1.637-.45,1.008.215.585A3.138,3.138,0,0,0,20.012,7.81c-.456,1.276-.214,3.2-.284,4.545-.208,3.97-.037,8-.025,11.97,0,.172,0,.342,0,.512-2.233-.022-4.533.257-6.709.41a53.854,53.854,0,0,0-6.357.835q.1-.976.2-1.951c.443-4.248.978-8.483,1.305-12.744C8.4,7.986,9.273,3.156,6.805.432a1.492,1.492,0,0,0-2.314.3c-1.065,1.516-1.049,3.031-1.2,4.814-.169,1.95-.407,3.9-.647,5.842C2.094,15.849,1.449,20.3.929,24.763a120.516,120.516,0,0,0-.928,13,45.1,45.1,0,0,0,.4,6.167c.318,2.444.435,4.661,3.092,5.557a2.1,2.1,0,0,0,2.069-.546c1.7-1.758.984-3.4.722-5.54A53.109,53.109,0,0,1,6,37.169c-.01-2.723.144-5.448.371-8.166,2.209-.03,4.419-.016,6.628-.019s4.5.236,6.739.2c.064,6.654.234,13.319.7,19.953.213,3,4.905,3.027,4.7,0" transform="translate(30.731 25.146)"/>
    <path id="Fill_44" data-name="Fill 44" d="M16.515,39.718a23.358,23.358,0,0,1-9.126-.5c-.666-5.068-1.034-10.171-1.383-15.271a70.765,70.765,0,0,0,8.318-1.109c2.692-.612,1.552-4.77-1.14-4.135-2.459.582-4.97.831-7.43,1.35C5.454,14.71,5.32,9.078,3.982,3.91c3.981-.118,8.047.549,11.955-.115,1.734-.3,1.734-3.194,0-3.489A30.646,30.646,0,0,0,2.765,1.39,1.814,1.814,0,0,0,.048,2.9C-.234,9.458.8,16.218,1.208,22.769c.4,6.375.845,12.742,1.711,19.075A2.347,2.347,0,0,0,4.6,43.527c4.192,1.032,8.933,1.944,13.2.864,3.065-.777,1.74-5.232-1.289-4.673" transform="translate(61.042 26.272)"/>
    <path id="Fill_45" data-name="Fill 45" d="M11.081,43.74a24.878,24.878,0,0,1-7.065.8c-.324-6.853-.356-13.715-.3-20.573.068-7.478.79-15.212-.133-22.649a1.363,1.363,0,0,0-2.724,0c-.9,7.173-.63,14.6-.768,21.824C-.056,30.9-.063,38.667.34,46.424A1.912,1.912,0,0,0,2.224,48.31c3.279,0,6.7.044,9.869-.9,2.344-.7,1.341-4.381-1.012-3.667" transform="translate(85.338 22.753)"/>
    <path id="Fill_46" data-name="Fill 46" d="M11.036,40.361a24.2,24.2,0,0,1-6.874.759,174.912,174.912,0,0,1,.6-18.819c.257-3.5.535-7,.723-10.505.186-3.476.662-7.322-.157-10.738a1.482,1.482,0,0,0-2.84,0c-.787,3.174-.63,6.68-.868,9.934-.255,3.5-.568,7-.843,10.5A155.942,155.942,0,0,0,.17,43.155a2.068,2.068,0,0,0,2.039,2.036c3.287-.008,6.723.019,9.9-.947,2.477-.751,1.426-4.627-1.07-3.883" transform="translate(104.931 24.321)"/>
    <path id="Fill_47" data-name="Fill 47" d="M7.987,43.4h0a2.448,2.448,0,0,1-1.639-.671A12.64,12.64,0,0,1,3.2,38.091a33.226,33.226,0,0,1-1.685-5.4A57.241,57.241,0,0,1,.009,18.542,46.518,46.518,0,0,1,.9,9.548c.857-3.867,2.33-6.418,4.378-7.58A1.912,1.912,0,0,1,5.835.612,1.935,1.935,0,0,1,7.187,0h.066c3.593,0,6.63,4.142,8.14,7.689a32.226,32.226,0,0,1,2.525,12.734A41.888,41.888,0,0,1,16.2,32.553c-1.4,4.488-3.581,7.91-6.475,10.173A2.856,2.856,0,0,1,7.987,43.4ZM7.767,5.079h0a10.635,10.635,0,0,0-1.9,4.149A36.569,36.569,0,0,0,4.808,20.319,53.776,53.776,0,0,0,6.4,32.183a22.653,22.653,0,0,0,1.988,5.4c4.549-4.912,4.934-13.636,4.888-17.159a25.227,25.227,0,0,0-1.917-10.375A14.19,14.19,0,0,0,8.878,6.113C8.52,5.737,8.133,5.4,7.767,5.079Z" transform="translate(124.635 26.439)"/>
    <path id="Fill_48" data-name="Fill 48" d="M4.523,22.972A168.938,168.938,0,0,0,3.532,1.294C3.338-.382.836-.479.845,1.294.882,8.231.608,15.2.468,22.139.395,25.752.291,29.364.2,32.977c-.07,2.967-.8,7.165,1.017,9.736a1.137,1.137,0,0,0,1.934,0c1.688-2.376,1.17-6.138,1.205-8.9.045-3.612.116-7.226.163-10.839" transform="translate(153.466 22.773)"/>
    <path id="Fill_49" data-name="Fill 49" d="M4.885,2.132A1.943,1.943,0,0,0,4.317.762,2.07,2.07,0,0,0,2.973.2,3.044,3.044,0,0,0,2.682.09,2.134,2.134,0,0,0,0,2.132,2.136,2.136,0,0,0,2.682,4.176c.1-.032.2-.069.291-.109A2.067,2.067,0,0,0,4.317,3.5a1.949,1.949,0,0,0,.568-1.372" transform="translate(152.708 73.002)"/>
  </g>
</svg>
