<svg xmlns="http://www.w3.org/2000/svg" width="1139.835" height="180.722" viewBox="0 0 1139.835 180.722">
  <g id="stars" transform="translate(0.51 0.526)">
    <g id="_1" data-name="1" transform="translate(0 48)">
      <path id="Path" d="M7.328,12.322a1.45,1.45,0,0,0,.45-1.29l-1.36-9.36A1.46,1.46,0,0,1,8.568.182l8.29,4.57a1.45,1.45,0,0,0,1.36,0l8.47-4.23a1.46,1.46,0,0,1,2.09,1.58l-1.79,9.3a1.42,1.42,0,0,0,.39,1.3l6.64,6.74a1.46,1.46,0,0,1-.86,2.48l-9.39,1.17a1.47,1.47,0,0,0-1.12.77l-4.36,8.41a1.46,1.46,0,0,1-2.62-.06l-4-8.57a1.45,1.45,0,0,0-1.08-.82l-9.34-1.55a1.47,1.47,0,0,1-.83-2.48Z" transform="translate(156 89.821)" fill="none" stroke="#0b0212" stroke-miterlimit="10" stroke-width="1"/>
      <path id="Path-2" data-name="Path" d="M.227,9l3.32-3.1a.72.72,0,0,0,.22-.62L3.087.79a.7.7,0,0,1,1-.72l4,2.19a.7.7,0,0,0,.66,0l4.06-2a.7.7,0,0,1,1,.76l-.86,4.47a.7.7,0,0,0,.19.62l3.19,3.24a.7.7,0,0,1-.41,1.19l-4.51.56a.71.71,0,0,0-.54.38l-2.09,4a.7.7,0,0,1-1.26,0l-1.93-4.12a.71.71,0,0,0-.52-.4l-4.48-.74A.71.71,0,0,1,.227,9Z" transform="translate(0 115.821)" fill="none" stroke="#0b0212" stroke-miterlimit="10" stroke-width="1"/>
      <path id="Path-3" data-name="Path" d="M33.926,14.613l-7.05,6.33a1.44,1.44,0,0,0-.47,1.27l1.21,9.39a1.46,1.46,0,0,1-2.18,1.45l-8.19-4.7a1.43,1.43,0,0,0-1.36-.06l-8.55,4.06a1.47,1.47,0,0,1-2.06-1.63l2-9.26a1.47,1.47,0,0,0-.37-1.31l-6.5-6.88a1.45,1.45,0,0,1,.91-2.45l9.42-1a1.47,1.47,0,0,0,1.13-.75L16.4.763a1.46,1.46,0,0,1,2.62.11l3.84,8.65a1.42,1.42,0,0,0,1.06.84l9.31,1.75a1.46,1.46,0,0,1,.7,2.5Z" transform="translate(17.864 23.468)" fill="none" stroke="#0b0212" stroke-miterlimit="10" stroke-width="1"/>
      <path id="Path-4" data-name="Path" d="M16.3,7.041l-3.38,3a.7.7,0,0,0-.23.61l.59,4.51a.7.7,0,0,1-1.05.69L8.3,13.581a.7.7,0,0,0-.66,0l-4.1,1.96a.7.7,0,0,1-1-.78l.95-4.45a.7.7,0,0,0-.18-.63l-3.12-3.3A.7.7,0,0,1,.634,5.2l4.52-.47a.75.75,0,0,0,.55-.36l2.17-4a.7.7,0,0,1,1.26.05l1.84,4.15a.72.72,0,0,0,.52.41l4.46.84a.7.7,0,0,1,.35,1.22Z" transform="translate(8.456)" fill="none" stroke="#0b0212" stroke-miterlimit="10" stroke-width="1"/>
    </g>
    <g id="_2" data-name="2" transform="translate(1008.062 0)">
      <path id="Path-5" data-name="Path" d="M7.328,12.322a1.45,1.45,0,0,0,.45-1.29l-1.36-9.36A1.46,1.46,0,0,1,8.568.182l8.29,4.57a1.45,1.45,0,0,0,1.36,0l8.47-4.23a1.46,1.46,0,0,1,2.09,1.58l-1.79,9.3a1.42,1.42,0,0,0,.39,1.3l6.64,6.74a1.46,1.46,0,0,1-.86,2.48l-9.39,1.17a1.47,1.47,0,0,0-1.12.77l-4.36,8.41a1.46,1.46,0,0,1-2.62-.06l-4-8.57a1.45,1.45,0,0,0-1.08-.82l-9.34-1.55a1.47,1.47,0,0,1-.83-2.48Z" transform="translate(0)" fill="none" stroke="#0b0212" stroke-miterlimit="10" stroke-width="1"/>
      <path id="Path-6" data-name="Path" d="M21.744,20.461l-6.54-1.32a1,1,0,0,0-.92.27l-4.79,4.64a1,1,0,0,1-1.74-.63l-.77-6.63a1,1,0,0,0-.54-.79L.584,12.9a1,1,0,0,1,.05-1.84L6.7,8.281a1,1,0,0,0,.59-.76L8.414.9a1,1,0,0,1,1.78-.52L14.7,5.3a1,1,0,0,0,.9.32l6.61-.93a1,1,0,0,1,1,1.52l-3.28,5.82a1.06,1.06,0,0,0,0,.95l2.93,6a1,1,0,0,1-1.12,1.48Z" transform="translate(102 37.672)" fill="none" stroke="#0b0212" stroke-miterlimit="10" stroke-width="1"/>
      <path id="Path-7" data-name="Path" d="M10.454,9.793l-3.14-.64a.51.51,0,0,0-.44.13l-2.3,2.23a.5.5,0,0,1-.84-.3l-.37-3.18a.45.45,0,0,0-.25-.38L.274,6.143a.49.49,0,0,1,0-.88l2.92-1.34a.5.5,0,0,0,.28-.36L4.024.4a.5.5,0,0,1,.85-.25l2.24,2.36a.5.5,0,0,0,.43.16l3.18-.45a.5.5,0,0,1,.5.73l-1.58,2.8a.5.5,0,0,0,0,.46l1.41,2.87a.5.5,0,0,1-.6.71Z" transform="translate(119.47 20)" fill="none" stroke="#0b0212" stroke-miterlimit="10" stroke-width="1"/>
    </g>
  </g>
</svg>
