<svg xmlns="http://www.w3.org/2000/svg" width="206.754" height="151.186" viewBox="0 0 206.754 151.186">
  <g id="we_care_copy" data-name="we care copy" transform="translate(-1.06 -1.305)">
    <g id="Group_32" data-name="Group 32" transform="matrix(0.985, -0.174, 0.174, 0.985, 21.941, 152.491)">
      <path id="Fill_41" data-name="Fill 41" d="M54.768-94.324c-.088,2.285,3.848,3.047,4.927.464a94.285,94.285,0,0,0,3.89-12.044c1.239,3.963,2.23,8.012,3.243,12.024a2.369,2.369,0,0,0,1.66,1.659A80.894,80.894,0,0,0,78.216-90.3c12.294,1.653,24.691,1.313,37.053,1.953,11.091.572,22.649,1.811,32.716,6.854a67.426,67.426,0,0,1,21.6,17.041c5.51,6.632,10.01,14.96,10.215,23.766.386,16.579-13.218,28.6-27.646,34C136.844-.945,120.144.373,103.92-.083a219.783,219.783,0,0,1-51.5-7.561A151.7,151.7,0,0,1,31-15.007c-6.055-2.672-12.259-5.775-17.148-10.317C1.928-36.4-4.109-55.525,3.131-70.825c4.3-9.1,12.313-15.062,21.83-18.018,9.718-3.018,19.96-3.175,29.807-5.481" transform="translate(3.766 -3.99)" fill="#fff"/>
      <path id="Fill_42" data-name="Fill 42" d="M66.8-120.238h0a2.185,2.185,0,0,0-2.138,1.723c-.466,1.636-.914,3.309-1.348,4.927a124.323,124.323,0,0,1-3.965,12.9c-3.86.622-7.811,1.014-11.632,1.394-8.456.84-17.2,1.708-25.363,5.123A37.664,37.664,0,0,0,11.006-86.85,33.056,33.056,0,0,0,3.215-75.845,40.482,40.482,0,0,0,.823-51.808,47.694,47.694,0,0,0,4.892-39.884a45.729,45.729,0,0,0,7.087,10.415C16.256-24.761,21.7-20.9,29.128-17.308,41.708-11.223,56.375-6.75,73.967-3.631A223.49,223.49,0,0,0,112.762,0c4.61,0,9.187-.175,13.6-.52a137.072,137.072,0,0,0,22.578-3.422,69.983,69.983,0,0,0,21.013-8.691A41.672,41.672,0,0,0,186.1-30.917a32.309,32.309,0,0,0,2.641-13.033,35.425,35.425,0,0,0-2.562-13.081A59.867,59.867,0,0,0,170.267-79.2a65.166,65.166,0,0,0-23.753-13.6A91.521,91.521,0,0,0,127.7-96.348c-6.353-.591-12.871-.74-19.176-.885-11.145-.256-22.668-.521-33.671-3.23a122.292,122.292,0,0,0-5.53-18.052A2.785,2.785,0,0,0,66.8-120.238Zm-5.825,24.01h0a2.606,2.606,0,0,0,2.487-1.622,92.976,92.976,0,0,0,3.89-12.044c1.109,3.546,2.032,7.211,2.924,10.756q.16.635.32,1.268a2.362,2.362,0,0,0,1.66,1.659,81.09,81.09,0,0,0,9.728,1.923,231.241,231.241,0,0,0,24.826,1.533c4.012.1,8.155.209,12.227.42,11.021.569,22.613,1.793,32.716,6.854a67.6,67.6,0,0,1,21.6,17.041c4.535,5.458,9.988,14.012,10.215,23.766.4,17.282-14.017,28.9-27.646,34-12,4.5-25.889,6.682-42.465,6.682-1.868,0-3.809-.028-5.768-.083a219.474,219.474,0,0,1-51.5-7.561A149.573,149.573,0,0,1,34.768-19C28.79-21.634,22.575-24.71,17.62-29.314,6.486-39.657-.772-58.607,6.9-74.814c4.077-8.619,11.626-14.849,21.83-18.018a106,106,0,0,1,16.991-3.3c4.224-.584,8.592-1.187,12.816-2.176a1.78,1.78,0,0,0,.51,1.33A2.705,2.705,0,0,0,60.973-96.228Z" transform="translate(0 0)"/>
    </g>
    <path id="Fill_156" data-name="Fill 156" d="M12.568,1.227a230.534,230.534,0,0,1-.76,23.186A33.289,33.289,0,0,1,10.1,16.746C9.556,12.828,9.439,8.86,9.086,4.921a1.206,1.206,0,1,0-2.412,0c-.414,6.474.371,13.079-.3,19.536A163.315,163.315,0,0,1,1.556,1.008C1.427.093-.1.307.005,1.227c1.105,9.493,2.664,18.941,5.689,28a1.038,1.038,0,0,0,2.008,0,42.394,42.394,0,0,0,.948-6.406,17.018,17.018,0,0,0,3.061,6.432,1.248,1.248,0,0,0,2.107-.581C15.012,19.589,15,10.374,15,1.227a1.216,1.216,0,1,0-2.432,0" transform="translate(34 71)"/>
    <path id="Fill_27" data-name="Fill 27" d="M10.495,23.766a8.849,8.849,0,0,1-5.586,1.825c-.047-3.525-.18-7.047-.322-10.569.788.05,1.58.065,2.352.1,1.564.072,3.143.3,4.6-.327a1.563,1.563,0,0,0,0-2.7c-1.459-.629-3.037-.4-4.6-.328-.808.037-1.638.053-2.462.109a79.112,79.112,0,0,0-.529-8.307q.52-.037,1.042-.09a15.423,15.423,0,0,0,3.632-.417,1.478,1.478,0,0,0,0-2.835C6.913-.335,4.8.278,2.891.668a1.164,1.164,0,0,0-1,.18C1.694.876,1.5.9,1.315.917a1.343,1.343,0,0,0-.1,2.681,75.464,75.464,0,0,0-.027,10.714c.141,4.265.286,8.53.278,12.8a1.709,1.709,0,0,0,1.27,1.649,11.882,11.882,0,0,0,9.505-2.033c1.787-1.285.077-4.253-1.75-2.96" transform="translate(55 71)"/>
    <g id="Group_33" data-name="Group 33" transform="translate(80 70)">
      <path id="Fill_197" data-name="Fill 197" d="M9.527,27.612h0a1.517,1.517,0,0,1-1.56-1.484,59.6,59.6,0,0,0-1.394-9.945c-.217,0-.438-.015-.651-.025-.276-.013-.536-.026-.792-.026H4.91l-.458,0H4.01c-.35,0-.763,0-1.179.033-.531,3.583-.883,6.525-1.107,9.257a.741.741,0,0,1-.748.713.713.713,0,0,1-.729-.713,49.424,49.424,0,0,1,.365-8.986A1.094,1.094,0,0,1,0,15.481a.906.906,0,0,1,.479-.865c.123-.068.245-.126.391-.194.155-1.128.326-2.274.491-3.381.475-3.182.966-6.47,1.133-9.75A1.287,1.287,0,0,1,3.8,0a1.376,1.376,0,0,1,1.3.937c1.439,3.9,2.8,8.248,4.053,12.936a43.416,43.416,0,0,1,1.877,12.255A1.462,1.462,0,0,1,9.527,27.612ZM4.158,7.782h0q-.113.709-.229,1.419l-.007.042c-.238,1.471-.484,2.989-.718,4.483.445-.076.925-.136,1.467-.184.2-.018.406-.041.624-.066.189-.021.383-.043.579-.062-.015-.055-.029-.109-.044-.164-.021-.08-.042-.159-.064-.237C5.4,11.734,4.994,10.438,4.6,9.185Q4.377,8.483,4.158,7.782Z" transform="translate(21.8 2.485)" fill="#0b0212"/>
      <path id="Fill_56" data-name="Fill 56" d="M3.212,30.6h0A1.487,1.487,0,0,1,1.666,29.21c-.2-1.4-.271-2.854-.342-4.258-.038-.76-.077-1.545-.136-2.312-.1-1.31-.185-2.4-.26-3.431l-.063-.03,0,0L.784,19.14a1.291,1.291,0,0,1-.746-.94,1.931,1.931,0,0,1,.417-1.611c.064-.073.126-.149.186-.221l.092-.111,0-.062C.7,15.746.676,15.236.653,14.737.424,9.6.4,4.648,2.591.547A.941.941,0,0,1,3.432,0a1.17,1.17,0,0,1,.877.434,1.139,1.139,0,0,1,.256.946c-.045.249-.088.508-.128.771A2.74,2.74,0,0,1,5.72,1.789a1.966,1.966,0,0,1,.665.115C7.639,2.351,8.25,3.6,8.2,5.631A21.754,21.754,0,0,1,4.522,16.5c.026.353.05.653.074.944a31.528,31.528,0,0,1,4.811,3.48c1.057.914,2.1,1.873,3.1,2.851l.261.253a4.667,4.667,0,0,1,1.6,2.324,1.342,1.342,0,0,1-.248,1.14,1.3,1.3,0,0,1-1.02.483,1.47,1.47,0,0,1-.317-.035,5.107,5.107,0,0,1-2.445-1.688c-.168-.172-.341-.35-.516-.518-.8-.774-1.742-1.669-2.722-2.5-.721-.609-1.442-1.171-2.141-1.67q.019.213.039.425c.02.217.04.432.059.647.046.5.106,1.021.165,1.525A22.28,22.28,0,0,1,5.438,28.7,2.252,2.252,0,0,1,3.212,30.6ZM5.406,4.44a1.134,1.134,0,0,0-.336.134,8.592,8.592,0,0,0-.939.653c-.077,1.442-.08,3.025-.009,4.84.338-.932.648-1.917.946-3.01L5.1,6.933a7.8,7.8,0,0,0,.362-1.97,2.887,2.887,0,0,0-.047-.448Z" transform="translate(39 0)"/>
      <path id="Fill_57" data-name="Fill 57" d="M14.183,22.825A99.718,99.718,0,0,1,4.1,24.152a84.046,84.046,0,0,1-1.064-8.7q1.565.181,3.138.28c1.718.112,3.971.522,5.6-.078a1.516,1.516,0,0,0,0-2.917c-1.634-.6-3.887-.189-5.6-.077q-1.642.1-3.28.3A90.906,90.906,0,0,1,3.043,2.693c1.254.135,2.511.221,3.778.3,1.733.115,3.842.39,5.217-.809a.913.913,0,0,0,0-1.315C10.751-.251,9.093.025,7.47.042A43.709,43.709,0,0,0,1.36.579,1,1,0,0,0,1.2,2.439a47.687,47.687,0,0,0-.966,11.1A1.069,1.069,0,0,0,.28,14.921a86.765,86.765,0,0,0,1.279,11.05,1.413,1.413,0,0,0,1.368,1.017,67.3,67.3,0,0,0,12.111-1.14c2.032-.316,1.18-3.369-.855-3.024" transform="translate(57 1)"/>
      <path id="Fill_11" data-name="Fill 11" d="M14.13,20.524c-.539,2.411-1.23,6.522-4.64,5.533-3.058-.885-5.049-4.583-5.957-7.361A14.614,14.614,0,0,1,4.649,6.924,12.528,12.528,0,0,1,8.266,2.736C10.052,1.5,10.941,4.08,11.452,5.4c.273.709,1.5.686,1.429-.193C12.694,3.05,11.944.364,9.433.033c-2.294-.3-4.2,1.566-5.521,3.189A17.042,17.042,0,0,0,.644,18.761c1.115,4.076,4.039,8.705,8.373,9.849,4.7,1.238,7.258-3.845,7.455-7.769a1.2,1.2,0,0,0-2.342-.317" transform="translate(0 1.4)"/>
    </g>
    <path id="Fill_35" data-name="Fill 35" d="M8.976,26a1.45,1.45,0,0,1-1.033-.407,1.334,1.334,0,0,1-.365-.983c0-.04,0-.081,0-.121s0-.067,0-.1c-3.225-3.07-5.268-7.846-6.414-11.313A21.182,21.182,0,0,1,0,6.812,11.532,11.532,0,0,1,1.5.71,1.267,1.267,0,0,1,2.618.038,1.5,1.5,0,0,1,4,1.04,10.419,10.419,0,0,0,6.475,4.456c.293.306.6.623.88.943.124-.164.25-.326.375-.488.185-.239.375-.486.558-.732.109-.147.245-.314.388-.49a5.007,5.007,0,0,0,1.3-2.28A1.549,1.549,0,0,1,11.47,0a1.2,1.2,0,0,1,1.09.7A13.065,13.065,0,0,1,13.93,8.174a39.439,39.439,0,0,1-1.711,7.474,33.524,33.524,0,0,0-1.807,8.962A1.367,1.367,0,0,1,8.976,26ZM2.918,4.494h0c-.547,2.374-.219,5.193,1,8.617a42.818,42.818,0,0,0,2.825,5.938c.387.715.787,1.455,1.165,2.193a53.872,53.872,0,0,1,1.62-6.274c.181-.6.367-1.217.544-1.827.717-2.471,1.448-5.336,1.04-8.07-.256.341-.529.681-.793,1.01A16.35,16.35,0,0,0,8.6,8.512a1.3,1.3,0,0,1-1.18.681A1.344,1.344,0,0,1,6.23,8.512,10.705,10.705,0,0,0,4.514,6.352c-.275-.291-.559-.592-.819-.9-.31-.365-.557-.671-.778-.962Z" transform="translate(166 70)"/>
  </g>
</svg>
